<?xml version="1.0" encoding="UTF-8"?>
<svg width="36" height="36" viewBox="0 0 24 24" version="1.1" xmlns="http://www.w3.org/2000/svg">
  <path fill-rule="evenodd" d="M12 2.5a5 5 0 0 0-4.994 4.758A6.499 6.499 0 0 0 4.5 12.5a6.5 6.5 0 0 0 11.72 3.874.75.75 0 0 0-1.207-.89A4.999 4.999 0 0 1 6 12.5c0-1.773.923-3.33 2.314-4.215A.75.75 0 0 0 8.66 7.6a3.5 3.5 0 1 1 6.083 2.346.75.75 0 1 0 1.14.974A5 5 0 0 0 12 2.5Zm6.03 8.28a.75.75 0 0 1 1.06 0l2.16 2.159a.75.75 0 0 1 0 1.061l-2.16 2.16a.75.75 0 0 1-1.28-.53v-1.13h-3.06a.75.75 0 0 1 0-1.5h3.06v-1.13a.75.75 0 0 1 .22-.53ZM9.2 9.5c0-1.546 1.254-2.8 2.8-2.8s2.8 1.254 2.8 2.8-1.254 2.8-2.8 2.8-2.8-1.254-2.8-2.8Zm-1.255 8.315C8.923 16.974 10.39 16.5 12 16.5c.628 0 1.238.072 1.821.207a.75.75 0 1 1-.338 1.461A6.602 6.602 0 0 0 12 18c-1.267 0-2.41.36-3.234.958a.75.75 0 1 1-.821-1.143Z"/>
</svg>