<?xml version="1.0" encoding="UTF-8" standalone="no"?>
<svg
   width="36"
   height="36"
   viewBox="0 0 24 24"
   version="1.1"
   id="svg1"
   xml:space="preserve"
   xmlns="http://www.w3.org/2000/svg"
   xmlns:svg="http://www.w3.org/2000/svg"><defs
     id="defs1" /><path
     style="fill:#000000;stroke-width:0.0864673"
     d="m 19.350666,11.159434 c -0.03432,-0.04218 -0.07057,-0.657791 -0.08741,-1.4843573 C 19.230089,8.0463492 19.176409,7.763675 18.726868,6.8504762 18.498715,6.3870058 18.376544,6.2226862 17.931864,5.7812046 17.479252,5.3318473 17.322562,5.2181869 16.801167,4.9610072 16.027851,4.5795668 15.637935,4.4873341 14.626538,4.4466099 l -0.819973,-0.033016 -0.01588,0.9429936 c -0.01574,0.9347045 -0.01712,0.9436087 -0.156338,1.0129537 -0.101797,0.050697 -0.172055,0.053051 -0.255203,0.00856 C 13.2641,6.31652 11.193968,4.466189 10.672209,3.9585679 10.347825,3.6429746 10.354485,3.6005692 10.790852,3.2030892 10.937965,3.0690855 11.575327,2.4795511 12.207209,1.8930143 13.732796,0.47690816 13.803634,0.46844487 13.803634,1.7022751 v 0.7095435 h 0.572278 c 1.929852,0 3.667983,0.6791639 4.923924,1.9239944 0.843081,0.8356201 1.410551,1.8434307 1.740525,3.0911125 0.150999,0.5709598 0.161508,0.6911495 0.185393,2.1201802 0.01903,1.1388923 0.0079,1.5359403 -0.045,1.5996463 -0.09435,0.113692 -1.738607,0.125082 -1.830079,0.01268 z"
     id="path4" /><path
     style="fill:#000000;stroke-width:0.0864673"
     d="M 1.6956872,11.728014 C 1.5331589,11.614175 1.5307395,11.3908 1.6844836,10.693676 1.9229345,9.6124621 2.1321224,9.1316128 2.8410883,8.0350503 3.3486804,7.2499529 3.623017,6.6677726 3.8434325,5.9079316 L 3.9935757,5.3903427 3.7749479,5.2194612 C 3.160158,4.7389345 2.768556,4.0857567 2.6591559,3.3583595 2.428543,1.8250208 3.5108644,0.3888481 5.0680695,0.1618825 6.9331775,-0.10995968 8.5417272,1.5025373 8.2567229,3.3583595 8.1484254,4.0635456 7.7455462,4.7772822 7.2499617,5.1419279 7.1073617,5.2468514 6.9896773,5.380752 6.9884409,5.4394848 c -0.00352,0.166729 0.3268566,1.1089609 0.5682454,1.6206807 0.1201333,0.2546714 0.428645,0.7833145 0.6855801,1.1747625 0.5447303,0.8299109 0.7776301,1.3548127 0.9607849,2.165382 0.2191344,0.969799 0.2308139,1.136775 0.090075,1.28774 l -0.1209191,0.1297 H 5.4980057 c -3.2321433,0 -3.689616,-0.0108 -3.8023185,-0.08974 z"
     id="path3" /><path
     style="fill:#000000;stroke-width:0.0864673"
     d="m 9.9776205,23.473166 c -0.078078,-0.08628 -0.095401,-0.236462 -0.095401,-0.827099 v -0.721681 l -0.850263,-0.03632 C 7.4638261,21.821082 6.3003871,21.427481 5.1555335,20.576643 3.7549004,19.535709 2.8552713,18.063604 2.5583371,16.326728 2.4234533,15.537739 2.3922878,13.164005 2.5151994,13.041093 c 0.099179,-0.09917 1.7390656,-0.09657 1.819928,0.0027 0.034108,0.04195 0.070712,0.65005 0.087617,1.455536 0.030779,1.466484 0.084453,1.852831 0.3480849,2.505517 0.5246829,1.298984 1.6739191,2.322727 3.0460506,2.713431 0.2948711,0.08396 0.670542,0.130484 1.2438983,0.154038 l 0.8214397,0.03375 V 19.01566 c 0,-0.963314 0.019234,-1.028782 0.3022481,-1.028782 0.12711,0 0.308913,0.131836 0.809912,0.587327 0.355307,0.323031 0.988671,0.898216 1.407475,1.278188 0.77227,0.700664 0.843326,0.783404 0.790661,0.920654 -0.05722,0.149127 -2.911977,2.805386 -3.015023,2.805386 -0.05746,0 -0.1474,-0.04744 -0.1998713,-0.105421 z"
     id="path2" /><path
     style="fill:#000000;stroke-width:0.0864673"
     d="m 14.731833,23.912303 c -0.299577,-0.06135 -0.325458,-0.274226 -0.142499,-1.172022 0.19093,-0.936906 0.45508,-1.524485 1.192683,-2.653007 0.200187,-0.306287 0.453155,-0.75257 0.562148,-0.991737 0.212044,-0.465302 0.49185,-1.32468 0.491488,-1.509533 -1.3e-4,-0.06718 -0.121722,-0.206243 -0.302637,-0.3461 -0.362299,-0.280076 -0.68718,-0.735499 -0.861266,-1.207338 -0.18346,-0.497237 -0.181656,-1.417342 0.0037,-1.887037 0.203607,-0.515949 0.565,-1.010304 0.940833,-1.286977 1.141775,-0.840526 2.644078,-0.755771 3.645305,0.205655 0.642353,0.616822 0.873928,1.22935 0.827703,2.189325 -0.02413,0.501309 -0.05097,0.612985 -0.248394,1.033672 -0.176565,0.376257 -0.302812,0.548509 -0.624259,0.851747 l -0.402933,0.380106 0.100401,0.380831 c 0.181078,0.686813 0.577372,1.521137 1.113882,2.345074 0.732845,1.125451 0.946396,1.646053 1.142222,2.78456 0.106622,0.619805 0.08219,0.795658 -0.121223,0.872997 -0.138437,0.05264 -7.062753,0.0619 -7.317161,0.0098 z"
     id="path1" /></svg>
