<?xml version="1.0" encoding="UTF-8" standalone="no"?>
<svg
   width="512"
   height="512"
   viewBox="0 0 512 512"
   version="1.1"
   id="svg1"
   sodipodi:docname="CreateGame.svg"
   inkscape:version="1.4.2 (f4327f4, 2025-05-13)"
   xmlns:inkscape="http://www.inkscape.org/namespaces/inkscape"
   xmlns:sodipodi="http://sodipodi.sourceforge.net/DTD/sodipodi-0.dtd"
   xmlns="http://www.w3.org/2000/svg"
   xmlns:svg="http://www.w3.org/2000/svg">
  <defs
     id="defs1" />
  <sodipodi:namedview
     id="namedview1"
     pagecolor="#ffffff"
     bordercolor="#000000"
     borderopacity="0.25"
     inkscape:showpageshadow="2"
     inkscape:pageopacity="0.0"
     inkscape:pagecheckerboard="0"
     inkscape:deskcolor="#d1d1d1"
     inkscape:zoom="0.80585314"
     inkscape:cx="298.44148"
     inkscape:cy="554.07118"
     inkscape:window-width="2560"
     inkscape:window-height="1369"
     inkscape:window-x="-8"
     inkscape:window-y="-8"
     inkscape:window-maximized="1"
     inkscape:current-layer="svg1" />
  <path
     fill-rule="evenodd"
     d="m 269.77824,18.650152 c -2.81213,0.972741 -18.63035,6.494737 -35.1516,12.271103 -38.25389,13.372947 -40.48186,14.064475 -45.36346,14.064475 -2.23053,0 -6.85009,1.415011 -10.26555,3.14447 -4.26676,2.160226 -16.03679,5.014535 -37.60454,9.118964 -38.31907,7.292359 -42.651029,9.157311 -51.207567,22.047083 -1.448246,2.181955 -8.017121,4.919945 -26.84304,11.19099 -13.709123,4.567152 -27.036053,9.691613 -29.615541,11.389123 -9.103625,5.98983 -15.122857,17.51955 -15.122857,28.96875 0,2.83897 2.662574,11.8186 6.287662,21.20728 3.457639,8.95535 11.538672,29.80088 17.956715,46.32213 13.698898,35.26409 99.113448,257.21895 104.090918,270.48708 4.15683,11.08107 9.79643,17.92093 18.83231,22.83832 5.64343,3.07161 8.40442,3.73501 15.79776,3.79381 8.12705,0.0652 12.0602,-1.02515 42.40561,-11.75214 l 33.44899,-11.82371 h 88.71496 c 97.50031,0 95.23655,0.16872 104.9026,-7.79983 2.59738,-2.14105 6.30428,-6.58293 8.23698,-9.87056 l 3.51388,-5.97705 0.33618,-188.9571 c 0.32339,-181.66091 0.24414,-189.164178 -2.03496,-194.292477 -3.48576,-7.845837 -8.39037,-13.0291 -15.83867,-16.739831 -6.49857,-3.23906 -7.08912,-3.295302 -34.52271,-3.295302 -25.45998,0 -27.97172,-0.196849 -28.61723,-2.23692 -3.72096,-11.764921 -10.46112,-19.137809 -20.68065,-22.619734 -8.35841,-2.847919 -11.43002,-2.593549 -33.23679,2.753328 -18.76968,4.601664 -19.69129,4.707758 -23.00832,2.645957 -10.28089,-6.389921 -14.02229,-7.787038 -21.98956,-8.207579 -4.91356,-0.260761 -10.39721,0.28377 -13.42152,1.32937 m 77.97263,25.057338 c -2.04135,0.876872 -1.57607,1.117181 2.31234,1.188763 2.93995,0.05369 4.55565,-0.416706 4.07886,-1.188763 -0.93311,-1.509602 -2.87859,-1.509602 -6.3912,0 m -160.3258,30.211201 -2.64979,3.368162 V 438.33851 l 2.64979,3.36816 2.64851,3.36817 h 243.85879 l 2.60633,-2.79807 c 2.59738,-2.78784 2.60633,-3.40651 2.60633,-184.48198 V 76.109594 l -2.95785,-2.780171 -2.95912,-2.778894 H 190.07358 Z m -50.58379,10.271936 c -22.71432,4.634899 -24.92568,5.684334 -24.92568,11.828833 0,5.24718 46.77591,245.39012 48.05032,246.69009 0.2876,0.29271 0.5228,-58.81055 0.5228,-131.33916 0,-72.52861 -0.43204,-131.814661 -0.95868,-131.743079 -0.52663,0.07158 -10.73722,2.123156 -22.68876,4.563316 M 73.568403,114.15641 c -23.897974,8.19351 -28.086766,10.13644 -28.908675,13.41001 -1.004696,4.00473 -2.923334,-1.44952 23.785489,67.6125 23.433974,60.59241 62.693833,162.65987 68.719463,178.65449 1.79209,4.75633 3.44613,8.45939 3.67621,8.22931 0.5228,-0.5228 -3.5829,-22.15573 -21.40029,-112.74588 C 99.888642,169.90173 93.204725,135.72798 90.629072,121.99969 c -1.693668,-9.03332 -2.686861,-11.79304 -4.206688,-11.6959 -1.094173,0.0703 -6.878209,1.80488 -12.853981,3.85262 m 228.804957,38.69615 c -18.31846,4.06225 -31.88826,17.17827 -36.53338,35.31138 -4.20669,16.41516 0.34768,31.86653 13.08279,44.39328 7.95832,7.82666 8.11171,8.10787 8.11171,14.8148 0,10.03035 -4.30767,25.47404 -10.7679,38.59901 -4.51218,9.16882 -7.8011,13.67972 -15.99078,21.93588 -9.88846,9.96899 -10.31028,10.63367 -10.31028,16.26304 0,5.22673 -0.56115,6.37714 -5.11296,10.48924 -4.58505,4.1415 -5.10913,5.23184 -5.07206,10.54165 0.0435,6.28382 1.22967,8.54886 6.31578,12.0538 2.87093,1.97871 8.8646,2.17812 65.63124,2.17812 68.10079,0 67.72115,0.0384 71.0663,-7.30131 2.8901,-6.34518 1.73969,-11.81988 -3.60975,-17.17059 -4.37413,-4.37286 -4.98641,-5.71246 -4.911,-10.73339 0.0831,-5.45552 -0.38602,-6.22375 -9.53055,-15.62392 -5.28936,-5.43764 -11.42491,-12.73894 -13.63371,-16.22342 -6.39887,-10.0981 -11.74958,-25.57503 -13.48032,-38.99399 l -1.57223,-12.19058 7.1607,-6.55992 c 29.75487,-27.26231 16.56599,-74.83968 -22.80253,-82.25858 -8.21652,-1.54795 -9.00647,-1.5275 -18.04107,0.4755"
     id="path1"
     style="stroke-width:1.27824" />
</svg>
