<?xml version="1.0" encoding="UTF-8" standalone="no"?>
<svg
   width="36"
   height="36"
   viewBox="0 0 512 512"
   version="1.1"
   id="svg1"
   sodipodi:docname="Delete.svg"
   inkscape:version="1.4.2 (f4327f4, 2025-05-13)"
   xmlns:inkscape="http://www.inkscape.org/namespaces/inkscape"
   xmlns:sodipodi="http://sodipodi.sourceforge.net/DTD/sodipodi-0.dtd"
   xmlns="http://www.w3.org/2000/svg"
   xmlns:svg="http://www.w3.org/2000/svg">
  <defs
     id="defs1" />
  <sodipodi:namedview
     id="namedview1"
     pagecolor="#ffffff"
     bordercolor="#000000"
     borderopacity="0.25"
     inkscape:showpageshadow="2"
     inkscape:pageopacity="0.0"
     inkscape:pagecheckerboard="0"
     inkscape:deskcolor="#d1d1d1"
     inkscape:zoom="32.416667"
     inkscape:cx="18.015424"
     inkscape:cy="18"
     inkscape:window-width="2560"
     inkscape:window-height="1369"
     inkscape:window-x="-8"
     inkscape:window-y="-8"
     inkscape:window-maximized="1"
     inkscape:current-layer="svg1" />
  <path
     fill-rule="evenodd"
     d="m 226.14076,5.875631 c 0,0.6605519 2.28609,5.959904 5.07878,11.77506 7.97948,16.611448 10.24488,27.792585 9.58203,47.297826 -0.65826,19.399554 -3.34757,31.02872 -10.63661,45.988213 -5.7221,11.74404 -15.45692,24.91488 -20.93203,28.32103 l -3.69566,2.30101 -2.79269,-2.79269 c -5.94268,-5.94268 -6.78703,-26.04184 -1.86678,-44.408632 2.72377,-10.166761 2.73986,-10.417197 0.67778,-10.417197 -2.5974,0 -11.95312,10.244872 -17.53851,19.205409 -15.56836,24.97691 -21.35135,55.26466 -17.57643,92.0534 0.9845,9.59235 0.89605,12.2518 -0.5227,15.64761 -4.30565,10.30347 -15.25243,5.85192 -22.08772,-8.98236 -3.03049,-6.5768 -3.27289,-8.17706 -3.49001,-23.12851 -0.12866,-8.83417 -0.7157,-16.22317 -1.30502,-16.4196 -2.17006,-0.72259 -11.00078,10.95827 -15.87163,20.99407 -2.75938,5.68649 -6.39988,15.5086 -8.0886,21.82693 -2.76513,10.34712 -3.07875,13.54074 -3.15457,32.16601 -0.0907,22.3347 1.29238,31.94775 7.02367,48.82342 10.1346,29.83973 29.40894,56.44562 55.02113,75.95201 l 10.97206,8.35511 -4.31944,2.21601 c -4.23213,2.17121 -4.40101,2.1735 -8.38615,0.0643 -10.12425,-5.35679 -25.1228,-19.18358 -38.16496,-35.17929 -5.0225,-6.16093 -9.5223,-11.20066 -9.99904,-11.20066 -2.12526,0 -11.55794,6.97198 -14.92964,11.03639 -8.35397,10.06681 -16.142735,30.76105 -14.62404,38.8531 0.897202,4.78355 2.042542,5.45099 32.35671,18.85387 l 18.47938,8.17133 9.46945,-3.99434 c 5.20744,-2.19647 10.35975,-3.99318 11.44994,-3.99318 3.86338,0 60.13092,27.26759 136.83998,66.31484 73.93129,37.63194 77.59936,39.37464 82.89297,39.36316 19.14911,-0.0413 41.30231,-34.10862 36.675,-56.39966 -1.8955,-9.134 -4.72611,-11.31784 -24.21871,-18.6919 -30.28086,-11.45455 -59.83913,-23.17102 -97.64683,-38.70606 l -37.33556,-15.34089 -12.06225,-0.12752 c -21.13078,-0.22401 -33.89724,-5.69453 -49.4564,-21.19395 -8.15409,-8.12422 -10.73426,-11.63836 -15.19385,-20.69883 -7.92202,-16.09565 -10.38847,-27.89598 -9.72677,-46.52584 0.38714,-10.8974 1.18555,-16.95265 2.95009,-22.40134 2.54685,-7.85884 8.0863,-17.47533 9.74744,-16.92162 0.53993,0.17921 2.63072,4.70658 4.648,10.05993 6.37116,16.91013 14.55052,26.15786 24.08775,27.23312 4.1115,0.46296 5.5245,0.0666 8.3218,-2.33893 3.85877,-3.31884 3.93,-4.32173 2.25736,-31.86963 -0.6571,-10.8342 -0.51925,-18.51153 0.45377,-25.27329 1.58303,-11.00193 7.61991,-27.28942 13.57866,-36.63594 4.22523,-6.62735 16.0003,-19.60289 17.78895,-19.60289 0.58588,0 0.73523,1.50031 0.33315,3.33378 -1.80589,8.22071 -2.54226,22.83672 -1.58188,31.417 3.32459,29.71336 23.64547,61.76794 39.1426,61.74266 7.83128,-0.0126 14.32306,-9.23969 17.19503,-24.43927 1.8932,-10.02087 3.62212,-9.79685 9.11562,1.18324 6.20574,12.4 8.35283,24.39793 7.58773,42.39252 -0.93626,22.04635 -7.13626,41.20006 -18.98255,58.64324 -5.2867,7.78647 -18.79873,20.89412 -25.45824,24.69775 -2.54227,1.45207 -4.48831,3.05922 -4.32289,3.56928 0.16428,0.51006 5.8657,3.28323 12.66996,6.16094 l 12.37129,5.23273 9.43383,-5.43262 c 19.83379,-11.42353 39.34937,-29.06544 52.50068,-47.46325 18.54485,-25.94304 29.89946,-59.44395 29.85695,-88.09007 -0.0219,-14.55168 -4.0667,-32.16602 -7.38669,-32.16602 -0.58358,0 -2.40097,4.66522 -4.03914,10.3678 -3.27749,11.41203 -6.45388,17.35471 -11.58321,21.67069 -4.73759,3.98629 -7.61301,4.65604 -10.85832,2.52849 -4.56184,-2.988 -4.74909,-8.25863 -0.74556,-21.03888 6.89386,-22.01304 8.94214,-38.35567 7.01103,-55.93554 -1.20852,-11.00538 -5.25224,-26.29802 -8.83416,-33.41246 -4.30221,-8.54466 -12.57347,-19.52247 -17.85559,-23.69716 -7.64746,-6.04491 -8.78132,-4.87544 -6.13911,6.33326 2.84094,12.05077 2.64106,29.49854 -0.44344,38.65551 -4.04372,12.00252 -9.51998,18.97909 -17.52243,22.32321 -3.73011,1.5589 -4.79273,1.58418 -8.11502,0.1953 -6.17588,-2.58017 -7.1489,-6.51247 -5.39011,-21.78444 2.07815,-18.04053 1.04195,-43.24031 -2.29872,-55.896493 C 302.88428,82.778828 296.11562,66.819891 289.06323,55.412443 281.90858,43.838422 262.42861,23.452061 251.61509,16.222749 238.14327,7.2151164 226.14076,2.3396676 226.14076,5.875631 m 149.9166,331.509849 c -11.15701,13.92673 -29.60766,30.99425 -42.76242,39.55729 -10.54471,6.86401 -11.6372,7.87379 -9.29253,8.59063 1.46126,0.44688 11.88304,4.69854 23.15839,9.44991 l 20.50008,8.63659 7.64518,-3.17985 c 4.20455,-1.7496 14.29205,-5.92773 22.41741,-9.28564 8.12537,-3.3579 15.72115,-6.96164 16.87912,-8.01049 3.17065,-2.86967 3.66922,-7.34648 1.80933,-16.26451 -3.69794,-17.73726 -14.94226,-32.7944 -27.21014,-36.43835 -3.35216,-0.99485 -6.12993,-1.77603 -6.17358,-1.73467 -0.0437,0.0413 -3.17984,3.94723 -6.97084,8.67909 m -216.05567,71.27759 c -3.74504,1.53018 -18.26455,7.11788 -32.26711,12.41377 -35.726103,13.51663 -35.961604,13.66597 -38.432643,24.44733 -3.975949,17.35127 8.921474,43.13462 26.803483,53.58168 9.13514,5.33727 12.41378,4.78125 35.01615,-5.93117 10.86522,-5.15002 33.61119,-15.6258 50.5466,-23.27901 16.9354,-7.65437 35.18502,-15.98766 40.55559,-18.52074 l 9.76469,-4.60548 -4.59514,-2.24933 c -10.57918,-5.17643 -56.09869,-27.06079 -67.86225,-32.62552 l -12.71936,-6.01619 z m 186.34921,15.88311 c -0.42276,1.10168 0.45721,2.28149 2.46185,3.30047 5.6233,2.86047 7.96913,3.22234 8.69057,1.34178 0.4664,-1.21657 -0.70766,-2.45726 -3.83925,-4.05406 -5.39814,-2.75365 -6.44929,-2.83866 -7.31317,-0.58819 m -184.25497,6.99151 c -11.78655,5.65893 -15.58558,8.5263 -11.29602,8.5263 3.03624,0 25.94304,-11.81182 25.94304,-13.37762 0,-2.15971 -0.15164,-2.10917 -14.64702,4.85132 m 159.40442,1.92078 c 0.0115,1.42679 30.18207,15.82912 33.11263,15.8073 4.32632,-0.0322 -0.97762,-3.60834 -14.82854,-9.99789 -16.20823,-7.47745 -18.30131,-8.14145 -18.28409,-5.80941 m -160.20168,13.41438 c -12.9675,2.9696 -18.58047,5.82779 -11.44191,5.82779 6.2896,0 28.03498,-5.8703 28.03498,-7.56706 0,-2.04599 -0.1034,-2.03565 -16.59307,1.73927 m 175.63793,12.82044 c -0.4239,0.68699 -0.2332,1.78752 0.42389,2.44463 1.84037,1.84035 10.28049,5.3855 11.03295,4.63305 1.67264,-1.67263 0.26997,-3.46589 -4.53311,-5.80022 -6.03343,-2.93056 -5.9151,-2.90873 -6.92373,-1.27746"
     id="path1"
     style="stroke-width:1.14878" />
</svg>
