<svg xmlns="http://www.w3.org/2000/svg" width="512" height="512"><path fill-rule="evenodd" d="M230 48.046c0 .575 1.99 5.188 4.421 10.25 6.946 14.46 8.918 24.193 8.341 41.172-.573 16.887-2.914 27.01-9.259 40.032-4.981 10.223-13.455 21.688-18.221 24.653l-3.217 2.003-2.431-2.431c-5.173-5.173-5.908-22.669-1.625-38.657 2.371-8.85 2.385-9.068.59-9.068-2.261 0-10.405 8.918-15.267 16.718-13.552 21.742-18.586 48.107-15.3 80.131.857 8.35.78 10.665-.455 13.621-3.748 8.969-13.277 5.094-19.227-7.819-2.638-5.725-2.849-7.118-3.038-20.133-.112-7.69-.623-14.122-1.136-14.293-1.889-.629-9.576 9.539-13.816 18.275-2.402 4.95-5.571 13.5-7.041 19-2.407 9.007-2.68 11.787-2.746 28-.079 19.442 1.125 27.81 6.114 42.5 8.822 25.975 25.6 49.135 47.895 66.115l9.551 7.273-3.76 1.929c-3.684 1.89-3.831 1.892-7.3.056-8.813-4.663-21.869-16.699-33.222-30.623-4.372-5.363-8.289-9.75-8.704-9.75-1.85 0-10.061 6.069-12.996 9.607-7.272 8.763-14.052 26.777-12.73 33.821.781 4.164 1.778 4.745 28.166 16.412l16.086 7.113 8.243-3.477c4.533-1.912 9.018-3.476 9.967-3.476 3.363 0 52.343 23.736 119.117 57.726 64.356 32.758 67.549 34.275 72.157 34.265 16.669-.036 35.953-29.691 31.925-49.095-1.65-7.951-4.114-9.852-21.082-16.271-26.359-9.971-52.089-20.17-85-33.693l-32.5-13.354-10.5-.111c-18.394-.195-29.507-4.957-43.051-18.449-7.098-7.072-9.344-10.131-13.226-18.018-6.896-14.011-9.043-24.283-8.467-40.5.337-9.486 1.032-14.757 2.568-19.5 2.217-6.841 7.039-15.212 8.485-14.73.47.156 2.29 4.097 4.046 8.757 5.546 14.72 12.666 22.77 20.968 23.706 3.579.403 4.809.058 7.244-2.036 3.359-2.889 3.421-3.762 1.965-27.742-.572-9.431-.452-16.114.395-22 1.378-9.577 6.633-23.755 11.82-31.891 3.678-5.769 13.928-17.064 15.485-17.064.51 0 .64 1.306.29 2.902-1.572 7.156-2.213 19.879-1.377 27.348 2.894 25.865 20.583 53.768 34.073 53.746 6.817-.011 12.468-8.043 14.968-21.274 1.648-8.723 3.153-8.528 7.935 1.03 5.402 10.794 7.271 21.238 6.605 36.902-.815 19.191-6.212 35.864-16.524 51.048-4.602 6.778-16.364 18.188-22.161 21.499-2.213 1.264-3.907 2.663-3.763 3.107.143.444 5.106 2.858 11.029 5.363l10.769 4.555 8.212-4.729c17.265-9.944 34.253-25.301 45.701-41.316 16.143-22.583 26.027-51.745 25.99-76.681-.019-12.667-3.54-28-6.43-28-.508 0-2.09 4.061-3.516 9.025-2.853 9.934-5.618 15.107-10.083 18.864-4.124 3.47-6.627 4.053-9.452 2.201-3.971-2.601-4.134-7.189-.649-18.314 6.001-19.162 7.784-33.388 6.103-48.691-1.052-9.58-4.572-22.892-7.69-29.085-3.745-7.438-10.945-16.994-15.543-20.628-6.657-5.262-7.644-4.244-5.344 5.513 2.473 10.49 2.299 25.678-.386 33.649-3.52 10.448-8.287 16.521-15.253 19.432-3.247 1.357-4.172 1.379-7.064.17-5.376-2.246-6.223-5.669-4.692-18.963 1.809-15.704.907-37.64-2.001-48.657-3.175-12.027-9.067-25.919-15.206-35.849-6.228-10.075-23.185-27.821-32.598-34.114C240.448 49.212 230 44.968 230 48.046M360.5 336.62c-9.712 12.123-25.773 26.98-37.224 34.434-9.179 5.975-10.13 6.854-8.089 7.478 1.272.389 10.344 4.09 20.159 8.226l17.845 7.518 6.655-2.768c3.66-1.523 12.441-5.16 19.514-8.083s13.685-6.06 14.693-6.973c2.76-2.498 3.194-6.395 1.575-14.158-3.219-15.44-13.007-28.547-23.686-31.719-2.918-.866-5.336-1.546-5.374-1.51s-2.768 3.436-6.068 7.555m-188.073 62.046c-3.26 1.332-15.899 6.196-28.088 10.806-31.099 11.766-31.304 11.896-33.455 21.281-3.461 15.104 7.766 37.548 23.332 46.642 7.952 4.646 10.806 4.162 30.481-5.163 9.458-4.483 29.258-13.602 44-20.264 14.742-6.663 30.628-13.917 35.303-16.122l8.5-4.009-4-1.958c-9.209-4.506-48.833-23.556-59.073-28.4l-11.072-5.237zm162.214 13.826c-.368.959.398 1.986 2.143 2.873 4.895 2.49 6.937 2.805 7.565 1.168.406-1.059-.616-2.139-3.342-3.529-4.699-2.397-5.614-2.471-6.366-.512m-160.391 6.086c-10.26 4.926-13.567 7.422-9.833 7.422C167.06 426 187 415.718 187 414.355c0-1.88-.132-1.836-12.75 4.223m138.759 1.672c.01 1.242 26.273 13.779 28.824 13.76 3.766-.028-.851-3.141-12.908-8.703-14.109-6.509-15.931-7.087-15.916-5.057m-139.453 11.677c-11.288 2.585-16.174 5.073-9.96 5.073 5.475 0 24.404-5.11 24.404-6.587 0-1.781-.09-1.772-14.444 1.514m152.89 11.16c-.369.598-.203 1.556.369 2.128 1.602 1.602 8.949 4.688 9.604 4.033 1.456-1.456.235-3.017-3.946-5.049-5.252-2.551-5.149-2.532-6.027-1.112"/></svg>