<?xml version="1.0" encoding="UTF-8" standalone="no"?>
<svg
   width="36"
   height="36"
   viewBox="0 0 512 512"
   version="1.1"
   id="svg1"
   xmlns="http://www.w3.org/2000/svg"
   xmlns:svg="http://www.w3.org/2000/svg">
  <defs
     id="defs1" />
  <path
     fill-rule="evenodd"
     d="m 264.68362,17.456192 c -19.43384,19.741612 -29.37347,36.940527 -32.8291,56.809403 -3.70236,21.289566 0.19609,36.288625 16.8379,64.780325 11.12138,19.04166 13.88614,27.31257 13.86276,41.4831 -0.0182,10.78244 -0.24284,11.63044 -10.35908,39.16766 -3.64003,9.90717 -4.60231,19.26892 -2.70373,26.29704 1.43627,5.31266 1.68431,5.51914 6.63724,5.51914 h 5.14384 l 0.013,-8.76568 c 0.0156,-10.76036 2.39855,-16.26651 15.93146,-36.80677 14.2056,-21.56358 17.7781,-31.18895 17.80408,-47.98009 0.0247,-15.51721 -4.29973,-28.24238 -16.6496,-48.99172 -5.33213,-8.95917 -11.06164,-22.551823 -13.2654,-31.470741 -4.18415,-16.937893 -1.11162,-40.8221 7.77354,-60.41567 2.08688,-4.603605 3.32186,-8.6630895 2.74268,-9.0202099 -0.57918,-0.3571203 -5.50095,3.8698859 -10.93957,9.3942129 M 195.04386,195.40081 c -9.25007,1.3155 -25.23867,6.23597 -34.81469,10.71361 -13.13554,6.14117 -20.23509,11.59537 -25.1179,19.29619 l -3.69976,5.83339 v 109.47881 c 0,106.55692 -0.0662,109.47881 -2.45829,109.47881 -4.86982,0 -32.608332,7.64757 -40.366284,11.12917 -8.377394,3.7595 -14.314682,9.44356 -14.314682,13.70303 0,10.15131 29.282566,21.01945 72.722686,26.98921 34.41471,4.73087 56.22243,5.923 107.78541,5.89573 73.66288,-0.039 122.97016,-4.97631 156.40312,-15.66135 13.48486,-4.30882 19.12347,-7.27616 23.33229,-12.27845 5.43213,-6.45543 2.69983,-11.79016 -8.96307,-17.49629 -7.50342,-3.6699 -29.40334,-10.26559 -38.73522,-11.6655 l -6.07104,-0.91033 V 237.09818 l -7.39694,0.38959 c -7.39044,0.38958 -7.39823,0.39478 -10.56037,6.55153 -1.74015,3.3881 -5.71652,8.51375 -8.83581,11.38889 l -5.67237,5.22825 -0.003,43.15312 c -10e-4,48.1528 -0.18441,49.27871 -8.95528,55.13808 -5.41005,3.61406 -11.13307,3.75301 -16.62623,0.40257 -8.3644,-5.09968 -8.78516,-7.20994 -9.22928,-46.32175 l -0.39998,-35.23155 -3.13616,-2.94656 c -3.09072,-2.90372 -3.35174,-2.92579 -17.85732,-1.45446 -62.05712,6.29181 -130.79435,-7.09695 -130.79435,-25.47631 0,-7.16319 11.86419,-14.82374 30.51756,-19.70525 10.60323,-2.77515 36.14447,-6.56972 44.21929,-6.56972 h 4.47894 V 206.06118 H 228.1063 c -13.11086,0 -17.88849,-1.48303 -26.07109,-8.09689 -2.31284,-1.86742 -4.98799,-2.84918 -6.99176,-2.56348"
     id="path1"
     style="stroke-width:1.29862" />
</svg>
