<svg xmlns="http://www.w3.org/2000/svg" width="512" height="512"><path fill-rule="evenodd" d="M262.626 72.765c-14.965 15.202-22.619 28.446-25.28 43.746-2.851 16.394.151 27.944 12.966 49.884 8.564 14.663 10.693 21.032 10.675 31.944-.014 8.303-.187 8.956-7.977 30.161-2.803 7.629-3.544 14.838-2.082 20.25 1.106 4.091 1.297 4.25 5.111 4.25H260l.01-6.75c.012-8.286 1.847-12.526 12.268-28.343 10.939-16.605 13.69-24.017 13.71-36.947.019-11.949-3.311-21.748-12.821-37.726-4.106-6.899-8.518-17.366-10.215-24.234-3.222-13.043-.856-31.435 5.986-46.523 1.607-3.545 2.558-6.671 2.112-6.946s-4.236 2.98-8.424 7.234M209 209.791c-7.123 1.013-19.435 4.802-26.809 8.25-10.115 4.729-15.582 8.929-19.342 14.859L160 237.392v84.304c0 82.054-.051 84.304-1.893 84.304-3.75 0-25.11 5.889-31.084 8.57-6.451 2.895-11.023 7.272-11.023 10.552 0 7.817 22.549 16.186 56 20.783 26.501 3.643 43.294 4.561 83 4.54 56.724-.03 94.693-3.832 120.438-12.06 10.384-3.318 14.726-5.603 17.967-9.455 4.183-4.971 2.079-9.079-6.902-13.473-5.778-2.826-22.642-7.905-29.828-8.983l-4.675-.701V241.9l-5.696.3c-5.691.3-5.697.304-8.132 5.045-1.34 2.609-4.402 6.556-6.804 8.77L327 260.041l-.002 33.23c-.001 37.08-.142 37.947-6.896 42.459-4.166 2.783-8.573 2.89-12.803.31-6.441-3.927-6.765-5.552-7.107-35.67l-.308-27.13-2.415-2.269c-2.38-2.236-2.581-2.253-13.751-1.12C235.931 274.696 183 264.386 183 250.233c0-5.516 9.136-11.415 23.5-15.174 8.165-2.137 27.833-5.059 34.051-5.059H244v-12h-9.54c-10.096 0-13.775-1.142-20.076-6.235-1.781-1.438-3.841-2.194-5.384-1.974"/></svg>