<svg xmlns="http://www.w3.org/2000/svg" width="512" height="512"><path fill-rule="evenodd" d="M369.364 41.428C343.171 47.404 324.097 65.432 315.861 92c-2.997 9.669-3.222 27.931-.467 38 6.12 22.368 25.165 42.359 47.251 49.598 7.991 2.619 10.124 2.897 21.855 2.847 11.495-.049 13.926-.374 21-2.808 14.907-5.129 29.101-15.728 37.389-27.918 6.778-9.97 12.122-27.666 12.103-40.079-.017-12.117-4.095-27.13-10.171-37.449-4.806-8.161-16.992-19.962-25.323-24.52-11.751-6.431-20.434-8.873-32.998-9.284-7.094-.231-13.179.138-17.136 1.041M245 52.526c-.825.162-4.875.838-9 1.504-29.946 4.831-58.59 23.644-75.716 49.73-12.724 19.381-18.147 36.203-19.016 58.987-.567 14.851.33 23.531 3.793 36.735 10.224 38.979 42.427 71.113 82.331 82.153 11.311 3.129 32.89 4.274 45.731 2.427 34.647-4.983 67.627-29.022 84.616-61.678 4.485-8.62 10.579-25.574 10.07-28.017-.177-.851-3.511-2.56-7.809-4.003-27.163-9.121-47.379-30.33-55.157-57.864-1.863-6.596-2.248-10.369-2.192-21.5.058-11.668.434-14.721 2.772-22.5 1.489-4.95 4.02-11.43 5.627-14.4 3.397-6.282 3.541-6.045-6.664-10.974C290.388 56.365 270.43 51.917 255 52.12c-4.675.062-9.175.244-10 .406m124.546 1.08c-8.01 1.938-19.96 8.49-25.919 14.214-6.745 6.479-13.08 16.507-16.089 25.473-3.043 9.063-3.486 23.646-1.01 33.155 5.262 20.201 22.864 37.742 43.116 42.967 7.865 2.029 20.847 2.029 28.712 0 20.472-5.282 37.8-22.56 43.124-42.999 2.198-8.44 1.961-22.351-.536-31.436-5.386-19.596-22.475-36.206-42.588-41.395-7.506-1.936-20.755-1.926-28.81.021m7.755 14.293c-4.322 2.715-5.566 7.806-5.142 21.041l.339 10.56-14.339.5c-14.195.495-14.363.528-16.742 3.297-4.61 5.367-4.401 12.428.507 17.13 2.855 2.735 3.112 2.781 16.738 3.013l13.838.235.277 14.053c.268 13.608.358 14.135 2.862 16.638 4.854 4.854 14.109 4.313 18.345-1.073 1.797-2.285 2.016-4.04 2.014-16.178l-.002-13.615 11.978.308c9.742.251 12.658-.014 15.625-1.422 7.16-3.398 8.509-14.219 2.447-19.636-3.033-2.71-3.271-2.75-16.486-2.75h-13.409l-.325-13.98c-.317-13.606-.397-14.051-2.987-16.638-3.638-3.635-10.996-4.337-15.538-1.483M173.5 283.91c-57.807 12.332-100.34 56.086-112.419 115.646-3.243 15.988-5.537 63.426-3.139 64.908 2.713 1.677 66.837 7.563 106.058 9.735 36.148 2.001 151.412 1.673 189.5-.54 40.199-2.336 82.001-6.011 96.861-8.516l3.861-.651-.139-21.996c-.156-24.758-1.06-34.411-4.615-49.314-13.362-56.004-56.47-98.107-112.283-109.667-11.032-2.285-11.528-2.177-15.603 3.373-7.982 10.874-21.605 21.417-34.381 26.609-15.105 6.137-39.312 7.218-54.701 2.441-17.083-5.303-33.699-16.873-42.633-29.688-3.411-4.892-4.005-4.977-16.367-2.34"/></svg>