<?xml version="1.0" encoding="UTF-8" standalone="no"?>
<svg
   width="36"
   height="36"
   viewBox="0 0 512 512"
   version="1.1"
   id="svg1"
   xml:space="preserve"
   xmlns="http://www.w3.org/2000/svg"
   xmlns:svg="http://www.w3.org/2000/svg"><defs
     id="defs1" /><path
     style="fill:#000000"
     d="m 93.830396,480.03482 c -0.75087,-2.55241 -0.298582,-5.45891 1.780109,-11.43938 2.232194,-6.4221 11.326555,-26.46239 15.023045,-33.1047 0.42642,-0.76624 -2.40118,-2.60836 -6.5738,-4.28271 -5.430157,-2.17895 -16.74018,-4.27895 -43.771973,-8.1274 -34.569095,-4.92152 -36.527251,-5.33415 -37.948925,-7.99667 -4.22229,-7.90754 1.07002,-11.11105 17.159261,-10.38675 27.181704,1.22367 61.214287,7.50995 77.923047,14.39343 2.97497,1.2256 3.78014,0.41062 14.05747,-14.22878 5.99596,-8.54085 17.97729,-25.37067 26.62518,-37.39959 l 15.72343,-21.87075 -2.16998,-8.93954 c -6.17475,-25.43779 -5.7409,-57.89665 1.08842,-81.43128 3.74371,-12.90123 5.61652,-15.95186 6.69323,-10.90258 4.24944,19.92807 8.01482,36.20314 9.57405,41.38187 l 1.89965,6.30941 1.31058,-6.14512 c 0.72081,-3.37982 1.25218,-14.72971 1.18081,-25.22199 -0.0714,-10.49228 0.59202,-24.38621 1.4742,-30.87541 2.28424,-16.80257 5.61579,-22.64356 28.90328,-50.67427 3.82218,-4.60068 9.74424,-12.12704 13.16014,-16.72523 l 6.21073,-8.36034 0.11125,5.25142 c 0.64378,30.38737 2.51067,46.46083 5.16486,44.4682 0.67659,-0.50796 3.58692,-12.91146 6.46739,-27.56333 6.00508,-30.54565 8.57516,-38.98341 13.6514,-44.81853 1.99125,-2.28893 11.29291,-10.28552 20.67036,-17.77019 9.37746,-7.48468 20.28983,-16.531766 24.24972,-20.104646 l 7.19979,-6.496146 -1.12006,13.917112 c -0.61603,7.65441 -1.86221,19.13 -2.76927,25.50132 -2.94372,20.67689 1.72715,13.65711 12.71589,-19.11053 8.71365,-25.983481 12.41621,-33.408207 19.8166,-39.738132 5.81381,-4.97284 35.16834,-23.13215 35.87391,-22.19233 0.17285,0.230246 -1.02774,3.534155 -2.66799,7.342018 -3.63489,8.438446 -8.23057,29.561819 -6.48563,29.810241 0.6785,0.0966 3.19825,-3.90442 5.59944,-8.891148 6.65226,-13.815207 20.44118,-32.346084 27.37429,-36.788169 12.46232,-7.984691 43.89175,-15.482883 62.63769,-14.943618 10.98033,0.315871 18.3595,4.881048 21.17845,13.102193 5.18991,15.135767 5.06149,45.112198 -0.28861,67.370855 -5.75914,23.96044 -12.39168,33.96071 -29.41436,44.34979 -7.5805,4.62644 -38.96942,16.14812 -42.589,15.63281 -1.0578,-0.1506 -2.01542,0.37346 -2.12805,1.16456 -0.45499,3.19591 25.4762,2.06871 40.88943,-1.7774 4.51705,-1.12716 8.46191,-1.71758 8.76636,-1.31205 1.04737,1.39511 -21.81021,32.99172 -29.46424,40.72914 -10.21777,10.32911 -19.14719,13.96799 -48.65545,19.82787 -13.10184,2.60182 -24.77806,5.11347 -25.94715,5.58145 -3.64295,1.45825 19.71138,4.18864 31.27087,3.65592 9.36692,-0.43167 19.1171,-1.84022 28.0221,-4.04818 4.47283,-1.10902 -34.86322,44.76853 -44.92671,52.39792 -5.79356,4.39226 -9.32276,5.09565 -35.14066,7.00374 -24.62414,1.81986 -50.13597,5.62661 -59.03763,8.8093 -4.89224,1.74917 -5.25824,2.1279 -2.78656,2.88355 4.2294,1.29301 57.73475,3.55154 70.13186,2.96036 5.90621,-0.28165 11.23175,-0.44198 11.83454,-0.35629 0.60279,0.0857 -7.94623,7.43764 -18.99782,16.33767 -33.85789,27.26633 -37.26811,29.5882 -45.5219,30.99379 -7.72163,1.31496 -26.13121,2.53366 -43.30091,2.86648 -8.68124,0.16827 -9.62831,0.42805 -6.95313,1.90719 1.70336,0.94182 10.69817,3.23185 19.98848,5.08897 l 16.89145,3.37658 -9.2665,2.87929 c -11.33727,3.52271 -29.2668,4.76166 -56.62355,3.91276 -18.20036,-0.56478 -20.94045,-0.34277 -22.43209,1.81748 -0.93456,1.35347 -13.39698,18.13291 -27.69427,37.28766 l -25.99509,34.8268 4.69866,5.34176 c 5.06104,5.75375 5.55394,10.19915 1.47076,13.26459 -3.31727,2.49044 -8.20426,1.43914 -12.46348,-2.68118 -2.43511,-2.3557 -3.89858,-3.03842 -4.41038,-2.05746 -1.524,2.92103 -16.96818,17.54846 -24.61687,23.31502 -8.666507,6.53393 -12.73605,7.01809 -14.300144,1.7013 z M 186.8866,368.60877 c 0.96144,-1.14933 10.17657,-13.51798 20.47807,-27.48589 79.90705,-108.3469 132.82645,-170.34442 210.63493,-246.768552 6.1593,-6.049717 0.54715,-2.462507 -14.2822,9.128992 -57.94822,45.29575 -125.96099,115.79614 -181.30886,187.94036 -21.5844,28.13459 -50.6812,69.77377 -49.27069,70.50916 0.61258,0.31938 3.27096,2.32399 5.90753,4.45469 5.94736,4.80628 5.73021,4.74477 7.84122,2.22124 z"
     id="path2" /></svg>
