<svg xmlns="http://www.w3.org/2000/svg" width="512" height="512"><path fill-rule="evenodd" d="M230 25.094C169.29 31.277 116.661 62.696 84.425 112c-14.29 21.856-22.765 43.404-27.727 70.5C54.5 194.5 54.5 194.502 54.5 338v143.5l82.75.256 82.75.256V271.79l3.75.525c2.063.289 12.75 2.125 23.75 4.079s21.8 3.571 24 3.595c6.681.07 6.825.372 6.244 13.15-.459 10.098-1.649 15.917-10.7 52.334-7.085 28.506-10.004 41.928-9.593 44.115.473 2.522-9.83 62.168-11.999 69.465-.565 1.9-6.978 5.096-14.741 7.347-3.185.923-6.672 2.561-7.75 3.639-2.842 2.842-2.534 7.365.674 9.888 2.473 1.946 3.907 2.073 23.377 2.073 15.377 0 21.01-.323 21.776-1.25.568-.687 1.784-4.175 2.701-7.75 1.719-6.694 19.263-66.2 22.408-76l1.765-5.5 8.919-.234 8.919-.234 2.391 3.734c1.315 2.054 10.892 16.739 21.282 32.635l18.89 28.901-2.696 3.889c-1.482 2.14-4.105 5.128-5.828 6.641-6.735 5.913-8.174 10.379-4.434 13.763 3.028 2.74 10.838 2.24 16.248-1.04 6.788-4.115 27.105-20.923 27.442-22.702.171-.906-2.252-6.981-5.386-13.5a25114 25114 0 0 0-15.478-32.103l-9.78-20.25h17.924c14.352 0 17.925-.268 17.925-1.346 0-1.822-12.456-43.304-32.026-106.654-8.92-28.875-17.46-56.649-18.978-61.721l-2.76-9.221 3.431-2.024c4.43-2.614 6.698-7.865 5.793-13.411-1.753-10.734-7.647-18.506-15.693-20.692l-5.379-1.461c-.676-.183-1.306-4.158-1.606-10.136-.354-7.057-1.236-11.949-3.121-17.322-3.226-9.198-5.094-11.807-10.75-15.012-3.931-2.228-5.553-2.5-14.911-2.499-9.224 0-11.175.317-16.057 2.606-10.624 4.981-16.791 13.285-12.507 16.84 1.749 1.452 2.286 10.719 1.334 23.053-.223 2.886.094 3.552 1.803 3.796 1.555.223 2.382 1.504 3.313 5.135 1.765 6.887 4.637 9.275 10.683 8.882 4.733-.308 4.818-.261 5.515 3.046.552 2.618.214 4.087-1.532 6.66-1.232 1.815-3.704 8.404-5.493 14.641-8.396 29.275-10.288 35.592-11.007 36.756-.562.909-6.628 1.405-22.167 1.813-20.558.541-21.559.478-25.644-1.606l-4.251-2.169.255-93.199.255-93.2 4.5-.889c8.316-1.644 38.611-1.236 49 .659 42.068 7.674 74.458 26.079 100.082 56.87 16.503 19.829 28.424 45.807 32.317 70.424C408.834 205.013 408.837 205 403.7 205c-2.365 0-4.84.54-5.5 1.2-1.263 1.263-1.765 25.164-.593 28.218.45 1.172 2.005 1.582 6 1.582H409v246.036l23.75-.268 23.75-.268.275-16.25.275-16.25H446V236h11.052l-.276-15.25-.276-15.25-5.616-.296-5.616-.296-.676-8.328c-3.185-39.246-22.253-81.339-50.042-110.47-24.454-25.634-58.758-46.195-91.083-54.593-23.628-6.14-51.944-8.615-73.467-6.423"/></svg>