<?xml version="1.0" encoding="UTF-8" standalone="no"?>
<svg
   width="36"
   height="36"
   viewBox="0 0 512 512"
   version="1.1"
   id="svg1"
   xmlns="http://www.w3.org/2000/svg"
   xmlns:svg="http://www.w3.org/2000/svg">
  <defs
     id="defs1" />
  <path
     fill-rule="evenodd"
     d="M 227.62992,4.1071137 C 161.3377,10.858634 103.86951,45.16658 68.669445,99.004034 53.065494,122.86967 43.811226,146.39899 38.392975,175.98644 c -2.400104,13.10339 -2.400104,13.10557 -2.400104,169.79807 v 156.69468 l 90.358779,0.27954 90.35878,0.27954 v -229.5517 l 4.09481,0.57327 c 2.25269,0.31557 13.92235,2.32039 25.93379,4.45406 12.01144,2.13367 23.80449,3.89935 26.20678,3.92556 7.29531,0.0764 7.45255,0.4062 6.81813,14.35913 -0.50121,11.0265 -1.80063,17.38055 -11.68386,57.14606 -7.73646,31.12709 -10.92386,45.78323 -10.47507,48.17133 0.5165,2.75389 -10.73385,67.88428 -13.10229,75.85223 -0.61695,2.07471 -7.61962,5.56458 -16.09642,8.02255 -3.47786,1.00787 -7.28549,2.79648 -8.46261,3.97361 -3.10332,3.10331 -2.767,8.0422 0.73598,10.79719 2.70039,2.12493 4.26624,2.26361 25.52649,2.26361 16.7909,0 22.94185,-0.3527 23.77828,-1.36494 0.62023,-0.75017 1.94804,-4.55889 2.94935,-8.4626 1.87707,-7.30951 21.03422,-72.28703 24.4684,-82.98813 l 1.92729,-6.00572 9.73909,-0.25551 9.73909,-0.25552 2.61085,4.07734 c 1.43592,2.24286 11.89351,18.27813 23.23886,35.63575 l 20.62692,31.55842 -2.94389,4.24659 c -1.61827,2.33677 -4.48245,5.59952 -6.36388,7.25164 -7.35428,6.45669 -8.92559,11.33333 -4.8417,15.02849 3.30642,2.99194 11.83454,2.44597 17.74198,-1.13563 7.41215,-4.49337 29.59728,-22.84685 29.96527,-24.78942 0.18672,-0.98931 -2.45907,-7.6229 -5.88124,-14.74132 a 27423.207,27423.207 0 0 0 -16.90119,-35.05483 l -10.67926,-22.11197 h 19.5721 c 15.67165,0 19.57318,-0.29264 19.57318,-1.46977 0,-1.98953 -13.60131,-47.28576 -34.97076,-116.46072 -9.74018,-31.53003 -19.06543,-61.85782 -20.72301,-67.39619 l -3.01377,-10.06886 3.74647,-2.21011 c 4.83734,-2.85435 7.31388,-8.58818 6.32566,-14.64412 -1.91418,-11.72099 -8.35013,-20.20761 -17.13595,-22.59461 l -5.8736,-1.59534 c -0.73815,-0.19983 -1.42608,-4.54032 -1.75367,-11.068 -0.38655,-7.70588 -1.34965,-13.04769 -3.40797,-18.91474 -3.52263,-10.04374 -5.56239,-12.89264 -11.73845,-16.39234 -4.29245,-2.43286 -6.06359,-2.72987 -16.28205,-2.72878 -10.07214,0 -12.20253,0.34615 -17.53343,2.84562 -11.60086,5.439 -18.33491,14.50655 -13.657,18.38842 1.90981,1.58551 2.49619,11.70461 1.45666,25.1727 -0.24351,3.15137 0.10264,3.87861 1.96878,4.14504 1.69798,0.24351 2.60102,1.64229 3.61763,5.60716 1.92729,7.52025 5.06336,10.12783 11.66529,9.69869 5.16819,-0.33632 5.26101,-0.285 6.0221,3.32608 0.60275,2.85872 0.23367,4.46279 -1.67287,7.27238 -1.34528,1.98189 -4.04458,9.17674 -5.99808,15.98723 -9.168,31.9668 -11.23397,38.86464 -12.01908,40.13567 -0.61367,0.99258 -7.23744,1.53419 -24.20523,1.97971 -22.44829,0.59074 -23.54133,0.52195 -28.00194,-1.75367 l -4.64188,-2.36844 0.27845,-101.76856 0.27845,-101.769644 4.91377,-0.970743 c 9.08065,-1.795164 42.16124,-1.349649 53.5055,0.719594 45.93611,8.379617 81.30434,28.476939 109.28444,62.099143 18.02043,21.65225 31.03756,50.01891 35.28852,76.89941 2.65889,16.80947 2.66217,16.79527 -2.94717,16.79527 -2.58246,0 -5.28504,0.58965 -6.00572,1.31034 -1.37914,1.37913 -1.92729,27.47781 -0.64753,30.81262 0.49138,1.27976 2.18936,1.72746 6.55169,1.72746 h 5.88889 v 268.65877 l 25.93378,-0.29264 25.93379,-0.29265 0.30029,-17.74417 0.30028,-17.74417 H 463.49091 V 234.40571 h 12.06822 l -0.30138,-16.65222 -0.30138,-16.65222 -6.13238,-0.32322 -6.13239,-0.32322 -0.73816,-9.09375 C 458.47559,148.50645 437.6543,102.54304 407.31013,70.733475 380.60761,42.742454 343.14939,20.29089 307.85214,11.120702 282.05157,4.4161353 251.13194,1.7135615 227.62992,4.1071137"
     id="path1"
     style="stroke-width:1.09195" />
</svg>
