<?xml version="1.0" encoding="UTF-8" standalone="no"?>
<svg
   width="36"
   height="36"
   viewBox="0 0 512 512"
   version="1.1"
   id="svg1"
   xmlns="http://www.w3.org/2000/svg"
   xmlns:svg="http://www.w3.org/2000/svg">
  <defs
     id="defs1" />
  <path
     fill-rule="evenodd"
     d="m 251.94253,60.370156 c -3.92868,4.391245 -8.47539,26.612527 -13.10493,64.033684 -1.17108,9.46169 -2.38931,17.63379 -2.70789,18.15881 -0.31857,0.52501 -2.98186,0.95572 -5.91913,0.95572 -2.93727,0 -12.22183,1.13541 -20.63223,2.52312 -8.41039,1.38772 -16.00523,2.53331 -16.87686,2.54733 -0.87162,0.014 -5.96246,-8.71877 -11.31325,-19.40635 -11.2368,-22.44428 -21.31653,-38.750251 -24.59913,-39.791356 -1.25646,-0.398857 -3.18958,-0.378468 -4.29695,0.04715 -4.61424,1.770006 -4.03699,11.173076 2.97168,48.364866 2.0873,11.07751 3.64832,20.28561 3.46865,20.46274 -0.17968,0.17713 -4.62699,2.03634 -9.88349,4.13002 -5.2565,2.09367 -14.07339,5.87071 -19.5924,8.39382 -5.519,2.52312 -10.39321,4.57475 -10.83157,4.56073 -0.43836,-0.014 -7.86117,-6.87741 -16.49711,-15.25085 -20.571062,-19.95047 -29.958846,-27.03049 -35.165644,-26.52205 -8.345405,0.81428 -5.443819,10.43781 13.132958,43.57222 5.065351,9.0348 8.74681,16.83735 8.179746,17.33943 -0.565791,0.5008 -6.716847,5.12524 -13.668166,10.27597 -28.063956,20.79534 -69.2863575,62.63322 -71.4590427,72.52563 -1.6413012,7.47378 6.1039074,18.65706 29.1662277,42.11314 a 402.67949,402.67949 0 0 0 66.911059,54.81666 l 3.006082,1.96625 -4.530147,10.30273 c -6.473455,14.72201 -8.782491,23.08016 -7.197259,26.04291 2.901586,5.42216 9.973966,1.3737 23.959426,-13.71276 l 10.0517,-10.84177 6.2135,3.12969 c 3.41767,1.72158 12.80928,5.54704 20.86924,8.50087 8.05996,2.95383 14.81759,5.53047 15.01638,5.72416 0.19879,0.1937 -0.19879,2.86718 -0.88437,5.93825 -0.68684,3.07235 -1.86175,10.5423 -2.61232,16.60161 -3.11439,25.1509 6.75508,23.15535 21.40318,-4.32753 5.41324,-10.15619 6.22752,-11.0928 9.1291,-10.49133 8.96217,1.85666 38.35777,5.7025 43.62064,5.7076 5.53302,0.006 6.09372,0.29436 6.82262,3.5107 5.95608,26.26974 10.71815,36.68971 15.39229,33.67981 2.57792,-1.65914 5.20935,-8.59262 8.07143,-21.25536 1.58269,-7.00866 3.07362,-13.45918 3.31191,-14.3359 0.25869,-0.94935 2.57282,-1.59288 5.72544,-1.59288 7.91724,0 30.65589,-3.52727 45.54356,-7.066 7.24059,-1.72031 13.34959,-3.12841 13.57769,-3.12841 0.2281,0 3.31191,3.90701 6.85193,8.68309 6.41483,8.65251 19.42546,21.90016 21.50767,21.90016 4.96086,0 5.31129,-8.57733 1.06659,-26.1181 -1.69482,-7.00611 -2.88502,-12.93417 -2.64673,-13.17374 0.23957,-0.23956 5.8911,-2.89139 12.55953,-5.89492 6.66842,-3.00353 15.90711,-7.54004 20.53283,-10.08228 4.62571,-2.54223 9.02843,-4.62316 9.78409,-4.62316 0.75566,0 4.89332,2.65182 9.19536,5.89237 4.30077,3.24055 11.40373,7.66493 15.78478,9.83124 7.30813,3.61392 8.1326,3.76939 10.00837,1.89361 3.04813,-3.04813 1.3839,-8.17592 -6.58049,-20.28179 -3.81272,-5.79553 -6.93221,-10.96792 -6.93221,-11.49548 0,-0.52629 1.86303,-2.2466 4.14149,-3.82163 22.48761,-15.54776 68.43512,-61.07985 75.34056,-74.66009 4.90861,-9.65412 2.5091,-13.85676 -22.62651,-39.62953 -19.37704,-19.86892 -40.63749,-38.0634 -58.82943,-50.34513 l -12.80546,-8.64486 8.85767,-17.43118 c 9.35465,-18.40985 16.1161,-35.32366 16.1161,-40.31383 0,-1.64639 -0.86015,-3.70694 -1.91018,-4.57856 -3.71459,-3.08254 -9.95994,1.48456 -31.85883,23.30189 l -21.66313,21.58158 -5.09721,-1.99301 a 3759.1914,3759.1914 0 0 0 -17.20308,-6.62892 c -6.65823,-2.54988 -12.48307,-5.01438 -12.94564,-5.47568 -0.4613,-0.46257 0.81046,-9.15586 2.82768,-19.31842 7.49162,-37.761393 7.85097,-49.830309 1.51005,-50.740161 -5.12142,-0.733998 -11.18201,8.04467 -28.96617,41.953851 -5.18895,9.89495 -9.69106,18.24673 -10.00327,18.55894 -0.3122,0.3122 -6.58177,-0.32495 -13.93194,-1.41703 -7.35018,-1.0908 -15.70196,-1.98409 -18.55894,-1.98409 -5.81082,0 -5.60183,0.46003 -7.24313,-15.92877 -1.5572,-15.56178 -5.90385,-43.660144 -8.42824,-54.49681 -3.32593,-14.269636 -6.82134,-18.095091 -11.62673,-12.722633 M 207.6669,182.65092 c -17.68222,3.09146 -43.42567,11.76308 -63.07796,21.24899 -34.81393,16.80677 -62.702037,37.61485 -92.827815,69.26597 l -7.449571,7.82676 3.240551,4.21667 c 1.782749,2.31923 8.804154,9.37759 15.605104,15.68538 49.635341,46.04181 95.474541,69.80627 152.792651,79.21062 21.13048,3.46738 63.48574,3.18321 84.18168,-0.56324 44.72036,-8.09691 81.64581,-24.9279 120.34382,-54.85488 12.3276,-9.53306 45.87488,-41.91435 45.87488,-44.28073 0,-2.06692 -26.56793,-27.37456 -41.2619,-39.30458 -24.87948,-20.20151 -54.32223,-37.27333 -81.39988,-47.20015 -12.34799,-4.52632 -40.64132,-12.15429 -45.08226,-12.15429 -1.2743,0 1.39663,2.15102 5.93697,4.77863 12.67039,7.33616 30.13343,25.45801 36.53042,37.91049 7.51839,14.63409 10.6863,25.88745 11.50568,40.86432 1.54955,28.37362 -8.09947,53.5602 -28.29206,73.84581 -12.49071,12.54806 -25.00945,19.93901 -43.34794,25.59054 -11.97206,3.68911 -38.9363,3.39474 -51.60923,-0.56452 -17.36619,-5.42597 -28.74189,-12.29446 -41.41482,-25.01072 -13.06797,-13.1113 -18.38819,-21.39554 -23.95179,-37.29755 -3.34759,-9.57001 -3.98474,-13.45409 -4.45751,-27.19998 -0.45747,-13.30754 -0.0968,-17.8619 2.11917,-26.76035 6.39699,-25.69758 23.82308,-48.7548 46.67896,-61.76543 7.17177,-4.08159 7.03542,-4.82833 -0.63715,-3.48776"
     id="path1"
     style="stroke-width:1.2743" />
</svg>
