<svg xmlns="http://www.w3.org/2000/svg" width="512" height="512"><path fill-rule="evenodd" d="M252.745 102.75c-3.083 3.446-6.651 20.884-10.284 50.25-.919 7.425-1.875 13.838-2.125 14.25s-2.34.75-4.645.75-9.591.891-16.191 1.98-12.56 1.988-13.244 1.999-4.679-6.842-8.878-15.229c-8.818-17.613-16.728-30.409-19.304-31.226-.986-.313-2.503-.297-3.372.037-3.621 1.389-3.168 8.768 2.332 37.954 1.638 8.693 2.863 15.919 2.722 16.058s-3.631 1.598-7.756 3.241-11.044 4.607-15.375 6.587-8.156 3.59-8.5 3.579-6.169-5.397-12.946-11.968c-16.143-15.656-23.51-21.212-27.596-20.813-6.549.639-4.272 8.191 10.306 34.193 3.975 7.09 6.864 13.213 6.419 13.607-.444.393-5.271 4.022-10.726 8.064-22.023 16.319-54.372 49.151-56.077 56.914-1.288 5.865 4.79 14.641 22.888 33.048a316 316 0 0 0 52.508 43.017l2.359 1.543-3.555 8.085c-5.08 11.553-6.892 18.112-5.648 20.437 2.277 4.255 7.827 1.078 18.802-10.761l7.888-8.508 4.876 2.456c2.682 1.351 10.052 4.353 16.377 6.671s11.628 4.34 11.784 4.492-.156 2.25-.694 4.66c-.539 2.411-1.461 8.273-2.05 13.028-2.444 19.737 5.301 18.171 16.796-3.396 4.248-7.97 4.887-8.705 7.164-8.233 7.033 1.457 30.101 4.475 34.231 4.479 4.342.005 4.782.231 5.354 2.755 4.674 20.615 8.411 28.792 12.079 26.43 2.023-1.302 4.088-6.743 6.334-16.68 1.242-5.5 2.412-10.562 2.599-11.25.203-.745 2.019-1.25 4.493-1.25 6.213 0 24.057-2.768 35.74-5.545 5.682-1.35 10.476-2.455 10.655-2.455s2.599 3.066 5.377 6.814c5.034 6.79 15.244 17.186 16.878 17.186 3.893 0 4.168-6.731.837-20.496-1.33-5.498-2.264-10.15-2.077-10.338.188-.188 4.623-2.269 9.856-4.626s12.483-5.917 16.113-7.912 7.085-3.628 7.678-3.628 3.84 2.081 7.216 4.624c3.375 2.543 8.949 6.015 12.387 7.715 5.735 2.836 6.382 2.958 7.854 1.486 2.392-2.392 1.086-6.416-5.164-15.916-2.992-4.548-5.44-8.607-5.44-9.021 0-.413 1.462-1.763 3.25-2.999 17.647-12.201 53.704-47.932 59.123-58.589 3.852-7.576 1.969-10.874-17.756-31.099-15.206-15.592-31.89-29.87-46.166-39.508l-10.049-6.784 6.951-13.679C392.694 174.783 398 161.51 398 157.594c0-1.292-.675-2.909-1.499-3.593-2.915-2.419-7.816 1.165-25.001 18.286l-17 16.936-4-1.564a2950 2950 0 0 0-13.5-5.202c-5.225-2.001-9.796-3.935-10.159-4.297-.362-.363.636-7.185 2.219-15.16 5.879-29.633 6.161-39.104 1.185-39.818-4.019-.576-8.775 6.313-22.731 32.923-4.072 7.765-7.605 14.319-7.85 14.564s-5.165-.255-10.933-1.112c-5.768-.856-12.322-1.557-14.564-1.557-4.56 0-4.396.361-5.684-12.5-1.222-12.212-4.633-34.262-6.614-42.766-2.61-11.198-5.353-14.2-9.124-9.984M218 198.709c-13.876 2.426-34.078 9.231-49.5 16.675-27.32 13.189-49.205 29.518-72.846 54.356l-5.846 6.142 2.543 3.309c1.399 1.82 6.909 7.359 12.246 12.309 38.951 36.131 74.923 54.78 119.903 62.16 16.582 2.721 49.82 2.498 66.061-.442 35.094-6.354 64.071-19.562 94.439-43.047 9.674-7.481 36-32.892 36-34.749 0-1.622-20.849-21.482-32.38-30.844-19.524-15.853-42.629-29.25-63.878-37.04-9.69-3.552-31.893-9.538-35.378-9.538-1 0 1.096 1.688 4.659 3.75 9.943 5.757 23.647 19.978 28.667 29.75 5.9 11.484 8.386 20.315 9.029 32.068 1.216 22.266-6.356 42.031-22.202 57.95-9.802 9.847-19.626 15.647-34.017 20.082-9.395 2.895-30.555 2.664-40.5-.443-13.628-4.258-22.555-9.648-32.5-19.627-10.255-10.289-14.43-16.79-18.796-29.269-2.627-7.51-3.127-10.558-3.498-21.345-.359-10.443-.076-14.017 1.663-21 5.02-20.166 18.695-38.26 36.631-48.47 5.628-3.203 5.521-3.789-.5-2.737"/></svg>