<svg xmlns="http://www.w3.org/2000/svg" width="512" height="512"><path fill-rule="evenodd" d="M236.5 40.691c-59.067 7.706-107.119 41.531-133.265 93.809-8.891 17.779-14.116 35.828-16.268 56.205-.675 6.389-.936 56.732-.751 144.795l.284 135h339l.257-68.75.257-68.75h-20.045l.048 58.75.048 58.75-15.533.275-15.532.276V333h-20v118h-89v-70.122c0-55.944.253-69.929 1.25-69.162.688.529 9.8 7.437 20.25 15.351s22.989 17.437 27.863 21.162c8.973 6.854 13.103 8.327 14.337 5.111.739-1.926-1.055-15.722-3.796-29.2-1.047-5.148-1.904-9.986-1.904-10.75 0-1.168 8.128-1.39 51-1.39h51v-62h-51c-45.487 0-51-.168-51-1.556 0-.856 1.375-9.225 3.056-18.597s2.919-18.459 2.75-20.193c-.262-2.701-.737-3.191-3.306-3.409-2.541-.216-7.365 3.085-31.5 21.553l-28.5 21.809-.257-67.463c-.141-37.105-.065-67.656.171-67.891 1.425-1.425 24.639 5.248 33.086 9.511 17.023 8.59 32.879 23.166 41.835 38.457C351.223 179.103 355 193.72 355 215.11V228h20.312l-.641-14.81c-.352-8.145-1.361-18.608-2.242-23.25-4.373-23.052-15.582-44.139-32.406-60.963-40.038-40.038-102.965-46.442-149.912-15.256a118.47 118.47 0 0 0-52.07 84.253c-.669 5.45-1.041 52.119-1.041 130.775v122.302l-15.464-.276-15.463-.275-.115-129c-.126-142.173-.381-135.662 6.156-157 9.575-31.253 31.47-60.55 59.407-79.492 27.654-18.75 64.691-28.306 96.979-25.024 21.096 2.145 35.721 6.154 53 14.527 36.837 17.85 63.481 47.813 76.985 86.573 5.263 15.107 7.412 29.26 7.562 49.788l.125 17.128H426v-12.394c0-31.236-5.725-57.145-18.097-81.896-8.659-17.325-16.115-27.772-30.38-42.57-26.425-27.411-59.491-44.204-97.749-49.643-9.323-1.325-35.55-1.814-43.274-.806m-1 74.833c-36.641 8.081-65.546 35.261-75.8 71.278l-2.192 7.698-.276 128.25-.276 128.25H246l-.032-77.75-.031-77.75-9.469-6.957c-5.207-3.827-9.467-7.427-9.466-8s4.276-4.327 9.5-8.34l9.498-7.298V114l-2.25.1c-1.238.056-4.95.696-8.25 1.424m-66.277 152.595c-7.883 3.902-11.353 13.846-7.8 22.351.783 1.873 3.37 4.824 5.75 6.557 3.934 2.865 4.876 3.118 10.37 2.778 13.298-.822 20.244-12.946 14.207-24.799-4.141-8.131-13.953-11.131-22.527-6.887"/></svg>