<?xml version="1.0" encoding="UTF-8" standalone="no"?>
<svg
   width="36"
   height="36"
   viewBox="0 0 512 512"
   version="1.1"
   id="svg1"
   xmlns="http://www.w3.org/2000/svg"
   xmlns:svg="http://www.w3.org/2000/svg">
  <defs
     id="defs1" />
  <path
     fill-rule="evenodd"
     d="M 233.56701,8.5496349 C 165.65482,17.409597 110.40711,56.299838 80.345787,116.40639 70.123373,136.84777 64.115938,157.59958 61.641679,181.028 c -0.77608,7.34574 -1.076165,65.22753 -0.863461,166.47783 l 0.326528,155.21604 H 450.86947 l 0.29549,-79.04521 0.29548,-79.0452 h -23.0467 l 0.0552,67.54772 0.0552,67.54772 -17.85904,0.31618 -17.85789,0.31733 V 344.63146 h -22.995 V 480.30177 H 267.48459 v -80.62266 c 0,-64.32152 0.29089,-80.40076 1.43719,-79.5189 0.79103,0.60822 11.26753,8.55068 23.28241,17.64979 12.01487,9.09911 26.43156,20.04816 32.03544,24.33098 10.31669,7.88037 15.06515,9.57395 16.48394,5.87636 0.84967,-2.21442 -1.21298,-18.07635 -4.36444,-33.57265 -1.20379,-5.91891 -2.18913,-11.48139 -2.18913,-12.3598 0,-1.34291 9.34516,-1.59815 58.63718,-1.59815 h 58.63717 v -71.28441 h -58.63717 c -52.29861,0 -58.63718,-0.19315 -58.63718,-1.789 0,-0.98419 1.58091,-10.60643 3.51364,-21.38188 1.93272,-10.77544 3.35611,-21.2232 3.1618,-23.21687 -0.30123,-3.10547 -0.84736,-3.66884 -3.80106,-3.91949 -2.92151,-0.24834 -8.4679,3.54697 -36.21708,24.78053 l -32.76783,25.07486 -0.29549,-77.56548 c -0.16211,-42.66141 -0.0747,-77.787378 0.19661,-78.057569 1.63839,-1.638392 28.32865,6.03388 38.04058,10.935259 19.57217,9.87634 37.80258,26.63507 48.09972,44.21587 11.36872,19.41006 15.71132,36.21593 15.71132,60.80905 v 14.82026 h 23.35369 l -0.73699,-17.02778 c -0.40471,-9.3647 -1.56481,-21.39452 -2.57774,-26.73165 -5.02785,-26.504 -17.91538,-50.74874 -37.25875,-70.09211 C 306.5588,64.022698 234.20857,56.659709 180.23133,92.515765 a 136.2107,136.2107 0 0 0 -59.8674,96.869755 c -0.76918,6.26613 -1.19689,59.92374 -1.19689,150.35836 V 480.36041 L 101.38733,480.04308 83.608773,479.7269 83.476552,331.40935 C 83.331684,167.94616 83.038498,175.43217 90.554403,150.89884 101.56324,114.96575 126.73699,81.281572 158.85751,59.503037 c 31.79514,-21.557783 74.37838,-32.54478 111.50146,-28.771305 24.25509,2.46621 41.07016,7.075552 60.93666,16.702396 42.35329,20.52301 72.98719,54.972922 88.51339,99.537172 6.05112,17.36925 8.52193,33.64164 8.6944,57.24368 l 0.14371,19.69289 h 22.79722 v -14.24998 c 0,-35.91355 -6.58231,-65.70238 -20.807,-94.1598 C 420.68168,95.578695 412.10915,83.567272 395.70799,66.553295 365.32589,35.03754 327.30831,15.729814 283.32123,9.4763322 272.60212,7.9529154 242.44767,7.3906885 233.56701,8.5496349 m -1.14974,86.0391261 c -42.12794,9.291119 -75.36142,40.541279 -87.15094,81.951769 l -2.52025,8.85077 -0.31733,147.45523 -0.31733,147.45524 h 102.37821 l -0.0368,-89.39294 -0.0356,-89.39294 -10.88697,-7.9988 c -5.98674,-4.40009 -10.88467,-8.53918 -10.88352,-9.19799 0.001,-0.6588 4.91633,-4.97496 10.92261,-9.5889 l 10.92032,-8.39086 V 92.836544 l -2.58694,0.114975 c -1.42339,0.06439 -5.69125,0.800225 -9.48542,1.637242 M 156.21539,270.03463 c -9.06347,4.48632 -13.0531,15.91941 -8.96804,25.69802 0.90025,2.15348 3.87465,5.54639 6.61105,7.53891 4.52311,3.29402 5.60618,3.58491 11.9229,3.194 15.28935,-0.9451 23.2755,-14.88465 16.33447,-28.51262 -4.76111,-9.3486 -16.04244,-12.79785 -25.90038,-7.91831"
     id="path1"
     style="stroke-width:1.14975" />
</svg>
