<?xml version="1.0" encoding="UTF-8" standalone="no"?>
<svg
   width="36"
   height="36"
   viewBox="0 0 512 512"
   version="1.1"
   xmlns="http://www.w3.org/2000/svg"
   xmlns:svg="http://www.w3.org/2000/svg">
  <path
     fill-rule="evenodd"
     d="M 248.12305 41.640625 C 175.92863 43.283506 108.87936 82.843256 69.490234 147.87109 C 35.815243 203.46292 26.619653 271.1247 43.75 333.90625 C 65.258882 412.74983 127.82889 474.14549 206.88672 494.1875 C 235.37454 501.4081 275.98511 503.17908 305.68555 498.51562 C 369.00394 488.57286 425.49319 450.25637 459.64453 394.58984 C 475.69404 368.42551 486.64526 335.4746 489.49023 309.16602 C 490.17947 302.79381 489.94311 300.34752 488.44727 297.8457 C 485.38289 292.72143 481.70325 290.62896 474.92578 290.62891 C 468.17258 290.6289 464.29469 292.80657 461.55078 298.10352 C 460.64542 299.85144 459.41936 305.8092 458.82617 311.34375 C 455.85781 339.04272 444.08771 370.09789 426.97852 394.49219 C 421.18513 402.75387 405.88312 419.00048 397.12891 426.14062 C 373.48983 445.42574 345.91826 458.47146 315.6875 464.88867 C 301.58687 467.88155 295.88484 468.4023 275.5 468.38672 C 254.77877 468.37087 250.36687 467.9433 235.60547 464.60352 C 186.20557 453.42865 143.11617 422.38255 113.88281 377.04883 C 94.777048 347.41897 84.904828 316.54638 82.25 280 C 79.198686 238.00088 91.000611 193.58138 115.08594 157.41016 C 151.18364 103.17098 211.63675 70.273638 277.05273 71.207031 C 315.9924 71.762764 351.01562 82.572688 383.21289 104.33789 C 394.27376 111.8153 409.05387 124.58717 409.02539 126.58008 C 409.01271 127.46815 397.24557 127.9707 377.12695 128.17383 C 345.99576 128.48806 345.07512 128.55242 341.78711 130.58984 C 336.81138 133.67431 334.28124 138.11584 334.28125 143.76562 C 334.28126 149.37773 336.6017 153.65294 341.27734 156.85547 C 344.60848 159.13774 345.01362 159.1521 391.66992 159.48047 C 437.75884 159.80485 438.77231 159.7768 441.84375 157.9668 C 443.57052 156.94906 445.85296 154.45103 446.91602 152.41602 C 448.78443 148.84013 448.84909 147.5699 449.1582 110.13281 C 449.50118 68.591309 449.20364 65.46866 444.28906 61.320312 C 441.43431 58.910612 436.51819 57.503907 432.78711 57.988281 C 429.2642 58.445635 424.23614 61.485988 422.41211 64.275391 C 421.57318 65.558132 420.92874 72.053228 420.65039 81.775391 L 420.20898 97.207031 L 414.18945 91.957031 C 391.43521 72.111121 362.87519 56.271259 335.96484 48.660156 C 309.17483 41.083077 278.07035 40.959058 248.12305 41.640625 z " />
</svg>