<?xml version="1.0" encoding="UTF-8" standalone="no"?>
<svg
   viewBox="0 0 512 512"
   width="512"
   height="512"
   version="1.1"
   id="svg1"
   sodipodi:docname="SendMessage.svg"
   xml:space="preserve"
   inkscape:version="1.4.2 (f4327f4, 2025-05-13)"
   xmlns:inkscape="http://www.inkscape.org/namespaces/inkscape"
   xmlns:sodipodi="http://sodipodi.sourceforge.net/DTD/sodipodi-0.dtd"
   xmlns="http://www.w3.org/2000/svg"
   xmlns:svg="http://www.w3.org/2000/svg"><defs
     id="defs1" /><sodipodi:namedview
     id="namedview1"
     pagecolor="#ffffff"
     bordercolor="#000000"
     borderopacity="0.25"
     inkscape:showpageshadow="2"
     inkscape:pageopacity="0.0"
     inkscape:pagecheckerboard="0"
     inkscape:deskcolor="#d1d1d1"
     inkscape:zoom="1.1396484"
     inkscape:cx="192.16452"
     inkscape:cy="347.03685"
     inkscape:window-width="2560"
     inkscape:window-height="1369"
     inkscape:window-x="-8"
     inkscape:window-y="-8"
     inkscape:window-maximized="1"
     inkscape:current-layer="svg1" /><path
     style="fill:#000000;stroke-width:1.13846"
     d="m 26.133806,475.48832 c -4.940937,-1.01041 -8.738946,-3.99119 -11.622351,-9.12151 -3.727558,-6.63229 -2.850422,-12.42027 3.241751,-21.39139 10.674509,-15.71891 18.26919,-35.38796 22.484733,-58.23199 1.789756,-9.69867 2.017244,-21.54498 2.26212,-117.79852 0.14974,-58.8585 -0.201035,-114.44392 -0.7795,-123.52316 C 39.689665,113.54607 31.160921,91.909661 12.473299,71.224912 6.8613641,65.013237 4.0189471,60.876572 3.514302,58.186588 2.4900082,52.72663 5.701411,44.796648 10.251028,41.551456 l 3.611337,-2.575928 119.514915,-0.300166 c 133.22793,-0.334606 130.77247,-0.454402 150.22681,7.329144 15.97274,6.390578 25.1221,12.365345 37.17885,24.278735 15.74636,15.559134 24.99117,32.341319 29.74877,54.003219 1.96164,8.93153 2.34438,16.02514 2.84501,52.72762 l 0.57844,42.40772 h 25.37392 25.37391 l 0.40319,-20.20771 c 0.34952,-17.51768 0.68985,-20.63221 2.55657,-23.39666 4.50163,-6.66651 12.57068,-8.30569 18.68387,-3.79551 7.74681,5.71542 81.01363,79.34801 81.70843,82.11635 0.39381,1.56903 0.39279,4.14062 -0.002,5.71466 -0.43073,1.71613 -16.93366,18.92174 -41.22177,42.97695 -22.27692,22.06328 -41.09271,40.49146 -41.81285,40.95149 -2.80387,1.79109 -10.66485,0.8826 -13.81688,-1.5968 -5.42458,-4.26696 -6.27712,-8.17893 -6.27712,-28.80307 v -18.82119 h -25.6154 -25.6154 v 56.20475 c 0,60.37062 0.47392,66.88084 6.06081,83.25687 1.49534,4.38308 4.32955,10.98713 6.29823,14.67566 3.95155,7.40363 4.33158,10.35118 2.04131,15.83256 -2.04727,4.89983 -9.16189,11.01185 -13.01689,11.18252 -11.58563,0.51297 -326.387411,0.29827 -328.943014,-0.22435 z M 334.12403,441.70656 c -1.27603,-3.60039 -3.38474,-11.15694 -4.68602,-16.79232 -2.30648,-9.98855 -2.38279,-13.78115 -3.03489,-150.84625 -0.74954,-157.54661 -0.0279,-144.85593 -9.32295,-163.93857 C 313.28133,102.3305 310.46653,98.561742 302.57609,90.70987 292.01805,80.203434 281.95387,74.123826 266.60099,68.977891 L 258.63176,66.306785 150.60624,65.979507 42.580726,65.652229 44.282172,68.25235 c 13.20052,20.17282 20.485328,40.07839 23.658513,64.64631 0.862218,6.6756 1.126665,47.45843 0.852636,131.4924 -0.396277,121.52256 -0.403397,121.84284 -2.961199,133.20008 -3.237449,14.37504 -9.470758,33.02431 -14.364561,42.97695 l -3.778597,7.68462 H 192.06653 336.44408 Z M 113.9085,390.83218 c -5.01464,-2.18249 -7.26146,-5.93431 -7.26146,-12.12545 0,-6.00586 2.61379,-10.205 7.6509,-12.29144 2.32399,-0.96263 25.19975,-1.23262 85.40176,-1.00795 l 82.22752,0.30686 3.72151,3.72189 c 3.18529,3.18564 3.72151,4.5217 3.72151,9.2728 0,6.30868 -2.27953,9.69542 -8.21729,12.20861 -5.39376,2.28293 -161.98654,2.20305 -167.24445,-0.0853 z m -0.24411,-56.07206 c -2.08892,-1.0293 -4.59224,-3.08356 -5.56294,-4.56503 -2.30867,-3.52349 -2.25334,-10.90741 0.10873,-14.51244 4.3253,-6.60125 1.2053,-6.39378 91.13294,-6.0596 l 82.47837,0.3065 3.47557,3.33018 c 4.56167,4.37088 5.50388,9.51872 2.76748,15.12033 -4.24031,8.68017 -0.12089,8.30282 -90.34055,8.27566 -72.13461,-0.0217 -80.64617,-0.21365 -84.05964,-1.8956 z m 0.32421,-60.18149 c -9.72287,-4.79849 -9.9624,-19.20318 -0.40103,-24.11696 2.09593,-1.07714 21.86831,-1.41021 84.47761,-1.42307 90.68256,-0.0187 87.02148,-0.31968 90.25628,7.42227 2.19693,5.25801 2.02961,8.37958 -0.6881,12.83716 -4.41446,7.24057 -1.9613,7.04953 -90.15738,7.02096 -68.92983,-0.0223 -80.49475,-0.26341 -83.48738,-1.74036 z m 1.19691,-56.75354 c -9.84935,-4.3476 -11.85273,-16.08494 -3.88918,-22.78583 l 3.49465,-2.94056 h 82.50769 c 91.52675,0 87.78684,-0.30565 91.02279,7.43906 2.19693,5.25801 2.02961,8.37958 -0.6881,12.83716 -4.41364,7.23923 -2.01109,7.05144 -89.58815,7.00232 -63.37566,-0.0355 -80.13512,-0.34949 -82.8597,-1.55215 z m -1.48217,-50.40006 c -9.54575,-4.70442 -9.61524,-19.09684 -0.11577,-23.97881 2.09545,-1.07689 21.76241,-1.41022 83.9644,-1.42308 90.09227,-0.0187 86.97078,-0.27216 90.59183,7.35864 2.38941,5.0353 2.25785,8.36025 -0.51044,12.9008 -4.41446,7.24056 -1.9613,7.04953 -90.15738,7.02095 -71.57181,-0.0232 -80.41015,-0.22137 -83.77264,-1.8785 z"
     id="path1" /></svg>
