<svg xmlns="http://www.w3.org/2000/svg" width="1024" height="1024"><path fill-rule="evenodd" d="M650.198 180.673c-6.172 3.042-8.613 12.533-4.636 18.028 1.114 1.539 5.156 4.314 8.982 6.165 5.535 2.678 9.21 5.639 17.994 14.5 12.843 12.955 22.531 26.789 31.899 45.555 12.381 24.8 18.417 41.788 30.044 84.549 3.553 13.064 6.904 24.289 7.447 24.943 2.013 2.426 12.741 22.407 17.228 32.087 23.706 51.146 32.358 110.831 23.809 164.249-1.122 7.013-2.834 14.285-3.803 16.159C777.226 590.651 771.955 594 768 594c-4.061 0-9.245-3.386-11.327-7.398-1.917-3.695-1.915-3.799.45-19.408 2.004-13.23 2.362-19.226 2.279-38.194-.105-24.129-1.957-40.654-6.899-61.578-21.232-89.9-87.951-163.667-176.894-195.582-61.758-22.161-136.816-20.749-197.766 3.718-45.608 18.308-90.432 52.995-120.254 93.057-32.528 43.697-50.401 93.302-53.54 148.594-4.454 78.446 24.729 154.49 80.921 210.864 24.077 24.155 49.07 42.133 80.53 57.925 35.04 17.59 69.21 27.392 108 30.982 115.152 10.657 252.783-62.71 320.263-170.723 17.306-27.702 28.586-54.491 38.633-91.757 7.997-29.664 22.489-100.003 34.613-168 6.411-35.951 18.381-79.471 28.468-103.5 15.624-37.22 41.863-71.692 59.622-78.331 6.448-2.41 9.101-5.562 9.587-11.386.478-5.739-.997-8.902-5.598-12.003l-3.384-2.28-151.102.023c-137.517.02-151.399.169-154.404 1.65M458 307.674c-41.808 4.231-87.132 23.341-120.494 50.805-60.037 49.424-90.53 125.976-79.872 200.521 6.348 44.396 25.996 87.068 56.396 122.481 32.389 37.73 80.944 66.79 131.97 78.986 40.572 9.696 76.506 8.247 113.726-4.587 89.263-30.779 150.209-118.571 150.266-216.456.015-26.605-3.611-50.041-11.378-73.525-28.113-85.005-100.686-145.958-187.415-157.407-10.259-1.354-42.933-1.857-53.199-.818M64.756 727.755c-5.834 3.617-5.756 2.725-5.752 65.896.003 54.835.101 58.009 1.882 60.929 1.92 3.15 7.452 6.437 10.765 6.398 1.017-.012 3.683-.855 5.925-1.873C82.67 856.791 85 852.259 85 844.667v-5.531l7.75-1.678c14.573-3.156 65.744-14.533 69.25-15.396 1.925-.474 4.738-1.14 6.25-1.481l2.75-.619V766.95l-2.25-.826c-1.238-.454-20.585-4.83-42.995-9.725L85.01 747.5l-.005-5.282c-.007-6.903-2.098-11.695-6.195-14.192-4.044-2.466-10.32-2.587-14.054-.271M186 793.5V820l119.75-.103c67.134-.058 118.212-.473 116.25-.945-1.925-.463-8.45-1.811-14.5-2.996-20.05-3.926-52.075-15.612-70.5-25.725-11.649-6.393-23.148-13.27-30.602-18.3L299.09 767H186z"/></svg>