<?xml version="1.0" encoding="UTF-8" standalone="no"?>
<svg
   width="36"
   height="36"
   viewBox="0 0 1024 1024"
   version="1.1"
   id="svg1"
   sodipodi:docname="Start.svg"
   inkscape:version="1.4.2 (f4327f4, 2025-05-13)"
   xmlns:inkscape="http://www.inkscape.org/namespaces/inkscape"
   xmlns:sodipodi="http://sodipodi.sourceforge.net/DTD/sodipodi-0.dtd"
   xmlns="http://www.w3.org/2000/svg"
   xmlns:svg="http://www.w3.org/2000/svg">
  <defs
     id="defs1" />
  <sodipodi:namedview
     id="namedview1"
     pagecolor="#ffffff"
     bordercolor="#000000"
     borderopacity="0.25"
     inkscape:showpageshadow="2"
     inkscape:pageopacity="0.0"
     inkscape:pagecheckerboard="0"
     inkscape:deskcolor="#d1d1d1"
     inkscape:zoom="32.416667"
     inkscape:cx="18"
     inkscape:cy="18"
     inkscape:window-width="2560"
     inkscape:window-height="1369"
     inkscape:window-x="-8"
     inkscape:window-y="-8"
     inkscape:window-maximized="1"
     inkscape:current-layer="svg1" />
  <path
     fill-rule="evenodd"
     d="m 665.74064,142.54232 c -6.86558,3.38384 -9.58089,13.94139 -5.15697,20.05389 1.23919,1.71195 5.73541,4.79879 9.99135,6.8578 6.157,2.97894 10.24498,6.27268 20.01608,16.12943 14.28623,14.41082 25.06292,29.79942 35.48365,50.67425 13.77232,27.5869 20.48661,46.48393 33.4202,94.0502 3.95227,14.53207 7.67984,27.01848 8.28386,27.74598 2.23921,2.69862 14.17277,24.92498 19.164,35.69277 26.36996,56.89354 35.99423,123.28565 26.48453,182.7065 -1.24808,7.80109 -3.15247,15.89028 -4.23036,17.97487 -2.15356,4.16362 -8.01689,7.88896 -12.41633,7.88896 -4.51735,0 -10.28391,-3.7665 -12.59987,-8.22935 -2.13243,-4.11022 -2.1302,-4.22591 0.50057,-21.58897 2.2292,-14.71673 2.62743,-21.38653 2.5351,-42.48606 -0.1168,-26.8405 -2.17692,-45.22249 -7.67428,-68.49783 -23.61794,-100.00252 -97.8345,-182.05909 -196.77248,-217.56054 -68.69806,-24.65135 -152.1907,-23.08068 -219.98997,4.13581 -50.7332,20.36536 -100.5943,58.95031 -133.76755,103.51428 -36.18334,48.60746 -56.06482,103.78682 -59.55656,165.29227 -4.95452,87.26137 27.50792,171.85083 90.0145,234.55986 26.78266,26.86942 54.58425,46.8677 89.57957,64.43433 38.97762,19.56667 76.98748,30.47017 120.13651,34.4636 128.09221,11.85458 281.18951,-69.75704 356.25258,-189.90801 19.25076,-30.81502 31.79835,-60.61443 42.97439,-102.0682 8.89566,-32.9975 25.0162,-111.24085 38.50264,-186.87902 7.13143,-39.99099 20.44656,-88.40156 31.66709,-115.13082 17.37975,-41.4026 46.56736,-79.74839 66.32201,-87.13345 7.1726,-2.68083 10.1237,-6.18703 10.6644,-12.6655 0.5317,-6.38393 -1.1091,-9.90237 -6.2271,-13.35184 l -3.7643,-2.53622 -168.0821,0.0256 c -152.97048,0.0222 -168.41247,0.18799 -171.75516,1.83542 M 451.94437,283.81506 c -46.50617,4.70646 -96.92346,25.96395 -134.03452,56.51422 -66.78366,54.97803 -100.70332,140.13256 -88.84762,223.05457 7.06135,49.385 28.9173,96.85227 62.7335,136.24481 36.02872,41.96991 90.04009,74.29553 146.80014,87.86206 45.13128,10.78559 85.10337,9.17375 126.50597,-5.10247 99.29394,-34.23779 167.08875,-131.89542 167.15216,-240.78026 0.0167,-29.59474 -4.01679,-55.66436 -12.65661,-81.78738 -31.2722,-94.55744 -112.0006,-162.36004 -208.47577,-175.09562 -11.41186,-1.50616 -47.7576,-2.06568 -59.17725,-0.90993 M 14.509545,751.1027 c -6.4895966,4.02346 -6.4028314,3.03123 -6.3983819,73.30107 0.00334,60.99709 0.1123499,64.52777 2.0934899,67.7759 2.13576,3.50398 8.289419,7.16036 11.974718,7.11698 1.131285,-0.0133 4.096877,-0.95108 6.590822,-2.08348 5.666439,-2.57404 8.258273,-7.61532 8.258273,-16.06047 v -6.15255 l 8.620907,-1.86656 c 16.210642,-3.51066 73.131987,-16.16615 77.031977,-17.12613 2.14132,-0.52727 5.27043,-1.26811 6.95234,-1.64743 l 3.05903,-0.68856 v -58.96923 l -2.50284,-0.91882 c -1.37712,-0.50502 -22.89824,-5.37277 -47.826567,-10.81784 l -45.323723,-9.89903 -0.0056,-5.87557 c -0.0078,-7.67872 -2.333763,-13.00922 -6.891164,-15.78682 -4.498445,-2.74312 -11.479711,-2.87772 -15.633319,-0.30146 m 134.868803,73.1331 v 29.47794 l 133.20692,-0.11457 c 74.67819,-0.0645 131.49608,-0.52616 129.3136,-1.0512 -2.14132,-0.51503 -9.39957,-2.01451 -16.12944,-3.33267 -22.30312,-4.36719 -57.92693,-17.3664 -78.42244,-28.61585 -12.95806,-7.11141 -25.74926,-14.76122 -34.0409,-20.35647 l -8.12924,-5.48512 h -125.7985 z"
     id="path1"
     style="stroke-width:1.11238" />
</svg>
