<?xml version="1.0" encoding="UTF-8"?>
<svg width="36" height="36" viewBox="0 0 24 24" version="1.1" xmlns="http://www.w3.org/2000/svg">
  <path fill-rule="evenodd" d="M12.53 3.47a.75.75 0 0 1 0 1.06l-.97.97h3.19A4.25 4.25 0 0 1 19 9.75v2a.75.75 0 0 1-1.5 0v-2A2.75 2.75 0 0 0 14.75 7h-3.19l.97.97a.75.75 0 1 1-1.06 1.06l-2.25-2.25a.75.75 0 0 1 0-1.06l2.25-2.25a.75.75 0 0 1 1.06 0Zm-5.78 7.28a2.75 2.75 0 0 1 2.75 2.75v.5h5a2.75 2.75 0 1 1 0 5.5h-4.25a.75.75 0 0 1 0-1.5h4.25a1.25 1.25 0 1 0 0-2.5H8.75a.75.75 0 0 1-.75-.75v-1.25c0-.69-.56-1.25-1.25-1.25S5.5 12.81 5.5 13.5V16a.75.75 0 0 1-1.5 0v-2.5a2.75 2.75 0 0 1 2.75-2.75Z"/>
</svg>