<?xml version="1.0" encoding="UTF-8" standalone="no"?>
<svg
   width="36"
   height="36"
   viewBox="0 0 24 24"
   version="1.1"
   id="svg1"
   sodipodi:docname="Suggest.svg"
   inkscape:version="1.4.2 (f4327f4, 2025-05-13)"
   xmlns:inkscape="http://www.inkscape.org/namespaces/inkscape"
   xmlns:sodipodi="http://sodipodi.sourceforge.net/DTD/sodipodi-0.dtd"
   xmlns="http://www.w3.org/2000/svg"
   xmlns:svg="http://www.w3.org/2000/svg">
  <defs
     id="defs1" />
  <sodipodi:namedview
     id="namedview1"
     pagecolor="#ffffff"
     bordercolor="#000000"
     borderopacity="0.25"
     inkscape:showpageshadow="2"
     inkscape:pageopacity="0.0"
     inkscape:pagecheckerboard="0"
     inkscape:deskcolor="#d1d1d1"
     inkscape:zoom="32.416667"
     inkscape:cx="18.015424"
     inkscape:cy="18"
     inkscape:window-width="2560"
     inkscape:window-height="1369"
     inkscape:window-x="-8"
     inkscape:window-y="-8"
     inkscape:window-maximized="1"
     inkscape:current-layer="svg1" />
  <path
     fill-rule="evenodd"
     d="m 10.47,3.47 a 0.75,0.75 0 0 0 0,1.06 L 11.44,5.5 H 8.25 A 4.25,4.25 0 0 0 4,9.75 v 2 a 0.75,0.75 0 0 0 1.5,0 v -2 A 2.75,2.75 0 0 1 8.25,7 h 3.19 l -0.97,0.97 a 0.75,0.75 0 1 0 1.06,1.06 l 2.25,-2.25 a 0.75,0.75 0 0 0 0,-1.06 L 11.53,3.47 a 0.75,0.75 0 0 0 -1.06,0 z m 5.78,7.28 A 2.75,2.75 0 0 0 13.5,13.5 V 14 h -5 a 2.75,2.75 0 1 0 0,5.5 h 4.25 a 0.75,0.75 0 0 0 0,-1.5 H 8.5 a 1.25,1.25 0 1 1 0,-2.5 h 5.75 A 0.75,0.75 0 0 0 15,14.75 V 13.5 c 0,-0.69 0.56,-1.25 1.25,-1.25 0.69,0 1.25,0.56 1.25,1.25 V 16 a 0.75,0.75 0 0 0 1.5,0 v -2.5 a 2.75,2.75 0 0 0 -2.75,-2.75 z"
     id="path1" />
</svg>
