<?xml version="1.0" encoding="UTF-8"?>
<svg width="36" height="36" viewBox="0 0 24 24" version="1.1" xmlns="http://www.w3.org/2000/svg">
  <path fill-rule="evenodd" d="M9.75 3A1.75 1.75 0 0 0 8 4.75v1.59l-1.78.89A2.25 2.25 0 0 0 5 9.25v6.5A2.25 2.25 0 0 0 7.25 18h9.5A2.25 2.25 0 0 0 19 15.75v-6.5a2.25 2.25 0 0 0-1.22-2.01L16 6.34V4.75A1.75 1.75 0 0 0 14.25 3h-4.5Zm0 1.5h4.5a.25.25 0 0 1 .25.25V10h-5V4.75a.25.25 0 0 1 .25-.25Zm6.08 4.08.97.49a.75.75 0 0 1 .41.67v6.01a.75.75 0 0 1-.75.75h-9.5a.75.75 0 0 1-.75-.75V9.74a.75.75 0 0 1 .41-.67l.97-.49v2.17c0 .414.336.75.75.75h6.5a.75.75 0 0 0 .75-.75V8.58Zm-7.38 4.67a.75.75 0 0 1 1.06 0l1.03 1.03 2.22-2.22a.75.75 0 1 1 1.06 1.06l-2.75 2.75a.75.75 0 0 1-1.06 0l-1.56-1.56a.75.75 0 0 1 0-1.06Z"/>
</svg>