<?xml version="1.0" encoding="UTF-8" standalone="no"?>
<svg
   width="36"
   height="36"
   viewBox="0 0 24 24"
   version="1.1"
   id="svg1"
   sodipodi:docname="WithdrawVote.svg"
   inkscape:version="1.4.2 (f4327f4, 2025-05-13)"
   xmlns:inkscape="http://www.inkscape.org/namespaces/inkscape"
   xmlns:sodipodi="http://sodipodi.sourceforge.net/DTD/sodipodi-0.dtd"
   xmlns="http://www.w3.org/2000/svg"
   xmlns:svg="http://www.w3.org/2000/svg">
  <defs
     id="defs1" />
  <sodipodi:namedview
     id="namedview1"
     pagecolor="#ffffff"
     bordercolor="#000000"
     borderopacity="0.25"
     inkscape:showpageshadow="2"
     inkscape:pageopacity="0.0"
     inkscape:pagecheckerboard="0"
     inkscape:deskcolor="#d1d1d1"
     inkscape:zoom="16"
     inkscape:cx="2.40625"
     inkscape:cy="9.65625"
     inkscape:window-width="2560"
     inkscape:window-height="1369"
     inkscape:window-x="-8"
     inkscape:window-y="-8"
     inkscape:window-maximized="1"
     inkscape:current-layer="svg1" />
  <path
     id="path1"
     style="fill:#000000;stroke:none;stroke-width:0.0912037;stroke-dasharray:none"
     d="m 8.9038388,1.2916667 c -1.3222234,0 -2.3940973,1.0718738 -2.3940973,2.3940972 V 5.8607585 L 4.074674,7.079183 C 3.0411491,7.611286 2.395471,8.6796002 2.4055749,9.8420144 v 8.8923606 c 0,1.700001 1.3781235,3.078125 3.078125,3.078125 H 18.480228 c 1.700002,0 3.078125,-1.378124 3.078125,-3.078125 V 9.8420144 C 21.563285,8.6845109 20.918365,7.6215257 19.889254,7.0916522 L 17.454186,5.8607585 V 3.6857639 c 0,-1.3222234 -1.071874,-2.3940972 -2.394097,-2.3940972 z m 0,2.0520833 h 6.1562502 c 0.188888,0 0.342014,0.1531249 0.342014,0.3420139 V 10.868055 H 8.5618249 V 3.6857639 c 0,-0.188889 0.1531248,-0.3420139 0.3420139,-0.3420139 z M 5.9486251,8.9246329 h 0.3277633 v 2.9694651 c 0,0.566667 0.4593739,1.026041 1.0260417,1.026041 h 8.5645979 0.327763 c 0.566375,0 1.026042,-0.459666 1.026042,-1.026041 V 8.9246329 l 1.327085,0.6715587 c 0.344806,0.1753668 0.561881,0.5287614 0.561116,0.9155994 v 8.222584 c 0,9.82e-4 2e-6,0.0026 0,0.0036 V 19.0408 c 0,0.566667 -0.459373,1.026042 -1.026042,1.026042 H 17.215489 5.953969 5.086465 c -0.5666678,-3e-6 -1.0260416,-0.459378 -1.0260416,-1.026045 V 18.734382 10.511798 C 4.0596531,10.124958 4.2767325,9.7715652 4.62154,9.5961983 Z" />
  <path
     id="path6-8"
     style="fill:#000000;stroke:none;stroke-width:0.0912037;stroke-dasharray:none"
     d="m 5.6431798,13.047487 c -0.7708659,0.04533 -1.4059858,1.043331 -0.680465,1.768853 l 1.6210033,1.622784 -1.6210033,1.621003 c -0.9673617,0.967362 0.484417,2.41914 1.4517777,1.451778 l 1.6227846,-1.622784 1.621003,1.622784 C 10.62564,20.479267 12.077421,19.027489 11.110059,18.060127 L 9.4872738,16.439124 11.110059,14.81634 C 12.077421,13.848978 10.625641,12.397199 9.6582801,13.364562 L 8.0372771,14.985565 6.4144925,13.364562 C 6.1726523,13.122721 5.9001352,13.032371 5.6431798,13.047487 Z" />
</svg>
