<?xml version="1.0" encoding="UTF-8" standalone="no"?>
<svg
   viewBox="0 0 24 24"
   aria-hidden="true"
   version="1.1"
   id="svg3"
   sodipodi:docname="PhaseRumbleBattle.svg"
   xml:space="preserve"
   inkscape:version="1.4.2 (f4327f4, 2025-05-13)"
   xmlns:inkscape="http://www.inkscape.org/namespaces/inkscape"
   xmlns:sodipodi="http://sodipodi.sourceforge.net/DTD/sodipodi-0.dtd"
   xmlns="http://www.w3.org/2000/svg"
   xmlns:svg="http://www.w3.org/2000/svg"><defs
     id="defs3" /><sodipodi:namedview
     id="namedview3"
     pagecolor="#ffffff"
     bordercolor="#000000"
     borderopacity="0.25"
     inkscape:showpageshadow="2"
     inkscape:pageopacity="0.0"
     inkscape:pagecheckerboard="0"
     inkscape:deskcolor="#d1d1d1"
     inkscape:zoom="24.3125"
     inkscape:cx="10.529563"
     inkscape:cy="22.457584"
     inkscape:window-width="1278"
     inkscape:window-height="1360"
     inkscape:window-x="-7"
     inkscape:window-y="0"
     inkscape:window-maximized="0"
     inkscape:current-layer="svg3" /><path
     style="fill:#000000;stroke-width:1.09236"
     d="m 6.5817917,19.307202 c 0,-0.01765 -0.132038,-0.190752 -0.2934178,-0.384669 C 5.8628481,18.41121 5.0459465,17.160617 4.6686295,16.442866 3.0347332,13.334789 2.3457755,9.8578159 2.3962882,4.9750043 L 2.4143276,3.2312258 2.7985618,3.1885345 C 4.8443663,2.9612303 5.7655055,2.8151688 6.8478001,2.5464624 8.6661595,2.0950094 10.29541,1.4398853 11.703272,0.59406935 11.967885,0.4350956 12.21522,0.30502612 12.252907,0.30502612 c 0.03769,0 0.220198,0.0972597 0.405581,0.21613156 0.691064,0.44312777 2.288276,1.17695072 3.293899,1.51334832 1.848478,0.6183469 2.99519,0.8445339 5.777041,1.139512 0.298126,0.031612 0.344332,0.053937 0.376443,0.1818746 0.07366,0.2934896 -0.02157,4.6967443 -0.120676,5.5796265 -0.21599,1.9241959 -0.501037,3.2888889 -1.006285,4.8177069 -1.259709,3.811726 -3.605062,6.804267 -7.009909,8.944256 -0.500438,0.314531 -1.65378,0.95731 -1.717282,0.957075 -0.01356,-5.2e-5 -0.343849,-0.175474 -0.733995,-0.38983 C 10.080776,22.475231 8.8019576,21.541867 7.6986588,20.477326 7.3532766,20.144077 7.0532402,19.871419 7.0319114,19.871419 Z"
     id="path3"
     sodipodi:nodetypes="cssscsssssssssssssscc" /><g
     id="g4"
     transform="matrix(0.36146018,-0.67480078,0.67480078,0.36146018,0.25382563,10.5236)"><circle
       style="fill:#ffffff;stroke:none;stroke-width:1.45"
       id="path4"
       cx="8.9460154"
       cy="9.1516714"
       r="1.6246786" /><path
       id="circle4"
       style="fill:none;stroke:#ffffff;stroke-width:0.5"
       d="m 11.763496,9.3573265 c 0.37018,1.0616425 6.297518,10.3078005 6.297518,10.3078005 0,0 -8.0944874,-7.161271 -8.9504746,-7.654844 C 7.8412449,11.278391 6.457583,10.822514 6.4575832,9.3573265 c 0,-1.4651873 1.1877689,-2.6529562 2.6529562,-2.6529562 1.4651876,-2e-7 2.1705506,1.269461 2.6529566,2.6529562 z"
       sodipodi:nodetypes="scssss" /></g><g
     id="g5"
     transform="matrix(0.36146018,-0.67480078,0.67480078,0.36146018,3.914494,11.26396)"><path
       id="path5"
       style="fill:#000000;stroke:#ffffff;stroke-width:0.5"
       d="m 11.763496,9.3573265 c 0.37018,1.0616425 6.297518,10.3078005 6.297518,10.3078005 0,0 -8.0944874,-7.161271 -8.9504746,-7.654844 C 7.8412449,11.278391 6.457583,10.822514 6.4575832,9.3573265 c 0,-1.4651873 1.1877689,-2.6529562 2.6529562,-2.6529562 1.4651876,-2e-7 2.1705506,1.269461 2.6529566,2.6529562 z"
       sodipodi:nodetypes="scssss" /><circle
       style="fill:#ffffff;stroke:none;stroke-width:1.45"
       id="circle5"
       cx="8.9460154"
       cy="9.1516714"
       r="1.6246786" /></g><path
     style="fill:#000000;stroke:#ffffff;stroke-width:0.5;stroke-dasharray:none"
     d="M 2.4267352,11.51671 18.508997,20.565553"
     id="path6" /><path
     style="fill:#000000;stroke:#ffffff;stroke-width:0.5;stroke-dasharray:none"
     d="m 14.231362,13.696658 c 0.535019,0.02829 1.033036,-0.04519 1.11054,-1.275064 0.760562,0.742229 1.043383,0.33788 1.439589,0.205655 -0.431684,0.782736 0.239388,0.840803 1.151671,0.74036 -0.07128,0.330305 -0.882486,0.691441 -0.123393,0.987147 -0.746084,0.208051 -0.611875,0.680191 -0.616967,1.11054 C 16.743846,15.164847 16.328442,15.535425 15.917738,16 l -0.205656,-0.74036 -0.781491,0.534704 c -0.272466,-0.09748 0.283154,-0.910117 -0.822622,-0.287917 0.213918,-0.406829 0.451849,-0.816933 -0.164524,-1.11054 0.500586,-0.175275 0.601679,-0.407619 0.287917,-0.699229 z"
     id="path8"
     sodipodi:nodetypes="cccccccccccc" /></svg>
