<?xml version="1.0" encoding="UTF-8" standalone="no"?>
<svg
   viewBox="0 0 24 24"
   aria-hidden="true"
   version="1.1"
   id="svg4"
   sodipodi:docname="PhaseRumbleBidding.svg"
   xml:space="preserve"
   inkscape:version="1.4.2 (f4327f4, 2025-05-13)"
   xmlns:inkscape="http://www.inkscape.org/namespaces/inkscape"
   xmlns:sodipodi="http://sodipodi.sourceforge.net/DTD/sodipodi-0.dtd"
   xmlns="http://www.w3.org/2000/svg"
   xmlns:svg="http://www.w3.org/2000/svg"><defs
     id="defs4" /><sodipodi:namedview
     id="namedview4"
     pagecolor="#ffffff"
     bordercolor="#000000"
     borderopacity="0.25"
     inkscape:showpageshadow="2"
     inkscape:pageopacity="0.0"
     inkscape:pagecheckerboard="0"
     inkscape:deskcolor="#d1d1d1"
     inkscape:zoom="6.078125"
     inkscape:cx="17.275064"
     inkscape:cy="36.771208"
     inkscape:window-width="2560"
     inkscape:window-height="1369"
     inkscape:window-x="-8"
     inkscape:window-y="-8"
     inkscape:window-maximized="1"
     inkscape:current-layer="svg4" /><path
     style="fill:#000000;stroke-width:0.0511537"
     d="M 11.450842,22.587603 C 10.777081,22.527747 10.141149,22.411712 9.6741411,22.26341 L 9.2751751,22.136714 8.6595607,22.26089 C 7.1400629,22.567381 5.1635493,22.543545 3.7726141,22.201954 3.1347357,22.0453 2.723597,21.849673 2.5021295,21.597434 2.3419737,21.415028 2.3403129,21.407497 2.3403129,20.864101 c 0,-0.504763 0.010565,-0.564576 0.1309357,-0.741725 L 2.6021843,19.929685 2.4712486,19.774078 C 2.3490101,19.628803 2.3403129,19.582883 2.3403129,19.082739 c 0,-0.610464 0.049972,-0.75387 0.328903,-0.943846 l 0.1819327,-0.123915 2.84e-4,-4.079505 C 2.8517166,9.9244128 2.8534774,9.8542539 2.9540923,9.753664 3.0450286,9.6627277 3.1246027,9.6513564 3.6702418,9.6513564 H 4.284086 V 9.2175228 c 0,-0.5168122 -0.028025,-0.4988135 0.7417275,-0.4763117 l 0.5115367,0.014961 0.025583,0.4348071 0.025583,0.4348071 H 5.8442819 6.100052 L 6.1137634,8.4699279 6.1274748,7.3140718 5.8584421,7.1133906 C 5.7104767,7.0030175 5.534985,6.814045 5.4684658,6.6934593 5.3071604,6.4010422 5.2999196,5.9748527 5.4512328,5.6791139 5.5620717,5.4624777 5.8917574,5.1498399 6.0093633,5.1498399 c 0.04945,0 0.065081,-0.1658289 0.065081,-0.6907078 V 3.7684243 L 5.8726806,3.5861451 C 5.6322238,3.3689068 5.5424871,3.1295951 5.5749175,2.7920665 5.6240946,2.2802731 5.9986112,1.9542816 6.5385613,1.9532706 c 0.3701384,-5.68e-4 0.6522885,0.1754587 0.8130883,0.5076266 0.062184,0.1284626 0.1282786,0.2340123 0.1468703,0.2345519 0.1231224,0.00364 4.7236071,0.8096667 4.7454101,0.8314733 0.015,0.014995 0.01113,0.1906299 -0.0085,0.3902886 -0.04274,0.4337052 0.02399,0.4175048 -1.002055,0.2433082 L 10.535197,4.0419919 9.6475911,4.6512922 C 9.1594101,4.9864102 8.5151226,5.4255841 8.2158463,5.6272365 L 7.6717044,5.9938761 7.6502454,6.2833839 C 7.6243789,6.6319885 7.4486589,6.9268015 7.1482318,7.1256173 L 6.9440439,7.2607358 V 8.4560484 9.6513621 H 7.9159645 8.8878821 V 9.2175342 c 0,-0.5168133 -0.02802,-0.4988147 0.741729,-0.4763118 l 0.5115349,0.014961 0.01479,0.447595 0.01477,0.4475961 h 0.628511 c 0.934231,0 0.850962,-0.2264739 0.850962,2.3144405 v 2.07766 l 0.549901,-0.02873 c 0.551865,-0.02883 1.916062,0.05197 2.278014,0.134931 l 0.193503,0.04435 0.484198,-0.621623 c 0.266306,-0.341892 0.484234,-0.660403 0.484282,-0.707798 4.5e-5,-0.04739 -0.0341,-0.248677 -0.07587,-0.44729 -0.215489,-1.024406 -0.30172,-1.954268 -0.301557,-3.251906 1.42e-4,-1.1656983 0.01267,-1.3509595 0.141593,-2.0939957 0.293355,-1.6907352 0.796118,-3.0487129 1.551847,-4.1915619 0.30876,-0.4669285 0.877754,-1.0549913 1.020777,-1.0549913 0.182441,0 0.615848,0.4460489 1.012728,1.0422659 1.599787,2.4033074 2.116264,5.7776153 1.440353,9.410283 l -0.115637,0.621493 0.55589,0.737855 c 0.305739,0.40582 0.583412,0.785799 0.617052,0.844397 0.042,0.07316 0.06918,0.58666 0.08675,1.638667 l 0.02558,1.532127 0.366726,0.139902 c 0.437896,0.167052 0.732193,0.345465 0.880168,0.53358 0.09675,0.123013 0.10868,0.203904 0.10868,0.737641 0,0.570053 -0.0064,0.606311 -0.129104,0.738779 l -0.129105,0.139306 0.129105,0.153435 c 0.121685,0.144616 0.129104,0.187294 0.129104,0.742669 0,0.502186 -0.01473,0.609925 -0.09974,0.729307 -0.111395,0.156432 -0.559979,0.408708 -0.948908,0.533639 -1.317013,0.423046 -3.700278,0.493225 -5.332236,0.157017 l -0.63149,-0.130095 -0.27466,0.102762 c -0.85916,0.321454 -2.785923,0.484886 -4.217355,0.357726 z m 2.936154,-1.24641 c 0.997745,-0.154167 1.662494,-0.407055 1.662494,-0.632459 0,-0.05096 -0.05195,-0.141469 -0.115447,-0.20112 l -0.115444,-0.108454 -0.298244,0.09839 c -0.83654,0.275977 -1.797598,0.376688 -3.256234,0.341225 -1.130219,-0.02749 -1.735372,-0.101444 -2.4680249,-0.301671 l -0.396302,-0.108294 -0.102444,0.118121 c -0.122371,0.141095 -0.123431,0.15205 -0.02788,0.288471 0.159037,0.227053 1.0508339,0.473214 2.0994609,0.579504 0.637959,0.06466 2.401236,0.02161 3.018066,-0.0737 z m -7.2332557,-0.08136 c 0.4334916,-0.03001 0.9256357,-0.0818 1.0936514,-0.115098 l 0.3054856,-0.06054 0.00466,-0.29457 c 0.00386,-0.243855 -0.0092,-0.290777 -0.07543,-0.272536 -0.570706,0.15713 -2.80504,0.21144 -3.737519,0.09086 -0.26728,-0.03457 -0.7251171,-0.121969 -1.0174207,-0.194233 L 3.1956829,20.282334 3.0701943,20.40782 c -0.1094189,0.109419 -0.1170664,0.13898 -0.059708,0.230829 0.1987227,0.318207 0.9902624,0.511552 2.6292542,0.642232 0.4465305,0.03561 0.7582312,0.03127 1.5140166,-0.02104 z m 13.2949647,-0.05293 c 1.358964,-0.143754 2.150598,-0.526956 1.804206,-0.873349 -0.101774,-0.101774 -0.102353,-0.101774 -0.438948,0.0023 -1.238499,0.382532 -3.676001,0.472329 -4.984379,0.183619 -0.109237,-0.02411 -0.115096,-0.01 -0.115096,0.276955 0,0.271216 0.01184,0.305211 0.115096,0.330129 0.121679,0.02937 0.962882,0.123979 1.393935,0.156782 0.368038,0.02799 1.656768,-0.01621 2.225186,-0.07633 z m -6.157409,-1.604338 c 0.923096,-0.132393 1.396529,-0.277236 1.6431,-0.502693 0.13993,-0.127952 0.143735,-0.194165 0.01993,-0.347052 l -0.09516,-0.117517 -0.347413,0.114048 c -0.594999,0.195323 -1.464494,0.31788 -2.480333,0.349603 -1.276662,0.03987 -2.116568,-0.03985 -3.1828829,-0.302119 -0.433293,-0.106567 -0.449159,-0.107033 -0.549902,-0.01585 -0.135885,0.122975 -0.130924,0.211179 0.01973,0.350795 0.254952,0.236281 1.1406449,0.454444 2.2052129,0.543187 0.716266,0.05971 2.098789,0.02354 2.767721,-0.0724 z M 7.3533706,19.496683 c 0.2954128,-0.01619 0.6852414,-0.05694 0.8662858,-0.09056 L 8.548832,19.344973 8.535973,19.030903 C 8.524272,18.744969 8.537103,18.700967 8.678581,18.53977 L 8.8340459,18.362705 8.7203364,18.260397 C 8.5423273,18.10023 8.5136833,18.091289 7.9298316,18.013577 7.2080078,17.917497 5.4988207,17.917547 4.7956795,18.013679 3.719653,18.160776 2.954148,18.469647 2.954148,18.756713 c 0,0.100388 0.1703967,0.265253 0.3836511,0.371186 0.3428246,0.170291 1.2091206,0.331983 2.0973015,0.391447 0.5997204,0.04016 0.8186762,0.03757 1.9182609,-0.02265 z M 20.985818,19.380196 c 0.971105,-0.191074 1.405933,-0.415875 1.336846,-0.691137 -0.127134,-0.506543 -2.336333,-0.903024 -4.201451,-0.754031 -1.049671,0.08386 -1.351562,0.144699 -1.54204,0.31078 l -0.16089,0.140286 0.133611,0.133611 c 0.113031,0.113031 0.136733,0.188858 0.153874,0.492226 0.01113,0.19724 0.03493,0.359894 0.05286,0.361452 0.01791,0.0015 0.251275,0.03494 0.518553,0.07419 0.739013,0.10851 3.025837,0.06697 3.708639,-0.06739 z m -7.645281,-1.439165 c 0.409154,-0.02507 0.972776,-0.08456 1.252489,-0.13221 1.149916,-0.195883 1.729239,-0.549693 1.329219,-0.811794 -0.118516,-0.07766 -0.147454,-0.07664 -0.422014,0.01471 -0.429501,0.142921 -1.156324,0.256106 -2.067991,0.322032 -1.224503,0.08855 -2.883809,-0.05171 -3.7355909,-0.315756 l -0.291132,-0.09025 -0.110134,0.117236 c -0.427554,0.455108 0.8860329,0.845499 3.1477769,0.935503 0.08441,0.0034 0.488223,-0.01439 0.897379,-0.03948 z m 4.013372,-0.510389 c 0.627907,-0.08353 1.770624,-0.113179 2.404222,-0.06237 0.337613,0.02706 0.62222,0.041 0.632455,0.03095 0.01022,-0.01 -0.05882,-0.174133 -0.15346,-0.364643 -0.126381,-0.254399 -0.239176,-0.396954 -0.424769,-0.536831 -0.257732,-0.194247 -0.335422,-0.206447 -0.335764,-0.05273 -1.01e-4,0.04758 -0.0458,0.161311 -0.101557,0.25275 l -0.101365,0.166248 h -1.275885 -1.275889 l -0.128888,-0.16469 c -0.07089,-0.09057 -0.145543,-0.148034 -0.165894,-0.127682 -0.02036,0.02036 0.01011,0.08871 0.06764,0.151902 0.166847,0.183197 0.219733,0.321819 0.219733,0.575978 0,0.232255 0.0032,0.236953 0.140671,0.208183 0.07737,-0.01619 0.301807,-0.05087 0.49875,-0.07707 z M 6.1982279,17.191044 c 0.066933,-0.0257 0.080917,-0.127346 0.080917,-0.588267 V 16.04556 H 5.6482504 c -0.3469914,0 -0.6404878,0.0094 -0.652209,0.0211 -0.011723,0.01161 -0.014086,0.263941 -0.00523,0.560745 l 0.01604,0.539644 0.4443403,0.017 c 0.2443897,0.0093 0.4942537,0.02172 0.5552543,0.02751 0.061003,0.0058 0.1473247,-0.0034 0.1918261,-0.02053 z m 2.338449,-0.141884 c 0.021516,-0.08105 0.089073,-0.200542 0.1501374,-0.265543 l 0.111032,-0.118182 -0.1083851,-0.137798 c -0.059617,-0.07579 -0.1083965,-0.211425 -0.1083965,-0.301413 0,-0.205036 -0.015279,-0.219364 -0.2043243,-0.191618 l -0.1537521,0.02257 v 0.585859 0.58586 l 0.1372927,-0.01619 c 0.1018418,-0.01201 0.1473929,-0.05423 0.1764027,-0.163543 z m 6.1060891,-0.994979 c 0.904873,-0.176225 1.406724,-0.407728 1.406724,-0.648921 0,-0.528652 -2.118681,-0.930043 -4.201823,-0.796046 -2.2540689,0.144988 -3.367825,0.780387 -2.1477019,1.225265 0.7641639,0.27863 1.5430829,0.362222 3.1524229,0.33832 0.997693,-0.01482 1.391299,-0.0409 1.790378,-0.118618 z M 6.2681744,14.284902 c 0.010792,-0.412424 -0.00261,-0.569463 -0.051154,-0.600272 -0.03617,-0.02294 -0.3247259,-0.04208 -0.6412409,-0.04251 l -0.5754794,-8.76e-4 v 0.615417 0.615419 l 0.6266332,-0.01437 0.626632,-0.01437 z m 2.7500637,0.405811 c 0.162865,-0.09807 0.339233,-0.191995 0.39193,-0.208719 0.08448,-0.02683 0.09405,-0.07678 0.08094,-0.422745 l -0.01488,-0.392334 H 8.8623821 8.2485379 l -0.014393,0.601055 -0.014427,0.601057 H 8.470911 c 0.1961497,0 0.3160822,-0.03907 0.5473091,-0.178314 z m -2.750208,-2.801388 -0.01445,-0.575478 H 5.6141592 4.9747381 l 0.010678,0.537114 c 0.00591,0.295413 0.011587,0.554377 0.012768,0.575478 0.00113,0.0211 0.2906621,0.03836 0.6432653,0.03836 H 6.282545 Z m 3.233792,-0.01277 V 11.288286 H 8.8624011 8.2229814 v 0.588268 0.588267 h 0.6394197 0.639421 z m 8.8206449,-0.691318 c 0.317824,-0.157478 0.41259,-0.321799 0.41259,-0.715408 0,-0.396892 -0.09467,-0.5579448 -0.4237,-0.7207837 -0.385448,-0.1907628 -0.836802,-0.019448 -1.036708,0.3935097 -0.191141,0.394845 -0.03141,0.837659 0.374645,1.038658 0.27015,0.133725 0.40973,0.134557 0.673173,0.004 z m -0.08611,-3.0258885 c 0.464515,-0.1169676 0.835164,-0.6549922 0.761965,-1.1060565 -0.08509,-0.5243654 -0.600402,-0.9243588 -1.11268,-0.8636888 -0.865848,0.1025461 -1.212443,1.1123634 -0.589141,1.7164904 0.09433,0.091436 0.272451,0.1977196 0.395809,0.23619 0.283538,0.088426 0.263191,0.08779 0.544047,0.017063 z M 8.2794551,4.5799461 C 8.8687961,4.1820963 9.3434981,3.8490957 9.3343521,3.8399476 9.3252641,3.830746 8.8835231,3.7522375 8.352838,3.6653624 7.8221519,3.578493 7.3744183,3.5029733 7.3578737,3.4975467 7.3413223,3.4920939 7.2414685,3.5566638 7.1359654,3.6409784 L 6.9441393,3.7942772 v 0.6567973 c -2.3e-6,0.6185745 0.0067,0.6623874 0.1150931,0.7528148 0.063298,0.052812 0.1226566,0.096787 0.1318957,0.097718 0.0092,8.759e-4 0.4989873,-0.3238115 1.088327,-0.7216612 z"
     id="path4" /></svg>
