<svg xmlns="http://www.w3.org/2000/svg" viewBox="0 0 24 24" fill="currentColor">
  <path d="M4 8.5C4 6.57 5.57 5 7.5 5h6.09c.79 0 1.53.42 1.93 1.1l2.98 4.96c.33.54.5 1.16.5 1.8A3.14 3.14 0 0 1 15.86 16H13.5v2.5a.5.5 0 0 1-.9.3L9 14.5h2.3l-1.16-2.1a.75.75 0 0 1 .08-.84L13 8.25h-2.3l1.11-2.05H7.5A2.5 2.5 0 0 0 5 8.7v4.8A2.5 2.5 0 0 0 7.5 16H9v1.2H7.5A3.5 3.5 0 0 1 4 13.7V8.5Z"/>
  <path d="M14.72 6.88a.5.5 0 0 1 .89.45l-1.37 2.72h1.97a.5.5 0 0 1 .4.8l-4.16 5.57a.5.5 0 0 1-.88-.47l1.3-2.65h-1.94a.5.5 0 0 1-.39-.81l4.18-5.61Z"/>
</svg>