<?xml version="1.0" encoding="UTF-8" standalone="no"?>
<svg
   viewBox="0 0 24 24"
   aria-hidden="true"
   version="1.1"
   id="svg1"
   xml:space="preserve"
   xmlns="http://www.w3.org/2000/svg"
   xmlns:svg="http://www.w3.org/2000/svg"><defs
     id="defs1" /><circle
     cx="12"
     cy="15"
     r="1.4"
     fill="#ffffff"
     id="circle1" /><path
     style="fill:#000000;stroke-width:1.21545"
     d="m 6.1999395,22.81875 c -0.080064,-0.08848 -0.095619,-0.180997 -0.076007,-0.45213 0.028136,-0.388979 0.2144112,-0.677238 0.5560272,-0.860449 0.1866507,-0.100106 0.437082,-0.105052 5.3127433,-0.105052 5.733677,0 5.35843,-0.02738 5.678491,0.414443 0.141005,0.194652 0.163294,0.276815 0.163294,0.601972 0,0.217374 -0.02873,0.405276 -0.06796,0.444501 -0.05195,0.05195 -1.409892,0.06796 -5.766942,0.06796 -5.5926484,0 -5.7008705,-0.0021 -5.7996568,-0.111238 z m 1.4990454,-1.941413 c 0.00159,-0.358139 0.3826984,-0.892932 0.8181798,-1.148142 0.1325768,-0.0777 0.4172077,-0.201179 0.6325135,-0.274409 0.8187859,-0.278486 1.2206958,-0.578349 1.4768188,-1.101847 0.142792,-0.291856 0.158444,-0.38752 0.177613,-1.085552 l 0.02103,-0.765489 -0.201435,-0.07285 c -0.271312,-0.09811 -0.490166,-0.366974 -0.490166,-0.60218 0,-0.229734 0.182137,-0.471845 0.434191,-0.577161 0.103775,-0.04336 0.18868,-0.09283 0.18868,-0.109937 0,-0.0171 -0.171193,-0.108722 -0.380428,-0.203597 C 9.9025644,14.721526 9.4302373,14.425617 9.1709109,14.18122 9.0619083,14.078492 8.7761738,13.913498 8.5359455,13.814564 6.7333508,13.072195 4.9896382,11.337277 3.9403892,9.2421838 3.2459957,7.8556501 2.7551564,5.9812073 2.6404445,4.2778869 2.6166491,3.9245551 2.6268513,3.8745373 2.7472801,3.7541085 L 2.8804232,3.6209653 H 4.6449664 6.4095097 L 6.3753664,3.4935598 C 6.3565875,3.4234867 6.340875,3.2960813 6.3404499,3.2104364 6.3398602,3.0917073 6.3122399,3.0547186 6.2241714,3.0547186 6.026951,3.0547186 5.6610295,2.8323303 5.5449215,2.6419055 5.351598,2.3248425 5.4337532,1.9507617 5.7516224,1.7007258 L 5.9019518,1.5824771 h 6.1001932 6.100193 l 0.15606,0.1227567 c 0.502657,0.3953899 0.315654,1.129736 -0.331786,1.3029 -0.242632,0.064894 -0.261998,0.083512 -0.261998,0.2518845 0,0.099997 -0.01546,0.2221168 -0.03437,0.2713793 -0.03088,0.080483 0.143018,0.089568 1.714453,0.089568 2.190536,0 2.030091,-0.068297 1.983128,0.8441646 -0.06179,1.2003012 -0.397765,2.6771315 -0.893468,3.9272471 -0.911271,2.2981407 -2.636216,4.2717157 -4.587232,5.2484277 -0.31405,0.157219 -0.609277,0.285853 -0.656061,0.285853 -0.04678,0 -0.237684,0.138116 -0.424223,0.306925 -0.201377,0.182235 -0.573057,0.42597 -0.914902,0.59996 -0.316656,0.16117 -0.584578,0.301568 -0.595381,0.311996 -0.01081,0.01045 0.08423,0.07196 0.211175,0.136717 0.27913,0.142401 0.426886,0.396396 0.379021,0.651538 -0.04048,0.215723 -0.280369,0.460522 -0.505987,0.516321 l -0.161932,0.04004 0.0232,0.770891 c 0.01941,0.645019 0.04398,0.81712 0.150485,1.054015 0.249518,0.554991 0.605069,0.811613 1.68734,1.217861 0.558023,0.209462 0.943102,0.526462 1.131816,0.93172 0.24966,0.536142 0.703943,0.483467 -4.169526,0.483467 -3.4051994,0 -4.3034101,-0.01478 -4.3031602,-0.07077 z M 7.6222101,11.874014 C 7.1674638,10.774422 6.7881717,8.7808896 6.5960348,6.480512 6.5466115,5.888784 6.4923597,5.2708672 6.4754756,5.1073633 L 6.444777,4.8100837 H 5.147567 3.850357 L 3.884298,5.079051 c 0.2489092,1.9725028 0.9734092,3.7955451 2.0871871,5.251939 0.2782575,0.363854 1.1051552,1.219985 1.4440606,1.495114 0.1615629,0.131159 0.2495263,0.151551 0.2066641,0.04792 z m 9.6763689,-0.742821 c 0.795815,-0.802157 1.28025,-1.4926805 1.775608,-2.5309896 0.523067,-1.0963877 0.908114,-2.4070435 1.04277,-3.5494647 l 0.02837,-0.240655 H 18.85495 c -1.473239,0 -1.357859,-0.046221 -1.359434,0.5445922 -0.0011,0.4225494 -0.212336,2.4753492 -0.345961,3.3625111 -0.175031,1.162065 -0.508167,2.532271 -0.76885,3.162324 -0.07736,0.18695 0.274964,-0.100271 0.917876,-0.748318 z"
     id="path2" /></svg>
