<?xml version="1.0" encoding="UTF-8" standalone="no"?>
<svg
   viewBox="0 0 24 24"
   aria-hidden="true"
   version="1.1"
   id="svg1"
   xml:space="preserve"
   sodipodi:docname="StatusOpen.svg"
   inkscape:version="1.4.2 (f4327f4, 2025-05-13)"
   xmlns:inkscape="http://www.inkscape.org/namespaces/inkscape"
   xmlns:sodipodi="http://sodipodi.sourceforge.net/DTD/sodipodi-0.dtd"
   xmlns="http://www.w3.org/2000/svg"
   xmlns:svg="http://www.w3.org/2000/svg"><sodipodi:namedview
     id="namedview1"
     pagecolor="#ffffff"
     bordercolor="#000000"
     borderopacity="0.25"
     inkscape:showpageshadow="2"
     inkscape:pageopacity="0.0"
     inkscape:pagecheckerboard="0"
     inkscape:deskcolor="#d1d1d1"
     inkscape:zoom="17.191534"
     inkscape:cx="30.77096"
     inkscape:cy="16.956021"
     inkscape:window-width="2544"
     inkscape:window-height="1353"
     inkscape:window-x="1273"
     inkscape:window-y="0"
     inkscape:window-maximized="0"
     inkscape:current-layer="svg1" /><defs
     id="defs1" /><path
     style="fill:#000000;stroke-width:0.0477084"
     d="M 4.352123,22.651188 C 4.3163,22.529417 4.337878,22.390752 4.43705,22.105434 4.5435444,21.799044 4.9774218,20.842954 5.1537755,20.526061 5.1741182,20.489505 5.0392182,20.40162 4.8401492,20.32174 4.581085,20.217785 4.0415019,20.117598 2.7518581,19.933994 1.1026217,19.699197 1.0092012,19.67951 0.94137538,19.552486 0.73993671,19.17523 0.9924243,19.022396 1.7600164,19.056951 c 1.2967958,0.05838 2.9204361,0.358287 3.7175847,0.686687 0.1419311,0.05847 0.1803445,0.01959 0.6706591,-0.678831 0.2860576,-0.407471 0.8576681,-1.210395 1.2702448,-1.784276 L 8.1686454,16.237112 8.0651183,15.810621 C 7.770531,14.597025 7.7912297,13.048464 8.1170454,11.925665 8.2956517,11.310167 8.3850012,11.164627 8.436369,11.40552 c 0.2027336,0.950736 0.3823741,1.727194 0.4567628,1.974264 l 0.090632,0.301011 0.062527,-0.293174 c 0.034391,-0.161246 0.059741,-0.70273 0.056335,-1.203301 -0.0034,-0.500569 0.02824,-1.163426 0.07033,-1.473016 0.1089779,-0.8016242 0.2679208,-1.0802875 1.3789282,-2.4175883 0.182351,-0.2194911 0.464883,-0.5785618 0.62785,-0.797934 l 0.296304,-0.3988586 0.0053,0.250537 c 0.03072,1.4497329 0.11978,2.2165723 0.246407,2.121507 0.03228,-0.024237 0.171127,-0.6159852 0.308549,-1.3150027 C 12.322787,6.6966802 12.4454,6.2941281 12.687581,6.0157438 12.782571,5.9065426 13.226347,5.525038 13.67373,5.1679564 14.121114,4.8108742 14.641725,4.3792522 14.830646,4.2087958 l 0.343489,-0.3099207 -0.05344,0.6639631 c -0.02939,0.3651797 -0.08884,0.9126618 -0.132118,1.2166274 -0.14044,0.9864614 0.0824,0.6515589 0.606655,-0.9117329 0.415715,-1.2396305 0.592358,-1.5938524 0.945419,-1.8958429 0.277367,-0.2372463 1.677826,-1.1035979 1.711487,-1.0587607 0.0082,0.010984 -0.04903,0.1686089 -0.127286,0.350276 -0.173414,0.4025848 -0.392668,1.4103473 -0.309419,1.422199 0.03237,0.0046 0.152583,-0.1862736 0.267141,-0.4241824 0.317368,-0.6591016 0.975215,-1.5431802 1.305983,-1.7551049 0.594557,-0.3809369 2.094005,-0.73866362 2.988344,-0.71293622 0.523855,0.0150704 0.875903,0.23286702 1.01039,0.62508472 0.247603,0.7221032 0.241477,2.152231 -0.01377,3.2141561 -0.27476,1.1431143 -0.591187,1.6202112 -1.403311,2.1158576 -0.361654,0.2207202 -1.859169,0.7704012 -2.031854,0.7458166 -0.05047,-0.00718 -0.09615,0.017817 -0.101521,0.055559 -0.02171,0.1524718 1.215428,0.098695 1.95077,-0.084796 0.215501,-0.053776 0.403703,-0.081943 0.418228,-0.062596 0.04997,0.066559 -1.04053,1.573983 -1.405692,1.9431219 -0.487473,0.4927865 -0.91348,0.6663915 -2.321273,0.9459565 -0.625068,0.124129 -1.182122,0.243955 -1.237897,0.266281 -0.1738,0.06957 0.940398,0.199834 1.491883,0.174418 0.446881,-0.02059 0.912046,-0.0878 1.336889,-0.193132 0.213392,-0.05291 -1.663268,2.135836 -2.14338,2.499821 -0.276402,0.209548 -0.444775,0.243105 -1.676506,0.334137 -1.174779,0.08683 -2.391906,0.268438 -2.816591,0.420278 -0.233401,0.08345 -0.250862,0.101521 -0.132942,0.13757 0.201778,0.06168 2.754432,0.169439 3.345879,0.141233 0.281776,-0.01344 0.535849,-0.02109 0.564607,-0.01699 0.02876,0.0041 -0.379102,0.354838 -0.906356,0.779444 -1.615306,1.300834 -1.778001,1.411606 -2.171776,1.478664 -0.368388,0.06274 -1.246679,0.120878 -2.065819,0.136756 -0.414167,0.008 -0.45935,0.02043 -0.331723,0.09098 0.08126,0.04493 0.510393,0.154187 0.953619,0.242789 l 0.805865,0.161089 -0.44209,0.137366 c -0.540883,0.168064 -1.396273,0.227172 -2.70142,0.186673 -0.8683081,-0.02694 -0.9990343,-0.01635 -1.0701975,0.08671 -0.044588,0.06457 -0.6391487,0.865093 -1.3212492,1.778935 l -1.2401846,1.661532 0.2241651,0.254847 c 0.2414545,0.274501 0.2649699,0.486584 0.070165,0.632831 -0.1582618,0.118816 -0.3914127,0.06866 -0.5946129,-0.127914 -0.1161646,-0.112387 -0.185985,-0.144958 -0.2104024,-0.09816 -0.072705,0.139357 -0.8095245,0.837209 -1.1744314,1.112323 -0.4134652,0.311722 -0.6076166,0.33482 -0.682237,0.08117 z m 4.4395635,-5.315959 c 0.045869,-0.05482 0.485508,-0.644922 0.9769756,-1.311308 C 13.580899,10.854863 16.1056,7.8970609 19.817718,4.2509874 c 0.29385,-0.2886223 0.02611,-0.1174823 -0.681382,0.4355296 -2.764615,2.1609881 -6.009397,5.524448 -8.649956,8.966334 -1.0297566,1.342256 -2.4179176,3.328796 -2.350625,3.36388 0.02922,0.01524 0.1560529,0.110873 0.2818393,0.212525 0.2837383,0.2293 0.2733787,0.226366 0.3740922,0.105973 z"
     id="path2" /></svg>
