<?xml version="1.0" encoding="UTF-8" standalone="no"?>
<svg
   viewBox="0 0 24 24"
   aria-hidden="true"
   version="1.1"
   id="svg3"
   sodipodi:docname="TypeChat.svg"
   xml:space="preserve"
   inkscape:version="1.4.2 (f4327f4, 2025-05-13)"
   xmlns:inkscape="http://www.inkscape.org/namespaces/inkscape"
   xmlns:sodipodi="http://sodipodi.sourceforge.net/DTD/sodipodi-0.dtd"
   xmlns="http://www.w3.org/2000/svg"
   xmlns:svg="http://www.w3.org/2000/svg"><defs
     id="defs3" /><sodipodi:namedview
     id="namedview3"
     pagecolor="#ffffff"
     bordercolor="#000000"
     borderopacity="0.25"
     inkscape:showpageshadow="2"
     inkscape:pageopacity="0.0"
     inkscape:pagecheckerboard="0"
     inkscape:deskcolor="#d1d1d1"
     inkscape:zoom="8.5957668"
     inkscape:cx="-1.3378678"
     inkscape:cy="33.388528"
     inkscape:window-width="1278"
     inkscape:window-height="1360"
     inkscape:window-x="-7"
     inkscape:window-y="0"
     inkscape:window-maximized="0"
     inkscape:current-layer="svg3" /><path
     style="fill:#000000;stroke-width:0.0461326"
     d="M 19.46635,22.878655 C 19.4004,22.842805 18.891784,22.446536 18.3361,21.998059 17.780416,21.549584 16.981179,20.904392 16.560018,20.564301 l -0.765748,-0.618349 -2.625002,6.09e-4 c -3.077877,7.08e-4 -4.0022954,-0.03731 -4.4703068,-0.183895 -1.3343541,-0.417927 -2.3304475,-1.478502 -2.6532676,-2.825023 -0.069869,-0.291438 -0.091054,-0.54271 -0.091302,-1.083006 -1.891e-4,-0.413223 -0.018406,-0.703523 -0.044141,-0.703523 -0.024099,0 -0.3698361,0.250119 -0.7683066,0.555819 -0.3984698,0.3057 -0.8172444,0.610175 -0.9306103,0.676612 -0.4904394,0.287416 -1.0915643,0.02081 -1.1514726,-0.510699 -0.014964,-0.132788 0.058481,-0.540069 0.2368048,-1.313074 0.142176,-0.616317 0.258502,-1.129479 0.258502,-1.14036 0,-0.01088 -0.1089886,-0.07451 -0.2421969,-0.141403 C 2.3631468,12.801046 1.659368,11.931553 1.3564363,10.86078 1.2782492,10.584414 1.2716022,10.33861 1.2716022,7.7237603 c 0,-3.1077334 -0.00701,-3.0162566 0.2854567,-3.7111888 C 1.98951,2.9851136 2.92554,2.1959653 4.0541654,1.907312 4.3856401,1.822535 4.6254022,1.818795 9.7097231,1.819105 c 5.1247299,3.229e-4 5.3226069,0.00347 5.6888899,0.091302 1.182738,0.2835538 2.158559,1.1320863 2.58927,2.2515188 0.21315,0.5539835 0.237467,0.7889655 0.237467,2.2947254 v 1.3916382 l 0.472859,0.030459 c 0.529992,0.034141 1.10963,0.1641238 1.498189,0.3359632 0.860593,0.3805947 1.610506,1.1306656 1.958496,1.9589074 0.294174,0.700156 0.291709,0.668675 0.290414,3.708848 -0.0011,2.716101 -0.0031,2.774768 -0.103423,3.131399 -0.199368,0.708678 -0.633778,1.415931 -1.160386,1.889196 -0.246949,0.221934 -0.792953,0.579431 -1.065114,0.697385 -0.113956,0.04939 -0.213898,0.09415 -0.222092,0.09948 -0.0082,0.0053 0.111174,0.538276 0.265263,1.18434 0.154088,0.646064 0.280161,1.267731 0.280161,1.38148 0,0.490041 -0.555697,0.839952 -0.97337,0.612912 z M 18.868704,20.27184 c -0.291657,-1.189018 -0.303002,-1.264089 -0.212023,-1.402941 0.04251,-0.06488 0.134125,-0.129175 0.203579,-0.142869 0.758843,-0.149613 1.282983,-0.418613 1.714522,-0.87993 0.33661,-0.359837 0.498321,-0.629039 0.617852,-1.028542 0.08473,-0.2832 0.09296,-0.482532 0.112618,-2.727493 0.01543,-1.762739 0.0059,-2.525866 -0.03498,-2.803695 -0.18642,-1.266505 -1.27159,-2.1908853 -2.581472,-2.1989762 l -0.440377,-0.00269 -0.02928,0.8073209 c -0.02255,0.6215953 -0.05138,0.8803403 -0.125325,1.1247183 -0.323401,1.068797 -1.056368,1.918594 -2.059853,2.388181 -0.646218,0.302402 -0.420469,0.286792 -4.543969,0.314193 l -3.7598105,0.02498 -0.3113958,0.250474 -0.3113951,0.250474 v 1.10378 c 0,1.199828 0.033568,1.439154 0.2695021,1.921269 0.1944862,0.397425 0.7248657,0.927021 1.1489914,1.147295 0.6379104,0.331306 0.6482852,0.3321 4.3396509,0.3321 h 3.27087 l 0.871479,0.701676 c 0.479314,0.385922 1.130976,0.913867 1.448138,1.17321 0.317162,0.259343 0.581775,0.457392 0.58803,0.440106 0.0062,-0.01729 -0.07265,-0.373962 -0.175342,-0.792615 z M 5.7234053,13.813856 C 6.268924,13.392603 6.8737016,12.929504 7.0673564,12.784748 l 0.3520998,-0.263192 3.7537068,-5.48e-4 c 3.145165,-4.57e-4 3.794783,-0.01148 4.007087,-0.06797 0.905838,-0.241049 1.657641,-1.019287 1.84118,-1.90592 C 17.05467,10.386542 17.0718,9.4208666 17.07136,7.7330263 17.070797,5.6041784 17.05873,5.1127029 17.00101,4.8678333 16.789988,3.9726118 16.012852,3.2392801 15.06527,3.0412048 14.581018,2.9399814 4.8263541,2.9402363 4.3969306,3.0414817 3.4989949,3.2531936 2.7290751,3.9792177 2.4891756,4.8404698 2.4376273,5.0255429 2.4249226,5.6045379 2.4249226,7.7698931 v 2.6987599 l 0.1216961,0.332894 c 0.1610723,0.440602 0.478972,0.876625 0.8333754,1.143034 0.3708324,0.27876 0.5502401,0.36839 0.9662486,0.482726 0.3686067,0.101307 0.5006436,0.210748 0.5006436,0.414967 0,0.06928 -0.093406,0.508125 -0.2075684,0.975208 -0.1141632,0.467083 -0.2163384,0.886797 -0.2270567,0.932699 -0.022917,0.09815 -0.097002,0.151057 1.3111455,-0.936325 z M 7.5917771,9.0183202 C 7.2135994,8.9258442 6.9871836,8.7331568 6.3000633,7.9190233 6.1478256,7.7386454 6.0128879,7.590098 6.0002009,7.5889189 5.9522856,7.5844574 5.8708494,7.6681138 5.4559399,8.1479659 4.9157935,8.7726575 4.8415736,8.8309434 4.586257,8.8309434 4.4226063,8.8309434 4.3531029,8.8024393 4.2205702,8.6809846 3.983441,8.4636724 3.9611929,8.2324898 4.1506447,7.954423 4.3797197,7.6182063 5.1322806,6.7925971 5.3477353,6.6411355 5.5299502,6.5130403 5.5784887,6.5012456 5.9233948,6.5012456 c 0.569021,0 0.7042341,0.083551 1.3527148,0.8358837 0.2926468,0.3395116 0.5461072,0.6172937 0.5632451,0.6172937 0.017138,0 0.2175603,-0.220511 0.4453819,-0.4900242 0.728208,-0.8614709 0.9761872,-1.0218173 1.5115959,-0.9774174 0.4378815,0.036315 0.6300635,0.170035 1.2170935,0.846869 0.293578,0.338489 0.557944,0.6041493 0.589252,0.592135 0.03123,-0.011982 0.230238,-0.2294992 0.442237,-0.4833659 0.692279,-0.8289953 0.954538,-0.9993411 1.467007,-0.9528726 0.462896,0.041974 0.590526,0.1372399 1.376647,1.0275591 0.362741,0.410821 0.522258,0.6477646 0.522517,0.7761402 6.23e-4,0.3085695 -0.370265,0.6196041 -0.671461,0.5630993 C 14.558724,8.8226096 14.461528,8.7334613 13.89306,8.0800892 13.389754,7.5016128 13.504161,7.4864883 12.890766,8.21259 12.43715,8.7495554 12.183565,8.9402932 11.819481,9.0183748 11.338318,9.1215662 10.946902,8.9446874 10.467777,8.4075479 10.281488,8.1987026 10.033844,7.9252631 9.9174558,7.7999057 L 9.7058416,7.5719814 9.2353309,8.1207301 c -0.5117577,0.596856 -0.6966637,0.7517416 -1.0339108,0.8660543 -0.2333616,0.0791 -0.3833943,0.086861 -0.6096458,0.031535 z"
     id="path3" /></svg>
