<?xml version="1.0" encoding="UTF-8" standalone="no"?>
<svg
   viewBox="0 0 24 24"
   aria-hidden="true"
   version="1.1"
   id="svg3"
   sodipodi:docname="TypeMafia.svg"
   xml:space="preserve"
   inkscape:version="1.4.2 (f4327f4, 2025-05-13)"
   xmlns:inkscape="http://www.inkscape.org/namespaces/inkscape"
   xmlns:sodipodi="http://sodipodi.sourceforge.net/DTD/sodipodi-0.dtd"
   xmlns="http://www.w3.org/2000/svg"
   xmlns:svg="http://www.w3.org/2000/svg"><defs
     id="defs3" /><sodipodi:namedview
     id="namedview3"
     pagecolor="#ffffff"
     bordercolor="#000000"
     borderopacity="0.25"
     inkscape:showpageshadow="2"
     inkscape:pageopacity="0.0"
     inkscape:pagecheckerboard="0"
     inkscape:deskcolor="#d1d1d1"
     inkscape:zoom="6.078125"
     inkscape:cx="-16.699229"
     inkscape:cy="56.267352"
     inkscape:window-width="1278"
     inkscape:window-height="1360"
     inkscape:window-x="-7"
     inkscape:window-y="0"
     inkscape:window-maximized="0"
     inkscape:current-layer="svg3" /><path
     style="fill:#000000;stroke-width:0.0447991"
     d="m 11.925509,22.946325 v -0.177592 l -0.36959,-0.05571 C 9.7395678,22.439242 8.1177447,21.039919 7.0165747,18.796436 6.2548222,17.244466 5.8735082,15.574791 5.5860742,12.53262 L 5.5579419,12.23497 5.1242126,12.158343 C 4.0350561,11.965924 2.7651422,11.585306 2.0415784,11.234422 1.176807,10.81506 0.86620583,10.382073 1.1253242,9.9571343 1.4358833,9.4478268 2.8091562,8.9820816 4.8455201,8.6954352 L 5.3969843,8.6178056 5.5698446,7.5947245 C 5.9122932,5.5679653 6.2260325,4.4452182 6.7303599,3.4416814 7.0078751,2.8894757 7.2357233,2.5713178 7.6455593,2.1637445 8.1443399,1.6677153 8.5588863,1.4580921 9.0852642,1.4357353 c 0.480889,-0.020411 0.7137589,0.050783 1.3789638,0.4216737 0.759653,0.4235544 1.043278,0.5233281 1.483673,0.5219216 0.457596,-0.00152 0.732512,-0.097354 1.433566,-0.5000503 0.295671,-0.1698406 0.668621,-0.3528377 0.828776,-0.4066635 1.495419,-0.50256921 3.02827,1.1815152 3.723713,4.091098 0.07777,0.3253357 0.234357,1.144985 0.347983,1.8214396 l 0.2066,1.2299172 0.671982,0.099015 c 1.159827,0.1709076 2.220037,0.4333923 2.785931,0.68974 1.722805,0.7804254 0.826805,1.7861794 -2.293144,2.5740364 l -0.76158,0.192317 -0.01061,0.240446 c -0.05216,1.182929 -0.368315,3.249517 -0.681002,4.451546 -0.626864,2.409751 -1.91915,4.41028 -3.537279,5.4759 -0.770941,0.507706 -1.394767,0.722416 -2.210956,0.760975 l -0.526386,0.02488 z m 0.716784,-0.418911 c 0.895346,-0.141261 1.765246,-0.628647 2.612734,-1.463865 1.242259,-1.224272 2.112711,-2.990318 2.55655,-5.186951 0.194005,-0.960173 0.475106,-3.008952 0.475308,-3.464274 4.7e-5,-0.139196 -0.0082,-0.14741 -0.123133,-0.123011 -0.982908,0.208557 -3.39809,0.440133 -5.21907,0.500422 l -0.929575,0.03077 v 2.56962 2.569619 l 0.100796,0.0023 0.100796,0.0023 -0.100796,0.07032 c -0.09532,0.06649 -0.100796,0.10047 -0.100796,0.624837 v 0.554522 h 0.265864 c 0.394131,0 1.346896,0.217295 1.346896,0.307184 0,0.06613 -0.394022,0.282427 -0.669829,0.367703 -0.158971,0.04915 -0.436165,0.101802 -0.615985,0.117002 l -0.326946,0.02764 v 1.270197 1.270197 l 0.167994,-3.6e-4 c 0.09239,-1.79e-4 0.299032,-0.02102 0.459191,-0.04628 z m -0.313595,-4.609212 c 0,-0.126247 0.498645,-0.358568 0.647237,-0.301546 0.12486,0.04791 0.137744,0.171003 0.02726,0.260471 -0.07537,0.06103 -0.176839,0.08262 -0.388263,0.08262 -0.157425,0 -0.286229,-0.01869 -0.286229,-0.04155 z m 1.724758,-3.034339 c -0.388641,-0.08311 -0.963177,-0.317818 -0.963177,-0.393488 0,-0.08844 0.238562,-0.39527 0.444119,-0.571221 0.758236,-0.649018 1.885841,-0.750795 2.87976,-0.259927 0.40658,0.200803 0.426899,0.228209 0.298485,0.402583 -0.137722,0.187002 -0.583747,0.523576 -0.867229,0.654414 -0.528534,0.243932 -1.15922,0.302934 -1.791958,0.167639 z m -4.3093134,0.0054 c 0.2654714,-0.0284 0.7275534,-0.169707 1.0259464,-0.313754 l 0.166148,-0.0802 -0.07656,-0.131427 C 10.73667,14.152735 10.251349,13.724192 9.990839,13.596738 9.2652534,13.24174 8.3125148,13.29614 7.5576124,13.73567 c -0.1478393,0.08607 -0.2775648,0.164884 -0.2882826,0.175135 -0.03635,0.03475 0.3317309,0.383187 0.5960587,0.564269 0.4516672,0.309425 1.0769719,0.501931 1.4841781,0.45692 0.073918,-0.0082 0.2514738,-0.02737 0.3945692,-0.04269 z"
     id="path3" /></svg>
