<?xml version="1.0" encoding="UTF-8" standalone="no"?>
<svg
   viewBox="0 0 24 24"
   aria-hidden="true"
   version="1.1"
   id="svg5"
   sodipodi:docname="TypeDiplomacy.svg"
   xml:space="preserve"
   inkscape:version="1.4.2 (f4327f4, 2025-05-13)"
   xmlns:inkscape="http://www.inkscape.org/namespaces/inkscape"
   xmlns:sodipodi="http://sodipodi.sourceforge.net/DTD/sodipodi-0.dtd"
   xmlns="http://www.w3.org/2000/svg"
   xmlns:svg="http://www.w3.org/2000/svg"><defs
     id="defs5" /><sodipodi:namedview
     id="namedview5"
     pagecolor="#ffffff"
     bordercolor="#000000"
     borderopacity="0.25"
     inkscape:showpageshadow="2"
     inkscape:pageopacity="0.0"
     inkscape:pagecheckerboard="0"
     inkscape:deskcolor="#d1d1d1"
     inkscape:zoom="17.191534"
     inkscape:cx="20.998708"
     inkscape:cy="20.446111"
     inkscape:window-width="2560"
     inkscape:window-height="1369"
     inkscape:window-x="-8"
     inkscape:window-y="-8"
     inkscape:window-maximized="1"
     inkscape:current-layer="svg5" /><path
     style="fill:#000000;stroke-width:0.0516867"
     d="m 17.507561,23.441108 c -0.351171,-0.126145 -0.723028,-0.391477 -0.912259,-0.650944 -0.0863,-0.118349 -0.256168,-0.426734 -0.37747,-0.68532 -0.178033,-0.379532 -0.283672,-0.528971 -0.548054,-0.775301 -0.803144,-0.748316 -0.939998,-0.991293 -0.943345,-1.674847 -0.0022,-0.449608 0.09906,-0.724456 0.398005,-1.080147 0.306331,-0.364503 0.437369,-0.629755 0.527527,-1.067843 0.04647,-0.22577 0.129303,-0.498778 0.184045,-0.606663 0.151005,-0.297465 0.446598,-0.597621 0.737902,-0.749271 0.278874,-0.145173 0.503429,-0.160864 1.579726,-0.110373 0.373059,0.01757 0.512755,-0.0016 0.925968,-0.127138 0.392796,-0.119266 0.552417,-0.143058 0.827822,-0.123342 0.640042,0.0458 1.087274,0.344654 1.428627,0.954669 0.111341,0.198949 0.299842,0.424167 0.497535,0.5944 0.560176,0.482355 0.700126,0.646105 0.817122,0.956076 0.168252,0.44579 0.12864,0.891442 -0.130092,1.463358 l -0.198591,0.438977 -0.0038,0.723617 c -0.0043,0.832181 -0.06754,1.028367 -0.457435,1.421159 -0.358216,0.360865 -0.671538,0.475269 -1.424365,0.520081 l -0.644255,0.03836 -0.589517,0.298869 c -0.55337,0.280544 -0.615485,0.299958 -1.013095,0.316663 -0.31318,0.01325 -0.490938,-0.0064 -0.682015,-0.07505 z m 2.168249,-1.163015 c 0.971808,-0.298535 1.727872,-1.142596 1.949607,-2.176522 0.07994,-0.372669 0.02652,-1.133933 -0.105539,-1.504435 -0.395195,-1.108803 -1.506381,-1.887064 -2.694316,-1.887064 -0.782049,0 -1.483649,0.291403 -2.041477,0.847907 -0.628415,0.626927 -0.883029,1.278492 -0.839533,2.148402 0.0158,0.315021 0.06403,0.601461 0.134678,0.799125 0.356464,0.997212 1.284224,1.746843 2.332829,1.884928 0.438437,0.05772 0.820723,0.02369 1.263727,-0.112343 z m -1.341258,-0.303308 c -0.74298,-0.149248 -1.451038,-0.70161 -1.776036,-1.385523 -0.168353,-0.354281 -0.188096,-0.442215 -0.205749,-0.917018 -0.0214,-0.573766 0.04661,-0.881446 0.287903,-1.303239 0.304944,-0.533089 0.856273,-0.963369 1.475322,-1.151398 0.282751,-0.08589 0.451844,-0.103348 0.837446,-0.08649 0.441581,0.01936 0.520531,0.03965 0.917435,0.236317 0.995054,0.493069 1.479039,1.363422 1.377413,2.477021 -0.08057,0.882951 -0.760889,1.736642 -1.619298,2.031978 -0.357589,0.123037 -0.948152,0.167893 -1.294434,0.09833 z M 2.8822526,23.111291 C 2.83541,22.90534 2.7653511,22.514349 2.7265656,22.242424 2.555333,21.041893 2.5721146,20.424691 2.8531412,17.587222 3.0742686,15.354536 3.1311217,14.229177 3.0946772,12.806191 3.0418135,10.742069 2.9201355,9.6193028 2.4387652,6.7538458 1.9619316,3.9153923 1.8680047,2.9356297 1.9709908,1.8744253 2.0256978,1.3107016 2.1511922,0.59625007 2.2049449,0.54249718 c 0.013628,-0.0136282 0.2758138,0.00142 0.5826113,0.0334672 0.7337079,0.076637 2.7533769,0.28362893 4.1758914,0.42798012 0.9246775,0.093833 1.4654131,0.1159163 2.8944624,0.1182066 1.896504,0.00303 1.890236,0.00354 4.367537,-0.34587009 1.354928,-0.19110362 1.637025,-0.21532371 2.532655,-0.21746347 1.180368,-0.002829 1.435942,0.0468966 2.248378,0.43733873 1.061682,0.51022773 1.778167,1.38996903 2.047059,2.51350033 0.140739,0.5880696 0.116565,1.2081905 -0.101485,2.6030893 -0.540302,3.4564142 -0.638273,5.8861601 -0.344717,8.5492831 0.03791,0.34382 0.0611,0.633261 0.05156,0.643202 -0.0094,0.0099 -0.0945,-0.0056 -0.188809,-0.03442 -0.09431,-0.02886 -0.254504,-0.06635 -0.356049,-0.0833 l -0.184605,-0.03079 -0.06182,-0.606708 C 19.581153,11.739097 19.699061,9.2901526 20.300181,5.5655775 20.49784,4.3408785 20.466523,3.7396056 20.171187,3.0890607 19.836227,2.3512312 19.138102,1.7459447 18.267975,1.4389463 17.60497,1.205025 16.624008,1.1868948 15.2075,1.3823817 11.743077,1.8604944 11.974986,1.8397662 10.038818,1.8443528 8.9285309,1.8469834 8.0118138,1.8235928 7.6095361,1.78237 4.7362553,1.4879356 2.7888403,1.3024563 2.7698739,1.3214235 2.700887,1.3904103 2.6404717,2.3978751 2.6700738,2.9856872 2.7132994,3.844 2.7929802,4.4512928 3.1380085,6.5520782 c 0.4420019,2.6912262 0.5529343,3.5735808 0.6465738,5.1428388 0.1117568,1.872871 0.062491,3.289496 -0.2076128,5.969827 -0.235519,2.337128 -0.2745419,3.063069 -0.2072639,3.855652 0.031974,0.376687 0.082446,0.798246 0.1121622,0.936798 l 0.054026,0.251906 0.21486,-0.02753 c 0.1181735,-0.01503 0.4241935,-0.05089 0.6800432,-0.07945 0.2558498,-0.02855 1.0582879,-0.120463 1.7831966,-0.204271 2.5724644,-0.297406 3.0437825,-0.330552 4.7035014,-0.330761 1.571436,-2.06e-4 2.321617,0.04763 4.031573,0.257021 l 0.697773,0.08544 0.188502,0.382288 0.188502,0.382292 -0.214358,-0.02879 C 14.627474,22.986589 12.870122,22.83401 11.615256,22.781192 10.48895,22.733782 8.5295313,22.853962 6.5499488,23.091868 6.2088148,23.132848 5.3831168,23.22494 4.7150643,23.29647 4.0470122,23.368 3.3804965,23.439859 3.233919,23.456136 l -0.2665046,0.02959 z m 3.7120862,-2.190659 c -0.046158,-0.120285 0.01936,-0.391645 0.2983464,-1.234703 0.5433007,-1.642105 1.2687282,-3.280652 1.777836,-4.015673 0.1656278,-0.239118 0.7609557,-1.089529 1.322936,-1.889768 1.4643148,-2.085134 3.0512538,-4.3493102 3.2277308,-4.6051867 0.09004,-0.1305612 0.183638,-0.2122543 0.230865,-0.2015426 0.06861,0.015564 2.115511,1.3715763 2.240267,1.4841103 0.04084,0.03683 -0.530831,0.85545 -2.45203,3.511273 -0.792391,1.095389 -1.577432,2.184029 -2.348156,3.256273 -0.768785,1.069543 -0.848587,1.163765 -1.4625096,1.726774 -0.8229572,0.754711 -2.0688307,1.702298 -2.5799153,1.962232 -0.203048,0.103267 -0.2180009,0.103628 -0.2553805,0.0061 z m 3.037646,-3.010366 c 0.071139,-0.07819 0.335112,-0.43288 0.5865652,-0.788226 0.251447,-0.355347 0.542947,-0.762381 0.647764,-0.90452 0.84796,-1.149879 1.446721,-2.020655 1.446721,-2.10396 0,-0.296256 -0.299842,-0.406168 -0.499718,-0.18318 -0.05734,0.06397 -0.360018,0.476814 -0.672629,0.917443 -0.312609,0.440627 -0.893529,1.254698 -1.2909342,1.809039 -0.3974022,0.55434 -0.7404032,1.037987 -0.7622236,1.074774 -0.022416,0.03758 -0.00331,0.122501 0.043509,0.193826 0.1149109,0.175385 0.3335152,0.168761 0.5009537,-0.01529 z m -4.128921,-3.142074 c -0.1459827,-0.102254 -0.1579322,-0.383328 -0.021551,-0.50676 0.08364,-0.07567 0.2774831,-0.08555 1.6836551,-0.08555 h 1.5891347 l -0.2253118,0.323044 -0.2253118,0.323041 -1.34228,0.01376 c -1.1522667,0.01172 -1.3587125,0.0022 -1.4583463,-0.06754 z m 8.3238082,-0.243424 0.231248,-0.323043 1.952507,-0.0135 c 1.684049,-0.01172 1.969157,-0.0025 2.07361,0.06579 0.152942,0.100213 0.161832,0.346352 0.01783,0.490462 -0.100133,0.100132 -0.172302,0.103371 -2.304848,0.103371 h -2.201582 z m -8.270344,-1.74546 c -0.2272401,-0.09145 -0.2187243,-0.504957 0.012558,-0.610341 0.095044,-0.04331 0.7724931,-0.06055 2.3788323,-0.06055 1.2352691,0 2.2459457,0.01142 2.2459457,0.02548 0,0.014 -0.108894,0.17681 -0.2419719,0.361806 l -0.241971,0.336355 -2.0193295,-0.0033 C 6.579958,12.827007 5.6196238,12.804812 5.556512,12.779306 Z m 9.547596,0.02063 c 0,-0.01783 0.105842,-0.18053 0.235196,-0.361811 l 0.235197,-0.329605 h 1.163738 c 1.351926,0 1.464316,0.02843 1.466275,0.370978 5.17e-4,0.08857 -0.04825,0.176964 -0.13539,0.245513 -0.130246,0.10245 -0.197929,0.107111 -1.550608,0.107111 -0.777927,0 -1.414414,-0.01452 -1.414414,-0.0322 z m 2.286109,-1.933897 C 17.325702,10.840021 16.86052,10.546562 16.356497,10.213812 15.852472,9.88106 14.823722,9.2036307 14.070388,8.7084128 13.317052,8.2131948 12.626373,7.758448 12.535544,7.6978648 c -0.1939,-0.1293327 -0.274197,-0.2827855 -0.274197,-0.524006 0,-0.3515136 0.434884,-0.6452932 0.745639,-0.5037043 0.120463,0.054885 4.489978,2.9297034 4.862382,3.1990855 0.384221,0.27793 0.356908,0.775495 -0.05323,0.970126 -0.18998,0.09015 -0.25717,0.09435 -0.425886,0.02657 z M 5.4903729,10.764559 c -0.1293358,-0.129335 -0.1335109,-0.3702 -0.00839,-0.483441 0.086625,-0.0784 0.355462,-0.08479 3.0510595,-0.07261 l 2.9560656,0.01334 -0.221211,0.322869 -0.221211,0.322871 -2.7264784,1.75e-4 c -2.6576744,1.7e-4 -2.7290783,-0.0024 -2.829844,-0.103201 z m 0,-2.0157855 C 5.3499038,8.6083043 5.3556818,8.3630761 5.5018739,8.2606794 5.6027342,8.1900346 5.9937103,8.1802182 8.7067419,8.1802182 h 3.0899941 l 0.361523,0.2953459 c 0.198846,0.1624411 0.361523,0.3136243 0.361523,0.3359645 0,0.02234 -1.558358,0.040616 -3.4630184,0.040616 -3.3941015,0 -3.465074,-0.00207 -3.5663907,-0.1033711 z M 15.6856,7.7781394 C 15.280505,7.5019056 14.949064,7.2509068 14.949064,7.2203643 c 0,-0.04644 0.96815,-1.4546279 1.534777,-2.2323528 0.15824,-0.2171935 0.159438,-0.2235083 0.08813,-0.4604744 -0.03976,-0.132143 -0.07229,-0.3819325 -0.07226,-0.5550879 7.9e-5,-0.5898839 0.396865,-1.1774076 0.975682,-1.4446971 0.367987,-0.1699303 1.018693,-0.1535356 1.410213,0.03553 0.336185,0.1623443 0.626721,0.4596454 0.785446,0.8037354 0.08654,0.1875935 0.110269,0.338847 0.110478,0.7040986 2.06e-4,0.4043633 -0.0186,0.5034334 -0.143415,0.7577568 -0.225081,0.4583553 -0.696418,0.8250711 -1.156671,0.8999416 -0.171461,0.027891 -0.228164,0.075724 -0.415268,0.3502554 -0.392265,0.575555 -1.568024,2.1784452 -1.606413,2.1899964 -0.02063,0.00621 -0.369056,-0.2146921 -0.774151,-0.4909263 z M 18.561786,4.3794379 C 18.742264,4.173901 18.763687,4.0022438 18.635915,3.7859417 18.450569,3.4721971 18.04594,3.4214044 17.787855,3.6794886 c -0.339915,0.3399179 -0.104852,0.8826517 0.382297,0.8826517 0.199966,0 0.2529,-0.024683 0.391626,-0.1827024 z M 5.5237209,6.7813424 C 5.3609788,6.6533298 5.3414163,6.4284534 5.4819569,6.3012657 5.5686898,6.2227738 5.855469,6.2164831 8.7930176,6.228646 L 12.009121,6.241968 11.838043,6.4496343 C 11.743951,6.5638498 11.64116,6.7034052 11.609649,6.7597555 11.553689,6.8597863 11.48264,6.8625256 8.6063947,6.8755519 5.690528,6.8887471 5.6590596,6.8878048 5.5237336,6.781349 Z M 5.5018647,4.7918005 C 5.4212312,4.7353239 5.3869901,4.6586462 5.3869901,4.534558 c 0,-0.3562394 -0.3378823,-0.3361967 5.4208189,-0.3215533 l 5.17977,0.01317 -0.240062,0.3230427 -0.240061,0.3230427 h -4.945357 c -4.3922838,0 -4.9582077,-0.009 -5.0602343,-0.08046 z"
     id="path5" /></svg>
