<?xml version="1.0" encoding="UTF-8" standalone="no"?>
<svg
   viewBox="0 0 24 24"
   aria-hidden="true"
   version="1.1"
   id="svg2"
   xml:space="preserve"
   xmlns="http://www.w3.org/2000/svg"
   xmlns:svg="http://www.w3.org/2000/svg"><defs
     id="defs2" /><rect
     x="10.8"
     y="10.8"
     width="2.4"
     height="2.4"
     fill="#ffffff"
     id="rect2" /><path
     style="fill:#000000;stroke-width:0.0471976"
     d="M 10.865442,23.794363 C 8.0967542,23.497811 5.47266,22.168231 3.6425755,20.134668 2.039386,18.353227 1.0709593,16.189645 0.78498699,13.750471 0.69180679,12.955699 0.71594309,11.567235 0.83627309,10.800619 1.2050983,8.4507965 2.2728006,6.3086328 3.92543,4.602748 4.8709886,3.6267191 5.7728655,2.9673895 6.9959729,2.3579831 8.0333858,1.8410983 9.096955,1.5030086 10.379363,1.2824626 c 0.588628,-0.1012314 2.519226,-0.1166906 3.152743,-0.025246 2.015585,0.2909384 3.802852,1.0345102 5.447045,2.2661794 0.464977,0.3483146 1.442636,1.2978841 1.831316,1.7786995 2.807053,3.4724524 3.348728,8.2583122 1.383562,12.2241842 -0.569397,1.149093 -1.206184,2.056061 -2.043209,2.910117 -1.752032,1.787681 -4.000161,2.929602 -6.486095,3.294564 -0.512556,0.07525 -0.863522,0.09413 -1.642942,0.08839 -0.545133,-0.0041 -1.065486,-0.01526 -1.156342,-0.025 z m 2.302745,-1.292439 c 3.857674,-0.428452 7.14533,-3.056791 8.409505,-6.723037 0.206808,-0.599766 0.384565,-1.405355 0.476511,-2.15954 0.0908,-0.744784 0.03494,-2.181659 -0.115498,-2.970808 C 21.490765,8.2987553 20.202043,6.1631815 18.335832,4.6781269 16.691647,3.3697524 14.874212,2.6629586 12.720789,2.4944583 11.005339,2.3602284 9.049729,2.7513692 7.5144109,3.5357841 4.7289076,4.9589351 2.768021,7.5484741 2.1561906,10.611828 c -0.104445,0.522944 -0.131644,0.811364 -0.1517219,1.608871 -0.035238,1.399684 0.085675,2.270385 0.4812298,3.465361 0.8722994,2.63523 2.705669,4.695407 5.2651463,5.916502 0.9665044,0.461107 2.0638502,0.774183 3.1381962,0.895339 0.543018,0.06124 1.744911,0.06336 2.279146,0.0041 z m -1.80717,-0.637907 C 9.279432,21.653431 7.676512,21.024901 6.1470981,19.819559 4.2134463,18.295635 3.0128223,16.104106 2.6971467,13.522276 2.6257821,12.938603 2.664504,11.594604 2.769441,11.013009 2.8762799,10.420874 3.1008141,9.5897054 3.2668465,9.1717435 4.6735461,5.6305825 7.8974752,3.327461 11.667802,3.17024 c 2.332556,-0.097267 4.618562,0.6695604 6.371679,2.1373441 2.803982,2.3476106 3.984613,5.9444629 3.116179,9.4936019 -0.889634,3.635783 -3.937374,6.406377 -7.67075,6.973206 -0.469985,0.07136 -1.764501,0.125984 -2.123893,0.08963 z m 1.507827,-0.681797 c 1.668571,-0.158226 3.264536,-0.791361 4.580667,-1.817193 0.408124,-0.318104 1.116265,-1.01906 1.454698,-1.439939 1.324965,-1.647738 2.010919,-3.902639 1.833369,-6.026737 C 20.637376,10.699598 20.377029,9.7198211 19.897553,8.7370382 18.860632,6.6116673 17.064186,5.030507 14.842339,4.2876414 13.022173,3.679076 11.108893,3.6785627 9.258606,4.2861419 6.3655688,5.2361321 4.1235594,7.7490009 3.5091761,10.730168 c -0.727692,3.530974 0.6823478,7.030451 3.6276538,9.003218 1.6841353,1.128034 3.7113891,1.640446 5.7320141,1.448836 z M 11.703863,19.909962 C 11.376283,19.811322 11.114535,19.564476 10.85287,19.1074 10.577187,18.62584 10.199523,17.312648 9.924224,15.87837 9.844924,15.465236 9.774702,15.12294 9.768172,15.117713 c -0.0065,-0.0052 -0.506356,0.357208 -1.1107234,0.805413 -0.6043673,0.448203 -1.1521195,0.828286 -1.2172274,0.844627 -0.07343,0.01843 -0.199004,-0.006 -0.3307188,-0.06422 -0.2754694,-0.121853 -0.4184947,-0.409585 -0.387769,-0.780096 0.017072,-0.205858 0.086705,-0.353734 0.4467922,-0.948829 0.863415,-1.426916 1.6143847,-2.654885 1.9666324,-3.215796 0.320642,-0.510581 0.361553,-0.601406 0.361553,-0.802649 0,-0.124806 0.03208,-0.502897 0.07128,-0.840201 0.293543,-2.5255002 1.001833,-4.3710623 1.86382,-4.856476 0.226197,-0.1273794 0.305118,-0.1461816 0.613569,-0.1461754 0.304751,6.1e-6 0.38942,0.019626 0.608787,0.1411133 0.920721,0.5098795 1.686453,2.6346603 1.896693,5.2630071 0.03874,0.484294 0.07873,0.72576 0.136815,0.825959 0.04514,0.07788 0.236657,0.38584 0.42559,0.684365 0.590903,0.933657 2.130698,3.497479 2.199656,3.662518 0.160606,0.384383 0.0088,0.843419 -0.333721,1.00924 -0.131697,0.06376 -0.24755,0.08859 -0.323857,0.06944 -0.06534,-0.0164 -0.476222,-0.294094 -0.913059,-0.617101 -1.184335,-0.875722 -1.393874,-1.018726 -1.430976,-0.976607 -0.01858,0.0211 -0.0717,0.261359 -0.11805,0.533926 -0.132554,0.779562 -0.561045,2.43991 -0.755982,2.929336 -0.294683,0.73985 -0.584948,1.10213 -1.00242,1.25111 -0.197097,0.07034 -0.53384,0.07971 -0.730996,0.02034 z m 0.708818,-7.011441 c 0.675093,-0.281572 0.880716,-1.112114 0.411151,-1.660696 -0.575145,-0.671926 -1.733931,-0.303082 -1.806756,0.575094 -0.02669,0.321826 0.05211,0.556364 0.267041,0.794755 0.305216,0.338543 0.743437,0.451478 1.128564,0.290847 z M 12.52304,9.6775885 c 0.953843,-0.4982936 0.603911,-1.944815 -0.470475,-1.944815 -0.318404,0 -0.521574,0.087925 -0.75212,0.325485 -0.478924,0.4934986 -0.342905,1.3107702 0.269855,1.621417 0.342289,0.1735284 0.617729,0.1729251 0.95274,-0.00212 z"
     id="path2" /></svg>
