<svg xmlns="http://www.w3.org/2000/svg" width="64" height="64" viewBox="174.24727979011638 15.878426994974388 27.0976853184798 27.0976853184798"><defs>
    <filter style="color-interpolation-filters:sRGB" x="-0.1940961" y="-0.046480109" width="1.3881922" height="1.0929602">
      <feGaussianBlur stdDeviation="3.4637856"/>
    </filter>
  </defs><g transform="translate(-275.68974,-11.35193)">
      <rect y="38.210632" x="453.76743" height="8.0255461" width="19.436871" style="fill:#000000;fill-opacity:1;stroke:#000000;stroke-width:0;stroke-linecap:round;stroke-miterlimit:4;stroke-dasharray:none;stroke-dashoffset:0;stroke-opacity:1"/>
      <path d="m 462.49647,37.880371 -0.46852,-0.470932 h -1.3974 -0.48871" style="fill:none;stroke:#000000;stroke-width:0.470932px;stroke-linecap:butt;stroke-linejoin:miter;stroke-opacity:1"/>
      <path d="m 464.85113,37.880371 0.52168,-0.470932 h 1.83298" style="fill:none;stroke:#000000;stroke-width:0.470932px;stroke-linecap:butt;stroke-linejoin:miter;stroke-opacity:1"/>
      <path d="m 461.55463,43.060621 h 0.94184 2.35466 0.94186" style="fill:none;stroke:#000000;stroke-width:0.470932px;stroke-linecap:butt;stroke-linejoin:miter;stroke-opacity:1"/>
      <path d="m 462.9674,38.763365 v 2.825591 h 1.4128 v -2.825591" style="fill:none;stroke:#000000;stroke-width:0.470932px;stroke-linecap:butt;stroke-linejoin:miter;stroke-opacity:1"/>
      <path d="m 456.84531,35.054779 h 14.12793" style="fill:none;stroke:#000000;stroke-width:0.470932px;stroke-linecap:butt;stroke-linejoin:miter;stroke-opacity:1"/>
      <rect transform="rotate(-59.858731)" y="412.31546" x="195.36133" height="1.4211904" width="4.2217717" style="fill:#000000;fill-opacity:1;stroke:#000000;stroke-width:1.32292;stroke-linecap:round;stroke-miterlimit:4;stroke-dasharray:none;stroke-dashoffset:0;stroke-opacity:1"/>
      <rect style="fill:#000000;fill-opacity:1;stroke:#000000;stroke-width:1.32292;stroke-linecap:round;stroke-miterlimit:4;stroke-dasharray:none;stroke-dashoffset:0;stroke-opacity:1" width="4.2217717" height="1.4211904" x="-270.09763" y="-389.31299" transform="matrix(-0.50213375,-0.86478997,-0.86478997,0.50213375,0,0)"/>
      <path d="m 458.13323,34.721854 h 10.88527 l -2.03351,12.918784 -6.99767,0.05982 z" style="fill:#000000;fill-opacity:1;stroke:#000000;stroke-width:0.127;stroke-linecap:round;stroke-miterlimit:4;stroke-dasharray:none;stroke-dashoffset:0;stroke-opacity:1"/>
      <ellipse ry="3.1100776" rx="5.7715864" cy="39.147755" cx="463.60583" style="fill:#000000;fill-opacity:1;stroke:#000000;stroke-width:0.127;stroke-linecap:round;stroke-miterlimit:4;stroke-dasharray:none;stroke-dashoffset:0;stroke-opacity:1"/>
      <g transform="matrix(0.26458333,0,0,0.26458333,-1610.9058,299.29197)">
        <path style="fill:#ffffff;fill-opacity:1;stroke:#000000;stroke-width:0.479525;stroke-linecap:round;stroke-miterlimit:4;stroke-dasharray:none;stroke-dashoffset:0;stroke-opacity:1" d="m 7828.3125,-963.20162 v -6.95312 h 1.4385 1.4386 v 3.55648 c 0,1.95607 0.01,4.88717 0.01,6.51356 0,1.62639 2e-4,3.15488 0,3.39664 l -0.01,0.43956 h -1.4386 -1.4385 z"/>
        <path style="fill:#ffffff;fill-opacity:1;stroke:#000000;stroke-width:0.479525;stroke-linecap:round;stroke-miterlimit:4;stroke-dasharray:none;stroke-dashoffset:0;stroke-opacity:1" d="m 7832.3085,-963.20162 v -6.95312 h 1.4386 1.4386 v 6.95312 6.95312 h -1.4386 -1.4386 z"/>
        <path style="fill:#ffffff;fill-opacity:1;stroke:#000000;stroke-width:0.479525;stroke-linecap:round;stroke-miterlimit:4;stroke-dasharray:none;stroke-dashoffset:0;stroke-opacity:1" d="m 7836.3045,-961.20359 v -8.95115 h 1.4386 1.4386 v 8.95115 8.95114 h -1.4386 -1.4386 z"/>
        <path style="fill:#ffffff;fill-opacity:1;stroke:#000000;stroke-width:0.479525;stroke-linecap:round;stroke-miterlimit:4;stroke-dasharray:none;stroke-dashoffset:0;stroke-opacity:1" d="m 7840.3006,-961.20359 v -8.95115 h 1.4386 1.4385 v 8.95115 8.95114 h -1.4385 -1.4386 z"/>
        <path style="fill:#ffffff;fill-opacity:1;stroke:#000000;stroke-width:0.479525;stroke-linecap:round;stroke-miterlimit:4;stroke-dasharray:none;stroke-dashoffset:0;stroke-opacity:1" d="m 7844.2966,-963.20162 v -6.95312 h 1.4386 1.4386 v 6.95312 6.95312 h -1.4386 -1.4386 z"/>
        <path style="fill:#ffffff;fill-opacity:1;stroke:#000000;stroke-width:0.479525;stroke-linecap:round;stroke-miterlimit:4;stroke-dasharray:none;stroke-dashoffset:0;stroke-opacity:1" d="m 7848.2927,-963.20162 v -6.95312 h 1.4386 1.4385 v 6.95312 6.95312 h -1.4385 -1.4386 z"/>
      </g>
      <path d="m 461.20239,48.671428 c -1.03195,-0.310197 -1.88537,-0.573087 -1.89645,-0.584173 -0.0478,-0.04781 -0.89247,-6.138572 -0.85323,-6.152462 0.0233,-0.0082 -0.11184,-0.15793 -0.30004,-0.332767 -0.78949,-0.733451 -1.13188,-1.4782 -1.17332,-2.552091 -0.0204,-0.525939 -0.0124,-0.612008 0.093,-1.033542 0.10459,-0.417751 0.11049,-0.481383 0.0644,-0.695034 -0.0917,-0.425344 -0.10441,-1.504077 -0.0236,-1.996255 0.58076,-3.53314 4.27852,-5.872189 8.00645,-5.064495 2.41136,0.522446 4.3511,2.300817 4.91085,4.502335 0.25869,1.017402 0.24077,2.198846 -0.047,3.094487 -0.0771,0.240083 -0.0928,0.394759 -0.0977,0.962687 -0.005,0.550254 -0.023,0.739457 -0.0976,1.012719 -0.19521,0.714428 -0.6296,1.401418 -1.17284,1.854861 l -0.29414,0.245534 -0.54203,3.074352 c -0.29808,1.690899 -0.54829,3.08065 -0.55597,3.088349 -0.032,0.03199 -4.00581,1.148636 -4.07222,1.14427 -0.0399,-0.0026 -0.91679,-0.258551 -1.94874,-0.568775 z m 3.0816,-2.29907 c 0.45358,-0.14232 1.10602,-0.347795 1.44984,-0.456592 l 0.62516,-0.197855 0.16703,-0.530754 c 0.35684,-1.134031 0.87799,-2.857421 0.86754,-2.868824 -0.006,-0.0066 -0.0876,0 -0.18124,0.01535 l -0.1702,0.02723 -0.24292,0.964221 c -0.13361,0.530331 -0.25537,0.984356 -0.27061,1.008989 -0.0257,0.04157 -0.18905,0.07665 -1.39878,0.300381 -0.24423,0.04514 -0.69638,0.13044 -1.00475,0.189468 -0.69207,0.132504 -0.79727,0.132874 -1.45198,0.0045 -0.28864,-0.05662 -0.73417,-0.141896 -0.99002,-0.189494 -0.25588,-0.04757 -0.67077,-0.124963 -0.92199,-0.171927 -0.25122,-0.04699 -0.46374,-0.08541 -0.47226,-0.08541 -0.008,0 -0.17023,-0.464212 -0.35935,-1.031611 l -0.34386,-1.031636 -0.13544,-0.02064 c -0.0745,-0.01138 -0.13946,-0.0172 -0.14441,-0.01323 -0.005,0.004 0.2145,0.785151 0.4876,1.735667 l 0.49655,1.728205 1.24637,0.392351 c 0.68551,0.21582 1.35104,0.427725 1.47897,0.470931 0.14258,0.04813 0.27352,0.0671 0.33832,0.04903 0.0582,-0.01614 0.47686,-0.145918 0.93043,-0.288211 z m -3.64707,-5.424355 c 0.77746,-0.29083 1.59819,-1.04476 1.96276,-1.802845 0.11518,-0.2395 0.13872,-0.342318 0.15386,-0.671883 0.0167,-0.365601 0.0101,-0.406082 -0.11324,-0.669263 -0.35701,-0.762926 -1.34594,-1.30683 -2.22883,-1.225868 -0.60634,0.05562 -1.10611,0.303795 -1.535,0.762291 -0.39399,0.421191 -0.63871,1.028595 -0.63871,1.585384 0,0.921147 0.65538,1.881902 1.43346,2.101479 0.24868,0.07017 0.65556,0.03675 0.9657,-0.0793 z m 6.53942,0.0707 c 0.81238,-0.211613 1.42235,-1.118393 1.42087,-2.112327 -0.003,-1.120405 -0.77732,-2.053855 -1.90262,-2.289625 -0.88154,-0.184705 -1.83611,0.209153 -2.36757,0.976895 -0.48274,0.697388 -0.27697,1.55575 0.58652,2.446893 0.50919,0.525436 1.02421,0.856774 1.51771,0.976392 0.3211,0.07787 0.4518,0.07816 0.74509,0.0026 v 0 z" style="fill:#ffffff;fill-opacity:1;stroke:#000000;stroke-width:0.126874;stroke-linecap:round;stroke-miterlimit:4;stroke-dasharray:none;stroke-dashoffset:0;stroke-opacity:1"/>
      <path d="m 460.34612,45.018141 0.76356,0.234368 m 0.30057,0.09226 0.76875,0.235956 m 0.26011,0.07982 0.80502,0.247095 m 0.30157,-0.0172 0.75406,-0.229817 m 0.29181,-0.08893 0.75287,-0.229446 m 0.2829,-0.08623 0.75763,-0.230902" style="fill:none;stroke:#000000;stroke-width:0.127;stroke-linecap:butt;stroke-linejoin:miter;stroke-miterlimit:4;stroke-dasharray:none;stroke-opacity:1"/>
      <path transform="matrix(0.1005258,0,0,0.15107561,-408.80694,174.8012)" d="m 8688.5643,-871.14412 c -2.377,4.11712 -22.6442,4.11712 -25.0212,0 -2.377,-4.11711 7.7566,-21.66903 12.5106,-21.66903 4.754,0 14.8877,17.55192 12.5106,21.66903 z" style="fill:#000000;fill-opacity:1;stroke:#000000;stroke-width:0.48;stroke-linecap:round;stroke-miterlimit:4;stroke-dasharray:none;stroke-dashoffset:0;stroke-opacity:1"/>
      <path d="m 456.43748,34.468701 c 0.96573,-1.89574 2.93214,-3.95224 5.26609,-4.52464 1.44941,-0.35552 3.11554,-0.348641 4.58451,0.01931 2.31294,0.578644 4.26366,2.63099 5.21168,4.504108 0.0982,0.194151 0.17865,0.364569 0.17865,0.378698 0,0.01402 -3.47538,0.02567 -7.72303,0.02567 h -7.72308 l 0.20518,-0.402723 z" style="fill:#000000;fill-opacity:1;fill-rule:nonzero;stroke:#000000;stroke-width:0.0122952;stroke-miterlimit:4;stroke-dasharray:none;stroke-dashoffset:0;stroke-opacity:1"/>
      <path d="m 471.87381,33.173751 c 0,0.818435 -0.45437,1.582843 -1.24169,2.23139 -1.47048,1.211289 -4.56759,-0.09618 -7.56971,-0.09618 -3.16785,0 -5.45827,1.215892 -6.87207,-0.108109 -0.64336,-0.602483 -1.00886,-1.293072 -1.00886,-2.027105 0,-2.347093 3.73669,-4.249791 8.34615,-4.249791 4.60946,0 8.34618,1.902672 8.34618,4.249791 z" style="fill:#000000;fill-opacity:1;stroke:#000000;stroke-width:1.39228;stroke-linecap:round;stroke-miterlimit:4;stroke-dasharray:none;stroke-dashoffset:0;stroke-opacity:1"/>
      <rect y="34.467323" x="454.98077" height="2.1534257" width="17.305578" style="fill:#7e2d24;fill-opacity:1;stroke:#000000;stroke-width:0;stroke-linecap:round;stroke-miterlimit:4;stroke-dasharray:none;stroke-dashoffset:0;stroke-opacity:1"/>
      <path d="m 466.18119,48.492649 c 0,0.635873 -1.21256,4.141788 -2.85589,4.141788 -1.64332,0 -3.09512,-3.505915 -3.09512,-4.141788 0,-0.635846 1.33218,-1.151334 2.97551,-1.151334 1.64332,0 2.9755,0.515488 2.9755,1.151334 z" style="fill:#000000;fill-opacity:1;stroke:#000000;stroke-width:0;stroke-linecap:round;stroke-miterlimit:4;stroke-dasharray:none;stroke-dashoffset:0;stroke-opacity:1"/>
    </g></svg>
