<svg xmlns="http://www.w3.org/2000/svg" width="64" height="64" viewBox="140.03582690135545 209.16453659306345 24.759497549019606 24.759497549019606"><defs>
    <filter style="color-interpolation-filters:sRGB" x="-0.1940961" y="-0.046480109" width="1.3881922" height="1.0929602">
      <feGaussianBlur stdDeviation="3.4637856"/>
    </filter>
  </defs><g transform="translate(-155.57143,47.779923)">
      <path style="fill:#000000;fill-opacity:1;stroke:#000000;stroke-width:0.105041;stroke-linecap:round;stroke-miterlimit:4;stroke-dasharray:none;stroke-dashoffset:0;stroke-opacity:1" d="m 303.47235,171.13001 h 9.00313 l -1.68189,10.68502 -5.78771,0.0494 z"/>
      <ellipse style="fill:#000000;fill-opacity:1;stroke:#000000;stroke-width:0.105041;stroke-linecap:round;stroke-miterlimit:4;stroke-dasharray:none;stroke-dashoffset:0;stroke-opacity:1" cx="307.9986" cy="174.7907" rx="4.7736282" ry="2.5723181"/>
      <path style="fill:#ffffff;fill-opacity:1;stroke:#000000;stroke-width:0.104937;stroke-linecap:round;stroke-miterlimit:4;stroke-dasharray:none;stroke-dashoffset:0;stroke-opacity:1" d="m 305.29361,179.17185 v -1.52158 h 0.3148 0.31483 v 0.77826 c 0,0.42806 0.002,1.0695 0.002,1.4254 0,0.35591 4e-5,0.6904 0,0.74328 l -0.002,0.0962 h -0.31483 -0.3148 z"/>
      <path style="fill:#ffffff;fill-opacity:1;stroke:#000000;stroke-width:0.104937;stroke-linecap:round;stroke-miterlimit:4;stroke-dasharray:none;stroke-dashoffset:0;stroke-opacity:1" d="m 306.16806,179.17185 v -1.52158 h 0.31484 0.31481 v 1.52158 1.52158 h -0.31481 -0.31484 z"/>
      <path style="fill:#ffffff;fill-opacity:1;stroke:#000000;stroke-width:0.104937;stroke-linecap:round;stroke-miterlimit:4;stroke-dasharray:none;stroke-dashoffset:0;stroke-opacity:1" d="m 307.04253,179.60907 v -1.9588 h 0.31484 0.31481 v 1.9588 1.95885 h -0.31481 -0.31484 z"/>
      <path style="fill:#ffffff;fill-opacity:1;stroke:#000000;stroke-width:0.104937;stroke-linecap:round;stroke-miterlimit:4;stroke-dasharray:none;stroke-dashoffset:0;stroke-opacity:1" d="m 308.7915,179.17185 v -1.52158 h 0.31481 0.31481 v 1.52158 1.52158 h -0.31481 -0.31481 z"/>
      <path style="fill:#ffffff;fill-opacity:1;stroke:#000000;stroke-width:0.104937;stroke-linecap:round;stroke-miterlimit:4;stroke-dasharray:none;stroke-dashoffset:0;stroke-opacity:1" d="m 309.66598,179.17185 v -1.52158 h 0.31482 0.31479 v 1.52158 1.52158 h -0.31479 -0.31482 z"/>
      <path style="fill:none;stroke:#000000;stroke-width:0.105041;stroke-linecap:butt;stroke-linejoin:miter;stroke-miterlimit:4;stroke-dasharray:none;stroke-opacity:1" d="m 305.30263,179.64599 0.63154,0.19384 m 0.24859,0.0763 0.63582,0.19514 m 0.21515,0.066 0.66582,0.20438 m 0.24942,-0.0142 0.62369,-0.1901 m 0.24134,-0.0735 0.6227,-0.18976 m 0.23398,-0.0713 0.62663,-0.19098"/>
      <path style="fill:#ffffff;fill-opacity:1;stroke:#000000;stroke-width:0.104937;stroke-linecap:round;stroke-miterlimit:4;stroke-dasharray:none;stroke-dashoffset:0;stroke-opacity:1" d="m 306.01083,182.6676 c -0.85351,-0.2566 -1.55936,-0.47401 -1.56853,-0.48319 -0.0395,-0.0395 -0.73814,-5.07716 -0.7057,-5.08866 0.0193,-0.007 -0.0925,-0.13058 -0.24815,-0.2752 -0.65298,-0.60662 -0.93617,-1.22261 -0.97044,-2.1108 -0.0167,-0.43502 -0.0102,-0.50618 0.0769,-0.85485 0.0865,-0.34551 0.0914,-0.39815 0.0533,-0.57485 -0.0758,-0.3518 -0.0863,-1.244 -0.0195,-1.65108 0.48034,-2.92222 3.53874,-4.85685 6.62208,-4.18881 1.99442,0.43212 3.59874,1.903 4.06171,3.72386 0.21396,0.84146 0.19913,1.81864 -0.0389,2.5594 -0.0638,0.19857 -0.0768,0.32649 -0.0808,0.79621 -0.004,0.45512 -0.019,0.61163 -0.0807,0.83762 -0.16145,0.59089 -0.52073,1.15909 -0.97004,1.53416 l -0.24327,0.20307 -0.44831,2.54278 c -0.24654,1.39855 -0.45349,2.54798 -0.45986,2.55433 -0.0265,0.0265 -3.31316,0.95004 -3.36807,0.94642 -0.033,-0.002 -0.75826,-0.21386 -1.61181,-0.47041 z m 2.54879,-1.90154 c 0.37515,-0.11771 0.91476,-0.28768 1.19913,-0.37765 l 0.51707,-0.16364 0.13814,-0.43901 c 0.29515,-0.93794 0.7262,-2.36333 0.71754,-2.37278 -0.005,-0.006 -0.0724,0 -0.14989,0.0127 l -0.14077,0.0225 -0.20091,0.7975 c -0.11051,0.43862 -0.21124,0.81417 -0.22384,0.83454 -0.0212,0.0344 -0.15637,0.0634 -1.15691,0.24842 -0.20199,0.0374 -0.57597,0.1079 -0.83101,0.15674 -0.57242,0.10959 -0.65942,0.10988 -1.20094,0.004 -0.23872,-0.0469 -0.60722,-0.11738 -0.81882,-0.15675 -0.21163,-0.0394 -0.55481,-0.10336 -0.76259,-0.1422 -0.20778,-0.0388 -0.38354,-0.0706 -0.39058,-0.0706 -0.007,0 -0.14081,-0.38398 -0.29723,-0.85328 l -0.28439,-0.85325 -0.11203,-0.0169 c -0.0616,-0.009 -0.11535,-0.0142 -0.11943,-0.0108 -0.004,0.003 0.1774,0.64938 0.40327,1.43553 l 0.4107,1.4294 1.03087,0.32452 c 0.56697,0.17851 1.11743,0.35377 1.22324,0.38952 0.11794,0.0398 0.22622,0.0555 0.27982,0.0405 0.0481,-0.0133 0.39441,-0.12068 0.76956,-0.23838 z m -3.01645,-4.48645 c 0.64301,-0.24057 1.32184,-0.8641 1.62336,-1.49109 0.0952,-0.19811 0.11475,-0.28314 0.12725,-0.55574 0.0138,-0.30239 0.008,-0.33585 -0.0937,-0.55356 -0.29529,-0.63097 -1.11321,-1.08084 -1.84343,-1.01389 -0.50151,0.046 -0.91486,0.25128 -1.26961,0.63049 -0.32587,0.34836 -0.52826,0.85076 -0.52826,1.31127 0,0.76187 0.54206,1.55651 1.18559,1.73811 0.20568,0.058 0.54221,0.0304 0.79875,-0.0656 z m 5.40867,0.0585 c 0.67192,-0.175 1.17642,-0.92501 1.17519,-1.74705 -0.002,-0.92667 -0.64292,-1.69873 -1.57363,-1.89373 -0.72912,-0.15278 -1.51862,0.17298 -1.9582,0.80798 -0.39927,0.57677 -0.22907,1.28674 0.48511,2.02378 0.42113,0.4346 0.8471,0.70864 1.25529,0.80758 0.26558,0.0644 0.37367,0.0647 0.61624,0.002 v 0 z"/>
      <path style="fill:#000000;fill-opacity:1;stroke:#000000;stroke-width:0.48;stroke-linecap:round;stroke-miterlimit:4;stroke-dasharray:none;stroke-dashoffset:0;stroke-opacity:1" d="m 8688.5643,-871.14412 c -2.377,4.11712 -22.6442,4.11712 -25.0212,0 -2.377,-4.11711 7.7566,-21.66903 12.5106,-21.66903 4.754,0 14.8877,17.55192 12.5106,21.66903 z" transform="matrix(0.08314401,0,0,0.12495331,-413.56625,286.98842)"/>
      <path d="m 307.91704,179.60907 v -0.0372 c 0.20986,0 0.41974,-0.0958 0.62961,-0.0958 v 0.13293 1.15187 c -0.20987,0 -0.41975,0.20517 -0.62961,0.20517 z" style="fill:#ffffff;fill-opacity:1;stroke:#000000;stroke-width:0.104937;stroke-linecap:round;stroke-miterlimit:4;stroke-dasharray:none;stroke-dashoffset:0;stroke-opacity:1"/>
      <path d="m 305.30263,179.64599 0.63154,0.19384 m 0.24859,0.0763 0.63582,0.19514 m 0.21515,0.066 0.66582,0.20438 m 0.24942,-0.0142 0.62369,-0.1901" style="fill:none;stroke:#000000;stroke-width:0.105041;stroke-linecap:butt;stroke-linejoin:miter;stroke-miterlimit:4;stroke-dasharray:none;stroke-opacity:1"/>
      <g transform="matrix(0.19233506,0,0,0.19233506,-1946.9938,1150.1611)">
        <g>
          <path d="m 11667.911,-5100.2458 25.031,5.6889 c 20.48,-5.6889 43.236,-5.6889 63.716,0 l 23.893,-5.6889 c -10.24,-13.6533 -29.582,-20.48 -48.924,-25.0311 l -6.827,7.9645 -6.827,-7.9645 c -25.031,4.5511 -38.684,10.24 -50.062,25.0311 z" style="fill:#1a1a1a;fill-opacity:1;stroke:#000000;stroke-width:1.13778px;stroke-linecap:butt;stroke-linejoin:miter;stroke-opacity:1"/>
          <path style="fill:none;stroke:#ffffff;stroke-width:2.84445;stroke-linecap:butt;stroke-linejoin:miter;stroke-miterlimit:4;stroke-dasharray:none;stroke-opacity:1" d="m 11778.275,-5097.9702 c -10.24,-13.6534 -26.168,-18.2045 -45.51,-22.7556 l -7.965,9.1022 -7.965,-9.1022 c -25.03,4.5511 -34.133,7.9644 -45.51,22.7556"/>
        </g>
      </g>
    </g></svg>
