<svg xmlns="http://www.w3.org/2000/svg" width="64" height="64" viewBox="168.74719812153026 104.41629558214478 26.511847020434693 26.511847020434693"><defs>
    <filter style="color-interpolation-filters:sRGB" x="-0.1940961" y="-0.046480109" width="1.3881922" height="1.0929602">
      <feGaussianBlur stdDeviation="3.4637856"/>
    </filter>
  </defs><g transform="matrix(0.26458333,0,0,0.26458333,-2489.8487,316.56761)">
      <g transform="translate(1421.2248,143.89288)">
        <path d="m 8655.8184,-906.65751 h 41.1412 l -7.6857,48.82687 -26.4479,0.22605 z" style="fill:#000000;fill-opacity:1;stroke:#000000;stroke-width:0.48;stroke-linecap:round;stroke-miterlimit:4;stroke-dasharray:none;stroke-dashoffset:0;stroke-opacity:1"/>
        <ellipse ry="11.754624" rx="21.813869" cy="-889.92975" cx="8676.502" style="fill:#000000;fill-opacity:1;stroke:#000000;stroke-width:0.48;stroke-linecap:round;stroke-miterlimit:4;stroke-dasharray:none;stroke-dashoffset:0;stroke-opacity:1"/>
        <g transform="translate(835.82837,93.292494)">
          <path style="fill:#ffffff;fill-opacity:1;stroke:#000000;stroke-width:0.479525;stroke-linecap:round;stroke-miterlimit:4;stroke-dasharray:none;stroke-dashoffset:0;stroke-opacity:1" d="m 7828.3125,-963.20162 v -6.95312 h 1.4385 1.4386 v 3.55648 c 0,1.95607 0.01,4.88717 0.01,6.51356 0,1.62639 2e-4,3.15488 0,3.39664 l -0.01,0.43956 h -1.4386 -1.4385 z"/>
          <path style="fill:#ffffff;fill-opacity:1;stroke:#000000;stroke-width:0.479525;stroke-linecap:round;stroke-miterlimit:4;stroke-dasharray:none;stroke-dashoffset:0;stroke-opacity:1" d="m 7832.3085,-963.20162 v -6.95312 h 1.4386 1.4386 v 6.95312 6.95312 h -1.4386 -1.4386 z"/>
          <path style="fill:#ffffff;fill-opacity:1;stroke:#000000;stroke-width:0.479525;stroke-linecap:round;stroke-miterlimit:4;stroke-dasharray:none;stroke-dashoffset:0;stroke-opacity:1" d="m 7836.3045,-961.20359 v -8.95115 h 1.4386 1.4386 v 8.95115 8.95114 h -1.4386 -1.4386 z"/>
          <path style="fill:#ffffff;fill-opacity:1;stroke:#000000;stroke-width:0.479525;stroke-linecap:round;stroke-miterlimit:4;stroke-dasharray:none;stroke-dashoffset:0;stroke-opacity:1" d="m 7840.3006,-961.20359 v -8.95115 h 1.4386 1.4385 v 8.95115 8.95114 h -1.4385 -1.4386 z"/>
          <path style="fill:#ffffff;fill-opacity:1;stroke:#000000;stroke-width:0.479525;stroke-linecap:round;stroke-miterlimit:4;stroke-dasharray:none;stroke-dashoffset:0;stroke-opacity:1" d="m 7844.2966,-963.20162 v -6.95312 h 1.4386 1.4386 v 6.95312 6.95312 h -1.4386 -1.4386 z"/>
          <path style="fill:#ffffff;fill-opacity:1;stroke:#000000;stroke-width:0.479525;stroke-linecap:round;stroke-miterlimit:4;stroke-dasharray:none;stroke-dashoffset:0;stroke-opacity:1" d="m 7848.2927,-963.20162 v -6.95312 h 1.4386 1.4385 v 6.95312 6.95312 h -1.4385 -1.4386 z"/>
        </g>
        <path d="m 8667.4184,-853.93474 c -3.9003,-1.17245 -7.1258,-2.16602 -7.1677,-2.20793 -0.1807,-0.18073 -3.3731,-23.20094 -3.2248,-23.25344 0.088,-0.031 -0.4227,-0.5968 -1.134,-1.2576 -2.9839,-2.7721 -4.278,-5.5869 -4.4346,-9.6457 -0.077,-1.9878 -0.047,-2.3131 0.3515,-3.9063 0.3953,-1.5789 0.4176,-1.8194 0.2435,-2.6269 -0.3466,-1.6076 -0.3946,-5.6847 -0.089,-7.5449 2.195,-13.3536 16.1708,-22.1941 30.2606,-19.1414 9.1138,1.9746 16.4451,8.696 18.5607,17.0167 0.9777,3.8453 0.91,8.3106 -0.1775,11.6956 -0.2915,0.9074 -0.3508,1.492 -0.3692,3.6385 -0.018,2.0797 -0.087,2.7948 -0.3689,3.8276 -0.7378,2.7002 -2.3796,5.2967 -4.4328,7.0106 l -1.1117,0.9279 -2.0486,11.6197 c -1.1266,6.3908 -2.0723,11.64337 -2.1013,11.67245 -0.121,0.12095 -15.1401,4.34127 -15.3911,4.32481 -0.1506,-0.01 -3.465,-0.97725 -7.3653,-2.14969 z m 11.647,-8.68937 c 1.7143,-0.5379 4.1802,-1.3145 5.4797,-1.7257 l 2.3628,-0.7478 0.6313,-2.0061 c 1.3487,-4.2861 3.3184,-10.7997 3.2789,-10.8428 -0.023,-0.025 -0.3311,10e-4 -0.685,0.058 l -0.6433,0.1029 -0.9181,3.6443 c -0.505,2.0044 -0.9652,3.7205 -1.0228,3.8136 -0.097,0.1571 -0.7145,0.2897 -5.2867,1.1352 -0.9231,0.1707 -2.632,0.493 -3.7975,0.7162 -2.6157,0.5008 -3.0133,0.5021 -5.4878,0.017 -1.0909,-0.2141 -2.7748,-0.5363 -3.7418,-0.7162 -0.9671,-0.1799 -2.5352,-0.4723 -3.4847,-0.6498 -0.9495,-0.1776 -1.7527,-0.3228 -1.7849,-0.3228 -0.032,0 -0.6434,-1.7546 -1.3582,-3.8991 l -1.2996,-3.8991 -0.5119,-0.078 c -0.2815,-0.043 -0.5271,-0.065 -0.5458,-0.05 -0.019,0.015 0.8107,2.9675 1.8429,6.56 l 1.8767,6.5318 4.7107,1.483 c 2.5909,0.8157 5.1063,1.6166 5.5898,1.7799 0.5389,0.1819 1.0338,0.2536 1.2787,0.1853 0.2198,-0.061 1.8023,-0.5515 3.5166,-1.0894 z m -13.7842,-20.5015 c 2.9384,-1.0993 6.0404,-3.9487 7.4183,-6.8139 0.4353,-0.9052 0.5243,-1.2938 0.5815,-2.5395 0.063,-1.3817 0.038,-1.5347 -0.428,-2.5295 -1.3493,-2.8834 -5.087,-4.9391 -8.4239,-4.6331 -2.2917,0.2102 -4.1806,1.1482 -5.8016,2.8811 -1.4891,1.5919 -2.414,3.8876 -2.414,5.992 0,3.4815 2.477,7.1127 5.4178,7.9426 0.9399,0.2652 2.4777,0.1389 3.6499,-0.2997 z m 24.7159,0.2671 c 3.0704,-0.7997 5.3758,-4.227 5.3702,-7.9835 -0.01,-4.2346 -2.9379,-7.7626 -7.191,-8.6537 -3.3318,-0.6981 -6.9396,0.7905 -8.9483,3.6922 -1.8245,2.6357 -1.0468,5.88 2.2168,9.248 1.9245,1.986 3.871,3.2383 5.7362,3.6904 1.2136,0.2942 1.7076,0.2954 2.8161,0.01 v 0 z" style="fill:#ffffff;fill-opacity:1;stroke:#000000;stroke-width:0.479525;stroke-linecap:round;stroke-miterlimit:4;stroke-dasharray:none;stroke-dashoffset:0;stroke-opacity:1"/>
        <path d="m 8664.1821,-867.74241 2.8859,0.8858 m 1.136,0.3487 2.9055,0.8918 m 0.9831,0.3017 3.0426,0.9339 m 1.1398,-0.065 2.85,-0.8686 m 1.1029,-0.3361 2.8455,-0.8672 m 1.0692,-0.3259 2.8635,-0.8727" style="fill:none;stroke:#000000;stroke-width:0.48;stroke-linecap:butt;stroke-linejoin:miter;stroke-miterlimit:4;stroke-dasharray:none;stroke-opacity:1"/>
        <path transform="matrix(0.37994003,0,0,0.57099443,5379.1941,-377.2238)" d="m 8688.5643,-871.14412 c -2.377,4.11712 -22.6442,4.11712 -25.0212,0 -2.377,-4.11711 7.7566,-21.66903 12.5106,-21.66903 4.754,0 14.8877,17.55192 12.5106,21.66903 z" style="fill:#000000;fill-opacity:1;stroke:#000000;stroke-width:0.48;stroke-linecap:round;stroke-miterlimit:4;stroke-dasharray:none;stroke-dashoffset:0;stroke-opacity:1"/>
      </g>
      <rect style="fill:#973131;fill-opacity:1;stroke:#000000;stroke-width:0.48;stroke-linecap:round;stroke-miterlimit:4;stroke-dasharray:none;stroke-dashoffset:0;stroke-opacity:1" width="53.800011" height="5.8773122" x="10071.452" y="-764.85748"/>
      <path style="fill:#000000;fill-opacity:1;stroke:#000000;stroke-width:0.0542521;stroke-linecap:round;stroke-miterlimit:4;stroke-dasharray:none;stroke-dashoffset:0;stroke-opacity:1" d="m 10071.092,-765.55996 c -0.1,-0.22711 -0.245,-0.79106 -0.333,-1.25322 -1.274,-6.6579 6.327,-12.95425 18.375,-15.22175 9.046,-1.70243 19.16,-0.77709 26.674,2.44033 5.339,2.2863 8.822,5.47931 9.964,9.13539 0.38,1.21686 0.377,3.1898 0,4.43624 l -0.27,0.87595 h -27.115 -27.116 l -0.172,-0.41294 z"/>
      <ellipse style="fill:#000000;fill-opacity:1;stroke:#000000;stroke-width:0.48;stroke-linecap:round;stroke-miterlimit:4;stroke-dasharray:none;stroke-dashoffset:0;stroke-opacity:1" cx="10097.367" cy="-785.41913" rx="5.2747798" ry="10.149956"/>
    </g></svg>
