<svg xmlns="http://www.w3.org/2000/svg" width="64" height="64" viewBox="163.4150722836198 184.16501414666018 22.759069365698092 22.759069365698092"><defs>
    <filter style="color-interpolation-filters:sRGB" x="-0.1940961" y="-0.046480109" width="1.3881922" height="1.0929602">
      <feGaussianBlur stdDeviation="3.4637856"/>
    </filter>
  </defs><g transform="matrix(0.19233506,0,0,0.19233506,-1357.939,1718.5355)">
      <g transform="translate(-3635.9679,-7150.1596)">
        <g transform="translate(1732.7758,245.24899)">
          <path d="m 9848.3979,-1031.5748 h 46.8095 l -8.7447,55.55416 -30.0918,0.25719 z" style="fill:#000000;fill-opacity:1;stroke:#000000;stroke-width:0.546133;stroke-linecap:round;stroke-miterlimit:4;stroke-dasharray:none;stroke-dashoffset:0;stroke-opacity:1"/>
          <ellipse ry="13.37415" rx="24.819336" cy="-1012.5423" cx="9871.9316" style="fill:#000000;fill-opacity:1;stroke:#000000;stroke-width:0.546133;stroke-linecap:round;stroke-miterlimit:4;stroke-dasharray:none;stroke-dashoffset:0;stroke-opacity:1"/>
          <g transform="translate(950.98694,106.14613)">
            <path style="fill:#ffffff;fill-opacity:1;stroke:#000000;stroke-width:0.545593;stroke-linecap:round;stroke-miterlimit:4;stroke-dasharray:none;stroke-dashoffset:0;stroke-opacity:1" d="m 8906.88,-1095.9094 v -7.9111 h 1.6367 1.6368 v 4.0465 c 0,2.2255 0.012,5.5605 0.012,7.411 0,1.8505 2e-4,3.5896 0,3.8645 l -0.012,0.5002 h -1.6368 -1.6367 z"/>
            <path style="fill:#ffffff;fill-opacity:1;stroke:#000000;stroke-width:0.545593;stroke-linecap:round;stroke-miterlimit:4;stroke-dasharray:none;stroke-dashoffset:0;stroke-opacity:1" d="m 8911.4266,-1095.9094 v -7.9111 h 1.6368 1.6368 v 7.9111 7.9111 h -1.6368 -1.6368 z"/>
            <path style="fill:#ffffff;fill-opacity:1;stroke:#000000;stroke-width:0.545593;stroke-linecap:round;stroke-miterlimit:4;stroke-dasharray:none;stroke-dashoffset:0;stroke-opacity:1" d="m 8915.9731,-1093.6361 v -10.1844 h 1.6368 1.6368 v 10.1844 10.1845 h -1.6368 -1.6368 z"/>
            <path style="fill:#ffffff;fill-opacity:1;stroke:#000000;stroke-width:0.545593;stroke-linecap:round;stroke-miterlimit:4;stroke-dasharray:none;stroke-dashoffset:0;stroke-opacity:1" d="m 8920.5198,-1093.6361 v -10.1844 h 1.6368 1.6367 v 10.1844 10.1845 h -1.6367 -1.6368 z"/>
            <path style="fill:#ffffff;fill-opacity:1;stroke:#000000;stroke-width:0.545593;stroke-linecap:round;stroke-miterlimit:4;stroke-dasharray:none;stroke-dashoffset:0;stroke-opacity:1" d="m 8925.0663,-1095.9094 v -7.9111 h 1.6368 1.6368 v 7.9111 7.9111 h -1.6368 -1.6368 z"/>
            <path style="fill:#ffffff;fill-opacity:1;stroke:#000000;stroke-width:0.545593;stroke-linecap:round;stroke-miterlimit:4;stroke-dasharray:none;stroke-dashoffset:0;stroke-opacity:1" d="m 8929.613,-1095.9094 v -7.9111 h 1.6368 1.6367 v 7.9111 7.9111 h -1.6367 -1.6368 z"/>
          </g>
          <path d="m 9861.5961,-971.58797 c -4.4377,-1.33399 -8.1077,-2.46445 -8.1554,-2.51214 -0.2055,-0.20563 -3.8377,-26.39749 -3.669,-26.45729 0.1003,-0.035 -0.4809,-0.679 -1.2902,-1.4308 -3.3951,-3.1541 -4.8674,-6.3567 -5.0457,-10.9747 -0.087,-2.2617 -0.053,-2.6318 0.4,-4.4445 0.4497,-1.7964 0.4751,-2.0701 0.2771,-2.9888 -0.3944,-1.8291 -0.449,-6.4679 -0.1014,-8.5844 2.4974,-15.1935 18.3987,-25.252 34.4298,-21.7787 10.3695,2.2467 18.7109,9.8941 21.118,19.3612 1.1124,4.3751 1.0354,9.4556 -0.202,13.307 -0.3317,1.0324 -0.3991,1.6976 -0.42,4.1398 -0.02,2.3663 -0.099,3.1799 -0.4198,4.355 -0.8394,3.0722 -2.7075,6.0265 -5.0436,7.9765 l -1.2648,1.0557 -2.3308,13.22068 c -1.2818,7.2713 -2.3579,13.24756 -2.3908,13.28065 -0.1377,0.13761 -17.2262,4.9394 -17.5117,4.92067 -0.1713,-0.0114 -3.9424,-1.11189 -8.3801,-2.44587 z m 13.2517,-9.88657 c 1.9504,-0.61201 4.756,-1.49561 6.2347,-1.96347 l 2.6883,-0.85082 0.7183,-2.2825 c 1.5345,-4.87663 3.7755,-12.28766 3.7306,-12.3367 -0.027,-0.0285 -0.3767,0.001 -0.7794,0.066 l -0.7319,0.11708 -1.0446,4.1464 c -0.5746,2.28057 -1.0981,4.23311 -1.1637,4.33903 -0.1103,0.17875 -0.813,0.32962 -6.0151,1.29161 -1.0503,0.19422 -2.9947,0.56092 -4.3207,0.81488 -2.9761,0.5698 -3.4285,0.57127 -6.2439,0.0193 -1.2413,-0.24359 -3.1571,-0.61018 -4.2574,-0.81487 -1.1003,-0.20469 -2.8844,-0.53737 -3.9648,-0.73932 -1.0803,-0.20207 -1.9942,-0.36728 -2.0308,-0.36728 -0.036,0 -0.732,-1.99635 -1.5453,-4.43631 l -1.4787,-4.43631 -0.5824,-0.0887 c -0.3203,-0.049 -0.5998,-0.0739 -0.621,-0.0569 -0.021,0.0171 0.9223,3.37637 2.0969,7.46383 l 2.1352,7.43174 5.3597,1.68732 c 2.9478,0.92809 5.8098,1.83933 6.36,2.02513 0.6131,0.20696 1.1762,0.28854 1.4548,0.21083 0.2501,-0.0694 2.0507,-0.62749 4.0012,-1.2395 z m -15.6834,-23.32616 c 3.3432,-1.2508 6.8726,-4.4927 8.4404,-7.7527 0.4953,-1.0299 0.5965,-1.4721 0.6615,-2.8894 0.072,-1.572 0.044,-1.7461 -0.4869,-2.878 -1.5352,-3.2807 -5.7878,-5.6196 -9.5845,-5.2714 -2.6075,0.2391 -4.7566,1.3064 -6.601,3.278 -1.6942,1.8112 -2.7465,4.4232 -2.7465,6.8176 0,3.9612 2.8182,8.0927 6.1642,9.0369 1.0694,0.3017 2.8191,0.158 4.1528,-0.341 z m 28.1211,0.3039 c 3.4935,-0.9099 6.1165,-4.8094 6.1102,-9.0834 -0.012,-4.8181 -3.3427,-8.8322 -8.1817,-9.846 -3.791,-0.7943 -7.8958,0.8994 -10.1813,4.2009 -2.0758,2.9988 -1.191,6.6901 2.5223,10.5221 2.1896,2.2597 4.4044,3.6845 6.5265,4.1989 1.3808,0.3347 1.9428,0.3361 3.204,0.011 v 0 z" style="fill:#ffffff;fill-opacity:1;stroke:#000000;stroke-width:0.545593;stroke-linecap:round;stroke-miterlimit:4;stroke-dasharray:none;stroke-dashoffset:0;stroke-opacity:1"/>
          <path d="m 9857.9138,-987.29803 3.2835,1.00784 m 1.2926,0.39675 3.3058,1.01467 m 1.1185,0.34326 3.4618,1.06257 m 1.2969,-0.0739 3.2426,-0.98828 m 1.255,-0.3824 3.2375,-0.98668 m 1.2164,-0.3708 3.2581,-0.99294" style="fill:none;stroke:#000000;stroke-width:0.546133;stroke-linecap:butt;stroke-linejoin:miter;stroke-miterlimit:4;stroke-dasharray:none;stroke-opacity:1"/>
          <path transform="matrix(0.43228733,0,0,0.64966478,6120.3275,-429.19685)" d="m 8688.5643,-871.14412 c -2.377,4.11712 -22.6442,4.11712 -25.0212,0 -2.377,-4.11711 7.7566,-21.66903 12.5106,-21.66903 4.754,0 14.8877,17.55192 12.5106,21.66903 z" style="fill:#000000;fill-opacity:1;stroke:#000000;stroke-width:0.48;stroke-linecap:round;stroke-miterlimit:4;stroke-dasharray:none;stroke-dashoffset:0;stroke-opacity:1"/>
        </g>
      </g>
      <g transform="translate(110.08793,-835.19727)">
        <path style="fill:#1a1a1a;fill-opacity:1;stroke:#000000;stroke-width:0;stroke-linecap:round;stroke-linejoin:miter;stroke-miterlimit:4;stroke-dashoffset:0;stroke-opacity:1" d="m 7884.0645,-7116.6397 c 0,5.891 -10.9647,5.2621 -26.5955,5.2621 -15.6308,0 -24.3199,-0.7935 -24.3199,-6.6844 0,-5.8911 -1.2649,-9.2654 23.7511,-9.5289 27.0086,-0.2844 27.1643,5.0601 27.1643,10.9512 z"/>
        <path style="fill:none;stroke:#000080;stroke-width:9.10222;stroke-linecap:butt;stroke-linejoin:miter;stroke-miterlimit:4;stroke-dasharray:none;stroke-opacity:1" d="m 7829.1664,-7108.8172 30.72,9.1023 29.2978,-9.6711"/>
        <g transform="translate(-3865.2394,-2016.2803)">
          <g>
            <path d="m 11672.462,-5100.2458 20.48,5.6889 c 31.941,8.7195 23.937,8.5803 31.899,8.5683 16.252,-0.024 0.709,0.1498 31.817,-8.5683 l 19.342,-5.6889 c -10.24,-13.6533 -24.462,-7.1111 -44.373,-4.5511 -5.572,3.0429 -6.879,3.257 -13.654,0 -23.324,-3.6978 -34.133,-10.24 -45.511,4.5511 z" style="fill:#1a1a1a;fill-opacity:1;stroke:#000000;stroke-width:1.13778px;stroke-linecap:butt;stroke-linejoin:miter;stroke-opacity:1"/>
          </g>
        </g>
        <path style="fill:none;stroke:#000080;stroke-width:6.82667;stroke-linecap:butt;stroke-linejoin:miter;stroke-miterlimit:4;stroke-dasharray:none;stroke-opacity:1" d="m 7886.9087,-7103.4127 -1.5645,40.6755"/>
        <path style="fill:none;stroke:#000080;stroke-width:6.82667;stroke-linecap:butt;stroke-linejoin:miter;stroke-miterlimit:4;stroke-dasharray:none;stroke-opacity:1" d="m 7886.6243,-7106.6838 7.3955,39.8223"/>
        <g transform="translate(-3865.2394,-2014.0048)" style="stroke:#ffffff">
          <g style="stroke:#ffffff">
            <path style="fill:none;stroke:#ffffff;stroke-width:1.13778px;stroke-linecap:butt;stroke-linejoin:miter;stroke-opacity:1" d="m 11776,-5100.2458 c -10.24,-13.6533 -24.462,-7.1111 -44.373,-4.5511 -5.572,3.0429 -6.879,3.257 -13.654,0 -23.324,-3.6978 -34.133,-10.24 -45.511,4.5511"/>
          </g>
        </g>
      </g>
    </g></svg>
