<svg xmlns="http://www.w3.org/2000/svg" width="64" height="64" viewBox="48.21652995253072 209.92936520899778 38.406106041814326 38.406106041814326"><defs>
    <filter style="color-interpolation-filters:sRGB" x="-0.1940961" y="-0.046480109" width="1.3881922" height="1.0929602">
      <feGaussianBlur stdDeviation="3.4637856"/>
    </filter>
  </defs><g transform="matrix(2.1898691,0,0,2.1898691,-35.714136,-233.2311)">
      <path style="fill:#333333;fill-rule:evenodd;stroke:#000000;stroke-width:0.264583px;stroke-linecap:butt;stroke-linejoin:miter;stroke-opacity:1" d="m 49.477083,210.07916 c 0,0 1.947906,0.11452 2.910417,0.26459 0.803407,0.12526 2.38125,0.52917 2.38125,0.52917 l -1.058333,0.52916 -4.497918,0.26458"/>
      <path style="fill:#0000ff;fill-opacity:1;fill-rule:evenodd;stroke:#000000;stroke-width:0.264583px;stroke-linecap:butt;stroke-linejoin:miter;stroke-opacity:1" d="m 45.772917,214.84167 v -0.79375 c 0,0 0.660163,-0.60423 1.058333,-0.79375 0.32834,-0.15628 0.729993,-0.10831 1.058333,-0.26459 0.39817,-0.18952 0.790096,-0.44374 1.058334,-0.79375 0.2889,-0.37697 0.485743,-0.84996 0.529166,-1.32291 0.04112,-0.44782 -0.118639,-0.89755 -0.264584,-1.32292 -0.064,-0.18654 -0.176388,-0.35278 -0.264583,-0.52917 -0.176388,-0.35278 -0.529167,-1.05833 -0.529167,-1.05833 -2.026391,-0.20264 -4.052583,-0.39963 -6.085416,-0.52917 h -2.116666 -0.79375 l 2.116666,1.5875 0.264584,1.5875 v 1.05834 l -1.058334,1.5875"/>
      <path style="fill:none;stroke:#000000;stroke-width:0.14056;stroke-linecap:round;stroke-linejoin:round" d="m 44.885899,212.72756 c -0.870836,-0.31016 -1.494228,-1.14187 -1.494231,-2.11918 -4e-6,-1.24207 1.006891,-2.24896 2.248957,-2.24896 0.383479,0 0.744541,0.096 1.060474,0.26523 0.128046,0.0686 0.777847,0.14921 0.889554,0.24037 0.505391,0.4124 0.850062,0.81137 0.828097,1.51418"/>
      <path style="fill:none;fill-rule:evenodd;stroke:#000000;stroke-width:0.0661458;stroke-linecap:butt;stroke-linejoin:miter;stroke-dasharray:none;stroke-opacity:1" d="m 41.539583,209.02083 2.38125,0.26459"/>
      <path style="fill:none;fill-rule:evenodd;stroke:#000000;stroke-width:0.0661458;stroke-linecap:butt;stroke-linejoin:miter;stroke-dasharray:none;stroke-opacity:1" d="m 41.539583,209.55 c 0.164029,0.20726 0.243341,0.46429 0.29148,0.71981 0.1441,0.42186 0.469327,0.74176 0.728957,1.09281 0.322745,0.43496 0.8411,0.63503 1.272376,0.93616 0.324712,0.1973 0.677262,0.35474 1.040579,0.46231"/>
      <path style="fill:#000000;fill-opacity:1;stroke:#000000;stroke-width:0.0166566;stroke-linecap:round;stroke-linejoin:round;stroke-dasharray:none" d="m 157.54501,790.22707 c 0.30992,1.69891 0.51303,3.42313 0.94071,5.0973 0.76201,1.38971 1.7939,2.61427 2.8108,3.82307 1.23741,1.39916 3.0006,2.13582 4.51522,3.17238 0.38449,0.21735 0.76686,0.46678 1.18002,0.61647 -0.0238,-0.20417 -0.32577,-0.35374 -0.45101,-0.52756 -1.8055,-1.66806 -2.86984,-4.1077 -2.7781,-6.57373 -0.0481,-1.6661 0.57278,-3.27658 1.41172,-4.69026 0.0821,-0.22609 -0.30526,-0.0985 -0.41654,-0.15972 -2.39532,-0.25784 -4.78831,-0.53769 -7.18432,-0.78866 z" transform="scale(0.26458333)"/>
      <path style="fill:none;fill-rule:evenodd;stroke:#000000;stroke-width:0.0661458;stroke-linecap:butt;stroke-linejoin:miter;stroke-dasharray:none;stroke-opacity:1" d="m 44.899839,212.725 c 0.303709,0.21752 0.783311,0.33192 0.974698,0.67874 0.07648,0.11571 0.126932,0.24664 0.162743,0.38008"/>
      <path style="fill:none;fill-rule:evenodd;stroke:#000000;stroke-width:0.264583px;stroke-linecap:butt;stroke-linejoin:miter;stroke-opacity:1" d="m 43.409454,209.44406 5.803045,0.6351"/>
      <g transform="matrix(-0.06195852,0,0,0.06195852,199.40582,224.86258)">
        <path d="m 2454.498,-240.31237 c 5.1862,-12.79126 14.0975,-11.09531 23.8095,-6.28571 -4.3702,11.4224 -12.8452,12.10907 -23.8095,6.28571 z" style="fill:#ffffff;stroke:#000000;stroke-width:3.2;stroke-linecap:butt;stroke-linejoin:miter;stroke-miterlimit:4;stroke-dasharray:none;stroke-opacity:1"/>
        <path d="m 2465.0649,-249.96153 2.0486,13.29155" style="fill:#00ffff;fill-opacity:1;stroke:#008080;stroke-width:7.46667;stroke-linecap:butt;stroke-linejoin:miter;stroke-miterlimit:4;stroke-dasharray:none;stroke-opacity:1"/>
        <path style="fill:none;stroke:#000000;stroke-width:3.2;stroke-linecap:butt;stroke-linejoin:miter;stroke-miterlimit:4;stroke-dasharray:none;stroke-opacity:1" d="m 2454.498,-240.31237 c 5.1862,-12.79126 14.0975,-11.09531 23.8095,-6.28571 -4.3702,11.4224 -12.8452,12.10907 -23.8095,6.28571 z"/>
        <path style="fill:none;stroke:#000000;stroke-width:3.2;stroke-linecap:butt;stroke-linejoin:miter;stroke-miterlimit:4;stroke-dasharray:none;stroke-opacity:1" d="m 2465.0649,-249.96153 2.0486,13.29155"/>
      </g>
      <path style="fill:#000000;fill-rule:evenodd;stroke:#000000;stroke-width:0.264583px;stroke-linecap:butt;stroke-linejoin:miter;stroke-opacity:1" d="m 47.415391,209.85597 c 0.191456,-0.027 0.461983,-0.15748 0.497744,-0.30634 0.03052,-0.15115 0.708595,-0.38918 0.698215,-0.54366 0.05737,-0.16625 0.314465,-0.0603 0.397119,0.0455 0.100991,0.18513 0.168035,0.38784 0.251683,0.58125 0.04727,0.19751 0.172034,0.36934 0.186009,0.57591 0.06945,0.2001 -0.368261,0.26195 -0.493951,0.24494 -0.165035,0.0127 -1.610728,-0.33512 -1.750448,-0.43625 -0.130139,-0.078 0.319898,0.056 0.238892,-0.0699 -0.01407,-0.0285 -0.0275,-0.0596 -0.02527,-0.0914 z"/>
      <path style="fill:#ffffff;fill-opacity:1;stroke:#000000;stroke-width:0.0166566;stroke-linecap:round;stroke-linejoin:round;stroke-dasharray:none" d="m 165.2384,792.2891 c -0.24833,0.0409 -0.22395,0.43171 -0.36189,0.59846 -1.07416,2.65316 -0.68622,5.87492 1.11195,8.12607 0.90883,1.19841 2.15721,2.11732 3.54902,2.67585 0.60554,0.42091 1.23808,0.80616 1.90148,1.13668 0.92683,0.44318 1.79862,1.08888 2.24931,2.03799 0.12074,0.15594 0.17245,0.4998 0.38917,0.53259 1.08403,-0.80885 2.16927,-1.7151 3.47781,-2.12489 1.3527,-0.32044 2.81981,-0.36045 4.02313,-1.14011 1.56755,-0.81492 2.93069,-2.04211 3.77548,-3.60558 0.82513,-1.44741 1.24449,-3.12222 1.15953,-4.78889 -0.57337,0.11792 -1.20994,0.20512 -1.8205,0.12509 -1.76455,-0.21829 -3.48678,-0.7254 -5.20454,-1.18109 -0.42012,-0.0902 -0.83276,-0.33609 -1.24984,-0.35281 -1.18784,0.49145 -2.6643,0.76926 -3.79228,-0.0171 -0.49371,-0.29141 -0.78045,-0.8086 -1.17169,-1.20214 -2.63311,-0.27528 -5.2704,-0.61759 -7.91369,-0.82111 -0.0408,0.001 -0.0817,-0.002 -0.12245,0.001 z" transform="scale(0.26458333)"/>
      <path style="fill:#ffffff;fill-opacity:1;stroke:#000000;stroke-width:0.0166566;stroke-linecap:round;stroke-linejoin:round;stroke-dasharray:none" d="m 172.26942,787.79846 c -2.41011,-0.005 -4.75736,1.2356 -6.21875,3.12948 -0.0208,0.13708 -0.29087,0.23382 -0.22109,0.35213 2.33209,0.26698 4.66746,0.53264 7.00643,0.71923 0.74039,-0.50175 1.61979,-0.82032 2.49744,-0.99146 0.90085,-0.18385 1.90765,-0.0627 2.61521,0.57583 0.37956,0.28201 0.65848,0.65804 0.89308,1.05535 0.52729,0.0903 1.04169,-0.24433 1.49233,-0.4837 0.36761,-0.29871 0.48625,-0.82437 0.92717,-1.06133 -0.50196,-0.5584 -1.07274,-1.1464 -1.73892,-1.54308 -1.26655,-0.43232 -2.6498,-0.5087 -3.84968,-1.13914 -1.07681,-0.4536 -2.23504,-0.66848 -3.40322,-0.61331 z" transform="scale(0.26458333)"/>
      <path style="fill:none;fill-rule:evenodd;stroke:#000000;stroke-width:0.264583px;stroke-linecap:butt;stroke-linejoin:miter;stroke-opacity:1" d="m 54.123132,211.18242 -4.587129,-0.22437"/>
    </g></svg>
