<svg xmlns="http://www.w3.org/2000/svg" width="64" height="64" viewBox="81.44023186034582 157.36818413359322 34.851289348570745 34.851289348570745"><defs>
    <filter style="color-interpolation-filters:sRGB" x="-0.1940961" y="-0.046480109" width="1.3881922" height="1.0929602">
      <feGaussianBlur stdDeviation="3.4637856"/>
    </filter>
  </defs><g transform="matrix(0.28222223,0,0,0.28222223,-2486.965,474.72579)">
      <path style="fill:#802800;fill-opacity:1;fill-rule:evenodd;stroke:#000000;stroke-width:0.75px;stroke-linecap:butt;stroke-linejoin:miter;stroke-opacity:1" d="m 9108.3673,-1029.0479 c -0.037,-0.8049 1.5107,-12.3735 1.4799,-13.144 -0.7581,-18.9822 0.5441,-27.7224 10.2272,-37.3872 8.3878,-7.8014 19.3863,-10.7911 27.5538,-12.3503 2.1729,-0.3201 3.6548,-0.079 5.7084,-0.159 l 11.1851,3.1459 c 8.1227,4.0407 8.0064,7.0207 16.942,9.753 1.3616,0.4164 12.3353,0.7832 21.744,1.3481 l 7.9334,3.5526 c 2.6863,2.5755 5.5138,5.8683 5.2614,11.2097 l -1.2188,2.7187 c -12.2386,0.6939 -19.246,-0.021 -27.0956,-0.5085 l -20.8822,0.7845 c 0.5987,1.1857 17.5128,2.2104 33.2266,3.4375 1.6638,0.1301 3.4145,0.1238 5.1566,0.4015 3.5988,0.5725 5.772,0.4619 8.5294,0.6862 1.1395,0.1088 1.0518,1.4762 0.905,2.9038 -1.3431,3.0508 -5.6575,2.7148 -12.0165,4.6055 -4.2107,1.2521 -8.811,0.6527 -17.9215,0.2422 l -6.6999,-0.097 -17.7426,-0.4462 h -7.2921 c -1.7901,1.2823 -2.915,2.7547 -3.9289,4.2588 -0.2932,0.4349 -0.4045,0.9645 -0.4386,1.5451 -0.035,0.5916 -0.8681,12.4861 -0.853,13.1373"/>
      <path style="fill:#570000;fill-opacity:1;fill-rule:evenodd;stroke:#000000;stroke-width:0.9375px;stroke-linecap:butt;stroke-linejoin:miter;stroke-opacity:1" d="m 9205.6244,-1073.7168 4.8047,2.9297 v 1.6992 h -3.5156 l -3.0469,-1.875 v -2.9297 z"/>
      <path style="fill:#a88476;fill-opacity:1;stroke:#000000;stroke-width:0.0585938;stroke-linecap:round;stroke-linejoin:round;stroke-dasharray:none" d="m 9160.7187,-1060.996 c -5.2042,1.5794 -10.5539,2.5897 -15.8782,3.6625 -3.8817,1.0778 -7.6716,2.7989 -10.7329,5.4584 -1.8928,1.6052 -3.3323,3.7236 -4.0314,6.1121 -1.5064,4.4889 -0.9576,9.2955 -0.964,13.9408 0.034,0.8442 -3e-4,1.7176 0.074,2.5442 6.1671,-0.04 12.355,-0.064 18.508,-0.2241 0.4575,-4.6337 0.5325,-9.3052 1.0666,-13.9313 0.4878,-1.4628 1.651,-2.6055 2.662,-3.7361 0.6216,-0.5963 1.2684,-1.2726 2.0178,-1.6511 8.8397,0.019 17.6528,0.5188 26.4922,0.6683 6.1426,-0.064 12.3457,0.8427 18.4874,0.7298 3.2724,-0.082 6.3152,-1.4378 9.4922,-2.0669 1.9389,-0.5409 4.0745,-0.792 5.7333,-2.0165 0.6657,-0.5047 0.9945,-1.3157 0.8785,-2.1421 -0.065,-0.4529 0.1531,-1.376 -0.5417,-1.4082 -3.0773,-0.2222 -6.1756,-0.7918 -9.241,-1.1848 -4.8723,-0.3474 -9.757,-0.5127 -14.6297,-0.8684 -6.9354,-0.5086 -13.9092,-0.7658 -20.7894,-1.8162 -0.8228,-0.175 -2.431,-0.4943 -2.6316,-1.5071 -4.3199,0.093 -3.4391,-0.6207 -5.9721,-0.5633 z"/>
      <path style="fill:#e6e6e6;fill-rule:evenodd;stroke:#000000;stroke-width:0.9375px;stroke-linecap:butt;stroke-linejoin:miter;stroke-opacity:1" d="m 9159.1732,-1089.75 0.679,-6.7041 -3.4589,5.7996"/>
      <path style="fill:#e6e6e6;fill-rule:evenodd;stroke:#000000;stroke-width:0.9375px;stroke-linecap:butt;stroke-linejoin:miter;stroke-opacity:1" d="m 9137.3898,-1089.3203 -3.9872,-5.4322 1.3175,6.623"/>
      <path style="fill:#e6e6e6;fill-rule:evenodd;stroke:#000000;stroke-width:0.9375px;stroke-linecap:butt;stroke-linejoin:miter;stroke-opacity:1" d="m 9130.6661,-1086.3723 -4.5734,-4.9488 2.0547,6.4326"/>
      <path style="fill:#e6e6e6;fill-rule:evenodd;stroke:#000000;stroke-width:0.9375px;stroke-linecap:butt;stroke-linejoin:miter;stroke-opacity:1" d="m 9123.7943,-1082.8865 -5.8866,-3.2794 3.9549,5.4735"/>
      <path style="fill:#e6e6e6;fill-rule:evenodd;stroke:#000000;stroke-width:0.9375px;stroke-linecap:butt;stroke-linejoin:miter;stroke-opacity:1" d="m 9118.697,-1078.2752 -5.98,-3.1058 4.1133,5.3554"/>
      <path style="fill:#381100;fill-opacity:1;fill-rule:evenodd;stroke:#000000;stroke-width:0.46875;stroke-linecap:butt;stroke-linejoin:miter;stroke-dasharray:none;stroke-opacity:1" d="m 9153.2882,-1075.4987 c 1.4031,0.6151 2.8749,1.0637 4.3182,1.558 1.152,0.6471 1.987,2.3051 1.0951,3.4812 -0.732,1.0746 -2.3049,1.48 -3.4076,0.7278 -1.2137,-0.7019 -2.702,-1.0113 -3.6305,-2.1359 -1.3782,-0.8285 -3.0873,-0.997 -4.3257,-2.0806 -1.2162,-0.8407 -2.4925,-1.9537 -2.6872,-3.5074 0.013,-0.8738 1.0773,-1.1319 1.7472,-0.8073 1.4893,0.7252 3.1323,1.0664 4.6332,1.7736 0.7345,0.3813 1.5106,0.6424 2.2573,0.9906 z"/>
      <path style="fill:#381100;fill-opacity:1;fill-rule:evenodd;stroke:#000000;stroke-width:0.46875;stroke-linecap:butt;stroke-linejoin:miter;stroke-dasharray:none;stroke-opacity:1" d="m 9170.6056,-1073.5266 c 0.9813,-2.5469 0.7588,-9.2007 4.828,-7.6155 1.5746,2.713 0.075,7.0984 -2.7345,8.4564 -0.7333,0.3547 -2.3664,0.4649 -2.0935,-0.8409 z"/>
      <path style="fill:#381100;fill-opacity:1;fill-rule:evenodd;stroke:#000000;stroke-width:0.46875;stroke-linecap:butt;stroke-linejoin:miter;stroke-dasharray:none;stroke-opacity:1" d="m 9158.3977,-1088.1308 c 3.0603,1.1983 6.038,3.0005 9.4223,2.9807 1.6222,0.3773 1.3601,2.7957 -0.4621,2.4008 -2.3349,0.2301 -4.8766,0.4115 -6.9561,-0.8889 -1.083,-1.0068 -3.6014,-1.3838 -3.2062,-3.2714 0.1639,-0.5963 0.7292,-0.8988 1.2021,-1.2212 z"/>
      <path style="fill:#381100;fill-opacity:1;fill-rule:evenodd;stroke:#000000;stroke-width:0.46875;stroke-linecap:butt;stroke-linejoin:miter;stroke-dasharray:none;stroke-opacity:1" d="m 9152.1868,-1086.0215 c -2.6155,0.1834 -4.6763,4.4931 -0.9354,4.5979 2.0828,0.7477 5.8692,-1.2984 4.1274,-3.6556 -0.8722,-0.7502 -2.0984,-0.8308 -3.192,-0.9423 z"/>
      <path style="fill:#381100;fill-opacity:1;fill-rule:evenodd;stroke:#000000;stroke-width:0.46875;stroke-linecap:butt;stroke-linejoin:miter;stroke-dasharray:none;stroke-opacity:1" d="m 9145.3901,-1083.3261 c -1.321,0.6161 -3.0074,0.8938 -3.7684,2.287 -1.2498,0.8915 -0.7171,3.0328 1.0101,2.4595 1.5392,0.091 2.9648,-0.7693 3.5941,-2.1748 0.7166,-0.9459 0.9854,-2.9845 -0.8358,-2.5717 z"/>
      <path style="fill:#381100;fill-opacity:1;fill-rule:evenodd;stroke:#000000;stroke-width:0.46875;stroke-linecap:butt;stroke-linejoin:miter;stroke-dasharray:none;stroke-opacity:1" d="m 9136.9526,-1085.5528 c -1.3105,-0.1521 -2.737,0.3268 -3.4763,1.4646 -0.3537,0.7682 -0.492,1.8698 0.1228,2.5446 0.7624,0.4692 1.8144,0.4149 2.6439,0.227 0.6876,-0.5505 1.1537,-1.347 1.689,-2.032 0.4342,-0.9428 0.2609,-2.1507 -0.9794,-2.2042 z"/>
      <path style="fill:#381100;fill-opacity:1;fill-rule:evenodd;stroke:#000000;stroke-width:0.46875;stroke-linecap:butt;stroke-linejoin:miter;stroke-dasharray:none;stroke-opacity:1" d="m 9121.2494,-1074.6543 c -1.2697,0.7404 -1.8826,2.1953 -2.5295,3.4446 -0.3911,0.975 -1.2215,3.0207 0.4235,3.2151 1.7565,0.1677 2.0976,-1.9108 2.7876,-3.0736 0.2936,-1.1459 2.0881,-2.8654 0.5667,-3.7653 -0.4625,-0.1407 -0.7939,0.3428 -1.2483,0.1792 z"/>
      <path style="fill:#381100;fill-opacity:1;fill-rule:evenodd;stroke:#000000;stroke-width:0.46875;stroke-linecap:butt;stroke-linejoin:miter;stroke-dasharray:none;stroke-opacity:1" d="m 9115.0385,-1061.998 c -0.7569,2.521 -1.8999,5.0569 -1.6192,7.7508 2.2891,1.0268 3.6193,-2.1569 4.6203,-3.6997 0.8992,-1.5887 1.0284,-4.816 -1.5055,-4.6522 -0.5434,0.043 -1.0776,0.2484 -1.4956,0.6011 z"/>
      <path style="fill:#381100;fill-opacity:1;fill-rule:evenodd;stroke:#000000;stroke-width:0.46875;stroke-linecap:butt;stroke-linejoin:miter;stroke-dasharray:none;stroke-opacity:1" d="m 9128.2305,-1081.9008 c -1.3249,1.0599 -3.3765,1.5286 -3.903,3.3358 -0.2098,2.0855 2.691,1.4758 3.1947,0.03 0.6932,-0.7546 2.3715,-2.8728 0.9675,-3.4809 z"/>
      <path style="fill:none;fill-rule:evenodd;stroke:#000000;stroke-width:0.46875;stroke-linecap:butt;stroke-linejoin:miter;stroke-dasharray:none;stroke-opacity:1" d="m 9115.1557,-1073.2481 c 0.3644,1.1882 1.4032,2.3288 0.9364,3.6427 -0.1076,0.9634 -1.0493,1.3763 -1.5372,2.1432 -0.63,0.6261 -0.7218,1.5032 -0.9933,2.2934 -0.63,0.7789 -0.5275,1.9632 -1.4889,2.4913 -0.6576,0.069 -0.9371,0.8876 -1.6043,0.9138"/>
      <path style="fill:#381100;fill-opacity:1;stroke:#000000;stroke-width:0.0585938;stroke-linecap:round;stroke-linejoin:round;stroke-dasharray:none" d="m 9114.4594,-1071.8441 c -1.6293,2.8324 -2.7516,5.9593 -3.3697,9.1613 0.2263,0.2376 0.6323,-0.1984 0.887,-0.2679 0.7704,-0.531 0.8687,-1.5886 1.3253,-2.354 0.3323,-0.8921 0.5148,-1.8722 1.2627,-2.5347 0.7957,-0.8156 1.7068,-1.9087 1.2625,-3.131 -0.2005,-0.6253 -0.4885,-1.2823 -0.8203,-1.8073 -0.1825,0.3112 -0.3651,0.6224 -0.5475,0.9336 z"/>
      <path style="fill:none;fill-rule:evenodd;stroke:#000000;stroke-width:0.46875;stroke-linecap:butt;stroke-linejoin:miter;stroke-dasharray:none;stroke-opacity:1" d="m 9182.0696,-1078.9902 c 1.5325,1.0348 2.9329,2.2679 4.6469,2.9922 1.8554,1.1303 4.0673,1.237 6.1793,1.0962 1.7249,0.1631 3.4843,-0.066 5.0605,-0.809 1.2577,-0.4608 2.6093,-0.1415 3.918,-0.2305 0.6285,-0.6026 1.2995,-1.1824 1.4063,-2.1089"/>
      <path style="fill:#381100;fill-opacity:1;stroke:#000000;stroke-width:0.0585938;stroke-linecap:round;stroke-linejoin:round;stroke-dasharray:none" d="m 9183.6087,-1078.4695 c -0.2917,0.097 0.2384,0.4017 0.3239,0.4948 1.6872,1.1532 3.4993,2.292 5.5301,2.6952 2.1418,0.1868 4.2971,0.046 6.4438,0.062 1.3129,-0.521 2.6538,-1.0524 4.0954,-0.9606 0.6365,-0.1347 1.4769,0.1824 1.9847,-0.2392 0.19,-0.3491 1.3374,-1.0178 0.4078,-1.0475 -6.0897,-0.4122 -12.1903,-0.6619 -18.2848,-0.9965 -0.1669,-0.01 -0.334,-0.011 -0.5009,-0.01 z"/>
      <g transform="rotate(15,8636.9664,-443.88337)">
        <path d="m 8985.274,-1192.9788 -1.7708,-1.7799 h -5.2815 -1.8471" style="fill:none;stroke:#000000;stroke-width:1.7799px;stroke-linecap:butt;stroke-linejoin:miter;stroke-opacity:1"/>
        <path d="m 8983.2114,-1194.6871 c 0.2506,0.4067 0.3951,0.8857 0.3951,1.3985 0,1.4744 -1.1953,2.6698 -2.6698,2.6698 -1.4746,0 -2.6699,-1.1954 -2.6699,-2.6698 0,-0.5267 0.1526,-1.018 0.4159,-1.4316 z" style="fill:#ffffff;stroke:#000000;stroke-width:0.889949;stroke-miterlimit:4;stroke-dashoffset:0;stroke-opacity:1"/>
        <circle r="0.88994873" cy="-1192.9697" cx="8980.8242" style="fill:#000000;fill-opacity:1;fill-rule:nonzero;stroke:#000000;stroke-width:0.889949;stroke-miterlimit:4;stroke-dasharray:none;stroke-dashoffset:0;stroke-opacity:1"/>
      </g>
      <path style="fill:#381100;fill-opacity:1;fill-rule:evenodd;stroke:#000000;stroke-width:0.46875;stroke-linecap:butt;stroke-linejoin:miter;stroke-dasharray:none;stroke-opacity:1" d="m 9134.6869,-1079.4703 c -1.289,0.059 -2.6076,-0.2585 -3.876,0 -0.7082,0.2386 -1.9521,0.7149 -1.5109,1.6792 0.6298,0.9461 1.9111,0.7333 2.8843,0.7206 1.4637,-0.1524 2.9912,-0.3644 4.2853,-1.1125 0.8738,-0.7379 -0.336,-1.6448 -1.1367,-1.2827 -0.2148,0.01 -0.4343,0.019 -0.646,0 z"/>
      <path style="fill:#381100;fill-opacity:1;fill-rule:evenodd;stroke:#000000;stroke-width:0.46875;stroke-linecap:butt;stroke-linejoin:miter;stroke-dasharray:none;stroke-opacity:1" d="m 9168.4126,-1072.0954 c -1.4353,-0.1111 -2.8589,-0.4942 -4.3065,-0.3529 -1.0399,0.4049 -1.3708,1.5525 -1.9944,2.3596 -0.5446,0.5397 -2.2439,1.1299 -1.2857,2.0452 0.831,0.3609 1.8061,0.3119 2.6893,0.1949 0.8298,-0.3806 1.6577,-0.7805 2.6012,-0.8408 0.9464,-0.022 1.8224,-0.352 2.7125,-0.6337 0.734,-0.4929 0.977,-2.1074 0.092,-2.4996 -0.178,-0.072 -0.3659,-0.1373 -0.5081,-0.2727 z"/>
    </g></svg>
