<svg xmlns="http://www.w3.org/2000/svg" width="64" height="64" viewBox="89.84945757293882 0.8720299107736107 25.874052275277585 25.874052275277585"><defs>
    <filter style="color-interpolation-filters:sRGB" x="-0.1940961" y="-0.046480109" width="1.3881922" height="1.0929602">
      <feGaussianBlur stdDeviation="3.4637856"/>
    </filter>
  </defs><g transform="matrix(1.912979,0,0,1.912979,-541.3429,-455.09111)">
      <g transform="matrix(0.09374999,0,0,0.09374999,-666.4845,364.70584)">
        <path style="fill:#efd2c3;fill-opacity:1;fill-rule:nonzero;stroke:#000000;stroke-width:2.27555;stroke-miterlimit:4;stroke-dasharray:none;stroke-dashoffset:0;stroke-opacity:1" d="m 10669.477,-1251.2425 c 2.879,25.1302 19.945,38.7278 31.389,38.7278 11.312,0 28.379,-13.5976 31.39,-38.7278 2.329,-19.4339 -11.817,-34.4272 -31.39,-34.4272 -19.572,0 -33.617,14.9815 -31.389,34.4272 z"/>
        <g transform="translate(952.70103,-549.4704)">
          <path d="m 9743.119,-703.79719 -2.0148,-2.02514 h -6.0092 -2.1015" style="fill:none;stroke:#000000;stroke-width:2.02513px;stroke-linecap:butt;stroke-linejoin:miter;stroke-opacity:1"/>
          <path d="m 9753.2447,-703.79719 2.2433,-2.02514 h 7.8823" style="fill:none;stroke:#000000;stroke-width:2.02513px;stroke-linecap:butt;stroke-linejoin:miter;stroke-opacity:1"/>
          <path d="m 9740.7723,-705.74091 c 0.2851,0.46274 0.4495,1.0077 0.4495,1.59114 0,1.67762 -1.36,3.0377 -3.0377,3.0377 -1.6778,0 -3.0378,-1.36008 -3.0378,-3.0377 0,-0.59923 0.1737,-1.15817 0.4733,-1.6288 z" style="fill:#ffffff;stroke:#000000;stroke-width:1.01256;stroke-miterlimit:4;stroke-dashoffset:0;stroke-opacity:1"/>
          <path d="m 9761.0236,-705.74111 c 0.285,0.46274 0.4495,1.0077 0.4495,1.59114 0,1.67762 -1.36,3.03769 -3.0378,3.03769 -1.6776,0 -3.0376,-1.36007 -3.0376,-3.03769 0,-0.59924 0.1735,-1.15817 0.4732,-1.62881 z" style="fill:#ffffff;stroke:#000000;stroke-width:1.01256;stroke-miterlimit:4;stroke-dashoffset:0;stroke-opacity:1"/>
          <circle r="1.0125639" cy="-703.78687" cx="9738.0557" style="fill:#000000;fill-opacity:1;fill-rule:nonzero;stroke:#000000;stroke-width:1.01256;stroke-miterlimit:4;stroke-dasharray:none;stroke-dashoffset:0;stroke-opacity:1"/>
          <circle r="1.0125639" cy="-703.78687" cx="9758.3711" style="fill:#000000;fill-opacity:1;fill-rule:nonzero;stroke:#000000;stroke-width:1.01256;stroke-miterlimit:4;stroke-dasharray:none;stroke-dashoffset:0;stroke-opacity:1"/>
        </g>
        <path style="fill:none;stroke:#000000;stroke-width:2.02513px;stroke-linecap:butt;stroke-linejoin:miter;stroke-opacity:1" d="m 10691.771,-1230.9913 h 4.05 10.125 4.05"/>
        <path style="fill:none;stroke:#000000;stroke-width:2.02513px;stroke-linecap:butt;stroke-linejoin:miter;stroke-opacity:1" d="m 10697.845,-1249.4705 -1.595,11.9804 h 9.101 l -1.43,-11.9804"/>
        <path style="fill:#333333;fill-opacity:1;stroke:#333333;stroke-width:2.27555;stroke-linecap:butt;stroke-linejoin:miter;stroke-miterlimit:4;stroke-dasharray:none;stroke-dashoffset:0;stroke-opacity:1" d="m 10700.205,-1289.0839 c -8.761,0.1034 -17.594,3.2457 -23.958,9.3634 -3.826,3.67 -6.765,8.3062 -8.337,13.3771 0.479,3.1581 0.835,6.3427 1.433,9.4784 0.346,0.1469 0.62,-0.4136 0.925,-0.5399 5.226,-4.1163 10.405,-8.2947 15.606,-12.4457 9.871,-0.07 19.743,-0.037 29.613,-0.1999 0.657,-0.1939 1.149,0.1385 1.606,0.5762 5.02,3.8816 10.04,7.7629 15.06,11.6444 0.435,-0.2476 0.241,-1.1605 0.429,-1.6622 0.319,-2.4002 0.865,-4.7782 1.011,-7.197 -0.06,-1.3542 -0.868,-2.5304 -1.349,-3.765 -3.389,-7.1955 -9.635,-12.9245 -16.996,-15.8894 -4.75,-1.9525 -9.918,-2.8052 -15.043,-2.7404 z"/>
      </g>
      <path style="fill:none;stroke:#000000;stroke-width:0.106667px;stroke-linecap:butt;stroke-linejoin:miter;stroke-opacity:1" d="m 335.57353,248.92657 0.32006,0.21332 0.42666,-0.21332 0.42656,0.10666 0.42675,-0.10666 0.42666,0.21332 0.32006,-0.21332"/>
      <g transform="matrix(0.09374999,0,0,0.09374999,-751.8178,723.1058)">
        <g>
          <path style="fill:#800000;fill-opacity:1;stroke:#000000;stroke-width:1.13778px;stroke-linecap:butt;stroke-linejoin:miter;stroke-opacity:1" d="m 11605.333,-5161.6858 c -25.031,4.5511 -25.031,40.96 -28.444,61.44 v 6.8267 c 20.48,-5.689 47.786,-5.689 68.266,0 v -6.8267 c -3.413,-20.48 -3.413,-56.8889 -28.444,-61.44 z"/>
          <path style="fill:none;stroke:#000000;stroke-width:1.13778px;stroke-linecap:butt;stroke-linejoin:miter;stroke-opacity:1" d="m 11611.022,-5099.1079 v -62.5778"/>
          <path d="m 11605.333,-5117.3124 c -12.515,3.4133 -17.066,5.6888 -22.755,11.3777 v 11.3778 c 21.079,-4.0923 36.947,-4.2532 56.889,0 v -11.3778 c -5.689,-5.6889 -9.102,-7.9644 -22.756,-11.3777 z" style="fill:#bfbf0a;fill-opacity:1;stroke:#000000;stroke-width:1.13778px;stroke-linecap:butt;stroke-linejoin:miter;stroke-opacity:1"/>
        </g>
        <path d="m 11607.609,-5148.0324 c -1.275,-0.7543 -2.565,-0.9877 -4.103,-0.9616 -2.997,-0.4418 -6.52,-1.0403 -9.068,1.0376 -1.703,1.6316 -1.753,5.0284 0.516,6.1894 2.549,1.5874 5.981,2.1321 7.564,4.9611 1.559,2.2244 2.19,5.1848 1.509,7.8217 -0.77,1.8492 -2.956,2.1647 -4.724,2.1353 -2.105,0.1127 -4.283,-0.12 -6.162,-1.1422 -1.98,-0.9522 -3.801,0.6054 -4.51,2.3862 -1.33,2.4651 -1.729,5.3743 -3.434,7.646 -0.723,0.6078 -1.722,0.6523 -2.621,0.6475" style="fill:none;stroke:#ffff00;stroke-width:2.27555;stroke-linecap:butt;stroke-linejoin:miter;stroke-miterlimit:4;stroke-dasharray:none;stroke-opacity:1"/>
        <path style="fill:none;stroke:#ffff00;stroke-width:2.27555;stroke-linecap:butt;stroke-linejoin:miter;stroke-miterlimit:4;stroke-dasharray:none;stroke-opacity:1" d="m 11614.435,-5148.0324 c 1.346,-0.8102 3.613,-0.9891 5.241,-0.9616 2.997,-0.4418 6.52,-1.0403 9.069,1.0376 1.703,1.6316 1.752,5.0284 -0.516,6.1894 -2.55,1.5874 -5.983,2.1321 -7.566,4.9611 -1.558,2.2244 -2.189,5.1848 -1.508,7.8217 0.77,1.8492 2.956,2.1647 4.724,2.1353 2.105,0.1127 4.284,-0.12 6.163,-1.1422 1.98,-0.9522 3.8,0.6054 4.508,2.3862 1.331,2.4651 1.729,5.3743 3.435,7.646 0.724,0.6078 1.722,0.6523 2.622,0.6475"/>
      </g>
    </g></svg>
