<svg xmlns="http://www.w3.org/2000/svg" width="64" height="64" viewBox="83.60061627484204 28.984093860506377 29.84980131924758 29.84980131924758"><defs>
    <filter style="color-interpolation-filters:sRGB" x="-0.1940961" y="-0.046480109" width="1.3881922" height="1.0929602">
      <feGaussianBlur stdDeviation="3.4637856"/>
    </filter>
  </defs><g transform="matrix(0.17934177,0,0,0.17934177,-2180.4828,864.42368)">
      <g transform="translate(1097.0268,-2826.0765)">
        <g transform="translate(868.24399,-722.14794)">
          <g transform="matrix(0.25,0,0,0.25,10669.537,-1099.7381)">
            <g>
              <path d="m 218.4613,218.45333 c -10.03748,0 -18.20445,8.16697 -18.20445,18.20445 0,10.03747 8.16697,18.20444 18.20445,18.20444 10.03747,0 18.20444,-8.16697 18.20444,-18.20444 0,-10.03748 -8.16697,-18.20445 -18.20444,-18.20445 z" style="stroke-width:1.13778"/>
              <path d="m 382.3013,218.45333 c -10.03748,0 -18.20445,8.16697 -18.20445,18.20445 0,10.03747 8.16697,18.20444 18.20445,18.20444 10.03747,0 18.20444,-8.16697 18.20444,-18.20444 0,-10.03748 -8.16697,-18.20445 -18.20444,-18.20445 z" style="stroke-width:1.13778"/>
              <path d="m 432.69917,197.94147 c -0.22756,-1.2288 -0.69405,-2.35292 -1.34031,-3.33482 2.86834,-18.92694 0.54386,-34.91271 -3.6352,-47.649 7.22375,-35.52938 4.40661,-104.488957 -19.73589,-142.7160145 -2.05255,-3.24949328 -5.92441,-4.85831105 -9.67794,-4.02318217 -3.64999,0.81351107 -6.4182,3.77173337 -7.00644,7.44334217 -1.54282,5.6319995 -17.46147,34.1037515 -39.31932,70.3954495 -25.1483,-6.045014 -47.93458,-5.401032 -51.60391,-5.24857 -3.67502,-0.152462 -26.56483,-0.796444 -51.78709,5.297494 -21.87492,-36.319004 -37.80494,-64.80896 -39.34891,-70.4443735 -0.58823,-3.6716088 -3.35645,-6.6298311 -7.00643,-7.44334217 -3.75012,-0.83626666 -7.62426,0.77255112 -9.6768,4.02318217 -24.3769,38.5956975 -20.10454,97.8420645 -18.21469,115.0816745 0.0159,0.14677 0.0466,0.28786 0.0694,0.43235 -9.61991,8.40135 -18.98042,18.26133 -27.09845,29.72217 -2.90589,4.10169 -1.93536,9.78262 2.16632,12.6885 1.59744,1.13209 3.43382,1.67481 5.25312,1.67481 2.85241,0 5.66158,-1.33689 7.43538,-3.84114 2.00363,-2.82851 4.10055,-5.53984 6.25777,-8.15673 -2.60437,6.42958 -4.00042,13.08558 -4.4544,19.63577 -0.0773,0.47787 -0.12856,0.96483 -0.12856,1.46432 0,0.13539 0.0148,0.26738 0.0205,0.40163 -0.42667,9.99538 1.28114,19.65056 4.10851,27.76064 -9.92256,57.86852 0.70429,125.70511 28.67314,182.1935 3.07086,6.20202 6.34198,12.20266 9.50499,18.0042 15.00047,27.51829 30.51066,55.97411 30.51066,117.52334 0,36.46691 33.6384,63.71555 63.71555,63.71555 h 0.46194 c 30.07716,0 63.71556,-27.24864 63.71556,-63.71555 0,-61.55037 15.51018,-90.00505 30.51064,-117.52334 3.16303,-5.80267 6.433,-11.80331 9.505,-18.0042 28.47972,-57.51922 38.99392,-126.81216 28.12587,-185.35766 z M 200.09301,30.5152 c 5.71392,10.786133 15.18365,27.505778 30.91798,53.683769 -9.68818,4.231396 -24.20395,11.455146 -39.54688,22.223071 -2.49515,-35.777418 3.04469,-60.654929 8.6289,-75.90684 z m 188.16683,344.70571 c -2.91157,5.88117 -5.95399,11.46197 -9.1739,17.37045 -16.09159,29.52078 -32.73159,60.04622 -32.73159,126.23645 0,27.78112 -26.9551,45.5111 -45.51112,45.5111 h -0.46193 c -18.55602,0 -45.51111,-17.72998 -45.51111,-45.5111 0,-66.18909 -16.64,-96.71567 -32.7316,-126.23645 -3.2199,-5.90848 -6.26232,-11.48928 -9.1739,-17.37045 -24.07765,-48.62976 -34.52018,-106.06934 -29.00878,-156.99172 1.13209,-0.24234 2.23915,-0.68153 3.25177,-1.37785 4.14265,-2.84785 5.19168,-8.51513 2.34382,-12.65777 -1.03537,-1.50642 -2.07531,-3.42927 -3.03673,-5.66614 -0.17635,-1.48594 -0.71794,-2.88654 -1.54624,-4.08917 -1.24131,-3.76263 -2.20956,-8.09529 -2.65557,-12.70329 43.95691,-2.85127 83.94297,-25.82756 116.12957,-66.89451 3.10158,-3.95719 2.40753,-9.67794 -1.54852,-12.77838 -3.95719,-3.10272 -9.67794,-2.408675 -12.77838,1.54852 -28.64584,36.54769 -62.37867,56.60899 -100.39524,59.77315 1.18556,-4.33493 3.05266,-8.59136 5.80722,-12.55424 2.86834,-4.12786 1.84775,-9.80082 -2.28011,-12.66916 -1.3403,-0.93184 -2.84444,-1.44611 -4.36224,-1.58378 26.51364,-24.52708 56.59421,-36.48171 64.23325,-39.259023 26.35434,-7.537778 52.53461,-6.321494 52.78834,-6.30784 0.3163,0.01707 0.63374,0.01707 0.95004,0 0.21959,-0.01365 18.63566,-0.899982 40.21703,3.305244 -12.47118,14.838899 -30.49472,28.940519 -43.73731,33.639539 -4.73771,1.68164 -7.21579,6.88469 -5.53416,11.6224 1.32438,3.73077 4.83328,6.06094 8.57885,6.06094 1.01035,0 2.03776,-0.16953 3.04355,-0.52565 19.48104,-6.91314 44.89216,-27.97341 59.1087,-48.9893 0.46194,-0.682667 0.80896,-1.408569 1.06382,-2.153813 0.15588,-0.212765 0.30492,-0.433494 0.44373,-0.662187 19.21365,-31.714418 30.21938,-51.078258 36.54997,-63.04768 9.91574,25.776355 13.32794,60.662898 12.09686,88.18005 -3.18806,-4.10738 -5.57966,-6.39886 -5.96196,-6.75612 -3.65795,-3.42358 -9.37642,-3.23129 -12.81706,0.40846 -3.44178,3.63975 -3.27794,9.39122 0.3436,12.8512 1.27887,1.22198 31.14895,30.50951 15.74002,81.78802 -1.44611,4.81394 1.28342,9.88956 6.09736,11.33682 0.3948,0.11832 0.79189,0.20024 1.18784,0.26396 5.4875,50.89735 -4.95616,108.29255 -29.01789,156.88932 z" style="stroke-width:1.13778"/>
            <path d="m 288.24576,521.14546 c -4.23709,-3.79108 -6.62755,-15.10173 -6.09166,-28.81764 0.0159,-0.41301 0.0227,-0.68721 0.0227,-0.80782 0,-5.0267 -4.07552,-9.10222 -9.10222,-9.10222 -4.97778,0 -9.02144,3.99473 -9.10109,8.95203 l -0.01,0.2469 c -0.45397,11.63036 0.51883,32.69404 12.1435,43.09561 1.73739,1.55421 3.906,2.31879 6.06664,2.31879 2.49969,0 4.98915,-1.024 6.78684,-3.03332 3.35076,-3.74556 3.03104,-9.4993 -0.71566,-12.85233 z" style="stroke-width:1.13778"/>
            <path d="m 336.69234,491.3755 c -0.0773,-4.96071 -4.12331,-8.95772 -9.10109,-8.95772 -5.0267,0 -9.10222,4.07552 -9.10222,9.10222 0,0.11947 0.005,0.39139 0.0217,0.80099 0.51882,13.54184 -1.87961,25.15286 -5.96878,28.89046 -3.71029,3.39172 -3.96857,9.15001 -0.57571,12.85916 1.79541,1.96494 4.25301,2.9605 6.72085,2.9605 2.19249,0 4.39296,-0.78848 6.13945,-2.38478 11.36867,-10.3936 12.32099,-31.41632 11.87612,-43.02279 z" style="stroke-width:1.13778"/>
            </g>
          </g>
          <path style="fill:none;stroke:#000000;stroke-width:1.13778px;stroke-linecap:butt;stroke-linejoin:miter;stroke-opacity:1" d="m 10738.915,-1066.539 h 6.543"/>
          <path style="fill:#d3cac7;fill-opacity:1;stroke:#000000;stroke-width:0.284445;stroke-linecap:round;stroke-linejoin:miter;stroke-miterlimit:4;stroke-dasharray:none;stroke-dashoffset:0;stroke-opacity:1" d="m 10767.913,-1088.9268 c -3.288,5.6036 -6.318,11.4821 -10.362,16.5474 -3.397,3.6674 -7.439,7.1623 -12.243,8.8037 -1.371,0.5316 -2.791,-0.3954 -2.934,-1.8311 -1.133,-1.1117 -3.224,-0.5175 -4.082,0.719 -6.089,5.8407 -14.187,9.4243 -22.566,10.4187 -1.129,0.6673 0.03,2.2661 0.168,3.2178 0.446,1.6648 2.31,3.6435 0.64,5.1911 -1.929,1.0338 -0.871,3.3573 -1.131,5.1022 -0.154,6.7498 0.217,13.5572 2.079,20.0722 2.07,9.4132 7.124,17.7131 11.169,26.31895 3.68,7.6397 4.347,16.17505 4.723,24.52243 0.03,5.57243 4.887,10.2832 10.245,10.9798 6.43,0.59048 12.44,-5.01646 12.481,-11.43938 0,-10.26939 2.102,-20.65217 7.295,-29.60005 6.334,-11.21325 10.592,-23.84355 10.615,-36.82695 -0.118,-2.7685 0.53,-5.7953 -0.542,-8.4092 -1.709,-0.7669 -1.596,-2.9179 -1.031,-4.4266 1.023,-5.1266 0.864,-10.6853 -1.864,-15.2837 -0.612,-2.0776 -3.101,-3.3042 -3.087,-5.5608 0.07,-2.0038 2.735,-2.5087 3.928,-1.1289 1.74,2.342 1.261,-0.7495 1.215,-2.1495 -0.106,-6.156 -0.766,-12.3544 -2.868,-18.1705 -0.805,0.5486 -1.215,2.0524 -1.848,2.9334 z m -43.485,43.9022 c 3.423,-0.1038 5.378,4.3004 3.431,6.96 -1.945,3.2137 -7.782,2.2115 -8.125,-1.68 -0.58,-2.8918 1.728,-5.5277 4.694,-5.28 z m 40.96,0 c 3.423,-0.1038 5.378,4.3004 3.431,6.96 -1.945,3.2137 -7.782,2.2115 -8.125,-1.68 -0.58,-2.8918 1.728,-5.5277 4.694,-5.28 z m -27.662,66.02665 c 1.957,-0.28812 2.507,1.97465 2.295,3.5198 -0.05,2.50401 0.922,4.83027 2.078,6.9513 0.825,1.83042 -1.506,3.90387 -3.173,2.62223 -3.059,-2.32503 -3.255,-6.65152 -3.467,-10.22223 -0.07,-1.41244 0.648,-2.95837 2.267,-2.8711 z m 13.671,0 c 1.707,-0.32572 2.373,1.52441 2.242,2.92422 0.01,3.61261 -0.268,8.01134 -3.468,10.27578 -1.84,1.03862 -3.887,-1.22026 -2.89,-3.00446 1.752,-2.28219 1.759,-5.29699 1.903,-8.06221 0.06,-1.21427 0.957,-2.22605 2.213,-2.13333 z"/>
        </g>
        <path d="m 11612.806,-1718.7463 c -5.052,0.298 -10.09,1.979 -14.545,4.1609 1.476,5.4973 2.896,11.0852 3.1,16.8309 0.463,4.9283 0.331,10.9767 4.972,14.0179 3.903,3.6551 10.321,3.0921 13.952,-0.6537 3.26,-2.7543 4.073,-7.1265 3.885,-11.2006 0.395,-6.7135 1.873,-13.3719 3.796,-19.7487 -4.754,-1.8573 -9.969,-3.4732 -15.16,-3.4067 z m -6.977,17.4733 c 2.956,-0.3602 2.514,3.5007 2.941,5.3929 -0.03,2.5338 2.919,5.1175 1.195,7.4923 -1.544,2.096 -4.147,0.079 -4.752,-1.7725 -1.341,-3.1241 -2.265,-7.036 -1.094,-10.3081 0.371,-0.5673 1.039,-0.7777 1.71,-0.8046 z m 13.527,0.063 c 2.382,-0.4093 3.161,2.2265 2.729,4.0975 -0.321,3.4699 -0.689,8.5115 -4.679,9.655 -2.564,-0.3467 -2.568,-3.6346 -1.243,-5.2924 1.312,-2.5548 0.206,-6.1017 2.274,-8.2212 0.274,-0.1734 0.599,-0.2234 0.919,-0.2389 z" style="fill:#bfb3ae;fill-opacity:1;stroke:none;stroke-width:1.13778"/>
      </g>
    </g></svg>
