<svg xmlns="http://www.w3.org/2000/svg" width="64" height="64" viewBox="14.970289879647272 2.256931880786013 47.52966830557525 47.52966830557525"><defs>
    <filter style="color-interpolation-filters:sRGB" x="-0.1940961" y="-0.046480109" width="1.3881922" height="1.0929602">
      <feGaussianBlur stdDeviation="3.4637856"/>
    </filter>
  </defs><g transform="matrix(0.55534783,0,0,0.55534783,-139.6728,-68.350066)">
      <path d="m 305.27287,163.56018 c 0,0 1.27189,-13.23846 2.68188,-19.49217 0.57883,-2.5676 -6.10817,-6.00278 -6.10817,-6.00278 0,0 11.60642,0.4147 11.59296,2.96336 -0.0299,5.67383 -1.2636,19.43771 -1.2636,19.43771" style="fill:#4d4d4d;stroke:#000000;stroke-width:0.529167;stroke-linecap:butt;stroke-linejoin:miter;stroke-miterlimit:4;stroke-dasharray:none;stroke-opacity:1"/>
      <path style="fill:#e6e6e6;stroke:#000000;stroke-width:0.681129;stroke-linecap:butt;stroke-linejoin:miter;stroke-miterlimit:4;stroke-dasharray:none;stroke-opacity:1" d="m 307.59155,183.97502 2.06776,0.0608 -0.42573,-2.18933"/>
      <path style="fill:#e6e6e6;stroke:#000000;stroke-width:0.681129;stroke-linecap:butt;stroke-linejoin:miter;stroke-miterlimit:4;stroke-dasharray:none;stroke-opacity:1" d="m 305.83435,187.15984 h 1.33788 l -0.24314,-1.76364"/>
      <path style="fill:#592220;fill-opacity:1;stroke:#000000;stroke-width:0.529167;stroke-linecap:butt;stroke-linejoin:miter;stroke-miterlimit:4;stroke-dasharray:none;stroke-opacity:1" d="m 315.99215,154.37906 c 3.00011,-4.20474 6.76806,-8.09475 11.36916,-11.35242 0.53833,1.22933 1.06764,2.46245 1.58786,3.69934 l -0.26769,0.96393 c 0.27449,-0.20785 0.55248,-0.41328 0.83397,-0.61583 3.88307,-2.80984 8.49946,-5.04343 13.59826,-6.40179 0.0814,1.33988 0.15206,2.67981 0.21192,4.01972 l 0.3068,0.67298 c 4.87426,-1.50734 9.40675,-1.98182 15.06559,-1.33564 -0.41385,1.27714 -0.83896,2.55047 -1.18158,3.62771 l 0.66302,25.36659 c -10.19674,-8.32308 -26.65447,-5.79283 -32.90677,6.97612 -2.94135,-0.0956 4.35542,2.00722 -1.7719,5.38615 -0.42765,0.55536 -1.32512,0.9974 -1.60715,1.64586 -2.40134,6.05535 -9.17487,7.86032 -13.06271,12.47013 0.32876,1.5026 -0.50633,2.24282 -0.2906,3.25511 -2.56427,0.26566 -12.91396,-4.42904 -5.70764,-5.6714 5.79414,-2.81755 9.58069,-8.63098 11.75247,-14.51061 1.0197,-2.82277 -0.66889,-3.87586 -0.66889,-3.87586 0,0 -4.27824,2.11602 -5.07063,4.28354 -2.97192,5.00099 -7.56966,8.16487 -12.31838,11.43952 -0.84865,1.80679 -0.48241,4.13709 -0.48241,4.13709 -1.69748,-0.96303 -6.21893,-5.01301 -8.98124,-7.97086 -5.98638,-5.67435 7.1735,-3.73501 7.48008,-9.66142 1.48302,-3.61504 3.74661,-6.80969 5.75541,-10.13425 -0.0493,-2.44083 1.17049,-4.19595 2.9022,-5.67207 0.24193,-0.61965 2.00621,-0.91703 2.49753,-1.618 l -0.12717,0.93626 c 1.8014,-4.85338 4.36838,-9.66618 7.76633,-14.12077 0.91852,1.12638 0.75071,0.29159 2.62357,3.05712 z"/>
      <path style="fill:none;stroke:#000000;stroke-width:1.36226;stroke-linecap:butt;stroke-linejoin:miter;stroke-miterlimit:4;stroke-dasharray:none;stroke-opacity:1" d="m 291.2197,190.76264 c -2.27446,-1.8431 3.35272,-5.25587 2.83811,-1.72011"/>
      <g transform="matrix(1.3514474,-1.1827963,1.1827963,1.3514474,53.602384,238.23915)">
        <path d="m 129.09663,64.202361 c 0,0 1.07062,-0.853334 1.70667,-0.853334 0.63603,0 1.70666,0.853334 1.70666,0.853334 0,0 -1.07063,0.853333 -1.70666,0.853333 -0.63605,0 -1.70667,-0.853333 -1.70667,-0.853333 z" style="fill:#ffffff;stroke:#000000;stroke-width:0.426667;stroke-linecap:butt;stroke-linejoin:miter;stroke-miterlimit:4;stroke-dasharray:none;stroke-opacity:1"/>
        <path style="fill:#ffff00;fill-opacity:1;stroke:#000000;stroke-width:0.341333;stroke-linecap:round;stroke-linejoin:miter;stroke-miterlimit:4;stroke-dashoffset:0;stroke-opacity:1" d="m 131.48596,64.202359 c 0,0.377027 -0.30564,0.682667 -0.68266,0.682667 -0.37703,0 -0.68267,-0.30564 -0.68267,-0.682667 0,-0.377026 0.30564,-0.682666 0.68267,-0.682666 0.37702,0 0.68266,0.30564 0.68266,0.682666 z"/>
      </g>
      <path style="fill:#e6e6e6;stroke:#000000;stroke-width:1.36226;stroke-linecap:butt;stroke-linejoin:bevel;stroke-miterlimit:4;stroke-dasharray:none;stroke-opacity:1" d="m 296.52322,194.86093 3.52724,1.45953 -2.06767,-2.73664"/>
      <path style="fill:#e6e6e6;stroke:#000000;stroke-width:0.681129;stroke-linecap:butt;stroke-linejoin:miter;stroke-miterlimit:4;stroke-dasharray:none;stroke-opacity:1" d="m 300.31617,191.99726 1.52039,0.12164 -0.18274,-1.27713"/>
      <path style="fill:#e6e6e6;stroke:#000000;stroke-width:0.681129;stroke-linecap:butt;stroke-linejoin:miter;stroke-miterlimit:4;stroke-dasharray:none;stroke-opacity:1" d="m 303.46256,189.49321 1.09468,0.0608 0.12164,-1.33793"/>
      <path style="fill:#4d4d4d;stroke:#000000;stroke-width:0.529167;stroke-linecap:butt;stroke-linejoin:miter;stroke-miterlimit:4;stroke-dasharray:none;stroke-opacity:1" d="m 307.85817,162.79254 c 0,0 4.79659,-12.72126 7.49893,-18.53456 1.1095,-2.38673 -4.69838,-7.16012 -4.69838,-7.16012 0,0 11.25533,2.86317 10.70246,5.35121 -1.2308,5.53876 -5.35125,18.72923 -5.35125,18.72923"/>
      <g transform="matrix(2.3945928,0,0,2.3945928,-364.6581,-212.52855)" style="fill:#800000;stroke-width:0.220984;stroke-dasharray:none">
        <path d="m 287.11678,161.6651 8.6918,0.14367 c -1.28877,-1.6531 -1.37441,-3.46829 -1.29301,-5.27974 -2.01407,-0.8556 -2.56709,-2.28737 -2.80148,-3.84307 -1.9268,-0.42947 -2.99526,-1.63925 -3.77123,-3.05289 l -4.20223,8.00938 c 1.56532,1.21519 3.44876,2.33948 3.37615,4.02265 z" style="fill:#808080;stroke:none;stroke-width:0.220984;stroke-linecap:butt;stroke-linejoin:miter;stroke-miterlimit:4;stroke-dasharray:none;stroke-opacity:1"/>
        <path d="m 287.11678,161.6651 8.6918,0.14367 c -1.28877,-1.6531 -1.37441,-3.46829 -1.29301,-5.27974 -2.01407,-0.8556 -2.56709,-2.28737 -2.80148,-3.84307 -1.9268,-0.42947 -2.99526,-1.63925 -3.77123,-3.05289 l -4.20223,8.00938" style="fill:none;stroke:#000000;stroke-width:0.220984;stroke-linecap:butt;stroke-linejoin:miter;stroke-miterlimit:4;stroke-dasharray:none;stroke-opacity:1"/>
        <path d="m 285.24912,159.22278 6.60864,-6.60865" style="fill:#800000;stroke:#000000;stroke-width:0.110492;stroke-linecap:butt;stroke-linejoin:miter;stroke-miterlimit:4;stroke-dasharray:none;stroke-opacity:1"/>
        <path d="m 286.54212,160.44394 7.97346,-3.87898" style="fill:#800000;stroke:#000000;stroke-width:0.110492;stroke-linecap:butt;stroke-linejoin:miter;stroke-miterlimit:4;stroke-dasharray:none;stroke-opacity:1"/>
      </g>
      <path style="fill:#000000;fill-opacity:1;stroke:none;stroke-width:5;stroke-linecap:round;stroke-linejoin:round;stroke-dasharray:none;filter:url(#filter105241)" d="m 5607.3739,-1112.4218 c -2.2163,0.4457 -5.2055,-0.586 -7.0362,0.955 0.7732,4.8053 5.1834,8.1056 8.5461,11.2664 8.1216,7.1988 18.0147,13.3178 23.0369,23.2844 1.79,5.0027 2.2383,10.8878 0.3536,15.916 -2.2343,2.4736 -5.949,3.1436 -8.1582,5.7793 -6.3271,5.1415 -8.9678,13.5077 -8.4063,21.459 0.4247,8.6178 -4.5881,16.0323 -8.0708,23.5284 -2.5904,5.2074 -7.2339,9.7418 -7.1255,15.96087 -0.3926,6.89521 4.0892,13.31006 10.3516,15.97949 3.6716,1.87288 6.3873,5.74488 5.5917,10.01366 0.4278,5.79722 -5.3593,10.51259 -3.4228,16.4336 2.4532,8.57714 11.9755,11.63619 17.0049,18.25489 2.2264,0.20323 4.4881,-1.43127 6.7305,-1.76367 1.7431,-0.0404 2.3471,-1.63071 1.3496,-2.93067 -3.4886,-6.98771 -11.6535,-9.66203 -15.9961,-15.91601 4.3369,-7.98867 6.1602,-18.55325 0.5752,-26.43067 -2.4269,-4.09095 -7.0129,-5.71824 -10.6192,-8.41015 -2.9628,-2.86063 -1.9754,-7.78088 0.598,-10.56841 4.8963,-9.19003 10.9494,-18.29233 12.4055,-28.80993 0.6262,-6.0416 -0.8282,-13.0683 3.8256,-17.9215 2.1764,-3.1036 5.8783,-4.0491 9.0713,-5.6074 5.5506,-6.8633 6.1677,-16.6751 4.0948,-25 -3.3289,-12.1106 -14.1691,-19.8938 -23.2877,-27.6096 -3.1812,-2.3266 -5.9165,-5.328 -8.9867,-7.6941 -0.7856,-0.2249 -1.6197,-0.1642 -2.4258,-0.1689 z" transform="matrix(0.26458334,0,0,0.26458334,-1197.9452,436.12154)"/>
    </g></svg>
