<svg xmlns="http://www.w3.org/2000/svg" width="64" height="64" viewBox="89.78945307885957 126.42774152676886 14.514288772738025 14.514288772738025"><defs>
    <filter style="color-interpolation-filters:sRGB" x="-0.1940961" y="-0.046480109" width="1.3881922" height="1.0929602">
      <feGaussianBlur stdDeviation="3.4637856"/>
    </filter>
  </defs><g transform="matrix(0.28222223,0,0,0.28222223,-2489.6231,508.73207)">
      <path style="fill:#4e814e;fill-opacity:1;fill-rule:evenodd;stroke:#000000;stroke-width:0.937499px;stroke-linecap:butt;stroke-linejoin:miter;stroke-opacity:1" d="m 9142.864,-1321.4072 9.375,-14.0625 4.6875,-4.6875 12.1875,-5.625 13.125,-2.8125 h 5.625 l -2.8125,7.5 v 6.5625 10.3125 l 0.9375,6.5625 -1.875,3.75 -4.6875,3.75 -14.0625,0.9375 -14.0625,-1.875 -6.5625,-2.8125 -1.875,-5.625 z"/>
      <path style="fill:#b2dc7b;stroke:#000000;stroke-width:0.468751;stroke-linecap:round;stroke-linejoin:round" d="m 9149.096,-1330.7562 35.9555,-4.7135 v 3.75 l -38.4375,5.625 z"/>
      <circle style="fill:#2d612d;fill-opacity:1;stroke:#000000;stroke-width:0.468751;stroke-linecap:round;stroke-linejoin:round" cx="9161.6143" cy="-1331.7197" r="5.7487884"/>
      <circle style="fill:#ffffff;stroke:#000000;stroke-width:0.468751;stroke-linecap:round;stroke-linejoin:round" cx="9161.6143" cy="-1331.7197" r="0.93749279"/>
      <path style="fill:none;fill-rule:evenodd;stroke:#000000;stroke-width:0.937499px;stroke-linecap:butt;stroke-linejoin:miter;stroke-opacity:1" d="m 9142.864,-1320.4697 h 10.3125 13.125"/>
      <circle style="fill:#008080;fill-opacity:1;stroke:#000000;stroke-width:0.468751;stroke-linecap:round;stroke-linejoin:round" cx="9173.8018" cy="-1338.2822" r="0.93749994"/>
      <circle style="fill:#b2dc7b;fill-opacity:1;stroke:#000000;stroke-width:0.468751;stroke-linecap:round;stroke-linejoin:round" cx="9171.458" cy="-1333.126" r="1.40625"/>
      <circle style="fill:#b2dc7b;fill-opacity:1;stroke:#000000;stroke-width:0.468751;stroke-linecap:round;stroke-linejoin:round" cx="9178.4893" cy="-1332.6572" r="0.93749994"/>
      <circle style="fill:#008080;fill-opacity:1;stroke:#000000;stroke-width:0.468751;stroke-linecap:round;stroke-linejoin:round" cx="9171.458" cy="-1327.501" r="1.40625"/>
      <circle style="fill:#008080;fill-opacity:1;stroke:#000000;stroke-width:0.468751;stroke-linecap:round;stroke-linejoin:round" cx="9178.0205" cy="-1328.4385" r="1.40625"/>
      <circle style="fill:#008080;fill-opacity:1;stroke:#000000;stroke-width:0.468751;stroke-linecap:round;stroke-linejoin:round" cx="9175.208" cy="-1324.6885" r="1.40625"/>
      <circle style="fill:#008080;fill-opacity:1;stroke:#000000;stroke-width:0.468751;stroke-linecap:round;stroke-linejoin:round" cx="9152.708" cy="-1325.626" r="1.40625"/>
      <circle style="fill:#008080;fill-opacity:1;stroke:#000000;stroke-width:0.468751;stroke-linecap:round;stroke-linejoin:round" cx="9161.1455" cy="-1322.8135" r="1.40625"/>
      <circle style="fill:#008080;fill-opacity:1;stroke:#000000;stroke-width:0.468751;stroke-linecap:round;stroke-linejoin:round" cx="9167.708" cy="-1340.626" r="1.40625"/>
      <circle style="fill:#008080;fill-opacity:1;stroke:#000000;stroke-width:0.468751;stroke-linecap:round;stroke-linejoin:round" cx="9175.208" cy="-1342.501" r="1.40625"/>
      <circle style="fill:#008080;fill-opacity:1;stroke:#000000;stroke-width:0.468751;stroke-linecap:round;stroke-linejoin:round" cx="9181.7705" cy="-1344.376" r="1.40625"/>
      <circle style="fill:#008080;fill-opacity:1;stroke:#000000;stroke-width:0.468751;stroke-linecap:round;stroke-linejoin:round" cx="9178.958" cy="-1338.751" r="1.40625"/>
      <circle style="fill:#008080;fill-opacity:1;stroke:#000000;stroke-width:0.468751;stroke-linecap:round;stroke-linejoin:round" cx="9148.0205" cy="-1323.751" r="1.40625"/>
      <circle style="fill:#b2dc7b;fill-opacity:1;stroke:#000000;stroke-width:0.468751;stroke-linecap:round;stroke-linejoin:round" cx="9153.6455" cy="-1331.251" r="1.40625"/>
      <circle style="fill:#008080;fill-opacity:1;stroke:#000000;stroke-width:0.468751;stroke-linecap:round;stroke-linejoin:round" cx="9164.8955" cy="-1340.626" r="1.40625"/>
      <ellipse style="fill:#008080;fill-opacity:1;stroke:#000000;stroke-width:0.468751;stroke-linecap:round;stroke-linejoin:round" cx="9170.0518" cy="-1321.876" rx="0.93749994" ry="1.40625"/>
      <path style="fill:#63a463;fill-opacity:1;stroke:#000000;stroke-width:0.0220837;stroke-linecap:round;stroke-linejoin:round" d="m 9184.8645,-1321.7159 c -1.164,0.5437 -2.296,1.1612 -3.4613,1.6974 -2.2174,0.6338 -4.4348,1.2676 -6.6522,1.9014 -2.8244,-0.6224 -5.6458,-1.2719 -8.4721,-1.8773 -7.6484,0 -15.2967,0 -22.945,0 -0.084,0.3333 0.1421,0.681 0.2093,1.013 0.5063,1.585 1.032,3.1688 1.5722,4.7395 2.1077,0.8956 4.206,1.8245 6.3195,2.6995 4.6584,0.6143 9.3105,1.2813 13.9764,1.8357 4.6145,-0.2552 9.2245,-0.5977 13.8366,-0.8967 1.4992,-1.1882 2.993,-2.3891 4.4857,-3.5865 0.5892,-1.1847 1.1896,-2.3657 1.7719,-3.5526 -0.2001,-1.32 -0.3475,-2.6506 -0.5981,-3.9615 -0.01,-0.015 -0.03,-0.014 -0.043,-0.01 z"/>
    </g></svg>
