<svg xmlns="http://www.w3.org/2000/svg" width="64" height="64" viewBox="86.36842002661382 194.40709460082985 54.59939943597922 54.59939943597922"><defs>
    <filter style="color-interpolation-filters:sRGB" x="-0.1940961" y="-0.046480109" width="1.3881922" height="1.0929602">
      <feGaussianBlur stdDeviation="3.4637856"/>
    </filter>
  </defs><g transform="matrix(0.38100001,0,0,0.38100001,-6.8844746,-329.77162)">
      <path d="m 255.07736,1466.6703 13.78874,5.7088 26.01281,-0.051 c 2.33613,1.1517 4.82667,2.0531 7.39843,2.6778 6.75392,1.6139 13.72934,1.244 19.5918,-1.0391 l 32.4894,1.8725 3.92969,7.6777 5.48047,-18.3496 -28.75112,-5.8119 -0.73633,-8.8985 32.9894,-3.5561 3.81674,0.4444 2.71297,-0.6592 5.30678,-24.5034 -10.89285,5.3572 -63.26507,-15.7079 -29.90206,-0.4495 -21.33233,1.4041" style="fill:#d06016;fill-opacity:1;fill-rule:evenodd;stroke:#000000;stroke-width:1px;stroke-linecap:butt;stroke-linejoin:miter;stroke-opacity:1"/>
      <g transform="rotate(15,-5311.7406,-32796.239)">
        <path d="m 8985.274,-1192.9788 -1.7708,-1.7799 h -5.2815 -1.8471" style="fill:none;stroke:#000000;stroke-width:1.7799px;stroke-linecap:butt;stroke-linejoin:miter;stroke-opacity:1"/>
        <path d="m 8983.2114,-1194.6871 c 0.2506,0.4067 0.3951,0.8857 0.3951,1.3985 0,1.4744 -1.1953,2.6698 -2.6698,2.6698 -1.4746,0 -2.6699,-1.1954 -2.6699,-2.6698 0,-0.5267 0.1526,-1.018 0.4159,-1.4316 z" style="fill:#ffffff;stroke:#000000;stroke-width:0.889949;stroke-miterlimit:4;stroke-dashoffset:0;stroke-opacity:1"/>
        <circle r="0.88994873" cy="-1192.9697" cx="8980.8242" style="fill:#000000;fill-opacity:1;fill-rule:nonzero;stroke:#000000;stroke-width:0.889949;stroke-miterlimit:4;stroke-dasharray:none;stroke-dashoffset:0;stroke-opacity:1"/>
      </g>
      <path d="m 335,1452.3622 c -2.35725,2.7421 -6.27536,1.4944 -9.37391,2.2638 -3.51237,0.7366 -7.49842,1.0146 -10.58668,-1.1467 -5.83267,-2.1936 -11.97856,0.4204 -17.21395,2.9938 -4.20977,1.4229 -8.70937,0.51 -13.04183,0.443 -3.38927,-0.2895 -6.65209,-1.5195 -9.42975,-3.465 -2.82352,-1.0881 -6.79817,-1.2757 -9.21135,0.6564 -0.57992,1.0182 -10.61457,1.1653 -11.686,1.9289" style="fill:none;fill-rule:evenodd;stroke:#000000;stroke-width:1px;stroke-linecap:butt;stroke-linejoin:miter;stroke-opacity:1"/>
      <path d="m 356.42966,1478.6408 c -1.02088,-1.9967 -1.73742,-3.1951 -1.96428,-3.285 -0.19643,-0.078 -7.62947,-0.5502 -16.51786,-1.0496 l -16.16072,-0.908 -1.58436,0.5337 c -2.64718,0.8917 -5.03537,1.2796 -8.52023,1.3837 -5.56966,0.1665 -10.06256,-0.6808 -15.13236,-2.8537 l -1.66552,-0.7138 -5.56662,0.2068 c -3.06164,0.1137 -8.81232,0.3291 -12.7793,0.4786 -3.96697,0.1496 -7.27084,0.2069 -7.34194,0.1275 -0.0711,-0.079 -14.06317,-5.4543 -14.06317,-5.4543 0,0 -0.15338,-9.808 0.0148,-10.5765 0.10196,-0.4659 11.21853,-1.0173 11.27689,-1.3797 0.13019,-0.8083 0.77841,-1.2568 2.43002,-1.6813 0.84632,-0.2175 1.56649,-0.268 2.75325,-0.1931 2.04438,0.129 3.13553,0.4654 4.76221,1.4683 1.46037,0.9004 3.49289,1.732 5.50015,2.2505 2.03351,0.5252 9.82691,0.9815 12.41621,0.7269 2.28055,-0.2242 3.30625,-0.5315 6.26825,-1.8783 6.45758,-2.9361 11.06865,-3.3582 15.10433,-1.3825 2.66076,1.3026 5.17491,1.5532 9.00773,0.898 1.16172,-0.1986 3.27908,-0.431 4.70524,-0.5163 1.80004,-0.1077 2.90016,-0.2638 3.59735,-0.5104 l 1.00432,-0.3551 0.10857,1.0946 c 0.0597,0.6021 0.16255,1.8855 0.22854,2.8521 0.10616,1.555 0.16308,1.7754 0.49425,1.9134 0.20586,0.086 3.38767,0.7572 7.07071,1.4919 13.54518,2.7023 20.95872,4.2186 21.04442,4.3043 0.10308,0.1031 -4.66221,16.1597 -4.79429,16.1544 -0.0492,0 -0.81263,-1.4182 -1.69656,-3.1471 z" style="opacity:1;fill:#ffb380;fill-opacity:1;stroke:#000000;stroke-width:0.178571;stroke-linecap:butt;stroke-miterlimit:4;stroke-dasharray:none;stroke-dashoffset:0;stroke-opacity:1"/>
      <path d="m 325,1462.3622 c -0.49247,-2.2017 -3.21014,-2.3151 -4.39791,-3.9484 -2.16467,-1.7975 -5.21303,-1.0655 -7.62345,-0.2379 -2.8085,1.1216 -5.82975,1.493 -8.72919,2.2717 -2.32196,0.8213 -4.63334,1.9403 -7.15945,1.8285 -3.05057,0.2029 -6.1464,-0.1839 -9.1469,0.558 -1.80917,0.3528 -3.72474,-1.1032 -5.2712,0.477 -1.20829,1.0473 -1.84649,-0.187 -2.6719,-0.949" style="fill:none;fill-rule:evenodd;stroke:#000000;stroke-width:1px;stroke-linecap:butt;stroke-linejoin:miter;stroke-opacity:1"/>
      <path d="m 325,1467.3622 c 0.46971,1.1226 -0.62345,2.6537 -1.73416,1.6279 -1.68124,-0.5655 -3.39631,0.1871 -4.91177,0.8753 -1.52993,0.8608 -2.91289,2.1304 -4.72737,2.3343 -1.55152,0.3489 -2.86317,-0.8064 -3.81474,-1.8763 -1.65287,-1.3741 -3.92032,-1.3389 -5.94485,-1.5693 -1.92204,-0.036 -3.75021,-0.7946 -5.66594,-0.9467 -1.00936,0.042 -2.27366,-0.6604 -2.90953,-0.8691 -0.0911,0.1453 -0.19388,0.2826 -0.29164,0.4233" style="fill:none;fill-rule:evenodd;stroke:#000000;stroke-width:1px;stroke-linecap:butt;stroke-linejoin:miter;stroke-opacity:1"/>
      <path d="m 280,1467.3622 c -0.18843,-0.059 0.0889,0.333 -0.23723,0.2444 -1.02318,0.4365 -2.15523,0.2583 -3.2336,0.2809 -0.60967,0.2486 -1.28318,0.2397 -1.92416,0.1567 -0.60224,0.081 -1.18582,0.2918 -1.80375,0.2126 -0.60445,0.039 -1.17112,0.029 -1.71362,-0.2005 -0.48724,0.05 -0.97134,0.036 -1.45999,0.03 -0.4116,2e-4 -0.82319,5e-4 -1.23479,0 0.20848,-0.531 0.91646,-0.3684 1.33456,-0.6273 0.0912,-0.028 0.18218,-0.057 0.27258,-0.087" style="fill:none;fill-rule:evenodd;stroke:#000000;stroke-width:1px;stroke-linecap:butt;stroke-linejoin:miter;stroke-opacity:1"/>
      <path d="m 360,1432.3622 c 0.10464,0.1944 0.314,0.6306 0.36289,0.6762 -0.4639,-0.8523 -0.93351,-1.7283 -1.65032,-2.3989 -0.42948,-0.1552 -0.82422,0.2394 -1.08436,0.5339 -0.30056,0.2466 -0.55715,0.5306 -0.76724,0.8538 -0.35717,0.1769 -0.2198,0.5527 -0.39353,0.8531 -0.0742,0.3226 -0.0685,0.6174 -0.22733,0.9245 -0.0477,0.3237 0.0288,0.6518 0.007,0.98 0.004,0.3235 0.006,0.647 0.003,0.9705 0.39498,0.055 0.14618,0.6524 0.51245,0.7831 0.13452,0.1681 0.27898,0.2662 0.40844,0.3913 -0.046,0.089 0.31499,0.065 0.40536,0.2053 0.25566,0.142 0.55695,0.01 0.83704,0.048 0.26479,0 0.52958,-0.01 0.79439,-0.01 0.36888,-0.2599 0.39012,-0.7528 0.62201,-1.1091 0.19375,-0.3862 0.53578,-0.7253 0.54717,-1.1797 0.19296,-0.2614 0.19986,-0.5581 0.1702,-0.8689 -0.004,-0.4256 -0.0205,-0.8513 -0.009,-1.2769 -0.12364,-0.192 -0.35804,-0.2617 -0.53778,-0.3795 z" style="fill:#aa4400;fill-opacity:1;fill-rule:evenodd;stroke:#000000;stroke-width:1px;stroke-linecap:butt;stroke-linejoin:miter;stroke-opacity:1"/>
      <path d="m 290,1417.3622 c -0.94214,0.2716 -2.18738,0.3245 -2.76687,-0.6214 -0.98473,-0.8369 -2.31749,-1.0228 -3.53174,-1.3178 -1.06799,-0.1161 -2.14537,0.01 -3.21518,0 -1.10093,0.082 -1.92194,0.8704 -2.89049,1.2911 -0.94235,0.3674 -1.19736,1.4226 -2.01294,1.9239 -0.84091,0.5766 -1.8348,1.2906 -1.87825,2.4107 0.0762,1.183 1.18229,1.8966 1.97814,2.619 0.6412,0.6945 1.56868,0.6223 2.40624,0.7581 1.85453,0.2868 3.71666,-0.093 5.56035,-0.2846 1.10615,-0.2479 2.1914,-0.6163 3.31611,-0.8014 0.72063,-0.071 1.38198,-0.3153 2.00509,-0.6779 0.65116,-0.3443 1.35797,-0.5767 2.05591,-0.7837 0.90608,-0.5117 2.04769,-0.4051 2.90262,-1.0287 0.55612,-1.0503 -1.00591,-1.2372 -1.4335,-1.7246 -0.58492,-0.166 -1.03025,-0.3721 -1.44503,-0.7693 -0.41485,-0.2108 -0.83051,-0.5738 -1.05046,-0.9906 z" style="fill:#aa4400;fill-opacity:1;fill-rule:evenodd;stroke:#000000;stroke-width:1px;stroke-linecap:butt;stroke-linejoin:miter;stroke-opacity:1"/>
      <path d="m 310,1437.3622 c -1.50637,0.1905 -3.03864,0.2081 -4.54998,0.1553 -1.04622,-0.2588 -2.14978,-0.2783 -3.15219,-0.7077 -1.04403,-0.2975 -2.13477,-0.113 -3.20138,-0.1696 -0.97658,0.021 -1.60936,0.9104 -2.16999,1.5979 -0.72452,0.7041 -0.59502,1.7638 -0.19528,2.5981 0.0987,0.9116 0.77707,1.5055 1.39684,2.0997 0.61498,0.7352 1.38077,1.3224 2.18366,1.8341 0.7283,0.6093 1.52473,1.2452 2.50958,1.3236 1.14993,0.257 2.37376,0.3065 3.52196,0.03 0.85908,-0.2983 1.67147,-0.7281 2.40678,-1.2627 1.18932,-0.3304 2.37897,-0.7717 3.35481,-1.5479 0.43613,-0.7857 0.79994,-1.6233 0.78384,-2.5365 -0.0669,-0.7556 -0.0858,-1.724 -0.74042,-2.2199 -0.59889,-0.443 -1.40174,-0.103 -2.00156,-0.4658 -0.21732,-0.242 0.11154,-0.4843 -0.14667,-0.7281 z" style="fill:#aa4400;fill-opacity:1;fill-rule:evenodd;stroke:#000000;stroke-width:1px;stroke-linecap:butt;stroke-linejoin:miter;stroke-opacity:1"/>
      <path d="m 315,1417.3622 c -1.32084,0.4205 -2.74217,0.6596 -4.12189,0.4776 -1.05989,-0.3762 -1.96079,-1.2082 -3.12917,-1.2535 -1.07864,-0.2075 -2.18323,-0.4108 -3.28404,-0.2687 -1.01224,-0.1696 -2.10263,0.084 -2.96472,0.6292 -0.7868,0.6478 -1.11799,1.7686 -0.96977,2.7548 0.39161,0.9243 1.3977,1.3745 2.00207,2.1496 0.69091,0.6577 1.62655,0.9163 2.49243,1.2562 1.04487,0.3284 2.11518,0.5545 3.17384,0.8195 1.06266,0.4021 2.12838,0.8948 3.29796,0.7775 0.84986,0.061 1.65524,-0.1565 2.48004,-0.3133 1.77176,-0.2088 3.47359,-0.8503 4.96289,-1.8295 0.92305,-0.5227 1.92712,-1.4629 1.70574,-2.6278 -0.59388,-0.8693 -1.63904,-1.3184 -2.5221,-1.8232 -0.92103,-0.4902 -2.01885,-0.1853 -2.93928,-0.5778 -0.0188,0.099 -0.18426,-0.2554 -0.184,-0.1706 z" style="fill:#aa4400;fill-opacity:1;fill-rule:evenodd;stroke:#000000;stroke-width:1px;stroke-linecap:butt;stroke-linejoin:miter;stroke-opacity:1"/>
    </g></svg>
