<svg xmlns="http://www.w3.org/2000/svg" width="64" height="64" viewBox="111.58297828261577 172.25502930841012 31.915492853768033 31.915492853768033"><defs>
    <filter style="color-interpolation-filters:sRGB" x="-0.1940961" y="-0.046480109" width="1.3881922" height="1.0929602">
      <feGaussianBlur stdDeviation="3.4637856"/>
    </filter>
  </defs><g transform="matrix(0.17638889,0,0,0.17638889,-1388.3622,372.55193)">
      <path d="m 8540.674,-992.79575 c 17.7473,4.61628 33.3361,10.20768 50.3334,12.46667 15.8946,-2.12092 28.5765,-8.94255 44.9333,-13.36068 -1.9839,-14.58254 1.4972,-49.69054 -4.2666,-55.46664 -22.0265,-20.4793 -68.8189,-22.2632 -85.3334,0 -8.1672,11.0103 -4.3295,35.5102 -5.6667,56.36065 z" style="fill:#ffffff;fill-opacity:1;stroke:#000000;stroke-width:2.13333px;stroke-linecap:butt;stroke-linejoin:miter;stroke-opacity:1"/>
      <path d="m 8554.8741,-1072.6231 c -4.2667,4.2667 -8.5334,12.8 -10.6667,23.4667 v 21.3333 l 4.2666,25.6 c 2.2865,7.62147 10.6667,19.2 14.9334,23.46667 6.3418,6.4233 12.8,10.66667 21.3333,12.8 0.5495,-0.14037 7.9469,0.15083 8.5334,0 8.5333,-2.13333 15.3589,-6.82566 21.3333,-12.8 4.2667,-4.26667 12.7519,-16.19537 14.9333,-23.46667 l 4.2667,-25.6 v -21.3333 c -2.1333,-10.6667 -6.4,-19.2 -10.6667,-23.4667 0,0 -8.1573,-7.4373 -12.8,-8.5333 -13.8418,-3.2676 -28.8249,-3.2676 -42.6667,0 -4.6426,1.096 -12.7999,8.5333 -12.7999,8.5333 z" style="fill:#efd2c3;fill-opacity:1;stroke:#000000;stroke-width:4.26667;stroke-linecap:butt;stroke-linejoin:miter;stroke-miterlimit:4;stroke-dasharray:none;stroke-opacity:1"/>
      <path d="m 8582.6074,-1023.5564 v 17.0666 l 6.4,2.1334 6.4,-2.1334 v -17.0666" style="fill:none;stroke:#000000;stroke-width:2.13333;stroke-linecap:butt;stroke-linejoin:miter;stroke-miterlimit:4;stroke-dasharray:none;stroke-opacity:1"/>
      <path d="m 8567.674,-991.55643 10.6667,2.13333 h 10.6667 10.6667 l 10.6666,-2.13333" style="fill:none;stroke:#000000;stroke-width:2.13333;stroke-linecap:butt;stroke-linejoin:miter;stroke-miterlimit:4;stroke-dasharray:none;stroke-opacity:1"/>
      <g transform="matrix(3.75,0,0,3.75,8079.2951,-1266.4486)">
        <path style="fill:#ffffff;stroke:#000000;stroke-width:0.426667;stroke-linecap:butt;stroke-linejoin:miter;stroke-miterlimit:4;stroke-dasharray:none;stroke-opacity:1" d="m 129.09663,64.202361 c 0,0 1.07061,-0.853334 1.70667,-0.853334 0.63603,0 1.70666,0.853334 1.70666,0.853334 0,0 -1.07063,0.853333 -1.70666,0.853333 -0.63606,0 -1.70667,-0.853333 -1.70667,-0.853333 z"/>
        <path d="m 131.48596,64.202359 c 0,0.377026 -0.30565,0.682667 -0.68266,0.682667 -0.37703,0 -0.68267,-0.305641 -0.68267,-0.682667 0,-0.377027 0.30564,-0.682666 0.68267,-0.682666 0.37701,0 0.68266,0.305639 0.68266,0.682666 z" style="fill:#008000;fill-opacity:1;stroke:#000000;stroke-width:0.341333;stroke-linecap:round;stroke-linejoin:miter;stroke-miterlimit:4;stroke-dashoffset:0;stroke-opacity:1"/>
      </g>
      <g transform="matrix(3.75,0,0,3.75,8117.6951,-1266.4486)">
        <path style="fill:#ffffff;stroke:#000000;stroke-width:0.426667;stroke-linecap:butt;stroke-linejoin:miter;stroke-miterlimit:4;stroke-dasharray:none;stroke-opacity:1" d="m 129.09663,64.202361 c 0,0 1.07062,-0.853334 1.70667,-0.853334 0.63603,0 1.70666,0.853334 1.70666,0.853334 0,0 -1.07063,0.853333 -1.70666,0.853333 -0.63605,0 -1.70667,-0.853333 -1.70667,-0.853333 z"/>
        <path d="m 131.48596,64.202359 c 0,0.377027 -0.30564,0.682667 -0.68266,0.682667 -0.37703,0 -0.68267,-0.30564 -0.68267,-0.682667 0,-0.377026 0.30564,-0.682666 0.68267,-0.682666 0.37702,0 0.68266,0.30564 0.68266,0.682666 z" style="fill:#008000;fill-opacity:1;stroke:#000000;stroke-width:0.341333;stroke-linecap:round;stroke-linejoin:miter;stroke-miterlimit:4;stroke-dashoffset:0;stroke-opacity:1"/>
      </g>
      <path d="m 8542.0741,-1059.8231 c 10.6666,-32 29.8666,-42.6667 51.2,-64 21.3333,21.3333 31.9999,32 42.6666,64" style="fill:#008000;stroke:#000000;stroke-width:2.13333px;stroke-linecap:butt;stroke-linejoin:miter;stroke-opacity:1"/>
      <g transform="matrix(1.706299,0.77728282,-0.77728282,1.706299,8450.7229,-1466.4224)" style="fill:#ffffff">
        <path style="fill:#800000;stroke:#000000;stroke-width:1.13778px;stroke-linecap:butt;stroke-linejoin:miter;stroke-opacity:1" d="m 170.89625,153.73125 4.55111,-2.27555 c 1.13778,-1.13778 1.13778,-1.13778 1.13778,-3.41333 0,-11.37778 -2.27556,-17.06667 -5.68889,-22.75556 -3.41334,5.68889 -5.68889,11.37778 -5.68889,22.75556 0,2.27555 0,2.27555 1.13778,3.41333 z"/>
        <path style="fill:#ffffff;stroke:#000000;stroke-width:1.13778px;stroke-linecap:butt;stroke-linejoin:miter;stroke-opacity:1" d="m 170.89625,125.28681 v 34.13333"/>
      </g>
      <path d="m 8586.7297,-1054.0304 c -7.1022,1.8644 -18.3879,6.3344 -24.6504,10.6387 -4.3521,2.2646 -4.922,2.8472 -9.3386,4.9019 -3.965,2.5815 -4.3186,7.7364 -4.4689,12.0128 -0.7345,9.9943 -0.4168,20.0345 -0.1945,30.03765 0.01,3.62048 1.9866,7.90063 1.0467,11.06012 -3.588,1.68797 -5.9966,-2.6489 -7.972,-4.94648 -5.4353,-7.34189 -5.4548,-16.88339 -5.8837,-25.61079 -0.5738,-11.4074 -0.129,-24.9545 4.6724,-35.3533 1.5424,-3.4652 4.4482,-7.4152 6.4,-10.6666" style="fill:#b3b343;fill-opacity:1;stroke:#000000;stroke-width:4.26667;stroke-linecap:butt;stroke-linejoin:miter;stroke-miterlimit:4;stroke-dasharray:none;stroke-opacity:1"/>
      <path style="fill:#b3b343;fill-opacity:1;stroke:#000000;stroke-width:4.26667;stroke-linecap:butt;stroke-linejoin:miter;stroke-miterlimit:4;stroke-dasharray:none;stroke-opacity:1" d="m 8591.2851,-1054.0304 c 7.1021,1.8644 18.3879,6.3344 24.6504,10.6387 4.352,2.2646 4.9219,2.8472 9.3385,4.9019 3.9651,2.5815 4.3187,7.7364 4.4689,12.0128 0.7345,9.9943 0.4169,20.0345 0.1946,30.03765 -0.01,3.62048 -1.9866,7.90063 -1.0467,11.06012 3.5879,1.68797 5.9966,-2.6489 7.972,-4.94648 5.4353,-7.34189 5.4548,-16.88339 5.8836,-25.61079 0.5739,-11.4074 1.09,-24.8602 -3.7114,-35.259 -1.5423,-3.4652 -3.7026,-8.5371 -5.6544,-11.7885"/>
      <path d="m 8533.5407,-1059.8231 55.4667,10.6667 53.3333,-10.6667 v -10.6667 l -53.3333,10.6667 -55.4667,-10.6667 z" style="fill:#006100;stroke:#000000;stroke-width:2.13333px;stroke-linecap:butt;stroke-linejoin:miter;stroke-opacity:1;fill-opacity:1"/>
      <path d="m 8576.2074,-1032.0898 -12.8,-2.1333" style="fill:none;stroke:#000000;stroke-width:3.2;stroke-linecap:butt;stroke-linejoin:miter;stroke-miterlimit:4;stroke-dasharray:none;stroke-opacity:1"/>
      <path d="m 8601.8074,-1032.0898 12.8,-2.1333" style="fill:none;stroke:#000000;stroke-width:3.2;stroke-linecap:butt;stroke-linejoin:miter;stroke-miterlimit:4;stroke-dasharray:none;stroke-opacity:1"/>
      <path d="m 8586.874,-985.15643 v 10.66667 l -23.4666,-6.4 c 5.1204,8.74378 13.1225,14.30769 25.6,14.93333 12.8273,-2.41854 22.017,-7.43548 27.7333,-14.93333 l -25.6,6.4 v -10.66667 z" style="fill:#b3b343;stroke:#000000;stroke-width:2.13333px;stroke-linecap:butt;stroke-linejoin:miter;stroke-opacity:1;fill-opacity:1"/>
    </g></svg>
