<svg xmlns="http://www.w3.org/2000/svg" width="64" height="64" viewBox="39.27027099667052 127.94812279910084 38.70477313666431 38.70477313666431"><defs>
    <filter style="color-interpolation-filters:sRGB" x="-0.1940961" y="-0.046480109" width="1.3881922" height="1.0929602">
      <feGaussianBlur stdDeviation="3.4637856"/>
    </filter>
  </defs><g transform="matrix(0.26458333,0,0,0.26458333,-2648.594,546.72552)">
      <g transform="translate(790.47725,-607.07109)">
        <g transform="matrix(0.25,0,0,0.25,9377.523,-966.56673)">
          <g>
            <path d="m 192.007,192 c -8.822,0 -16,7.178 -16,16 0,8.822 7.178,16 16,16 8.822,0 16,-7.178 16,-16 0,-8.822 -7.178,-16 -16,-16 z"/>
            <path d="m 336.007,192 c -8.822,0 -16,7.178 -16,16 0,8.822 7.178,16 16,16 8.822,0 16,-7.178 16,-16 0,-8.822 -7.178,-16 -16,-16 z"/>
            <path d="m 380.302,173.972 c -0.2,-1.08 -0.61,-2.068 -1.178,-2.931 2.521,-16.635 0.478,-30.685 -3.195,-41.879 6.349,-31.227 3.873,-91.836 -17.346,-125.434 -1.804,-2.856 -5.207,-4.27 -8.506,-3.536 -3.208,0.715 -5.641,3.315 -6.158,6.542 -1.356,4.95 -15.347,29.974 -34.558,61.871 -22.103,-5.313 -42.13,-4.747 -45.355,-4.613 -3.23,-0.134 -23.348,-0.7 -45.516,4.656 -19.226,-31.921 -33.227,-56.961 -34.584,-61.914 -0.517,-3.227 -2.95,-5.827 -6.158,-6.542 -3.296,-0.735 -6.701,0.679 -8.505,3.536 -21.425,33.922 -17.67,85.994 -16.009,101.146 0.014,0.129 0.041,0.253 0.061,0.38 -8.455,7.384 -16.682,16.05 -23.817,26.123 -2.554,3.605 -1.701,8.598 1.904,11.152 1.404,0.995 3.018,1.472 4.617,1.472 2.507,0 4.976,-1.175 6.535,-3.376 1.761,-2.486 3.604,-4.869 5.5,-7.169 -2.289,5.651 -3.516,11.501 -3.915,17.258 -0.068,0.42 -0.113,0.848 -0.113,1.287 0,0.119 0.013,0.235 0.018,0.353 -0.375,8.785 1.126,17.271 3.611,24.399 -8.721,50.861 0.619,110.483 25.201,160.131 2.699,5.451 5.574,10.725 8.354,15.824 13.184,24.186 26.816,49.196 26.816,103.292 0,32.051 29.565,56 56,56 h 0.406 c 26.435,0 56,-23.949 56,-56 0,-54.097 13.632,-79.106 26.816,-103.292 2.78,-5.1 5.654,-10.374 8.354,-15.824 25.031,-50.554 34.272,-111.456 24.72,-162.912 z M 175.863,26.82 c 5.022,9.48 13.345,24.175 27.174,47.183 -8.515,3.719 -21.273,10.068 -34.758,19.532 -2.193,-31.445 2.676,-53.31 7.584,-66.715 z m 165.381,302.964 c -2.559,5.169 -5.233,10.074 -8.063,15.267 -14.143,25.946 -28.768,52.775 -28.768,110.95 0,24.417 -23.691,40 -40,40 h -0.406 c -16.309,0 -40,-15.583 -40,-40 0,-58.174 -14.625,-85.004 -28.768,-110.95 -2.83,-5.193 -5.504,-10.098 -8.063,-15.267 -21.162,-42.741 -30.34,-93.225 -25.496,-137.981 0.995,-0.213 1.968,-0.599 2.858,-1.211 3.641,-2.503 4.563,-7.484 2.06,-11.125 -0.91,-1.324 -1.824,-3.014 -2.669,-4.98 -0.155,-1.306 -0.631,-2.537 -1.359,-3.594 -1.091,-3.307 -1.942,-7.115 -2.334,-11.165 38.634,-2.506 73.778,-22.7 102.067,-58.794 2.726,-3.478 2.116,-8.506 -1.361,-11.231 -3.478,-2.727 -8.506,-2.117 -11.231,1.361 -25.177,32.122 -54.825,49.754 -88.238,52.535 1.042,-3.81 2.683,-7.551 5.104,-11.034 2.521,-3.628 1.624,-8.614 -2.004,-11.135 -1.178,-0.819 -2.5,-1.271 -3.834,-1.392 23.303,-21.557 49.741,-32.064 56.455,-34.505 23.163,-6.625 46.173,-5.556 46.396,-5.544 0.278,0.015 0.557,0.015 0.835,0 0.193,-0.012 16.379,-0.791 35.347,2.905 -10.961,13.042 -26.802,25.436 -38.441,29.566 -4.164,1.478 -6.342,6.051 -4.864,10.215 1.164,3.279 4.248,5.327 7.54,5.327 0.888,0 1.791,-0.149 2.675,-0.462 17.122,-6.076 39.456,-24.586 51.951,-43.057 0.406,-0.6 0.711,-1.238 0.935,-1.893 0.137,-0.187 0.268,-0.381 0.39,-0.582 16.887,-27.874 26.56,-44.893 32.124,-55.413 8.715,22.655 11.714,53.317 10.632,77.502 -2.802,-3.61 -4.904,-5.624 -5.24,-5.938 -3.215,-3.009 -8.241,-2.84 -11.265,0.359 -3.025,3.199 -2.881,8.254 0.302,11.295 1.124,1.074 27.377,26.815 13.834,71.884 -1.271,4.231 1.128,8.692 5.359,9.964 0.347,0.104 0.696,0.176 1.044,0.232 4.823,44.734 -4.356,95.179 -25.504,137.891 z" style="stroke-width:1.13778"/>
            <path d="m 253.341,458.038 c -3.724,-3.332 -5.825,-13.273 -5.354,-25.328 0.014,-0.363 0.02,-0.604 0.02,-0.71 0,-4.418 -3.582,-8 -8,-8 -4.375,0 -7.929,3.511 -7.999,7.868 L 232,432.085 c -0.399,10.222 0.456,28.735 10.673,37.877 1.527,1.366 3.433,2.038 5.332,2.038 2.197,0 4.385,-0.9 5.965,-2.666 2.945,-3.292 2.664,-8.349 -0.629,-11.296 z"/>
            <path d="m 295.921,431.873 c -0.068,-4.36 -3.624,-7.873 -7.999,-7.873 -4.418,0 -8,3.582 -8,8 0,0.105 0.005,0.344 0.019,0.704 0.456,11.902 -1.652,22.107 -5.246,25.392 -3.261,2.981 -3.488,8.042 -0.506,11.302 1.578,1.727 3.738,2.602 5.907,2.602 1.927,0 3.861,-0.693 5.396,-2.096 9.992,-9.135 10.829,-27.612 10.438,-37.813 z"/>
          </g>
        </g>
        <path transform="translate(-4.9229925e-6)" d="m 9438.5,-937.38782 h 5.75" style="fill:none;stroke:#000000;stroke-width:1px;stroke-linecap:butt;stroke-linejoin:miter;stroke-opacity:1"/>
        <path d="m 9463.9857,-957.06461 c -2.8894,4.92511 -5.5531,10.09177 -9.1065,14.54366 -2.986,3.22329 -6.5387,6.29502 -10.7607,7.73759 -1.2047,0.46722 -2.453,-0.3475 -2.5781,-1.60938 -0.9973,-0.97699 -2.8343,-0.45483 -3.5886,0.63202 -5.3519,5.13339 -12.4693,8.28302 -19.8333,9.15705 -0.9924,0.5865 0.032,1.99169 0.1484,2.82812 0.3912,1.46319 2.0297,3.20231 0.5625,4.5625 -1.6964,0.90861 -0.7666,2.95073 -0.9953,4.48437 -0.1344,5.93239 0.1912,11.91548 1.827,17.64157 1.8203,8.2733 6.262,15.56818 9.8168,23.13187 3.2349,6.71458 3.8219,14.21636 4.1514,21.55292 0.028,4.89764 4.2961,9.03797 9.0048,9.65021 5.6508,0.51898 10.9334,-4.40899 10.9698,-10.05414 0,-9.02583 1.8471,-18.15132 6.411,-26.01567 5.567,-9.85541 9.3102,-20.95628 9.3293,-32.36747 -0.1034,-2.43324 0.466,-5.0935 -0.4757,-7.39085 -1.5018,-0.67402 -1.4028,-2.56457 -0.9063,-3.89062 0.8993,-4.5058 0.7596,-9.39136 -1.6384,-13.43294 -0.5381,-1.826 -2.7249,-2.90405 -2.7131,-4.88737 0.067,-1.76122 2.4037,-2.20488 3.4531,-0.99219 1.5288,2.05836 1.1073,-0.65877 1.0679,-1.88921 -0.093,-5.41051 -0.674,-10.85833 -2.521,-15.97017 -0.708,0.48221 -1.0678,1.80382 -1.625,2.57813 z m -38.2188,38.58594 c 3.0084,-0.0912 4.7268,3.77965 3.0156,6.11718 -1.71,2.82454 -6.8399,1.94376 -7.1406,-1.47656 -0.5108,-2.54164 1.518,-4.85829 4.125,-4.64062 z m 36,0 c 3.0084,-0.0912 4.7268,3.77965 3.0156,6.11718 -1.71,2.82454 -6.8399,1.94376 -7.1406,-1.47656 -0.5108,-2.54164 1.518,-4.85829 4.125,-4.64062 z m -24.3125,58.03125 c 1.72,-0.25323 2.2032,1.73554 2.0173,3.09357 -0.049,2.20079 0.8103,4.24536 1.8265,6.10955 0.7245,1.60877 -1.3234,3.43114 -2.7891,2.30469 -2.6885,-2.04348 -2.8605,-5.84606 -3.0469,-8.98438 -0.068,-1.2414 0.5695,-2.60013 1.9922,-2.52343 z m 12.0156,0 c 1.5004,-0.28627 2.0854,1.33982 1.9708,2.57012 0.013,3.17514 -0.2359,7.04122 -3.0489,9.03144 -1.6165,0.91286 -3.4161,-1.07249 -2.539,-2.64063 1.5388,-2.00583 1.5457,-4.65556 1.6718,-7.08593 0.061,-1.06723 0.8415,-1.95649 1.9453,-1.875 z" style="fill:#d8b29e;fill-opacity:1;stroke:#000000;stroke-width:0.25;stroke-linecap:round;stroke-linejoin:miter;stroke-miterlimit:4;stroke-dasharray:none;stroke-dashoffset:0;stroke-opacity:1"/>
      </g>
    </g></svg>
