<svg xmlns="http://www.w3.org/2000/svg" width="64" height="64" viewBox="5.27551821774691 204.85691433011462 38.482703793113636 38.482703793113636"><defs>
    <filter style="color-interpolation-filters:sRGB" x="-0.1940961" y="-0.046480109" width="1.3881922" height="1.0929602">
      <feGaussianBlur stdDeviation="3.4637856"/>
    </filter>
  </defs><g transform="matrix(0.52916666,0,0,0.52916666,-4444.296,277.88825)">
      <path style="fill:#f9f9f9;stroke:#000000;stroke-width:1px;stroke-linecap:butt;stroke-linejoin:miter;stroke-opacity:1" d="m 8435.0002,-127.63782 c -3.6271,0.85624 -7.3648,2.36477 -10,5 -2.6352,2.63523 -3.3333,6.66667 -5,10 -1.6667,3.33333 -4.0235,6.40342 -5,10 -1.313,4.836033 -2.7626,10.309106 -1,15.000002 1.8239,4.854147 6.3142,8.779424 11.0002,10.99999 6.0545,2.869054 13.2999,2.000003 19.9998,2.00001 6.7,7e-6 13.9456,0.86915 20.0002,-2.00001 4.6859,-2.220564 9.176,-6.145915 10.9998,-10.99999 1.7625,-4.690912 0.313,-10.163969 -1,-15.000002 -0.9765,-3.59658 -3.3333,-6.66667 -5,-10 -1.6667,-3.33333 -2.3648,-7.36477 -5,-10 -2.6352,-2.63523 -6.3729,-4.14376 -10,-5 -6.4883,-1.53169 -13.5117,-1.53169 -20,0 z"/>
      <path style="fill:#333333;fill-opacity:1;stroke:#000000;stroke-width:1px;stroke-linecap:butt;stroke-linejoin:miter;stroke-opacity:1" d="m 8460.0002,-112.63782 c -1.4907,-0.74536 -3.4602,-0.63781 -5,0 -2.1776,0.90199 -4.098,2.8224 -5,5 -0.6378,1.5398 -0.6378,3.4602 0,5 0.902,2.17761 3.2194,3.455675 5,5.000001 1.2591,1.092003 2.4189,2.472954 4,3 1.2649,0.421637 2.6839,0.213576 4,0 1.0405,-0.168847 2.4199,-0.119889 3,-1 1.8409,-2.792893 0.3226,-6.862511 -0.8372,-10.000001 -0.4274,-1.1563 -1.4325,-2.00684 -2.1628,-3 -0.9874,-1.34271 -1.5093,-3.25464 -3,-4 z"/>
      <path transform="translate(-4.9229925e-6)" d="m 8430,-112.63782 c 1.4907,-0.74536 3.4602,-0.63781 5,0 2.1776,0.90199 4.098,2.8224 5,5 0.6378,1.5398 0.6378,3.4602 0,5 -0.902,2.17761 -3.2194,3.455677 -5,5.000003 -1.2591,1.092003 -2.4189,2.472954 -4,3 -1.2649,0.421637 -2.6839,0.213576 -4,0 -1.0405,-0.168847 -2.427,-0.115235 -3,-1 -1.8209,-2.811827 -0.1293,-6.846123 1,-10.000003 0.4051,-1.1315 1.3058,-2.01888 2,-3 0.9626,-1.36057 1.5093,-3.25464 3,-4 z" style="fill:#333333;stroke:#000000;stroke-width:1px;stroke-linecap:butt;stroke-linejoin:miter;stroke-opacity:1"/>
      <path style="fill:#333333;fill-opacity:1;stroke:#000000;stroke-width:0.75px;stroke-linecap:butt;stroke-linejoin:miter;stroke-opacity:1" d="m 8422.0364,-115.81639 c -4.2574,-2.2221 -5.7694,-5.65377 -4.536,-10.29504 5.4907,-2.41916 8.7593,-0.581 12.7142,0.9548"/>
      <path style="fill:#000000;stroke:#000000;stroke-width:1px;stroke-linecap:butt;stroke-linejoin:miter;stroke-opacity:1" d="m 8445,-95.637818 -4.9998,0.999999 4,6 h 2 l 4,-6 z"/>
      <g transform="translate(-1.8310793,504)">
        <path style="fill:none;stroke:#000000;stroke-width:1.7799px;stroke-linecap:butt;stroke-linejoin:miter;stroke-opacity:1" d="m 8440.6206,-609.92379 -1.7708,-1.7799 h -5.2815 -1.8471"/>
        <path style="fill:#808000;stroke:#000000;stroke-width:0.889949;stroke-miterlimit:4;stroke-dashoffset:0;stroke-opacity:1" d="m 8438.558,-611.63213 c 0.2506,0.4067 0.3951,0.88567 0.3951,1.39846 0,1.47447 -1.1953,2.66985 -2.6698,2.66985 -1.4746,0 -2.6699,-1.19538 -2.6699,-2.66985 0,-0.52667 0.1526,-1.01792 0.4159,-1.43157 z"/>
        <circle style="fill:#000000;fill-opacity:1;fill-rule:nonzero;stroke:#000000;stroke-width:0.889949;stroke-miterlimit:4;stroke-dasharray:none;stroke-dashoffset:0;stroke-opacity:1" cx="8468.8379" cy="-703.56268" r="0.88994873" transform="translate(-32.667661,93.647987)"/>
      </g>
      <g transform="matrix(-1,0,0,1,16891.831,504)">
        <path d="m 8440.6206,-609.92379 -1.7708,-1.7799 h -5.2815 -1.8471" style="fill:none;stroke:#000000;stroke-width:1.7799px;stroke-linecap:butt;stroke-linejoin:miter;stroke-opacity:1"/>
        <path d="m 8438.558,-611.63213 c 0.2506,0.4067 0.3951,0.88567 0.3951,1.39846 0,1.47447 -1.1953,2.66985 -2.6698,2.66985 -1.4746,0 -2.6699,-1.19538 -2.6699,-2.66985 0,-0.52667 0.1526,-1.01792 0.4159,-1.43157 z" style="fill:#808000;stroke:#000000;stroke-width:0.889949;stroke-miterlimit:4;stroke-dashoffset:0;stroke-opacity:1"/>
        <circle transform="translate(-32.667661,93.647987)" r="0.88994873" cy="-703.56268" cx="8468.8379" style="fill:#000000;fill-opacity:1;fill-rule:nonzero;stroke:#000000;stroke-width:0.889949;stroke-miterlimit:4;stroke-dasharray:none;stroke-dashoffset:0;stroke-opacity:1"/>
      </g>
      <path d="m 8467.964,-115.81639 c 4.2574,-2.2221 5.7694,-5.65377 4.536,-10.29504 -5.4907,-2.41916 -8.7593,-0.581 -12.7142,0.9548" style="fill:#333333;fill-opacity:1;stroke:#000000;stroke-width:0.75px;stroke-linecap:butt;stroke-linejoin:miter;stroke-opacity:1"/>
      <path transform="translate(-4.9229925e-6)" d="m 8440,-82.637817 h 10" style="fill:none;stroke:#000000;stroke-width:1px;stroke-linecap:butt;stroke-linejoin:miter;stroke-opacity:1"/>
    </g></svg>
