<svg xmlns="http://www.w3.org/2000/svg" width="64" height="64" viewBox="-2.5721272649478877 244.27977350578792 45.91669065969762 45.91669065969762"><defs>
    <filter style="color-interpolation-filters:sRGB" x="-0.1940961" y="-0.046480109" width="1.3881922" height="1.0929602">
      <feGaussianBlur stdDeviation="3.4637856"/>
    </filter>
  </defs><g transform="matrix(0.1984375,0,0,0.1984375,-534.98886,248.53337)">
      <g transform="matrix(-0.11442892,0.8518742,-0.8518742,-0.11442892,3154.5773,-2331.2795)">
        <path d="m 2820.2719,-69.834343 c -0.8779,1.443093 -1.2958,3.159521 -1.8106,4.773542 -2.3882,8.574524 -3.6037,17.485823 -4.049,26.379404 -0.1884,5.684018 -0.1531,11.524966 1.6222,16.984602 0.757,2.051698 1.8439,4.210735 3.7955,5.34924 0.6481,0.564484 1.3015,-0.158433 1.8112,-0.54059 2.5481,-2.163921 3.4018,-5.602717 4.0327,-8.744133 1.1012,-6.509615 0.7184,-13.164001 0.1501,-19.707607 -0.7491,-7.283684 -1.9479,-14.562157 -4.1276,-21.562648 -0.3659,-1.001464 -0.6743,-2.079485 -1.314,-2.939702 -0.036,-0.01126 -0.076,-0.01227 -0.1105,0.0079 z" style="fill:#b8a89d;fill-opacity:1;stroke:#000000;stroke-width:0.757614;stroke-linecap:square;stroke-linejoin:miter;stroke-miterlimit:4;stroke-dasharray:none;stroke-dashoffset:0;stroke-opacity:1"/>
        <path d="M 2820.3585,-16.292889 V -69.629727" style="fill:none;stroke:#000000;stroke-width:1px;stroke-linecap:butt;stroke-linejoin:miter;stroke-opacity:1"/>
        <g style="fill:#4d4d4d;fill-opacity:1">
          <g style="fill:#4d4d4d;fill-opacity:1;stroke:none" transform="translate(-199.99856,-108.43317)">
            <path d="m 3024.8613,84.189867 c -1.4096,1.066349 -2.7097,2.297956 -4.0426,3.470426 -0.062,0.792466 -0.043,1.618277 -0.01,2.420815 0.023,0.323983 0.4224,0.196791 0.5584,0.02959 0.8193,-0.696227 1.6877,-1.358359 2.4188,-2.144601 0.5041,-0.738534 0.6533,-1.657444 0.9426,-2.490826 0.094,-0.405686 0.2634,-0.809115 0.2747,-1.224247 -0.014,-0.06002 -0.095,-0.08002 -0.144,-0.06116 z" style="fill:#4d4d4d;fill-opacity:1;stroke:none"/>
            <path d="m 3025.7294,77.481822 c -0.5455,0.324508 -0.9965,0.817346 -1.5073,1.20153 -1.1502,0.984271 -2.3267,1.959924 -3.4205,2.996758 0.012,0.830888 -0.077,1.686864 0.039,2.51173 0.2301,0.273201 0.5675,-0.130573 0.7684,-0.265672 1.3718,-1.189297 2.767,-2.35687 4.0851,-3.607237 0.1125,-0.897584 0.2253,-1.819896 0.2111,-2.730569 -0.015,-0.07962 -0.1031,-0.117544 -0.1756,-0.10654 z" style="fill:#4d4d4d;fill-opacity:1;stroke:none"/>
            <path d="m 3025.8478,71.347908 c -1.7279,1.352651 -3.3679,2.827202 -5.0192,4.277365 -0.065,0.774067 -0.051,1.581354 -0.016,2.365572 -0.03,0.24549 0.2488,0.416315 0.4301,0.224916 1.613,-1.317636 3.2159,-2.67265 4.7548,-4.084015 0.082,-0.8798 0.075,-1.796026 0,-2.68519 -0.01,-0.06743 -0.088,-0.125962 -0.1539,-0.09865 z" style="fill:#4d4d4d;fill-opacity:1;stroke:none"/>
            <path d="m 3025.5262,65.600692 c -1.6003,1.329183 -3.2089,2.668775 -4.7246,4.083857 0.012,0.830855 -0.077,1.687117 0.039,2.511729 0.2302,0.27419 0.565,-0.131633 0.7646,-0.267471 1.4196,-1.230903 2.8587,-2.447207 4.229,-3.731707 0.034,-0.7722 -0.033,-1.575543 -0.1151,-2.352848 -0.017,-0.105345 -0.026,-0.332497 -0.1927,-0.24356 z" style="fill:#4d4d4d;fill-opacity:1;stroke:none"/>
            <path d="m 3025.0389,60.052745 c -1.4769,1.097055 -2.8171,2.375086 -4.2123,3.576966 -0.066,0.768131 -0.045,1.569313 -0.016,2.347815 -0.037,0.237927 0.219,0.453339 0.4143,0.254512 1.4292,-1.179154 2.8235,-2.414853 4.2005,-3.653912 -0.01,-0.808982 -0.1531,-1.641618 -0.2506,-2.454355 -0.01,-0.07401 -0.088,-0.05861 -0.1361,-0.07103 z" style="fill:#4d4d4d;fill-opacity:1;stroke:none"/>
            <path d="m 3024.2832,54.680391 c -0.9572,0.671193 -1.7909,1.51996 -2.6891,2.272856 -0.2422,0.285273 -0.687,0.461629 -0.8032,0.81679 0.034,0.808433 -0.079,1.640818 0.053,2.436598 0.2276,0.268149 0.5473,-0.135991 0.7359,-0.258457 1.0582,-0.897691 2.1016,-1.837811 3.1685,-2.736487 0.014,-0.664285 -0.1785,-1.353651 -0.2544,-2.026307 -0.065,-0.147962 0.021,-0.503562 -0.2112,-0.504993 z" style="fill:#4d4d4d;fill-opacity:1;stroke:none"/>
            <path d="m 3023.2889,49.544791 c -0.8812,0.618644 -1.6444,1.390768 -2.4643,2.089359 -0.067,0.789145 -0.038,1.611158 -0.02,2.41095 -0.031,0.256177 0.2705,0.331057 0.4301,0.165728 0.8726,-0.720675 1.7417,-1.446297 2.557,-2.233384 0.2377,-0.279552 -0.046,-0.682279 -0.044,-1.004956 -0.1005,-0.463652 -0.1721,-0.933233 -0.315,-1.384292 -0.047,-0.01552 -0.087,-0.08682 -0.144,-0.04341 z" style="fill:#4d4d4d;fill-opacity:1;stroke:none"/>
            <path d="m 3022.1347,44.574919 c -0.5022,0.255969 -0.8723,0.714668 -1.314,1.06145 -0.068,0.787838 -0.034,1.608527 -0.016,2.407004 -0.034,0.253983 0.2662,0.339141 0.4262,0.171647 0.5346,-0.438631 1.0939,-0.870774 1.5665,-1.367257 -0.031,-0.549328 -0.2636,-1.101794 -0.3752,-1.649199 -0.104,-0.164395 -0.035,-0.610572 -0.2877,-0.623645 z" style="fill:#4d4d4d;fill-opacity:1;stroke:none"/>
            <path d="m 3020.8384,40.449472 c -0.1087,0.485622 -0.032,1.028894 -0.043,1.536931 -0.058,0.258767 0.2203,0.420996 0.4203,0.256485 0.3431,-0.115786 0.3084,-0.43255 0.1519,-0.702372 -0.1384,-0.369226 -0.2311,-0.773699 -0.4439,-1.100909 l -0.063,0.0073 -0.022,0.0026 z" style="fill:#4d4d4d;fill-opacity:1;stroke:none"/>
          </g>
          <g style="fill:#4d4d4d;fill-opacity:1;stroke:none" transform="matrix(-1,0,0,1,5840.7118,-108.43317)">
            <path style="fill:#4d4d4d;fill-opacity:1;stroke:none" d="m 3024.8613,84.189867 c -1.4096,1.066349 -2.7097,2.297956 -4.0426,3.470426 -0.062,0.792466 -0.043,1.618277 -0.01,2.420815 0.023,0.323983 0.4224,0.196791 0.5584,0.02959 0.8193,-0.696227 1.6877,-1.358359 2.4188,-2.144601 0.5041,-0.738534 0.6533,-1.657444 0.9426,-2.490826 0.094,-0.405686 0.2634,-0.809115 0.2747,-1.224247 -0.014,-0.06002 -0.095,-0.08002 -0.144,-0.06116 z"/>
            <path style="fill:#4d4d4d;fill-opacity:1;stroke:none" d="m 3025.7294,77.481822 c -0.5455,0.324508 -0.9965,0.817346 -1.5073,1.20153 -1.1502,0.984271 -2.3267,1.959924 -3.4205,2.996758 0.012,0.830888 -0.077,1.686864 0.039,2.51173 0.2301,0.273201 0.5675,-0.130573 0.7684,-0.265672 1.3718,-1.189297 2.767,-2.35687 4.0851,-3.607237 0.1125,-0.897584 0.2253,-1.819896 0.2111,-2.730569 -0.015,-0.07962 -0.1031,-0.117544 -0.1756,-0.10654 z"/>
            <path style="fill:#4d4d4d;fill-opacity:1;stroke:none" d="m 3025.8478,71.347908 c -1.7279,1.352651 -3.3679,2.827202 -5.0192,4.277365 -0.065,0.774067 -0.051,1.581354 -0.016,2.365572 -0.03,0.24549 0.2488,0.416315 0.4301,0.224916 1.613,-1.317636 3.2159,-2.67265 4.7548,-4.084015 0.082,-0.8798 0.075,-1.796026 0,-2.68519 -0.01,-0.06743 -0.088,-0.125962 -0.1539,-0.09865 z"/>
            <path style="fill:#4d4d4d;fill-opacity:1;stroke:none" d="m 3025.5262,65.600692 c -1.6003,1.329183 -3.2089,2.668775 -4.7246,4.083857 0.012,0.830855 -0.077,1.687117 0.039,2.511729 0.2302,0.27419 0.565,-0.131633 0.7646,-0.267471 1.4196,-1.230903 2.8587,-2.447207 4.229,-3.731707 0.034,-0.7722 -0.033,-1.575543 -0.1151,-2.352848 -0.017,-0.105345 -0.026,-0.332497 -0.1927,-0.24356 z"/>
            <path style="fill:#4d4d4d;fill-opacity:1;stroke:none" d="m 3025.0389,60.052745 c -1.4769,1.097055 -2.8171,2.375086 -4.2123,3.576966 -0.066,0.768131 -0.045,1.569313 -0.016,2.347815 -0.037,0.237927 0.219,0.453339 0.4143,0.254512 1.4292,-1.179154 2.8235,-2.414853 4.2005,-3.653912 -0.01,-0.808982 -0.1531,-1.641618 -0.2506,-2.454355 -0.01,-0.07401 -0.088,-0.05861 -0.1361,-0.07103 z"/>
            <path style="fill:#4d4d4d;fill-opacity:1;stroke:none" d="m 3024.2832,54.680391 c -0.9572,0.671193 -1.7909,1.51996 -2.6891,2.272856 -0.2422,0.285273 -0.687,0.461629 -0.8032,0.81679 0.034,0.808433 -0.079,1.640818 0.053,2.436598 0.2276,0.268149 0.5473,-0.135991 0.7359,-0.258457 1.0582,-0.897691 2.1016,-1.837811 3.1685,-2.736487 0.014,-0.664285 -0.1785,-1.353651 -0.2544,-2.026307 -0.065,-0.147962 0.021,-0.503562 -0.2112,-0.504993 z"/>
            <path style="fill:#4d4d4d;fill-opacity:1;stroke:none" d="m 3023.2889,49.544791 c -0.8812,0.618644 -1.6444,1.390768 -2.4643,2.089359 -0.067,0.789145 -0.038,1.611158 -0.02,2.41095 -0.031,0.256177 0.2705,0.331057 0.4301,0.165728 0.8726,-0.720675 1.7417,-1.446297 2.557,-2.233384 0.2377,-0.279552 -0.046,-0.682279 -0.044,-1.004956 -0.1005,-0.463652 -0.1721,-0.933233 -0.315,-1.384292 -0.047,-0.01552 -0.087,-0.08682 -0.144,-0.04341 z"/>
            <path style="fill:#4d4d4d;fill-opacity:1;stroke:none" d="m 3022.1347,44.574919 c -0.5022,0.255969 -0.8723,0.714668 -1.314,1.06145 -0.068,0.787838 -0.034,1.608527 -0.016,2.407004 -0.034,0.253983 0.2662,0.339141 0.4262,0.171647 0.5346,-0.438631 1.0939,-0.870774 1.5665,-1.367257 -0.031,-0.549328 -0.2636,-1.101794 -0.3752,-1.649199 -0.104,-0.164395 -0.035,-0.610572 -0.2877,-0.623645 z"/>
            <path style="fill:#4d4d4d;fill-opacity:1;stroke:none" d="m 3020.8384,40.449472 c -0.1087,0.485622 -0.032,1.028894 -0.043,1.536931 -0.058,0.258767 0.2203,0.420996 0.4203,0.256485 0.3431,-0.115786 0.3084,-0.43255 0.1519,-0.702372 -0.1384,-0.369226 -0.2311,-0.773699 -0.4439,-1.100909 l -0.063,0.0073 -0.022,0.0026 z"/>
          </g>
        </g>
      </g>
      <g transform="rotate(81.897014,2781.909,43.073983)">
        <path d="m 2820.2719,-69.834343 c -0.8779,1.443093 -1.2958,3.159521 -1.8106,4.773542 -2.3882,8.574524 -3.6037,17.485823 -4.049,26.379404 -0.1884,5.684018 -0.1531,11.524966 1.6222,16.984602 0.757,2.051698 1.8439,4.210735 3.7955,5.34924 0.6481,0.564484 1.3015,-0.158433 1.8112,-0.54059 2.5481,-2.163921 3.4018,-5.602717 4.0327,-8.744133 1.1012,-6.509615 0.7184,-13.164001 0.1501,-19.707607 -0.7491,-7.283684 -1.9479,-14.562157 -4.1276,-21.562648 -0.3659,-1.001464 -0.6743,-2.079485 -1.314,-2.939702 -0.036,-0.01126 -0.076,-0.01227 -0.1105,0.0079 z" style="fill:#b8a89d;fill-opacity:1;stroke:#000000;stroke-width:0.757614;stroke-linecap:square;stroke-linejoin:miter;stroke-miterlimit:4;stroke-dasharray:none;stroke-dashoffset:0;stroke-opacity:1"/>
        <path d="M 2820.3585,-16.292889 V -69.629727" style="fill:none;stroke:#000000;stroke-width:1px;stroke-linecap:butt;stroke-linejoin:miter;stroke-opacity:1"/>
        <g style="fill:#4d4d4d;fill-opacity:1">
          <g style="fill:#4d4d4d;fill-opacity:1;stroke:none" transform="translate(-199.99856,-108.43317)">
            <path d="m 3024.8613,84.189867 c -1.4096,1.066349 -2.7097,2.297956 -4.0426,3.470426 -0.062,0.792466 -0.043,1.618277 -0.01,2.420815 0.023,0.323983 0.4224,0.196791 0.5584,0.02959 0.8193,-0.696227 1.6877,-1.358359 2.4188,-2.144601 0.5041,-0.738534 0.6533,-1.657444 0.9426,-2.490826 0.094,-0.405686 0.2634,-0.809115 0.2747,-1.224247 -0.014,-0.06002 -0.095,-0.08002 -0.144,-0.06116 z" style="fill:#4d4d4d;fill-opacity:1;stroke:none"/>
            <path d="m 3025.7294,77.481822 c -0.5455,0.324508 -0.9965,0.817346 -1.5073,1.20153 -1.1502,0.984271 -2.3267,1.959924 -3.4205,2.996758 0.012,0.830888 -0.077,1.686864 0.039,2.51173 0.2301,0.273201 0.5675,-0.130573 0.7684,-0.265672 1.3718,-1.189297 2.767,-2.35687 4.0851,-3.607237 0.1125,-0.897584 0.2253,-1.819896 0.2111,-2.730569 -0.015,-0.07962 -0.1031,-0.117544 -0.1756,-0.10654 z" style="fill:#4d4d4d;fill-opacity:1;stroke:none"/>
            <path d="m 3025.8478,71.347908 c -1.7279,1.352651 -3.3679,2.827202 -5.0192,4.277365 -0.065,0.774067 -0.051,1.581354 -0.016,2.365572 -0.03,0.24549 0.2488,0.416315 0.4301,0.224916 1.613,-1.317636 3.2159,-2.67265 4.7548,-4.084015 0.082,-0.8798 0.075,-1.796026 0,-2.68519 -0.01,-0.06743 -0.088,-0.125962 -0.1539,-0.09865 z" style="fill:#4d4d4d;fill-opacity:1;stroke:none"/>
            <path d="m 3025.5262,65.600692 c -1.6003,1.329183 -3.2089,2.668775 -4.7246,4.083857 0.012,0.830855 -0.077,1.687117 0.039,2.511729 0.2302,0.27419 0.565,-0.131633 0.7646,-0.267471 1.4196,-1.230903 2.8587,-2.447207 4.229,-3.731707 0.034,-0.7722 -0.033,-1.575543 -0.1151,-2.352848 -0.017,-0.105345 -0.026,-0.332497 -0.1927,-0.24356 z" style="fill:#4d4d4d;fill-opacity:1;stroke:none"/>
            <path d="m 3025.0389,60.052745 c -1.4769,1.097055 -2.8171,2.375086 -4.2123,3.576966 -0.066,0.768131 -0.045,1.569313 -0.016,2.347815 -0.037,0.237927 0.219,0.453339 0.4143,0.254512 1.4292,-1.179154 2.8235,-2.414853 4.2005,-3.653912 -0.01,-0.808982 -0.1531,-1.641618 -0.2506,-2.454355 -0.01,-0.07401 -0.088,-0.05861 -0.1361,-0.07103 z" style="fill:#4d4d4d;fill-opacity:1;stroke:none"/>
            <path d="m 3024.2832,54.680391 c -0.9572,0.671193 -1.7909,1.51996 -2.6891,2.272856 -0.2422,0.285273 -0.687,0.461629 -0.8032,0.81679 0.034,0.808433 -0.079,1.640818 0.053,2.436598 0.2276,0.268149 0.5473,-0.135991 0.7359,-0.258457 1.0582,-0.897691 2.1016,-1.837811 3.1685,-2.736487 0.014,-0.664285 -0.1785,-1.353651 -0.2544,-2.026307 -0.065,-0.147962 0.021,-0.503562 -0.2112,-0.504993 z" style="fill:#4d4d4d;fill-opacity:1;stroke:none"/>
            <path d="m 3023.2889,49.544791 c -0.8812,0.618644 -1.6444,1.390768 -2.4643,2.089359 -0.067,0.789145 -0.038,1.611158 -0.02,2.41095 -0.031,0.256177 0.2705,0.331057 0.4301,0.165728 0.8726,-0.720675 1.7417,-1.446297 2.557,-2.233384 0.2377,-0.279552 -0.046,-0.682279 -0.044,-1.004956 -0.1005,-0.463652 -0.1721,-0.933233 -0.315,-1.384292 -0.047,-0.01552 -0.087,-0.08682 -0.144,-0.04341 z" style="fill:#4d4d4d;fill-opacity:1;stroke:none"/>
            <path d="m 3022.1347,44.574919 c -0.5022,0.255969 -0.8723,0.714668 -1.314,1.06145 -0.068,0.787838 -0.034,1.608527 -0.016,2.407004 -0.034,0.253983 0.2662,0.339141 0.4262,0.171647 0.5346,-0.438631 1.0939,-0.870774 1.5665,-1.367257 -0.031,-0.549328 -0.2636,-1.101794 -0.3752,-1.649199 -0.104,-0.164395 -0.035,-0.610572 -0.2877,-0.623645 z" style="fill:#4d4d4d;fill-opacity:1;stroke:none"/>
            <path d="m 3020.8384,40.449472 c -0.1087,0.485622 -0.032,1.028894 -0.043,1.536931 -0.058,0.258767 0.2203,0.420996 0.4203,0.256485 0.3431,-0.115786 0.3084,-0.43255 0.1519,-0.702372 -0.1384,-0.369226 -0.2311,-0.773699 -0.4439,-1.100909 l -0.063,0.0073 -0.022,0.0026 z" style="fill:#4d4d4d;fill-opacity:1;stroke:none"/>
          </g>
          <g style="fill:#4d4d4d;fill-opacity:1;stroke:none" transform="matrix(-1,0,0,1,5840.7118,-108.43317)">
            <path style="fill:#4d4d4d;fill-opacity:1;stroke:none" d="m 3024.8613,84.189867 c -1.4096,1.066349 -2.7097,2.297956 -4.0426,3.470426 -0.062,0.792466 -0.043,1.618277 -0.01,2.420815 0.023,0.323983 0.4224,0.196791 0.5584,0.02959 0.8193,-0.696227 1.6877,-1.358359 2.4188,-2.144601 0.5041,-0.738534 0.6533,-1.657444 0.9426,-2.490826 0.094,-0.405686 0.2634,-0.809115 0.2747,-1.224247 -0.014,-0.06002 -0.095,-0.08002 -0.144,-0.06116 z"/>
            <path style="fill:#4d4d4d;fill-opacity:1;stroke:none" d="m 3025.7294,77.481822 c -0.5455,0.324508 -0.9965,0.817346 -1.5073,1.20153 -1.1502,0.984271 -2.3267,1.959924 -3.4205,2.996758 0.012,0.830888 -0.077,1.686864 0.039,2.51173 0.2301,0.273201 0.5675,-0.130573 0.7684,-0.265672 1.3718,-1.189297 2.767,-2.35687 4.0851,-3.607237 0.1125,-0.897584 0.2253,-1.819896 0.2111,-2.730569 -0.015,-0.07962 -0.1031,-0.117544 -0.1756,-0.10654 z"/>
            <path style="fill:#4d4d4d;fill-opacity:1;stroke:none" d="m 3025.8478,71.347908 c -1.7279,1.352651 -3.3679,2.827202 -5.0192,4.277365 -0.065,0.774067 -0.051,1.581354 -0.016,2.365572 -0.03,0.24549 0.2488,0.416315 0.4301,0.224916 1.613,-1.317636 3.2159,-2.67265 4.7548,-4.084015 0.082,-0.8798 0.075,-1.796026 0,-2.68519 -0.01,-0.06743 -0.088,-0.125962 -0.1539,-0.09865 z"/>
            <path style="fill:#4d4d4d;fill-opacity:1;stroke:none" d="m 3025.5262,65.600692 c -1.6003,1.329183 -3.2089,2.668775 -4.7246,4.083857 0.012,0.830855 -0.077,1.687117 0.039,2.511729 0.2302,0.27419 0.565,-0.131633 0.7646,-0.267471 1.4196,-1.230903 2.8587,-2.447207 4.229,-3.731707 0.034,-0.7722 -0.033,-1.575543 -0.1151,-2.352848 -0.017,-0.105345 -0.026,-0.332497 -0.1927,-0.24356 z"/>
            <path style="fill:#4d4d4d;fill-opacity:1;stroke:none" d="m 3025.0389,60.052745 c -1.4769,1.097055 -2.8171,2.375086 -4.2123,3.576966 -0.066,0.768131 -0.045,1.569313 -0.016,2.347815 -0.037,0.237927 0.219,0.453339 0.4143,0.254512 1.4292,-1.179154 2.8235,-2.414853 4.2005,-3.653912 -0.01,-0.808982 -0.1531,-1.641618 -0.2506,-2.454355 -0.01,-0.07401 -0.088,-0.05861 -0.1361,-0.07103 z"/>
            <path style="fill:#4d4d4d;fill-opacity:1;stroke:none" d="m 3024.2832,54.680391 c -0.9572,0.671193 -1.7909,1.51996 -2.6891,2.272856 -0.2422,0.285273 -0.687,0.461629 -0.8032,0.81679 0.034,0.808433 -0.079,1.640818 0.053,2.436598 0.2276,0.268149 0.5473,-0.135991 0.7359,-0.258457 1.0582,-0.897691 2.1016,-1.837811 3.1685,-2.736487 0.014,-0.664285 -0.1785,-1.353651 -0.2544,-2.026307 -0.065,-0.147962 0.021,-0.503562 -0.2112,-0.504993 z"/>
            <path style="fill:#4d4d4d;fill-opacity:1;stroke:none" d="m 3023.2889,49.544791 c -0.8812,0.618644 -1.6444,1.390768 -2.4643,2.089359 -0.067,0.789145 -0.038,1.611158 -0.02,2.41095 -0.031,0.256177 0.2705,0.331057 0.4301,0.165728 0.8726,-0.720675 1.7417,-1.446297 2.557,-2.233384 0.2377,-0.279552 -0.046,-0.682279 -0.044,-1.004956 -0.1005,-0.463652 -0.1721,-0.933233 -0.315,-1.384292 -0.047,-0.01552 -0.087,-0.08682 -0.144,-0.04341 z"/>
            <path style="fill:#4d4d4d;fill-opacity:1;stroke:none" d="m 3022.1347,44.574919 c -0.5022,0.255969 -0.8723,0.714668 -1.314,1.06145 -0.068,0.787838 -0.034,1.608527 -0.016,2.407004 -0.034,0.253983 0.2662,0.339141 0.4262,0.171647 0.5346,-0.438631 1.0939,-0.870774 1.5665,-1.367257 -0.031,-0.549328 -0.2636,-1.101794 -0.3752,-1.649199 -0.104,-0.164395 -0.035,-0.610572 -0.2877,-0.623645 z"/>
            <path style="fill:#4d4d4d;fill-opacity:1;stroke:none" d="m 3020.8384,40.449472 c -0.1087,0.485622 -0.032,1.028894 -0.043,1.536931 -0.058,0.258767 0.2203,0.420996 0.4203,0.256485 0.3431,-0.115786 0.3084,-0.43255 0.1519,-0.702372 -0.1384,-0.369226 -0.2311,-0.773699 -0.4439,-1.100909 l -0.063,0.0073 -0.022,0.0026 z"/>
          </g>
        </g>
      </g>
      <g transform="matrix(-0.1824341,0.77892092,-0.77892092,-0.1824341,3346.9928,-2119.1147)">
        <path style="fill:#b8a89d;fill-opacity:1;stroke:#000000;stroke-width:0.757614;stroke-linecap:square;stroke-linejoin:miter;stroke-miterlimit:4;stroke-dasharray:none;stroke-dashoffset:0;stroke-opacity:1" d="m 2820.2719,-69.834343 c -0.8779,1.443093 -1.2958,3.159521 -1.8106,4.773542 -2.3882,8.574524 -3.6037,17.485823 -4.049,26.379404 -0.1884,5.684018 -0.1531,11.524966 1.6222,16.984602 0.757,2.051698 1.8439,4.210735 3.7955,5.34924 0.6481,0.564484 1.3015,-0.158433 1.8112,-0.54059 2.5481,-2.163921 3.4018,-5.602717 4.0327,-8.744133 1.1012,-6.509615 0.7184,-13.164001 0.1501,-19.707607 -0.7491,-7.283684 -1.9479,-14.562157 -4.1276,-21.562648 -0.3659,-1.001464 -0.6743,-2.079485 -1.314,-2.939702 -0.036,-0.01126 -0.076,-0.01227 -0.1105,0.0079 z"/>
        <path style="fill:none;stroke:#000000;stroke-width:1px;stroke-linecap:butt;stroke-linejoin:miter;stroke-opacity:1" d="M 2820.3585,-16.292889 V -69.629727"/>
        <g style="fill:#4d4d4d;fill-opacity:1">
          <g transform="translate(-199.99856,-108.43317)" style="fill:#4d4d4d;fill-opacity:1;stroke:none">
            <path style="fill:#4d4d4d;fill-opacity:1;stroke:none" d="m 3024.8613,84.189867 c -1.4096,1.066349 -2.7097,2.297956 -4.0426,3.470426 -0.062,0.792466 -0.043,1.618277 -0.01,2.420815 0.023,0.323983 0.4224,0.196791 0.5584,0.02959 0.8193,-0.696227 1.6877,-1.358359 2.4188,-2.144601 0.5041,-0.738534 0.6533,-1.657444 0.9426,-2.490826 0.094,-0.405686 0.2634,-0.809115 0.2747,-1.224247 -0.014,-0.06002 -0.095,-0.08002 -0.144,-0.06116 z"/>
            <path style="fill:#4d4d4d;fill-opacity:1;stroke:none" d="m 3025.7294,77.481822 c -0.5455,0.324508 -0.9965,0.817346 -1.5073,1.20153 -1.1502,0.984271 -2.3267,1.959924 -3.4205,2.996758 0.012,0.830888 -0.077,1.686864 0.039,2.51173 0.2301,0.273201 0.5675,-0.130573 0.7684,-0.265672 1.3718,-1.189297 2.767,-2.35687 4.0851,-3.607237 0.1125,-0.897584 0.2253,-1.819896 0.2111,-2.730569 -0.015,-0.07962 -0.1031,-0.117544 -0.1756,-0.10654 z"/>
            <path style="fill:#4d4d4d;fill-opacity:1;stroke:none" d="m 3025.8478,71.347908 c -1.7279,1.352651 -3.3679,2.827202 -5.0192,4.277365 -0.065,0.774067 -0.051,1.581354 -0.016,2.365572 -0.03,0.24549 0.2488,0.416315 0.4301,0.224916 1.613,-1.317636 3.2159,-2.67265 4.7548,-4.084015 0.082,-0.8798 0.075,-1.796026 0,-2.68519 -0.01,-0.06743 -0.088,-0.125962 -0.1539,-0.09865 z"/>
            <path style="fill:#4d4d4d;fill-opacity:1;stroke:none" d="m 3025.5262,65.600692 c -1.6003,1.329183 -3.2089,2.668775 -4.7246,4.083857 0.012,0.830855 -0.077,1.687117 0.039,2.511729 0.2302,0.27419 0.565,-0.131633 0.7646,-0.267471 1.4196,-1.230903 2.8587,-2.447207 4.229,-3.731707 0.034,-0.7722 -0.033,-1.575543 -0.1151,-2.352848 -0.017,-0.105345 -0.026,-0.332497 -0.1927,-0.24356 z"/>
            <path style="fill:#4d4d4d;fill-opacity:1;stroke:none" d="m 3025.0389,60.052745 c -1.4769,1.097055 -2.8171,2.375086 -4.2123,3.576966 -0.066,0.768131 -0.045,1.569313 -0.016,2.347815 -0.037,0.237927 0.219,0.453339 0.4143,0.254512 1.4292,-1.179154 2.8235,-2.414853 4.2005,-3.653912 -0.01,-0.808982 -0.1531,-1.641618 -0.2506,-2.454355 -0.01,-0.07401 -0.088,-0.05861 -0.1361,-0.07103 z"/>
            <path style="fill:#4d4d4d;fill-opacity:1;stroke:none" d="m 3024.2832,54.680391 c -0.9572,0.671193 -1.7909,1.51996 -2.6891,2.272856 -0.2422,0.285273 -0.687,0.461629 -0.8032,0.81679 0.034,0.808433 -0.079,1.640818 0.053,2.436598 0.2276,0.268149 0.5473,-0.135991 0.7359,-0.258457 1.0582,-0.897691 2.1016,-1.837811 3.1685,-2.736487 0.014,-0.664285 -0.1785,-1.353651 -0.2544,-2.026307 -0.065,-0.147962 0.021,-0.503562 -0.2112,-0.504993 z"/>
            <path style="fill:#4d4d4d;fill-opacity:1;stroke:none" d="m 3023.2889,49.544791 c -0.8812,0.618644 -1.6444,1.390768 -2.4643,2.089359 -0.067,0.789145 -0.038,1.611158 -0.02,2.41095 -0.031,0.256177 0.2705,0.331057 0.4301,0.165728 0.8726,-0.720675 1.7417,-1.446297 2.557,-2.233384 0.2377,-0.279552 -0.046,-0.682279 -0.044,-1.004956 -0.1005,-0.463652 -0.1721,-0.933233 -0.315,-1.384292 -0.047,-0.01552 -0.087,-0.08682 -0.144,-0.04341 z"/>
            <path style="fill:#4d4d4d;fill-opacity:1;stroke:none" d="m 3022.1347,44.574919 c -0.5022,0.255969 -0.8723,0.714668 -1.314,1.06145 -0.068,0.787838 -0.034,1.608527 -0.016,2.407004 -0.034,0.253983 0.2662,0.339141 0.4262,0.171647 0.5346,-0.438631 1.0939,-0.870774 1.5665,-1.367257 -0.031,-0.549328 -0.2636,-1.101794 -0.3752,-1.649199 -0.104,-0.164395 -0.035,-0.610572 -0.2877,-0.623645 z"/>
            <path style="fill:#4d4d4d;fill-opacity:1;stroke:none" d="m 3020.8384,40.449472 c -0.1087,0.485622 -0.032,1.028894 -0.043,1.536931 -0.058,0.258767 0.2203,0.420996 0.4203,0.256485 0.3431,-0.115786 0.3084,-0.43255 0.1519,-0.702372 -0.1384,-0.369226 -0.2311,-0.773699 -0.4439,-1.100909 l -0.063,0.0073 -0.022,0.0026 z"/>
          </g>
          <g transform="matrix(-1,0,0,1,5840.7118,-108.43317)" style="fill:#4d4d4d;fill-opacity:1;stroke:none">
            <path d="m 3024.8613,84.189867 c -1.4096,1.066349 -2.7097,2.297956 -4.0426,3.470426 -0.062,0.792466 -0.043,1.618277 -0.01,2.420815 0.023,0.323983 0.4224,0.196791 0.5584,0.02959 0.8193,-0.696227 1.6877,-1.358359 2.4188,-2.144601 0.5041,-0.738534 0.6533,-1.657444 0.9426,-2.490826 0.094,-0.405686 0.2634,-0.809115 0.2747,-1.224247 -0.014,-0.06002 -0.095,-0.08002 -0.144,-0.06116 z" style="fill:#4d4d4d;fill-opacity:1;stroke:none"/>
            <path d="m 3025.7294,77.481822 c -0.5455,0.324508 -0.9965,0.817346 -1.5073,1.20153 -1.1502,0.984271 -2.3267,1.959924 -3.4205,2.996758 0.012,0.830888 -0.077,1.686864 0.039,2.51173 0.2301,0.273201 0.5675,-0.130573 0.7684,-0.265672 1.3718,-1.189297 2.767,-2.35687 4.0851,-3.607237 0.1125,-0.897584 0.2253,-1.819896 0.2111,-2.730569 -0.015,-0.07962 -0.1031,-0.117544 -0.1756,-0.10654 z" style="fill:#4d4d4d;fill-opacity:1;stroke:none"/>
            <path d="m 3025.8478,71.347908 c -1.7279,1.352651 -3.3679,2.827202 -5.0192,4.277365 -0.065,0.774067 -0.051,1.581354 -0.016,2.365572 -0.03,0.24549 0.2488,0.416315 0.4301,0.224916 1.613,-1.317636 3.2159,-2.67265 4.7548,-4.084015 0.082,-0.8798 0.075,-1.796026 0,-2.68519 -0.01,-0.06743 -0.088,-0.125962 -0.1539,-0.09865 z" style="fill:#4d4d4d;fill-opacity:1;stroke:none"/>
            <path d="m 3025.5262,65.600692 c -1.6003,1.329183 -3.2089,2.668775 -4.7246,4.083857 0.012,0.830855 -0.077,1.687117 0.039,2.511729 0.2302,0.27419 0.565,-0.131633 0.7646,-0.267471 1.4196,-1.230903 2.8587,-2.447207 4.229,-3.731707 0.034,-0.7722 -0.033,-1.575543 -0.1151,-2.352848 -0.017,-0.105345 -0.026,-0.332497 -0.1927,-0.24356 z" style="fill:#4d4d4d;fill-opacity:1;stroke:none"/>
            <path d="m 3025.0389,60.052745 c -1.4769,1.097055 -2.8171,2.375086 -4.2123,3.576966 -0.066,0.768131 -0.045,1.569313 -0.016,2.347815 -0.037,0.237927 0.219,0.453339 0.4143,0.254512 1.4292,-1.179154 2.8235,-2.414853 4.2005,-3.653912 -0.01,-0.808982 -0.1531,-1.641618 -0.2506,-2.454355 -0.01,-0.07401 -0.088,-0.05861 -0.1361,-0.07103 z" style="fill:#4d4d4d;fill-opacity:1;stroke:none"/>
            <path d="m 3024.2832,54.680391 c -0.9572,0.671193 -1.7909,1.51996 -2.6891,2.272856 -0.2422,0.285273 -0.687,0.461629 -0.8032,0.81679 0.034,0.808433 -0.079,1.640818 0.053,2.436598 0.2276,0.268149 0.5473,-0.135991 0.7359,-0.258457 1.0582,-0.897691 2.1016,-1.837811 3.1685,-2.736487 0.014,-0.664285 -0.1785,-1.353651 -0.2544,-2.026307 -0.065,-0.147962 0.021,-0.503562 -0.2112,-0.504993 z" style="fill:#4d4d4d;fill-opacity:1;stroke:none"/>
            <path d="m 3023.2889,49.544791 c -0.8812,0.618644 -1.6444,1.390768 -2.4643,2.089359 -0.067,0.789145 -0.038,1.611158 -0.02,2.41095 -0.031,0.256177 0.2705,0.331057 0.4301,0.165728 0.8726,-0.720675 1.7417,-1.446297 2.557,-2.233384 0.2377,-0.279552 -0.046,-0.682279 -0.044,-1.004956 -0.1005,-0.463652 -0.1721,-0.933233 -0.315,-1.384292 -0.047,-0.01552 -0.087,-0.08682 -0.144,-0.04341 z" style="fill:#4d4d4d;fill-opacity:1;stroke:none"/>
            <path d="m 3022.1347,44.574919 c -0.5022,0.255969 -0.8723,0.714668 -1.314,1.06145 -0.068,0.787838 -0.034,1.608527 -0.016,2.407004 -0.034,0.253983 0.2662,0.339141 0.4262,0.171647 0.5346,-0.438631 1.0939,-0.870774 1.5665,-1.367257 -0.031,-0.549328 -0.2636,-1.101794 -0.3752,-1.649199 -0.104,-0.164395 -0.035,-0.610572 -0.2877,-0.623645 z" style="fill:#4d4d4d;fill-opacity:1;stroke:none"/>
            <path d="m 3020.8384,40.449472 c -0.1087,0.485622 -0.032,1.028894 -0.043,1.536931 -0.058,0.258767 0.2203,0.420996 0.4203,0.256485 0.3431,-0.115786 0.3084,-0.43255 0.1519,-0.702372 -0.1384,-0.369226 -0.2311,-0.773699 -0.4439,-1.100909 l -0.063,0.0073 -0.022,0.0026 z" style="fill:#4d4d4d;fill-opacity:1;stroke:none"/>
          </g>
        </g>
      </g>
      <g transform="rotate(66.566932,2767.6635,31.494186)">
        <path d="m 2820.2719,-69.834343 c -0.8779,1.443093 -1.2958,3.159521 -1.8106,4.773542 -2.3882,8.574524 -3.6037,17.485823 -4.049,26.379404 -0.1884,5.684018 -0.1531,11.524966 1.6222,16.984602 0.757,2.051698 1.8439,4.210735 3.7955,5.34924 0.6481,0.564484 1.3015,-0.158433 1.8112,-0.54059 2.5481,-2.163921 3.4018,-5.602717 4.0327,-8.744133 1.1012,-6.509615 0.7184,-13.164001 0.1501,-19.707607 -0.7491,-7.283684 -1.9479,-14.562157 -4.1276,-21.562648 -0.3659,-1.001464 -0.6743,-2.079485 -1.314,-2.939702 -0.036,-0.01126 -0.076,-0.01227 -0.1105,0.0079 z" style="fill:#b8a89d;fill-opacity:1;stroke:#000000;stroke-width:0.757614;stroke-linecap:square;stroke-linejoin:miter;stroke-miterlimit:4;stroke-dasharray:none;stroke-dashoffset:0;stroke-opacity:1"/>
        <path d="M 2820.3585,-16.292889 V -69.629727" style="fill:none;stroke:#000000;stroke-width:1px;stroke-linecap:butt;stroke-linejoin:miter;stroke-opacity:1"/>
        <g style="fill:#4d4d4d;fill-opacity:1">
          <g style="fill:#4d4d4d;fill-opacity:1;stroke:none" transform="translate(-199.99856,-108.43317)">
            <path d="m 3024.8613,84.189867 c -1.4096,1.066349 -2.7097,2.297956 -4.0426,3.470426 -0.062,0.792466 -0.043,1.618277 -0.01,2.420815 0.023,0.323983 0.4224,0.196791 0.5584,0.02959 0.8193,-0.696227 1.6877,-1.358359 2.4188,-2.144601 0.5041,-0.738534 0.6533,-1.657444 0.9426,-2.490826 0.094,-0.405686 0.2634,-0.809115 0.2747,-1.224247 -0.014,-0.06002 -0.095,-0.08002 -0.144,-0.06116 z" style="fill:#4d4d4d;fill-opacity:1;stroke:none"/>
            <path d="m 3025.7294,77.481822 c -0.5455,0.324508 -0.9965,0.817346 -1.5073,1.20153 -1.1502,0.984271 -2.3267,1.959924 -3.4205,2.996758 0.012,0.830888 -0.077,1.686864 0.039,2.51173 0.2301,0.273201 0.5675,-0.130573 0.7684,-0.265672 1.3718,-1.189297 2.767,-2.35687 4.0851,-3.607237 0.1125,-0.897584 0.2253,-1.819896 0.2111,-2.730569 -0.015,-0.07962 -0.1031,-0.117544 -0.1756,-0.10654 z" style="fill:#4d4d4d;fill-opacity:1;stroke:none"/>
            <path d="m 3025.8478,71.347908 c -1.7279,1.352651 -3.3679,2.827202 -5.0192,4.277365 -0.065,0.774067 -0.051,1.581354 -0.016,2.365572 -0.03,0.24549 0.2488,0.416315 0.4301,0.224916 1.613,-1.317636 3.2159,-2.67265 4.7548,-4.084015 0.082,-0.8798 0.075,-1.796026 0,-2.68519 -0.01,-0.06743 -0.088,-0.125962 -0.1539,-0.09865 z" style="fill:#4d4d4d;fill-opacity:1;stroke:none"/>
            <path d="m 3025.5262,65.600692 c -1.6003,1.329183 -3.2089,2.668775 -4.7246,4.083857 0.012,0.830855 -0.077,1.687117 0.039,2.511729 0.2302,0.27419 0.565,-0.131633 0.7646,-0.267471 1.4196,-1.230903 2.8587,-2.447207 4.229,-3.731707 0.034,-0.7722 -0.033,-1.575543 -0.1151,-2.352848 -0.017,-0.105345 -0.026,-0.332497 -0.1927,-0.24356 z" style="fill:#4d4d4d;fill-opacity:1;stroke:none"/>
            <path d="m 3025.0389,60.052745 c -1.4769,1.097055 -2.8171,2.375086 -4.2123,3.576966 -0.066,0.768131 -0.045,1.569313 -0.016,2.347815 -0.037,0.237927 0.219,0.453339 0.4143,0.254512 1.4292,-1.179154 2.8235,-2.414853 4.2005,-3.653912 -0.01,-0.808982 -0.1531,-1.641618 -0.2506,-2.454355 -0.01,-0.07401 -0.088,-0.05861 -0.1361,-0.07103 z" style="fill:#4d4d4d;fill-opacity:1;stroke:none"/>
            <path d="m 3024.2832,54.680391 c -0.9572,0.671193 -1.7909,1.51996 -2.6891,2.272856 -0.2422,0.285273 -0.687,0.461629 -0.8032,0.81679 0.034,0.808433 -0.079,1.640818 0.053,2.436598 0.2276,0.268149 0.5473,-0.135991 0.7359,-0.258457 1.0582,-0.897691 2.1016,-1.837811 3.1685,-2.736487 0.014,-0.664285 -0.1785,-1.353651 -0.2544,-2.026307 -0.065,-0.147962 0.021,-0.503562 -0.2112,-0.504993 z" style="fill:#4d4d4d;fill-opacity:1;stroke:none"/>
            <path d="m 3023.2889,49.544791 c -0.8812,0.618644 -1.6444,1.390768 -2.4643,2.089359 -0.067,0.789145 -0.038,1.611158 -0.02,2.41095 -0.031,0.256177 0.2705,0.331057 0.4301,0.165728 0.8726,-0.720675 1.7417,-1.446297 2.557,-2.233384 0.2377,-0.279552 -0.046,-0.682279 -0.044,-1.004956 -0.1005,-0.463652 -0.1721,-0.933233 -0.315,-1.384292 -0.047,-0.01552 -0.087,-0.08682 -0.144,-0.04341 z" style="fill:#4d4d4d;fill-opacity:1;stroke:none"/>
            <path d="m 3022.1347,44.574919 c -0.5022,0.255969 -0.8723,0.714668 -1.314,1.06145 -0.068,0.787838 -0.034,1.608527 -0.016,2.407004 -0.034,0.253983 0.2662,0.339141 0.4262,0.171647 0.5346,-0.438631 1.0939,-0.870774 1.5665,-1.367257 -0.031,-0.549328 -0.2636,-1.101794 -0.3752,-1.649199 -0.104,-0.164395 -0.035,-0.610572 -0.2877,-0.623645 z" style="fill:#4d4d4d;fill-opacity:1;stroke:none"/>
            <path d="m 3020.8384,40.449472 c -0.1087,0.485622 -0.032,1.028894 -0.043,1.536931 -0.058,0.258767 0.2203,0.420996 0.4203,0.256485 0.3431,-0.115786 0.3084,-0.43255 0.1519,-0.702372 -0.1384,-0.369226 -0.2311,-0.773699 -0.4439,-1.100909 l -0.063,0.0073 -0.022,0.0026 z" style="fill:#4d4d4d;fill-opacity:1;stroke:none"/>
          </g>
          <g style="fill:#4d4d4d;fill-opacity:1;stroke:none" transform="matrix(-1,0,0,1,5840.7118,-108.43317)">
            <path style="fill:#4d4d4d;fill-opacity:1;stroke:none" d="m 3024.8613,84.189867 c -1.4096,1.066349 -2.7097,2.297956 -4.0426,3.470426 -0.062,0.792466 -0.043,1.618277 -0.01,2.420815 0.023,0.323983 0.4224,0.196791 0.5584,0.02959 0.8193,-0.696227 1.6877,-1.358359 2.4188,-2.144601 0.5041,-0.738534 0.6533,-1.657444 0.9426,-2.490826 0.094,-0.405686 0.2634,-0.809115 0.2747,-1.224247 -0.014,-0.06002 -0.095,-0.08002 -0.144,-0.06116 z"/>
            <path style="fill:#4d4d4d;fill-opacity:1;stroke:none" d="m 3025.7294,77.481822 c -0.5455,0.324508 -0.9965,0.817346 -1.5073,1.20153 -1.1502,0.984271 -2.3267,1.959924 -3.4205,2.996758 0.012,0.830888 -0.077,1.686864 0.039,2.51173 0.2301,0.273201 0.5675,-0.130573 0.7684,-0.265672 1.3718,-1.189297 2.767,-2.35687 4.0851,-3.607237 0.1125,-0.897584 0.2253,-1.819896 0.2111,-2.730569 -0.015,-0.07962 -0.1031,-0.117544 -0.1756,-0.10654 z"/>
            <path style="fill:#4d4d4d;fill-opacity:1;stroke:none" d="m 3025.8478,71.347908 c -1.7279,1.352651 -3.3679,2.827202 -5.0192,4.277365 -0.065,0.774067 -0.051,1.581354 -0.016,2.365572 -0.03,0.24549 0.2488,0.416315 0.4301,0.224916 1.613,-1.317636 3.2159,-2.67265 4.7548,-4.084015 0.082,-0.8798 0.075,-1.796026 0,-2.68519 -0.01,-0.06743 -0.088,-0.125962 -0.1539,-0.09865 z"/>
            <path style="fill:#4d4d4d;fill-opacity:1;stroke:none" d="m 3025.5262,65.600692 c -1.6003,1.329183 -3.2089,2.668775 -4.7246,4.083857 0.012,0.830855 -0.077,1.687117 0.039,2.511729 0.2302,0.27419 0.565,-0.131633 0.7646,-0.267471 1.4196,-1.230903 2.8587,-2.447207 4.229,-3.731707 0.034,-0.7722 -0.033,-1.575543 -0.1151,-2.352848 -0.017,-0.105345 -0.026,-0.332497 -0.1927,-0.24356 z"/>
            <path style="fill:#4d4d4d;fill-opacity:1;stroke:none" d="m 3025.0389,60.052745 c -1.4769,1.097055 -2.8171,2.375086 -4.2123,3.576966 -0.066,0.768131 -0.045,1.569313 -0.016,2.347815 -0.037,0.237927 0.219,0.453339 0.4143,0.254512 1.4292,-1.179154 2.8235,-2.414853 4.2005,-3.653912 -0.01,-0.808982 -0.1531,-1.641618 -0.2506,-2.454355 -0.01,-0.07401 -0.088,-0.05861 -0.1361,-0.07103 z"/>
            <path style="fill:#4d4d4d;fill-opacity:1;stroke:none" d="m 3024.2832,54.680391 c -0.9572,0.671193 -1.7909,1.51996 -2.6891,2.272856 -0.2422,0.285273 -0.687,0.461629 -0.8032,0.81679 0.034,0.808433 -0.079,1.640818 0.053,2.436598 0.2276,0.268149 0.5473,-0.135991 0.7359,-0.258457 1.0582,-0.897691 2.1016,-1.837811 3.1685,-2.736487 0.014,-0.664285 -0.1785,-1.353651 -0.2544,-2.026307 -0.065,-0.147962 0.021,-0.503562 -0.2112,-0.504993 z"/>
            <path style="fill:#4d4d4d;fill-opacity:1;stroke:none" d="m 3023.2889,49.544791 c -0.8812,0.618644 -1.6444,1.390768 -2.4643,2.089359 -0.067,0.789145 -0.038,1.611158 -0.02,2.41095 -0.031,0.256177 0.2705,0.331057 0.4301,0.165728 0.8726,-0.720675 1.7417,-1.446297 2.557,-2.233384 0.2377,-0.279552 -0.046,-0.682279 -0.044,-1.004956 -0.1005,-0.463652 -0.1721,-0.933233 -0.315,-1.384292 -0.047,-0.01552 -0.087,-0.08682 -0.144,-0.04341 z"/>
            <path style="fill:#4d4d4d;fill-opacity:1;stroke:none" d="m 3022.1347,44.574919 c -0.5022,0.255969 -0.8723,0.714668 -1.314,1.06145 -0.068,0.787838 -0.034,1.608527 -0.016,2.407004 -0.034,0.253983 0.2662,0.339141 0.4262,0.171647 0.5346,-0.438631 1.0939,-0.870774 1.5665,-1.367257 -0.031,-0.549328 -0.2636,-1.101794 -0.3752,-1.649199 -0.104,-0.164395 -0.035,-0.610572 -0.2877,-0.623645 z"/>
            <path style="fill:#4d4d4d;fill-opacity:1;stroke:none" d="m 3020.8384,40.449472 c -0.1087,0.485622 -0.032,1.028894 -0.043,1.536931 -0.058,0.258767 0.2203,0.420996 0.4203,0.256485 0.3431,-0.115786 0.3084,-0.43255 0.1519,-0.702372 -0.1384,-0.369226 -0.2311,-0.773699 -0.4439,-1.100909 l -0.063,0.0073 -0.022,0.0026 z"/>
          </g>
        </g>
      </g>
      <g>
        <path style="fill:#ffffff;stroke:#000000;stroke-width:0.5px;stroke-linecap:butt;stroke-linejoin:miter;stroke-opacity:1" d="m 2713.8113,127.02015 0.8818,9.78385 -3.8575,1.38163 c 0.6185,-3.98896 -1.5744,-10.00846 2.9757,-11.16548 z"/>
        <path style="fill:#ffffff;stroke:#000000;stroke-width:0.5px;stroke-linecap:butt;stroke-linejoin:miter;stroke-opacity:1" d="m 2720.7577,125.26779 0.8818,9.78385 -3.8575,1.38163 c 0.6185,-3.98896 -1.5744,-10.00846 2.9757,-11.16548 z"/>
        <path style="fill:#ffffff;stroke:#000000;stroke-width:0.5px;stroke-linecap:butt;stroke-linejoin:miter;stroke-opacity:1" d="m 2727.7025,122.36359 0.8818,9.78385 -3.8575,1.38163 c 0.6185,-3.98896 -1.5744,-10.00846 2.9757,-11.16548 z"/>
        <path style="fill:#ffffff;stroke:#000000;stroke-width:0.5px;stroke-linecap:butt;stroke-linejoin:miter;stroke-opacity:1" d="m 2733.6371,119.45941 0.8818,9.78385 -3.8575,1.38163 c 0.6185,-3.98896 -1.5744,-10.00846 2.9757,-11.16548 z"/>
        <path style="fill:#ffffff;stroke:#000000;stroke-width:0.5px;stroke-linecap:butt;stroke-linejoin:miter;stroke-opacity:1" d="m 2741.2133,117.06029 0.8818,9.78385 -3.8575,1.38163 c 0.6185,-3.98896 -1.5744,-10.00846 2.9757,-11.16548 z"/>
        <path style="fill:#ffffff;stroke:#000000;stroke-width:0.5px;stroke-linecap:butt;stroke-linejoin:miter;stroke-opacity:1" d="m 2748.9157,113.52476 0.8818,9.78385 -3.8575,1.38163 c 0.6185,-3.98896 -1.5744,-10.00846 2.9757,-11.16548 z"/>
        <path d="m 2706.1089,89.824577 0.8818,-9.78385 -3.8575,-1.38163 c 0.6185,3.98896 -1.5744,10.00846 2.9757,11.16548 z" style="fill:#ffffff;stroke:#000000;stroke-width:0.5px;stroke-linecap:butt;stroke-linejoin:miter;stroke-opacity:1"/>
        <path d="m 2713.5603,91.86028 0.8818,-9.78385 -3.8575,-1.38163 c 0.6185,3.98896 -1.5744,10.00846 2.9757,11.16548 z" style="fill:#ffffff;stroke:#000000;stroke-width:0.5px;stroke-linecap:butt;stroke-linejoin:miter;stroke-opacity:1"/>
        <path d="m 2720.7577,93.249241 0.8818,-9.78385 -3.8575,-1.38163 c 0.6185,3.98896 -1.5744,10.00846 2.9757,11.16548 z" style="fill:#ffffff;stroke:#000000;stroke-width:0.5px;stroke-linecap:butt;stroke-linejoin:miter;stroke-opacity:1"/>
        <path d="m 2727.8288,94.385662 0.8818,-9.78385 -3.8575,-1.38163 c 0.6185,3.98896 -1.5744,10.00846 2.9757,11.16548 z" style="fill:#ffffff;stroke:#000000;stroke-width:0.5px;stroke-linecap:butt;stroke-linejoin:miter;stroke-opacity:1"/>
        <path d="m 2735.5312,96.784775 0.8818,-9.78385 -3.8575,-1.38163 c 0.6185,3.98896 -1.5744,10.00846 2.9757,11.16548 z" style="fill:#ffffff;stroke:#000000;stroke-width:0.5px;stroke-linecap:butt;stroke-linejoin:miter;stroke-opacity:1"/>
        <path d="m 2743.1073,98.300003 0.8818,-9.78385 -3.8575,-1.38163 c 0.6185,3.98896 -1.5744,10.00846 2.9757,11.16548 z" style="fill:#ffffff;stroke:#000000;stroke-width:0.5px;stroke-linecap:butt;stroke-linejoin:miter;stroke-opacity:1"/>
        <path d="m 2751.0623,97.921196 0.8818,-9.78385 -3.8575,-1.38163 c 0.6185,3.98896 -1.5744,10.00846 2.9757,11.16548 z" style="fill:#ffffff;stroke:#000000;stroke-width:0.5px;stroke-linecap:butt;stroke-linejoin:miter;stroke-opacity:1"/>
      </g>
      <g transform="rotate(70.732291,2773.064,39.630075)">
        <path style="fill:#b8a89d;fill-opacity:1;stroke:#000000;stroke-width:0.757614;stroke-linecap:square;stroke-linejoin:miter;stroke-miterlimit:4;stroke-dasharray:none;stroke-dashoffset:0;stroke-opacity:1" d="m 2820.2719,-69.834343 c -0.8779,1.443093 -1.2958,3.159521 -1.8106,4.773542 -2.3882,8.574524 -3.6037,17.485823 -4.049,26.379404 -0.1884,5.684018 -0.1531,11.524966 1.6222,16.984602 0.757,2.051698 1.8439,4.210735 3.7955,5.34924 0.6481,0.564484 1.3015,-0.158433 1.8112,-0.54059 2.5481,-2.163921 3.4018,-5.602717 4.0327,-8.744133 1.1012,-6.509615 0.7184,-13.164001 0.1501,-19.707607 -0.7491,-7.283684 -1.9479,-14.562157 -4.1276,-21.562648 -0.3659,-1.001464 -0.6743,-2.079485 -1.314,-2.939702 -0.036,-0.01126 -0.076,-0.01227 -0.1105,0.0079 z"/>
        <path style="fill:none;stroke:#000000;stroke-width:1px;stroke-linecap:butt;stroke-linejoin:miter;stroke-opacity:1" d="M 2820.3585,-16.292889 V -69.629727"/>
        <g style="fill:#4d4d4d;fill-opacity:1">
          <g transform="translate(-199.99856,-108.43317)" style="fill:#4d4d4d;fill-opacity:1;stroke:none">
            <path style="fill:#4d4d4d;fill-opacity:1;stroke:none" d="m 3024.8613,84.189867 c -1.4096,1.066349 -2.7097,2.297956 -4.0426,3.470426 -0.062,0.792466 -0.043,1.618277 -0.01,2.420815 0.023,0.323983 0.4224,0.196791 0.5584,0.02959 0.8193,-0.696227 1.6877,-1.358359 2.4188,-2.144601 0.5041,-0.738534 0.6533,-1.657444 0.9426,-2.490826 0.094,-0.405686 0.2634,-0.809115 0.2747,-1.224247 -0.014,-0.06002 -0.095,-0.08002 -0.144,-0.06116 z"/>
            <path style="fill:#4d4d4d;fill-opacity:1;stroke:none" d="m 3025.7294,77.481822 c -0.5455,0.324508 -0.9965,0.817346 -1.5073,1.20153 -1.1502,0.984271 -2.3267,1.959924 -3.4205,2.996758 0.012,0.830888 -0.077,1.686864 0.039,2.51173 0.2301,0.273201 0.5675,-0.130573 0.7684,-0.265672 1.3718,-1.189297 2.767,-2.35687 4.0851,-3.607237 0.1125,-0.897584 0.2253,-1.819896 0.2111,-2.730569 -0.015,-0.07962 -0.1031,-0.117544 -0.1756,-0.10654 z"/>
            <path style="fill:#4d4d4d;fill-opacity:1;stroke:none" d="m 3025.8478,71.347908 c -1.7279,1.352651 -3.3679,2.827202 -5.0192,4.277365 -0.065,0.774067 -0.051,1.581354 -0.016,2.365572 -0.03,0.24549 0.2488,0.416315 0.4301,0.224916 1.613,-1.317636 3.2159,-2.67265 4.7548,-4.084015 0.082,-0.8798 0.075,-1.796026 0,-2.68519 -0.01,-0.06743 -0.088,-0.125962 -0.1539,-0.09865 z"/>
            <path style="fill:#4d4d4d;fill-opacity:1;stroke:none" d="m 3025.5262,65.600692 c -1.6003,1.329183 -3.2089,2.668775 -4.7246,4.083857 0.012,0.830855 -0.077,1.687117 0.039,2.511729 0.2302,0.27419 0.565,-0.131633 0.7646,-0.267471 1.4196,-1.230903 2.8587,-2.447207 4.229,-3.731707 0.034,-0.7722 -0.033,-1.575543 -0.1151,-2.352848 -0.017,-0.105345 -0.026,-0.332497 -0.1927,-0.24356 z"/>
            <path style="fill:#4d4d4d;fill-opacity:1;stroke:none" d="m 3025.0389,60.052745 c -1.4769,1.097055 -2.8171,2.375086 -4.2123,3.576966 -0.066,0.768131 -0.045,1.569313 -0.016,2.347815 -0.037,0.237927 0.219,0.453339 0.4143,0.254512 1.4292,-1.179154 2.8235,-2.414853 4.2005,-3.653912 -0.01,-0.808982 -0.1531,-1.641618 -0.2506,-2.454355 -0.01,-0.07401 -0.088,-0.05861 -0.1361,-0.07103 z"/>
            <path style="fill:#4d4d4d;fill-opacity:1;stroke:none" d="m 3024.2832,54.680391 c -0.9572,0.671193 -1.7909,1.51996 -2.6891,2.272856 -0.2422,0.285273 -0.687,0.461629 -0.8032,0.81679 0.034,0.808433 -0.079,1.640818 0.053,2.436598 0.2276,0.268149 0.5473,-0.135991 0.7359,-0.258457 1.0582,-0.897691 2.1016,-1.837811 3.1685,-2.736487 0.014,-0.664285 -0.1785,-1.353651 -0.2544,-2.026307 -0.065,-0.147962 0.021,-0.503562 -0.2112,-0.504993 z"/>
            <path style="fill:#4d4d4d;fill-opacity:1;stroke:none" d="m 3023.2889,49.544791 c -0.8812,0.618644 -1.6444,1.390768 -2.4643,2.089359 -0.067,0.789145 -0.038,1.611158 -0.02,2.41095 -0.031,0.256177 0.2705,0.331057 0.4301,0.165728 0.8726,-0.720675 1.7417,-1.446297 2.557,-2.233384 0.2377,-0.279552 -0.046,-0.682279 -0.044,-1.004956 -0.1005,-0.463652 -0.1721,-0.933233 -0.315,-1.384292 -0.047,-0.01552 -0.087,-0.08682 -0.144,-0.04341 z"/>
            <path style="fill:#4d4d4d;fill-opacity:1;stroke:none" d="m 3022.1347,44.574919 c -0.5022,0.255969 -0.8723,0.714668 -1.314,1.06145 -0.068,0.787838 -0.034,1.608527 -0.016,2.407004 -0.034,0.253983 0.2662,0.339141 0.4262,0.171647 0.5346,-0.438631 1.0939,-0.870774 1.5665,-1.367257 -0.031,-0.549328 -0.2636,-1.101794 -0.3752,-1.649199 -0.104,-0.164395 -0.035,-0.610572 -0.2877,-0.623645 z"/>
            <path style="fill:#4d4d4d;fill-opacity:1;stroke:none" d="m 3020.8384,40.449472 c -0.1087,0.485622 -0.032,1.028894 -0.043,1.536931 -0.058,0.258767 0.2203,0.420996 0.4203,0.256485 0.3431,-0.115786 0.3084,-0.43255 0.1519,-0.702372 -0.1384,-0.369226 -0.2311,-0.773699 -0.4439,-1.100909 l -0.063,0.0073 -0.022,0.0026 z"/>
          </g>
          <g transform="matrix(-1,0,0,1,5840.7118,-108.43317)" style="fill:#4d4d4d;fill-opacity:1;stroke:none">
            <path d="m 3024.8613,84.189867 c -1.4096,1.066349 -2.7097,2.297956 -4.0426,3.470426 -0.062,0.792466 -0.043,1.618277 -0.01,2.420815 0.023,0.323983 0.4224,0.196791 0.5584,0.02959 0.8193,-0.696227 1.6877,-1.358359 2.4188,-2.144601 0.5041,-0.738534 0.6533,-1.657444 0.9426,-2.490826 0.094,-0.405686 0.2634,-0.809115 0.2747,-1.224247 -0.014,-0.06002 -0.095,-0.08002 -0.144,-0.06116 z" style="fill:#4d4d4d;fill-opacity:1;stroke:none"/>
            <path d="m 3025.7294,77.481822 c -0.5455,0.324508 -0.9965,0.817346 -1.5073,1.20153 -1.1502,0.984271 -2.3267,1.959924 -3.4205,2.996758 0.012,0.830888 -0.077,1.686864 0.039,2.51173 0.2301,0.273201 0.5675,-0.130573 0.7684,-0.265672 1.3718,-1.189297 2.767,-2.35687 4.0851,-3.607237 0.1125,-0.897584 0.2253,-1.819896 0.2111,-2.730569 -0.015,-0.07962 -0.1031,-0.117544 -0.1756,-0.10654 z" style="fill:#4d4d4d;fill-opacity:1;stroke:none"/>
            <path d="m 3025.8478,71.347908 c -1.7279,1.352651 -3.3679,2.827202 -5.0192,4.277365 -0.065,0.774067 -0.051,1.581354 -0.016,2.365572 -0.03,0.24549 0.2488,0.416315 0.4301,0.224916 1.613,-1.317636 3.2159,-2.67265 4.7548,-4.084015 0.082,-0.8798 0.075,-1.796026 0,-2.68519 -0.01,-0.06743 -0.088,-0.125962 -0.1539,-0.09865 z" style="fill:#4d4d4d;fill-opacity:1;stroke:none"/>
            <path d="m 3025.5262,65.600692 c -1.6003,1.329183 -3.2089,2.668775 -4.7246,4.083857 0.012,0.830855 -0.077,1.687117 0.039,2.511729 0.2302,0.27419 0.565,-0.131633 0.7646,-0.267471 1.4196,-1.230903 2.8587,-2.447207 4.229,-3.731707 0.034,-0.7722 -0.033,-1.575543 -0.1151,-2.352848 -0.017,-0.105345 -0.026,-0.332497 -0.1927,-0.24356 z" style="fill:#4d4d4d;fill-opacity:1;stroke:none"/>
            <path d="m 3025.0389,60.052745 c -1.4769,1.097055 -2.8171,2.375086 -4.2123,3.576966 -0.066,0.768131 -0.045,1.569313 -0.016,2.347815 -0.037,0.237927 0.219,0.453339 0.4143,0.254512 1.4292,-1.179154 2.8235,-2.414853 4.2005,-3.653912 -0.01,-0.808982 -0.1531,-1.641618 -0.2506,-2.454355 -0.01,-0.07401 -0.088,-0.05861 -0.1361,-0.07103 z" style="fill:#4d4d4d;fill-opacity:1;stroke:none"/>
            <path d="m 3024.2832,54.680391 c -0.9572,0.671193 -1.7909,1.51996 -2.6891,2.272856 -0.2422,0.285273 -0.687,0.461629 -0.8032,0.81679 0.034,0.808433 -0.079,1.640818 0.053,2.436598 0.2276,0.268149 0.5473,-0.135991 0.7359,-0.258457 1.0582,-0.897691 2.1016,-1.837811 3.1685,-2.736487 0.014,-0.664285 -0.1785,-1.353651 -0.2544,-2.026307 -0.065,-0.147962 0.021,-0.503562 -0.2112,-0.504993 z" style="fill:#4d4d4d;fill-opacity:1;stroke:none"/>
            <path d="m 3023.2889,49.544791 c -0.8812,0.618644 -1.6444,1.390768 -2.4643,2.089359 -0.067,0.789145 -0.038,1.611158 -0.02,2.41095 -0.031,0.256177 0.2705,0.331057 0.4301,0.165728 0.8726,-0.720675 1.7417,-1.446297 2.557,-2.233384 0.2377,-0.279552 -0.046,-0.682279 -0.044,-1.004956 -0.1005,-0.463652 -0.1721,-0.933233 -0.315,-1.384292 -0.047,-0.01552 -0.087,-0.08682 -0.144,-0.04341 z" style="fill:#4d4d4d;fill-opacity:1;stroke:none"/>
            <path d="m 3022.1347,44.574919 c -0.5022,0.255969 -0.8723,0.714668 -1.314,1.06145 -0.068,0.787838 -0.034,1.608527 -0.016,2.407004 -0.034,0.253983 0.2662,0.339141 0.4262,0.171647 0.5346,-0.438631 1.0939,-0.870774 1.5665,-1.367257 -0.031,-0.549328 -0.2636,-1.101794 -0.3752,-1.649199 -0.104,-0.164395 -0.035,-0.610572 -0.2877,-0.623645 z" style="fill:#4d4d4d;fill-opacity:1;stroke:none"/>
            <path d="m 3020.8384,40.449472 c -0.1087,0.485622 -0.032,1.028894 -0.043,1.536931 -0.058,0.258767 0.2203,0.420996 0.4203,0.256485 0.3431,-0.115786 0.3084,-0.43255 0.1519,-0.702372 -0.1384,-0.369226 -0.2311,-0.773699 -0.4439,-1.100909 l -0.063,0.0073 -0.022,0.0026 z" style="fill:#4d4d4d;fill-opacity:1;stroke:none"/>
          </g>
        </g>
      </g>
      <g transform="rotate(80.426235,2781.5241,39.800179)">
        <path style="fill:#b8a89d;fill-opacity:1;stroke:#000000;stroke-width:0.757614;stroke-linecap:square;stroke-linejoin:miter;stroke-miterlimit:4;stroke-dasharray:none;stroke-dashoffset:0;stroke-opacity:1" d="m 2820.2719,-69.834343 c -0.8779,1.443093 -1.2958,3.159521 -1.8106,4.773542 -2.3882,8.574524 -3.6037,17.485823 -4.049,26.379404 -0.1884,5.684018 -0.1531,11.524966 1.6222,16.984602 0.757,2.051698 1.8439,4.210735 3.7955,5.34924 0.6481,0.564484 1.3015,-0.158433 1.8112,-0.54059 2.5481,-2.163921 3.4018,-5.602717 4.0327,-8.744133 1.1012,-6.509615 0.7184,-13.164001 0.1501,-19.707607 -0.7491,-7.283684 -1.9479,-14.562157 -4.1276,-21.562648 -0.3659,-1.001464 -0.6743,-2.079485 -1.314,-2.939702 -0.036,-0.01126 -0.076,-0.01227 -0.1105,0.0079 z"/>
        <path style="fill:none;stroke:#000000;stroke-width:1px;stroke-linecap:butt;stroke-linejoin:miter;stroke-opacity:1" d="M 2820.3585,-16.292889 V -69.629727"/>
        <g style="fill:#4d4d4d;fill-opacity:1">
          <g transform="translate(-199.99856,-108.43317)" style="fill:#4d4d4d;fill-opacity:1;stroke:none">
            <path style="fill:#4d4d4d;fill-opacity:1;stroke:none" d="m 3024.8613,84.189867 c -1.4096,1.066349 -2.7097,2.297956 -4.0426,3.470426 -0.062,0.792466 -0.043,1.618277 -0.01,2.420815 0.023,0.323983 0.4224,0.196791 0.5584,0.02959 0.8193,-0.696227 1.6877,-1.358359 2.4188,-2.144601 0.5041,-0.738534 0.6533,-1.657444 0.9426,-2.490826 0.094,-0.405686 0.2634,-0.809115 0.2747,-1.224247 -0.014,-0.06002 -0.095,-0.08002 -0.144,-0.06116 z"/>
            <path style="fill:#4d4d4d;fill-opacity:1;stroke:none" d="m 3025.7294,77.481822 c -0.5455,0.324508 -0.9965,0.817346 -1.5073,1.20153 -1.1502,0.984271 -2.3267,1.959924 -3.4205,2.996758 0.012,0.830888 -0.077,1.686864 0.039,2.51173 0.2301,0.273201 0.5675,-0.130573 0.7684,-0.265672 1.3718,-1.189297 2.767,-2.35687 4.0851,-3.607237 0.1125,-0.897584 0.2253,-1.819896 0.2111,-2.730569 -0.015,-0.07962 -0.1031,-0.117544 -0.1756,-0.10654 z"/>
            <path style="fill:#4d4d4d;fill-opacity:1;stroke:none" d="m 3025.8478,71.347908 c -1.7279,1.352651 -3.3679,2.827202 -5.0192,4.277365 -0.065,0.774067 -0.051,1.581354 -0.016,2.365572 -0.03,0.24549 0.2488,0.416315 0.4301,0.224916 1.613,-1.317636 3.2159,-2.67265 4.7548,-4.084015 0.082,-0.8798 0.075,-1.796026 0,-2.68519 -0.01,-0.06743 -0.088,-0.125962 -0.1539,-0.09865 z"/>
            <path style="fill:#4d4d4d;fill-opacity:1;stroke:none" d="m 3025.5262,65.600692 c -1.6003,1.329183 -3.2089,2.668775 -4.7246,4.083857 0.012,0.830855 -0.077,1.687117 0.039,2.511729 0.2302,0.27419 0.565,-0.131633 0.7646,-0.267471 1.4196,-1.230903 2.8587,-2.447207 4.229,-3.731707 0.034,-0.7722 -0.033,-1.575543 -0.1151,-2.352848 -0.017,-0.105345 -0.026,-0.332497 -0.1927,-0.24356 z"/>
            <path style="fill:#4d4d4d;fill-opacity:1;stroke:none" d="m 3025.0389,60.052745 c -1.4769,1.097055 -2.8171,2.375086 -4.2123,3.576966 -0.066,0.768131 -0.045,1.569313 -0.016,2.347815 -0.037,0.237927 0.219,0.453339 0.4143,0.254512 1.4292,-1.179154 2.8235,-2.414853 4.2005,-3.653912 -0.01,-0.808982 -0.1531,-1.641618 -0.2506,-2.454355 -0.01,-0.07401 -0.088,-0.05861 -0.1361,-0.07103 z"/>
            <path style="fill:#4d4d4d;fill-opacity:1;stroke:none" d="m 3024.2832,54.680391 c -0.9572,0.671193 -1.7909,1.51996 -2.6891,2.272856 -0.2422,0.285273 -0.687,0.461629 -0.8032,0.81679 0.034,0.808433 -0.079,1.640818 0.053,2.436598 0.2276,0.268149 0.5473,-0.135991 0.7359,-0.258457 1.0582,-0.897691 2.1016,-1.837811 3.1685,-2.736487 0.014,-0.664285 -0.1785,-1.353651 -0.2544,-2.026307 -0.065,-0.147962 0.021,-0.503562 -0.2112,-0.504993 z"/>
            <path style="fill:#4d4d4d;fill-opacity:1;stroke:none" d="m 3023.2889,49.544791 c -0.8812,0.618644 -1.6444,1.390768 -2.4643,2.089359 -0.067,0.789145 -0.038,1.611158 -0.02,2.41095 -0.031,0.256177 0.2705,0.331057 0.4301,0.165728 0.8726,-0.720675 1.7417,-1.446297 2.557,-2.233384 0.2377,-0.279552 -0.046,-0.682279 -0.044,-1.004956 -0.1005,-0.463652 -0.1721,-0.933233 -0.315,-1.384292 -0.047,-0.01552 -0.087,-0.08682 -0.144,-0.04341 z"/>
            <path style="fill:#4d4d4d;fill-opacity:1;stroke:none" d="m 3022.1347,44.574919 c -0.5022,0.255969 -0.8723,0.714668 -1.314,1.06145 -0.068,0.787838 -0.034,1.608527 -0.016,2.407004 -0.034,0.253983 0.2662,0.339141 0.4262,0.171647 0.5346,-0.438631 1.0939,-0.870774 1.5665,-1.367257 -0.031,-0.549328 -0.2636,-1.101794 -0.3752,-1.649199 -0.104,-0.164395 -0.035,-0.610572 -0.2877,-0.623645 z"/>
            <path style="fill:#4d4d4d;fill-opacity:1;stroke:none" d="m 3020.8384,40.449472 c -0.1087,0.485622 -0.032,1.028894 -0.043,1.536931 -0.058,0.258767 0.2203,0.420996 0.4203,0.256485 0.3431,-0.115786 0.3084,-0.43255 0.1519,-0.702372 -0.1384,-0.369226 -0.2311,-0.773699 -0.4439,-1.100909 l -0.063,0.0073 -0.022,0.0026 z"/>
          </g>
          <g transform="matrix(-1,0,0,1,5840.7118,-108.43317)" style="fill:#4d4d4d;fill-opacity:1;stroke:none">
            <path d="m 3024.8613,84.189867 c -1.4096,1.066349 -2.7097,2.297956 -4.0426,3.470426 -0.062,0.792466 -0.043,1.618277 -0.01,2.420815 0.023,0.323983 0.4224,0.196791 0.5584,0.02959 0.8193,-0.696227 1.6877,-1.358359 2.4188,-2.144601 0.5041,-0.738534 0.6533,-1.657444 0.9426,-2.490826 0.094,-0.405686 0.2634,-0.809115 0.2747,-1.224247 -0.014,-0.06002 -0.095,-0.08002 -0.144,-0.06116 z" style="fill:#4d4d4d;fill-opacity:1;stroke:none"/>
            <path d="m 3025.7294,77.481822 c -0.5455,0.324508 -0.9965,0.817346 -1.5073,1.20153 -1.1502,0.984271 -2.3267,1.959924 -3.4205,2.996758 0.012,0.830888 -0.077,1.686864 0.039,2.51173 0.2301,0.273201 0.5675,-0.130573 0.7684,-0.265672 1.3718,-1.189297 2.767,-2.35687 4.0851,-3.607237 0.1125,-0.897584 0.2253,-1.819896 0.2111,-2.730569 -0.015,-0.07962 -0.1031,-0.117544 -0.1756,-0.10654 z" style="fill:#4d4d4d;fill-opacity:1;stroke:none"/>
            <path d="m 3025.8478,71.347908 c -1.7279,1.352651 -3.3679,2.827202 -5.0192,4.277365 -0.065,0.774067 -0.051,1.581354 -0.016,2.365572 -0.03,0.24549 0.2488,0.416315 0.4301,0.224916 1.613,-1.317636 3.2159,-2.67265 4.7548,-4.084015 0.082,-0.8798 0.075,-1.796026 0,-2.68519 -0.01,-0.06743 -0.088,-0.125962 -0.1539,-0.09865 z" style="fill:#4d4d4d;fill-opacity:1;stroke:none"/>
            <path d="m 3025.5262,65.600692 c -1.6003,1.329183 -3.2089,2.668775 -4.7246,4.083857 0.012,0.830855 -0.077,1.687117 0.039,2.511729 0.2302,0.27419 0.565,-0.131633 0.7646,-0.267471 1.4196,-1.230903 2.8587,-2.447207 4.229,-3.731707 0.034,-0.7722 -0.033,-1.575543 -0.1151,-2.352848 -0.017,-0.105345 -0.026,-0.332497 -0.1927,-0.24356 z" style="fill:#4d4d4d;fill-opacity:1;stroke:none"/>
            <path d="m 3025.0389,60.052745 c -1.4769,1.097055 -2.8171,2.375086 -4.2123,3.576966 -0.066,0.768131 -0.045,1.569313 -0.016,2.347815 -0.037,0.237927 0.219,0.453339 0.4143,0.254512 1.4292,-1.179154 2.8235,-2.414853 4.2005,-3.653912 -0.01,-0.808982 -0.1531,-1.641618 -0.2506,-2.454355 -0.01,-0.07401 -0.088,-0.05861 -0.1361,-0.07103 z" style="fill:#4d4d4d;fill-opacity:1;stroke:none"/>
            <path d="m 3024.2832,54.680391 c -0.9572,0.671193 -1.7909,1.51996 -2.6891,2.272856 -0.2422,0.285273 -0.687,0.461629 -0.8032,0.81679 0.034,0.808433 -0.079,1.640818 0.053,2.436598 0.2276,0.268149 0.5473,-0.135991 0.7359,-0.258457 1.0582,-0.897691 2.1016,-1.837811 3.1685,-2.736487 0.014,-0.664285 -0.1785,-1.353651 -0.2544,-2.026307 -0.065,-0.147962 0.021,-0.503562 -0.2112,-0.504993 z" style="fill:#4d4d4d;fill-opacity:1;stroke:none"/>
            <path d="m 3023.2889,49.544791 c -0.8812,0.618644 -1.6444,1.390768 -2.4643,2.089359 -0.067,0.789145 -0.038,1.611158 -0.02,2.41095 -0.031,0.256177 0.2705,0.331057 0.4301,0.165728 0.8726,-0.720675 1.7417,-1.446297 2.557,-2.233384 0.2377,-0.279552 -0.046,-0.682279 -0.044,-1.004956 -0.1005,-0.463652 -0.1721,-0.933233 -0.315,-1.384292 -0.047,-0.01552 -0.087,-0.08682 -0.144,-0.04341 z" style="fill:#4d4d4d;fill-opacity:1;stroke:none"/>
            <path d="m 3022.1347,44.574919 c -0.5022,0.255969 -0.8723,0.714668 -1.314,1.06145 -0.068,0.787838 -0.034,1.608527 -0.016,2.407004 -0.034,0.253983 0.2662,0.339141 0.4262,0.171647 0.5346,-0.438631 1.0939,-0.870774 1.5665,-1.367257 -0.031,-0.549328 -0.2636,-1.101794 -0.3752,-1.649199 -0.104,-0.164395 -0.035,-0.610572 -0.2877,-0.623645 z" style="fill:#4d4d4d;fill-opacity:1;stroke:none"/>
            <path d="m 3020.8384,40.449472 c -0.1087,0.485622 -0.032,1.028894 -0.043,1.536931 -0.058,0.258767 0.2203,0.420996 0.4203,0.256485 0.3431,-0.115786 0.3084,-0.43255 0.1519,-0.702372 -0.1384,-0.369226 -0.2311,-0.773699 -0.4439,-1.100909 l -0.063,0.0073 -0.022,0.0026 z" style="fill:#4d4d4d;fill-opacity:1;stroke:none"/>
          </g>
        </g>
      </g>
      <path style="fill:#4d4d4d;fill-opacity:1;stroke:#000000;stroke-width:3;stroke-linecap:butt;stroke-linejoin:miter;stroke-miterlimit:4;stroke-dasharray:none;stroke-opacity:1" d="m 2760.8929,94.683609 -1.0715,16.250001 c -16.3,10.98421 -34.2435,18.37957 -52.2978,25.41768 -1.0005,1.00806 -0.8115,3.52304 -0.1741,4.19331 5.9341,5.8261 9.5694,7.05464 13.0076,7.88901 31.2251,-6.47106 35.795,-13.50526 43.0357,-13.75 5.1909,-0.17545 33.0927,6.7309 33.0358,6.60714 l 6.0714,13.21429 63.2143,-0.53572 c 0.4553,-0.0276 0.4666,-3.82279 -0.8797,-7.32505 -1.3764,-3.58058 -4.6551,-6.82643 -11.9956,-20.13606 -4.4301,-8.03255 -0.7701,-24.84093 -1.3757,-39.475053 -0.5057,-12.222386 -7.201,-29.299889 -13.249,-30.385262 -3.9825,-0.714691 -10.1599,1.848485 -14.8266,1.103741 -9.6339,-1.537464 -16.6043,-1.1058 -25.7294,-0.160297 -6.5593,0.679641 -7.4302,2.415805 -10.5154,4.235127 -2.2874,1.348867 -11.0524,1.036981 -14.0188,0.216108 -3.0173,-0.834956 -7.9179,-0.404621 -10.6145,-0.335369 -6.876,0.176585 -3.4491,0.732519 -10.7239,0.654975 -5.2697,-0.05617 -13.3367,-5.852461 -20,-5.357142 -8.8372,0.656913 -17.0555,2.635885 -25.3571,4.464286 -4.0816,0.898943 -5.8929,5.714285 -5.8929,5.714285 -1.6659,2.315966 -4.2853,10.148507 -2.3389,12.336964 7.8267,8.799846 41.2857,15.668922 62.6961,15.163036 z"/>
      <path style="fill:none;stroke:#000000;stroke-width:1px;stroke-linecap:butt;stroke-linejoin:miter;stroke-opacity:1" d="m 2761.9643,94.326466 c 3.7478,1.751603 7.827,2.773875 11.4614,4.698446 3.8963,1.519658 8.233,1.282928 12.1275,2.874028 5.0624,1.87586 11.1455,0.91181 15.518,4.52083 5.4764,2.79246 6.9548,9.33064 10.7522,13.72626 3.4159,4.04976 5.2868,9.11038 7.0904,14.02164 1.5802,4.43408 2.0839,9.1299 3.1488,13.68374 0.6183,2.08474 1.5059,5.05499 1.6874,6.65372"/>
      <path style="fill:none;stroke:#000000;stroke-width:1px;stroke-linecap:butt;stroke-linejoin:miter;stroke-opacity:1" d="m 2759.6429,110.93361 16.6071,-11.071429 -15,-5.714286"/>
      <g transform="translate(482.72664,307.21264)">
        <path style="fill:#ffffff;stroke:#000000;stroke-width:3;stroke-linecap:butt;stroke-linejoin:miter;stroke-miterlimit:4;stroke-dasharray:none;stroke-opacity:1" d="m 2301.0919,-225.29285 c 4.862,-11.9918 13.2164,-10.40185 22.3214,-5.89285 -4.0971,10.7085 -12.0424,11.35225 -22.3214,5.89285 z"/>
        <path style="fill:#00ffff;fill-opacity:1;stroke:#008080;stroke-width:7;stroke-linecap:butt;stroke-linejoin:miter;stroke-miterlimit:4;stroke-dasharray:none;stroke-opacity:1" d="m 2310.9983,-234.33893 1.9206,12.46082"/>
        <path d="m 2301.0919,-225.29285 c 4.862,-11.9918 13.2164,-10.40185 22.3214,-5.89285 -4.0971,10.7085 -12.0424,11.35225 -22.3214,5.89285 z" style="fill:none;stroke:#000000;stroke-width:3;stroke-linecap:butt;stroke-linejoin:miter;stroke-miterlimit:4;stroke-dasharray:none;stroke-opacity:1"/>
        <path d="m 2310.9983,-234.33893 1.9206,12.46082" style="fill:none;stroke:#000000;stroke-width:3;stroke-linecap:butt;stroke-linejoin:miter;stroke-miterlimit:4;stroke-dasharray:none;stroke-opacity:1"/>
      </g>
      <path style="fill:none;stroke:#800000;stroke-width:4;stroke-linecap:butt;stroke-linejoin:miter;stroke-miterlimit:4;stroke-dasharray:none;stroke-opacity:1" d="m 2806.6071,76.826466 c 2.474,2.082606 5.6182,2.919731 8.334,4.515816 2.8753,1.846442 3.3289,5.303236 4.0058,8.346028 0.7313,2.947712 1.4821,5.945637 1.382,9.006631 1.5268,4.393789 5.1513,7.505459 7.4203,11.466249 2.1615,2.80909 3.9982,6.10727 3.716,9.77845 -0.045,3.80115 -0.3673,7.981 2.0754,11.19793 2.4219,3.93445 4.8966,7.89084 6.288,12.33144 1.2386,3.01643 2.8664,6.06639 2.6714,9.42889"/>
      <path style="fill:none;stroke:#000000;stroke-width:1px;stroke-linecap:butt;stroke-linejoin:miter;stroke-opacity:1" d="m 2736.7857,57.897895 -5,33.75"/>
      <path style="fill:#694b37;fill-opacity:1;stroke:#000000;stroke-width:1.07143;stroke-linecap:square;stroke-linejoin:miter;stroke-miterlimit:4;stroke-dasharray:none;stroke-dashoffset:0;stroke-opacity:1" d="m 2762.4919,95.397918 c -0.277,4.365562 -1.051,8.820682 -0.7143,13.169642 1.8022,-0.52184 3.4838,-2.22545 5.2127,-3.18061 2.5118,-1.72649 5.1927,-3.37483 7.544,-5.24573 -3.6699,-1.900807 -7.9918,-3.313169 -11.942,-4.821427 l -0.1004,0.07813 z"/>
      <path style="fill:#b8a89d;fill-opacity:1;stroke:#000000;stroke-width:1.07143;stroke-linecap:square;stroke-linejoin:miter;stroke-miterlimit:4;stroke-dasharray:none;stroke-dashoffset:0;stroke-opacity:1" d="m 2776.3089,100.50953 c -4.9373,3.50406 -10.4372,6.3893 -14.9331,10.4241 -0.6344,2.09575 -3.4198,2.65068 -4.9767,3.9962 -14.5856,9.20934 -30.6651,15.66468 -46.5188,22.28728 -1.1897,0.32823 -2.144,1.79196 -0.8705,2.7009 3.253,3.11465 7.1998,6.06692 11.6651,6.87359 12.0398,-2.46751 23.7678,-6.23221 34.9334,-11.36304 3.7794,-1.98265 8.0856,-2.60739 12.2819,-1.7219 9.8074,1.60368 19.5411,3.89801 29.1664,6.24483 2.2391,2.68015 3.1915,6.48114 4.8654,9.60997 0.7765,2.00513 1.4505,4.25476 4.0967,3.36994 5.605,-0.0644 11.273,0.14778 16.8415,-0.17857 -2.5448,-9.12127 -3.4931,-18.92339 -8.3068,-27.30035 -2.7455,-4.74608 -6.1198,-9.0637 -8.8627,-13.80667 -3.3555,-5.25999 -9.5674,-7.52021 -15.5243,-8.1492 -4.6384,-0.90439 -9.147,-2.50944 -13.8575,-2.98708 z"/>
      <path style="fill:#a05a2c;fill-opacity:1;stroke:#000000;stroke-width:1.07143;stroke-linecap:square;stroke-linejoin:miter;stroke-miterlimit:4;stroke-dasharray:none;stroke-dashoffset:0;stroke-opacity:1" d="m 2733.2397,58.668007 c -8.9293,0.238951 -17.6914,2.348325 -26.3282,4.453125 -4.1339,1.063705 -5.3425,5.704903 -6.8973,9.151786 -1.0064,2.540022 -1.7874,6.330252 1.2612,7.823661 8.3733,5.732508 18.5959,7.762258 28.337,10.011161 0.7943,0.197318 2.294,0.708723 1.9584,-0.755422 1.3691,-10.172377 3.2767,-20.347681 4.2582,-30.528061 -0.799,-0.288055 -1.7496,-0.118089 -2.5893,-0.15625 z"/>
    </g></svg>
