<svg xmlns="http://www.w3.org/2000/svg" width="64" height="64" viewBox="10.876568803938184 182.88067642813905 24.19047282881526 24.19047282881526"><defs>
    <filter style="color-interpolation-filters:sRGB" x="-0.1940961" y="-0.046480109" width="1.3881922" height="1.0929602">
      <feGaussianBlur stdDeviation="3.4637856"/>
    </filter>
  </defs><g transform="matrix(0.26458333,0,0,0.26458333,-2211.4343,302.83008)">
      <g transform="translate(0,200)">
        <path style="fill:none;stroke:#000000;stroke-width:1px;stroke-linecap:butt;stroke-linejoin:miter;stroke-opacity:1" d="m 8480.0002,-618.63783 c 4,-4 4,-9 0,-14 -8,0 -11,3 -15,8" transform="translate(-4.9229925e-6)"/>
        <path d="m 8477.8402,-621.15783 c 2.56,-2.56 2.56,-5.76 0,-8.96 -5.12,0 -7.04,1.92 -9.6,5.12" style="fill:#f2f2f2;fill-opacity:1;stroke:#000000;stroke-width:0.64px;stroke-linecap:butt;stroke-linejoin:miter;stroke-opacity:1"/>
        <path style="fill:#5a2306;fill-opacity:1;stroke:#000000;stroke-width:0.0110485;stroke-linecap:square;stroke-linejoin:miter;stroke-miterlimit:4;stroke-dasharray:none;stroke-dashoffset:0;stroke-opacity:1" d="m 8478.9708,-632.16404 c -3.5525,0.0585 -7.2161,1.12558 -9.8194,3.63221 -0.7792,0.78888 -1.6655,1.51835 -2.3119,2.40858 0.046,0.40535 0.6636,0.33182 0.9432,0.48567 0.5419,0.37038 0.8016,-0.2754 1.1235,-0.59646 1.3757,-1.53312 2.9289,-3.05031 4.97,-3.60302 1.3284,-0.42137 2.7319,-0.50472 4.1196,-0.55369 1.2028,1.60374 2.2318,3.52822 1.9666,5.59609 -0.09,1.46903 -0.9902,2.72058 -1.8478,3.83661 0.6132,0.52069 1.2247,1.05722 1.8395,1.56889 0.3971,-0.002 0.548,-0.56566 0.7983,-0.81483 0.9536,-1.40474 1.8278,-2.98572 1.7198,-4.74258 0.048,-1.22086 -0.034,-2.47275 -0.5818,-3.57973 -0.568,-1.28204 -1.1982,-2.58961 -2.1241,-3.6405 -0.2651,0.002 -0.5304,-0.003 -0.7955,0.003 z"/>
      </g>
      <g transform="translate(0,200)">
        <path style="fill:none;stroke:#000000;stroke-width:1px;stroke-linecap:butt;stroke-linejoin:miter;stroke-opacity:1" d="m 8410.0002,-617.63783 c -4,-5 -4,-10 0,-15 8,0 11,4 15,8" transform="translate(-4.9229925e-6)"/>
        <path d="m 8412.1602,-620.33783 c -2.56,-3.2 -2.56,-6.4 0,-9.6 5.12,0 7.04,2.56 9.6,5.12" style="fill:#f2f2f2;fill-opacity:1;stroke:#000000;stroke-width:0.64px;stroke-linecap:butt;stroke-linejoin:miter;stroke-opacity:1"/>
        <path style="fill:#5a2306;fill-opacity:1;stroke:#000000;stroke-width:0.0110485;stroke-linecap:square;stroke-linejoin:miter;stroke-miterlimit:4;stroke-dasharray:none;stroke-dashoffset:0;stroke-opacity:1" d="m 8410.1384,-632.1226 c -1.5438,2.12229 -2.8082,4.62818 -2.6682,7.32242 0.067,2.08965 0.9108,4.10784 2.0964,5.78943 0.3478,0.0674 0.5061,-0.45124 0.7734,-0.61871 0.3667,-0.40198 0.832,-0.66116 1.196,-1.04962 -1.0222,-1.5234 -1.7532,-3.33836 -1.4888,-5.20662 0.1701,-1.61684 1.0054,-3.06937 1.9971,-4.33655 2.5016,0.0441 5.0925,0.69617 6.9875,2.40937 0.9036,0.71237 1.6547,1.6325 2.528,2.35255 0.4506,-0.1484 0.9545,-0.19679 1.3618,-0.43642 0.033,-0.35594 -0.4627,-0.56258 -0.6465,-0.83469 -1.7274,-1.72285 -3.6087,-3.37265 -5.8998,-4.28631 -1.9327,-0.82355 -4.0577,-1.15623 -6.154,-1.14905 l -0.078,0.0416 v 0.003 z"/>
      </g>
      <path d="m 8435,-427.63782 c -8.3238,1.35077 -17.6293,2.47492 -23.9998,7.99999 -3.3785,2.93015 -6.0002,12.00001 -6.0002,12.00001 v 10 l 20,10 c 0,0 13.1282,5 20,5 6.8718,0 20,-5 20,-5 l 20,-10 v -10 c 0,0 -2.6213,-9.06986 -5.9998,-12.00001 -6.3706,-5.52522 -15.6763,-6.64922 -24.0002,-7.99999 -6.5806,-1.06787 -13.4194,-1.06789 -20,0 z" style="fill:#ffffff;stroke:#000000;stroke-width:1px;stroke-linecap:butt;stroke-linejoin:miter;stroke-opacity:1"/>
      <path d="m 8445,-399.63782 -3,1 3,3 3,-3 z" style="fill:#000000;stroke:#000000;stroke-width:1px;stroke-linecap:butt;stroke-linejoin:miter;stroke-opacity:1"/>
      <path d="m 8445,-391.63782 h -5" style="fill:none;stroke:#000000;stroke-width:1px;stroke-linecap:butt;stroke-linejoin:miter;stroke-opacity:1"/>
      <path d="m 8450,-391.63782 h -5" style="fill:none;stroke:#000000;stroke-width:1px;stroke-linecap:butt;stroke-linejoin:miter;stroke-opacity:1"/>
      <ellipse transform="translate(-4.9229925e-6,200)" style="fill:#f2f2f2;fill-opacity:1;stroke:#000000;stroke-width:0.125;stroke-linecap:square;stroke-linejoin:miter;stroke-miterlimit:4;stroke-dasharray:none;stroke-dashoffset:0;stroke-opacity:1" cx="8435" cy="-612.63782" rx="5" ry="2"/>
      <ellipse transform="translate(-4.9229925e-6,200)" style="fill:#f2f2f2;fill-opacity:1;stroke:#000000;stroke-width:0.125;stroke-linecap:square;stroke-linejoin:miter;stroke-miterlimit:4;stroke-dasharray:none;stroke-dashoffset:0;stroke-opacity:1" cx="8455" cy="-612.63782" rx="5" ry="2"/>
      <g transform="rotate(20,7856.7002,-513.52755)">
        <path d="m 8440.6206,-609.92379 -1.7708,-1.7799 h -5.2815 -1.8471" style="fill:none;stroke:#000000;stroke-width:1.7799px;stroke-linecap:butt;stroke-linejoin:miter;stroke-opacity:1"/>
        <path d="m 8438.558,-611.63213 c 0.2506,0.4067 0.3951,0.88567 0.3951,1.39846 0,1.47447 -1.1953,2.66985 -2.6698,2.66985 -1.4746,0 -2.6699,-1.19538 -2.6699,-2.66985 0,-0.52667 0.1526,-1.01792 0.4159,-1.43157 z" style="fill:#00ff00;fill-opacity:1;stroke:#000000;stroke-width:0.889949;stroke-miterlimit:4;stroke-dashoffset:0;stroke-opacity:1"/>
        <circle transform="translate(-32.667661,93.647987)" r="0.88994873" cy="-703.56268" cx="8468.8379" style="fill:#000000;fill-opacity:1;fill-rule:nonzero;stroke:#000000;stroke-width:0.889949;stroke-miterlimit:4;stroke-dasharray:none;stroke-dashoffset:0;stroke-opacity:1"/>
      </g>
      <g transform="rotate(-20,9033.4406,-513.52762)">
        <path d="m 8449.5201,-609.92379 1.9717,-1.7799 h 6.9278" style="fill:none;stroke:#000000;stroke-width:1.7799px;stroke-linecap:butt;stroke-linejoin:miter;stroke-opacity:1"/>
        <path d="m 8456.357,-611.63231 c 0.2505,0.4067 0.3951,0.88567 0.3951,1.39846 0,1.47447 -1.1953,2.66985 -2.6699,2.66985 -1.4745,0 -2.6698,-1.19538 -2.6698,-2.66985 0,-0.52667 0.1525,-1.01792 0.4159,-1.43157 z" style="fill:#00ff00;fill-opacity:1;stroke:#000000;stroke-width:0.889949;stroke-miterlimit:4;stroke-dashoffset:0;stroke-opacity:1"/>
        <circle transform="translate(-32.667661,93.647987)" r="0.88994873" cy="-703.56268" cx="8486.6934" style="fill:#000000;fill-opacity:1;fill-rule:nonzero;stroke:#000000;stroke-width:0.889949;stroke-miterlimit:4;stroke-dasharray:none;stroke-dashoffset:0;stroke-opacity:1"/>
      </g>
      <path d="m 8444.72,-427.89798 c -3.9748,-0.0474 -7.9212,0.37794 -11.8306,1.07474 -6.8705,1.13854 -14.0747,2.21467 -19.9272,6.26901 -1.8546,1.15767 -3.2194,2.89331 -4.2032,4.8164 -1.4132,2.67102 -2.5099,5.51989 -3.3476,8.41406 0,3.10547 0,6.21094 0,9.31641 2.839,1.56295 5.8379,2.94805 8.7405,4.43861 1.6794,0.8197 3.3364,1.69856 5.0368,2.46764 0.2855,-0.33273 -0.4158,-0.67974 -0.5469,-0.98437 -1.4076,-1.60892 -1.4213,-4.07938 -0.2226,-5.78907 1.7661,-2.62093 4.8248,-4.02405 7.6701,-5.20477 1.7623,-0.74981 3.6415,-1.13602 5.451,-1.7132 0.029,-0.55584 -0.2965,-1.1271 -0.1534,-1.71829 -0.096,-0.46244 0.6158,-1.15368 -0.015,-1.42624 -0.2659,-0.22337 -1.2197,-0.148 -0.8789,-0.6914 0.1637,-0.36531 0.2152,-0.88869 0.5039,-1.16016 2.2888,0.72273 4.5982,1.52283 6.8203,2.42969 0.5551,0.61433 0.6906,1.58817 1.2232,2.13818 1.996,-1.63135 4.6628,-2.75151 7.2964,-2.24756 1.7459,0.32031 3.2989,1.2593 4.6875,2.29688 0.434,-0.0592 0.495,-0.79523 0.7725,-1.10125 0.3099,-0.73531 0.6789,-1.40334 1.5487,-1.498 1.9194,-0.66634 3.8528,-1.50464 5.7842,-2.01794 0.2621,0.43399 0.62,1.01298 0.5586,1.51563 -0.3531,0.18826 -1.1616,0.19734 -0.9062,0.79687 0.3918,0.85993 0.1753,1.78557 -0.051,2.64844 0.4478,0.48074 1.2897,0.32885 1.8711,0.60547 3.1424,0.96222 6.2923,2.19233 8.9297,4.17968 1.5076,1.28013 3.0866,3.03014 2.9609,5.12891 -0.1464,1.3973 -0.8973,2.64246 -1.7812,3.67578 0.2785,0.3423 0.9405,-0.38319 1.3437,-0.44531 4.1316,-2.04398 8.2516,-4.11148 12.375,-6.17188 0.1367,-2.76334 0.02,-5.60218 0.059,-8.39453 0.076,-0.99858 -0.019,-1.96939 -0.4581,-2.8812 -1.1768,-3.25914 -2.4193,-6.60086 -4.5771,-9.33755 -3.0019,-3.13544 -7.1477,-4.87644 -11.2532,-6.10382 -5.4773,-1.48776 -11.1111,-2.31657 -16.7311,-3.05243 -2.2367,-0.2559 -4.4957,-0.30898 -6.75,-0.27343 z m -9.5508,13.29687 c 1.5892,0.0811 3.4398,0.16051 4.6094,1.38281 0.6278,0.78231 -0.3355,1.6428 -1.043,1.89844 -1.8939,0.83391 -4.0632,0.70538 -6.0781,0.45703 -1.2074,-0.0647 -3.6251,-1.41031 -2.1133,-2.68359 1.3183,-0.95347 3.0522,-1.03945 4.625,-1.05469 z m 20,0 c 1.5892,0.0811 3.4398,0.16051 4.6094,1.38281 0.6278,0.78231 -0.3355,1.6428 -1.043,1.89844 -1.8939,0.83391 -4.0632,0.70538 -6.0781,0.45703 -1.2074,-0.0647 -3.6251,-1.41031 -2.1133,-2.68359 1.3183,-0.95347 3.0522,-1.03945 4.625,-1.05469 z" style="fill:#913200;fill-opacity:1;stroke:#ffffff;stroke-width:0.015625;stroke-linecap:square;stroke-linejoin:miter;stroke-miterlimit:4;stroke-dasharray:none;stroke-dashoffset:0;stroke-opacity:1"/>
      <path d="m 8432,-404.63782 h 5 c -1.9998,9.99999 -1.9998,11.99999 0,21 l -4.9998,-1.00001 c -1.9998,-9.00001 -2,-10 -2e-4,-19.99999 z" style="fill:#4a1800;fill-opacity:1;stroke:#000000;stroke-width:0.125;stroke-linecap:square;stroke-linejoin:miter;stroke-miterlimit:4;stroke-dashoffset:0;stroke-opacity:1"/>
      <path style="fill:#000000;stroke:#000000;stroke-width:1px;stroke-linecap:butt;stroke-linejoin:miter;stroke-opacity:1" d="m 8445,-399.63782 -3,1 3,3 3,-3 z"/>
      <path style="fill:none;stroke:#000000;stroke-width:1px;stroke-linecap:butt;stroke-linejoin:miter;stroke-opacity:1" d="m 8445,-391.63782 h -5"/>
      <path style="fill:none;stroke:#000000;stroke-width:1px;stroke-linecap:butt;stroke-linejoin:miter;stroke-opacity:1" d="m 8450,-391.63782 h -5"/>
      <path style="fill:#4a1800;fill-opacity:1;stroke:#000000;stroke-width:0.125;stroke-linecap:square;stroke-linejoin:miter;stroke-miterlimit:4;stroke-dashoffset:0;stroke-opacity:1" d="m 8458.0123,-404.63782 h -5 c 1.9998,9.99999 1.9998,11.99999 0,21 l 4.9879,-1.00001 c 1.9998,-9.00001 2.0119,-10 0.012,-19.99999 z"/>
      <g transform="rotate(20,7856.852,-513.23552)">
        <path style="fill:none;stroke:#000000;stroke-width:1.7799px;stroke-linecap:butt;stroke-linejoin:miter;stroke-opacity:1" d="m 8440.6206,-609.92379 -1.7708,-1.7799 h -5.2815 -1.8471"/>
        <path style="fill:#00ff00;fill-opacity:1;stroke:#000000;stroke-width:0.889949;stroke-miterlimit:4;stroke-dashoffset:0;stroke-opacity:1" d="m 8438.558,-611.63213 c 0.2506,0.4067 0.3951,0.88567 0.3951,1.39846 0,1.47447 -1.1953,2.66985 -2.6698,2.66985 -1.4746,0 -2.6699,-1.19538 -2.6699,-2.66985 0,-0.52667 0.1526,-1.01792 0.4159,-1.43157 z"/>
        <circle style="fill:#000000;fill-opacity:1;fill-rule:nonzero;stroke:#000000;stroke-width:0.889949;stroke-miterlimit:4;stroke-dasharray:none;stroke-dashoffset:0;stroke-opacity:1" cx="8468.8379" cy="-703.56268" r="0.88994873" transform="translate(-32.667661,93.647987)"/>
      </g>
    </g></svg>
