<svg xmlns="http://www.w3.org/2000/svg" width="64" height="64" viewBox="10.413694789498066 45.69982353587144 28.99287406980865 28.99287406980865"><defs>
    <filter style="color-interpolation-filters:sRGB" x="-0.1940961" y="-0.046480109" width="1.3881922" height="1.0929602">
      <feGaussianBlur stdDeviation="3.4637856"/>
    </filter>
  </defs><g transform="matrix(0.26458333,0,0,0.26458333,-2649.4978,490.72541)">
      <g transform="translate(802.57267,-513.56928)">
        <path style="fill:#d8b29e;fill-opacity:1;fill-rule:nonzero;stroke:#000000;stroke-width:2;stroke-miterlimit:4;stroke-dasharray:none;stroke-dashoffset:0;stroke-opacity:1" d="m 9277.4699,-1099.7248 c 2.5303,22.087 12.5303,33.9889 27.5884,34.0381 14.9419,0.049 24.9419,-11.9511 27.5884,-34.0381 2.0466,-17.0806 -10.3857,-30.2583 -27.5884,-30.2583 -17.2027,0 -29.5463,13.1673 -27.5884,30.2583 z"/>
        <g transform="translate(737.33489,-482.93297)">
          <path d="m 8563.2882,-618.57175 -1.7708,-1.7799 h -5.2815 -1.8471" style="fill:none;stroke:#000000;stroke-width:1.7799px;stroke-linecap:butt;stroke-linejoin:miter;stroke-opacity:1"/>
          <path d="m 8572.1877,-618.57175 1.9717,-1.7799 h 6.9278" style="fill:none;stroke:#000000;stroke-width:1.7799px;stroke-linecap:butt;stroke-linejoin:miter;stroke-opacity:1"/>
          <path d="m 8561.2256,-620.28009 c 0.2506,0.4067 0.3951,0.88567 0.3951,1.39846 0,1.47447 -1.1953,2.66985 -2.6698,2.66985 -1.4746,0 -2.6699,-1.19538 -2.6699,-2.66985 0,-0.52667 0.1526,-1.01792 0.4159,-1.43157 z" style="fill:#ffffff;stroke:#000000;stroke-width:0.889949;stroke-miterlimit:4;stroke-dashoffset:0;stroke-opacity:1"/>
          <path d="m 8579.0246,-620.28027 c 0.2505,0.4067 0.3951,0.88567 0.3951,1.39846 0,1.47447 -1.1953,2.66985 -2.6699,2.66985 -1.4745,0 -2.6698,-1.19538 -2.6698,-2.66985 0,-0.52667 0.1525,-1.01792 0.4159,-1.43157 z" style="fill:#ffffff;stroke:#000000;stroke-width:0.889949;stroke-miterlimit:4;stroke-dashoffset:0;stroke-opacity:1"/>
          <circle transform="translate(89.999959,85.000024)" r="0.88994873" cy="-703.56268" cx="8468.8379" style="fill:#000000;fill-opacity:1;fill-rule:nonzero;stroke:#000000;stroke-width:0.889949;stroke-miterlimit:4;stroke-dasharray:none;stroke-dashoffset:0;stroke-opacity:1"/>
          <circle transform="translate(89.999959,85.000024)" r="0.88994873" cy="-703.56268" cx="8486.6934" style="fill:#000000;fill-opacity:1;fill-rule:nonzero;stroke:#000000;stroke-width:0.889949;stroke-miterlimit:4;stroke-dasharray:none;stroke-dashoffset:0;stroke-opacity:1"/>
        </g>
        <path style="fill:none;stroke:#000000;stroke-width:1.7799px;stroke-linecap:butt;stroke-linejoin:miter;stroke-opacity:1" d="m 9296.0002,-1082.6378 4.6231,0.7119 h 8.8995 l 4.4774,-0.7119"/>
        <path style="fill:none;stroke:#000000;stroke-width:1.7799px;stroke-linecap:butt;stroke-linejoin:miter;stroke-opacity:1" d="m 9302.4032,-1098.1674 -0.403,10.5296 3,1 3,-1 -0.2573,-10.5296"/>
        <path style="fill:#6c5353;stroke:#000000;stroke-width:1px;stroke-linecap:butt;stroke-linejoin:miter;stroke-opacity:1" d="m 9280.1024,-1104.4097 11.4905,-11.4021 -12.1092,0.088 z"/>
        <path d="m 9330.029,-1104.4097 -11.4905,-11.4021 12.1092,0.088 z" style="fill:#6c5353;stroke:#000000;stroke-width:1px;stroke-linecap:butt;stroke-linejoin:miter;stroke-opacity:1"/>
        <g transform="translate(-199.13331,-66.2862)">
          <path d="m 9527.258,-1048.2453 h 4.4755 c 0,0 8.5915,32.3703 0,44.436 -1.7006,2.3883 -6.1262,4.83144 -8.3117,2.8771 -1.7249,-1.5424 -5.4081,-4.5959 -4.5579,-6.9229 0.6778,-1.8551 2.3034,-2.7927 4.2765,-4.5298 1.773,-1.5608 3.5347,-4.081 3.718,-5.7283 0.257,-2.3092 -3.2595,-5.3909 -3.1656,-8.3982 0.1601,-5.1324 3.8043,-10.5064 3.7344,-14.7751 -0.067,-4.0998 -0.1692,-6.9588 -0.1692,-6.9588 z" style="fill:#808080;fill-opacity:1;stroke:#000000;stroke-width:0.48;stroke-linecap:round;stroke-miterlimit:4;stroke-dasharray:none;stroke-dashoffset:0;stroke-opacity:1"/>
          <path style="fill:#808080;fill-opacity:1;stroke:#000000;stroke-width:0.48;stroke-linecap:round;stroke-miterlimit:4;stroke-dasharray:none;stroke-dashoffset:0;stroke-opacity:1" d="m 9481.0391,-1048.2453 h -4.4755 c 0,0 -8.5915,32.3703 0,44.436 1.7006,2.3883 6.1262,4.83144 8.3117,2.8771 1.7249,-1.5424 5.4081,-4.5959 4.5579,-6.9229 -0.6778,-1.8551 -2.3034,-2.7927 -4.2765,-4.5298 -1.773,-1.5608 -3.5347,-4.081 -3.718,-5.7283 -0.257,-2.3092 3.2595,-5.3909 3.1656,-8.3982 -0.1601,-5.1324 -3.8043,-10.5064 -3.7344,-14.7751 0.067,-4.0998 0.1692,-6.9588 0.1692,-6.9588 z"/>
          <path d="m 9477.2311,-1047.877 c 0.01,-0.9853 0.4401,-3.8801 0.7925,-5.2785 2.2544,-8.9467 8.9432,-16.2037 17.5862,-19.0803 3.2607,-1.0853 4.6038,-1.2853 8.6314,-1.2853 3.1417,0 3.8087,0.046 5.2748,0.3634 10.6119,2.2972 18.4825,9.9198 21.0176,20.3553 0.3541,1.4576 0.8484,5.1742 0.7062,5.31 -0.036,0.034 -12.2032,0.088 -27.0385,0.1187 l -26.9733,0.056 v -0.5597 z" style="fill:#808080;fill-opacity:1;stroke:#000000;stroke-width:0.0767241;stroke-linecap:round;stroke-miterlimit:4;stroke-dasharray:none;stroke-dashoffset:0;stroke-opacity:1"/>
          <path style="fill:none;stroke:#4d4d4d;stroke-width:0.96741px;stroke-linecap:butt;stroke-linejoin:miter;stroke-opacity:1" d="m 9472.5932,-1052.7248 63.9353,-0.16"/>
          <path d="m 9477.2414,-1049.311 53.8679,-0.5994 1.2787,3.9502 -56.3431,-0.028 z" style="fill:#4d4d4d;fill-opacity:1;stroke:#4d4d4d;stroke-width:0.48;stroke-linecap:round;stroke-miterlimit:4;stroke-dasharray:none;stroke-dashoffset:0;stroke-opacity:1"/>
        </g>
      </g>
      <g>
        <rect transform="translate(-4.9229925e-6)" y="-1661.3878" x="10103.5" height="14" width="9" style="fill:#808080;fill-opacity:1;stroke:#000000;stroke-width:0.5;stroke-linecap:round;stroke-linejoin:miter;stroke-miterlimit:4;stroke-dasharray:none;stroke-dashoffset:0;stroke-opacity:1"/>
        <path d="m 10097.5,-1675.1378 h 21 l -6,14 h -9 z" style="fill:#ae0a0a;fill-opacity:1;stroke:#000000;stroke-width:0.5;stroke-linecap:round;stroke-linejoin:miter;stroke-miterlimit:4;stroke-dashoffset:0;stroke-opacity:1"/>
      </g>
    </g></svg>
