<svg xmlns="http://www.w3.org/2000/svg" width="64" height="64" viewBox="113.35671038935152 235.15628622024866 60.59591306402079 60.59591306402079"><defs>
    <filter style="color-interpolation-filters:sRGB" x="-0.1940961" y="-0.046480109" width="1.3881922" height="1.0929602">
      <feGaussianBlur stdDeviation="3.4637856"/>
    </filter>
  </defs><g transform="matrix(0.27195512,0,0,0.27195512,-455.71992,257.34901)">
      <path style="fill:#cead8c;fill-opacity:1;stroke:#000000;stroke-width:2.63642;stroke-linecap:butt;stroke-linejoin:miter;stroke-miterlimit:4;stroke-dasharray:none;stroke-opacity:1" d="m 2200.0818,11.559943 -49.5909,-34.985936 -17.0476,-6.791485 9.3136,13.480135 31.8402,26.5592059 2.9211,10.8722401"/>
      <path style="fill:#cead8c;fill-opacity:1;stroke:#000000;stroke-width:2.63642;stroke-linecap:butt;stroke-linejoin:miter;stroke-miterlimit:4;stroke-dasharray:none;stroke-opacity:1" d="m 2139.1668,38.712073 -28.2885,-8.75538 11.1138,19.82637"/>
      <path style="fill:#835d38;fill-opacity:1;stroke:#000000;stroke-width:2.63642;stroke-linecap:square;stroke-linejoin:miter;stroke-miterlimit:4;stroke-dasharray:none;stroke-dashoffset:0;stroke-opacity:1" d="m 2206.9281,41.577673 c -8.9472,-0.34494 -17.9898,3.7923 -23.0835,11.21031 -6.0417,8.44692 -9.4722,18.39351 -15.1404,27.03738 -0.6018,0.89715 1.2138,2.11875 -0.5211,2.39121 -6.0693,3.28047 -12.1338,6.67179 -18.3162,9.68019 -3.7806,1.00971 -7.9542,1.3293 -11.5029,2.82045 0.3771,1.68495 2.508,2.61888 3.7764,3.69336 5.1972,2.817027 11.4456,1.786137 17.1153,1.54899 8.7864,-1.10997 17.1408,-4.37598 25.4907,-7.19454 10.9884,-3.98118 21.738,-8.58588 32.3502,-13.47237 8.3973,-0.1083 16.8246,-0.48699 25.2033,-0.42957 5.6733,1.2723 11.289,3.10494 17.0337,3.89802 2.1495,-8.01291 3.4503,-16.36218 5.2026,-24.51645 0.8148,-4.07199 1.6299,-8.14401 2.4447,-12.216 -2.0052,-0.85479 -4.7196,0.0438 -6.9954,-0.0846 -11.6736,0.55497 -23.619,1.43238 -35.0328,-1.6956 -5.9142,-1.38336 -11.8902,-3.01308 -18.0246,-2.67069 z"/>
      <path style="fill:#cead8c;fill-opacity:1;stroke:#000000;stroke-width:1px;stroke-linecap:butt;stroke-linejoin:miter;stroke-opacity:1" d="m 2266.4286,-38.709248 13.5714,-3.571429 1.7857,13.214286 H 2295 l -5.3571,11.071429 10.7142,6.428571 -7.8571,4.6428571 7.5,6.07142858 -6.0714,5.71428572 7.5,8.2142856 -8.2143,4.642857 7.1428,9.285715 -10.7142,2.857142 3.9285,8.928572 -10.3571,3.214286 -1.0714,10.357143 -8.5715,-1.071429 -2.8571,9.285714 -10.3571,0.357143 -4.2857,8.75 -9.2858,-2.857143 -7.5,5.178572 -7.5,-6.428572"/>
      <path style="fill:#46321e;fill-opacity:1;stroke:#000000;stroke-width:2.63642;stroke-linecap:butt;stroke-linejoin:miter;stroke-miterlimit:4;stroke-dasharray:none;stroke-opacity:1" d="m 2134.872,42.169093 41.5092,-27.9147 44.7486,-13.38666014 45.567,-37.43558986 c 0,0 14.4633,5.60847 18.8001,11.54832 6.0246,8.25126 6.7356,19.5615599 7.3257,29.7609299 0.3915,6.8061001 -0.3747,13.8349501 -2.5659,20.2907701 -2.4231,7.14003 -6.3549,13.93605 -11.4069,19.53318 -6.2169,6.88749 -14.1642,12.29745 -22.4781,16.41711 -4.8933,2.42475 -10.2483,4.39926 -15.7023,4.67409 -7.9188,0.39906 -23.3643,-4.46007 -23.3643,-4.46007 l -2.658,11.193 0.7149,16.08108 -19.4046,-13.05066 -22.5486,7.06557 c 0,0 -14.6298,-8.46531 -22.7331,-8.62326 -6.6564,-0.1296 -18.936,6.35043 -18.936,6.35043 -9.3876,1.53801 -10.1499,9.23691 -12.879,15.53109 0,0 -11.04,-8.21577 -12.1224,-14.39466 -1.5801,-9.02031 3.9561,-18.48933 9.4992,-25.77858 4.6314,-6.09003 18.6345,-13.40139 18.6345,-13.40139 z"/>
      <g transform="matrix(0.75,0,0,0.75,451.73266,200.4908)">
        <path style="fill:#ffffff;stroke:#000000;stroke-width:3;stroke-linecap:butt;stroke-linejoin:miter;stroke-miterlimit:4;stroke-dasharray:none;stroke-opacity:1" d="m 2301.0919,-225.29285 c 4.862,-11.9918 13.2164,-10.40185 22.3214,-5.89285 -4.0971,10.7085 -12.0424,11.35225 -22.3214,5.89285 z"/>
        <path style="fill:#00ffff;fill-opacity:1;stroke:#008080;stroke-width:7;stroke-linecap:butt;stroke-linejoin:miter;stroke-miterlimit:4;stroke-dasharray:none;stroke-opacity:1" d="m 2310.9983,-234.33893 1.9206,12.46082"/>
        <path d="m 2301.0919,-225.29285 c 4.862,-11.9918 13.2164,-10.40185 22.3214,-5.89285 -4.0971,10.7085 -12.0424,11.35225 -22.3214,5.89285 z" style="fill:none;stroke:#000000;stroke-width:3;stroke-linecap:butt;stroke-linejoin:miter;stroke-miterlimit:4;stroke-dasharray:none;stroke-opacity:1"/>
        <path d="m 2310.9983,-234.33893 1.9206,12.46082" style="fill:none;stroke:#000000;stroke-width:3;stroke-linecap:butt;stroke-linejoin:miter;stroke-miterlimit:4;stroke-dasharray:none;stroke-opacity:1"/>
      </g>
      <path style="fill:none;stroke:#000000;stroke-width:1px;stroke-linecap:butt;stroke-linejoin:miter;stroke-opacity:1" d="m 2120.2622,53.400537 25.2538,20.708128"/>
      <path style="fill:none;stroke:#000000;stroke-width:1px;stroke-linecap:butt;stroke-linejoin:miter;stroke-opacity:1" d="m 2154.6074,101.88786 5.8084,-15.657365"/>
      <path style="fill:#cead8c;fill-opacity:1;stroke:#000000;stroke-width:0.883883;stroke-linecap:square;stroke-linejoin:miter;stroke-miterlimit:4;stroke-dasharray:none;stroke-dashoffset:0;stroke-opacity:1" d="m 2120.3066,54.225697 c -4.4131,4.903618 -8.1675,10.548973 -10.3698,16.793786 -1.4562,4.357292 -2.3651,9.749124 0.7418,13.613384 2.0869,2.718255 4.5263,5.259998 7.1421,7.441983 1.8648,-3.978662 3.3103,-8.562871 7.0553,-11.277406 2.9862,-2.254936 6.9649,-2.650854 10.1962,-4.490443 2.5231,-1.279248 5.3602,-2.023393 7.8366,-3.282996 -5.3961,-5.042474 -11.3344,-9.57106 -17.0093,-14.329594 -1.8732,-1.457446 -3.6698,-3.166875 -5.5929,-4.468714 z"/>
      <path style="fill:#cead8c;fill-opacity:1;stroke:#000000;stroke-width:0.883883;stroke-linecap:square;stroke-linejoin:miter;stroke-miterlimit:4;stroke-dasharray:none;stroke-dashoffset:0;stroke-opacity:1" d="m 2158.7713,88.278887 c -4.3612,1.777786 -8.3528,4.655281 -13.1526,5.218624 -1.9745,0.559741 -4.2344,0.663921 -6.0087,1.694607 0.6057,1.315834 2.2078,2.032377 3.4014,2.793703 3.6621,1.874106 7.9344,1.718373 11.8929,1.602039 1.3347,-3.759426 2.9405,-7.494906 4.0485,-11.29319 -0.049,-0.0435 -0.1243,-0.03685 -0.1815,-0.01578 z"/>
      <ellipse style="fill:#132d13;fill-opacity:1;stroke:#000000;stroke-width:1;stroke-linecap:square;stroke-linejoin:miter;stroke-miterlimit:4;stroke-dasharray:none;stroke-dashoffset:0;stroke-opacity:1" transform="rotate(-29.849526,2133.0916,29.933203)" cx="2151.1199" cy="51.04847" rx="9.5964489" ry="3.2829957"/>
      <ellipse style="fill:#132d13;fill-opacity:1;stroke:#000000;stroke-width:1;stroke-linecap:square;stroke-linejoin:miter;stroke-miterlimit:4;stroke-dasharray:none;stroke-dashoffset:0;stroke-opacity:1" transform="rotate(-42.795812,2153.3981,103.07315)" cx="2176.8787" cy="55.594158" rx="6.0609155" ry="2.7779195"/>
      <ellipse style="fill:#132d13;fill-opacity:1;stroke:#000000;stroke-width:1;stroke-linecap:square;stroke-linejoin:miter;stroke-miterlimit:4;stroke-dasharray:none;stroke-dashoffset:0;stroke-opacity:1" transform="rotate(-13.602079,2221.4629,67.872419)" cx="2194.8088" cy="47.260399" rx="6.8185296" ry="2.5253813"/>
      <ellipse style="fill:#132d13;fill-opacity:1;stroke:#000000;stroke-width:1;stroke-linecap:square;stroke-linejoin:miter;stroke-miterlimit:4;stroke-dasharray:none;stroke-dashoffset:0;stroke-opacity:1" transform="rotate(-33.134404,2145.3075,66.961742)" cx="2159.2012" cy="62.917763" rx="7.5761442" ry="2.5253813"/>
      <ellipse style="fill:#132d13;fill-opacity:1;stroke:#000000;stroke-width:1;stroke-linecap:square;stroke-linejoin:miter;stroke-miterlimit:4;stroke-dasharray:none;stroke-dashoffset:0;stroke-opacity:1" transform="rotate(-8.625257,2247.7491,25.262228)" cx="2215.012" cy="14.68298" rx="7.8286824" ry="3.7880721"/>
      <ellipse style="fill:#132d13;fill-opacity:1;stroke:#000000;stroke-width:1;stroke-linecap:square;stroke-linejoin:miter;stroke-miterlimit:4;stroke-dasharray:none;stroke-dashoffset:0;stroke-opacity:1" transform="rotate(-13.602079,2213.1091,-6.1436218)" cx="2227.3865" cy="39.431717" rx="8.0812206" ry="2.7779195"/>
    </g></svg>
