<svg xmlns="http://www.w3.org/2000/svg" width="64" height="64" viewBox="82.93437940641242 183.65378840730574 17.553550599456653 17.553550599456653"><defs>
    <filter style="color-interpolation-filters:sRGB" x="-0.1940961" y="-0.046480109" width="1.3881922" height="1.0929602">
      <feGaussianBlur stdDeviation="3.4637856"/>
    </filter>
  </defs><g transform="matrix(0.13229166,0,0,0.13229166,-129.90949,94.998074)">
      <g>
        <path style="fill:#ffffff;stroke:#000000;stroke-width:0.1875px;stroke-linecap:butt;stroke-linejoin:miter;stroke-opacity:1" d="m 1627.1545,741.87728 2.1208,3.01205 -0.9937,1.172 c -0.547,-1.41146 -2.3879,-2.95514 -1.1271,-4.18405 z"/>
        <path d="m 1629.4273,741.62474 2.1208,3.01205 -0.9937,1.172 c -0.547,-1.41146 -2.3879,-2.95514 -1.1271,-4.18405 z" style="fill:#ffffff;stroke:#000000;stroke-width:0.1875px;stroke-linecap:butt;stroke-linejoin:miter;stroke-opacity:1"/>
        <path style="fill:#ffffff;stroke:#000000;stroke-width:0.1875px;stroke-linecap:butt;stroke-linejoin:miter;stroke-opacity:1" d="m 1631.9527,741.81414 2.1208,3.01205 -0.9937,1.172 c -0.547,-1.41146 -2.3879,-2.95514 -1.1271,-4.18405 z"/>
        <path d="m 1624.9448,741.87727 2.1208,3.01205 -0.9937,1.172 c -0.547,-1.41146 -2.3879,-2.95514 -1.1271,-4.18405 z" style="fill:#ffffff;stroke:#000000;stroke-width:0.1875px;stroke-linecap:butt;stroke-linejoin:miter;stroke-opacity:1"/>
        <path style="fill:#ffffff;stroke:#000000;stroke-width:0.1875px;stroke-linecap:butt;stroke-linejoin:miter;stroke-opacity:1" d="m 1634.8286,741.37481 1.5605,3.33691 -1.1836,0.97987 c -0.2914,-1.48545 -1.8335,-3.32766 -0.3769,-4.31678 z"/>
        <path d="m 1636.912,741.31168 1.5605,3.33691 -1.1836,0.97987 c -0.2914,-1.48545 -1.8335,-3.32766 -0.3769,-4.31678 z" style="fill:#ffffff;stroke:#000000;stroke-width:0.1875px;stroke-linecap:butt;stroke-linejoin:miter;stroke-opacity:1"/>
        <path style="fill:#ffffff;stroke:#000000;stroke-width:0.1875px;stroke-linecap:butt;stroke-linejoin:miter;stroke-opacity:1" d="m 1638.9323,740.99601 1.5605,3.33691 -1.1836,0.97987 c -0.2914,-1.48545 -1.8335,-3.32766 -0.3769,-4.31678 z"/>
        <path d="m 1641.2683,740.74347 1.5605,3.33691 -1.1836,0.97987 c -0.2914,-1.48545 -1.8335,-3.32766 -0.3769,-4.31678 z" style="fill:#ffffff;stroke:#000000;stroke-width:0.1875px;stroke-linecap:butt;stroke-linejoin:miter;stroke-opacity:1"/>
        <path style="fill:#ffffff;stroke:#000000;stroke-width:0.1875px;stroke-linecap:butt;stroke-linejoin:miter;stroke-opacity:1" d="m 1643.478,740.74347 1.5605,3.33691 -1.1836,0.97987 c -0.2914,-1.48545 -1.8335,-3.32766 -0.3769,-4.31678 z"/>
        <path d="m 1645.4983,740.49093 1.5605,3.33691 -1.1836,0.97987 c -0.2914,-1.48545 -1.8335,-3.32766 -0.3769,-4.31678 z" style="fill:#ffffff;stroke:#000000;stroke-width:0.1875px;stroke-linecap:butt;stroke-linejoin:miter;stroke-opacity:1"/>
        <path style="fill:#ffffff;stroke:#000000;stroke-width:0.1875px;stroke-linecap:butt;stroke-linejoin:miter;stroke-opacity:1" d="m 1647.4626,740.13379 1.5605,3.33691 -1.1836,0.97987 c -0.2914,-1.48545 -1.8335,-3.32766 -0.3769,-4.31678 z"/>
        <path d="m 1649.5162,739.86593 1.5605,3.33691 -1.1836,0.97987 c -0.2914,-1.48545 -1.8335,-3.32766 -0.3769,-4.31678 z" style="fill:#ffffff;stroke:#000000;stroke-width:0.1875px;stroke-linecap:butt;stroke-linejoin:miter;stroke-opacity:1"/>
      </g>
      <g transform="matrix(0.99249581,-0.12227861,-0.12227861,-0.99249581,100.72794,1674.727)">
        <path d="m 1627.1545,741.87728 2.1208,3.01205 -0.9937,1.172 c -0.547,-1.41146 -2.3879,-2.95514 -1.1271,-4.18405 z" style="fill:#ffffff;stroke:#000000;stroke-width:0.1875px;stroke-linecap:butt;stroke-linejoin:miter;stroke-opacity:1"/>
        <path style="fill:#ffffff;stroke:#000000;stroke-width:0.1875px;stroke-linecap:butt;stroke-linejoin:miter;stroke-opacity:1" d="m 1629.4273,741.62474 2.1208,3.01205 -0.9937,1.172 c -0.547,-1.41146 -2.3879,-2.95514 -1.1271,-4.18405 z"/>
        <path d="m 1631.9527,741.81414 2.1208,3.01205 -0.9937,1.172 c -0.547,-1.41146 -2.3879,-2.95514 -1.1271,-4.18405 z" style="fill:#ffffff;stroke:#000000;stroke-width:0.1875px;stroke-linecap:butt;stroke-linejoin:miter;stroke-opacity:1"/>
        <path style="fill:#ffffff;stroke:#000000;stroke-width:0.1875px;stroke-linecap:butt;stroke-linejoin:miter;stroke-opacity:1" d="m 1624.9448,741.87727 2.1208,3.01205 -0.9937,1.172 c -0.547,-1.41146 -2.3879,-2.95514 -1.1271,-4.18405 z"/>
        <path d="m 1634.8286,741.37481 1.5605,3.33691 -1.1836,0.97987 c -0.2914,-1.48545 -1.8335,-3.32766 -0.3769,-4.31678 z" style="fill:#ffffff;stroke:#000000;stroke-width:0.1875px;stroke-linecap:butt;stroke-linejoin:miter;stroke-opacity:1"/>
        <path style="fill:#ffffff;stroke:#000000;stroke-width:0.1875px;stroke-linecap:butt;stroke-linejoin:miter;stroke-opacity:1" d="m 1636.912,741.31168 1.5605,3.33691 -1.1836,0.97987 c -0.2914,-1.48545 -1.8335,-3.32766 -0.3769,-4.31678 z"/>
        <path d="m 1638.9323,740.99601 1.5605,3.33691 -1.1836,0.97987 c -0.2914,-1.48545 -1.8335,-3.32766 -0.3769,-4.31678 z" style="fill:#ffffff;stroke:#000000;stroke-width:0.1875px;stroke-linecap:butt;stroke-linejoin:miter;stroke-opacity:1"/>
        <path style="fill:#ffffff;stroke:#000000;stroke-width:0.1875px;stroke-linecap:butt;stroke-linejoin:miter;stroke-opacity:1" d="m 1641.2683,740.74347 1.5605,3.33691 -1.1836,0.97987 c -0.2914,-1.48545 -1.8335,-3.32766 -0.3769,-4.31678 z"/>
        <path d="m 1643.478,740.74347 1.5605,3.33691 -1.1836,0.97987 c -0.2914,-1.48545 -1.8335,-3.32766 -0.3769,-4.31678 z" style="fill:#ffffff;stroke:#000000;stroke-width:0.1875px;stroke-linecap:butt;stroke-linejoin:miter;stroke-opacity:1"/>
        <path style="fill:#ffffff;stroke:#000000;stroke-width:0.1875px;stroke-linecap:butt;stroke-linejoin:miter;stroke-opacity:1" d="m 1645.4983,740.49093 1.5605,3.33691 -1.1836,0.97987 c -0.2914,-1.48545 -1.8335,-3.32766 -0.3769,-4.31678 z"/>
        <path d="m 1647.4626,740.13379 1.5605,3.33691 -1.1836,0.97987 c -0.2914,-1.48545 -1.8335,-3.32766 -0.3769,-4.31678 z" style="fill:#ffffff;stroke:#000000;stroke-width:0.1875px;stroke-linecap:butt;stroke-linejoin:miter;stroke-opacity:1"/>
        <path style="fill:#ffffff;stroke:#000000;stroke-width:0.1875px;stroke-linecap:butt;stroke-linejoin:miter;stroke-opacity:1" d="m 1649.5162,739.86593 1.5605,3.33691 -1.1836,0.97987 c -0.2914,-1.48545 -1.8335,-3.32766 -0.3769,-4.31678 z"/>
      </g>
      <path d="m 1682.1382,714.18608 c -6.2077,0.0862 -12.7173,1.28907 -18.3438,3.625 -12.4521,5.16965 -16.2188,5.375 -35.2188,10.375 -4.5588,1.1997 -8.8195,1.61363 -11,5 -0.5414,0.84077 -0.4819,2.12378 0,3 0.4874,0.88627 0.8997,0.67863 2.5626,1.625 18.0966,-0.0623 35.8868,-0.36505 52.9687,-2.15625 l 0.031,0.0625 c -0.1939,0.21319 -0.5158,0.64567 -0.5938,0.65625 -16.5472,3.56517 -33.2975,6.09984 -50.0938,8.15625 -0.048,0.41984 0.977,0.57646 1.375,0.84375 3.5753,1.48908 7.5577,1.15682 11.3438,1.09375 10.8797,-0.43243 21.641,-2.13792 32.4375,-3.4375 3.5254,-0.46323 7.4159,-0.026 10.9375,-0.53125 h 0.062 l 1.6875,0.28125 11,4.875 7,12 h 35 c 0,0 -5.3333,-8.66667 -7,-12 -3.3333,-6.66667 -5.6418,-13.95336 -10,-20 -2.7564,-3.82423 -6.99,-7.39668 -11,-9.875 -4.4833,-2.77085 -9.7976,-2.15577 -15,-3 -2.5705,-0.41714 -5.3346,-0.63293 -8.1562,-0.59375 z" style="fill:#cead8c;fill-opacity:1;stroke:#000000;stroke-width:1px;stroke-linecap:butt;stroke-linejoin:miter;stroke-opacity:1"/>
      <path transform="matrix(1.6956168,0,0,1.6956168,-1456.4538,-477.59675)" d="m 1847.0465,703.8489 a 6,6 0 0 1 8.3702,0.45216" style="fill:#cead8c;fill-opacity:1;stroke:#000000;stroke-width:0.666667;stroke-linecap:square;stroke-linejoin:miter;stroke-miterlimit:4;stroke-dasharray:none;stroke-dashoffset:0;stroke-opacity:1"/>
      <circle transform="translate(-169.70562,14.422683)" style="fill:#ffff00;fill-opacity:1;stroke:#000000;stroke-width:1;stroke-linecap:square;stroke-linejoin:miter;stroke-miterlimit:4;stroke-dasharray:none;stroke-dashoffset:0;stroke-opacity:1" cx="1851" cy="708.36218" r="6"/>
      <ellipse transform="rotate(-17.377225,1772.419,1279.1054)" style="fill:#333333;stroke:#000000;stroke-width:1;stroke-linecap:square;stroke-linejoin:miter;stroke-miterlimit:4;stroke-dasharray:none;stroke-dashoffset:0;stroke-opacity:1" cx="1794.5" cy="713.36218" rx="3.5" ry="1"/>
      <circle style="fill:#000000;fill-opacity:1;stroke:#000000;stroke-width:1;stroke-linecap:square;stroke-linejoin:miter;stroke-miterlimit:4;stroke-dasharray:none;stroke-dashoffset:0;stroke-opacity:1" transform="matrix(0.30985086,0,0,0.83597195,1107.7605,130.61395)" cx="1851" cy="708.36218" r="6"/>
      <path d="m 1636.1872,726.69559 6.4286,6.96429 -0.5357,-8.92857" style="fill:#800000;fill-opacity:1;stroke:#000000;stroke-width:1px;stroke-linecap:butt;stroke-linejoin:miter;stroke-opacity:1"/>
      <path d="m 1647.0801,723.83845 4.8214,6.42857 0.3571,-7.85714" style="fill:#800000;fill-opacity:1;stroke:#000000;stroke-width:1px;stroke-linecap:butt;stroke-linejoin:miter;stroke-opacity:1"/>
      <path d="m 1658.5086,719.90988 7.8572,8.57143 0.3571,-11.78572" style="fill:#800000;fill-opacity:1;stroke:#000000;stroke-width:1px;stroke-linecap:butt;stroke-linejoin:miter;stroke-opacity:1"/>
      <path d="m 1696.4488,715.40227 -3.2143,18.39286 12.1428,-16.25" style="fill:#800000;fill-opacity:1;stroke:#000000;stroke-width:1px;stroke-linecap:butt;stroke-linejoin:miter;stroke-opacity:1"/>
      <path d="m 1714.066,725.19305 -11.6071,15.71429 18.0357,-6.25" style="fill:#800000;fill-opacity:1;stroke:#000000;stroke-width:1px;stroke-linecap:butt;stroke-linejoin:miter;stroke-opacity:1"/>
      <path d="m 1722.5635,740.6025 -15.1786,8.75 18.5715,-2.67857" style="fill:#800000;fill-opacity:1;stroke:#000000;stroke-width:1px;stroke-linecap:butt;stroke-linejoin:miter;stroke-opacity:1"/>
      <path d="m 1728.0469,750.62416 -14.4643,8.92857 17.6785,-3.75" style="fill:#800000;fill-opacity:1;stroke:#000000;stroke-width:1px;stroke-linecap:butt;stroke-linejoin:miter;stroke-opacity:1"/>
    </g></svg>
