<svg xmlns="http://www.w3.org/2000/svg" width="64" height="64" viewBox="106.7639866681801 1.5792706383899606 25.65215365137019 25.65215365137019"><defs>
    <filter style="color-interpolation-filters:sRGB" x="-0.1940961" y="-0.046480109" width="1.3881922" height="1.0929602">
      <feGaussianBlur stdDeviation="3.4637856"/>
    </filter>
  </defs><g transform="matrix(0.17934177,0,0,0.17934177,-1473.0202,340.20106)">
      <g transform="translate(-1820.4445,-887.46661)">
        <path style="fill:#efd2c3;fill-opacity:1;fill-rule:nonzero;stroke:#000000;stroke-width:2.27555;stroke-miterlimit:4;stroke-dasharray:none;stroke-dashoffset:0;stroke-opacity:1" d="m 10669.477,-909.90911 c 2.879,25.1301 19.879,43.33455 31.323,43.33455 11.312,0 28.445,-18.20445 31.456,-43.33455 2.329,-19.43392 -11.817,-34.42722 -31.39,-34.42722 -19.572,0 -33.617,14.98146 -31.389,34.42722 z"/>
        <g transform="translate(952.70103,-205.86151)">
          <path d="m 9743.119,-703.79719 -2.0148,-2.02514 h -6.0092 -2.1015" style="fill:none;stroke:#000000;stroke-width:2.02513px;stroke-linecap:butt;stroke-linejoin:miter;stroke-opacity:1"/>
          <path d="m 9753.2447,-703.79719 2.2433,-2.02514 h 7.8823" style="fill:none;stroke:#000000;stroke-width:2.02513px;stroke-linecap:butt;stroke-linejoin:miter;stroke-opacity:1"/>
          <path d="m 9740.7723,-705.74091 c 0.2851,0.46274 0.4495,1.0077 0.4495,1.59114 0,1.67762 -1.36,3.0377 -3.0377,3.0377 -1.6778,0 -3.0378,-1.36008 -3.0378,-3.0377 0,-0.59923 0.1737,-1.15817 0.4733,-1.6288 z" style="fill:#ffffff;stroke:#000000;stroke-width:1.01256;stroke-miterlimit:4;stroke-dashoffset:0;stroke-opacity:1"/>
          <path d="m 9761.0236,-705.74111 c 0.285,0.46274 0.4495,1.0077 0.4495,1.59114 0,1.67762 -1.36,3.03769 -3.0378,3.03769 -1.6776,0 -3.0376,-1.36007 -3.0376,-3.03769 0,-0.59924 0.1735,-1.15817 0.4732,-1.62881 z" style="fill:#ffffff;stroke:#000000;stroke-width:1.01256;stroke-miterlimit:4;stroke-dashoffset:0;stroke-opacity:1"/>
          <circle r="1.0125639" cy="-703.78687" cx="9738.0557" style="fill:#000000;fill-opacity:1;fill-rule:nonzero;stroke:#000000;stroke-width:1.01256;stroke-miterlimit:4;stroke-dasharray:none;stroke-dashoffset:0;stroke-opacity:1"/>
          <circle r="1.0125639" cy="-703.78687" cx="9758.3711" style="fill:#000000;fill-opacity:1;fill-rule:nonzero;stroke:#000000;stroke-width:1.01256;stroke-miterlimit:4;stroke-dasharray:none;stroke-dashoffset:0;stroke-opacity:1"/>
        </g>
        <path style="fill:none;stroke:#000000;stroke-width:2.02513px;stroke-linecap:butt;stroke-linejoin:miter;stroke-opacity:1" d="m 10691.771,-887.38236 h 4.05 10.125 4.05"/>
        <path style="fill:none;stroke:#000000;stroke-width:2.02513px;stroke-linecap:butt;stroke-linejoin:miter;stroke-opacity:1" d="m 10697.387,-905.25914 v 11.37779 l 3.413,1.13778 3.413,-1.13778 v -11.37779"/>
        <path style="fill:#904a25;fill-opacity:1;stroke:#904a25;stroke-width:2.27555;stroke-linecap:butt;stroke-linejoin:miter;stroke-miterlimit:4;stroke-dasharray:none;stroke-dashoffset:0;stroke-opacity:1" d="m 10700.205,-947.75057 c -8.761,0.10357 -17.594,3.24574 -23.958,9.36334 -3.826,3.67013 -6.765,8.30624 -8.337,13.37719 0.479,3.15814 0.835,6.34266 1.433,9.47838 0.346,0.14688 0.62,-0.41359 0.925,-0.53988 5.226,-4.11625 10.405,-8.29474 15.606,-12.4457 9.871,-0.0705 19.743,-0.0375 29.613,-0.1999 0.657,-0.19388 1.149,0.13846 1.606,0.57617 5.02,3.88152 10.04,7.76294 15.06,11.64447 0.435,-0.24769 0.241,-1.16053 0.429,-1.66218 0.319,-2.40025 0.865,-4.77832 1.011,-7.19701 -0.06,-1.35429 -0.868,-2.53053 -1.349,-3.76502 -3.389,-7.19554 -9.635,-12.92447 -16.996,-15.88941 -4.75,-1.95254 -9.918,-2.80519 -15.043,-2.74045 z"/>
      </g>
      <g transform="translate(-1820.4445,-323.12883)">
        <rect transform="scale(-1,1)" rx="0" y="-1553.4969" x="-10729.061" height="54.545063" width="55.47435" style="fill:#800000;fill-opacity:1;stroke:#000000;stroke-width:0.568889;stroke-linecap:butt;stroke-linejoin:miter;stroke-miterlimit:4;stroke-dasharray:none;stroke-dashoffset:0;stroke-opacity:1"/>
        <path d="m 10673.586,-1504.0217 c 21.525,4.8427 32.904,4.8427 55.805,0 l 2.972,7.393 c -25.873,5.4141 -37.233,5.7093 -61.419,0 z" style="fill:#000000;fill-opacity:1;stroke:#000000;stroke-width:0.306416;stroke-linecap:butt;stroke-linejoin:miter;stroke-miterlimit:4;stroke-dashoffset:0;stroke-opacity:1"/>
        <circle style="fill:#ffff00;fill-opacity:1;stroke:#000000;stroke-width:0.284445;stroke-linecap:butt;stroke-linejoin:miter;stroke-miterlimit:4;stroke-dasharray:none;stroke-dashoffset:0;stroke-opacity:1" cx="10682.312" cy="-1517.9524" r="2.8444445"/>
        <circle style="fill:#ffff00;fill-opacity:1;stroke:#000000;stroke-width:0.284445;stroke-linecap:butt;stroke-linejoin:miter;stroke-miterlimit:4;stroke-dasharray:none;stroke-dashoffset:0;stroke-opacity:1" transform="scale(-1,1)" cx="-10720.334" cy="-1517.9524" r="2.8444445"/>
        <circle style="fill:#ffff00;fill-opacity:1;stroke:#000000;stroke-width:0.284445;stroke-linecap:butt;stroke-linejoin:miter;stroke-miterlimit:4;stroke-dasharray:none;stroke-dashoffset:0;stroke-opacity:1" cx="10682.312" cy="-1529.3301" r="2.8444445"/>
        <circle transform="scale(-1,1)" style="fill:#ffff00;fill-opacity:1;stroke:#000000;stroke-width:0.284445;stroke-linecap:butt;stroke-linejoin:miter;stroke-miterlimit:4;stroke-dasharray:none;stroke-dashoffset:0;stroke-opacity:1" cx="-10720.334" cy="-1529.3301" r="2.8444445"/>
        <circle style="fill:#ffff00;fill-opacity:1;stroke:#000000;stroke-width:0.284445;stroke-linecap:butt;stroke-linejoin:miter;stroke-miterlimit:4;stroke-dasharray:none;stroke-dashoffset:0;stroke-opacity:1" cx="10682.312" cy="-1540.7079" r="2.8444445"/>
        <circle style="fill:#ffff00;fill-opacity:1;stroke:#000000;stroke-width:0.284445;stroke-linecap:butt;stroke-linejoin:miter;stroke-miterlimit:4;stroke-dasharray:none;stroke-dashoffset:0;stroke-opacity:1" transform="scale(-1,1)" cx="-10720.334" cy="-1540.7079" r="2.8444445"/>
        <path d="m 10682.253,-1517.9357 c 12.858,7.3789 24.237,7.3789 38.215,0" style="fill:none;stroke:#ffff00;stroke-width:2.27555;stroke-linecap:butt;stroke-linejoin:miter;stroke-miterlimit:4;stroke-dasharray:none;stroke-opacity:1"/>
        <path style="fill:none;stroke:#ffff00;stroke-width:2.27555;stroke-linecap:butt;stroke-linejoin:miter;stroke-miterlimit:4;stroke-dasharray:none;stroke-opacity:1" d="m 10682.253,-1529.3135 c 12.858,7.3789 24.237,7.3789 38.215,0"/>
        <path d="m 10682.253,-1540.6913 c 12.858,7.379 24.237,7.379 38.215,0" style="fill:none;stroke:#ffff00;stroke-width:2.27555;stroke-linecap:butt;stroke-linejoin:miter;stroke-miterlimit:4;stroke-dasharray:none;stroke-opacity:1"/>
        <ellipse style="fill:#800000;fill-opacity:1;stroke:#000000;stroke-width:0.568889;stroke-linecap:butt;stroke-linejoin:miter;stroke-miterlimit:4;stroke-dasharray:none;stroke-dashoffset:0;stroke-opacity:1" cx="10701.369" cy="-1553.2234" rx="27.875555" ry="2.8444445"/>
      </g>
      <path style="fill:none;stroke:#904a25;stroke-width:3.41333;stroke-linecap:butt;stroke-linejoin:miter;stroke-miterlimit:4;stroke-dasharray:none;stroke-opacity:1" d="m 8891.7335,-1774.5214 v -2.2754 l -4.5511,-1.1378 h -13.6533 l -4.5511,1.1377 v 2.2755"/>
    </g></svg>
