<svg xmlns="http://www.w3.org/2000/svg" width="64" height="64" viewBox="47.95812645111697 234.34479000561072 69.61565471444604 69.61565471444604"><defs>
    <filter style="color-interpolation-filters:sRGB" x="-0.1940961" y="-0.046480109" width="1.3881922" height="1.0929602">
      <feGaussianBlur stdDeviation="3.4637856"/>
    </filter>
  </defs><g transform="matrix(0.15364028,0,0,0.15364028,30.147308,179.76427)">
      <path d="m 291.60715,677.00504 85.53571,-28.03572" style="fill:none;stroke:#000000;stroke-width:5;stroke-linecap:butt;stroke-linejoin:miter;stroke-miterlimit:4;stroke-dasharray:none;stroke-opacity:1"/>
      <path d="m 330.34036,645.71872 c -10.04425,8.7496 -19.99317,17.81411 -29.89223,26.79749 0.11851,0.82607 1.47759,-0.23832 1.9624,-0.21139 22.66379,-7.6546 45.32902,-15.31454 67.90817,-23.21244 -0.32315,-0.67579 -1.92205,-0.22652 -2.64139,-0.51435 -12.43211,-1.0859 -24.88023,-2.1827 -37.33695,-2.85931 z" style="fill:#800000;stroke:none"/>
      <g>
        <path style="fill:#ffffff;stroke:#000000;stroke-width:1px;stroke-linecap:butt;stroke-linejoin:miter;stroke-opacity:1" d="m 194.46429,625.75504 -8.57143,-17.67857 -8.03572,1.60714 c 5.17655,6.19519 7.61577,18.77751 16.60715,16.07143 z"/>
        <path style="fill:#ffffff;stroke:#000000;stroke-width:1px;stroke-linecap:butt;stroke-linejoin:miter;stroke-opacity:1" d="m 180.98215,623.51352 -8.57143,-17.67857 -8.03572,1.60714 c 5.17655,6.19519 7.61577,18.77751 16.60715,16.07143 z"/>
        <path style="fill:#ffffff;stroke:#000000;stroke-width:1px;stroke-linecap:butt;stroke-linejoin:miter;stroke-opacity:1" d="m 203.12501,620.29924 -8.57143,-17.67857 -8.03572,1.60714 c 5.17655,6.19519 7.61577,18.77751 16.60715,16.07143 z"/>
        <path style="fill:#ffffff;stroke:#000000;stroke-width:1px;stroke-linecap:butt;stroke-linejoin:miter;stroke-opacity:1" d="m 211.51786,617.08495 -8.57143,-17.67857 -8.03572,1.60714 c 5.17655,6.19519 7.61577,18.77751 16.60715,16.07143 z"/>
        <path style="fill:#ffffff;stroke:#000000;stroke-width:1px;stroke-linecap:butt;stroke-linejoin:miter;stroke-opacity:1" d="m 220.80357,611.90638 -8.57143,-17.67857 -8.03572,1.60714 c 5.17655,6.19519 7.61577,18.77751 16.60715,16.07143 z"/>
        <path style="fill:#ffffff;stroke:#000000;stroke-width:1px;stroke-linecap:butt;stroke-linejoin:miter;stroke-opacity:1" d="m 228.66072,606.54924 -8.57143,-17.67857 -8.03572,1.60714 c 5.17655,6.19519 7.61577,18.77751 16.60715,16.07143 z"/>
        <path style="fill:#ffffff;stroke:#000000;stroke-width:1px;stroke-linecap:butt;stroke-linejoin:miter;stroke-opacity:1" d="m 238.48215,600.47781 -8.57143,-17.67857 -8.03572,1.60714 c 5.17655,6.19519 7.61577,18.77751 16.60715,16.07143 z"/>
        <path style="fill:#ffffff;stroke:#000000;stroke-width:1px;stroke-linecap:butt;stroke-linejoin:miter;stroke-opacity:1" d="m 248.83929,597.79924 -8.57143,-17.67857 -8.03572,1.60714 c 5.17655,6.19519 7.61577,18.77751 16.60715,16.07143 z"/>
        <path style="fill:#ffffff;stroke:#000000;stroke-width:1px;stroke-linecap:butt;stroke-linejoin:miter;stroke-opacity:1" d="m 258.48215,592.79924 -8.57143,-17.67857 -8.03572,1.60714 c 5.17655,6.19519 7.61577,18.77751 16.60715,16.07143 z"/>
        <path d="m 218.90892,672.76038 13.03126,14.70332 -4.56989,6.80234 c -3.73217,-7.15876 -14.41293,-14.24297 -8.46137,-21.50566 z" style="fill:#ffffff;stroke:#000000;stroke-width:1px;stroke-linecap:butt;stroke-linejoin:miter;stroke-opacity:1"/>
        <path d="m 213.02306,680.51367 13.03125,14.70332 -4.56989,6.80235 c -3.73217,-7.15877 -14.41292,-14.24298 -8.46136,-21.50567 z" style="fill:#ffffff;stroke:#000000;stroke-width:1px;stroke-linecap:butt;stroke-linejoin:miter;stroke-opacity:1"/>
        <path d="m 226.00968,664.45986 13.03125,14.70332 -4.56988,6.80235 c -3.73217,-7.15877 -14.41293,-14.24298 -8.46137,-21.50567 z" style="fill:#ffffff;stroke:#000000;stroke-width:1px;stroke-linecap:butt;stroke-linejoin:miter;stroke-opacity:1"/>
        <path d="m 233.84212,659.08139 13.03126,14.70332 -4.56989,6.80235 c -3.73218,-7.15877 -14.41294,-14.24297 -8.46137,-21.50567 z" style="fill:#ffffff;stroke:#000000;stroke-width:1px;stroke-linecap:butt;stroke-linejoin:miter;stroke-opacity:1"/>
        <path d="m 240.04305,652.11765 13.03125,14.70332 -4.56988,6.80235 c -3.73218,-7.15877 -14.41294,-14.24298 -8.46137,-21.50567 z" style="fill:#ffffff;stroke:#000000;stroke-width:1px;stroke-linecap:butt;stroke-linejoin:miter;stroke-opacity:1"/>
        <path d="m 246.99665,643.51106 13.03125,14.70332 -4.56988,6.80233 c -3.73217,-7.15876 -14.41293,-14.24297 -8.46137,-21.50565 z" style="fill:#ffffff;stroke:#000000;stroke-width:1px;stroke-linecap:butt;stroke-linejoin:miter;stroke-opacity:1"/>
        <path d="m 254.60651,635.00659 13.03125,14.70333 -4.56988,6.80234 c -3.73218,-7.15877 -14.41294,-14.24297 -8.46137,-21.50567 z" style="fill:#ffffff;stroke:#000000;stroke-width:1px;stroke-linecap:butt;stroke-linejoin:miter;stroke-opacity:1"/>
        <path d="m 261.3097,626.85112 13.03126,14.70332 -4.56989,6.80234 c -3.73217,-7.15877 -14.41293,-14.24297 -8.46137,-21.50566 z" style="fill:#ffffff;stroke:#000000;stroke-width:1px;stroke-linecap:butt;stroke-linejoin:miter;stroke-opacity:1"/>
        <path d="m 267.4829,619.74158 13.03125,14.70332 -4.56989,6.80233 c -3.73217,-7.15877 -14.41292,-14.24297 -8.46136,-21.50565 z" style="fill:#ffffff;stroke:#000000;stroke-width:1px;stroke-linecap:butt;stroke-linejoin:miter;stroke-opacity:1"/>
      </g>
      <path d="m 456.07143,680.57647 84.64286,-155 h -36.42857 c -33.35954,-33.91042 -55.48262,-67.95091 -84.6085,-70.84884 -39.69183,-3.94921 -83.83102,5.82431 -130.74865,15.84883 -15.71473,19.77874 -24.1456,26.38896 -93.65966,47.42437 -51.17063,15.48457 -68.7859,74.31506 -29.91177,97.21849 30.94259,-6.4442 64.98478,-18.62085 101.07143,-33.92857 L 283.21429,609.1479 272.5,627.00504 214.28571,698.79075 c 15.9686,10.85462 31.41213,13.30834 46.42858,8.92857 l 69.64285,-62.5 43.57143,3.57143 z" style="fill:#835d38;fill-opacity:1;stroke:#000000;stroke-width:3;stroke-linecap:butt;stroke-linejoin:miter;stroke-miterlimit:4;stroke-dasharray:none;stroke-opacity:1"/>
      <path style="fill:#ffffff;stroke:#000000;stroke-width:3;stroke-linecap:butt;stroke-linejoin:miter;stroke-miterlimit:4;stroke-dasharray:none;stroke-opacity:1" d="m 289.28571,501.29075 c 4.86197,-11.9918 13.21639,-10.40185 22.32143,-5.89285 -4.0971,10.7085 -12.04249,11.35225 -22.32143,5.89285 z"/>
      <path style="fill:#00ffff;fill-opacity:1;stroke:#008080;stroke-width:7;stroke-linecap:butt;stroke-linejoin:miter;stroke-miterlimit:4;stroke-dasharray:none;stroke-opacity:1" d="m 299.19212,492.24467 1.92059,12.46082"/>
      <path d="m 283.92857,609.50504 26.78572,-31.78572 39.64285,1.78572 L 485,625.93361" style="fill:none;stroke:#000000;stroke-width:1px;stroke-linecap:butt;stroke-linejoin:miter;stroke-opacity:1"/>
      <path d="m 522.14286,558.07647 -36.07143,-8.21429 -74.64286,-60.35714 c -52.44315,-6.62536 -96.26939,-2.47959 -141.42857,0" style="fill:none;stroke:#000000;stroke-width:1px;stroke-linecap:butt;stroke-linejoin:miter;stroke-opacity:1"/>
      <path d="m 178.39286,610.93361 0.89285,-86.07143" style="fill:none;stroke:#000000;stroke-width:1px;stroke-linecap:butt;stroke-linejoin:miter;stroke-opacity:1"/>
      <path d="m 289.28571,501.29075 c 4.86197,-11.9918 13.21639,-10.40185 22.32143,-5.89285 -4.0971,10.7085 -12.04249,11.35225 -22.32143,5.89285 z" style="fill:none;stroke:#000000;stroke-width:3;stroke-linecap:butt;stroke-linejoin:miter;stroke-miterlimit:4;stroke-dasharray:none;stroke-opacity:1"/>
      <path d="m 299.19212,492.24467 1.92059,12.46082" style="fill:none;stroke:#000000;stroke-width:3;stroke-linecap:butt;stroke-linejoin:miter;stroke-miterlimit:4;stroke-dasharray:none;stroke-opacity:1"/>
      <path d="m 174.61948,530.85922 c -16.93885,11.729 -29.65504,32.05308 -27.26313,53.21904 1.01113,11.76325 8.62714,22.17531 18.519,28.20873 4.5462,-0.58544 12.61019,-2.33382 12.61019,-2.33382 0,0 -0.37,-55.04289 0.14298,-81.66668 -1.33838,0.48247 -2.6887,1.7904 -4.00904,2.57273 z" style="fill:#8ccec6;fill-opacity:1;stroke:#000000;stroke-width:2.52538;stroke-linecap:square;stroke-linejoin:miter;stroke-miterlimit:4;stroke-dasharray:none;stroke-dashoffset:0;stroke-opacity:1"/>
      <path d="m 395.42401,455.67028 c -35.46701,1.14609 -70.20439,9.1877 -104.82143,16.31697 -4.90665,5.46821 -12.7176,10.33565 -16.74545,16.38393 39.46403,-2.55607 80.9207,-3.46634 120.44861,-1.37257 5.90632,0.71704 12.12995,0.7837 17.79238,2.48864 24.95098,19.35761 49.23251,39.81421 74.10714,59.28571 11.36148,3.10671 22.90125,6.14074 34.50893,7.90179 6.49337,-7.93517 10.47414,-18.04845 15.77514,-26.92535 2.20679,-3.99106 -7.20581,-1.04942 -9.85759,-2.09511 -7.71657,-0.16259 -15.43313,-0.32563 -23.1497,-0.48847 -19.17667,-19.29142 -35.94901,-41.07414 -56.875,-58.54911 -10.7741,-9.26674 -25.08414,-12.81581 -39.04017,-12.85714 -4.04597,-0.12331 -8.09564,-0.18384 -12.14286,-0.0893 z" style="fill:#46321e;fill-opacity:1;stroke:#000000;stroke-width:2.14286;stroke-linecap:square;stroke-linejoin:miter;stroke-miterlimit:4;stroke-dasharray:none;stroke-dashoffset:0;stroke-opacity:1"/>
      <ellipse style="fill:#000000;fill-opacity:1;stroke:#000000;stroke-width:3;stroke-linecap:square;stroke-linejoin:miter;stroke-miterlimit:4;stroke-dasharray:none;stroke-dashoffset:0;stroke-opacity:1" cx="165.71428" cy="559.14789" rx="3.5714285" ry="6.0714288"/>
      <path transform="translate(5.0000001,15.714286)" d="m 334.86135,501.95006 a 47.142857,33.92857 0 0 1 -34.87449,17.23936 47.142857,33.92857 0 0 1 -40.0416,-9.83321" style="fill:none;stroke:#800000;stroke-width:7;stroke-linecap:square;stroke-linejoin:miter;stroke-miterlimit:4;stroke-dasharray:none;stroke-dashoffset:0;stroke-opacity:1"/>
      <path style="fill:none;stroke:#800000;stroke-width:10.0196;stroke-linecap:square;stroke-linejoin:miter;stroke-miterlimit:4;stroke-dasharray:none;stroke-dashoffset:0;stroke-opacity:1" d="m 331.87589,507.85293 a 47.142857,38.214283 0 0 1 -35.07679,15.84816 47.142857,38.214283 0 0 1 -37.4188,-11.8153" transform="matrix(0.69863013,0,0,0.69863013,93.473585,153.64731)"/>
      <path d="m 311.20416,578.27617 c -8.88431,9.89438 -17.32726,20.3066 -25.97986,30.45452 -3.96914,6.48694 -7.69216,13.14626 -11.80986,19.52879 -18.92266,23.36503 -37.91849,46.67147 -56.75424,70.10646 1.08499,1.15887 2.85546,1.81139 4.23147,2.70411 9.10239,4.953 19.54343,8.14474 29.97955,6.89234 3.13866,-0.32695 6.37684,-0.6827 9.31089,-1.79438 23.21374,-20.83254 46.42668,-41.66596 69.63885,-62.50025 14.8734,1.22611 29.74672,2.45499 44.62033,3.67759 26.86286,10.39934 53.70299,20.86236 80.59912,31.17267 1.82059,-2.44162 3.13735,-5.38495 4.73357,-8.03241 8.17414,-14.68743 16.16364,-29.47659 24.23731,-44.2193 -4.50349,-1.84256 -9.39579,-3.28074 -14.04779,-4.96881 -39.89567,-13.76167 -79.79113,-27.52394 -119.68695,-41.28513 -13.02291,-0.56758 -26.05534,-1.22355 -39.07239,-1.7362 z" style="fill:#cead8c;fill-opacity:1;stroke:none"/>
    </g></svg>
