<svg xmlns="http://www.w3.org/2000/svg" width="64" height="64" viewBox="150.92103478251244 135.40673193693897 43.8786949267659 43.8786949267659"><defs>
    <filter style="color-interpolation-filters:sRGB" x="-0.1940961" y="-0.046480109" width="1.3881922" height="1.0929602">
      <feGaussianBlur stdDeviation="3.4637856"/>
    </filter>
  </defs><g transform="matrix(-0.08450282,0.14452456,0.14452456,0.08450282,1227.6878,-1025.2712)">
      <path style="fill:#000000;fill-rule:evenodd;stroke:#000000;stroke-width:1px;stroke-linecap:butt;stroke-linejoin:miter;stroke-opacity:1" d="m 9359.442,-1856.3215 -131.168,-47.553 -25.986,30.4056 60.811,37.2999 101.116,9.3692 9.016,-22.6275 z"/>
      <path style="fill:#ffffff;fill-rule:evenodd;stroke:#000000;stroke-width:1px;stroke-linecap:butt;stroke-linejoin:miter;stroke-opacity:1" d="m 9369.0625,-1851.2003 -6.8125,23.6875 10.625,4.5625 6.25,-18.125 z"/>
      <path style="fill:#ffffff;fill-opacity:1;stroke:#000000;stroke-width:3;stroke-linecap:round;stroke-miterlimit:4;stroke-dasharray:none;stroke-dashoffset:0;stroke-opacity:1" d="m 9228.501,-1875.2994 77.517,17.5 -2.25,17.1672 -80.267,-16.75 z"/>
      <path style="fill:#b3b3b3;fill-opacity:1;stroke:#000000;stroke-width:3;stroke-linecap:round;stroke-miterlimit:4;stroke-dasharray:none;stroke-dashoffset:0;stroke-opacity:1" d="m 9200.25,-1905.8887 c -14.1731,-0.25 -22.5,18.8743 -22.75,40.25 -0.3552,30.3736 14.3269,45 32,45 6.9106,-0.02 11.1317,5.1155 16.6582,-2.0156 40.9895,7.9115 100.2955,-0.049 145.8418,-0.9844 l -6.7175,-7.0607 -9.9405,-2.3436 2.5427,-6.0733 -11.9617,3.8526 -41.3106,-9.7396 -1.5967,3.2072 -80.0762,-21.8289 z"/>
      <path style="fill:#b3b3b3;fill-opacity:1;stroke:#000000;stroke-width:3;stroke-linecap:round;stroke-miterlimit:4;stroke-dasharray:none;stroke-dashoffset:0;stroke-opacity:1" d="m 9216.2012,-1928.3613 c -22.3991,0.2728 -34.7411,12.6284 -37.3028,22.8672 -3.4662,13.8497 8.2979,16.6997 38.617,27.0441 6.0395,2.0605 10.6421,8.5807 17.3715,10.2642 27.228,6.8115 66.1571,18.0129 77.041,11.9951 l 4.5363,-5.0111 11.4836,1.7898 23.3448,6.7184 7.0449,10.719 2.0387,-8.1048 7.7889,2.2416 9.6017,5.4394 -4.3586,-15.2539 -50.2832,-21.0625 c -0.227,-4.1674 -2.3106,-8.659 -6.1348,-13.2247 l 23.8282,-0.6523 -35.6075,-9.832 c -12.2667,-8.6612 -29.5014,-16.0962 -48.1855,-20.7871 -14.0516,-3.5164 -28.2214,-5.3041 -40.8242,-5.1504 z"/>
      <circle style="fill:#000000;fill-opacity:1;stroke:#000000;stroke-width:3;stroke-linecap:round;stroke-miterlimit:4;stroke-dasharray:none;stroke-dashoffset:0;stroke-opacity:1" cx="9228.25" cy="-1899.6378" r="13.25"/>
      <path style="fill:none;stroke:#000000;stroke-width:3;stroke-linecap:butt;stroke-linejoin:miter;stroke-miterlimit:4;stroke-dasharray:none;stroke-opacity:1" d="m 9235.125,-1869.1378 -2.875,8.75"/>
      <path style="fill:none;stroke:#000000;stroke-width:3;stroke-linecap:butt;stroke-linejoin:miter;stroke-miterlimit:4;stroke-dasharray:none;stroke-opacity:1" d="m 9244.625,-1866.8878 -2.875,8.75"/>
      <path style="fill:none;stroke:#000000;stroke-width:3;stroke-linecap:butt;stroke-linejoin:miter;stroke-miterlimit:4;stroke-dasharray:none;stroke-opacity:1" d="m 9255.125,-1864.1378 -2.875,8.75"/>
      <path style="fill:none;stroke:#000000;stroke-width:3;stroke-linecap:butt;stroke-linejoin:miter;stroke-miterlimit:4;stroke-dasharray:none;stroke-opacity:1" d="m 9265.4786,-1860.0217 -1.9912,6.8055"/>
      <path style="fill:none;stroke:#000000;stroke-width:3;stroke-linecap:butt;stroke-linejoin:miter;stroke-miterlimit:4;stroke-dasharray:none;stroke-opacity:1" d="m 9279.7714,-1858.3804 -2.875,8.75"/>
      <path style="fill:none;stroke:#000000;stroke-width:3;stroke-linecap:butt;stroke-linejoin:miter;stroke-miterlimit:4;stroke-dasharray:none;stroke-opacity:1" d="m 9291.943,-1856.4861 -2.875,10.5178"/>
      <path style="fill:none;stroke:#000000;stroke-width:3;stroke-linecap:butt;stroke-linejoin:miter;stroke-miterlimit:4;stroke-dasharray:none;stroke-opacity:1" d="m 9368.1875,-1847.4503 -4.4218,16.1938"/>
      <path style="fill:none;stroke:#000000;stroke-width:3;stroke-linecap:butt;stroke-linejoin:miter;stroke-miterlimit:4;stroke-dasharray:none;stroke-opacity:1" d="m 9378.608,-1840.5348 -5.358,17.2519"/>
      <path style="fill:none;stroke:#000000;stroke-width:3;stroke-linecap:butt;stroke-linejoin:miter;stroke-miterlimit:4;stroke-dasharray:none;stroke-opacity:1" d="m 9374.245,-1843.5494 -5.1383,16.067"/>
      <path style="fill:none;stroke:#000000;stroke-width:1px;stroke-linecap:butt;stroke-linejoin:miter;stroke-opacity:1" d="m 9366.75,-1839.3253 9.625,6.6875"/>
    </g></svg>
