<svg xmlns="http://www.w3.org/2000/svg" width="64" height="64" viewBox="44.91877234351008 185.48214272531305 29.256885077072994 29.256885077072994"><defs>
    <filter style="color-interpolation-filters:sRGB" x="-0.1940961" y="-0.046480109" width="1.3881922" height="1.0929602">
      <feGaussianBlur stdDeviation="3.4637856"/>
    </filter>
  </defs><g transform="matrix(0.19524347,0,0,0.19524347,-1657.9277,402.58835)">
      <g transform="matrix(1.40625,0,0,1.40625,8450.9838,-1277.5262)">
        <path d="m 238.8261,153.54798 c 0,0 -3.46397,-3.94527 -3.12473,-6.24947 0.50329,-3.41863 7.11145,-7.54248 7.11145,-7.54248 0,0 -0.033,5.57241 -0.86198,8.18896 -0.44795,1.41395 -0.40389,3.64268 -1.17674,4.82625 -0.34145,0.52289 -1.948,0.77674 -1.948,0.77674 z" style="fill:none;stroke:#000000;stroke-width:1.51703;stroke-linecap:butt;stroke-linejoin:miter;stroke-miterlimit:4;stroke-dasharray:none;stroke-opacity:1"/>
        <path d="m 288.33658,180.49831 4.04106,-4.39475 c -12.00525,-16.58427 -26.05227,-29.70888 -48.31237,-28.91688 l -3.40745,0.79425 -3.24625,1.17601 c -2.16746,0.77776 -4.15321,2.2959 -5.77099,4.30969 28.01712,-6.69335 41.32952,11.02829 56.696,27.03168 z" style="fill:#ffc5ff;fill-opacity:1;stroke:#000000;stroke-width:1.51703;stroke-linecap:butt;stroke-linejoin:miter;stroke-miterlimit:4;stroke-dasharray:none;stroke-opacity:1"/>
        <path style="fill:#ffffff;stroke:#000000;stroke-width:1.51703;stroke-linecap:butt;stroke-linejoin:miter;stroke-miterlimit:4;stroke-dasharray:none;stroke-opacity:1" d="m 263.71625,216.47374 25.21341,-36.63487 C 276.92442,163.2546 262.87739,150.12999 240.61729,150.92199 l -3.40744,0.79424 -3.24626,1.17603 c -2.16746,0.77775 -4.15321,2.2959 -5.77099,4.30968 l -3.31225,2.58671 -1.7596,4.14914 c -8.20891,9.92857 -14.91844,21.1475 -23.98187,30.33412 l 0.38763,6.80819 8.47622,3.7978 c 0,0 2.2528,0.51397 3.18069,8.5e-4 0.87179,-0.4819 3.31265,-3.60854 3.31265,-3.60854 l 22.06038,-11.26188 c 1.89199,0.33208 3.65152,0.48529 5.42529,0.22598 2.9805,-0.4357 5.58902,-1.97584 7.50558,-4.27602 z"/>
        <g transform="matrix(2.0677143,-0.8871627,1.1089534,2.5846429,-109.30014,116.04281)">
          <path d="m 129.09663,64.202361 c 0,0 1.07062,-0.853334 1.70667,-0.853334 0.63603,0 1.70666,0.853334 1.70666,0.853334 0,0 -1.07063,0.853333 -1.70666,0.853333 -0.63605,0 -1.70667,-0.853333 -1.70667,-0.853333 z" style="fill:none;stroke:#000000;stroke-width:0.426667;stroke-linecap:butt;stroke-linejoin:miter;stroke-miterlimit:4;stroke-dasharray:none;stroke-opacity:1"/>
          <path style="fill:#ffffff;fill-opacity:1;stroke:#000000;stroke-width:0.341333;stroke-linecap:round;stroke-linejoin:miter;stroke-miterlimit:4;stroke-dashoffset:0;stroke-opacity:1" d="m 131.48596,64.202359 c 0,0.377027 -0.30564,0.682667 -0.68266,0.682667 -0.37703,0 -0.68267,-0.30564 -0.68267,-0.682667 0,-0.377026 0.30564,-0.682666 0.68267,-0.682666 0.37702,0 0.68266,0.30564 0.68266,0.682666 z"/>
        </g>
        <path style="fill:none;stroke:#000000;stroke-width:0.853333px;stroke-linecap:butt;stroke-linejoin:miter;stroke-opacity:1" d="m 202.83773,202.25078 5.60297,-5.17196 3.879,-0.53876"/>
        <path style="fill:none;stroke:#000000;stroke-width:0.853333px;stroke-linecap:butt;stroke-linejoin:miter;stroke-opacity:1" d="m 201.76023,194.27732 c 2.09298,0.32869 2.84909,1.54861 0.6465,4.74098"/>
        <path style="fill:#ffffff;stroke:#000000;stroke-width:1.51703;stroke-linecap:butt;stroke-linejoin:miter;stroke-miterlimit:4;stroke-dasharray:none;stroke-opacity:1" d="m 230.74489,154.19446 -24.82656,-24.88698 -6.52859,-3.7744 3.75537,6.2604 24.25952,26.06448 z"/>
        <path style="fill:#ffffff;stroke:#000000;stroke-width:1.51703;stroke-linecap:butt;stroke-linejoin:miter;stroke-miterlimit:4;stroke-dasharray:none;stroke-opacity:1" d="m 245.61431,153.33247 c 0,0 -3.46395,-3.94526 -3.12473,-6.24947 0.50329,-3.41861 7.11148,-7.54248 7.11148,-7.54248 0,0 -0.033,5.57241 -0.86201,8.18898 -0.44794,1.41395 -0.40387,3.64267 -1.17674,4.82623 -0.34144,0.52289 -1.948,0.77674 -1.948,0.77674 z"/>
      </g>
    </g></svg>
