<svg xmlns="http://www.w3.org/2000/svg" width="64" height="64" viewBox="13.014841564096471 156.68182426396766 26.12468255374438 26.12468255374438"><defs>
    <filter style="color-interpolation-filters:sRGB" x="-0.1940961" y="-0.046480109" width="1.3881922" height="1.0929602">
      <feGaussianBlur stdDeviation="3.4637856"/>
    </filter>
  </defs><g transform="matrix(0.02714021,0,0,0.02714021,6.7958663,179.14674)">
      <path style="fill:#000000;fill-opacity:1;stroke:#000000;stroke-width:4.84873;stroke-linecap:square;stroke-linejoin:miter;stroke-miterlimit:4;stroke-dasharray:none;stroke-dashoffset:0;stroke-opacity:1" d="m 421.52083,-767.53075 c -9.51694,0.96028 -16.3515,9.09059 -17.67767,18.27745 -11.35703,43.09053 -17.88254,87.69126 -17.66189,132.2983 0.39475,39.09022 7.70582,78.51259 25.01706,113.76855 -0.20856,4.36982 -6.14453,6.76755 -8.28678,10.43899 -19.25922,21.14416 -37.10298,43.58955 -54.09243,66.44097 -6.66189,9.58147 -15.36944,18.18291 -20.07449,28.90195 -1.99588,11.48286 7.86465,24.01473 20.07678,22.12865 4.52021,0.31489 9.93787,-0.73848 14.04744,0.72605 -9.96457,20.91774 -24.00937,40.57665 -28.47368,63.67118 -1.07872,11.80447 11.51965,21.40333 22.78911,18.49347 12.85555,-0.48189 25.86125,-3.49871 38.60923,-2.80454 -7.98084,18.03934 -18.8411,36.50548 -18.46686,56.91578 0.69421,10.3689 10.52817,17.66269 20.61343,17.10946 37.25213,0.36034 74.07123,10.27589 107.92849,25.44322 14.85298,7.99367 31.97732,16.60195 38.41736,33.1772 6.70509,26.24754 9.56625,53.33443 14.83661,79.89675 3.66739,27.969184 9.6506,55.684962 17.94757,82.64976173 C 581.17985,14.457805 589.2698,27.395082 600.6335,37.24516 c 9.88863,9.271534 22.39127,15.44301 34.62929,21.118502 24.80294,11.105283 52.0943,16.411766 79.20228,16.320277 38.45361,-2.376667 78.57518,-12.856858 107.48639,-39.561786 14.71235,-13.324963 21.54973,-32.4863244 26.01932,-51.317831 12.31518,-47.609701 18.42687,-96.522362 28.2134,-144.643762 6.8924,-18.46882 25.54986,-28.41134 42.33687,-36.62342 27.11734,-11.88684 56.21084,-19.36671 85.56625,-22.95933 11.485,-1.99488 26.6041,2.82453 34.984,-7.5924 5.6422,-6.88576 3.0953,-17.02572 2.2412,-25.25381 -3.0857,-15.17792 -10.7609,-28.83519 -17.4882,-42.61581 16.3907,0.62118 32.7267,4.24493 49.1187,3.34613 10.7925,-2.59783 16.4545,-15.03107 12.3743,-25.15911 -5.1656,-19.91646 -15.4536,-38.25263 -23.1072,-57.01049 8.7166,-1.36991 19.8132,1.5862 25.7904,-6.97636 6.6589,-7.17468 5.3745,-18.97251 -1.4836,-25.72732 -23.5488,-32.40692 -49.106,-63.5393 -75.9193,-93.15501 -3.0459,-4.93454 3.1408,-10.20548 4.1902,-14.94253 12.6357,-30.42601 18.9021,-63.39663 18.6906,-96.3311 1.7943,-42.73253 -4.6472,-85.36262 -14.0344,-126.93437 -2.9122,-10.71112 -5.0592,-25.40535 -17.9378,-28.31443 -11.92442,-2.31441 -20.70626,8.45516 -30.40937,13.44003 -41.55303,27.55285 -83.68457,54.21782 -125.91171,80.66199 -5.04741,3.56031 -11.25192,-1.58584 -16.63663,-1.92098 -74.39925,-20.0713 -153.84412,-21.09969 -228.55736,-2.01218 -9.60625,1.61924 -20.45185,8.63832 -29.31497,1.12367 -23.62387,-15.47335 -48.19588,-29.34463 -71.25646,-45.69762 -23.93871,-14.67731 -46.67697,-31.40903 -71.30131,-44.90043 -2.05244,-0.98123 -4.34291,-1.30767 -6.59756,-1.13643 z m 11.17481,67.80649 c 10.87856,15.04181 21.31424,31.08424 30.20987,47.50874 11.64267,21.6226 23.38699,43.4723 31.63041,66.7332 -18.47025,17.88964 -36.00994,37.37206 -55.24272,54.1063 -4.66946,-5.57982 -5.32765,-14.07918 -7.80903,-20.92497 -6.31664,-24.05704 -7.94969,-49.13451 -8.35341,-73.9031 1.28119,-23.98142 2.37516,-48.32662 8.42846,-71.6577 0.33935,-0.67737 0.4639,-1.52293 1.13642,-1.86247 z m 555.5839,0.69448 c 3.65329,10.63082 4.8795,22.77132 6.37659,34.15579 3.90021,39.20419 3.50142,79.56367 -7.07107,117.7459 -1.93199,5.03565 -3.13989,11.99202 -6.34502,15.78364 -18.94089,-17.69852 -37.16331,-36.15852 -55.71623,-54.26414 15.78082,-39.91503 37.24131,-77.74641 61.74558,-112.66357 0.31334,-0.36996 0.58268,-0.56151 1.01015,-0.75762 z m -498.25774,15.7205 c 23.07325,13.89278 45.08392,29.62151 68.50097,42.93149 6.562,5.93367 15.64792,9.07635 24.24366,5.83994 20.73891,-5.09165 41.4361,-10.51866 62.73053,-12.72399 39.20763,-6.4516 79.41878,-8.28569 118.73939,-1.62157 22.71027,3.09533 45.4289,6.35158 67.46772,12.86306 8.85048,2.66232 19.21776,4.553 26.99184,-1.92677 19.88388,-11.435 39.03275,-24.0481 58.00392,-36.8636 4.50293,-2.4515 10.31631,-6.99506 14.34826,-8.21445 -13.94277,25.33931 -28.29804,50.6494 -38.74068,77.73632 -3.26083,10.04296 -10.61254,21.73176 -5.10626,32.1809 19.0005,21.04994 40.67248,39.53669 60.24514,60.06572 28.72262,29.42865 58.01461,58.77995 81.89751,92.29554 0.8296,1.78865 5.9571,6.65429 1.0465,6.64307 -12.0215,-0.5364 -25.463,11.71231 -19.7296,24.14895 7.7098,19.5107 18.9206,37.94918 26.8638,57.04206 -12.4961,0.15991 -25.0886,-2.29673 -37.56507,-3.5671 -15.03639,-20.76801 -32.93506,-39.47593 -51.29681,-57.35773 -21.18759,-17.25407 -43.76197,-34.11653 -70.34877,-42.25502 -18.9324,-6.63908 -39.5933,-5.24844 -59.22046,-3.34751 -27.65437,5.33779 -53.06187,19.56756 -72.89871,39.43093 -15.13478,13.43395 -24.21481,32.14595 -35.23358,48.62958 -1.93249,2.65247 -2.69372,-0.37053 -2.80949,-2.20971 -10.06853,-21.59569 -24.45188,-41.28531 -43.35459,-55.9904 -20.58662,-16.12724 -45.42905,-28.40342 -71.73966,-30.81959 -19.62045,-1.21983 -39.89303,-1.02439 -58.24161,6.9448 -42.38507,16.61662 -75.36977,49.82336 -104.0856,84.1194 -5.09013,4.5707 -6.95379,13.66421 -15.0177,13.51816 -10.38612,0.86653 -21.02635,3.34512 -31.31473,2.84105 7.88967,-19.87018 19.80067,-38.57979 26.83218,-58.96765 3.01617,-11.7136 -7.76029,-22.16096 -19.16133,-21.97082 -2.38774,7.1e-4 -5.42102,-1.0849 -2.43068,-3.4724 29.82739,-45.01753 70.02035,-81.81872 108.08915,-119.76311 12.15555,-12.74117 26.9114,-23.46638 36.67833,-38.23106 4.11908,-9.13336 -2.95158,-18.45336 -5.18897,-27.17654 -10.72438,-27.95371 -24.34294,-54.66834 -39.22617,-80.59411 l -0.0316,-0.18941 0.0631,0.0316 z m 87.09409,279.21248 c 31.92754,-1.26413 63.7263,14.46332 81.75922,40.72177 15.2025,21.19793 26.24549,45.31507 31.56727,70.90009 1.11612,9.80149 6.00175,21.93887 17.61453,21.97081 10.00403,1.81829 18.8219,-5.81427 20.32932,-15.46796 7.78218,-36.20549 24.0549,-72.26015 52.55124,-96.73152 21.50429,-18.40758 51.90908,-24.82054 79.49464,-19.84639 38.36521,10.9608 68.17415,39.3345 94.16516,68.31156 17.40916,23.67802 37.38369,47.72337 44.1626,76.961 -10.30045,2.53547 -21.39512,2.81323 -31.78823,5.65054 -35.70301,8.50764 -72.13913,20.19831 -101.01526,43.62596 -15.2496,12.65158 -25.91844,30.66841 -28.2686,50.48238 -9.30622,49.25507 -16.01444,99.189703 -29.97677,147.424113 -6.52249,19.8883479 -26.65106,30.804006 -44.98332,38.084448 -25.41351,9.430744 -53.51074,11.363984 -80.14556,6.792912 C 658.42904,29.875178 632.67735,20.574612 617.52199,0.21675569 609.33137,-12.303691 609.50083,-27.873081 605.23546,-41.833248 c -9.09354,-41.454741 -15.68422,-83.403832 -23.47918,-125.098672 -6.38939,-27.94785 -30.75433,-46.80948 -54.89472,-59.44591 -32.44421,-16.58935 -68.24045,-25.43258 -104.10961,-30.67864 -3.00996,-0.59357 1.30577,-5.02464 0.82075,-6.88167 10.21875,-31.36114 31.38964,-57.64244 53.34868,-81.63295 22.78472,-23.17055 47.6243,-46.43027 79.48638,-55.93719 6.73683,-1.86055 13.73536,-2.5595 20.70813,-2.58852 z"/>
      <path style="fill:#000000;fill-opacity:1;stroke:#000000;stroke-width:4.84873;stroke-linecap:square;stroke-linejoin:miter;stroke-miterlimit:4;stroke-dasharray:none;stroke-dashoffset:0;stroke-opacity:1" d="m 841.49175,-306.30141 c -19.09711,4.47167 -39.50798,7.82205 -55.87406,19.25604 -10.20717,7.31902 -6.8253,21.35043 -7.36905,32.10331 0.69398,13.12487 2.18848,26.72666 6.4536,39.08087 20.78518,-18.50748 34.95911,-43.49623 47.95067,-67.93276 3.31671,-7.39954 7.93885,-15.08093 9.88056,-22.63373 h -0.22097 z"/>
      <path style="fill:#000000;fill-opacity:1;stroke:#000000;stroke-width:4.84873;stroke-linecap:square;stroke-linejoin:miter;stroke-miterlimit:4;stroke-dasharray:none;stroke-dashoffset:0;stroke-opacity:1" d="m 577.84193,-306.49081 c -0.89789,2.80646 2.7915,6.54771 3.4724,9.50175 13.82928,29.60097 30.78504,58.8382 55.11645,80.84377 3.72771,-20.64418 9.70598,-42.38666 4.04061,-63.22924 -5.00673,-11.54529 -18.91038,-14.51572 -29.45505,-19.15799 -10.87693,-3.11703 -22.08684,-5.83377 -33.17441,-7.95829 z"/>
      <path style="fill:#000000;fill-opacity:1;stroke:#000000;stroke-width:4.84873;stroke-linecap:square;stroke-linejoin:miter;stroke-miterlimit:4;stroke-dasharray:none;stroke-dashoffset:0;stroke-opacity:1" d="m 708.71982,-58.024852 c -25.0566,-0.179025 -50.21673,5.482924 -72.25747,17.519833 -3.46126,2.499164 1.95151,7.315795 2.27284,10.322497 10.6043,23.6979348 32.5962,43.355354 58.99922,46.498584 25.61688,4.453228 53.08109,-4.74427 70.14247,-24.4961993 8.08283,-8.7961717 15.13435,-19.5029337 17.89864,-31.1253257 -14.60119,-9.449278 -32.38381,-14.159513 -49.59217,-16.920055 -9.08609,-1.338012 -18.28152,-1.920673 -27.46353,-1.799334 z"/>
      <path style="fill:#999999;fill-opacity:1;stroke:#000000;stroke-width:1;stroke-linecap:square;stroke-linejoin:miter;stroke-miterlimit:4;stroke-dasharray:none;stroke-dashoffset:0;stroke-opacity:1" d="m 987.13787,-693.02512 c -4.60071,5.34377 -8.05647,11.62644 -12.04241,17.4442 -18.17536,28.26965 -34.04963,58.1057 -46.54018,89.30804 16.5945,16.52104 33.37864,32.92167 50.25181,49.17022 0.58774,0.62727 2.14259,2.07587 2.51605,0.48379 9.78038,-26.30252 12.63548,-54.65322 12.99107,-82.5558 0.10774,-24.18763 -1.57204,-48.48171 -6.40818,-72.20914 -0.23375,-0.41746 -0.18256,-1.55647 -0.76816,-1.64131 z"/>
      <path style="fill:#5e361a;fill-opacity:1;stroke:#000000;stroke-width:1;stroke-linecap:square;stroke-linejoin:miter;stroke-miterlimit:4;stroke-dasharray:none;stroke-dashoffset:0;stroke-opacity:1" d="m 923.66597,-675.96313 c -19.40109,12.06374 -38.13487,25.27953 -57.83749,36.92089 -6.54995,3.90113 -13.36495,8.80648 -21.44372,7.90463 -11.78133,-1.05892 -22.91559,-5.53032 -34.52332,-7.61915 -21.84204,-4.42671 -43.94647,-7.52311 -66.06578,-10.18479 -20.00379,-1.48806 -40.14366,-1.65648 -60.16413,-0.36313 -18.3098,1.5304 -36.51923,4.17437 -54.66066,7.03434 -16.70843,2.91479 -33.06089,7.49474 -49.61938,11.06508 -8.04204,1.62536 -15.81432,-2.00045 -22.07103,-6.65618 -19.43372,-11.84034 -38.49034,-24.28262 -57.75231,-36.39706 -0.62692,-0.55916 -2.82045,-1.62405 -1.48367,0.15784 15.00796,26.93846 28.11782,55.00609 38.3858,84.0952 2.06748,6.02444 2.73798,13.33126 -1.6415,18.49842 -10.98074,14.70161 -25.5852,26.10224 -38.24793,39.26173 -21.28189,21.26314 -42.92547,42.18958 -63.39867,64.24733 -14.40493,16.1875 -28.58314,32.78712 -40.45345,50.91801 -0.01,1.79708 3.1255,0.39625 4.16688,1.16799 9.08443,2.04393 17.56992,10.03096 17.17259,19.84002 0.0837,7.55926 -4.32115,14.18749 -6.97763,21.02748 -5.89019,13.05817 -12.71135,25.73112 -18.3551,38.87141 0.70551,1.45299 3.40644,0.0675 4.748,0.30922 8.29524,-1.09933 16.78015,-1.38798 24.90945,-3.41859 4.62012,-2.12754 6.33404,-7.63116 9.89634,-11.04855 25.04691,-29.72686 52.68003,-58.67871 87.42541,-76.96322 16.35412,-8.6831 34.1553,-15.61904 52.90573,-15.92416 18.70538,-0.64651 37.87648,0.47233 55.43326,7.51371 35.09381,13.3295 65.42138,39.58435 82.44873,73.16395 1.35143,2.18821 2.27831,5.20533 3.98245,6.90642 10.74835,-16.09688 20.00037,-33.65078 34.62904,-46.73953 21.0741,-20.45308 47.88626,-35.95182 77.29271,-39.88105 16.33776,-1.60746 33.10317,-1.99227 49.21358,1.57655 19.85876,5.16938 38.2357,14.75382 54.85726,26.63432 17.01046,11.58407 32.28664,25.51242 46.02669,40.80342 9.97606,10.68573 19.36902,21.90491 28.43118,33.35836 3.0675,2.37635 7.4974,1.43378 11.1116,2.35176 6.908,0.56801 13.9443,1.98173 20.8344,1.45209 0.049,-2.3471 -2.1802,-4.67459 -2.9007,-6.97606 -7.4215,-15.79019 -15.7252,-31.21104 -22.211,-47.41434 -1.2691,-5.70952 -0.9233,-12.30056 3.2212,-16.77657 4.3286,-5.58745 11.1958,-8.3874 17.771,-9.88198 -26.6366,-37.51265 -59.5178,-69.92209 -91.72697,-102.55064 -17.06531,-17.48911 -35.41226,-33.64163 -51.61998,-51.89222 -2.58771,-3.70809 -2.82622,-8.84495 -2.39911,-13.25825 2.57702,-12.16689 7.94701,-23.55095 12.59855,-35.02882 8.42613,-19.0766 18.59842,-37.34013 28.28109,-55.77442 0.0843,-0.13528 0.0191,-0.42257 -0.18941,-0.33146 z"/>
      <path style="fill:#999999;fill-opacity:1;stroke:#000000;stroke-width:1;stroke-linecap:square;stroke-linejoin:miter;stroke-miterlimit:4;stroke-dasharray:none;stroke-dashoffset:0;stroke-opacity:1" d="m 433.36315,-693.6408 c -2.43627,8.71706 -3.53604,17.96398 -4.75087,26.99001 -3.62189,33.20119 -3.63076,67.03365 2.30453,99.97138 2.32475,10.57439 4.65722,21.24878 8.61774,31.34845 9.27283,-7.51103 17.54513,-16.63596 26.21673,-24.98166 8.51588,-8.65424 17.39004,-17.01989 25.49046,-26.03104 -3.71072,-11.54913 -9.2769,-22.4679 -14.39439,-33.46302 -12.58016,-25.61623 -26.43857,-50.6125 -43.15274,-73.77099 -0.10084,-0.0491 -0.21593,-0.11966 -0.33146,-0.0631 z"/>
      <path style="fill:#856b58;fill-opacity:1;stroke:#000000;stroke-width:1;stroke-linecap:square;stroke-linejoin:miter;stroke-miterlimit:4;stroke-dasharray:none;stroke-dashoffset:0;stroke-opacity:1" d="m 576.53649,-401.58045 c -21.28484,0.0814 -41.05474,10.05631 -57.88994,22.31868 -26.37723,19.69877 -49.2182,43.91237 -68.65147,70.42657 -10.55801,15.16985 -19.9905,31.6347 -24.90255,49.49686 39.44648,6.1808 79.12702,16.34114 113.72108,36.80743 19.45432,12.01509 37.86317,28.71445 44.41514,51.28103 5.09192,23.98869 8.82167,48.26284 13.45434,72.349629 4.24819,22.977622 8.51837,45.963628 13.89893,68.703379 2.51297,12.079884 4.30515,25.5047759 13.90754,34.304639 15.3031,16.338874 37.43273,23.770056 58.87707,28.000388 14.28954,2.875319 29.01194,2.488112 43.47263,1.415441 22.66288,-2.258726 45.35882,-9.693151 63.44557,-23.7933654 8.03007,-6.3050591 13.93386,-15.1577329 16.24045,-25.1532576 8.83717,-31.780319 14.4879,-64.337737 20.45732,-96.748943 3.67163,-19.26066 6.3691,-38.72699 10.81122,-57.82899 5.74382,-21.29064 21.71882,-38.28119 40.06693,-49.78807 27.93183,-17.86835 60.1651,-27.76295 92.2784,-35.14885 8.28366,-1.7855 16.87283,-2.45671 25.05825,-4.44781 -0.87429,-6.69294 -4.23269,-12.91576 -6.79747,-19.12875 -9.17143,-18.41244 -21.39766,-35.14398 -34.00269,-51.34532 -13.79146,-16.82612 -29.54342,-32.06937 -46.79148,-45.33526 -15.29521,-11.37377 -32.31448,-21.29464 -51.12354,-25.33401 -23.38095,-2.96813 -48.43598,1.21501 -67.78481,15.24386 -24.66949,17.89721 -40.6149,45.37027 -50.42929,73.75554 -4.03324,10.66183 -5.76423,22.02776 -9.64053,32.71429 -3.56294,6.34625 -10.47927,11.65676 -18.1354,10.68552 -6.1754,0.77244 -12.35574,-1.81098 -16.04033,-6.83064 -6.39369,-8.11965 -6.35852,-19.07415 -9.52915,-28.57205 -6.11331,-22.42919 -17.13279,-43.36309 -30.90678,-61.99585 -10.04109,-12.55115 -23.02091,-22.77946 -37.973,-28.8074 -12.46006,-5.18094 -26.02206,-7.63412 -39.50644,-7.24469 z m -0.83653,92.19221 c 18.5257,3.65278 37.42136,7.47781 54.32727,16.24136 7.23498,3.60286 13.37441,10.19967 14.04743,18.57733 2.19603,15.23063 0.48179,30.66825 -2.58032,45.65251 -1.2319,5.6864 -1.82009,11.73269 -3.63843,17.18214 -3.19703,-1.60179 -5.58423,-5.10259 -8.36342,-7.49134 -21.86762,-21.63418 -37.10765,-48.6123 -50.25689,-76.10909 -2.10175,-4.43749 -4.93927,-8.97706 -3.53564,-14.05291 z m 269.33192,0.29989 c 2.35381,-0.12681 -0.28201,2.71465 -0.14579,3.78987 -5.45982,15.35747 -13.75573,29.58095 -21.63562,43.75043 -10.6461,18.48891 -23.60838,36.08155 -39.64849,50.06569 -7.53666,-19.96167 -8.31572,-41.77554 -7.51301,-62.91357 0.57031,-7.72932 5.87347,-14.26078 12.65848,-17.59875 16.08118,-9.28429 34.57515,-12.90778 52.53665,-16.68855 1.23888,-0.20609 2.48903,-0.40245 3.74778,-0.40512 z M 709.86085,-60.480341 c 23.39367,-0.04386 47.12428,4.053858 68.36804,14.093875 3.51199,1.983187 7.69661,3.389254 10.31337,6.487983 C 784.32734,-21.947668 772.0499,-6.9223816 757.89044,4.4219598 739.54215,18.171197 715.01602,23.002175 692.67247,17.964317 667.7811,13.236723 647.36788,-5.5970362 636.93562,-28.177552 c -1.48201,-3.885491 -4.83545,-7.94087 -3.70431,-12.289142 2.75278,-3.512502 7.7052,-4.654576 11.55837,-6.824853 20.25275,-9.499187 42.79592,-13.397169 65.07117,-13.188794 z"/>
    </g></svg>
