<svg xmlns="http://www.w3.org/2000/svg" width="64" height="64" viewBox="0 0 64 64" fill="none" style="position: absolute; left: 0px; top: 0px; overflow: hidden;"><g transform="translate(-177.5889663696289 -244.4305419921875)"><g transform="scale(1.2923323144968797)"><g transform="matrix(0.35901408,0,0,0.35901408,119.77835,539.78078)">
      <path style="fill:#4b4bbe;fill-opacity:1;fill-rule:evenodd;stroke:#000000;stroke-width:1;stroke-linecap:butt;stroke-linejoin:miter;stroke-dasharray:none;stroke-opacity:1" d="m 111.39907,-854.06296 c 0,0 0.17979,-9.17219 -3.35176,-12.28978 -5.69444,-5.02696 -17.213815,0.96721 -23.462302,-3.35176 -11.560678,-7.99075 -18.470742,-24.47766 -22.345049,-37.98658 -3.490743,-12.17152 -5.937562,-24.76072 -2.234502,-36.86934 6.409068,-20.95696 57.639073,-23.87444 58.097133,-23.4623 0.45805,-0.41214 51.68806,2.50534 58.09713,23.4623 3.70306,12.10862 1.25624,24.69782 -2.2345,36.86934 -3.87431,13.50892 -10.78437,29.99583 -22.34505,37.98658 -6.24849,4.31897 -17.76786,-1.6752 -23.4623,3.35176 -3.53156,3.11759 -3.35176,12.28978 -3.35176,12.28978"/>
      <ellipse style="fill:#ff961c;fill-opacity:1;stroke:#000000;stroke-width:1;stroke-linecap:round;stroke-linejoin:round;stroke-dasharray:none" cx="118.10259" cy="-851.82843" rx="11.172525" ry="4.4690099"/>
      <path style="fill:#ffffff;fill-rule:evenodd;stroke:#000000;stroke-width:1;stroke-linecap:butt;stroke-linejoin:miter;stroke-dasharray:none;stroke-opacity:1" d="m 134.86137,-927.80163 c 0,0 4.71508,-4.80004 7.82076,-5.58626 2.91071,-0.73687 8.93803,1.11726 8.93803,1.11726 0,0 -4.21759,7.04028 -7.82077,7.82076 -3.10981,0.67361 -8.93802,-3.35176 -8.93802,-3.35176 z"/>
      <path style="fill:#333333;fill-rule:evenodd;stroke:#000000;stroke-width:1;stroke-linecap:butt;stroke-linejoin:miter;stroke-dasharray:none;stroke-opacity:1" d="m 140.44763,-928.91888 c 0,1.34278 0.90362,3.52999 2.2345,3.35176 1.16727,-0.15631 1.11726,-2.17407 1.11726,-3.35176 0,-1.17769 0.05,-3.19544 -1.11726,-3.35175 -1.33088,-0.17824 -2.2345,2.00898 -2.2345,3.35175 z"/>
      <path style="fill:#ffffff;fill-rule:evenodd;stroke:#000000;stroke-width:1;stroke-linecap:butt;stroke-linejoin:miter;stroke-dasharray:none;stroke-opacity:1" d="m 99.109294,-927.80163 c 0,0 -4.715078,-4.80004 -7.820763,-5.58626 -2.910706,-0.73687 -8.938026,1.11726 -8.938026,1.11726 0,0 4.217586,7.04028 7.820771,7.82076 3.109815,0.67361 8.938018,-3.35176 8.938018,-3.35176 z"/>
      <path style="fill:#333333;fill-rule:evenodd;stroke:#000000;stroke-width:1;stroke-linecap:butt;stroke-linejoin:miter;stroke-dasharray:none;stroke-opacity:1" d="m 93.523034,-928.91888 c 0,1.34278 -0.903613,3.52999 -2.234503,3.35176 -1.167269,-0.15631 -1.117255,-2.17407 -1.117255,-3.35176 0,-1.17769 -0.05,-3.19544 1.117255,-3.35175 1.33089,-0.17824 2.234503,2.00898 2.234503,3.35175 z"/>
      <path style="fill:#ff961c;fill-opacity:1;fill-rule:evenodd;stroke:#000000;stroke-width:1;stroke-linecap:butt;stroke-linejoin:miter;stroke-dasharray:none;stroke-opacity:1" d="m 72.295224,-956.85019 c -2.583659,-0.42176 -5.132456,-1.1739 -7.751789,-1.30725 -1.47952,-0.0997 -1.851564,2.03718 -0.612644,2.65265 1.337325,0.57316 2.497466,1.66575 2.506274,3.22593 0.550216,1.28087 -0.617297,1.9926 -1.002043,2.9749 l 0.05405,0.13437 0.102518,0.14021"/>
      <path style="fill:#ff961c;fill-opacity:1;fill-rule:evenodd;stroke:#000000;stroke-width:1;stroke-linecap:butt;stroke-linejoin:miter;stroke-dasharray:none;stroke-opacity:1" d="m 101.3438,-916.6291 c 0.81721,1.18965 0.87987,2.75132 0.94381,4.15456 -0.0906,1.51013 -0.33699,3.14121 -1.40303,4.29704 -0.78458,0.76937 -1.547962,1.99817 -0.86646,3.07814 0.77104,1.34977 2.69255,1.14108 3.85722,0.47669 1.27246,-0.58122 1.71152,-1.97505 1.94834,-3.24498 0.13429,-1.25268 0.73702,-2.32148 1.47017,-3.3204 0.64506,-1.30527 1.07113,-2.88969 0.69047,-4.31949 -0.14108,-0.35119 -0.28448,-0.83443 0.063,-1.12156"/>
      <path style="fill:#ff961c;fill-opacity:1;fill-rule:evenodd;stroke:#000000;stroke-width:1;stroke-linecap:butt;stroke-linejoin:miter;stroke-dasharray:none;stroke-opacity:1" d="m 131.50961,-917.74636 c 0.37701,2.0142 0.0404,4.21726 1.15629,6.03981 0.56778,1.11292 0.94347,1.82607 1.33301,2.75344 0.86548,1.43602 1.99574,2.98334 3.73203,3.35286 0.84113,-0.0421 2.32913,0.26683 2.4783,-0.90162 0.12723,-1.46771 -1.38166,-2.33533 -1.67022,-3.69176 -0.96788,-1.31932 -1.27637,-2.98299 -1.36877,-4.58298 -0.002,-0.83089 0.0293,-1.67556 0.37847,-2.44981 0.30419,-0.0117 0.32116,-0.53057 0.66442,-0.51992"/>
      <path style="fill:#ff961c;fill-opacity:1;fill-rule:evenodd;stroke:#000000;stroke-width:1;stroke-linecap:butt;stroke-linejoin:miter;stroke-dasharray:none;stroke-opacity:1" d="m 165.02719,-954.61569 c 0.5881,-0.53545 1.34249,-0.98267 1.58779,-1.78819 0.35287,-0.58057 0.48626,-1.22733 0.5914,-1.89165 0.081,-0.63505 0.36098,-1.16629 0.93783,-1.49064 0.57286,-0.53607 1.28928,-0.81057 2.07148,-0.81786 0.83422,-0.0472 1.24397,0.93726 1.20161,1.63875 -0.006,0.77432 0.0115,1.54856 0.0128,2.32287 -0.0784,0.37592 -0.14437,-0.14052 -0.18177,0.27502 8.5e-4,0.51127 -0.1579,0.98157 -0.15283,1.48521 -0.0985,0.51115 -0.28546,1.0039 -0.16736,1.53165 -0.23779,0.48369 -0.098,1.06234 -0.12676,1.60617 0.18578,0.36749 0.59935,1.43228 0.8165,0.68824 0.037,-0.0696 0.0736,-0.13939 0.11281,-0.20783"/>
      <path style="fill:#ff961c;fill-opacity:1;fill-rule:evenodd;stroke:#000000;stroke-width:1;stroke-linecap:butt;stroke-linejoin:miter;stroke-dasharray:none;stroke-opacity:1" d="m 76.764237,-908.80834 c 1.157168,0.3041 0.227856,1.74543 0.430917,2.55962 0.119155,1.02564 -0.379721,1.96724 -0.339943,2.98285 -0.08782,0.96197 0.06858,1.89175 0.571979,2.72031 0.314827,0.73276 1.192926,1.48459 1.977645,0.89657 0.917767,-0.52383 1.263073,-1.57806 1.072495,-2.58928 0.02238,-1.26309 -0.05658,-2.54258 0.03353,-3.79684 0.183214,-0.36726 -0.0059,-2.47137 0.722206,-1.65603"/>
      <path style="fill:#ff961c;fill-opacity:1;fill-rule:evenodd;stroke:#000000;stroke-width:1;stroke-linecap:butt;stroke-linejoin:miter;stroke-dasharray:none;stroke-opacity:1" d="m 159.44092,-909.92559 c 0.28199,3.2047 0.27444,6.45499 0.95262,9.61034 0.32853,0.95435 1.51534,0.80587 2.0003,0.0694 1.01985,-0.95051 0.96319,-2.43965 1.39839,-3.66912 0.10704,-1.0902 -0.14695,-2.21392 0.21408,-3.26559 -0.0351,-0.9071 0.0779,-1.79881 0.25081,-2.66681 -0.0586,-0.12213 -0.24858,-0.10641 -0.34723,-0.0786"/>
      <path style="fill:#ff961c;fill-opacity:1;fill-rule:evenodd;stroke:#000000;stroke-width:1;stroke-linecap:butt;stroke-linejoin:miter;stroke-dasharray:none;stroke-opacity:1" d="m 99.109285,-959.0847 c -1.099748,-1.73712 -2.437512,-3.33849 -3.301567,-5.21473 -0.198128,-0.65248 0.487239,-1.27194 1.126816,-1.13025 0.747196,-0.0666 1.472231,0.22315 1.994848,0.76377 0.491799,0.38435 0.762617,0.94796 1.108858,1.44753 0.54499,0.70702 1.05481,1.44092 1.61334,2.1377 0.17131,0.31223 1.04105,0.53792 0.80941,0.87902"/>
      <path style="fill:#ff961c;fill-opacity:1;fill-rule:evenodd;stroke:#000000;stroke-width:1;stroke-linecap:butt;stroke-linejoin:miter;stroke-dasharray:none;stroke-opacity:1" d="m 132.62686,-961.31921 c 1.42542,-0.90191 2.97052,-1.61769 4.35819,-2.57226 1.23284,-1.05871 2.2651,-2.43328 3.78874,-3.09424 0.89952,-0.29761 1.7119,0.59761 1.67839,1.46441 0.24852,0.7934 -0.361,1.29232 -0.8164,1.82266 -0.72585,0.57446 -1.5172,1.12418 -2.38243,1.44098 -0.68124,0.42949 -1.51809,0.6198 -2.09609,1.20439 -0.22917,0.24602 -0.7601,0.78906 -0.0614,0.85132"/>
      <path style="fill:#ff961c;fill-opacity:1;fill-rule:evenodd;stroke:#000000;stroke-width:1;stroke-linecap:butt;stroke-linejoin:miter;stroke-dasharray:none;stroke-opacity:1" d="m 166.14445,-936.73965 c 1.38034,0.0178 2.76863,-0.10307 4.14331,0.0481 0.46122,0.13791 0.97852,0.0879 1.38019,0.36623 0.40774,0.23439 0.69143,0.62418 0.71509,1.12071 0.19449,0.6489 -0.63485,0.48126 -0.98845,0.57976 -0.5145,0.0943 -0.96279,0.35755 -1.45722,0.49076 -0.49058,0.14053 -0.76307,0.59316 -1.29596,0.59508 -0.31619,0.33611 -0.79772,0.14458 -1.19199,0.40695 -0.27751,0.0353 -0.81979,0.26654 -0.88101,0.21276 -0.0223,-0.22828 -0.31841,-0.2882 -0.42392,-0.46844"/>
      <path style="fill:#ff961c;fill-opacity:1;fill-rule:evenodd;stroke:#000000;stroke-width:1;stroke-linecap:butt;stroke-linejoin:miter;stroke-dasharray:none;stroke-opacity:1" d="m 70.060722,-936.73965 c -1.380338,0.0178 -2.768622,-0.10307 -4.143309,0.0481 -0.461219,0.13791 -0.978515,0.0879 -1.380185,0.36623 -0.407743,0.23439 -0.691431,0.62418 -0.715095,1.12071 -0.194489,0.6489 0.634855,0.48126 0.988455,0.57976 0.5145,0.0943 0.962789,0.35755 1.457215,0.49076 0.490583,0.14053 0.763073,0.59316 1.29596,0.59508 0.316194,0.33611 0.797724,0.14458 1.191996,0.40695 0.277507,0.0353 0.819784,0.26654 0.881005,0.21276 0.0223,-0.22828 0.318416,-0.2882 0.423924,-0.46844"/>
      <path style="fill:none;fill-rule:evenodd;stroke:#000000;stroke-width:1;stroke-linecap:butt;stroke-linejoin:miter;stroke-dasharray:none;stroke-opacity:1" d="m 97.992038,-943.44316 6.703512,4.46901"/>
      <path style="fill:none;fill-rule:evenodd;stroke:#000000;stroke-width:1;stroke-linecap:butt;stroke-linejoin:miter;stroke-dasharray:none;stroke-opacity:1" d="m 128.15786,-937.8569 10.05527,-4.46901"/>
    </g></g></g></svg>
