<svg xmlns="http://www.w3.org/2000/svg" width="64" height="64" viewBox="0 0 64 64" fill="none" style="position: absolute; left: 0px; top: 0px; overflow: hidden;"><g transform="translate(-54.96260643005371 -104.70261764526367)"><g transform="scale(0.8680933652878667)"><g transform="matrix(0.33719738,0,0,0.33719738,49.322978,158.3662)" style="stroke-width:1.0647;stroke-dasharray:none">
      <path style="fill:#5f805f;fill-opacity:1;fill-rule:evenodd;stroke:#000000;stroke-width:1.0647;stroke-linecap:butt;stroke-linejoin:miter;stroke-dasharray:none;stroke-opacity:1" d="m 168.01042,50.270832 c 4.04129,0.443621 8.47663,0.462598 11.90625,2.645833 6.10116,3.883892 6.01188,16.729204 13.22916,17.197916 1.24464,0.08083 2.35928,-1.431939 2.64584,-2.645833 0.96116,-4.071518 -3.85268,-7.724431 -3.96875,-11.90625 -0.1395,-5.025921 1.92412,-9.958735 3.96875,-14.552083 2.98457,-6.704981 9.72832,-11.512189 11.90625,-18.520833 4.18953,-13.4820527 4.56006,-28.5914713 1.32291,-42.333333 -1.49289,-6.33741 -4.2607,-13.027256 -9.26041,-17.197916 -13.17153,-10.987429 -31.79529,-15.875 -48.94792,-15.874999 -17.15263,0 -35.77639,4.887572 -48.94792,15.875 -4.999711,4.17066 -7.767519,10.860505 -9.260414,17.197916 -3.237151,13.7418617 -2.866615,28.8512804 1.322916,42.333333 2.177927,7.008643 8.921678,11.815852 11.906248,18.520833 2.04463,4.593348 4.10825,9.526162 3.96875,14.552083 -0.11607,4.181819 -4.92991,7.834732 -3.96875,11.90625 0.28656,1.213894 1.4012,2.726664 2.64584,2.645833 7.21728,-0.468712 7.128,-13.314024 13.22916,-17.197916 3.42962,-2.183235 7.86496,-2.202212 11.90625,-2.645833 5.69841,-0.625527 11.46528,0 17.19792,-1e-6 5.73264,0 11.49951,-0.625527 17.19792,0 z"/>
      <path style="fill:#e0e19a;fill-opacity:1;fill-rule:evenodd;stroke:#000000;stroke-width:1.0647;stroke-linecap:butt;stroke-linejoin:miter;stroke-dasharray:none;stroke-opacity:1" d="M 148.16666,0 C 139.17621,-6.9951618 127.99742,-2.3470229 115.09375,-2.6458333 95.232956,-3.1057499 72.77641,-4.4254988 59.53125,6.6145833 53.285314,11.820685 55.5625,30.427083 55.5625,30.427083 c 0,0 3.11368,-14.242645 9.260416,-15.874999 3.812044,-1.012344 11.90625,3.968749 11.90625,3.968749 0,0 1.274564,-4.77359 3.968751,-6.614583 1.890339,-1.291708 5.00267,0.215864 6.614583,0 2.167593,-0.29028 6.557114,-1.032721 9.260417,0 2.855551,1.090883 3.968753,5.291667 3.968753,5.291667 0,0 2.18,-7.2822809 5.29166,-7.9375003 8.90315,-1.8747282 17.3997,1.5602723 25.13541,5.2916673 3.37019,1.625644 5.47996,6.927463 9.26042,6.614582 3.72902,-0.308624 6.50559,-4.480551 7.9375,-7.937499 1.35002,-3.2592418 0,-7.0555558 0,-10.5833337 0,-0.8819444 0.69607,-2.10424675 0,-2.6458333 z"/>
      <path style="fill:#e0e19a;fill-opacity:1;fill-rule:evenodd;stroke:#000000;stroke-width:1.0647;stroke-linecap:butt;stroke-linejoin:miter;stroke-dasharray:none;stroke-opacity:1" d="m 153.45833,0 c 8.99045,-6.9951618 20.16924,-2.3470229 33.07291,-2.6458333 19.8608,-0.4599166 42.31734,-1.7796655 55.5625,9.2604166 6.24594,5.2061017 3.96875,23.8124997 3.96875,23.8124997 0,0 -3.11368,-14.242645 -9.26041,-15.874999 -3.81205,-1.012344 -11.90625,3.968749 -11.90625,3.968749 0,0 -1.27457,-4.77359 -3.96875,-6.614583 -1.89034,-1.291708 -5.00267,0.215864 -6.61459,0 -2.16759,-0.29028 -6.55711,-1.032721 -9.26041,0 -2.85555,1.090883 -3.96876,5.291667 -3.96876,5.291667 0,0 -2.18,-7.2822809 -5.29166,-7.9375003 -8.90315,-1.8747282 -17.3997,1.5602723 -25.13541,5.2916673 -3.37019,1.625644 -5.47996,6.927463 -9.26042,6.614582 -3.72902,-0.308624 -6.50559,-4.480551 -7.9375,-7.937499 -1.35002,-3.2592418 0,-7.0555558 0,-10.5833337 0,-0.8819444 -0.69607,-2.10424675 0,-2.6458333 z"/>
      <path style="fill:#8e5027;fill-opacity:1;fill-rule:evenodd;stroke:#000000;stroke-width:1.0647;stroke-linecap:butt;stroke-linejoin:miter;stroke-dasharray:none;stroke-opacity:1" d="m 138.90625,-29.104166 c 0,0 -3.65661,-6.103481 -5.29167,-9.260417 -3.35701,-6.481629 -3.10359,-15.922698 -9.26041,-19.84375 -1.11584,-0.710638 -3.03331,-0.935443 -3.96875,0 -0.31181,0.311815 -0.0539,0.885249 0,1.322917 1.11075,9.022762 7.60655,17.42174 6.61458,26.458333 -0.21519,1.960312 -2.64583,6.614583 -2.64583,6.614583 5.53659,22.454518 24.36482,2.668383 14.55208,-5.291666 z"/>
      <path style="fill:#8e5027;fill-opacity:1;fill-rule:evenodd;stroke:#000000;stroke-width:1.0647;stroke-linecap:butt;stroke-linejoin:miter;stroke-dasharray:none;stroke-opacity:1" d="m 161.49063,-29.104166 c 0,0 3.65661,-6.103481 5.29167,-9.260417 3.35701,-6.481629 3.10359,-15.922698 9.26041,-19.84375 1.11584,-0.710638 3.03331,-0.935443 3.96875,0 0.31181,0.311815 0.0539,0.885249 0,1.322917 -1.11075,9.022762 -7.60655,17.42174 -6.61458,26.458333 0.21519,1.960312 2.55104,6.614583 2.55104,6.614583 -10.78557,11.950193 -15.97465,11.036728 -14.45729,-5.291666 z"/>
      <path style="fill:#a05a2c;fill-rule:evenodd;stroke:#000000;stroke-width:1.0647;stroke-linecap:butt;stroke-linejoin:miter;stroke-dasharray:none;stroke-opacity:1" d="M 124.35417,-7.9374999 C 109.26392,-15.433565 96.117134,-29.295554 89.958332,-44.979166 c -0.967099,-2.462753 -1.870887,-6.066613 0,-7.9375 1.247258,-1.247258 3.821481,-0.974606 5.291667,0 C 106.42445,-45.50897 112.1049,-25.48014 127,-23.8125 c 6.67498,0.747325 9.35852,-1.125324 13.22917,-6.614583 8.14773,-11.554904 0.13269,-31.867004 7.93749,-43.656249 0.54432,-0.822196 1.65979,-1.322918 2.64584,-1.322918 0.98605,0 2.10152,0.500722 2.64584,1.322918 7.8048,11.789245 2.64583,31.749999 6.61458,42.333332 2.35839,6.289027 7.93054,9.064096 14.55207,7.9375 14.15362,-2.408116 18.36962,-23.899418 31.75,-29.104166 1.6439,-0.639451 4.04441,-1.247259 5.29167,0 1.87089,1.870887 0.9671,5.474747 0,7.9375 -6.1588,15.683612 -19.30559,29.545601 -34.39584,37.0416661 -7.93799,3.9431868 -17.59489,2.6458331 -26.45832,2.6458333 -8.86343,2e-7 -18.52034,1.297355 -26.45833,-2.6458333 z"/>
      <path style="fill:#800000;fill-rule:evenodd;stroke:#000000;stroke-width:1.0647;stroke-linecap:butt;stroke-linejoin:miter;stroke-dasharray:none;stroke-opacity:1" d="m 142.875,37.041666 c -3.1793,-0.445276 -6.66742,-0.753068 -9.26042,-2.645833 -3.85263,-2.812235 -9.16177,-7.296198 -7.9375,-11.90625 0.25309,-0.953013 1.68617,-1.096371 2.64584,-1.322917 0.85835,-0.202629 1.76611,-0.06252 2.64583,0 3.1103,0.221042 6.14641,1.483557 9.26041,1.322917 3.63152,-0.187337 6.94699,-2.645833 10.58334,-2.645833 3.63635,0 6.95182,2.458496 10.58334,2.645833 3.114,0.16064 6.15011,-1.101875 9.26041,-1.322917 0.87972,-0.06252 1.78748,-0.202629 2.64583,0 0.95967,0.226546 2.39275,0.369904 2.64584,1.322917 1.22427,4.610052 -4.08487,9.094015 -7.9375,11.90625 -2.593,1.892765 -6.08112,2.200557 -9.26042,2.645833 -2.62026,0.36698 -5.29167,0 -7.9375,0 -2.64583,0 -5.31724,0.36698 -7.9375,0 z"/>
      <ellipse style="fill:#ff961c;fill-opacity:1;stroke:#000000;stroke-width:1.0647;stroke-linecap:round;stroke-linejoin:round;stroke-dasharray:none" cx="130.3073" cy="24.473959" rx="3.3072915" ry="1.984375"/>
      <ellipse style="fill:#ff961c;fill-opacity:1;stroke:#000000;stroke-width:1.0647;stroke-linecap:round;stroke-linejoin:round;stroke-dasharray:none" cx="137.58333" cy="25.796875" rx="2.6458333" ry="3.3072915"/>
      <circle style="fill:#ff961c;fill-opacity:1;stroke:#000000;stroke-width:1.0647;stroke-linecap:round;stroke-linejoin:round;stroke-dasharray:none" cx="132.95312" cy="29.765625" r="1.984375"/>
      <ellipse style="fill:#ff961c;fill-opacity:1;stroke:#000000;stroke-width:1.0647;stroke-linecap:round;stroke-linejoin:round;stroke-dasharray:none" cx="141.68225" cy="-0.10491941" rx="2.6458333" ry="1.984375" transform="rotate(13.461733)"/>
      <ellipse style="fill:#ff961c;fill-opacity:1;stroke:#000000;stroke-width:1.0647;stroke-linecap:round;stroke-linejoin:round;stroke-dasharray:none" cx="137.95381" cy="56.144386" rx="3.1027071" ry="1.9772156" transform="rotate(-12.990799)"/>
      <ellipse style="fill:#ff961c;fill-opacity:1;stroke:#000000;stroke-width:1.0647;stroke-linecap:round;stroke-linejoin:round;stroke-dasharray:none" cx="125.577" cy="82.431992" rx="3.1331263" ry="2.0684717" transform="rotate(-21.989483)"/>
      <ellipse style="fill:#ff961c;fill-opacity:1;stroke:#000000;stroke-width:1.0647;stroke-linecap:round;stroke-linejoin:round;stroke-dasharray:none" cx="145.11148" cy="34.644245" rx="3.7110815" ry="1.8251221"/>
      <ellipse style="fill:#ff961c;fill-opacity:1;stroke:#000000;stroke-width:1.0647;stroke-linecap:round;stroke-linejoin:round;stroke-dasharray:none" cx="145.00426" cy="4.0826578" rx="1.5209351" ry="3.1027071" transform="rotate(9.7085568)"/>
      <g transform="translate(24.209375)" style="stroke-width:1.0647;stroke-dasharray:none">
        <ellipse style="fill:#ff961c;fill-opacity:1;stroke:#000000;stroke-width:1.0647;stroke-linecap:round;stroke-linejoin:round;stroke-dasharray:none" cx="-147.00623" cy="24.473959" rx="3.3072915" ry="1.984375" transform="scale(-1,1)"/>
        <ellipse style="fill:#ff961c;fill-opacity:1;stroke:#000000;stroke-width:1.0647;stroke-linecap:round;stroke-linejoin:round;stroke-dasharray:none" cx="-139.73019" cy="25.796875" rx="2.6458333" ry="3.3072915" transform="scale(-1,1)"/>
        <circle style="fill:#ff961c;fill-opacity:1;stroke:#000000;stroke-width:1.0647;stroke-linecap:round;stroke-linejoin:round;stroke-dasharray:none" cx="-144.3604" cy="29.765625" r="1.984375" transform="scale(-1,1)"/>
        <ellipse style="fill:#ff961c;fill-opacity:1;stroke:#000000;stroke-width:1.0647;stroke-linecap:round;stroke-linejoin:round;stroke-dasharray:none" cx="-128.01225" cy="64.45253" rx="2.6458333" ry="1.984375" transform="matrix(-0.97252562,0.23279588,0.23279588,0.97252562,0,0)"/>
        <ellipse style="fill:#ff961c;fill-opacity:1;stroke:#000000;stroke-width:1.0647;stroke-linecap:round;stroke-linejoin:round;stroke-dasharray:none" cx="-132.26219" cy="-6.1941905" rx="3.1027071" ry="1.9772156" transform="matrix(-0.97440618,-0.22479458,-0.22479458,0.97440618,0,0)"/>
        <ellipse style="fill:#ff961c;fill-opacity:1;stroke:#000000;stroke-width:1.0647;stroke-linecap:round;stroke-linejoin:round;stroke-dasharray:none" cx="-131.56268" cy="-21.404285" rx="3.1331263" ry="2.0684717" transform="matrix(-0.9272526,-0.3744364,-0.3744364,0.9272526,0,0)"/>
        <ellipse style="fill:#ff961c;fill-opacity:1;stroke:#000000;stroke-width:1.0647;stroke-linecap:round;stroke-linejoin:round;stroke-dasharray:none" cx="-132.20204" cy="34.644245" rx="3.7110815" ry="1.8251221" transform="scale(-1,1)"/>
        <ellipse style="fill:#ff961c;fill-opacity:1;stroke:#000000;stroke-width:1.0647;stroke-linecap:round;stroke-linejoin:round;stroke-dasharray:none" cx="-128.33766" cy="50.847862" rx="1.5209351" ry="3.1027071" transform="matrix(-0.9856783,0.16863659,0.16863659,0.9856783,0,0)"/>
      </g>
      <ellipse style="fill:#ff961c;fill-opacity:1;stroke:#000000;stroke-width:1.0647;stroke-linecap:round;stroke-linejoin:round;stroke-dasharray:none" cx="150.76289" cy="33.420181" rx="1.1740885" ry="1.7694011"/>
      <g style="stroke-width:1.0647;stroke-dasharray:none">
        <ellipse style="fill:#ffffff;fill-opacity:1;stroke:#000000;stroke-width:1.0647;stroke-linecap:round;stroke-linejoin:round;stroke-dasharray:none" cx="106.59377" cy="-11.22532" rx="7.7174077" ry="4.911078"/>
        <ellipse style="fill:#000000;fill-opacity:1;stroke:#000000;stroke-width:1.0647;stroke-linecap:round;stroke-linejoin:round;stroke-dasharray:none" cx="106.61715" cy="-11.014846" rx="2.1749058" ry="2.0813613"/>
      </g>
      <g transform="translate(88.9)" style="stroke-width:1.0647;stroke-dasharray:none">
        <ellipse style="fill:#ffffff;fill-opacity:1;stroke:#000000;stroke-width:1.0647;stroke-linecap:round;stroke-linejoin:round;stroke-dasharray:none" cx="106.59377" cy="-11.22532" rx="7.7174077" ry="4.911078"/>
        <ellipse style="fill:#000000;fill-opacity:1;stroke:#000000;stroke-width:1.0647;stroke-linecap:round;stroke-linejoin:round;stroke-dasharray:none" cx="106.61715" cy="-11.014846" rx="2.1749058" ry="2.0813613"/>
      </g>
    </g></g></g></svg>
