<svg xmlns="http://www.w3.org/2000/svg" width="64" height="64" viewBox="0 0 64 64" fill="none" style="position: absolute; left: 0px; top: 0px; overflow: hidden;"><g transform="translate(-70.75919342041016 -68.8559684753418)"><g transform="scale(1.0306214017037947)"><g transform="matrix(0.33171888,0,0,0.33171888,-147.48872,390.1984)" style="stroke-width:1.08228;stroke-dasharray:none">
      <path style="fill:#006f48;fill-opacity:1;fill-rule:evenodd;stroke:#000000;stroke-width:1.08228;stroke-linecap:butt;stroke-linejoin:miter;stroke-dasharray:none;stroke-opacity:1" d="m 795.03666,-868.01949 c 6.30288,0.11215 10.82616,4.91344 14.75003,9.24082 3.01911,2.61319 5.9355,5.59725 8.9246,7.96334 -3.66626,-5.82206 -2.97388,-13.59254 0.79516,-19.18064 3.16612,-4.53916 -2.01187,-8.92836 -0.89563,-13.78451 -0.6254,-5.7802 1.98185,-11.28206 1.93714,-16.96508 -2.85393,-4.69723 -1.98979,-10.35573 -2.7753,-15.56511 -0.53536,-4.98948 0.41905,-9.80637 3.01241,-14.14 -0.0704,-2.07405 1.99202,-5.70198 -0.10936,-6.74263 l -0.67613,0.7442 c -4.84562,3.53398 -7.47947,9.10551 -11.79549,13.16715 -3.83036,3.10111 -6.25955,7.42557 -9.00509,11.43028 -1.93702,3.32767 -4.88384,5.92064 -6.57138,9.41735"/>
      <path style="fill:#006f48;fill-opacity:1;fill-rule:evenodd;stroke:#000000;stroke-width:1.08228;stroke-linecap:butt;stroke-linejoin:miter;stroke-dasharray:none;stroke-opacity:1" d="m 699.19135,-890.90535 -28.04809,-28.56431 c 1.61543,10.49108 1.30522,20.6594 0.99737,30.70054 -1.61069,6.53645 -0.29439,13.34 -1.49409,19.9494 1.00246,4.73786 -3.89611,9.65269 -0.89592,13.20304 5.64892,3.45696 6.85749,11.13525 5.50966,17.17201 2.54534,-4.79486 6.47049,-8.61674 9.9483,-12.71771 3.63412,-3.59857 6.24544,-9.201 11.57373,-10.49037"/>
      <path style="fill:#008080;fill-rule:evenodd;stroke:#000000;stroke-width:1.08228;stroke-linecap:butt;stroke-linejoin:miter;stroke-dasharray:none;stroke-opacity:1" d="m 792.39302,-903.48166 c -2.58002,-14.92334 -5.05255,-30.4616 -13.19212,-43.53027 -9.82103,-12.95649 -27.55485,-18.62063 -43.2541,-15.19259 -13.07763,-0.20618 -26.47133,9.20191 -28.23709,22.63197 -3.9934,13.26799 -11.83721,25.8024 -11.04758,40.13386 -0.31252,12.69878 -0.61106,25.44416 -1.85533,38.06908 1.19198,10.9959 10.32723,18.48761 20.24848,20.69934 22.77427,17.40578 46.90393,14.55865 66.05435,-4.17707 6.05074,-2.70952 12.50087,-8.53065 13.37264,-15.56182 1.14548,-8.02659 0.35879,-16.18604 0.29137,-24.26182 -0.26388,-6.31517 -0.59882,-12.70807 -2.38062,-18.81068 z"/>
      <path style="fill:#005d5d;fill-opacity:1;fill-rule:evenodd;stroke:#000000;stroke-width:1.08228;stroke-linecap:butt;stroke-linejoin:miter;stroke-dasharray:none;stroke-opacity:1" d="m 720.93741,-845.04759 c -1.48187,1.4288 -2.9685,2.86808 -3.96297,4.6941 -0.96031,1.50046 -1.66589,2.58038 -2.40186,4.0554 -1.17174,2.66266 -2.69122,5.14777 -4.13831,7.65862 -1.31592,2.19052 1.58398,3.41159 2.98829,4.48844 1.8849,0.87695 3.77679,1.70893 5.69477,2.53614 2.569,1.00403 4.7199,2.80025 7.2722,3.84527 2.63977,1.63455 5.71999,2.33152 8.69739,3.04485 0.95723,-0.78743 2.27136,-3.91125 -0.26921,-3.72689 -1.63169,-0.74685 -2.95253,-1.98454 -4.55952,-2.83583 -3.32324,-1.79934 -6.4761,-3.91657 -9.23842,-6.50712 -0.12207,-1.88985 2.19909,-3.06938 3.3348,-4.40826 2.08419,-2.1235 4.44184,-3.96003 6.97648,-5.51067 0.29977,-0.37065 0.48362,-0.83758 0.79117,-1.22553"/>
      <path style="fill:none;fill-rule:evenodd;stroke:#000000;stroke-width:1.08228;stroke-linecap:butt;stroke-linejoin:miter;stroke-dasharray:none;stroke-opacity:1" d="m 722.06498,-946.31119 c 0.46458,2.13852 0.20095,4.3381 0.20442,6.50364 0.33044,0.58782 0.55577,1.04295 0.64169,1.76147 0.49439,0.68264 0.81796,1.45597 0.8828,2.27434 -0.13545,0.85526 0.19627,1.61065 0.41068,2.40242 0.0654,0.85358 0.59455,1.68046 0.8182,2.28149 -0.0881,0.96328 0.19686,2.31913 -0.18547,3.05906 l -0.0955,-0.0312"/>
      <path style="fill:none;fill-rule:evenodd;stroke:#000000;stroke-width:1.08228;stroke-linecap:butt;stroke-linejoin:miter;stroke-dasharray:none;stroke-opacity:1" d="m 742.7497,-950.20479 c -1.01991,0.91264 -2.46396,1.68263 -2.67613,3.17004 -0.12688,0.77996 -0.25784,1.75802 0.4731,2.29502 0.761,0.74083 1.75709,1.32018 2.20303,2.32213 0.0976,0.92922 -0.0678,1.86513 0.0494,2.79645 0.0686,0.51374 -0.0593,2.11064 -0.31884,2.01472 -0.48739,0.91067 -0.17377,1.99506 -0.21725,2.97602"/>
      <path style="fill:#006868;fill-opacity:1;fill-rule:evenodd;stroke:#000000;stroke-width:1.08228;stroke-linecap:butt;stroke-linejoin:miter;stroke-dasharray:none;stroke-opacity:1" d="m 776.17381,-846.94041 c 1.48188,1.4288 2.96851,2.86808 3.96298,4.6941 0.96031,1.50046 1.66589,2.58038 2.40185,4.0554 1.17175,2.66266 2.69123,5.14777 4.13832,7.65862 1.31592,2.19052 -1.58398,3.41159 -2.98829,4.48844 -1.8849,0.87695 -3.77679,1.70893 -5.69477,2.53614 -2.56901,1.00403 -4.7199,2.80025 -7.2722,3.84527 -2.63977,1.63455 -5.71999,2.33152 -8.69739,3.04485 -0.95723,-0.78743 -2.27136,-3.91125 0.26921,-3.72689 1.63169,-0.74685 2.95253,-1.98454 4.55952,-2.83583 3.32324,-1.79934 6.4761,-3.91657 9.23841,-6.50712 0.12208,-1.88985 -2.19908,-3.06938 -3.33479,-4.40826 -2.08419,-2.1235 -4.44184,-3.96003 -6.97648,-5.51067 -0.29977,-0.37065 -0.48362,-0.83758 -0.79117,-1.22553"/>
      <path style="fill:#006868;fill-opacity:1;fill-rule:evenodd;stroke:#000000;stroke-width:1.08228;stroke-linecap:butt;stroke-linejoin:miter;stroke-dasharray:none;stroke-opacity:1" d="m 723.25072,-849.2147 c -0.41244,3.76843 -0.25505,7.58445 -0.50049,11.358 -0.0325,4.40147 0.004,8.78773 0.28957,13.16437 -0.5329,4.38621 0.73377,8.67161 2.72471,12.54428 0.28916,3.417 2.37481,6.49124 5.56646,7.81204 2.98367,1.65926 5.75636,3.84448 9.01326,4.9146 3.94032,0.51172 5.24872,-4.40477 5.09653,-7.48497 -3.29409,-1.12131 -5.16029,-4.58038 -6.59395,-7.50379 -0.42785,-3.46507 2.08896,-6.41008 -0.59539,-9.4402 -1.78777,-3.61424 6.95776,-4.82674 2.59749,-8.362 -0.46611,-3.76823 -1.44533,-8.66635 2.19216,-11.23108 0.3473,-0.3395 0.67195,-0.71201 0.89437,-1.14761"/>
      <path style="fill:#005d5d;fill-opacity:1;fill-rule:evenodd;stroke:#000000;stroke-width:1.08228;stroke-linecap:butt;stroke-linejoin:miter;stroke-dasharray:none;stroke-opacity:1" d="m 772.70366,-849.2147 c 0.41243,3.76843 0.25505,7.58445 0.50049,11.358 0.0325,4.40147 -0.003,8.78773 -0.28957,13.16437 0.53289,4.38621 -0.73378,8.67161 -2.72471,12.54428 -0.28916,3.417 -2.37481,6.49124 -5.56646,7.81204 -2.98367,1.65926 -5.75636,3.84448 -9.01326,4.9146 -3.94032,0.51172 -5.24872,-4.40477 -5.09653,-7.48497 3.29408,-1.12131 5.16028,-4.58038 6.59395,-7.50379 0.42785,-3.46507 -2.08896,-6.41008 0.59539,-9.4402 1.78777,-3.61424 -6.95776,-4.82674 -2.59749,-8.362 0.4661,-3.76823 1.44533,-8.66635 -2.19216,-11.23108 -0.3473,-0.3395 -0.67195,-0.71201 -0.89437,-1.14761"/>
      <path style="fill:none;fill-rule:evenodd;stroke:#000000;stroke-width:1.08228;stroke-linecap:butt;stroke-linejoin:miter;stroke-dasharray:none;stroke-opacity:1" d="m 696.61024,-881.44127 c -1.84494,0.0799 -3.61137,-0.5231 -5.38897,-0.88842 -1.67232,0.0207 -3.35711,0.0616 -5.02694,0.018 -1.23673,-0.47512 -2.4444,-1.00458 -3.5879,-1.66756 -0.93489,-0.50105 -2.16485,-0.62936 -3.33607,-0.57215 -2.10086,0.0308 -4.20299,0.0104 -6.30421,-0.006 -0.35219,0.47027 -1.1099,-0.0567 -1.47874,0.3633"/>
      <path style="fill:none;fill-rule:evenodd;stroke:#000000;stroke-width:1.08228;stroke-linecap:butt;stroke-linejoin:miter;stroke-dasharray:none;stroke-opacity:1" d="m 695.23365,-867.50327 c -1.41834,-0.41246 -2.84127,-0.69364 -4.30287,-0.89975 -1.42267,0.0403 -3.02469,-0.16152 -4.23823,0.73513 -0.67232,0.14441 -1.71707,0.91123 -2.00052,1.0565 0.4301,-0.19712 -1.27247,0.61582 -1.58442,1.00934 -1.35417,0.79478 -2.48533,1.2443 -3.73586,2.15293 -1.41137,0.62173 -2.7687,1.7115 -4.21446,2.07788 -1.03807,0.88785 -2.27296,1.63382 -3.51443,2.29962 -0.88567,0.44553 -1.67973,1.19573 -2.56449,1.37654"/>
      <path style="fill:none;fill-rule:evenodd;stroke:#000000;stroke-width:1.08228;stroke-linecap:butt;stroke-linejoin:miter;stroke-dasharray:none;stroke-opacity:1" d="m 794.52044,-894.51891 c 3.26349,-1.38691 6.57019,-2.79849 10.05489,-3.48749 1.28826,-0.56359 2.52754,-1.13206 3.85511,-1.60534 0.87983,-0.0904 2.11349,-0.0676 2.26894,-0.37922 1.54539,-0.0667 2.91181,-0.90561 4.45303,-0.99989 1.20939,-0.23316 2.49613,-0.56331 3.56146,-0.98031 0.37597,-0.0822 1.09103,0.38423 1.27354,-0.11901"/>
      <path style="fill:none;fill-rule:evenodd;stroke:#000000;stroke-width:1.08228;stroke-linecap:butt;stroke-linejoin:miter;stroke-dasharray:none;stroke-opacity:1" d="m 794.86459,-884.02239 c 3.21637,0.72702 6.47066,1.27055 9.70149,1.9152 1.18973,0.94022 2.88465,0.77835 3.9595,1.95794 1.16016,0.67449 2.20049,1.36557 3.52828,2.00817 1.3219,0.61755 2.46035,1.51376 3.68249,2.29843 1.15381,0.55265 2.60584,1.02093 3.55871,1.65699 l 0.19758,-0.0236 0.15063,-0.005"/>
      <g style="fill:#ffffff;stroke-width:1.08228;stroke-dasharray:none" transform="translate(723.28173,-713.66897)">
        <ellipse style="fill:#ff7f2a;stroke:#000000;stroke-width:1.08228;stroke-linecap:round;stroke-linejoin:round;stroke-dasharray:none" cx="-3.2694092" cy="-188.07706" rx="5.5063729" ry="5.8505216"/>
        <circle style="fill:#000000;stroke:#000000;stroke-width:1.08228;stroke-linecap:round;stroke-linejoin:round;stroke-dasharray:none" cx="-3.5275202" cy="-187.90498" r="1.3335747"/>
      </g>
      <g transform="translate(773.18324,-711.43201)" style="stroke-width:1.08228;stroke-dasharray:none">
        <ellipse style="fill:#ff7f2a;fill-opacity:1;stroke:#000000;stroke-width:1.08228;stroke-linecap:round;stroke-linejoin:round;stroke-dasharray:none" cx="-3.2694092" cy="-188.07706" rx="5.5063729" ry="5.8505216"/>
        <circle style="fill:#000000;stroke:#000000;stroke-width:1.08228;stroke-linecap:round;stroke-linejoin:round;stroke-dasharray:none" cx="-3.5275202" cy="-187.90498" r="1.3335747"/>
      </g>
      <path style="fill:#000000;fill-rule:evenodd;stroke:#000000;stroke-width:1.08228;stroke-linecap:butt;stroke-linejoin:miter;stroke-dasharray:none;stroke-opacity:1" d="m 740.83332,-878.41665 c -0.97692,0.64487 -0.8825,2.00893 -0.88343,3.03528 -0.0753,1.51061 0.61259,2.91172 0.59775,4.41793 0.1351,1.0505 -0.25162,2.5609 0.96913,3.0957 1.05145,0.42409 1.40644,-0.92286 1.80727,-1.59752 0.71035,-1.19583 0.62427,-2.66235 0.58078,-3.99958 -0.16841,-1.17923 -0.719,-2.25781 -1.14211,-3.36067 -0.35924,-0.76403 -1.0284,-1.55568 -1.92939,-1.59114 z"/>
      <path style="fill:#000000;fill-rule:evenodd;stroke:#000000;stroke-width:1.08228;stroke-linecap:butt;stroke-linejoin:miter;stroke-dasharray:none;stroke-opacity:1" d="m 752.54452,-878.35582 c -1.34426,-0.26059 -2.10072,1.25959 -1.89634,2.40367 -0.0413,1.91942 0.33065,3.81436 0.4505,5.72447 0.0637,1.25159 0.31677,2.64324 1.40386,3.42874 1.14275,0.75071 2.08505,-0.71304 2.56309,-1.58449 0.6114,-0.88064 0.58951,-2.00743 0.193,-2.96837 -0.53974,-1.81554 -0.35734,-3.93482 -1.69254,-5.43637 -0.33918,-0.5224 -0.51112,-1.17158 -1.02157,-1.56765 z"/>
      <path style="fill:none;fill-rule:evenodd;stroke:#000000;stroke-width:1.08228;stroke-linecap:butt;stroke-linejoin:miter;stroke-dasharray:none;stroke-opacity:1" d="m 771.76363,-946.61436 c -0.33701,0.78211 -0.96175,1.42475 -1.11173,2.28993 -0.43947,0.84675 -0.59347,2.01682 0.46429,2.45954 1.35488,1.09398 2.65473,2.37964 3.39097,3.97528 0.20541,1.25087 -1.02632,2.0499 -1.61189,2.99326 -0.41897,0.55652 -0.60327,1.22883 -0.83051,1.87543"/>
      <path style="fill:none;fill-rule:evenodd;stroke:#000000;stroke-width:1.08228;stroke-linecap:butt;stroke-linejoin:miter;stroke-dasharray:none;stroke-opacity:1" d="m 762.47162,-949.66868 c -1.32488,0.46208 -2.87006,0.70181 -3.64922,2.0217 -0.83909,0.91363 -0.23322,2.04689 0.41108,2.84833 0.7536,1.22228 1.81841,2.35433 2.08287,3.8016 0.083,1.61179 -1.8271,2.86543 -1.13193,4.50443 0.10352,0.24609 0.23284,0.47983 0.35135,0.71869"/>
      <path style="fill:#000000;fill-rule:evenodd;stroke:#000000;stroke-width:1.08228;stroke-linecap:butt;stroke-linejoin:miter;stroke-dasharray:none;stroke-opacity:1" d="m 748.10339,-843.00929 c -1.7435,0.13964 -4.14203,0.70707 -4.50167,2.72643 0.65497,2.29804 3.75832,0.9548 5.47917,1.53258 2.11741,0.74595 4.2014,-2.55168 1.41231,-3.05868 -0.978,-0.42247 -1.98729,-1.31565 -3.11986,-0.95657"/>
    </g></g></g></svg>
