<svg xmlns="http://www.w3.org/2000/svg" width="64" height="64" viewBox="0 0 64 64" fill="none" style="position: absolute; left: 0px; top: 0px; overflow: hidden;"><g transform="translate(-146.9894256591797 -133.1400146484375)"><g transform="scale(1.0639661179002677)"><g transform="matrix(0.35901408,0,0,0.35901408,248.08704,368.06273)" style="stroke-width:1;stroke-dasharray:none">
      <path style="fill:#691a1a;fill-opacity:1;fill-rule:evenodd;stroke:#000000;stroke-width:1;stroke-linecap:butt;stroke-linejoin:miter;stroke-dasharray:none;stroke-opacity:1" d="m -155.25752,-650.752 c 1.85495,-0.0613 3.52805,1.68702 2.26549,4.02766 -2.20283,5.69532 -6.79191,10.0598 -11.7693,13.40383 -3.09386,1.55202 -4.7321,4.65314 -6.71691,7.32048 -2.11927,2.04773 -3.11843,4.82178 -3.56412,7.67912 l -0.52658,-1.29605 c 0.28185,2.27358 0.44729,4.5246 0.50901,6.67763 0.52766,18.40796 -12.64071,40.74272 -26.45833,52.91667 -8.05045,7.09282 -21.16667,5.29166 -21.16667,5.29166 0,0 -13.11622,1.80116 -21.16667,-5.29166 -13.81762,-12.17395 -26.98599,-34.50871 -26.45833,-52.91667 0.0539,-1.87953 0.18362,-3.83365 0.40256,-5.81205 -0.4775,-2.70408 -1.4791,-5.30393 -3.49178,-7.24865 -1.98481,-2.66734 -3.62253,-5.76846 -6.71638,-7.32048 -4.9774,-3.34403 -9.56647,-7.70852 -11.76931,-13.40383 -1.83645,-3.40456 2.53766,-5.55605 4.64881,-2.70784 2.39769,2.63792 5.91729,3.9851 8.51989,6.4456 2.62876,1.59909 5.09416,3.73599 8.12147,4.4881 2.9028,0.53 6.11596,0.33152 8.46047,-1.59939 0.60697,-0.72749 1.25545,-1.41392 1.94717,-2.05414 0.0269,-0.0388 0.0544,-0.077 0.0806,-0.11627 l -0.0274,0.0677 c 0.1354,-0.12446 0.26847,-0.25123 0.40721,-0.37207 9.52203,-8.29368 24.54293,-5.82084 37.04167,-5.82084 12.49873,0 27.51964,-2.47284 37.04167,5.82084 0.42259,0.36808 0.82657,0.7563 1.21853,1.15703 l -0.34624,-0.85266 c 0.45909,0.68668 1.01811,1.30489 1.649,1.83761 2.36878,2.24104 5.77755,2.49131 8.83977,1.93219 3.02732,-0.75211 5.49271,-2.88901 8.12147,-4.4881 2.60261,-2.4605 6.12169,-3.80768 8.51938,-6.4456 0.65973,-0.89006 1.54067,-1.29197 2.38383,-1.31983 z"/>
      <path style="fill:#000000;fill-rule:evenodd;stroke:#000000;stroke-width:1;stroke-linecap:butt;stroke-linejoin:miter;stroke-dasharray:none;stroke-opacity:1" d="m -226.16245,-601.03307 c 2.01882,-1.7102 5.91868,-1.7102 7.9375,0 2.04667,1.73379 2.14151,5.38313 1.32292,7.9375 -0.57095,1.78164 -2.24028,3.25279 -3.96875,3.96875 -0.81481,0.33751 -1.83103,0.33751 -2.64584,0 -1.72847,-0.71596 -3.3978,-2.18711 -3.96875,-3.96875 -0.81859,-2.55437 -0.72375,-6.20371 1.32292,-7.9375 z"/>
      <path style="fill:#551515;fill-opacity:1;fill-rule:evenodd;stroke:#000000;stroke-width:1;stroke-linecap:butt;stroke-linejoin:miter;stroke-dasharray:none;stroke-opacity:1" d="m -249.44385,-635.53331 c 1.64807,-2.29025 0.91957,-5.39775 0.56615,-7.9818 -0.51206,-3.55618 -2.04661,-6.7877 -3.65822,-9.95158 -1.14413,-2.45589 -2.39054,-4.89579 -2.78883,-7.59916 -1.12027,-2.99029 1.58337,-5.74319 4.59494,-4.98606 2.97296,-0.0158 4.42012,2.92087 5.69163,5.14256 1.30356,2.44225 2.56835,4.89666 3.45812,7.52438 1.03901,2.20841 2.16538,4.37746 3.31707,6.5416 1.662,2.36888 2.2964,5.70722 4.97053,7.21883 l 0.31242,0.34945"/>
      <path style="fill:#551515;fill-opacity:1;fill-rule:evenodd;stroke:#000000;stroke-width:1;stroke-linecap:butt;stroke-linejoin:miter;stroke-dasharray:none;stroke-opacity:1" d="m -194.94356,-635.53331 c -1.64807,-2.29025 -0.91957,-5.39775 -0.56615,-7.9818 0.51206,-3.55618 2.04661,-6.7877 3.65822,-9.95158 1.14413,-2.45589 2.39054,-4.89579 2.78883,-7.59916 1.12027,-2.99029 -1.58337,-5.74319 -4.59494,-4.98606 -2.97296,-0.0158 -4.42012,2.92087 -5.69163,5.14256 -1.30356,2.44225 -2.56835,4.89666 -3.45812,7.52438 -1.03901,2.20841 -2.16538,4.37746 -3.31707,6.5416 -1.662,2.36888 -2.2964,5.70722 -4.97053,7.21883 l -0.31242,0.34945"/>
      <g transform="matrix(1.2287223,0.70856778,-0.70856778,1.2287223,664.68573,228.44783)" style="stroke-width:0.705025;stroke-dasharray:none">
        <path style="fill:#ffffff;fill-rule:evenodd;stroke:#000000;stroke-width:0.705025;stroke-linecap:butt;stroke-linejoin:miter;stroke-dasharray:none;stroke-opacity:1" d="m -853.28125,-193.14583 c 0,0 3.77405,-2.67726 5.34864,-2.64246 1.52608,0.0337 5.23469,2.64246 5.23469,2.64246 0,0 -3.77471,2.70675 -5.375,2.68957 -1.60583,-0.0172 -5.20833,-2.68957 -5.20833,-2.68957 z"/>
        <ellipse style="fill:#000000;fill-opacity:1;stroke:#808000;stroke-width:0.705025;stroke-linecap:round;stroke-linejoin:round;stroke-dasharray:none" cx="-847.98956" cy="-193.14583" rx="1.8520629" ry="1.7249494"/>
      </g>
      <g transform="matrix(-1.2287223,0.70856778,0.70856778,1.2287223,-1104.6784,228.44783)" style="stroke-width:0.705025;stroke-dasharray:none">
        <path style="fill:#ffffff;fill-rule:evenodd;stroke:#000000;stroke-width:0.705025;stroke-linecap:butt;stroke-linejoin:miter;stroke-dasharray:none;stroke-opacity:1" d="m -853.28125,-193.14583 c 0,0 3.77405,-2.67726 5.34864,-2.64246 1.52608,0.0337 5.23469,2.64246 5.23469,2.64246 0,0 -3.77471,2.70675 -5.375,2.68957 -1.60583,-0.0172 -5.20833,-2.68957 -5.20833,-2.68957 z"/>
        <ellipse style="fill:#000000;fill-opacity:1;stroke:#808000;stroke-width:0.705025;stroke-linecap:round;stroke-linejoin:round;stroke-dasharray:none" cx="-847.98956" cy="-193.14583" rx="1.8520629" ry="1.7249494"/>
      </g>
      <path style="fill:#441414;fill-opacity:1;fill-rule:evenodd;stroke:#000000;stroke-width:1;stroke-linecap:butt;stroke-linejoin:miter;stroke-dasharray:none;stroke-opacity:1" d="m -223.90893,-576.85156 3.00253,51.08114 c 0,0 1.37763,5.40509 3.57674,5.56413 2.19912,0.15902 4.34008,-4.99163 4.34008,-4.99163 l -1.32292,-51.59375"/>
      <path style="fill:#441414;fill-opacity:1;fill-rule:evenodd;stroke:#000000;stroke-width:1;stroke-linecap:butt;stroke-linejoin:miter;stroke-dasharray:none;stroke-opacity:1" d="m -223.57292,-574.14583 0.0334,49.30539 c 0,0 -1.7973,5.28042 -4.00212,5.26649 -2.20481,-0.0139 -3.93523,-5.31665 -3.93523,-5.31665 l -2.46106,-50.27013"/>
      <path style="fill:#571616;fill-opacity:1;fill-rule:evenodd;stroke:#000000;stroke-width:1;stroke-linecap:butt;stroke-linejoin:miter;stroke-dasharray:none;stroke-opacity:1" d="m -223.57292,-579.4375 c -3.06663,17.32084 -6.59419,34.73224 -1.32291,50.41483 0,0 -1.75544,5.29448 -3.9603,5.298 -2.20486,0.004 -3.9772,-5.28532 -3.9772,-5.28532 -4.77845,-16.32404 -2.03113,-33.41213 0,-50.42751"/>
      <path style="fill:#551515;fill-opacity:1;stroke:none;stroke-width:1;stroke-linecap:round;stroke-linejoin:round;stroke-dasharray:none" d="m -289.78842,-650.59748 c -1.18607,0.004 -2.42257,0.98057 -2.34952,2.23677 -0.0458,1.0216 0.56419,1.91472 0.92768,2.82967 2.21977,4.76274 6.09454,8.53621 10.3509,11.51342 1.08376,0.75536 2.29502,1.34325 3.20923,2.32053 2.06494,1.94707 3.36937,4.52585 5.26376,6.62014 0.66368,0.81754 1.16548,1.74883 1.61088,2.69622 0.18744,0.12005 0.42895,-0.11077 0.57762,-0.22286 0.4659,-0.60962 0.59674,-1.40673 0.89021,-2.1044 1.49596,-4.36758 2.40612,-8.91372 3.10849,-13.4687 -0.14735,-0.0992 -0.50549,0.0591 -0.74412,0.0367 -1.64017,0.0212 -3.33703,0.0385 -4.87955,-0.59894 -2.41948,-0.93237 -4.50162,-2.52366 -6.6417,-3.95182 -1.09726,-0.78412 -2.10685,-1.68623 -3.25517,-2.401 -2.01679,-1.36233 -4.14925,-2.61508 -5.80599,-4.42837 -0.538,-0.58593 -1.24531,-1.06289 -2.06764,-1.07441 -0.065,-0.004 -0.12999,-0.004 -0.19508,-0.003 z"/>
      <path style="fill:#551515;fill-opacity:1;stroke:none;stroke-width:1;stroke-linecap:round;stroke-linejoin:round;stroke-dasharray:none" d="m -155.09023,-650.59748 c 1.18608,0.004 2.42258,0.98057 2.34953,2.23677 0.0458,1.0216 -0.5642,1.91472 -0.92768,2.82967 -2.21978,4.76274 -6.09455,8.53621 -10.3509,11.51342 -1.08376,0.75536 -2.29502,1.34325 -3.20924,2.32053 -2.06494,1.94707 -3.36936,4.52585 -5.26375,6.62014 -0.66368,0.81754 -1.16549,1.74883 -1.61089,2.69622 -0.18743,0.12005 -0.42894,-0.11077 -0.57761,-0.22286 -0.46591,-0.60962 -0.59674,-1.40673 -0.89022,-2.1044 -1.49595,-4.36758 -2.40612,-8.91372 -3.10848,-13.4687 0.14734,-0.0992 0.50548,0.0591 0.74411,0.0367 1.64018,0.0212 3.33703,0.0385 4.87955,-0.59894 2.41949,-0.93237 4.50163,-2.52366 6.64171,-3.95182 1.09725,-0.78412 2.10685,-1.68623 3.25517,-2.401 2.01678,-1.36233 4.14924,-2.61508 5.80599,-4.42837 0.538,-0.58593 1.24531,-1.06289 2.06764,-1.07441 0.065,-0.004 0.12999,-0.004 0.19507,-0.003 z"/>
      <path style="fill:#571616;fill-opacity:1;fill-rule:evenodd;stroke:#000000;stroke-width:1;stroke-linecap:butt;stroke-linejoin:miter;stroke-dasharray:none;stroke-opacity:1" d="m -222.28724,-579.36838 c 3.72749,17.73181 5.20416,34.60553 0.0372,50.20171 0,0 3.09037,5.41696 5.29167,5.29167 2.2013,-0.12527 4.22083,-5.29167 4.22083,-5.29167 3.57319,-18.77706 1.18247,-34.63539 -0.25208,-50.27083"/>
    </g></g></g></svg>
