<svg xmlns="http://www.w3.org/2000/svg" width="64" height="64" viewBox="0 0 64 64" fill="none" style="position: absolute; left: 0px; top: 0px; overflow: hidden;"><g transform="translate(-63.80449676513672 -175.44149780273438)"><g transform="scale(0.950641460013138)"><g transform="matrix(0.35901408,0,0,0.35901408,140.67597,543.20039)" style="stroke-width:1;stroke-dasharray:none">
      <path style="fill:#a6a647;fill-opacity:1;fill-rule:evenodd;stroke:#000000;stroke-width:1;stroke-linecap:butt;stroke-linejoin:miter;stroke-dasharray:none;stroke-opacity:1" d="m -147.82508,-902.55835 c -1.08214,0.0629 -9.02145,-8.78647 -10.59181,-10.43846 -6.57946,-6.92145 -15.14873,-26.83477 -6.47382,-42.47821 2.86918,-5.17397 15.89556,-32.98403 52.91667,-31.75003 39.6875,1.323 44.63079,23.88809 46.30208,42.33337 1.19143,13.14918 -9.2301,35.9406 -11.11249,35.45416"/>
      <path style="fill:#a6a647;fill-opacity:1;fill-rule:evenodd;stroke:#000000;stroke-width:1;stroke-linecap:butt;stroke-linejoin:miter;stroke-dasharray:none;stroke-opacity:1" d="m -156.85966,-911.29098 c 0,0 -1.43643,14.42538 -4.0623,20.63888 -3.333,7.88677 -12.42292,12.87349 -14.55208,21.16667 -1.10204,4.2925 1.32292,13.22916 1.32292,13.22916 0,0 1.04368,0.97614 1.32291,0 0.75624,-2.64362 0.3987,-8.42606 3.96875,-13.22916 3.67748,-4.94764 10.4946,-8.90086 13.22917,-11.90625 5.66983,-6.23135 6.4823,-9.92188 6.4823,-9.92188 l 10.09702,-13.74162"/>
      <path style="fill:#a6a647;fill-opacity:1;fill-rule:evenodd;stroke:#000000;stroke-width:1;stroke-linecap:butt;stroke-linejoin:miter;stroke-dasharray:none;stroke-opacity:1" d="m -92.19644,-911.95106 -8.67645,7.05215 -0.51781,7.63223 c -0.60862,8.9708 -0.46849,17.84209 -1.21201,26.55572 -1.01492,11.89441 -1.91863,23.31603 -1.30154,33.96772 -2.60158,-5.81774 -5.78426,-9.80264 -5.15938,-17.92553 0.95411,-12.4026 0.45186,-30.69413 -2.83057,-40.62019 -0.64397,-1.94737 -1.28795,-3.42267 -1.93192,-5.02044 -2.55934,8.67798 -2.06413,18.93343 0.36332,28.84011 4.76084,19.42958 -1.77706,38.17474 -14.38624,48.28594 2.51407,-18.46361 19.49567,-15.03079 1.32292,-68.79167 l -3.17501,-9.39271 -2.91041,-8.13593"/>
      <path style="fill:#a6a647;fill-opacity:1;fill-rule:evenodd;stroke:#000000;stroke-width:1;stroke-linecap:butt;stroke-linejoin:miter;stroke-dasharray:none;stroke-opacity:1" d="m -134.46362,-911.81876 c -28.43004,5.61124 -8.63047,40.97373 2.37418,70.91093 0.55647,1.51382 5.19149,12.1419 5.69561,13.82188 -0.30116,-1.50458 2.93747,-9.71412 1.52471,-18.46882 -4.14297,-25.67344 -14.88919,-54.38626 4.95758,-60.97233"/>
      <path style="fill:#a6a647;fill-opacity:1;fill-rule:evenodd;stroke:#000000;stroke-width:1;stroke-linecap:butt;stroke-linejoin:miter;stroke-dasharray:none;stroke-opacity:1" d="m -71.36118,-918.78414 c 0,0 2.90948,20.63061 10.8577,22.50167 16.78381,3.95102 15.08527,24.38796 12.02944,25.47412 -0.69955,-3.88165 -7.10853,-12.80751 -10.58333,-13.22917 -9.36929,-3.46209 -12.76131,-10.41663 -15.08125,-12.5677 l -16.13959,-14.55209"/>
      <path style="fill:#a6a647;fill-opacity:1;fill-rule:evenodd;stroke:#000000;stroke-width:1;stroke-linecap:butt;stroke-linejoin:miter;stroke-dasharray:none;stroke-opacity:1" d="m -92.13029,-914.4646 c 35.76747,1.45158 10.69061,34.50225 -3.38112,67.58305 -3.94596,9.27645 -2.9657,23.13343 -3.20038,23.66513 -0.11719,0.13053 -11.08789,-19.1179 3.93567,-44.9461 10.72541,-18.43891 5.29166,-34.39583 -7.9375,-35.71874"/>
      <g transform="translate(245.21346,-860.22502)" style="stroke-width:1;stroke-dasharray:none">
        <circle style="fill:#ff961c;fill-opacity:1;stroke:#000000;stroke-width:1;stroke-linecap:round;stroke-linejoin:round;stroke-dasharray:none" cx="-381" cy="-75.40625" r="5.2916665"/>
        <circle style="fill:#000000;fill-opacity:1;stroke:#000000;stroke-width:1;stroke-linecap:round;stroke-linejoin:round;stroke-dasharray:none" cx="-381" cy="-75.40625" r="1.3229166"/>
      </g>
      <g transform="translate(283.57804,-860.22502)" style="stroke-width:1;stroke-dasharray:none">
        <circle style="fill:#ff961c;fill-opacity:1;stroke:#000000;stroke-width:1;stroke-linecap:round;stroke-linejoin:round;stroke-dasharray:none" cx="-381" cy="-75.40625" r="5.2916665"/>
        <circle style="fill:#000000;fill-opacity:1;stroke:#000000;stroke-width:1;stroke-linecap:round;stroke-linejoin:round;stroke-dasharray:none" cx="-381" cy="-75.40625" r="1.3229166"/>
      </g>
      <ellipse style="fill:#000000;fill-opacity:1;stroke:#000000;stroke-width:1;stroke-linecap:round;stroke-linejoin:round;stroke-dasharray:none" cx="512.70831" cy="-809.12476" rx="3.96875" ry="2.6458333" transform="rotate(-41.810266)"/>
      <ellipse style="fill:#000000;fill-opacity:1;stroke:#000000;stroke-width:1;stroke-linecap:round;stroke-linejoin:round;stroke-dasharray:none" cx="464.92203" cy="-857.22815" rx="6.614583" ry="3.96875" transform="rotate(-36.87001)"/>
      <ellipse style="fill:#000000;fill-opacity:1;stroke:#000000;stroke-width:1.00305;stroke-linecap:round;stroke-linejoin:round;stroke-dasharray:none" cx="431.21747" cy="-913.74847" rx="4.4371805" ry="2.0821819" transform="matrix(0.89145623,-0.45310681,0.54840332,0.83621397,0,0)"/>
      <ellipse style="fill:#000000;fill-opacity:1;stroke:#000000;stroke-width:1;stroke-linecap:round;stroke-linejoin:round;stroke-dasharray:none" cx="967.81482" cy="157.52583" rx="3.5546846" ry="4.0224066" transform="rotate(-106.20709)"/>
      <ellipse style="fill:#000000;fill-opacity:1;stroke:#000000;stroke-width:1;stroke-linecap:round;stroke-linejoin:round;stroke-dasharray:none" cx="238.14427" cy="-957.80884" rx="5.425571" ry="1.9644309" transform="rotate(-21.854275)"/>
      <ellipse style="fill:#000000;fill-opacity:1;stroke:#000000;stroke-width:1;stroke-linecap:round;stroke-linejoin:round;stroke-dasharray:none" cx="-418.00854" cy="-884.14825" rx="4.0224066" ry="4.2094951" transform="rotate(19.486707)"/>
      <ellipse style="fill:#000000;fill-opacity:1;stroke:#000000;stroke-width:1;stroke-linecap:round;stroke-linejoin:round;stroke-dasharray:none" cx="-292.47531" cy="-914.93719" rx="2.9934187" ry="4.9578495" transform="rotate(12.964301)"/>
      <path style="fill:#000000;fill-opacity:1;stroke:#000000;stroke-width:1;stroke-linecap:round;stroke-linejoin:round;stroke-dasharray:none" d="m -83.94991,-980.51435 a 4.9578495,4.3030396 0 0 0 -3.48041,4.1073 4.9578495,4.3030396 0 0 0 4.95784,4.30307 4.9578495,4.3030396 0 0 0 4.90254,-3.66337 c -1.82297,-1.7356 -3.93076,-3.3325 -6.37997,-4.747 z"/>
      <path style="fill:#000000;fill-opacity:1;stroke:#000000;stroke-width:1;stroke-linecap:round;stroke-linejoin:round;stroke-dasharray:none" d="m -67.52146,-957.11677 a 4.8643055,3.2740517 57.633621 0 0 -0.34262,0.17415 4.8643055,3.2740517 57.633621 0 0 -0.16174,5.86165 4.8643055,3.2740517 57.633621 0 0 1.90583,1.98076 c -0.32787,-2.65249 -0.76554,-5.34675 -1.40147,-8.01656 z"/>
      <path style="fill:#a6a647;fill-opacity:1;fill-rule:evenodd;stroke:#000000;stroke-width:1;stroke-linecap:butt;stroke-linejoin:miter;stroke-dasharray:none;stroke-opacity:1" d="m -147.82508,-902.55835 c -1.08214,0.0629 -9.02145,-8.78647 -10.59181,-10.43846 -6.57946,-6.92145 -15.14873,-26.83477 -6.47382,-42.47821 2.86918,-5.17397 15.89556,-32.98403 52.91667,-31.75003 39.6875,1.323 44.63079,23.88809 46.30208,42.33337 1.19143,13.14918 -9.2301,35.9406 -11.11249,35.45416"/>
      <path style="fill:#a6a647;fill-opacity:1;fill-rule:evenodd;stroke:#000000;stroke-width:1;stroke-linecap:butt;stroke-linejoin:miter;stroke-dasharray:none;stroke-opacity:1" d="m -156.85966,-911.29098 c 0,0 -1.43643,14.42538 -4.0623,20.63888 -3.333,7.88677 -12.42292,12.87349 -14.55208,21.16667 -1.10204,4.2925 1.32292,13.22916 1.32292,13.22916 0,0 1.04368,0.97614 1.32291,0 0.75624,-2.64362 0.3987,-8.42606 3.96875,-13.22916 3.67748,-4.94764 10.4946,-8.90086 13.22917,-11.90625 5.66983,-6.23135 6.4823,-9.92188 6.4823,-9.92188 l 10.09702,-13.74162"/>
      <path style="fill:#a6a647;fill-opacity:1;fill-rule:evenodd;stroke:#000000;stroke-width:1;stroke-linecap:butt;stroke-linejoin:miter;stroke-dasharray:none;stroke-opacity:1" d="m -92.19644,-911.95106 -8.67645,7.05215 -0.51781,7.63223 c -0.60862,8.9708 -0.46849,17.84209 -1.21201,26.55572 -1.01492,11.89441 -1.91863,23.31603 -1.30154,33.96772 -2.60158,-5.81774 -5.78426,-9.80264 -5.15938,-17.92553 0.95411,-12.4026 0.45186,-30.69413 -2.83057,-40.62019 -0.64397,-1.94737 -1.28795,-3.42267 -1.93192,-5.02044 -2.55934,8.67798 -2.06413,18.93343 0.36332,28.84011 4.76084,19.42958 -1.77706,38.17474 -14.38624,48.28594 2.51407,-18.46361 19.49567,-15.03079 1.32292,-68.79167 l -3.17501,-9.39271 -2.91041,-8.13593"/>
      <path style="fill:#a6a647;fill-opacity:1;fill-rule:evenodd;stroke:#000000;stroke-width:1;stroke-linecap:butt;stroke-linejoin:miter;stroke-dasharray:none;stroke-opacity:1" d="m -134.46362,-911.81876 c -28.43004,5.61124 -8.63047,40.97373 2.37418,70.91093 0.55647,1.51382 5.19149,12.1419 5.69561,13.82188 -0.30116,-1.50458 2.93747,-9.71412 1.52471,-18.46882 -4.14297,-25.67344 -14.88919,-54.38626 4.95758,-60.97233"/>
      <path style="fill:#a6a647;fill-opacity:1;fill-rule:evenodd;stroke:#000000;stroke-width:1;stroke-linecap:butt;stroke-linejoin:miter;stroke-dasharray:none;stroke-opacity:1" d="m -71.36118,-918.78414 c 0,0 2.90948,20.63061 10.8577,22.50167 16.78381,3.95102 15.08527,24.38796 12.02944,25.47412 -0.69955,-3.88165 -7.10853,-12.80751 -10.58333,-13.22917 -9.36929,-3.46209 -12.76131,-10.41663 -15.08125,-12.5677 l -16.13959,-14.55209"/>
      <path style="fill:#a6a647;fill-opacity:1;fill-rule:evenodd;stroke:#000000;stroke-width:1;stroke-linecap:butt;stroke-linejoin:miter;stroke-dasharray:none;stroke-opacity:1" d="m -92.13029,-914.4646 c 35.76747,1.45158 10.69061,34.50225 -3.38112,67.58305 -3.94596,9.27645 -2.9657,23.13343 -3.20038,23.66513 -0.11719,0.13053 -11.08789,-19.1179 3.93567,-44.9461 10.72541,-18.43891 5.29166,-34.39583 -7.9375,-35.71874"/>
      <g transform="translate(245.21346,-860.22502)" style="stroke-width:1;stroke-dasharray:none">
        <circle style="fill:#ff961c;fill-opacity:1;stroke:#000000;stroke-width:1;stroke-linecap:round;stroke-linejoin:round;stroke-dasharray:none" cx="-381" cy="-75.40625" r="5.2916665"/>
        <circle style="fill:#000000;fill-opacity:1;stroke:#000000;stroke-width:1;stroke-linecap:round;stroke-linejoin:round;stroke-dasharray:none" cx="-381" cy="-75.40625" r="1.3229166"/>
      </g>
      <g transform="translate(283.57804,-860.22502)" style="stroke-width:1;stroke-dasharray:none">
        <circle style="fill:#ff961c;fill-opacity:1;stroke:#000000;stroke-width:1;stroke-linecap:round;stroke-linejoin:round;stroke-dasharray:none" cx="-381" cy="-75.40625" r="5.2916665"/>
        <circle style="fill:#000000;fill-opacity:1;stroke:#000000;stroke-width:1;stroke-linecap:round;stroke-linejoin:round;stroke-dasharray:none" cx="-381" cy="-75.40625" r="1.3229166"/>
      </g>
      <ellipse style="fill:#000000;fill-opacity:1;stroke:#000000;stroke-width:1;stroke-linecap:round;stroke-linejoin:round;stroke-dasharray:none" cx="512.70831" cy="-809.12476" rx="3.96875" ry="2.6458333" transform="rotate(-41.810266)"/>
      <ellipse style="fill:#000000;fill-opacity:1;stroke:#000000;stroke-width:1;stroke-linecap:round;stroke-linejoin:round;stroke-dasharray:none" cx="464.92203" cy="-857.22815" rx="6.614583" ry="3.96875" transform="rotate(-36.87001)"/>
      <ellipse style="fill:#000000;fill-opacity:1;stroke:#000000;stroke-width:1.00305;stroke-linecap:round;stroke-linejoin:round;stroke-dasharray:none" cx="431.21747" cy="-913.74847" rx="4.4371805" ry="2.0821819" transform="matrix(0.89145623,-0.45310681,0.54840332,0.83621397,0,0)"/>
      <ellipse style="fill:#000000;fill-opacity:1;stroke:#000000;stroke-width:1;stroke-linecap:round;stroke-linejoin:round;stroke-dasharray:none" cx="967.81482" cy="157.52583" rx="3.5546846" ry="4.0224066" transform="rotate(-106.20709)"/>
      <ellipse style="fill:#000000;fill-opacity:1;stroke:#000000;stroke-width:1;stroke-linecap:round;stroke-linejoin:round;stroke-dasharray:none" cx="238.14427" cy="-957.80884" rx="5.425571" ry="1.9644309" transform="rotate(-21.854275)"/>
      <ellipse style="fill:#000000;fill-opacity:1;stroke:#000000;stroke-width:1;stroke-linecap:round;stroke-linejoin:round;stroke-dasharray:none" cx="-418.00854" cy="-884.14825" rx="4.0224066" ry="4.2094951" transform="rotate(19.486707)"/>
      <ellipse style="fill:#000000;fill-opacity:1;stroke:#000000;stroke-width:1;stroke-linecap:round;stroke-linejoin:round;stroke-dasharray:none" cx="-292.47531" cy="-914.93719" rx="2.9934187" ry="4.9578495" transform="rotate(12.964301)"/>
      <path style="fill:#000000;fill-opacity:1;stroke:#000000;stroke-width:1;stroke-linecap:round;stroke-linejoin:round;stroke-dasharray:none" d="m -83.94991,-980.51435 a 4.9578495,4.3030396 0 0 0 -3.48041,4.1073 4.9578495,4.3030396 0 0 0 4.95784,4.30307 4.9578495,4.3030396 0 0 0 4.90254,-3.66337 c -1.82297,-1.7356 -3.93076,-3.3325 -6.37997,-4.747 z"/>
      <path style="fill:#000000;fill-opacity:1;stroke:#000000;stroke-width:1;stroke-linecap:round;stroke-linejoin:round;stroke-dasharray:none" d="m -67.52146,-957.11677 a 4.8643055,3.2740517 57.633621 0 0 -0.34262,0.17415 4.8643055,3.2740517 57.633621 0 0 -0.16174,5.86165 4.8643055,3.2740517 57.633621 0 0 1.90583,1.98076 c -0.32787,-2.65249 -0.76554,-5.34675 -1.40147,-8.01656 z"/>
    </g></g></g></svg>
