<svg xmlns="http://www.w3.org/2000/svg" width="64" height="64" viewBox="0 0 64 64" fill="none" style="position: absolute; left: 0px; top: 0px; overflow: hidden;"><g transform="translate(-3.535808563232422 -101.5698471069336)"><g transform="scale(0.902609044889031)"><g transform="matrix(0.31241188,0,0,0.31241188,-306.5578,330.63426)" style="stroke-width:1.14917;stroke-dasharray:none">
      <g transform="translate(890.32292,-390.26042)" style="stroke-width:1.14917;stroke-dasharray:none">
        <path style="fill:#ffd5d5;fill-rule:evenodd;stroke:#000000;stroke-width:1.14917;stroke-linecap:butt;stroke-linejoin:miter;stroke-dasharray:none;stroke-opacity:1" d="m 239.44791,-120.38542 c 0,0 -1.38354,7.11679 -3.96875,9.26042 -3.12962,2.59504 -10.28925,0.14383 -13.49375,2.64583 -3.88603,3.03412 -0.7113,10.517127 -4.49791,13.229171 -0.28681,0.205416 -0.77153,0.205416 -1.05834,0 -3.78661,-2.712044 -0.61188,-10.195051 -4.49791,-13.229171 -3.2045,-2.502 -10.36413,-0.0508 -13.49375,-2.64583 -2.58521,-2.14363 -3.96875,-9.26042 -3.96875,-9.26042 l 17.19792,-26.45833 H 222.25 Z"/>
        <path style="fill:#ffe680;fill-opacity:1;fill-rule:evenodd;stroke:#000000;stroke-width:1.14917;stroke-linecap:butt;stroke-linejoin:miter;stroke-dasharray:none;stroke-opacity:1" d="m 256.64583,-133.61458 c 0,0 0.63037,6.82988 -1.32292,9.26041 -2.36017,2.93682 -6.87612,3.2965 -10.58333,3.96875 -3.03727,0.55076 -6.34069,1.00178 -9.26042,0 -4.75571,-1.63172 -9.0648,-5.11246 -11.90625,-9.26041 -2.60185,-3.79818 -3.96875,-13.22917 -3.96875,-13.22917 l 1.32292,-11.90625 29.10417,-1.32291 11.90625,17.19791 z"/>
        <path style="fill:#ffe680;fill-opacity:1;fill-rule:evenodd;stroke:#000000;stroke-width:1.14917;stroke-linecap:butt;stroke-linejoin:miter;stroke-dasharray:none;stroke-opacity:1" d="m 177.27083,-133.61458 c 0,0 -0.63037,6.82988 1.32292,9.26041 2.36017,2.93682 6.87612,3.2965 10.58333,3.96875 3.03727,0.55076 6.34069,1.00178 9.26042,0 4.75571,-1.63172 9.0648,-5.11246 11.90625,-9.26041 2.60185,-3.79818 3.96875,-13.22917 3.96875,-13.22917 l -1.32292,-11.90625 -29.10417,-1.32291 -11.90625,17.19791 z"/>
        <path style="fill:#ffb380;fill-rule:evenodd;stroke:#000000;stroke-width:1.14917;stroke-linecap:butt;stroke-linejoin:miter;stroke-dasharray:none;stroke-opacity:1" d="m 164.04167,-185.20833 c 0,0 0.0404,23.21484 -2.64584,34.39583 -2.67832,11.14806 -13.62382,20.29152 -13.22917,31.75 0.20365,5.91276 2.15897,14.60582 7.9375,15.875 5.51573,1.21146 9.77955,-6.1122 13.22917,-10.58333 5.30597,-6.87719 5.34638,-16.8826 10.58333,-23.8125 4.15296,-5.49549 9.39821,-10.88425 15.875,-13.22917 3.31707,-1.20095 13.22917,0 13.22917,0 l -1.32291,-34.39583 z"/>
        <g transform="matrix(0.81247435,0,0,0.81247435,194.46109,-12.424768)" style="stroke-width:1.41441;stroke-dasharray:none">
          <ellipse style="fill:#ffffff;fill-opacity:1;stroke:#000000;stroke-width:1.41441;stroke-linecap:round;stroke-linejoin:round;stroke-dasharray:none" cx="-3.2694092" cy="-188.07706" rx="5.5063729" ry="5.8505216"/>
          <circle style="fill:#000000;stroke:#000000;stroke-width:1.41441;stroke-linecap:round;stroke-linejoin:round;stroke-dasharray:none" cx="-3.5275202" cy="-187.90498" r="1.3335747"/>
        </g>
        <path style="fill:#ffb380;fill-rule:evenodd;stroke:#000000;stroke-width:1.14917;stroke-linecap:butt;stroke-linejoin:miter;stroke-dasharray:none;stroke-opacity:1" d="m 269.875,-185.20833 c 0,0 -0.0404,23.21484 2.64584,34.39583 2.67832,11.14806 13.62382,20.29152 13.22917,31.75 -0.20365,5.91276 -2.15897,14.60582 -7.9375,15.875 -5.51573,1.21146 -9.77955,-6.1122 -13.22917,-10.58333 -5.30597,-6.87719 -5.34638,-16.8826 -10.58333,-23.8125 -4.15296,-5.49549 -9.39821,-10.88425 -15.875,-13.22917 -3.31707,-1.20095 -13.22917,0 -13.22917,0 l 1.32291,-34.39583 z"/>
        <g transform="matrix(0.81247435,0,0,0.81247435,246.52211,-12.696604)" style="stroke-width:1.41441;stroke-dasharray:none">
          <ellipse style="fill:#ffffff;fill-opacity:1;stroke:#000000;stroke-width:1.41441;stroke-linecap:round;stroke-linejoin:round;stroke-dasharray:none" cx="-3.2694092" cy="-188.07706" rx="5.5063729" ry="5.8505216"/>
          <circle style="fill:#000000;stroke:#000000;stroke-width:1.41441;stroke-linecap:round;stroke-linejoin:round;stroke-dasharray:none" cx="-3.5275202" cy="-187.90498" r="1.3335747"/>
        </g>
        <path style="fill:#ffd5d5;fill-opacity:1;fill-rule:evenodd;stroke:#000000;stroke-width:1.14917;stroke-linecap:butt;stroke-linejoin:miter;stroke-dasharray:none;stroke-opacity:1" d="m 231.51041,-181.23958 c 0,0 -0.87483,38.36458 -14.55208,38.36458 -13.67725,0 -14.55208,-38.36458 -14.55208,-38.36458 l 5.29167,-29.10417 h 19.84375 z"/>
        <path style="fill:#333333;fill-rule:evenodd;stroke:#000000;stroke-width:1.14917;stroke-linecap:butt;stroke-linejoin:miter;stroke-dasharray:none;stroke-opacity:1" d="m 186.53125,-227.54167 c 0,0 14.17331,-4.19548 15.50603,-6.56353 2.73044,-4.85159 7.09188,-13.13839 8.30647,-18.57188 1.25059,-5.59457 -0.33548,-11.4751 0,-17.19792 0.44173,-7.53529 -2.18622,-16.6907 2.64583,-22.48958 0.9599,-1.15196 2.80001,-1.32292 4.29948,-1.32292 1.49947,0 3.33958,0.17096 4.29948,1.32292 4.83205,5.79888 2.2041,14.95429 2.64583,22.48958 0.33548,5.72282 -1.25059,11.60335 0,17.19792 1.20966,5.41145 5.54069,13.65309 8.27315,18.51266 1.35027,2.4014 17.52373,6.62275 17.52373,6.62275 l -25.66458,19.84375 c -0.0352,0.0836 -0.0708,0.16631 -0.10667,0.24815 -3.42891,7.81545 -9.99685,7.6071 -14.71,-0.24815 l -23.01875,-19.84375"/>
        <path style="fill:#ffe680;fill-rule:evenodd;stroke:#000000;stroke-width:1.14917;stroke-linecap:butt;stroke-linejoin:miter;stroke-dasharray:none;stroke-opacity:1" d="m 186.53125,-227.54167 c 13.14594,0.33587 23.13395,13.78651 23.8125,23.81251 0.23821,3.51972 1.20094,7.26626 0,10.58333 -2.34492,6.47678 -6.1339,12.11637 -11.90625,15.875 -2.69027,1.75175 -6.05272,2.516 -9.26042,2.64583 -6.74006,0.2728 -13.89635,-0.7858 -19.84375,-3.96875 -2.74919,-1.47132 -5.5663,-3.67793 -6.61458,-6.61458 -1.48988,-4.17377 1.32291,-13.22917 1.32291,-13.22917 3.18772,-13.30834 9.03725,-24.38845 22.48959,-29.10417 z"/>
        <path style="fill:#ffe680;fill-rule:evenodd;stroke:#000000;stroke-width:1.14917;stroke-linecap:butt;stroke-linejoin:miter;stroke-dasharray:none;stroke-opacity:1" d="m 247.38541,-227.54167 c -13.14594,0.33587 -23.13395,13.78651 -23.8125,23.81251 -0.23821,3.51972 -1.20094,7.26626 0,10.58333 2.34492,6.47678 6.1339,12.11637 11.90625,15.875 2.69027,1.75175 6.05272,2.516 9.26042,2.64583 6.74006,0.2728 13.89635,-0.7858 19.84375,-3.96875 2.74919,-1.47132 5.5663,-3.67793 6.61458,-6.61458 1.48988,-4.17377 -1.32291,-13.22917 -1.32291,-13.22917 -3.18772,-13.30834 -9.03725,-24.38845 -22.48959,-29.10417 z"/>
      </g>
      <path style="fill:none;fill-rule:evenodd;stroke:#000000;stroke-width:1.14917;stroke-linecap:butt;stroke-linejoin:miter;stroke-dasharray:none;stroke-opacity:1" d="m 1103.3125,-527.84374 h 7.9375"/>
      <path style="fill:#000000;fill-opacity:1;stroke:none;stroke-width:4.34332;stroke-linecap:round;stroke-linejoin:round;stroke-dasharray:none" d="m 4176.3154,-2015.5801 c -1.6718,2.3915 -1.1083,5.9713 -2.0591,8.7285 -0.5679,3.56 -1.645,7.2461 -1.9458,10.7393 8.4473,0.5417 17.0643,0.614 25.4659,-0.017 -1.3511,-6.389 -2.1624,-12.9681 -3.8116,-19.2568 -1.8285,-0.3458 -4.0251,0.8975 -6.0068,0.8281 -3.8855,0.346 -7.9097,0.072 -11.6426,-1.0225 z" transform="scale(0.26458333)"/>
    </g></g></g></svg>
