<svg xmlns="http://www.w3.org/2000/svg" width="64" height="64" viewBox="0 0 64 64" fill="none" style="position: absolute; left: 0px; top: 0px; overflow: hidden;"><g transform="translate(-152.25088500976562 -69.1873779296875)"><g transform="scale(1.1346549790499394)"><g transform="matrix(0.41620707,0,0,0.41620707,447.65458,53.70024)">
      <path style="fill:#6f917c;fill-rule:evenodd;stroke:#000000;stroke-width:1;stroke-linecap:butt;stroke-linejoin:miter;stroke-dasharray:none;stroke-opacity:1" d="m -687.91666,134.9375 c -22.84391,0.78534 -36.31535,-28.81529 -34.39583,-55.562501 1.45591,-20.287124 15.97861,-35.018893 34.39583,-52.916666 1.13814,-0.599178 4.42608,-0.745608 5.29166,0 18.41722,17.897773 32.93992,32.629542 34.39583,52.916666 1.91952,26.747211 -11.55192,56.347841 -34.39583,55.562501 -0.88143,-0.0303 -2.64583,0 -2.64583,0 0,0 -1.7644,-0.0303 -2.64583,0 z"/>
      <g>
        <path style="fill:#4d705a;fill-opacity:1;fill-rule:evenodd;stroke:#000000;stroke-width:1;stroke-linecap:butt;stroke-linejoin:miter;stroke-dasharray:none;stroke-opacity:1" d="m -709.08332,67.468749 -19.84375,3.96875 v 10.583333 l 23.8125,-3.96875 c 2.15911,-4.450414 2.98732,-8.54818 -3.96875,-10.583333 z"/>
        <circle style="fill:#ffffff;fill-opacity:1;stroke:#000000;stroke-width:1;stroke-linecap:round;stroke-linejoin:round;stroke-dasharray:none" cx="-728.92706" cy="76.729164" r="5.2916665"/>
        <circle style="fill:#000000;fill-opacity:1;stroke:#000000;stroke-width:1;stroke-linecap:round;stroke-linejoin:round;stroke-dasharray:none" cx="-728.92706" cy="76.729164" r="1.3229166"/>
      </g>
      <path style="fill:#6f917c;fill-opacity:1;fill-rule:evenodd;stroke:#000000;stroke-width:1;stroke-linecap:butt;stroke-linejoin:miter;stroke-dasharray:none;stroke-opacity:1" d="m -697.17707,107.15625 c 2.32806,1.77619 -0.27742,24.41047 -3.96875,31.75 -0.81693,1.62431 -0.11018,4.17273 1.32291,5.29166 0.34758,0.27138 0.94373,0.2251 1.32292,0 4.75126,-2.8205 5.80924,-9.45304 7.9375,-14.55208 1.77332,-4.24866 3.30021,-8.67408 3.96875,-13.22916 0.51228,-3.49039 0,-10.58334 0,-10.58334"/>
      <path style="fill:#1a1a1a;fill-rule:evenodd;stroke:#000000;stroke-width:0.264583px;stroke-linecap:butt;stroke-linejoin:miter;stroke-opacity:1" d="m -690.56249,46.302084 c 0,0 -1.09955,2.592279 -1.32292,3.96875 -0.49445,3.046947 -1.18127,6.40858 0,9.260416 0.23865,0.576159 0.69929,1.322918 1.32292,1.322917 0.62363,-10e-7 1.08426,-0.74676 1.32291,-1.322917 1.18127,-2.851838 0.49445,-6.213469 0,-9.260416 -0.22337,-1.37647 -1.32291,-3.96875 -1.32291,-3.96875 z"/>
      <path style="fill:#1a1a1a;fill-rule:evenodd;stroke:#000000;stroke-width:0.264583px;stroke-linecap:butt;stroke-linejoin:miter;stroke-opacity:1" d="m -698.69195,46.589475 c 0,0 -2.24838,1.695203 -3.13006,2.775577 -1.95168,2.391508 -4.2273,4.959358 -4.63021,8.019756 -0.0814,0.618294 -0.0558,1.495326 0.48423,1.80714 0.54008,0.311814 1.31237,-0.104584 1.80713,-0.484224 2.44893,-1.879129 3.53494,-5.133799 4.63021,-8.019756 0.49479,-1.303743 0.8387,-4.098493 0.8387,-4.098493 z"/>
      <path style="fill:#1a1a1a;fill-rule:evenodd;stroke:#000000;stroke-width:0.264583px;stroke-linecap:butt;stroke-linejoin:miter;stroke-opacity:1" d="m -679.97917,46.302084 c 0,0 1.09955,2.592279 1.32292,3.96875 0.49445,3.046947 1.18127,6.40858 0,9.260416 -0.23865,0.576159 -0.69929,1.322918 -1.32292,1.322917 -0.62363,-10e-7 -1.08426,-0.74676 -1.32291,-1.322917 -1.18127,-2.851838 -0.49445,-6.213469 0,-9.260416 0.22337,-1.37647 1.32291,-3.96875 1.32291,-3.96875 z"/>
      <path style="fill:#1a1a1a;fill-rule:evenodd;stroke:#000000;stroke-width:0.264583px;stroke-linecap:butt;stroke-linejoin:miter;stroke-opacity:1" d="m -671.84971,46.589475 c 0,0 2.24838,1.695203 3.13006,2.775577 1.95168,2.391508 4.2273,4.959358 4.63021,8.019756 0.0814,0.618294 0.0558,1.495326 -0.48423,1.80714 -0.54008,0.311814 -1.31237,-0.104584 -1.80713,-0.484224 -2.44893,-1.879129 -3.53494,-5.133799 -4.63021,-8.019756 -0.49479,-1.303743 -0.8387,-4.098493 -0.8387,-4.098493 z"/>
      <path style="fill:#6f917c;fill-opacity:1;fill-rule:evenodd;stroke:#000000;stroke-width:1;stroke-linecap:butt;stroke-linejoin:miter;stroke-dasharray:none;stroke-opacity:1" d="m -673.36459,107.15625 c -0.56364,10.22206 5.96922,30.80911 10e-6,37.04167 -0.30502,0.31847 -2.00271,0.4981 -2.24896,0.13229 -4.81782,-7.15678 -2.93911,-16.30206 -4.7625,-26.19374 -0.63952,-3.46934 -3.57188,-12.30314 -3.57188,-12.30314"/>
      <g transform="matrix(-1,0,0,1,-1370.8063,0)">
        <path style="fill:#4d705a;fill-opacity:1;fill-rule:evenodd;stroke:#000000;stroke-width:1;stroke-linecap:butt;stroke-linejoin:miter;stroke-dasharray:none;stroke-opacity:1" d="m -709.08332,67.468749 -19.84375,3.96875 v 10.583333 l 23.8125,-3.96875 c 2.15911,-4.450414 2.98732,-8.54818 -3.96875,-10.583333 z"/>
        <circle style="fill:#ffffff;fill-opacity:1;stroke:#000000;stroke-width:1;stroke-linecap:round;stroke-linejoin:round;stroke-dasharray:none" cx="-728.92706" cy="76.729164" r="5.2916665"/>
        <circle style="fill:#000000;fill-opacity:1;stroke:#000000;stroke-width:1;stroke-linecap:round;stroke-linejoin:round;stroke-dasharray:none" cx="-728.92706" cy="76.729164" r="1.3229166"/>
      </g>
    </g></g></g></svg>
