<svg xmlns="http://www.w3.org/2000/svg" width="64" height="64" viewBox="0 0 64 64" fill="none" style="position: absolute; left: 0px; top: 0px; overflow: hidden;"><g transform="translate(-12.059125900268555 -68.93807983398438)"><g transform="scale(1.1097333242317455)"><g transform="matrix(0.35901408,0,0,0.35901408,242.02936,280.46042)" style="stroke-width:1;stroke-dasharray:none">
      <path style="fill:#4d5d4d;fill-opacity:1;fill-rule:evenodd;stroke:#000000;stroke-width:1;stroke-linecap:butt;stroke-linejoin:miter;stroke-dasharray:none;stroke-opacity:1" d="m -603.25,-488.15625 c -13.54597,-9.25388 -24.87015,-23.83818 -29.10416,-39.6875 -2.0612,-7.71577 -2.63796,-17.8239 2.64583,-23.8125 15.00166,-17.00274 43.47111,-15.875 66.14583,-15.875 22.67472,0 51.14417,-1.12774 66.14583,15.875 5.28379,5.9886 4.70703,16.09673 2.64583,23.8125 -4.23401,15.84932 -15.55819,30.43362 -29.10416,39.6875 -11.30527,7.72315 -25.99604,10.58333 -39.6875,10.58333 -13.69146,0 -28.38223,-2.86018 -39.6875,-10.58333 z"/>
      <ellipse style="fill:#000000;fill-opacity:1;stroke:none;stroke-width:1;stroke-linecap:round;stroke-linejoin:round;stroke-dasharray:none" cx="-571.5" cy="-526.52081" rx="2.6458333" ry="6.614583"/>
      <ellipse style="fill:#000000;fill-opacity:1;stroke:none;stroke-width:1;stroke-linecap:round;stroke-linejoin:round;stroke-dasharray:none" cx="555.625" cy="-526.52081" rx="2.6458333" ry="6.614583" transform="scale(-1,1)"/>
      <g transform="translate(-84.666667,-329.40625)" style="stroke-width:1;stroke-dasharray:none">
        <ellipse style="fill:#ffffff;fill-opacity:1;stroke:#000000;stroke-width:1;stroke-linecap:round;stroke-linejoin:round;stroke-dasharray:none" cx="-516.7417" cy="230.21295" rx="5.953135" ry="6.614583" transform="rotate(45.972419)"/>
        <path style="fill:#000000;fill-rule:evenodd;stroke:#000000;stroke-width:1;stroke-linecap:butt;stroke-linejoin:miter;stroke-dasharray:none;stroke-opacity:1" d="m -524.21251,-216.92398 c -2.06434,4.1465 -1.52684,7.79102 0,11.24462 1.52685,-3.45362 2.06435,-7.09812 0,-11.24462 z"/>
      </g>
      <g transform="matrix(-1,0,0,1,-1042.0483,-329.14167)" style="stroke-width:1;stroke-dasharray:none">
        <ellipse style="fill:#ffffff;fill-opacity:1;stroke:#000000;stroke-width:1;stroke-linecap:round;stroke-linejoin:round;stroke-dasharray:none" cx="-516.7417" cy="230.21295" rx="5.953135" ry="6.614583" transform="rotate(45.972419)"/>
        <path style="fill:#000000;fill-rule:evenodd;stroke:#000000;stroke-width:1;stroke-linecap:butt;stroke-linejoin:miter;stroke-dasharray:none;stroke-opacity:1" d="m -524.21251,-216.92398 c -2.06434,4.1465 -1.52684,7.79102 0,11.24462 1.52685,-3.45362 2.06435,-7.09812 0,-11.24462 z"/>
      </g>
      <path style="fill:#e3dbdb;fill-rule:evenodd;stroke:#000000;stroke-width:1;stroke-linecap:butt;stroke-linejoin:miter;stroke-dasharray:none;stroke-opacity:1" d="m -560.91667,-549.01042 c 0,0 1.01253,-2.84723 10e-6,-5.29166 -0.47731,-1.15232 -1.39858,-2.64583 -2.64584,-2.64583 -1.24726,0 -2.16853,1.49352 -2.64583,2.64583 -1.01252,2.44443 -10e-6,5.29166 -10e-6,5.29166"/>
      <path style="fill:#e3dbdb;fill-rule:evenodd;stroke:#000000;stroke-width:1;stroke-linecap:butt;stroke-linejoin:miter;stroke-dasharray:none;stroke-opacity:1" d="m -560.91666,-567.53125 c 0,0 1.01252,-5.49307 0,-7.9375 -0.47731,-1.15232 -1.39858,-2.64583 -2.64584,-2.64583 -1.24726,0 -2.16853,1.49352 -2.64583,2.64583 -1.01252,2.44443 0,7.9375 0,7.9375"/>
      <path style="fill:#e3dbdb;fill-rule:evenodd;stroke:#000000;stroke-width:1;stroke-linecap:butt;stroke-linejoin:miter;stroke-dasharray:none;stroke-opacity:1" d="m -609.3314,-554.04052 c 0,0 -0.90106,-2.88445 -3.17902,-4.23031 -1.07385,-0.63445 -2.70758,-1.27494 -3.70467,-0.52563 -0.9971,0.7493 -0.83634,2.49673 -0.52564,3.70466 0.65908,2.56243 3.17902,4.23031 3.17902,4.23031"/>
      <path style="fill:#e3dbdb;fill-rule:evenodd;stroke:#000000;stroke-width:1;stroke-linecap:butt;stroke-linejoin:miter;stroke-dasharray:none;stroke-opacity:1" d="m -613.83334,-562.23958 c 0,0 -2.49059,-4.9996 -4.76855,-6.34546 -1.07384,-0.63445 -2.70758,-1.27494 -3.70467,-0.52563 -0.9971,0.74931 -0.83633,2.49673 -0.52564,3.70466 0.65909,2.56243 4.76855,6.34546 4.76855,6.34546"/>
      <path style="fill:#e3dbdb;fill-rule:evenodd;stroke:#000000;stroke-width:1;stroke-linecap:butt;stroke-linejoin:miter;stroke-dasharray:none;stroke-opacity:1" d="m -517.7936,-554.04052 c 0,0 0.90106,-2.88445 3.17902,-4.23031 1.07385,-0.63445 2.70758,-1.27494 3.70467,-0.52563 0.9971,0.7493 0.83634,2.49673 0.52564,3.70466 -0.65908,2.56243 -3.17902,4.23031 -3.17902,4.23031"/>
      <path style="fill:#e3dbdb;fill-rule:evenodd;stroke:#000000;stroke-width:1;stroke-linecap:butt;stroke-linejoin:miter;stroke-dasharray:none;stroke-opacity:1" d="m -513.29167,-562.23958 c 0,0 2.49059,-4.9996 4.76855,-6.34546 1.07384,-0.63445 2.70758,-1.27494 3.70467,-0.52563 0.9971,0.74931 0.83633,2.49673 0.52564,3.70466 -0.65909,2.56243 -4.76855,6.34546 -4.76855,6.34546"/>
      <path style="fill:none;fill-rule:evenodd;stroke:#000000;stroke-width:1;stroke-linecap:butt;stroke-linejoin:miter;stroke-dasharray:none;stroke-opacity:1" d="m -593.98958,-505.35416 c 20.46377,5.37127 40.74317,5.21155 60.85417,0"/>
      <path style="fill:#e3dbdb;fill-rule:evenodd;stroke:#000000;stroke-width:1;stroke-linecap:butt;stroke-linejoin:miter;stroke-dasharray:none;stroke-opacity:1" d="m -560.91667,-560.91667 c 0,0 1.01252,-4.17015 0,-6.61458 -0.47731,-1.15232 -1.39858,-2.64583 -2.64584,-2.64583 -1.24726,0 -2.16853,1.49352 -2.64583,2.64583 -1.01252,2.44443 0,6.61458 0,6.61458"/>
    </g></g></g></svg>
