<svg xmlns="http://www.w3.org/2000/svg" width="64" height="64" viewBox="0 0 64 64" fill="none" style="position: absolute; left: 0px; top: 0px; overflow: hidden;"><g transform="translate(-16.961881637573242 -217.3196563720703)"><g transform="scale(1.1557925147329442)"><g transform="matrix(0.35901408,0,0,0.35901408,237.66939,436.58033)" style="stroke-width:1;stroke-dasharray:none">
      <path style="fill:#65b8b8;fill-opacity:1;fill-rule:evenodd;stroke:#000000;stroke-width:1;stroke-linecap:butt;stroke-linejoin:miter;stroke-dasharray:none;stroke-opacity:1" d="m -560.66529,-562.01944 c -16.44484,-12.82883 -32.22016,-40.21929 -30.1625,-64.29375 1.29509,-15.15244 28.17982,-31.75808 46.82343,-33.37407 18.64361,1.48416 45.52834,18.08979 46.82343,33.24223 2.05766,24.07446 -13.71766,51.46493 -30.1625,64.29375 -4.39213,3.42636 -11.08493,1.36832 -16.66093,1.43423 -5.576,0.0659 -12.2688,2.12396 -16.66093,-1.30239 z"/>
      <path style="fill:#aa4400;fill-rule:evenodd;stroke:#000000;stroke-width:1;stroke-linecap:butt;stroke-linejoin:miter;stroke-dasharray:none;stroke-opacity:1" d="m -512.25984,-646.52401 c 16.15176,-4.8252 21.86931,-13.67315 22.48958,-23.8125 15.35064,21.44876 1.58966,28.98812 -13.22916,33.07291"/>
      <path style="fill:#aa4400;fill-opacity:1;fill-rule:evenodd;stroke:#000000;stroke-width:1;stroke-linecap:butt;stroke-linejoin:miter;stroke-dasharray:none;stroke-opacity:1" d="m -497.70776,-628.00318 c 9.42052,5.09057 16.0718,-0.45848 21.16667,-6.61458 0.31302,13.7779 -6.7649,21.76682 -21.16667,17.19791"/>
      <g transform="matrix(-0.8474954,1.1373559,1.1373559,0.8474954,-1023.6737,508.30432)" style="stroke-width:0.705025;stroke-dasharray:none">
        <path style="fill:#ffffff;fill-rule:evenodd;stroke:#000000;stroke-width:0.705025;stroke-linecap:butt;stroke-linejoin:miter;stroke-dasharray:none;stroke-opacity:1" d="m -853.28125,-193.14583 c 0,0 3.77405,-2.67726 5.34864,-2.64246 1.52608,0.0337 5.23469,2.64246 5.23469,2.64246 0,0 -3.77471,2.70675 -5.375,2.68957 -1.60583,-0.0172 -5.20833,-2.68957 -5.20833,-2.68957 z"/>
        <ellipse style="fill:#000000;fill-opacity:1;stroke:#808000;stroke-width:0.705025;stroke-linecap:round;stroke-linejoin:round;stroke-dasharray:none" cx="-847.98956" cy="-193.14583" rx="1.8520629" ry="1.7249494"/>
      </g>
      <g transform="matrix(0.8474954,1.1373559,-1.1373559,0.8474954,-64.33499,508.30432)" style="stroke-width:0.705025;stroke-dasharray:none">
        <path style="fill:#ffffff;fill-rule:evenodd;stroke:#000000;stroke-width:0.705025;stroke-linecap:butt;stroke-linejoin:miter;stroke-dasharray:none;stroke-opacity:1" d="m -853.28125,-193.14583 c 0,0 3.77405,-2.67726 5.34864,-2.64246 1.52608,0.0337 5.23469,2.64246 5.23469,2.64246 0,0 -3.77471,2.70675 -5.375,2.68957 -1.60583,-0.0172 -5.20833,-2.68957 -5.20833,-2.68957 z"/>
        <ellipse style="fill:#000000;fill-opacity:1;stroke:#808000;stroke-width:0.705025;stroke-linecap:round;stroke-linejoin:round;stroke-dasharray:none" cx="-847.98956" cy="-193.14583" rx="1.8520629" ry="1.7249494"/>
      </g>
      <path style="fill:none;fill-rule:evenodd;stroke:#000000;stroke-width:1;stroke-linecap:butt;stroke-linejoin:miter;stroke-dasharray:none;stroke-opacity:1" d="m -540.04109,-601.54485 v 10.58334"/>
      <path style="fill:none;fill-rule:evenodd;stroke:#000000;stroke-width:1;stroke-linecap:butt;stroke-linejoin:miter;stroke-dasharray:none;stroke-opacity:1" d="m -547.97859,-601.54485 v 10.58334"/>
      <path style="fill:none;fill-rule:evenodd;stroke:#000000;stroke-width:1;stroke-linecap:butt;stroke-linejoin:miter;stroke-dasharray:none;stroke-opacity:1" d="m -554.59318,-583.02401 c 0,0 6.63916,5.29166 10.58334,5.29166 3.94417,0 10.58333,-5.29166 10.58333,-5.29166"/>
      <path style="fill:#aa4400;fill-opacity:1;fill-rule:evenodd;stroke:#000000;stroke-width:1;stroke-linecap:butt;stroke-linejoin:miter;stroke-dasharray:none;stroke-opacity:1" d="m -575.75984,-646.52401 c -16.15176,-4.8252 -21.86931,-13.67315 -22.48958,-23.8125 -15.35064,21.44876 -1.58966,28.98812 13.22916,33.07291"/>
      <path style="fill:#aa4400;fill-opacity:1;fill-rule:evenodd;stroke:#000000;stroke-width:1;stroke-linecap:butt;stroke-linejoin:miter;stroke-dasharray:none;stroke-opacity:1" d="m -590.31192,-628.00318 c -9.42052,5.09057 -16.0718,-0.45848 -21.16667,-6.61458 -0.31302,13.7779 6.7649,21.76682 21.16667,17.19791"/>
      <path style="fill:#aa4400;fill-opacity:1;fill-rule:evenodd;stroke:#000000;stroke-width:1;stroke-linecap:butt;stroke-linejoin:miter;stroke-dasharray:none;stroke-opacity:1" d="m -586.34318,-598.89901 c -12.29755,12.64628 -15.33884,3.74055 -21.16666,1.32291 0.63415,18.43156 14.98758,21.35354 27.78125,13.22917"/>
      <path style="fill:#aa4400;fill-opacity:1;fill-rule:evenodd;stroke:#000000;stroke-width:1;stroke-linecap:butt;stroke-linejoin:miter;stroke-dasharray:none;stroke-opacity:1" d="m -501.6765,-598.89901 c 12.29755,12.64628 15.33884,3.74055 21.16666,1.32291 -0.63415,18.43156 -14.98758,21.35354 -27.78125,13.22917"/>
      <path style="fill:#aa4400;fill-opacity:1;fill-rule:evenodd;stroke:#000000;stroke-width:1;stroke-linecap:butt;stroke-linejoin:miter;stroke-dasharray:none;stroke-opacity:1" d="m -548.10781,-657.1357 c 0.79241,-4.8539 0.31757,-10.76884 3.96875,-13.22917 4.21804,3.71954 2.98352,8.73895 3.96875,13.22917"/>
      <path style="fill:#aa4400;fill-opacity:1;fill-rule:evenodd;stroke:#000000;stroke-width:1;stroke-linecap:butt;stroke-linejoin:miter;stroke-dasharray:none;stroke-opacity:1" d="m -547.20551,-639.16566 c 0.61222,-3.75018 0.24536,-8.32012 3.0663,-10.22099 3.2589,2.87375 2.30509,6.7518 3.06629,10.22099"/>
    </g></g></g></svg>
