<svg xmlns="http://www.w3.org/2000/svg" xmlns:xlink="http://www.w3.org/1999/xlink" width="64" height="64" viewBox="0 0 64 64"><defs id="defs355716">
    <rect x="172" y="97" width="745" height="239" id="rect276290"/>
    <color-profile name="Agfa-:-Swop-Standard" xmlns:xlink="http://www.w3.org/1999/xlink" xlink:href="file:///C:/WINDOWS/system32/spool/drivers/color/RSWOP.icm" id="color-profile294613"/>
    <linearGradient xmlns:inkscape="http://www.inkscape.org/namespaces/inkscape" inkscape:collect="always" id="linearGradient140439">
      <stop style="stop-color:#a4a870;stop-opacity:1;" offset="0" id="stop140435"/>
      <stop style="stop-color:#a4a870;stop-opacity:0;" offset="1" id="stop140437"/>
    </linearGradient>
    <linearGradient xmlns:inkscape="http://www.inkscape.org/namespaces/inkscape" inkscape:collect="always" id="linearGradient140390">
      <stop style="stop-color:#359676;stop-opacity:1;" offset="0" id="stop140386"/>
      <stop style="stop-color:#4a6a5e;stop-opacity:0;" offset="1" id="stop140388"/>
    </linearGradient>
    <linearGradient xmlns:inkscape="http://www.inkscape.org/namespaces/inkscape" inkscape:collect="always" id="linearGradient139515">
      <stop style="stop-color:#dbd764;stop-opacity:1;" offset="0" id="stop139511"/>
      <stop style="stop-color:#dbd764;stop-opacity:0;" offset="0.56578946" id="stop139513"/>
    </linearGradient>
    <linearGradient xmlns:inkscape="http://www.inkscape.org/namespaces/inkscape" inkscape:collect="always" id="linearGradient139325">
      <stop style="stop-color:#161c16;stop-opacity:1;" offset="0" id="stop139321"/>
      <stop style="stop-color:#6e836c;stop-opacity:0;" offset="1" id="stop139323"/>
    </linearGradient>
    <linearGradient xmlns:inkscape="http://www.inkscape.org/namespaces/inkscape" inkscape:collect="always" id="linearGradient387614">
      <stop style="stop-color:#a4a870;stop-opacity:1;" offset="0" id="stop387610"/>
      <stop style="stop-color:#a4a870;stop-opacity:0;" offset="1" id="stop387612"/>
    </linearGradient>
    <linearGradient xmlns:inkscape="http://www.inkscape.org/namespaces/inkscape" inkscape:collect="always" id="linearGradient387421">
      <stop style="stop-color:#344533;stop-opacity:1;" offset="0" id="stop387417"/>
      <stop style="stop-color:#1d251d;stop-opacity:0;" offset="1" id="stop387419"/>
    </linearGradient>
    <linearGradient xmlns:inkscape="http://www.inkscape.org/namespaces/inkscape" inkscape:collect="always" xmlns:xlink="http://www.w3.org/1999/xlink" xlink:href="#linearGradient206680" id="linearGradient206682" x1="168.01042" y1="262.08701" x2="168.01042" y2="247.38542" gradientUnits="userSpaceOnUse"/>
    <linearGradient xmlns:inkscape="http://www.inkscape.org/namespaces/inkscape" inkscape:collect="always" id="linearGradient206680">
      <stop style="stop-color:#dbd764;stop-opacity:0;" offset="0.38377193" id="stop206678"/>
      <stop style="stop-color:#dbd764;stop-opacity:1;" offset="1" id="stop206676"/>
    </linearGradient>
    <linearGradient xmlns:inkscape="http://www.inkscape.org/namespaces/inkscape" inkscape:collect="always" xmlns:xlink="http://www.w3.org/1999/xlink" xlink:href="#linearGradient216292" id="linearGradient216294" x1="168.01042" y1="236.00833" x2="168.01042" y2="248.97292" gradientUnits="userSpaceOnUse" gradientTransform="translate(8.4073796,-0.78650088)"/>
    <linearGradient xmlns:inkscape="http://www.inkscape.org/namespaces/inkscape" inkscape:collect="always" id="linearGradient216292">
      <stop style="stop-color:#359676;stop-opacity:1;" offset="0" id="stop216288"/>
      <stop style="stop-color:#4a6a5f;stop-opacity:0;" offset="1" id="stop216290"/>
    </linearGradient>
    <linearGradient xmlns:inkscape="http://www.inkscape.org/namespaces/inkscape" inkscape:collect="always" xmlns:xlink="http://www.w3.org/1999/xlink" xlink:href="#linearGradient387421" id="linearGradient387423" x1="31.75" y1="155.31041" x2="31.921236" y2="171.18663" gradientUnits="userSpaceOnUse"/>
    <linearGradient xmlns:inkscape="http://www.inkscape.org/namespaces/inkscape" inkscape:collect="always" xmlns:xlink="http://www.w3.org/1999/xlink" xlink:href="#linearGradient387614" id="linearGradient387616" x1="45.011326" y1="158.73975" x2="51.59375" y2="162.71875" gradientUnits="userSpaceOnUse" gradientTransform="translate(2.9601329,-0.98671096)"/>
    <linearGradient xmlns:inkscape="http://www.inkscape.org/namespaces/inkscape" inkscape:collect="always" xmlns:xlink="http://www.w3.org/1999/xlink" xlink:href="#linearGradient387614" id="linearGradient387620" gradientUnits="userSpaceOnUse" x1="45.011326" y1="158.73975" x2="51.593746" y2="162.71875" gradientTransform="matrix(-1,0,0,1,108.79346,-0.98671096)"/>
    <linearGradient xmlns:inkscape="http://www.inkscape.org/namespaces/inkscape" inkscape:collect="always" xmlns:xlink="http://www.w3.org/1999/xlink" xlink:href="#linearGradient139325" id="linearGradient139327" x1="70" y1="21" x2="70" y2="37" gradientUnits="userSpaceOnUse"/>
    <linearGradient xmlns:inkscape="http://www.inkscape.org/namespaces/inkscape" inkscape:collect="always" xmlns:xlink="http://www.w3.org/1999/xlink" xlink:href="#linearGradient139515" id="linearGradient139517" x1="70.426315" y1="1.5429174" x2="70.46106" y2="18.249472" gradientUnits="userSpaceOnUse"/>
    <linearGradient xmlns:inkscape="http://www.inkscape.org/namespaces/inkscape" inkscape:collect="always" xmlns:xlink="http://www.w3.org/1999/xlink" xlink:href="#linearGradient140390" id="linearGradient140392" x1="90.084175" y1="1.3586814" x2="90" y2="16" gradientUnits="userSpaceOnUse"/>
    <linearGradient xmlns:inkscape="http://www.inkscape.org/namespaces/inkscape" inkscape:collect="always" xmlns:xlink="http://www.w3.org/1999/xlink" xlink:href="#linearGradient140439" id="linearGradient140441" x1="90.01368" y1="24.010059" x2="94.88681" y2="28.136377" gradientUnits="userSpaceOnUse"/>
    <linearGradient xmlns:inkscape="http://www.inkscape.org/namespaces/inkscape" inkscape:collect="always" xmlns:xlink="http://www.w3.org/1999/xlink" xlink:href="#linearGradient140439" id="linearGradient140449" gradientUnits="userSpaceOnUse" x1="90.01368" y1="24.010059" x2="94.88681" y2="28.136377" gradientTransform="matrix(-1,0,0,1,190,0)"/>
    <radialGradient xmlns:inkscape="http://www.inkscape.org/namespaces/inkscape" inkscape:collect="always" xmlns:xlink="http://www.w3.org/1999/xlink" xlink:href="#linearGradient177339" id="radialGradient177341-3-0" cx="44.135807" cy="121.46028" fx="44.135807" fy="121.46028" r="1.1079427" gradientTransform="matrix(1.5015971,0,0,0.99367432,-157.6034,-4.3351259)" gradientUnits="userSpaceOnUse"/>
    <linearGradient xmlns:inkscape="http://www.inkscape.org/namespaces/inkscape" inkscape:collect="always" id="linearGradient177339">
      <stop style="stop-color:#b98d3e;stop-opacity:1;" offset="0" id="stop177335"/>
      <stop style="stop-color:#c9c943;stop-opacity:0;" offset="1" id="stop177337"/>
    </linearGradient>
    <radialGradient xmlns:inkscape="http://www.inkscape.org/namespaces/inkscape" inkscape:collect="always" xmlns:xlink="http://www.w3.org/1999/xlink" xlink:href="#linearGradient177339" id="radialGradient177345-7-9" gradientUnits="userSpaceOnUse" gradientTransform="matrix(1.5015971,0,0,0.99367432,-195.50719,-68.761115)" cx="44.135807" cy="121.46028" fx="44.135807" fy="121.46028" r="1.1079427"/>
    <rect x="172" y="97" width="745" height="239" id="rect276290-2"/>
    <rect x="172" y="97" width="745" height="239" id="rect276290-2-5"/>
    <rect x="172" y="97" width="745" height="239" id="rect276290-2-5-7"/>
  </defs><g transform="translate(-939.5490960272114 -111.2404249258558) scale(3.0746937886429517)"><g><g transform="translate(275.14466,-72.251931)">
      <g transform="matrix(-0.5,0,0,0.5,59.568005,59.861982)">
        <g transform="translate(-36.948122,19.750209)">
          <g>
            <path style="fill:none;fill-rule:evenodd;stroke:#000000;stroke-width:0.264583px;stroke-linecap:butt;stroke-linejoin:miter;stroke-opacity:1" d="m 59.437706,97.989374 2.629296,-2.64583"/>
            <path style="fill:none;fill-rule:evenodd;stroke:#000000;stroke-width:0.264583px;stroke-linecap:butt;stroke-linejoin:miter;stroke-opacity:1" d="m 60.760622,94.020624 2.645833,2.64583"/>
            <path style="fill:none;fill-rule:evenodd;stroke:#000000;stroke-width:0.264583px;stroke-linecap:butt;stroke-linejoin:miter;stroke-opacity:1" d="m 59.437705,95.343544 2.645833,-2.64584"/>
            <path style="fill:none;fill-rule:evenodd;stroke:#000000;stroke-width:0.264583px;stroke-linecap:butt;stroke-linejoin:miter;stroke-opacity:1" d="m 63.406455,94.020624 -2.645833,-2.64583"/>
            <path style="fill:none;fill-rule:evenodd;stroke:#000000;stroke-width:0.264583px;stroke-linecap:butt;stroke-linejoin:miter;stroke-opacity:1" d="m 59.437705,92.697704 2.645833,-2.645831"/>
            <path style="fill:none;fill-rule:evenodd;stroke:#000000;stroke-width:0.264583px;stroke-linecap:butt;stroke-linejoin:miter;stroke-opacity:1" d="m 62.083539,90.051874 1.322916,1.32292 0.529167,1.32291 -0.529167,1.32292 0.529167,1.32292 -0.529166,1.32291"/>
            <path style="fill:none;fill-rule:evenodd;stroke:#000000;stroke-width:0.264583px;stroke-linecap:butt;stroke-linejoin:miter;stroke-opacity:1" d="m 59.437705,92.697704 -0.529166,1.32292 0.529166,1.37253 -0.529166,1.2733 0.529166,1.32292"/>
            <path style="fill:none;fill-rule:evenodd;stroke:#000000;stroke-width:0.264583px;stroke-linecap:butt;stroke-linejoin:miter;stroke-opacity:1" d="m 59.437707,103.28104 2.629296,-2.64583"/>
            <path style="fill:none;fill-rule:evenodd;stroke:#000000;stroke-width:0.264583px;stroke-linecap:butt;stroke-linejoin:miter;stroke-opacity:1" d="m 60.760623,99.312294 2.645833,2.645826"/>
            <path style="fill:none;fill-rule:evenodd;stroke:#000000;stroke-width:0.264583px;stroke-linecap:butt;stroke-linejoin:miter;stroke-opacity:1" d="m 59.437706,100.63521 2.645833,-2.645836"/>
            <path style="fill:none;fill-rule:evenodd;stroke:#000000;stroke-width:0.264583px;stroke-linecap:butt;stroke-linejoin:miter;stroke-opacity:1" d="m 63.406456,99.312294 -2.645833,-2.64583"/>
            <path style="fill:none;fill-rule:evenodd;stroke:#000000;stroke-width:0.264583px;stroke-linecap:butt;stroke-linejoin:miter;stroke-opacity:1" d="m 59.437706,97.989374 2.645833,-2.64583"/>
            <path style="fill:none;fill-rule:evenodd;stroke:#000000;stroke-width:0.264583px;stroke-linecap:butt;stroke-linejoin:miter;stroke-opacity:1" d="m 62.08354,95.343544 1.322916,1.32292 0.529167,1.32291 -0.529167,1.32292 0.529167,1.322916 -0.529166,1.32291"/>
            <path style="fill:none;fill-rule:evenodd;stroke:#000000;stroke-width:0.264583px;stroke-linecap:butt;stroke-linejoin:miter;stroke-opacity:1" d="m 59.437706,97.989374 -0.529166,1.32292 0.529166,1.372526 -0.529166,1.2733 0.529166,1.32292"/>
            <path style="fill:none;fill-rule:evenodd;stroke:#000000;stroke-width:0.264583px;stroke-linecap:butt;stroke-linejoin:miter;stroke-opacity:1" d="m 59.437706,108.5727 2.629296,-2.64583"/>
            <path style="fill:none;fill-rule:evenodd;stroke:#000000;stroke-width:0.264583px;stroke-linecap:butt;stroke-linejoin:miter;stroke-opacity:1" d="m 60.760622,104.60395 2.645833,2.64583"/>
            <path style="fill:none;fill-rule:evenodd;stroke:#000000;stroke-width:0.264583px;stroke-linecap:butt;stroke-linejoin:miter;stroke-opacity:1" d="m 59.437705,105.92687 2.645833,-2.64584"/>
            <path style="fill:none;fill-rule:evenodd;stroke:#000000;stroke-width:0.264583px;stroke-linecap:butt;stroke-linejoin:miter;stroke-opacity:1" d="m 63.406455,104.60395 -2.645833,-2.64583"/>
            <path style="fill:none;fill-rule:evenodd;stroke:#000000;stroke-width:0.264583px;stroke-linecap:butt;stroke-linejoin:miter;stroke-opacity:1" d="m 59.437705,103.28103 2.645833,-2.64583"/>
            <path style="fill:none;fill-rule:evenodd;stroke:#000000;stroke-width:0.264583px;stroke-linecap:butt;stroke-linejoin:miter;stroke-opacity:1" d="m 62.083539,100.6352 1.322916,1.32292 0.529167,1.32291 -0.529167,1.32292 0.529167,1.32292 -0.529166,1.32291"/>
            <path style="fill:none;fill-rule:evenodd;stroke:#000000;stroke-width:0.264583px;stroke-linecap:butt;stroke-linejoin:miter;stroke-opacity:1" d="m 59.437705,103.28103 -0.529166,1.32292 0.529166,1.37253 -0.529166,1.2733 0.529166,1.32292"/>
            <path style="fill:none;fill-rule:evenodd;stroke:#000000;stroke-width:0.264583px;stroke-linecap:butt;stroke-linejoin:miter;stroke-opacity:1" d="m 59.437707,113.86437 2.474793,2.5523"/>
            <path style="fill:none;fill-rule:evenodd;stroke:#000000;stroke-width:0.264583px;stroke-linecap:butt;stroke-linejoin:miter;stroke-opacity:1" d="m 61.9125,116.41667 2.116667,-2.64584 0.529166,-1.32291"/>
            <path style="fill:none;fill-rule:evenodd;stroke:#000000;stroke-width:0.264583px;stroke-linecap:butt;stroke-linejoin:miter;stroke-opacity:1" d="m 59.437706,111.21854 2.645833,-2.64584"/>
            <path style="fill:none;fill-rule:evenodd;stroke:#000000;stroke-width:0.264583px;stroke-linecap:butt;stroke-linejoin:miter;stroke-opacity:1" d="m 63.406456,109.89562 -2.645833,-2.64583"/>
            <path style="fill:none;fill-rule:evenodd;stroke:#000000;stroke-width:0.264583px;stroke-linecap:butt;stroke-linejoin:miter;stroke-opacity:1" d="m 59.437706,108.5727 2.645833,-2.64583"/>
            <path style="fill:none;fill-rule:evenodd;stroke:#000000;stroke-width:0.264583px;stroke-linecap:butt;stroke-linejoin:miter;stroke-opacity:1" d="m 62.08354,105.92687 1.322916,1.32292 0.529167,1.32291 -0.529167,1.32292 0.358127,1.49396 0.79375,1.05834"/>
            <path style="fill:none;fill-rule:evenodd;stroke:#000000;stroke-width:0.264583px;stroke-linecap:butt;stroke-linejoin:miter;stroke-opacity:1" d="m 59.437706,108.5727 -0.529166,1.32292 0.529166,1.37253 -0.529166,1.2733 0.529166,1.32292"/>
          </g>
          <rect style="fill:#f4e6dc;fill-opacity:1;stroke:#000000;stroke-width:0.265;stroke-linecap:round;stroke-linejoin:miter;stroke-dasharray:none;stroke-opacity:1" width="5.0270834" height="1.0583333" x="59.002083" y="110.59583"/>
        </g>
        <path style="fill:#c9c943;fill-opacity:1;stroke:#000000;stroke-width:0.125197;stroke-linecap:round;stroke-linejoin:miter;stroke-dasharray:none;stroke-opacity:1" d="m 92.888428,417.88647 c -0.68911,0.71401 -1.450865,1.39791 -2.095459,2.13037 3.005893,2.95282 5.907999,6.03277 9.012695,8.87256 0.608636,-1.25612 1.079656,-2.60278 1.608156,-3.89917 -0.66167,-1.56386 -1.2027,-3.20632 -1.93781,-4.72236 -1.501194,-1.48238 -2.972619,-3.03564 -4.492124,-4.47417 -0.698486,0.69759 -1.396972,1.39518 -2.095458,2.09277 z" transform="scale(0.26458333)"/>
        <path style="fill:#c9c943;fill-opacity:1;stroke:#000000;stroke-width:0.125197;stroke-linecap:round;stroke-linejoin:miter;stroke-dasharray:none;stroke-opacity:1" d="m 89.978515,420.79394 c -1.516124,1.57277 -3.151303,3.06659 -4.594892,4.6874 -0.599535,1.51603 -1.218114,3.02841 -1.805742,4.54673 0.536651,1.30682 0.972154,2.66797 1.596679,3.93262 3.073529,-2.8948 6.018648,-5.97003 9.032471,-8.94385 -1.359286,-1.41968 -2.807094,-2.86642 -4.228516,-4.2229 z" transform="scale(0.26458333)"/>
        <path style="fill:#c9c943;fill-opacity:1;stroke:#000000;stroke-width:0.125197;stroke-linecap:round;stroke-linejoin:miter;stroke-dasharray:none;stroke-opacity:1" d="m 92.888428,427.88647 c -0.68911,0.71401 -1.450865,1.39791 -2.095459,2.13037 3.005893,2.95282 5.907999,6.03277 9.012695,8.87256 0.608636,-1.25612 1.079656,-2.60278 1.608156,-3.89917 -0.66167,-1.56387 -1.2027,-3.20632 -1.93781,-4.72236 -1.501194,-1.48238 -2.972619,-3.03564 -4.492124,-4.47417 -0.698486,0.69759 -1.396972,1.39518 -2.095458,2.09277 z" transform="scale(0.26458333)"/>
        <path style="fill:#c9c943;fill-opacity:1;stroke:#000000;stroke-width:0.125197;stroke-linecap:round;stroke-linejoin:miter;stroke-dasharray:none;stroke-opacity:1" d="m 87.7854,432.9895 c -0.870724,1.03716 -2.207563,1.76219 -2.588583,3.12772 -0.53518,1.2978 -1.090074,2.5916 -1.612589,3.89206 0.530085,1.24799 0.975376,2.55602 1.54541,3.77441 0.705823,-0.22302 1.159456,-0.99483 1.737872,-1.44305 2.45045,-2.44299 4.94436,-4.8836 7.338056,-7.35749 -1.410987,-1.38741 -2.792333,-2.84632 -4.221679,-4.18945 -0.732829,0.73193 -1.465658,1.46387 -2.198487,2.1958 z" transform="scale(0.26458333)"/>
        <path style="fill:#c9c943;fill-opacity:1;stroke:#000000;stroke-width:0.125197;stroke-linecap:round;stroke-linejoin:miter;stroke-dasharray:none;stroke-opacity:1" d="m 92.888428,437.88647 c -0.68911,0.71401 -1.450865,1.39791 -2.095459,2.13037 3.005893,2.95282 5.907999,6.03277 9.012695,8.87256 0.608636,-1.25612 1.079656,-2.60278 1.608156,-3.89917 -0.66167,-1.56387 -1.2027,-3.20632 -1.93781,-4.72236 -1.501194,-1.48238 -2.972619,-3.03564 -4.492124,-4.47417 -0.698486,0.69759 -1.396972,1.39518 -2.095458,2.09277 z" transform="scale(0.26458333)"/>
        <path style="fill:#c9c943;fill-opacity:1;stroke:#000000;stroke-width:0.125197;stroke-linecap:round;stroke-linejoin:miter;stroke-dasharray:none;stroke-opacity:1" d="m 89.978515,440.79394 c -1.516124,1.57277 -3.151303,3.06659 -4.594892,4.6874 -0.599535,1.51603 -1.218114,3.02841 -1.805742,4.54673 0.536651,1.30682 0.972154,2.66797 1.596679,3.93262 3.073529,-2.8948 6.018648,-5.97003 9.032471,-8.94385 -1.359286,-1.41968 -2.807094,-2.86642 -4.228516,-4.2229 z" transform="scale(0.26458333)"/>
        <path style="fill:#c9c943;fill-opacity:1;stroke:#000000;stroke-width:0.125197;stroke-linecap:round;stroke-linejoin:miter;stroke-dasharray:none;stroke-opacity:1" d="m 92.888428,447.88647 c -0.68911,0.71401 -1.450865,1.39791 -2.095459,2.13037 3.005893,2.95282 5.907999,6.03277 9.012695,8.87256 0.608636,-1.25612 1.079656,-2.60278 1.608156,-3.89917 -0.66167,-1.56387 -1.2027,-3.20632 -1.93781,-4.72236 -1.501194,-1.48238 -2.972619,-3.03564 -4.492124,-4.47417 -0.698486,0.69759 -1.396972,1.39518 -2.095458,2.09277 z" transform="scale(0.26458333)"/>
        <path style="fill:#c9c943;fill-opacity:1;stroke:#000000;stroke-width:0.125197;stroke-linecap:round;stroke-linejoin:miter;stroke-dasharray:none;stroke-opacity:1" d="m 87.7854,452.9895 c -0.870724,1.03716 -2.207563,1.76219 -2.588583,3.12772 -0.53518,1.2978 -1.090074,2.5916 -1.612589,3.89206 0.530085,1.24799 0.975376,2.55602 1.54541,3.77441 0.705823,-0.22302 1.159456,-0.99483 1.737872,-1.44305 2.45045,-2.44299 4.94436,-4.8836 7.338056,-7.35749 -1.410987,-1.38741 -2.792333,-2.84632 -4.221679,-4.18945 -0.732829,0.73193 -1.465658,1.46387 -2.198487,2.1958 z" transform="scale(0.26458333)"/>
        <path style="fill:#c9c943;fill-opacity:1;stroke:#000000;stroke-width:0.125197;stroke-linecap:round;stroke-linejoin:miter;stroke-dasharray:none;stroke-opacity:1" d="m 92.888428,457.88647 c -0.68911,0.71401 -1.450865,1.39791 -2.095459,2.13037 3.005893,2.95282 5.907999,6.03277 9.012695,8.87256 0.608636,-1.25612 1.079656,-2.60278 1.608156,-3.89917 -0.66167,-1.56387 -1.2027,-3.20632 -1.93781,-4.72236 -1.501194,-1.48238 -2.972619,-3.03564 -4.492124,-4.47417 -0.698486,0.69759 -1.396972,1.39518 -2.095458,2.09277 z" transform="scale(0.26458333)"/>
        <path style="fill:#c9c943;fill-opacity:1;stroke:#000000;stroke-width:0.125197;stroke-linecap:round;stroke-linejoin:miter;stroke-dasharray:none;stroke-opacity:1" d="m 89.978515,460.79394 c -1.516124,1.57277 -3.151303,3.06659 -4.594892,4.6874 -0.599535,1.51603 -1.218114,3.02841 -1.805742,4.54673 0.536651,1.30682 0.972154,2.66797 1.596679,3.93262 3.073529,-2.8948 6.018648,-5.97003 9.032471,-8.94385 -1.359286,-1.41968 -2.807094,-2.86642 -4.228516,-4.2229 z" transform="scale(0.26458333)"/>
        <path style="fill:#c9c943;fill-opacity:1;stroke:#000000;stroke-width:0.125197;stroke-linecap:round;stroke-linejoin:miter;stroke-dasharray:none;stroke-opacity:1" d="m 92.888428,467.88647 c -0.68911,0.71401 -1.450865,1.39791 -2.095459,2.13037 3.005893,2.95282 5.907999,6.03277 9.012695,8.87256 0.608636,-1.25612 1.079656,-2.60278 1.608156,-3.89917 -0.66167,-1.56387 -1.2027,-3.20632 -1.93781,-4.72236 -1.501194,-1.48238 -2.972619,-3.03564 -4.492124,-4.47417 -0.698486,0.69759 -1.396972,1.39518 -2.095458,2.09277 z" transform="scale(0.26458333)"/>
        <path style="fill:#c9c943;fill-opacity:1;stroke:#000000;stroke-width:0.125197;stroke-linecap:round;stroke-linejoin:miter;stroke-dasharray:none;stroke-opacity:1" d="m 87.7854,472.9895 c -0.870724,1.03716 -2.207563,1.76219 -2.588583,3.12772 -0.53518,1.2978 -1.090074,2.5916 -1.612589,3.89206 0.530085,1.24799 0.975376,2.55602 1.54541,3.77441 0.705823,-0.22302 1.159456,-0.99483 1.737872,-1.44305 2.45045,-2.443 4.94436,-4.8836 7.338056,-7.35749 -1.410987,-1.38741 -2.792333,-2.84632 -4.221679,-4.18945 -0.732829,0.73193 -1.465658,1.46387 -2.198487,2.1958 z" transform="scale(0.26458333)"/>
        <path style="fill:#c9c943;fill-opacity:1;stroke:#000000;stroke-width:0.125197;stroke-linecap:round;stroke-linejoin:miter;stroke-dasharray:none;stroke-opacity:1" d="m 92.888428,477.88647 c -0.68911,0.71401 -1.450865,1.39791 -2.095459,2.13037 3.005893,2.95282 5.907999,6.03277 9.012695,8.87256 0.608636,-1.25612 1.079656,-2.60278 1.608156,-3.89917 -0.66167,-1.56387 -1.2027,-3.20632 -1.93781,-4.72236 -1.501194,-1.48238 -2.972619,-3.03564 -4.492124,-4.47417 -0.698486,0.69759 -1.396972,1.39518 -2.095458,2.09277 z" transform="scale(0.26458333)"/>
        <path style="fill:#c9c943;fill-opacity:1;stroke:#000000;stroke-width:0.125197;stroke-linecap:round;stroke-linejoin:miter;stroke-dasharray:none;stroke-opacity:1" d="m 89.978515,480.79394 c -1.51612,1.57277 -3.151312,3.06658 -4.594885,4.6874 -0.598389,1.51339 -1.215728,3.02312 -1.802576,4.53868 0.269651,0.68469 0.500532,1.39965 0.793946,2.06592 0.922968,-0.004 1.849954,0.0122 2.770508,-0.005 2.34501,-2.37098 4.760817,-4.71272 7.061279,-7.1023 -1.413013,-1.38583 -2.797022,-2.84388 -4.228272,-4.18506 z" transform="scale(0.26458333)"/>
        <path style="fill:#c9c943;fill-opacity:1;stroke:#000000;stroke-width:0.125197;stroke-linecap:round;stroke-linejoin:miter;stroke-dasharray:none;stroke-opacity:1" d="m 91.856445,488.91846 c -1.01614,1.0605 -2.177627,2.09224 -3.104492,3.17041 3.723787,-0.0214 7.48839,0.0427 11.186767,-0.032 -0.228967,-0.82961 -0.175087,-1.81507 -0.997594,-2.32065 -1.324227,-1.30536 -2.618697,-2.68168 -3.96139,-3.94302 -1.041097,1.04175 -2.082194,2.0835 -3.123291,3.12525 z" transform="scale(0.26458333)"/>
        <path style="fill:#c9c943;fill-opacity:1;stroke:#000000;stroke-width:0.125197;stroke-linecap:round;stroke-linejoin:miter;stroke-dasharray:none;stroke-opacity:1" d="m 93.281006,497.1914 c -2.84676,0.0215 -5.706475,1.5e-4 -8.545166,0.0483 -0.382185,0.92166 -0.784482,1.83914 -1.154053,2.76343 0.678196,1.59017 1.237653,3.25684 1.986142,4.8017 2.91788,2.95836 5.726466,6.03686 8.752627,8.88141 2.624275,-3.03596 5.0695,-6.26037 7.605954,-9.38306 0.60004,-1.53452 1.23557,-3.06486 1.81348,-4.60205 -0.64838,-0.84438 -1.27825,-1.71105 -1.93799,-2.54175 -2.84033,0.0107 -5.680663,0.0213 -8.520994,0.032 z" transform="scale(0.26458333)"/>
      </g>
      <g transform="matrix(0.5,0,0,0.5,22.107469,59.810853)">
        <g transform="translate(-36.948122,19.750209)">
          <g>
            <path style="fill:none;fill-rule:evenodd;stroke:#000000;stroke-width:0.264583px;stroke-linecap:butt;stroke-linejoin:miter;stroke-opacity:1" d="m 59.437706,97.989374 2.629296,-2.64583"/>
            <path style="fill:none;fill-rule:evenodd;stroke:#000000;stroke-width:0.264583px;stroke-linecap:butt;stroke-linejoin:miter;stroke-opacity:1" d="m 60.760622,94.020624 2.645833,2.64583"/>
            <path style="fill:none;fill-rule:evenodd;stroke:#000000;stroke-width:0.264583px;stroke-linecap:butt;stroke-linejoin:miter;stroke-opacity:1" d="m 59.437705,95.343544 2.645833,-2.64584"/>
            <path style="fill:none;fill-rule:evenodd;stroke:#000000;stroke-width:0.264583px;stroke-linecap:butt;stroke-linejoin:miter;stroke-opacity:1" d="m 63.406455,94.020624 -2.645833,-2.64583"/>
            <path style="fill:none;fill-rule:evenodd;stroke:#000000;stroke-width:0.264583px;stroke-linecap:butt;stroke-linejoin:miter;stroke-opacity:1" d="m 59.437705,92.697704 2.645833,-2.645831"/>
            <path style="fill:none;fill-rule:evenodd;stroke:#000000;stroke-width:0.264583px;stroke-linecap:butt;stroke-linejoin:miter;stroke-opacity:1" d="m 62.083539,90.051874 1.322916,1.32292 0.529167,1.32291 -0.529167,1.32292 0.529167,1.32292 -0.529166,1.32291"/>
            <path style="fill:none;fill-rule:evenodd;stroke:#000000;stroke-width:0.264583px;stroke-linecap:butt;stroke-linejoin:miter;stroke-opacity:1" d="m 59.437705,92.697704 -0.529166,1.32292 0.529166,1.37253 -0.529166,1.2733 0.529166,1.32292"/>
            <path style="fill:none;fill-rule:evenodd;stroke:#000000;stroke-width:0.264583px;stroke-linecap:butt;stroke-linejoin:miter;stroke-opacity:1" d="m 59.437707,103.28104 2.629296,-2.64583"/>
            <path style="fill:none;fill-rule:evenodd;stroke:#000000;stroke-width:0.264583px;stroke-linecap:butt;stroke-linejoin:miter;stroke-opacity:1" d="m 60.760623,99.312294 2.645833,2.645826"/>
            <path style="fill:none;fill-rule:evenodd;stroke:#000000;stroke-width:0.264583px;stroke-linecap:butt;stroke-linejoin:miter;stroke-opacity:1" d="m 59.437706,100.63521 2.645833,-2.645836"/>
            <path style="fill:none;fill-rule:evenodd;stroke:#000000;stroke-width:0.264583px;stroke-linecap:butt;stroke-linejoin:miter;stroke-opacity:1" d="m 63.406456,99.312294 -2.645833,-2.64583"/>
            <path style="fill:none;fill-rule:evenodd;stroke:#000000;stroke-width:0.264583px;stroke-linecap:butt;stroke-linejoin:miter;stroke-opacity:1" d="m 59.437706,97.989374 2.645833,-2.64583"/>
            <path style="fill:none;fill-rule:evenodd;stroke:#000000;stroke-width:0.264583px;stroke-linecap:butt;stroke-linejoin:miter;stroke-opacity:1" d="m 62.08354,95.343544 1.322916,1.32292 0.529167,1.32291 -0.529167,1.32292 0.529167,1.322916 -0.529166,1.32291"/>
            <path style="fill:none;fill-rule:evenodd;stroke:#000000;stroke-width:0.264583px;stroke-linecap:butt;stroke-linejoin:miter;stroke-opacity:1" d="m 59.437706,97.989374 -0.529166,1.32292 0.529166,1.372526 -0.529166,1.2733 0.529166,1.32292"/>
            <path style="fill:none;fill-rule:evenodd;stroke:#000000;stroke-width:0.264583px;stroke-linecap:butt;stroke-linejoin:miter;stroke-opacity:1" d="m 59.437706,108.5727 2.629296,-2.64583"/>
            <path style="fill:none;fill-rule:evenodd;stroke:#000000;stroke-width:0.264583px;stroke-linecap:butt;stroke-linejoin:miter;stroke-opacity:1" d="m 60.760622,104.60395 2.645833,2.64583"/>
            <path style="fill:none;fill-rule:evenodd;stroke:#000000;stroke-width:0.264583px;stroke-linecap:butt;stroke-linejoin:miter;stroke-opacity:1" d="m 59.437705,105.92687 2.645833,-2.64584"/>
            <path style="fill:none;fill-rule:evenodd;stroke:#000000;stroke-width:0.264583px;stroke-linecap:butt;stroke-linejoin:miter;stroke-opacity:1" d="m 63.406455,104.60395 -2.645833,-2.64583"/>
            <path style="fill:none;fill-rule:evenodd;stroke:#000000;stroke-width:0.264583px;stroke-linecap:butt;stroke-linejoin:miter;stroke-opacity:1" d="m 59.437705,103.28103 2.645833,-2.64583"/>
            <path style="fill:none;fill-rule:evenodd;stroke:#000000;stroke-width:0.264583px;stroke-linecap:butt;stroke-linejoin:miter;stroke-opacity:1" d="m 62.083539,100.6352 1.322916,1.32292 0.529167,1.32291 -0.529167,1.32292 0.529167,1.32292 -0.529166,1.32291"/>
            <path style="fill:none;fill-rule:evenodd;stroke:#000000;stroke-width:0.264583px;stroke-linecap:butt;stroke-linejoin:miter;stroke-opacity:1" d="m 59.437705,103.28103 -0.529166,1.32292 0.529166,1.37253 -0.529166,1.2733 0.529166,1.32292"/>
            <path style="fill:none;fill-rule:evenodd;stroke:#000000;stroke-width:0.264583px;stroke-linecap:butt;stroke-linejoin:miter;stroke-opacity:1" d="m 59.437707,113.86437 2.474793,2.5523"/>
            <path style="fill:none;fill-rule:evenodd;stroke:#000000;stroke-width:0.264583px;stroke-linecap:butt;stroke-linejoin:miter;stroke-opacity:1" d="m 61.9125,116.41667 2.116667,-2.64584 0.529166,-1.32291"/>
            <path style="fill:none;fill-rule:evenodd;stroke:#000000;stroke-width:0.264583px;stroke-linecap:butt;stroke-linejoin:miter;stroke-opacity:1" d="m 59.437706,111.21854 2.645833,-2.64584"/>
            <path style="fill:none;fill-rule:evenodd;stroke:#000000;stroke-width:0.264583px;stroke-linecap:butt;stroke-linejoin:miter;stroke-opacity:1" d="m 63.406456,109.89562 -2.645833,-2.64583"/>
            <path style="fill:none;fill-rule:evenodd;stroke:#000000;stroke-width:0.264583px;stroke-linecap:butt;stroke-linejoin:miter;stroke-opacity:1" d="m 59.437706,108.5727 2.645833,-2.64583"/>
            <path style="fill:none;fill-rule:evenodd;stroke:#000000;stroke-width:0.264583px;stroke-linecap:butt;stroke-linejoin:miter;stroke-opacity:1" d="m 62.08354,105.92687 1.322916,1.32292 0.529167,1.32291 -0.529167,1.32292 0.358127,1.49396 0.79375,1.05834"/>
            <path style="fill:none;fill-rule:evenodd;stroke:#000000;stroke-width:0.264583px;stroke-linecap:butt;stroke-linejoin:miter;stroke-opacity:1" d="m 59.437706,108.5727 -0.529166,1.32292 0.529166,1.37253 -0.529166,1.2733 0.529166,1.32292"/>
          </g>
          <rect style="fill:#f4e6dc;fill-opacity:1;stroke:#000000;stroke-width:0.265;stroke-linecap:round;stroke-linejoin:miter;stroke-dasharray:none;stroke-opacity:1" width="5.0270834" height="1.0583333" x="59.002083" y="110.59583"/>
        </g>
        <path style="fill:#c9c943;fill-opacity:1;stroke:#000000;stroke-width:0.125197;stroke-linecap:round;stroke-linejoin:miter;stroke-dasharray:none;stroke-opacity:1" d="m 92.888428,417.88647 c -0.68911,0.71401 -1.450865,1.39791 -2.095459,2.13037 3.005893,2.95282 5.907999,6.03277 9.012695,8.87256 0.608636,-1.25612 1.079656,-2.60278 1.608156,-3.89917 -0.66167,-1.56386 -1.2027,-3.20632 -1.93781,-4.72236 -1.501194,-1.48238 -2.972619,-3.03564 -4.492124,-4.47417 -0.698486,0.69759 -1.396972,1.39518 -2.095458,2.09277 z" transform="scale(0.26458333)"/>
        <path style="fill:#c9c943;fill-opacity:1;stroke:#000000;stroke-width:0.125197;stroke-linecap:round;stroke-linejoin:miter;stroke-dasharray:none;stroke-opacity:1" d="m 89.978515,420.79394 c -1.516124,1.57277 -3.151303,3.06659 -4.594892,4.6874 -0.599535,1.51603 -1.218114,3.02841 -1.805742,4.54673 0.536651,1.30682 0.972154,2.66797 1.596679,3.93262 3.073529,-2.8948 6.018648,-5.97003 9.032471,-8.94385 -1.359286,-1.41968 -2.807094,-2.86642 -4.228516,-4.2229 z" transform="scale(0.26458333)"/>
        <path style="fill:#c9c943;fill-opacity:1;stroke:#000000;stroke-width:0.125197;stroke-linecap:round;stroke-linejoin:miter;stroke-dasharray:none;stroke-opacity:1" d="m 92.888428,427.88647 c -0.68911,0.71401 -1.450865,1.39791 -2.095459,2.13037 3.005893,2.95282 5.907999,6.03277 9.012695,8.87256 0.608636,-1.25612 1.079656,-2.60278 1.608156,-3.89917 -0.66167,-1.56387 -1.2027,-3.20632 -1.93781,-4.72236 -1.501194,-1.48238 -2.972619,-3.03564 -4.492124,-4.47417 -0.698486,0.69759 -1.396972,1.39518 -2.095458,2.09277 z" transform="scale(0.26458333)"/>
        <path style="fill:#c9c943;fill-opacity:1;stroke:#000000;stroke-width:0.125197;stroke-linecap:round;stroke-linejoin:miter;stroke-dasharray:none;stroke-opacity:1" d="m 87.7854,432.9895 c -0.870724,1.03716 -2.207563,1.76219 -2.588583,3.12772 -0.53518,1.2978 -1.090074,2.5916 -1.612589,3.89206 0.530085,1.24799 0.975376,2.55602 1.54541,3.77441 0.705823,-0.22302 1.159456,-0.99483 1.737872,-1.44305 2.45045,-2.44299 4.94436,-4.8836 7.338056,-7.35749 -1.410987,-1.38741 -2.792333,-2.84632 -4.221679,-4.18945 -0.732829,0.73193 -1.465658,1.46387 -2.198487,2.1958 z" transform="scale(0.26458333)"/>
        <path style="fill:#c9c943;fill-opacity:1;stroke:#000000;stroke-width:0.125197;stroke-linecap:round;stroke-linejoin:miter;stroke-dasharray:none;stroke-opacity:1" d="m 92.888428,437.88647 c -0.68911,0.71401 -1.450865,1.39791 -2.095459,2.13037 3.005893,2.95282 5.907999,6.03277 9.012695,8.87256 0.608636,-1.25612 1.079656,-2.60278 1.608156,-3.89917 -0.66167,-1.56387 -1.2027,-3.20632 -1.93781,-4.72236 -1.501194,-1.48238 -2.972619,-3.03564 -4.492124,-4.47417 -0.698486,0.69759 -1.396972,1.39518 -2.095458,2.09277 z" transform="scale(0.26458333)"/>
        <path style="fill:#c9c943;fill-opacity:1;stroke:#000000;stroke-width:0.125197;stroke-linecap:round;stroke-linejoin:miter;stroke-dasharray:none;stroke-opacity:1" d="m 89.978515,440.79394 c -1.516124,1.57277 -3.151303,3.06659 -4.594892,4.6874 -0.599535,1.51603 -1.218114,3.02841 -1.805742,4.54673 0.536651,1.30682 0.972154,2.66797 1.596679,3.93262 3.073529,-2.8948 6.018648,-5.97003 9.032471,-8.94385 -1.359286,-1.41968 -2.807094,-2.86642 -4.228516,-4.2229 z" transform="scale(0.26458333)"/>
        <path style="fill:#c9c943;fill-opacity:1;stroke:#000000;stroke-width:0.125197;stroke-linecap:round;stroke-linejoin:miter;stroke-dasharray:none;stroke-opacity:1" d="m 92.888428,447.88647 c -0.68911,0.71401 -1.450865,1.39791 -2.095459,2.13037 3.005893,2.95282 5.907999,6.03277 9.012695,8.87256 0.608636,-1.25612 1.079656,-2.60278 1.608156,-3.89917 -0.66167,-1.56387 -1.2027,-3.20632 -1.93781,-4.72236 -1.501194,-1.48238 -2.972619,-3.03564 -4.492124,-4.47417 -0.698486,0.69759 -1.396972,1.39518 -2.095458,2.09277 z" transform="scale(0.26458333)"/>
        <path style="fill:#c9c943;fill-opacity:1;stroke:#000000;stroke-width:0.125197;stroke-linecap:round;stroke-linejoin:miter;stroke-dasharray:none;stroke-opacity:1" d="m 87.7854,452.9895 c -0.870724,1.03716 -2.207563,1.76219 -2.588583,3.12772 -0.53518,1.2978 -1.090074,2.5916 -1.612589,3.89206 0.530085,1.24799 0.975376,2.55602 1.54541,3.77441 0.705823,-0.22302 1.159456,-0.99483 1.737872,-1.44305 2.45045,-2.44299 4.94436,-4.8836 7.338056,-7.35749 -1.410987,-1.38741 -2.792333,-2.84632 -4.221679,-4.18945 -0.732829,0.73193 -1.465658,1.46387 -2.198487,2.1958 z" transform="scale(0.26458333)"/>
        <path style="fill:#c9c943;fill-opacity:1;stroke:#000000;stroke-width:0.125197;stroke-linecap:round;stroke-linejoin:miter;stroke-dasharray:none;stroke-opacity:1" d="m 92.888428,457.88647 c -0.68911,0.71401 -1.450865,1.39791 -2.095459,2.13037 3.005893,2.95282 5.907999,6.03277 9.012695,8.87256 0.608636,-1.25612 1.079656,-2.60278 1.608156,-3.89917 -0.66167,-1.56387 -1.2027,-3.20632 -1.93781,-4.72236 -1.501194,-1.48238 -2.972619,-3.03564 -4.492124,-4.47417 -0.698486,0.69759 -1.396972,1.39518 -2.095458,2.09277 z" transform="scale(0.26458333)"/>
        <path style="fill:#c9c943;fill-opacity:1;stroke:#000000;stroke-width:0.125197;stroke-linecap:round;stroke-linejoin:miter;stroke-dasharray:none;stroke-opacity:1" d="m 89.978515,460.79394 c -1.516124,1.57277 -3.151303,3.06659 -4.594892,4.6874 -0.599535,1.51603 -1.218114,3.02841 -1.805742,4.54673 0.536651,1.30682 0.972154,2.66797 1.596679,3.93262 3.073529,-2.8948 6.018648,-5.97003 9.032471,-8.94385 -1.359286,-1.41968 -2.807094,-2.86642 -4.228516,-4.2229 z" transform="scale(0.26458333)"/>
        <path style="fill:#c9c943;fill-opacity:1;stroke:#000000;stroke-width:0.125197;stroke-linecap:round;stroke-linejoin:miter;stroke-dasharray:none;stroke-opacity:1" d="m 92.888428,467.88647 c -0.68911,0.71401 -1.450865,1.39791 -2.095459,2.13037 3.005893,2.95282 5.907999,6.03277 9.012695,8.87256 0.608636,-1.25612 1.079656,-2.60278 1.608156,-3.89917 -0.66167,-1.56387 -1.2027,-3.20632 -1.93781,-4.72236 -1.501194,-1.48238 -2.972619,-3.03564 -4.492124,-4.47417 -0.698486,0.69759 -1.396972,1.39518 -2.095458,2.09277 z" transform="scale(0.26458333)"/>
        <path style="fill:#c9c943;fill-opacity:1;stroke:#000000;stroke-width:0.125197;stroke-linecap:round;stroke-linejoin:miter;stroke-dasharray:none;stroke-opacity:1" d="m 87.7854,472.9895 c -0.870724,1.03716 -2.207563,1.76219 -2.588583,3.12772 -0.53518,1.2978 -1.090074,2.5916 -1.612589,3.89206 0.530085,1.24799 0.975376,2.55602 1.54541,3.77441 0.705823,-0.22302 1.159456,-0.99483 1.737872,-1.44305 2.45045,-2.443 4.94436,-4.8836 7.338056,-7.35749 -1.410987,-1.38741 -2.792333,-2.84632 -4.221679,-4.18945 -0.732829,0.73193 -1.465658,1.46387 -2.198487,2.1958 z" transform="scale(0.26458333)"/>
        <path style="fill:#c9c943;fill-opacity:1;stroke:#000000;stroke-width:0.125197;stroke-linecap:round;stroke-linejoin:miter;stroke-dasharray:none;stroke-opacity:1" d="m 92.888428,477.88647 c -0.68911,0.71401 -1.450865,1.39791 -2.095459,2.13037 3.005893,2.95282 5.907999,6.03277 9.012695,8.87256 0.608636,-1.25612 1.079656,-2.60278 1.608156,-3.89917 -0.66167,-1.56387 -1.2027,-3.20632 -1.93781,-4.72236 -1.501194,-1.48238 -2.972619,-3.03564 -4.492124,-4.47417 -0.698486,0.69759 -1.396972,1.39518 -2.095458,2.09277 z" transform="scale(0.26458333)"/>
        <path style="fill:#c9c943;fill-opacity:1;stroke:#000000;stroke-width:0.125197;stroke-linecap:round;stroke-linejoin:miter;stroke-dasharray:none;stroke-opacity:1" d="m 89.978515,480.79394 c -1.51612,1.57277 -3.151312,3.06658 -4.594885,4.6874 -0.598389,1.51339 -1.215728,3.02312 -1.802576,4.53868 0.269651,0.68469 0.500532,1.39965 0.793946,2.06592 0.922968,-0.004 1.849954,0.0122 2.770508,-0.005 2.34501,-2.37098 4.760817,-4.71272 7.061279,-7.1023 -1.413013,-1.38583 -2.797022,-2.84388 -4.228272,-4.18506 z" transform="scale(0.26458333)"/>
        <path style="fill:#c9c943;fill-opacity:1;stroke:#000000;stroke-width:0.125197;stroke-linecap:round;stroke-linejoin:miter;stroke-dasharray:none;stroke-opacity:1" d="m 91.856445,488.91846 c -1.01614,1.0605 -2.177627,2.09224 -3.104492,3.17041 3.723787,-0.0214 7.48839,0.0427 11.186767,-0.032 -0.228967,-0.82961 -0.175087,-1.81507 -0.997594,-2.32065 -1.324227,-1.30536 -2.618697,-2.68168 -3.96139,-3.94302 -1.041097,1.04175 -2.082194,2.0835 -3.123291,3.12525 z" transform="scale(0.26458333)"/>
        <path style="fill:#c9c943;fill-opacity:1;stroke:#000000;stroke-width:0.125197;stroke-linecap:round;stroke-linejoin:miter;stroke-dasharray:none;stroke-opacity:1" d="m 93.281006,497.1914 c -2.84676,0.0215 -5.706475,1.5e-4 -8.545166,0.0483 -0.382185,0.92166 -0.784482,1.83914 -1.154053,2.76343 0.678196,1.59017 1.237653,3.25684 1.986142,4.8017 2.91788,2.95836 5.726466,6.03686 8.752627,8.88141 2.624275,-3.03596 5.0695,-6.26037 7.605954,-9.38306 0.60004,-1.53452 1.23557,-3.06486 1.81348,-4.60205 -0.64838,-0.84438 -1.27825,-1.71105 -1.93799,-2.54175 -2.84033,0.0107 -5.680663,0.0213 -8.520994,0.032 z" transform="scale(0.26458333)"/>
      </g>
      <path style="fill:#f4e6dc;fill-opacity:1;stroke:#000000;stroke-width:0.608672;stroke-linecap:butt;stroke-linejoin:miter;stroke-miterlimit:4;stroke-dasharray:none;stroke-opacity:1" d="m 40.940421,111.33484 c -4.675557,-0.89646 -6.900561,4.44606 -6.098909,8.75605 0.448574,2.41171 1.677485,4.75844 4.025488,5.50496 1.198068,0.38091 3.688687,0.55088 4.94229,-0.18343 3.595108,-2.10587 4.241033,-7.22742 3.058397,-11.01769 -0.994322,-2.31783 -3.518381,-3.35473 -5.927266,-3.05989 z"/>
      <path d="m 40.104817,120.23404 c 0.0921,0.35702 -0.377531,1.051 -0.145739,1.46475 0.10907,0.19468 0.785445,0.32733 0.992132,0.33362 0.281006,0.009 0.980152,-0.11836 1.088199,-0.31673 0.209171,-0.38404 -0.342945,-1.0359 -0.241822,-1.49111" style="fill:none;stroke:#000000;stroke-width:0.3048;stroke-linecap:butt;stroke-linejoin:miter;stroke-miterlimit:4;stroke-dasharray:none;stroke-opacity:1"/>
      <path d="m 39.815347,123.25518 c 0,0 0.175519,0.008 1.211631,0.008 1.036111,0 1.16725,0.0454 1.16725,0.0454" style="fill:none;stroke:#000000;stroke-width:0.3048;stroke-linecap:butt;stroke-linejoin:miter;stroke-miterlimit:4;stroke-dasharray:none;stroke-opacity:1"/>
      <g transform="matrix(0.81,0,0,0.81,-75.106898,39.563097)">
        <path d="m 141.6289,98.049468 -0.49976,-0.502327 c -0.67061,-0.286579 -1.34123,-0.274634 -2.01184,0" style="fill:none;stroke:#000000;stroke-width:0.502327px;stroke-linecap:butt;stroke-linejoin:miter;stroke-opacity:1"/>
        <path d="m 141.04679,97.567348 c 0.0707,0.11478 0.26352,0.331815 0.26352,0.476539 0,0.416108 -0.48935,0.671626 -0.90549,0.671626 -0.41616,0 -0.99905,-0.372448 -0.99905,-0.788556 0,-0.148647 0.28865,-0.252223 0.36292,-0.368951 0.14405,-0.175476 0.47549,-0.232273 1.2781,0.0093 z" style="fill:#ffffff;stroke:#000000;stroke-width:0.251163;stroke-miterlimit:4;stroke-dashoffset:0;stroke-opacity:1"/>
        <circle r="0.2511633" cy="98.002426" cx="140.37302" style="fill:#000000;fill-opacity:1;fill-rule:nonzero;stroke:#000000;stroke-width:0.251163;stroke-miterlimit:4;stroke-dasharray:none;stroke-dashoffset:0;stroke-opacity:1"/>
      </g>
      <g transform="matrix(0.81,0,0,0.81,-74.932769,39.563097)">
        <path d="m 144.66971,98.049468 0.55646,-0.502327 c 0.75341,-0.305064 1.38854,-0.255274 1.95518,0" style="fill:none;stroke:#000000;stroke-width:0.502327px;stroke-linecap:butt;stroke-linejoin:miter;stroke-opacity:1"/>
        <g transform="translate(0.52916667)">
          <path d="m 146.07007,97.567292 c 0.0707,0.114779 0.48568,0.249964 0.48568,0.394687 0,0.416137 -0.71152,0.753477 -1.12768,0.753477 -0.41614,0 -0.94057,-0.278875 -0.94057,-0.695012 0,-0.148646 0.23009,-0.345739 0.30447,-0.462494 0.4594,-0.205422 0.90585,-0.329946 1.2781,0.0093 z" style="fill:#ffffff;stroke:#000000;stroke-width:0.251163;stroke-miterlimit:4;stroke-dashoffset:0;stroke-opacity:1"/>
          <circle r="0.2511633" cy="98.002426" cx="145.41222" style="fill:#000000;fill-opacity:1;fill-rule:nonzero;stroke:#000000;stroke-width:0.251163;stroke-miterlimit:4;stroke-dasharray:none;stroke-dashoffset:0;stroke-opacity:1"/>
        </g>
      </g>
      <path style="fill:#c9c943;fill-opacity:1;stroke:#000000;stroke-width:0.67056px;stroke-linecap:butt;stroke-linejoin:miter;stroke-opacity:1" d="m 33.559215,116.9145 c 4.023351,-0.67056 5.699743,-1.14723 7.376152,-2.82362 v -4.35865 c -6.081807,0.17135 -8.046718,2.48835 -7.376152,7.18227 z"/>
      <path d="m 48.311518,116.9145 c -4.023351,-0.67056 -5.871414,-1.09321 -7.376151,-2.82362 v -4.35865 c 5.94149,0.17135 8.046718,2.48835 7.376151,7.18227 z" style="fill:#c9c943;fill-opacity:1;stroke:#000000;stroke-width:0.67056px;stroke-linecap:butt;stroke-linejoin:miter;stroke-opacity:1"/>
      <path style="fill:none;fill-rule:evenodd;stroke:#000000;stroke-width:0.264583px;stroke-linecap:butt;stroke-linejoin:miter;stroke-opacity:1" d="m 36.545572,117.44193 3.704167,0.82682"/>
      <path style="fill:none;fill-rule:evenodd;stroke:#000000;stroke-width:0.264583px;stroke-linecap:butt;stroke-linejoin:miter;stroke-opacity:1" d="m 41.473437,118.26875 3.472656,-0.66146"/>
      <path style="fill:none;fill-rule:evenodd;stroke:#000000;stroke-width:0.264583px;stroke-linecap:butt;stroke-linejoin:miter;stroke-opacity:1" d="m 38.695312,116.91276 3.604948,0.0331"/>
      <path style="fill:none;fill-rule:evenodd;stroke:#000000;stroke-width:0.264583px;stroke-linecap:butt;stroke-linejoin:miter;stroke-opacity:1" d="m 40.018229,116.18515 h 2.215885"/>
      <ellipse style="fill:url(#radialGradient177341-3-0);fill-opacity:1;stroke:none;stroke-width:0.333294;stroke-linecap:round;stroke-linejoin:miter;stroke-dasharray:none;stroke-opacity:1" cx="-91.329201" cy="116.35683" rx="1.6636835" ry="1.1009343" transform="matrix(0.64975262,-0.76014573,0.8944254,0.44721717,0,0)"/>
      <ellipse style="fill:url(#radialGradient177345-7-9);fill-opacity:1;stroke:none;stroke-width:0.333294;stroke-linecap:round;stroke-linejoin:miter;stroke-dasharray:none;stroke-opacity:1" cx="-129.23299" cy="51.930836" rx="1.6636835" ry="1.1009343" transform="matrix(-0.64975262,-0.76014573,-0.8944254,0.44721717,0,0)"/>
    </g></g></g></svg>