<svg xmlns="http://www.w3.org/2000/svg" xmlns:xlink="http://www.w3.org/1999/xlink" width="64" height="64" viewBox="0 0 64 64"><defs id="defs355716">
    <rect x="172" y="97" width="745" height="239" id="rect276290"/>
    <color-profile name="Agfa-:-Swop-Standard" xmlns:xlink="http://www.w3.org/1999/xlink" xlink:href="file:///C:/WINDOWS/system32/spool/drivers/color/RSWOP.icm" id="color-profile294613"/>
    <linearGradient xmlns:inkscape="http://www.inkscape.org/namespaces/inkscape" inkscape:collect="always" id="linearGradient140439">
      <stop style="stop-color:#a4a870;stop-opacity:1;" offset="0" id="stop140435"/>
      <stop style="stop-color:#a4a870;stop-opacity:0;" offset="1" id="stop140437"/>
    </linearGradient>
    <linearGradient xmlns:inkscape="http://www.inkscape.org/namespaces/inkscape" inkscape:collect="always" id="linearGradient140390">
      <stop style="stop-color:#359676;stop-opacity:1;" offset="0" id="stop140386"/>
      <stop style="stop-color:#4a6a5e;stop-opacity:0;" offset="1" id="stop140388"/>
    </linearGradient>
    <linearGradient xmlns:inkscape="http://www.inkscape.org/namespaces/inkscape" inkscape:collect="always" id="linearGradient139515">
      <stop style="stop-color:#dbd764;stop-opacity:1;" offset="0" id="stop139511"/>
      <stop style="stop-color:#dbd764;stop-opacity:0;" offset="0.56578946" id="stop139513"/>
    </linearGradient>
    <linearGradient xmlns:inkscape="http://www.inkscape.org/namespaces/inkscape" inkscape:collect="always" id="linearGradient139325">
      <stop style="stop-color:#161c16;stop-opacity:1;" offset="0" id="stop139321"/>
      <stop style="stop-color:#6e836c;stop-opacity:0;" offset="1" id="stop139323"/>
    </linearGradient>
    <linearGradient xmlns:inkscape="http://www.inkscape.org/namespaces/inkscape" inkscape:collect="always" id="linearGradient387614">
      <stop style="stop-color:#a4a870;stop-opacity:1;" offset="0" id="stop387610"/>
      <stop style="stop-color:#a4a870;stop-opacity:0;" offset="1" id="stop387612"/>
    </linearGradient>
    <linearGradient xmlns:inkscape="http://www.inkscape.org/namespaces/inkscape" inkscape:collect="always" id="linearGradient387421">
      <stop style="stop-color:#344533;stop-opacity:1;" offset="0" id="stop387417"/>
      <stop style="stop-color:#1d251d;stop-opacity:0;" offset="1" id="stop387419"/>
    </linearGradient>
    <linearGradient xmlns:inkscape="http://www.inkscape.org/namespaces/inkscape" inkscape:collect="always" xmlns:xlink="http://www.w3.org/1999/xlink" xlink:href="#linearGradient206680" id="linearGradient206682" x1="168.01042" y1="262.08701" x2="168.01042" y2="247.38542" gradientUnits="userSpaceOnUse"/>
    <linearGradient xmlns:inkscape="http://www.inkscape.org/namespaces/inkscape" inkscape:collect="always" id="linearGradient206680">
      <stop style="stop-color:#dbd764;stop-opacity:0;" offset="0.38377193" id="stop206678"/>
      <stop style="stop-color:#dbd764;stop-opacity:1;" offset="1" id="stop206676"/>
    </linearGradient>
    <linearGradient xmlns:inkscape="http://www.inkscape.org/namespaces/inkscape" inkscape:collect="always" xmlns:xlink="http://www.w3.org/1999/xlink" xlink:href="#linearGradient216292" id="linearGradient216294" x1="168.01042" y1="236.00833" x2="168.01042" y2="248.97292" gradientUnits="userSpaceOnUse" gradientTransform="translate(8.4073796,-0.78650088)"/>
    <linearGradient xmlns:inkscape="http://www.inkscape.org/namespaces/inkscape" inkscape:collect="always" id="linearGradient216292">
      <stop style="stop-color:#359676;stop-opacity:1;" offset="0" id="stop216288"/>
      <stop style="stop-color:#4a6a5f;stop-opacity:0;" offset="1" id="stop216290"/>
    </linearGradient>
    <linearGradient xmlns:inkscape="http://www.inkscape.org/namespaces/inkscape" inkscape:collect="always" xmlns:xlink="http://www.w3.org/1999/xlink" xlink:href="#linearGradient387421" id="linearGradient387423" x1="31.75" y1="155.31041" x2="31.921236" y2="171.18663" gradientUnits="userSpaceOnUse"/>
    <linearGradient xmlns:inkscape="http://www.inkscape.org/namespaces/inkscape" inkscape:collect="always" xmlns:xlink="http://www.w3.org/1999/xlink" xlink:href="#linearGradient387614" id="linearGradient387616" x1="45.011326" y1="158.73975" x2="51.59375" y2="162.71875" gradientUnits="userSpaceOnUse" gradientTransform="translate(2.9601329,-0.98671096)"/>
    <linearGradient xmlns:inkscape="http://www.inkscape.org/namespaces/inkscape" inkscape:collect="always" xmlns:xlink="http://www.w3.org/1999/xlink" xlink:href="#linearGradient387614" id="linearGradient387620" gradientUnits="userSpaceOnUse" x1="45.011326" y1="158.73975" x2="51.593746" y2="162.71875" gradientTransform="matrix(-1,0,0,1,108.79346,-0.98671096)"/>
    <linearGradient xmlns:inkscape="http://www.inkscape.org/namespaces/inkscape" inkscape:collect="always" xmlns:xlink="http://www.w3.org/1999/xlink" xlink:href="#linearGradient139325" id="linearGradient139327" x1="70" y1="21" x2="70" y2="37" gradientUnits="userSpaceOnUse"/>
    <linearGradient xmlns:inkscape="http://www.inkscape.org/namespaces/inkscape" inkscape:collect="always" xmlns:xlink="http://www.w3.org/1999/xlink" xlink:href="#linearGradient139515" id="linearGradient139517" x1="70.426315" y1="1.5429174" x2="70.46106" y2="18.249472" gradientUnits="userSpaceOnUse"/>
    <linearGradient xmlns:inkscape="http://www.inkscape.org/namespaces/inkscape" inkscape:collect="always" xmlns:xlink="http://www.w3.org/1999/xlink" xlink:href="#linearGradient140390" id="linearGradient140392" x1="90.084175" y1="1.3586814" x2="90" y2="16" gradientUnits="userSpaceOnUse"/>
    <linearGradient xmlns:inkscape="http://www.inkscape.org/namespaces/inkscape" inkscape:collect="always" xmlns:xlink="http://www.w3.org/1999/xlink" xlink:href="#linearGradient140439" id="linearGradient140441" x1="90.01368" y1="24.010059" x2="94.88681" y2="28.136377" gradientUnits="userSpaceOnUse"/>
    <linearGradient xmlns:inkscape="http://www.inkscape.org/namespaces/inkscape" inkscape:collect="always" xmlns:xlink="http://www.w3.org/1999/xlink" xlink:href="#linearGradient140439" id="linearGradient140449" gradientUnits="userSpaceOnUse" x1="90.01368" y1="24.010059" x2="94.88681" y2="28.136377" gradientTransform="matrix(-1,0,0,1,190,0)"/>
    <radialGradient xmlns:inkscape="http://www.inkscape.org/namespaces/inkscape" inkscape:collect="always" xmlns:xlink="http://www.w3.org/1999/xlink" xlink:href="#linearGradient177339" id="radialGradient177341-3-0" cx="44.135807" cy="121.46028" fx="44.135807" fy="121.46028" r="1.1079427" gradientTransform="matrix(1.5015971,0,0,0.99367432,-157.6034,-4.3351259)" gradientUnits="userSpaceOnUse"/>
    <linearGradient xmlns:inkscape="http://www.inkscape.org/namespaces/inkscape" inkscape:collect="always" id="linearGradient177339">
      <stop style="stop-color:#b98d3e;stop-opacity:1;" offset="0" id="stop177335"/>
      <stop style="stop-color:#c9c943;stop-opacity:0;" offset="1" id="stop177337"/>
    </linearGradient>
    <radialGradient xmlns:inkscape="http://www.inkscape.org/namespaces/inkscape" inkscape:collect="always" xmlns:xlink="http://www.w3.org/1999/xlink" xlink:href="#linearGradient177339" id="radialGradient177345-7-9" gradientUnits="userSpaceOnUse" gradientTransform="matrix(1.5015971,0,0,0.99367432,-195.50719,-68.761115)" cx="44.135807" cy="121.46028" fx="44.135807" fy="121.46028" r="1.1079427"/>
    <rect x="172" y="97" width="745" height="239" id="rect276290-2"/>
    <rect x="172" y="97" width="745" height="239" id="rect276290-2-5"/>
    <rect x="172" y="97" width="745" height="239" id="rect276290-2-5-7"/>
  </defs><g transform="translate(-38.44792352602231 -200.11916229592072) scale(2.5485881525542107)"><g><g transform="translate(12.973775,-26.787982)">
      <path style="fill:#ececec;fill-opacity:1;fill-rule:evenodd;stroke:#000000;stroke-width:0.529167;stroke-linecap:butt;stroke-linejoin:miter;stroke-dasharray:none;stroke-opacity:1" d="M 7.9999998,117 9,126 h 12 l 1,-9"/>
      <g transform="translate(1.770833,0.32292)">
        <g transform="matrix(1.0590469,0,0,1.0590469,-53.560613,-19.795357)">
          <path style="fill:#738ceb;fill-opacity:1;fill-rule:evenodd;stroke:#000000;stroke-width:0.214312px;stroke-linecap:butt;stroke-linejoin:miter;stroke-opacity:1" d="m 56.820143,126.11924 c -1.939481,-1.01182 -2.292761,-1.22026 -3.804643,-2.3181 0.0073,0.35777 0.102137,0.75899 0.246905,1.16542 0.06026,0.16919 -0.954645,0.56511 -0.879787,0.73333 0.05346,0.12014 1.193768,0.0135 1.252295,0.13072 0.187682,0.37592 0.396363,0.73176 0.593478,1.03438 -0.335453,0.86952 -0.192985,0.78836 -0.453183,1.12183 0.08669,0.10488 1.092122,-0.27086 1.169114,-0.1866 0.181634,0.19884 0.339312,0.34428 0.487339,0.45457 0.428187,0.31901 0.775617,0.34388 1.388482,0.5164"/>
          <path style="fill:#ccb8f6;fill-opacity:1;fill-rule:evenodd;stroke:#000000;stroke-width:0.214312px;stroke-linecap:butt;stroke-linejoin:miter;stroke-opacity:1" d="m 58.128013,127.55394 c -1.939481,-1.01182 -2.757111,-1.58009 -4.268992,-2.67793 0.0039,1.36052 1.891689,3.41299 2.857932,3.43494 1.385201,0.0315 0.496513,1.63753 1.41106,1.89498"/>
        </g>
        <g transform="matrix(-1.0590469,0,0,1.0590469,79.355281,-18.92976)">
          <path style="fill:#738ceb;fill-opacity:1;fill-rule:evenodd;stroke:#000000;stroke-width:0.214312px;stroke-linecap:butt;stroke-linejoin:miter;stroke-opacity:1" d="m 56.820143,126.11924 c -1.939481,-1.01182 -2.292761,-1.22026 -3.804643,-2.3181 0.0073,0.35777 0.102137,0.75899 0.246905,1.16542 0.06026,0.16919 -0.954645,0.56511 -0.879787,0.73333 0.05346,0.12014 1.193768,0.0135 1.252295,0.13072 0.187682,0.37592 0.396363,0.73176 0.593478,1.03438 -0.335453,0.86952 -0.192985,0.78836 -0.453183,1.12183 0.08669,0.10488 1.092122,-0.27086 1.169114,-0.1866 0.181634,0.19884 0.339312,0.34428 0.487339,0.45457 0.428187,0.31901 0.775617,0.34388 1.388482,0.5164"/>
          <path style="fill:#ccb8f6;fill-opacity:1;fill-rule:evenodd;stroke:#000000;stroke-width:0.214312px;stroke-linecap:butt;stroke-linejoin:miter;stroke-opacity:1" d="m 58.128013,127.55394 c -1.939481,-1.01182 -2.757111,-1.58009 -4.268992,-2.67793 0.0039,1.36052 1.891689,3.41299 2.857932,3.43494 1.385201,0.0315 0.496513,1.63753 1.41106,1.89498"/>
        </g>
        <path style="fill:#738ceb;fill-opacity:1;fill-rule:evenodd;stroke:#000000;stroke-width:0.264583px;stroke-linecap:butt;stroke-linejoin:miter;stroke-opacity:1" d="m 6.229167,117.67708 c 0.097626,4.00268 3.5604163,8 7,8 3.439583,0 7,-4.02244 7,-8 0,-6.88425 -3.812169,-7.32014 -7,-7.34583 -3.218691,-0.0259 -7.1678586,0.46363 -7,7.34583 z"/>
        <path d="m 12.382774,118.85163 c 0.135432,0.52502 0.200459,2.83703 0.846393,2.8567 0.825018,0.0251 0.69302,-2.17582 0.846377,-2.86617" style="fill:none;stroke:#000000;stroke-width:0.3048;stroke-linecap:butt;stroke-linejoin:miter;stroke-miterlimit:4;stroke-dasharray:none;stroke-opacity:1"/>
        <path d="m 11.90625,122.50208 c 0,0 0.362573,0.43702 1.398685,0.43702 1.036111,0 1.776315,-0.43702 1.776315,-0.43702" style="fill:none;stroke:#000000;stroke-width:0.3048;stroke-linecap:butt;stroke-linejoin:miter;stroke-miterlimit:4;stroke-dasharray:none;stroke-opacity:1"/>
        <g transform="matrix(0.81,0,0,0.81,-102.82894,39.239025)">
          <path d="m 141.6289,98.049468 -0.49976,-0.502327 c -0.67061,-0.286579 -1.34123,-0.274634 -2.01184,0" style="fill:none;stroke:#000000;stroke-width:0.502327px;stroke-linecap:butt;stroke-linejoin:miter;stroke-opacity:1"/>
          <path d="m 141.04679,97.567348 c 0.0707,0.11478 0.26352,0.331815 0.26352,0.476539 0,0.416108 -0.48935,0.671626 -0.90549,0.671626 -0.41616,0 -0.99905,-0.372448 -0.99905,-0.788556 0,-0.148647 0.28865,-0.252223 0.36292,-0.368951 0.14405,-0.175476 0.47549,-0.232273 1.2781,0.0093 z" style="fill:#ffffff;stroke:#000000;stroke-width:0.251163;stroke-miterlimit:4;stroke-dashoffset:0;stroke-opacity:1"/>
          <circle r="0.2511633" cy="98.002426" cx="140.37302" style="fill:#000000;fill-opacity:1;fill-rule:nonzero;stroke:#000000;stroke-width:0.251163;stroke-miterlimit:4;stroke-dasharray:none;stroke-dashoffset:0;stroke-opacity:1"/>
        </g>
        <g transform="matrix(0.81,0,0,0.81,-102.65481,39.239025)">
          <path d="m 144.66971,98.049468 0.55646,-0.502327 c 0.75341,-0.305064 1.38854,-0.255274 1.95518,0" style="fill:none;stroke:#000000;stroke-width:0.502327px;stroke-linecap:butt;stroke-linejoin:miter;stroke-opacity:1"/>
          <g transform="translate(0.52916667)">
            <path d="m 146.07007,97.567292 c 0.0707,0.114779 0.48568,0.249964 0.48568,0.394687 0,0.416137 -0.71152,0.753477 -1.12768,0.753477 -0.41614,0 -0.94057,-0.278875 -0.94057,-0.695012 0,-0.148646 0.23009,-0.345739 0.30447,-0.462494 0.4594,-0.205422 0.90585,-0.329946 1.2781,0.0093 z" style="fill:#ffffff;stroke:#000000;stroke-width:0.251163;stroke-miterlimit:4;stroke-dashoffset:0;stroke-opacity:1"/>
            <circle r="0.2511633" cy="98.002426" cx="145.41222" style="fill:#000000;fill-opacity:1;fill-rule:nonzero;stroke:#000000;stroke-width:0.251163;stroke-miterlimit:4;stroke-dasharray:none;stroke-dashoffset:0;stroke-opacity:1"/>
          </g>
        </g>
        <path style="fill:#ececec;fill-opacity:1;stroke:#000000;stroke-width:0.529167;stroke-linecap:butt;stroke-linejoin:miter;stroke-dasharray:none;stroke-opacity:1" d="m 5.837172,116.59042 c 4.023351,-0.67056 5.699743,-1.14723 7.376152,-2.82362 v -4.35865 c -6.081807,0.17135 -8.046718,2.48835 -7.376152,7.18227 z"/>
        <path d="m 20.589475,116.59042 c -4.023351,-0.67056 -5.871414,-1.09321 -7.376151,-2.82362 v -4.35865 c 5.94149,0.17135 8.046718,2.48835 7.376151,7.18227 z" style="fill:#ececec;fill-opacity:1;stroke:#000000;stroke-width:0.529167;stroke-linecap:butt;stroke-linejoin:miter;stroke-dasharray:none;stroke-opacity:1"/>
        <path style="fill:none;fill-rule:evenodd;stroke:#000000;stroke-width:0.264583px;stroke-linecap:butt;stroke-linejoin:miter;stroke-opacity:1" d="M 11.90625,118.00417 11.1125,117.475 H 9.7895832"/>
        <path style="fill:none;fill-rule:evenodd;stroke:#000000;stroke-width:0.264583px;stroke-linecap:butt;stroke-linejoin:miter;stroke-opacity:1" d="m 14.552083,118.00417 0.79375,-0.52917 h 1.322917"/>
        <ellipse style="fill:#ffffff;fill-opacity:1;stroke:none;stroke-width:0.264583;stroke-linecap:round;stroke-linejoin:round;stroke-dasharray:none;stroke-opacity:1" cx="-20.869715" cy="118.39847" rx="0.39687499" ry="0.52916664" transform="rotate(-14.477563)"/>
        <ellipse style="fill:#ffffff;fill-opacity:1;stroke:none;stroke-width:0.264583;stroke-linecap:round;stroke-linejoin:round;stroke-dasharray:none;stroke-opacity:1" cx="58.913994" cy="106.21649" rx="0.66145831" ry="0.52916664" transform="rotate(23.577987)"/>
        <ellipse style="fill:#ffffff;fill-opacity:1;stroke:none;stroke-width:0.264583;stroke-linecap:round;stroke-linejoin:round;stroke-dasharray:none;stroke-opacity:1" cx="57.851978" cy="108.41205" rx="0.66145831" ry="0.26458332" transform="rotate(23.578227)"/>
        <ellipse style="fill:#ffffff;fill-opacity:1;stroke:none;stroke-width:0.264583;stroke-linecap:round;stroke-linejoin:round;stroke-dasharray:none;stroke-opacity:1" cx="32.399426" cy="120.23911" rx="0.79374999" ry="0.13229166" transform="rotate(9.5941428)"/>
        <ellipse style="fill:#ffffff;fill-opacity:1;stroke:none;stroke-width:0.264583;stroke-linecap:round;stroke-linejoin:round;stroke-dasharray:none;stroke-opacity:1" cx="79.189796" cy="86.62458" rx="0.66145831" ry="0.39687499" transform="rotate(36.869899)"/>
        <ellipse style="fill:#ffffff;fill-opacity:1;stroke:none;stroke-width:0.264583;stroke-linecap:round;stroke-linejoin:round;stroke-dasharray:none;stroke-opacity:1" cx="12.7" cy="116.15208" rx="0.26458332" ry="0.66145831"/>
        <ellipse style="fill:#ffffff;fill-opacity:1;stroke:none;stroke-width:0.264583;stroke-linecap:round;stroke-linejoin:round;stroke-dasharray:none;stroke-opacity:1" cx="8.2020836" cy="117.60729" rx="0.26458332" ry="0.39687499"/>
        <ellipse style="fill:#ffffff;fill-opacity:1;stroke:none;stroke-width:0.264583;stroke-linecap:round;stroke-linejoin:round;stroke-dasharray:none;stroke-opacity:1" cx="-46.498631" cy="111.78108" rx="0.39687499" ry="0.52916664" transform="matrix(-0.96824561,-0.25000086,-0.25000086,0.96824561,0,0)"/>
        <ellipse style="fill:#ffffff;fill-opacity:1;stroke:none;stroke-width:0.264583;stroke-linecap:round;stroke-linejoin:round;stroke-dasharray:none;stroke-opacity:1" cx="34.65432" cy="116.80418" rx="0.66145831" ry="0.52916664" transform="matrix(-0.91651648,0.39999694,0.39999694,0.91651648,0,0)"/>
        <ellipse style="fill:#ffffff;fill-opacity:1;stroke:none;stroke-width:0.264583;stroke-linecap:round;stroke-linejoin:round;stroke-dasharray:none;stroke-opacity:1" cx="33.592346" cy="118.99985" rx="0.66145831" ry="0.26458332" transform="matrix(-0.9165148,0.40000078,0.40000078,0.9165148,0,0)"/>
        <ellipse style="fill:#ffffff;fill-opacity:1;stroke:none;stroke-width:0.264583;stroke-linecap:round;stroke-linejoin:round;stroke-dasharray:none;stroke-opacity:1" cx="6.3002148" cy="124.65071" rx="0.79374999" ry="0.13229166" transform="matrix(-0.98601308,0.16666795,0.16666795,0.98601308,0,0)"/>
        <ellipse style="fill:#ffffff;fill-opacity:1;stroke:none;stroke-width:0.264583;stroke-linecap:round;stroke-linejoin:round;stroke-dasharray:none;stroke-opacity:1" cx="58.014248" cy="102.50624" rx="0.66145831" ry="0.39687499" transform="matrix(-0.79999999,0.60000002,0.60000002,0.79999999,0,0)"/>
        <ellipse style="fill:#ffffff;fill-opacity:1;stroke:none;stroke-width:0.264583;stroke-linecap:round;stroke-linejoin:round;stroke-dasharray:none;stroke-opacity:1" cx="-13.769438" cy="116.15208" rx="0.26458332" ry="0.66145831" transform="scale(-1,1)"/>
        <ellipse style="fill:#ffffff;fill-opacity:1;stroke:none;stroke-width:0.264583;stroke-linecap:round;stroke-linejoin:round;stroke-dasharray:none;stroke-opacity:1" cx="-18.267355" cy="117.60729" rx="0.26458332" ry="0.39687499" transform="scale(-1,1)"/>
      </g>
    </g></g></g></svg>