<svg xmlns="http://www.w3.org/2000/svg" xmlns:xlink="http://www.w3.org/1999/xlink" width="64" height="64" viewBox="0 0 64 64"><defs id="defs355716">
    <rect x="172" y="97" width="745" height="239" id="rect276290"/>
    <color-profile name="Agfa-:-Swop-Standard" xmlns:xlink="http://www.w3.org/1999/xlink" xlink:href="file:///C:/WINDOWS/system32/spool/drivers/color/RSWOP.icm" id="color-profile294613"/>
    <linearGradient xmlns:inkscape="http://www.inkscape.org/namespaces/inkscape" inkscape:collect="always" id="linearGradient140439">
      <stop style="stop-color:#a4a870;stop-opacity:1;" offset="0" id="stop140435"/>
      <stop style="stop-color:#a4a870;stop-opacity:0;" offset="1" id="stop140437"/>
    </linearGradient>
    <linearGradient xmlns:inkscape="http://www.inkscape.org/namespaces/inkscape" inkscape:collect="always" id="linearGradient140390">
      <stop style="stop-color:#359676;stop-opacity:1;" offset="0" id="stop140386"/>
      <stop style="stop-color:#4a6a5e;stop-opacity:0;" offset="1" id="stop140388"/>
    </linearGradient>
    <linearGradient xmlns:inkscape="http://www.inkscape.org/namespaces/inkscape" inkscape:collect="always" id="linearGradient139515">
      <stop style="stop-color:#dbd764;stop-opacity:1;" offset="0" id="stop139511"/>
      <stop style="stop-color:#dbd764;stop-opacity:0;" offset="0.56578946" id="stop139513"/>
    </linearGradient>
    <linearGradient xmlns:inkscape="http://www.inkscape.org/namespaces/inkscape" inkscape:collect="always" id="linearGradient139325">
      <stop style="stop-color:#161c16;stop-opacity:1;" offset="0" id="stop139321"/>
      <stop style="stop-color:#6e836c;stop-opacity:0;" offset="1" id="stop139323"/>
    </linearGradient>
    <linearGradient xmlns:inkscape="http://www.inkscape.org/namespaces/inkscape" inkscape:collect="always" id="linearGradient387614">
      <stop style="stop-color:#a4a870;stop-opacity:1;" offset="0" id="stop387610"/>
      <stop style="stop-color:#a4a870;stop-opacity:0;" offset="1" id="stop387612"/>
    </linearGradient>
    <linearGradient xmlns:inkscape="http://www.inkscape.org/namespaces/inkscape" inkscape:collect="always" id="linearGradient387421">
      <stop style="stop-color:#344533;stop-opacity:1;" offset="0" id="stop387417"/>
      <stop style="stop-color:#1d251d;stop-opacity:0;" offset="1" id="stop387419"/>
    </linearGradient>
    <linearGradient xmlns:inkscape="http://www.inkscape.org/namespaces/inkscape" inkscape:collect="always" xmlns:xlink="http://www.w3.org/1999/xlink" xlink:href="#linearGradient206680" id="linearGradient206682" x1="168.01042" y1="262.08701" x2="168.01042" y2="247.38542" gradientUnits="userSpaceOnUse"/>
    <linearGradient xmlns:inkscape="http://www.inkscape.org/namespaces/inkscape" inkscape:collect="always" id="linearGradient206680">
      <stop style="stop-color:#dbd764;stop-opacity:0;" offset="0.38377193" id="stop206678"/>
      <stop style="stop-color:#dbd764;stop-opacity:1;" offset="1" id="stop206676"/>
    </linearGradient>
    <linearGradient xmlns:inkscape="http://www.inkscape.org/namespaces/inkscape" inkscape:collect="always" xmlns:xlink="http://www.w3.org/1999/xlink" xlink:href="#linearGradient216292" id="linearGradient216294" x1="168.01042" y1="236.00833" x2="168.01042" y2="248.97292" gradientUnits="userSpaceOnUse" gradientTransform="translate(8.4073796,-0.78650088)"/>
    <linearGradient xmlns:inkscape="http://www.inkscape.org/namespaces/inkscape" inkscape:collect="always" id="linearGradient216292">
      <stop style="stop-color:#359676;stop-opacity:1;" offset="0" id="stop216288"/>
      <stop style="stop-color:#4a6a5f;stop-opacity:0;" offset="1" id="stop216290"/>
    </linearGradient>
    <linearGradient xmlns:inkscape="http://www.inkscape.org/namespaces/inkscape" inkscape:collect="always" xmlns:xlink="http://www.w3.org/1999/xlink" xlink:href="#linearGradient387421" id="linearGradient387423" x1="31.75" y1="155.31041" x2="31.921236" y2="171.18663" gradientUnits="userSpaceOnUse"/>
    <linearGradient xmlns:inkscape="http://www.inkscape.org/namespaces/inkscape" inkscape:collect="always" xmlns:xlink="http://www.w3.org/1999/xlink" xlink:href="#linearGradient387614" id="linearGradient387616" x1="45.011326" y1="158.73975" x2="51.59375" y2="162.71875" gradientUnits="userSpaceOnUse" gradientTransform="translate(2.9601329,-0.98671096)"/>
    <linearGradient xmlns:inkscape="http://www.inkscape.org/namespaces/inkscape" inkscape:collect="always" xmlns:xlink="http://www.w3.org/1999/xlink" xlink:href="#linearGradient387614" id="linearGradient387620" gradientUnits="userSpaceOnUse" x1="45.011326" y1="158.73975" x2="51.593746" y2="162.71875" gradientTransform="matrix(-1,0,0,1,108.79346,-0.98671096)"/>
    <linearGradient xmlns:inkscape="http://www.inkscape.org/namespaces/inkscape" inkscape:collect="always" xmlns:xlink="http://www.w3.org/1999/xlink" xlink:href="#linearGradient139325" id="linearGradient139327" x1="70" y1="21" x2="70" y2="37" gradientUnits="userSpaceOnUse"/>
    <linearGradient xmlns:inkscape="http://www.inkscape.org/namespaces/inkscape" inkscape:collect="always" xmlns:xlink="http://www.w3.org/1999/xlink" xlink:href="#linearGradient139515" id="linearGradient139517" x1="70.426315" y1="1.5429174" x2="70.46106" y2="18.249472" gradientUnits="userSpaceOnUse"/>
    <linearGradient xmlns:inkscape="http://www.inkscape.org/namespaces/inkscape" inkscape:collect="always" xmlns:xlink="http://www.w3.org/1999/xlink" xlink:href="#linearGradient140390" id="linearGradient140392" x1="90.084175" y1="1.3586814" x2="90" y2="16" gradientUnits="userSpaceOnUse"/>
    <linearGradient xmlns:inkscape="http://www.inkscape.org/namespaces/inkscape" inkscape:collect="always" xmlns:xlink="http://www.w3.org/1999/xlink" xlink:href="#linearGradient140439" id="linearGradient140441" x1="90.01368" y1="24.010059" x2="94.88681" y2="28.136377" gradientUnits="userSpaceOnUse"/>
    <linearGradient xmlns:inkscape="http://www.inkscape.org/namespaces/inkscape" inkscape:collect="always" xmlns:xlink="http://www.w3.org/1999/xlink" xlink:href="#linearGradient140439" id="linearGradient140449" gradientUnits="userSpaceOnUse" x1="90.01368" y1="24.010059" x2="94.88681" y2="28.136377" gradientTransform="matrix(-1,0,0,1,190,0)"/>
    <radialGradient xmlns:inkscape="http://www.inkscape.org/namespaces/inkscape" inkscape:collect="always" xmlns:xlink="http://www.w3.org/1999/xlink" xlink:href="#linearGradient177339" id="radialGradient177341-3-0" cx="44.135807" cy="121.46028" fx="44.135807" fy="121.46028" r="1.1079427" gradientTransform="matrix(1.5015971,0,0,0.99367432,-157.6034,-4.3351259)" gradientUnits="userSpaceOnUse"/>
    <linearGradient xmlns:inkscape="http://www.inkscape.org/namespaces/inkscape" inkscape:collect="always" id="linearGradient177339">
      <stop style="stop-color:#b98d3e;stop-opacity:1;" offset="0" id="stop177335"/>
      <stop style="stop-color:#c9c943;stop-opacity:0;" offset="1" id="stop177337"/>
    </linearGradient>
    <radialGradient xmlns:inkscape="http://www.inkscape.org/namespaces/inkscape" inkscape:collect="always" xmlns:xlink="http://www.w3.org/1999/xlink" xlink:href="#linearGradient177339" id="radialGradient177345-7-9" gradientUnits="userSpaceOnUse" gradientTransform="matrix(1.5015971,0,0,0.99367432,-195.50719,-68.761115)" cx="44.135807" cy="121.46028" fx="44.135807" fy="121.46028" r="1.1079427"/>
    <rect x="172" y="97" width="745" height="239" id="rect276290-2"/>
    <rect x="172" y="97" width="745" height="239" id="rect276290-2-5"/>
    <rect x="172" y="97" width="745" height="239" id="rect276290-2-5-7"/>
  </defs><g transform="translate(-66.06472852443538 -409.87478342972287) scale(3.824680335757531)"><g><g transform="translate(-13.844562,-4.8643054)">
      <g transform="matrix(-1,0,0,1,129.48455,111.71765)">
        <path style="fill:#4a6a53;fill-opacity:1;fill-rule:evenodd;stroke:#000000;stroke-width:0.364375;stroke-linecap:butt;stroke-linejoin:miter;stroke-dasharray:none;stroke-opacity:1" d="m 84.179162,4.612875 c -0.237886,0.43186 -0.687665,0.926563 -0.873114,1.494053 -0.344355,1.053679 -0.662827,2.16865 -0.582087,3.274216 0.05588,0.764929 0.775214,1.555719 1.164163,2.216731 C 86.123522,15.200034 89,16 90,16 c 1,0 4.030982,-0.752149 6.111863,-4.402125 0.388949,-0.661023 1.108305,-1.451802 1.164174,-2.216731 C 97.356777,8.275578 97.038294,7.160607 96.69395,6.106928 96.503848,5.525215 96.066741,5.053821 95.820825,4.612875 c -2.941697,-4.31596 -8.234765,-4.362974 -11.641663,0 z"/>
        <path style="fill:url(#linearGradient140392);fill-opacity:1;fill-rule:evenodd;stroke:#000000;stroke-width:0.364375;stroke-linecap:butt;stroke-linejoin:miter;stroke-dasharray:none;stroke-opacity:1" d="m 84.179162,4.612875 c -0.237886,0.43186 -0.687665,0.926563 -0.873114,1.494053 -0.344355,1.053679 -0.662827,2.16865 -0.582087,3.274216 0.05588,0.764929 0.775214,1.555719 1.164163,2.216731 C 86.123522,15.200034 89,16 90,16 c 1,0 4.030982,-0.752149 6.111863,-4.402125 0.388949,-0.661023 1.108305,-1.451802 1.164174,-2.216731 C 97.356777,8.275578 97.038294,7.160607 96.69395,6.106928 96.503848,5.525215 96.066741,5.053821 95.820825,4.612875 c -2.941697,-4.31596 -8.234765,-4.362974 -11.641663,0 z"/>
        <path style="fill:none;fill-rule:evenodd;stroke:#000000;stroke-width:0.291041px;stroke-linecap:butt;stroke-linejoin:miter;stroke-opacity:1" d="M 90,13.513912 V 16"/>
        <path style="fill:none;fill-rule:evenodd;stroke:#000000;stroke-width:0.291041px;stroke-linecap:butt;stroke-linejoin:miter;stroke-opacity:1" d="m 89.417912,9.851625 v 0.582087 c 0,0.225621 0.03377,0.442101 0.122221,0.588522 0.09317,0.15433 0.27962,0.284724 0.459899,0.284603 0.188001,-1.32e-4 0.382976,-0.135949 0.479182,-0.297473 0.08855,-0.148665 0.10285,-0.575652 0.10285,-0.575652 l 1.1e-5,-0.582087"/>
        <path style="fill:#ffffff;fill-opacity:1;stroke:#ffffff;stroke-width:0.0064413;stroke-linecap:round;stroke-linejoin:round;stroke-dasharray:none;stroke-opacity:1" d="m 93.639453,11.547453 c 0.02969,0.03504 -0.111852,-0.07878 -0.0888,-0.03811 0.07712,0.16977 0.159372,0.337738 0.227679,0.511233 -0.01188,0.02161 -0.04782,-0.0056 -0.06791,-0.0033 -0.183447,-0.03861 -0.36602,-0.08316 -0.550421,-0.115604 0.08207,0.191014 0.197696,0.548231 0.206199,0.756114 -0.01849,0.01501 -0.0403,-0.01983 -0.05913,-0.02392 -0.160782,-0.09771 -0.274549,-0.105317 -0.433351,-0.196859 0.01171,0.209113 -0.01773,0.315349 -0.002,0.524392 -0.02361,0.01956 -0.06001,-0.03334 -0.08781,-0.04115 -0.152556,-0.09606 -0.254762,-0.09232 -0.410215,-0.18374 0.02957,0.234831 -0.03956,0.60139 -0.03956,0.60139 0,0 -0.324145,-0.111315 -0.452439,-0.251986 -0.04607,0.205255 -0.04402,0.397926 -0.08847,0.603677 -0.02602,0.01285 -0.04461,-0.04297 -0.06668,-0.05735 -0.120893,-0.137007 -0.223792,-0.169574 -0.345399,-0.301643 -0.04889,0.198817 -0.09937,0.288773 -0.152365,0.486463 -0.01072,0.03008 -0.03682,-0.0037 -0.04554,-0.01642 -0.128148,-0.144536 -0.251219,-0.293686 -0.384014,-0.43402 -0.04878,0.201748 -0.08383,0.407951 -0.137897,0.608592 -0.02401,0.0071 -0.03567,-0.03423 -0.05424,-0.045 -0.146334,-0.164908 -0.265248,-0.108387 -0.410112,-0.274609 0.0067,-0.02963 0.06552,-0.02 0.0911,-0.03479 0.07838,-0.02076 0.159812,-0.04053 0.238247,-0.05509 0.243461,-0.07095 0.491688,-0.125267 0.737118,-0.189238 0.981163,-0.245242 1.726294,-1.046104 2.369548,-1.82649 l 0.0055,-0.0021 z"/>
        <path style="fill:#ffffff;fill-opacity:1;stroke:#ffffff;stroke-width:0.0064413;stroke-linecap:round;stroke-linejoin:round;stroke-dasharray:none;stroke-opacity:1" d="m 86.481709,11.503846 c -0.02969,0.03504 0.111852,-0.07878 0.0888,-0.03811 -0.07712,0.16977 -0.159372,0.337738 -0.227679,0.511233 0.01188,0.02161 0.04782,-0.0056 0.06791,-0.0033 0.183447,-0.03861 0.36602,-0.08316 0.550421,-0.115604 -0.08207,0.191014 -0.197696,0.548231 -0.206199,0.756114 0.01849,0.01501 0.0403,-0.01983 0.05913,-0.02392 0.160782,-0.09771 0.274549,-0.105317 0.433351,-0.196859 -0.01171,0.209113 0.01773,0.315349 0.002,0.524392 0.02361,0.01956 0.06001,-0.03334 0.08781,-0.04115 0.152556,-0.09606 0.254762,-0.09232 0.410215,-0.18374 -0.02957,0.234831 0.03956,0.60139 0.03956,0.60139 0,0 0.324145,-0.111315 0.452439,-0.251986 0.04607,0.205255 0.04402,0.397926 0.08847,0.603677 0.02602,0.01285 0.04461,-0.04297 0.06668,-0.05735 0.120893,-0.137007 0.223792,-0.169574 0.345399,-0.301643 0.04889,0.198817 0.09937,0.288773 0.152365,0.486463 0.01072,0.03008 0.03682,-0.0037 0.04554,-0.01642 0.128148,-0.144536 0.251219,-0.293686 0.384014,-0.43402 0.04878,0.201748 0.08383,0.407951 0.137897,0.608592 0.02401,0.0071 0.03567,-0.03423 0.05424,-0.045 0.146334,-0.164908 0.265248,-0.108387 0.410112,-0.274609 -0.0067,-0.02963 -0.06552,-0.02 -0.0911,-0.03479 -0.07838,-0.02076 -0.159812,-0.04053 -0.238247,-0.05509 -0.243461,-0.07095 -0.491688,-0.125267 -0.737118,-0.189238 -0.981163,-0.245242 -1.726294,-1.046104 -2.369548,-1.82649 l -0.0055,-0.0021 z"/>
        <path style="fill:none;fill-rule:evenodd;stroke:#000000;stroke-width:0.291041px;stroke-linecap:butt;stroke-linejoin:miter;stroke-opacity:1" d="m 86,11 c 1,1 2.5667,2.48481 4,2.513912 1.563544,0.03175 3.087316,-1.327193 4,-2.513912"/>
        <g transform="matrix(0.83726612,0.30473995,-0.30473995,0.83726612,-0.3277912,-116.41129)">
          <path d="m 141.6289,98.049468 -0.49976,-0.502327 c -0.67061,-0.286579 -1.34123,-0.274634 -2.01184,0" style="fill:none;stroke:#000000;stroke-width:0.502327px;stroke-linecap:butt;stroke-linejoin:miter;stroke-opacity:1"/>
          <path d="m 141.04679,97.567348 c 0.0707,0.11478 0.26352,0.331815 0.26352,0.476539 0,0.416108 -0.48935,0.671626 -0.90549,0.671626 -0.41616,0 -0.99905,-0.372448 -0.99905,-0.788556 0,-0.148647 0.28865,-0.252223 0.36292,-0.368951 0.14405,-0.175476 0.47549,-0.232273 1.2781,0.0093 z" style="fill:#ffffff;stroke:#000000;stroke-width:0.251163;stroke-miterlimit:4;stroke-dashoffset:0;stroke-opacity:1"/>
          <circle r="0.2511633" cy="98.002426" cx="140.37302" style="fill:#000000;fill-opacity:1;fill-rule:nonzero;stroke:#000000;stroke-width:0.251163;stroke-miterlimit:4;stroke-dasharray:none;stroke-dashoffset:0;stroke-opacity:1"/>
        </g>
        <g transform="matrix(0.80752023,-0.37655287,0.37655287,0.80752023,-62.217641,-15.768115)">
          <path d="m 144.66971,98.049468 0.55646,-0.502327 c 0.75341,-0.305064 1.38854,-0.255274 1.95518,0" style="fill:none;stroke:#000000;stroke-width:0.502327px;stroke-linecap:butt;stroke-linejoin:miter;stroke-opacity:1"/>
          <g transform="translate(0.52916667)">
            <path d="m 146.07007,97.567292 c 0.0707,0.114779 0.48568,0.249964 0.48568,0.394687 0,0.416137 -0.71152,0.753477 -1.12768,0.753477 -0.41614,0 -0.94057,-0.278875 -0.94057,-0.695012 0,-0.148646 0.23009,-0.345739 0.30447,-0.462494 0.4594,-0.205422 0.90585,-0.329946 1.2781,0.0093 z" style="fill:#ffffff;stroke:#000000;stroke-width:0.251163;stroke-miterlimit:4;stroke-dashoffset:0;stroke-opacity:1"/>
            <circle r="0.2511633" cy="98.002426" cx="145.41222" style="fill:#000000;fill-opacity:1;fill-rule:nonzero;stroke:#000000;stroke-width:0.251163;stroke-miterlimit:4;stroke-dasharray:none;stroke-dashoffset:0;stroke-opacity:1"/>
          </g>
        </g>
      </g>
      <circle style="fill:#cccccc;fill-opacity:1;stroke:#000000;stroke-width:0.132292;stroke-linecap:round;stroke-linejoin:round;stroke-dasharray:none;stroke-opacity:1" cx="36.785351" cy="120.29446" r="1.6453776"/>
      <circle style="fill:#cccccc;fill-opacity:1;stroke:#000000;stroke-width:0.105834;stroke-linecap:round;stroke-linejoin:round;stroke-dasharray:none;stroke-opacity:1" cx="36.785351" cy="120.29446" r="1.3163021"/>
      <path style="fill:none;fill-rule:evenodd;stroke:#000000;stroke-width:0.132292;stroke-linecap:butt;stroke-linejoin:miter;stroke-dasharray:none;stroke-opacity:1" d="m 36.785351,118.99635 v 2.61276"/>
      <path style="fill:none;fill-rule:evenodd;stroke:#000000;stroke-width:0.132292;stroke-linecap:butt;stroke-linejoin:miter;stroke-dasharray:none;stroke-opacity:1" d="m 37.232159,119.07513 -0.893616,2.4552"/>
      <path style="fill:none;fill-rule:evenodd;stroke:#000000;stroke-width:0.132292;stroke-linecap:butt;stroke-linejoin:miter;stroke-dasharray:none;stroke-opacity:1" d="m 37.625077,119.30198 -1.679452,2.0015"/>
      <path style="fill:none;fill-rule:evenodd;stroke:#000000;stroke-width:0.132292;stroke-linecap:butt;stroke-linejoin:miter;stroke-dasharray:none;stroke-opacity:1" d="m 37.916712,119.64954 -2.262722,1.30638"/>
      <path style="fill:none;fill-rule:evenodd;stroke:#000000;stroke-width:0.132292;stroke-linecap:butt;stroke-linejoin:miter;stroke-dasharray:none;stroke-opacity:1" d="m 38.071887,120.07588 -2.573072,0.4537"/>
      <path style="fill:none;fill-rule:evenodd;stroke:#000000;stroke-width:0.132292;stroke-linecap:butt;stroke-linejoin:miter;stroke-dasharray:none;stroke-opacity:1" d="m 38.071887,120.52958 -2.573072,-0.4537"/>
      <path style="fill:none;fill-rule:evenodd;stroke:#000000;stroke-width:0.132292;stroke-linecap:butt;stroke-linejoin:miter;stroke-dasharray:none;stroke-opacity:1" d="M 37.916712,120.95592 35.65399,119.64954"/>
      <path style="fill:none;fill-rule:evenodd;stroke:#000000;stroke-width:0.132292;stroke-linecap:butt;stroke-linejoin:miter;stroke-dasharray:none;stroke-opacity:1" d="m 37.625078,121.30348 -1.679454,-2.0015"/>
      <path style="fill:none;fill-rule:evenodd;stroke:#000000;stroke-width:0.132292;stroke-linecap:butt;stroke-linejoin:miter;stroke-dasharray:none;stroke-opacity:1" d="m 37.23216,121.53033 -0.893618,-2.4552"/>
      <circle style="fill:#cccccc;fill-opacity:1;stroke:#000000;stroke-width:0.0846672;stroke-linecap:round;stroke-linejoin:round;stroke-dasharray:none;stroke-opacity:1" cx="36.785351" cy="120.29446" r="1.0530417"/>
      <circle style="fill:#000000;fill-opacity:1;stroke:#000000;stroke-width:0.0677338;stroke-linecap:round;stroke-linejoin:round;stroke-dasharray:none;stroke-opacity:1" cx="36.785351" cy="120.29446" r="0.84243333"/>
    </g></g></g></svg>