<svg xmlns="http://www.w3.org/2000/svg" xmlns:xlink="http://www.w3.org/1999/xlink" width="64" height="64" viewBox="0 0 64 64"><defs id="defs355716">
    <rect x="172" y="97" width="745" height="239" id="rect276290"/>
    <color-profile name="Agfa-:-Swop-Standard" xmlns:xlink="http://www.w3.org/1999/xlink" xlink:href="file:///C:/WINDOWS/system32/spool/drivers/color/RSWOP.icm" id="color-profile294613"/>
    <linearGradient xmlns:inkscape="http://www.inkscape.org/namespaces/inkscape" inkscape:collect="always" id="linearGradient140439">
      <stop style="stop-color:#a4a870;stop-opacity:1;" offset="0" id="stop140435"/>
      <stop style="stop-color:#a4a870;stop-opacity:0;" offset="1" id="stop140437"/>
    </linearGradient>
    <linearGradient xmlns:inkscape="http://www.inkscape.org/namespaces/inkscape" inkscape:collect="always" id="linearGradient140390">
      <stop style="stop-color:#359676;stop-opacity:1;" offset="0" id="stop140386"/>
      <stop style="stop-color:#4a6a5e;stop-opacity:0;" offset="1" id="stop140388"/>
    </linearGradient>
    <linearGradient xmlns:inkscape="http://www.inkscape.org/namespaces/inkscape" inkscape:collect="always" id="linearGradient139515">
      <stop style="stop-color:#dbd764;stop-opacity:1;" offset="0" id="stop139511"/>
      <stop style="stop-color:#dbd764;stop-opacity:0;" offset="0.56578946" id="stop139513"/>
    </linearGradient>
    <linearGradient xmlns:inkscape="http://www.inkscape.org/namespaces/inkscape" inkscape:collect="always" id="linearGradient139325">
      <stop style="stop-color:#161c16;stop-opacity:1;" offset="0" id="stop139321"/>
      <stop style="stop-color:#6e836c;stop-opacity:0;" offset="1" id="stop139323"/>
    </linearGradient>
    <linearGradient xmlns:inkscape="http://www.inkscape.org/namespaces/inkscape" inkscape:collect="always" id="linearGradient387614">
      <stop style="stop-color:#a4a870;stop-opacity:1;" offset="0" id="stop387610"/>
      <stop style="stop-color:#a4a870;stop-opacity:0;" offset="1" id="stop387612"/>
    </linearGradient>
    <linearGradient xmlns:inkscape="http://www.inkscape.org/namespaces/inkscape" inkscape:collect="always" id="linearGradient387421">
      <stop style="stop-color:#344533;stop-opacity:1;" offset="0" id="stop387417"/>
      <stop style="stop-color:#1d251d;stop-opacity:0;" offset="1" id="stop387419"/>
    </linearGradient>
    <linearGradient xmlns:inkscape="http://www.inkscape.org/namespaces/inkscape" inkscape:collect="always" xmlns:xlink="http://www.w3.org/1999/xlink" xlink:href="#linearGradient206680" id="linearGradient206682" x1="168.01042" y1="262.08701" x2="168.01042" y2="247.38542" gradientUnits="userSpaceOnUse"/>
    <linearGradient xmlns:inkscape="http://www.inkscape.org/namespaces/inkscape" inkscape:collect="always" id="linearGradient206680">
      <stop style="stop-color:#dbd764;stop-opacity:0;" offset="0.38377193" id="stop206678"/>
      <stop style="stop-color:#dbd764;stop-opacity:1;" offset="1" id="stop206676"/>
    </linearGradient>
    <linearGradient xmlns:inkscape="http://www.inkscape.org/namespaces/inkscape" inkscape:collect="always" xmlns:xlink="http://www.w3.org/1999/xlink" xlink:href="#linearGradient216292" id="linearGradient216294" x1="168.01042" y1="236.00833" x2="168.01042" y2="248.97292" gradientUnits="userSpaceOnUse" gradientTransform="translate(8.4073796,-0.78650088)"/>
    <linearGradient xmlns:inkscape="http://www.inkscape.org/namespaces/inkscape" inkscape:collect="always" id="linearGradient216292">
      <stop style="stop-color:#359676;stop-opacity:1;" offset="0" id="stop216288"/>
      <stop style="stop-color:#4a6a5f;stop-opacity:0;" offset="1" id="stop216290"/>
    </linearGradient>
    <linearGradient xmlns:inkscape="http://www.inkscape.org/namespaces/inkscape" inkscape:collect="always" xmlns:xlink="http://www.w3.org/1999/xlink" xlink:href="#linearGradient387421" id="linearGradient387423" x1="31.75" y1="155.31041" x2="31.921236" y2="171.18663" gradientUnits="userSpaceOnUse"/>
    <linearGradient xmlns:inkscape="http://www.inkscape.org/namespaces/inkscape" inkscape:collect="always" xmlns:xlink="http://www.w3.org/1999/xlink" xlink:href="#linearGradient387614" id="linearGradient387616" x1="45.011326" y1="158.73975" x2="51.59375" y2="162.71875" gradientUnits="userSpaceOnUse" gradientTransform="translate(2.9601329,-0.98671096)"/>
    <linearGradient xmlns:inkscape="http://www.inkscape.org/namespaces/inkscape" inkscape:collect="always" xmlns:xlink="http://www.w3.org/1999/xlink" xlink:href="#linearGradient387614" id="linearGradient387620" gradientUnits="userSpaceOnUse" x1="45.011326" y1="158.73975" x2="51.593746" y2="162.71875" gradientTransform="matrix(-1,0,0,1,108.79346,-0.98671096)"/>
    <linearGradient xmlns:inkscape="http://www.inkscape.org/namespaces/inkscape" inkscape:collect="always" xmlns:xlink="http://www.w3.org/1999/xlink" xlink:href="#linearGradient139325" id="linearGradient139327" x1="70" y1="21" x2="70" y2="37" gradientUnits="userSpaceOnUse"/>
    <linearGradient xmlns:inkscape="http://www.inkscape.org/namespaces/inkscape" inkscape:collect="always" xmlns:xlink="http://www.w3.org/1999/xlink" xlink:href="#linearGradient139515" id="linearGradient139517" x1="70.426315" y1="1.5429174" x2="70.46106" y2="18.249472" gradientUnits="userSpaceOnUse"/>
    <linearGradient xmlns:inkscape="http://www.inkscape.org/namespaces/inkscape" inkscape:collect="always" xmlns:xlink="http://www.w3.org/1999/xlink" xlink:href="#linearGradient140390" id="linearGradient140392" x1="90.084175" y1="1.3586814" x2="90" y2="16" gradientUnits="userSpaceOnUse"/>
    <linearGradient xmlns:inkscape="http://www.inkscape.org/namespaces/inkscape" inkscape:collect="always" xmlns:xlink="http://www.w3.org/1999/xlink" xlink:href="#linearGradient140439" id="linearGradient140441" x1="90.01368" y1="24.010059" x2="94.88681" y2="28.136377" gradientUnits="userSpaceOnUse"/>
    <linearGradient xmlns:inkscape="http://www.inkscape.org/namespaces/inkscape" inkscape:collect="always" xmlns:xlink="http://www.w3.org/1999/xlink" xlink:href="#linearGradient140439" id="linearGradient140449" gradientUnits="userSpaceOnUse" x1="90.01368" y1="24.010059" x2="94.88681" y2="28.136377" gradientTransform="matrix(-1,0,0,1,190,0)"/>
    <radialGradient xmlns:inkscape="http://www.inkscape.org/namespaces/inkscape" inkscape:collect="always" xmlns:xlink="http://www.w3.org/1999/xlink" xlink:href="#linearGradient177339" id="radialGradient177341-3-0" cx="44.135807" cy="121.46028" fx="44.135807" fy="121.46028" r="1.1079427" gradientTransform="matrix(1.5015971,0,0,0.99367432,-157.6034,-4.3351259)" gradientUnits="userSpaceOnUse"/>
    <linearGradient xmlns:inkscape="http://www.inkscape.org/namespaces/inkscape" inkscape:collect="always" id="linearGradient177339">
      <stop style="stop-color:#b98d3e;stop-opacity:1;" offset="0" id="stop177335"/>
      <stop style="stop-color:#c9c943;stop-opacity:0;" offset="1" id="stop177337"/>
    </linearGradient>
    <radialGradient xmlns:inkscape="http://www.inkscape.org/namespaces/inkscape" inkscape:collect="always" xmlns:xlink="http://www.w3.org/1999/xlink" xlink:href="#linearGradient177339" id="radialGradient177345-7-9" gradientUnits="userSpaceOnUse" gradientTransform="matrix(1.5015971,0,0,0.99367432,-195.50719,-68.761115)" cx="44.135807" cy="121.46028" fx="44.135807" fy="121.46028" r="1.1079427"/>
    <rect x="172" y="97" width="745" height="239" id="rect276290-2"/>
    <rect x="172" y="97" width="745" height="239" id="rect276290-2-5"/>
    <rect x="172" y="97" width="745" height="239" id="rect276290-2-5-7"/>
  </defs><g transform="translate(-528.4849468030427 -325.78676243832234) scale(2.9473684210526314)"><g><g transform="translate(-74.835467,-18.108062)">
      <path d="m 259.66443,134.3315 c -0.74301,0.68368 -1.16745,2.39447 -1.35466,3.38665 -0.46239,2.45057 0.29697,6.8375 1.69334,8.23385 2.70932,2.70934 4.06399,3.048 5.07999,3.048 1.016,0 2.032,-0.33866 4.74133,-3.048 1.32854,-1.32855 2.49438,-5.78328 2.03199,-8.23385 -0.18721,-0.99218 -0.61163,-2.70297 -1.35466,-3.38665 -0.89471,-0.82327 -2.19275,-1.12475 -3.38666,-1.35466 -1.33024,-0.2562 -2.73379,-0.2562 -4.06399,0 -1.19392,0.22991 -2.49195,0.53139 -3.38668,1.35466 z" style="fill:#ba9578;fill-opacity:1;stroke:#000000;stroke-width:0.677334;stroke-linecap:butt;stroke-linejoin:miter;stroke-miterlimit:4;stroke-dasharray:none;stroke-opacity:1"/>
      <g transform="rotate(5,539.4499,2434.2253)">
        <path d="M 64.891792,172.33573 64.392033,171.8334 H 62.901476 62.380183" style="fill:none;stroke:#000000;stroke-width:0.502327px;stroke-linecap:butt;stroke-linejoin:miter;stroke-opacity:1"/>
        <path d="m 64.30968,171.8536 c 0.07072,0.11478 0.111506,0.24996 0.111506,0.39468 0,0.41612 -0.33734,0.75349 -0.753477,0.75349 -0.416164,0 -0.753505,-0.33737 -0.753505,-0.75349 0,-0.14864 0.04307,-0.28728 0.117377,-0.40402 z" style="fill:#ffffff;stroke:#000000;stroke-width:0.251163;stroke-miterlimit:4;stroke-dashoffset:0;stroke-opacity:1"/>
        <circle r="0.2511633" cy="172.3383" cx="63.635815" style="fill:#000000;fill-opacity:1;fill-rule:nonzero;stroke:#000000;stroke-width:0.251163;stroke-miterlimit:4;stroke-dasharray:none;stroke-dashoffset:0;stroke-opacity:1"/>
      </g>
      <g transform="rotate(-5,-208.21454,-2122.253)">
        <path d="m 67.403429,172.33573 0.556457,-0.50233 h 1.955179" style="fill:none;stroke:#000000;stroke-width:0.502327px;stroke-linecap:butt;stroke-linejoin:miter;stroke-opacity:1"/>
        <path d="m 69.332954,171.85355 c 0.0707,0.11478 0.111506,0.24995 0.111506,0.39468 0,0.41612 -0.33734,0.75349 -0.753505,0.75349 -0.416137,0 -0.753477,-0.33737 -0.753477,-0.75349 0,-0.14864 0.04304,-0.28728 0.117376,-0.40403 z" style="fill:#ffffff;stroke:#000000;stroke-width:0.251163;stroke-miterlimit:4;stroke-dashoffset:0;stroke-opacity:1"/>
        <circle r="0.2511633" cy="172.3383" cx="68.675026" style="fill:#000000;fill-opacity:1;fill-rule:nonzero;stroke:#000000;stroke-width:0.251163;stroke-miterlimit:4;stroke-dasharray:none;stroke-dashoffset:0;stroke-opacity:1"/>
      </g>
      <path style="fill:none;stroke:#000000;stroke-width:0.661458;stroke-linecap:butt;stroke-linejoin:miter;stroke-dasharray:none;stroke-opacity:1" d="M 262.69526,145.26992 264,145.47083 h 2.51164 l 1.26362,-0.20091"/>
      <path style="fill:none;stroke:#000000;stroke-width:0.502327px;stroke-linecap:butt;stroke-linejoin:miter;stroke-opacity:1" d="m 264.2735,141.00498 v 1.32292 c -0.37589,1.03924 -0.52917,1.5875 0.79375,1.85208 1.32292,-0.26458 1.17748,-0.86639 0.79375,-1.85208 l -10e-6,-1.32292"/>
      <path style="fill:#000000;fill-rule:evenodd;stroke:#000000;stroke-width:0.264583px;stroke-linecap:butt;stroke-linejoin:miter;stroke-opacity:1" d="m 265,136 c -1.31612,0.21358 -2.76816,0.51024 -4,0 -0.43552,-0.1804 -1,-1 -1,-1 l -1,5 c -0.0995,0.18852 0,3 0,3 h -1 c 0,0 -0.38287,-1.98567 -0.65183,-2.00251 -0.5208,-0.0326 -1.02922,-0.34046 -1.34817,-0.99749 0,0 0.76935,-4.9085 2,-7 0.47812,-0.81258 1.16875,-1.55513 2,-2 1.49856,-0.802 3.30033,-1 5,-1 1.69967,0 3.50143,0.198 4.99999,1 0.83125,0.44487 1.52188,1.18742 2.00001,2 1.23065,2.0915 2,7 2,7 -0.23625,0.4886 -0.55829,0.77759 -0.90796,0.91113 C 272.89238,140.98738 272,143 272,143 h -1 c 0,0 0.19252,-2.65534 0,-3 l -1.00001,-5 c 0,0 -1.34193,-0.10679 -1.99999,0 -1.04048,0.16885 -1.95952,0.83115 -3,1 z"/>
      <g transform="translate(9.6024316,-0.44433559)">
        <path style="fill:none;fill-rule:evenodd;stroke:#000000;stroke-width:0.238787px;stroke-linecap:butt;stroke-linejoin:miter;stroke-opacity:1" d="m 252.401,138.96249 1.19801,2.07502"/>
        <path style="fill:none;fill-rule:evenodd;stroke:#000000;stroke-width:0.238787px;stroke-linecap:butt;stroke-linejoin:miter;stroke-opacity:1" d="m 252.40099,141.03751 1.19803,-2.07502"/>
        <path style="fill:none;fill-rule:evenodd;stroke:#000000;stroke-width:0.238787px;stroke-linecap:butt;stroke-linejoin:miter;stroke-opacity:1" d="m 251.9625,139.40099 2.07501,1.19802"/>
        <path style="fill:none;fill-rule:evenodd;stroke:#000000;stroke-width:0.238787px;stroke-linecap:butt;stroke-linejoin:miter;stroke-opacity:1" d="m 251.80199,139.99999 2.39603,2e-5"/>
        <path style="fill:none;fill-rule:evenodd;stroke:#000000;stroke-width:0.238787px;stroke-linecap:butt;stroke-linejoin:miter;stroke-opacity:1" d="m 251.96249,140.599 2.07503,-1.198"/>
        <path style="fill:none;fill-rule:evenodd;stroke:#000000;stroke-width:0.238787px;stroke-linecap:butt;stroke-linejoin:miter;stroke-opacity:1" d="m 252.40099,141.03751 1.19803,-2.07502"/>
        <path style="fill:none;fill-rule:evenodd;stroke:#000000;stroke-width:0.238787px;stroke-linecap:butt;stroke-linejoin:miter;stroke-opacity:1" d="m 253,138.80199 v 2.39602"/>
        <circle style="fill:#b3b3b3;fill-opacity:1;stroke:#000000;stroke-width:0.132292;stroke-linecap:round;stroke-linejoin:round;stroke-dasharray:none;stroke-opacity:1" cx="253" cy="140" r="1"/>
        <circle style="fill:#b3b3b3;fill-opacity:1;stroke:#000000;stroke-width:0.107752;stroke-linecap:round;stroke-linejoin:round;stroke-dasharray:none;stroke-opacity:1" cx="253" cy="140" r="0.81450623"/>
        <circle style="fill:#f2f2f2;fill-opacity:1;stroke:#000000;stroke-width:0.0752469;stroke-linecap:round;stroke-linejoin:round;stroke-dasharray:none;stroke-opacity:1" cx="253" cy="140" r="0.56880009"/>
      </g>
    </g></g></g></svg>