<svg xmlns="http://www.w3.org/2000/svg" xmlns:xlink="http://www.w3.org/1999/xlink" width="64" height="64" viewBox="0 0 64 64"><defs id="defs355716">
    <rect x="172" y="97" width="745" height="239" id="rect276290"/>
    <color-profile name="Agfa-:-Swop-Standard" xmlns:xlink="http://www.w3.org/1999/xlink" xlink:href="file:///C:/WINDOWS/system32/spool/drivers/color/RSWOP.icm" id="color-profile294613"/>
    <linearGradient xmlns:inkscape="http://www.inkscape.org/namespaces/inkscape" inkscape:collect="always" id="linearGradient140439">
      <stop style="stop-color:#a4a870;stop-opacity:1;" offset="0" id="stop140435"/>
      <stop style="stop-color:#a4a870;stop-opacity:0;" offset="1" id="stop140437"/>
    </linearGradient>
    <linearGradient xmlns:inkscape="http://www.inkscape.org/namespaces/inkscape" inkscape:collect="always" id="linearGradient140390">
      <stop style="stop-color:#359676;stop-opacity:1;" offset="0" id="stop140386"/>
      <stop style="stop-color:#4a6a5e;stop-opacity:0;" offset="1" id="stop140388"/>
    </linearGradient>
    <linearGradient xmlns:inkscape="http://www.inkscape.org/namespaces/inkscape" inkscape:collect="always" id="linearGradient139515">
      <stop style="stop-color:#dbd764;stop-opacity:1;" offset="0" id="stop139511"/>
      <stop style="stop-color:#dbd764;stop-opacity:0;" offset="0.56578946" id="stop139513"/>
    </linearGradient>
    <linearGradient xmlns:inkscape="http://www.inkscape.org/namespaces/inkscape" inkscape:collect="always" id="linearGradient139325">
      <stop style="stop-color:#161c16;stop-opacity:1;" offset="0" id="stop139321"/>
      <stop style="stop-color:#6e836c;stop-opacity:0;" offset="1" id="stop139323"/>
    </linearGradient>
    <linearGradient xmlns:inkscape="http://www.inkscape.org/namespaces/inkscape" inkscape:collect="always" id="linearGradient387614">
      <stop style="stop-color:#a4a870;stop-opacity:1;" offset="0" id="stop387610"/>
      <stop style="stop-color:#a4a870;stop-opacity:0;" offset="1" id="stop387612"/>
    </linearGradient>
    <linearGradient xmlns:inkscape="http://www.inkscape.org/namespaces/inkscape" inkscape:collect="always" id="linearGradient387421">
      <stop style="stop-color:#344533;stop-opacity:1;" offset="0" id="stop387417"/>
      <stop style="stop-color:#1d251d;stop-opacity:0;" offset="1" id="stop387419"/>
    </linearGradient>
    <linearGradient xmlns:inkscape="http://www.inkscape.org/namespaces/inkscape" inkscape:collect="always" xmlns:xlink="http://www.w3.org/1999/xlink" xlink:href="#linearGradient206680" id="linearGradient206682" x1="168.01042" y1="262.08701" x2="168.01042" y2="247.38542" gradientUnits="userSpaceOnUse"/>
    <linearGradient xmlns:inkscape="http://www.inkscape.org/namespaces/inkscape" inkscape:collect="always" id="linearGradient206680">
      <stop style="stop-color:#dbd764;stop-opacity:0;" offset="0.38377193" id="stop206678"/>
      <stop style="stop-color:#dbd764;stop-opacity:1;" offset="1" id="stop206676"/>
    </linearGradient>
    <linearGradient xmlns:inkscape="http://www.inkscape.org/namespaces/inkscape" inkscape:collect="always" xmlns:xlink="http://www.w3.org/1999/xlink" xlink:href="#linearGradient216292" id="linearGradient216294" x1="168.01042" y1="236.00833" x2="168.01042" y2="248.97292" gradientUnits="userSpaceOnUse" gradientTransform="translate(8.4073796,-0.78650088)"/>
    <linearGradient xmlns:inkscape="http://www.inkscape.org/namespaces/inkscape" inkscape:collect="always" id="linearGradient216292">
      <stop style="stop-color:#359676;stop-opacity:1;" offset="0" id="stop216288"/>
      <stop style="stop-color:#4a6a5f;stop-opacity:0;" offset="1" id="stop216290"/>
    </linearGradient>
    <linearGradient xmlns:inkscape="http://www.inkscape.org/namespaces/inkscape" inkscape:collect="always" xmlns:xlink="http://www.w3.org/1999/xlink" xlink:href="#linearGradient387421" id="linearGradient387423" x1="31.75" y1="155.31041" x2="31.921236" y2="171.18663" gradientUnits="userSpaceOnUse"/>
    <linearGradient xmlns:inkscape="http://www.inkscape.org/namespaces/inkscape" inkscape:collect="always" xmlns:xlink="http://www.w3.org/1999/xlink" xlink:href="#linearGradient387614" id="linearGradient387616" x1="45.011326" y1="158.73975" x2="51.59375" y2="162.71875" gradientUnits="userSpaceOnUse" gradientTransform="translate(2.9601329,-0.98671096)"/>
    <linearGradient xmlns:inkscape="http://www.inkscape.org/namespaces/inkscape" inkscape:collect="always" xmlns:xlink="http://www.w3.org/1999/xlink" xlink:href="#linearGradient387614" id="linearGradient387620" gradientUnits="userSpaceOnUse" x1="45.011326" y1="158.73975" x2="51.593746" y2="162.71875" gradientTransform="matrix(-1,0,0,1,108.79346,-0.98671096)"/>
    <linearGradient xmlns:inkscape="http://www.inkscape.org/namespaces/inkscape" inkscape:collect="always" xmlns:xlink="http://www.w3.org/1999/xlink" xlink:href="#linearGradient139325" id="linearGradient139327" x1="70" y1="21" x2="70" y2="37" gradientUnits="userSpaceOnUse"/>
    <linearGradient xmlns:inkscape="http://www.inkscape.org/namespaces/inkscape" inkscape:collect="always" xmlns:xlink="http://www.w3.org/1999/xlink" xlink:href="#linearGradient139515" id="linearGradient139517" x1="70.426315" y1="1.5429174" x2="70.46106" y2="18.249472" gradientUnits="userSpaceOnUse"/>
    <linearGradient xmlns:inkscape="http://www.inkscape.org/namespaces/inkscape" inkscape:collect="always" xmlns:xlink="http://www.w3.org/1999/xlink" xlink:href="#linearGradient140390" id="linearGradient140392" x1="90.084175" y1="1.3586814" x2="90" y2="16" gradientUnits="userSpaceOnUse"/>
    <linearGradient xmlns:inkscape="http://www.inkscape.org/namespaces/inkscape" inkscape:collect="always" xmlns:xlink="http://www.w3.org/1999/xlink" xlink:href="#linearGradient140439" id="linearGradient140441" x1="90.01368" y1="24.010059" x2="94.88681" y2="28.136377" gradientUnits="userSpaceOnUse"/>
    <linearGradient xmlns:inkscape="http://www.inkscape.org/namespaces/inkscape" inkscape:collect="always" xmlns:xlink="http://www.w3.org/1999/xlink" xlink:href="#linearGradient140439" id="linearGradient140449" gradientUnits="userSpaceOnUse" x1="90.01368" y1="24.010059" x2="94.88681" y2="28.136377" gradientTransform="matrix(-1,0,0,1,190,0)"/>
    <radialGradient xmlns:inkscape="http://www.inkscape.org/namespaces/inkscape" inkscape:collect="always" xmlns:xlink="http://www.w3.org/1999/xlink" xlink:href="#linearGradient177339" id="radialGradient177341-3-0" cx="44.135807" cy="121.46028" fx="44.135807" fy="121.46028" r="1.1079427" gradientTransform="matrix(1.5015971,0,0,0.99367432,-157.6034,-4.3351259)" gradientUnits="userSpaceOnUse"/>
    <linearGradient xmlns:inkscape="http://www.inkscape.org/namespaces/inkscape" inkscape:collect="always" id="linearGradient177339">
      <stop style="stop-color:#b98d3e;stop-opacity:1;" offset="0" id="stop177335"/>
      <stop style="stop-color:#c9c943;stop-opacity:0;" offset="1" id="stop177337"/>
    </linearGradient>
    <radialGradient xmlns:inkscape="http://www.inkscape.org/namespaces/inkscape" inkscape:collect="always" xmlns:xlink="http://www.w3.org/1999/xlink" xlink:href="#linearGradient177339" id="radialGradient177345-7-9" gradientUnits="userSpaceOnUse" gradientTransform="matrix(1.5015971,0,0,0.99367432,-195.50719,-68.761115)" cx="44.135807" cy="121.46028" fx="44.135807" fy="121.46028" r="1.1079427"/>
    <rect x="172" y="97" width="745" height="239" id="rect276290-2"/>
    <rect x="172" y="97" width="745" height="239" id="rect276290-2-5"/>
    <rect x="172" y="97" width="745" height="239" id="rect276290-2-5-7"/>
  </defs><g transform="translate(394.6604270174064 -515.1970918286709) scale(2.29271251696881)"><g><g transform="translate(-60.589583,73.289583)">
      <path style="fill:#adad8d;fill-opacity:1;fill-rule:evenodd;stroke:none;stroke-width:0.214312px;stroke-linecap:butt;stroke-linejoin:miter;stroke-opacity:1" d="m -95.107526,155.10939 c 1.50523,-0.20982 1.05156,1.96786 2.51817,1.55377 0.553,-0.12021 1.11814,-0.12013 1.68678,-0.10716 0.45562,6.2e-4 0.91236,-8.1e-4 1.36717,0 0.46331,0.22738 -0.54619,0.53723 -0.59737,0.87357 0.62393,0.37522 1.48199,0.20542 2.17952,0.46213 0.35191,0.24566 1.11595,0.53503 1.31103,0.64631 -0.75219,0.13906 -1.53225,0.2867 -2.27672,0.45663 -0.31096,0.093 -1.78548,0.26365 -0.83081,0.50763 0.55993,0.2153 1.21934,0.27917 1.66092,0.37501 0.6927,0.11278 1.13637,0.41876 1.57535,0.65391 0.50957,0.0565 0.30574,0.25678 -0.11015,0.2484 0.31343,-0.2033 -0.8054,0.28421 -1.09014,0.32979 -0.27249,0.10296 -1.03502,0.47504 -0.99055,0.38585 0.3701,-0.11877 -0.80761,0.25946 -0.134,0.30904 0.61317,0.27985 1.38564,0.0378 1.92823,0.43017 0.37526,0.16754 1.29633,0.5527 0.34335,0.42233 -0.5343,0.0275 -1.05729,0.35987 -1.50581,0.43473 -1.07844,0.0498 0.36327,0.50498 0.74807,0.42065 0.59184,0.099 1.36347,0.31243 1.56777,0.56842 0.50932,0.27147 0.52846,0.51153 -0.0818,0.56448 -0.70329,0.0874 -1.24462,0.33518 -1.87525,0.5891 -0.14858,0.4866 1.06267,0.72238 1.23229,1.28588 0.30365,0.40117 0.62033,0.63808 -0.0535,0.53578 -0.48101,-0.0243 -1.94707,0.0237 -1.07156,0.69641 0.53469,0.52412 0.97676,1.10921 1.23231,1.82165 0.18046,0.27384 0.47733,1.00163 -0.24152,0.59044 -0.54384,-0.24063 -1.12849,-0.35346 -1.72942,-0.32248 -0.41473,0.0215 -0.86817,-0.0467 -1.25448,0.0251 0.22314,0.34854 1.05888,1.15105 1.02681,1.1775 0.60401,0.63257 0.76015,1.35695 0.96633,2.06563 0.16743,0.69007 -0.60884,-0.19994 -0.93762,-0.16073 -0.60558,-0.34194 -1.23367,-0.37281 -1.89561,-0.42118 -0.47443,0.11499 0.43671,0.87912 0.47627,1.22424 0.29116,0.60181 0.52113,1.22859 0.43483,1.9093 -0.30373,-0.50166 -1.02583,-0.73954 -1.56036,-0.99791 -0.60448,-0.1519 -1.21973,-0.37537 -1.85968,-0.4354 -0.2622,0.0654 -0.33527,-0.10297 -0.60488,-0.0466"/>
      <path style="fill:#adad8d;fill-opacity:1;fill-rule:evenodd;stroke:none;stroke-width:0.214312px;stroke-linecap:butt;stroke-linejoin:miter;stroke-opacity:1" d="m -100.12615,155.27013 c -1.50522,-0.20983 -0.99798,1.80712 -2.46459,1.39303 -0.55301,-0.12021 -1.11814,-0.12013 -1.68678,-0.10716 -0.45563,6.2e-4 -0.91236,-8.1e-4 -1.36718,0 -0.46331,0.22738 0.5462,0.53723 0.59738,0.87357 -0.62394,0.37522 -1.482,0.20542 -2.17953,0.46213 -0.35191,0.24566 -1.11596,0.53503 -1.31103,0.64631 0.75218,0.13906 1.53225,0.2867 2.27673,0.45663 0.31095,0.093 1.78548,0.26365 0.8308,0.50763 -0.55993,0.2153 -1.21934,0.27917 -1.66092,0.37501 -0.6927,0.11278 -1.13636,0.41876 -1.57535,0.65391 -0.50957,0.0565 -0.30574,0.25678 0.11014,0.2484 -0.31343,-0.2033 0.80541,0.28421 1.09016,0.32979 0.27247,0.10296 1.03501,0.47504 0.99054,0.38585 -0.3701,-0.11877 0.80762,0.25946 0.134,0.30904 -0.61317,0.27985 -1.38564,0.0378 -1.92823,0.43017 -0.37526,0.16754 -1.29633,0.5527 -0.34335,0.42233 0.5343,0.0275 1.05729,0.35987 1.50581,0.43473 1.07844,0.0498 -0.36327,0.50498 -0.74807,0.42065 -0.59184,0.099 -1.36346,0.31243 -1.56777,0.56842 -0.50932,0.27147 -0.52845,0.51153 0.0818,0.56448 0.7033,0.0874 1.24463,0.33518 1.87526,0.5891 0.14858,0.4866 -1.06267,0.72238 -1.23229,1.28588 -0.30364,0.40117 -0.62032,0.63808 0.0536,0.53578 0.48101,-0.0243 1.94707,0.0237 1.07155,0.69641 -0.53468,0.52412 -0.97674,1.10921 -1.23229,1.82165 -0.18047,0.27384 -0.47734,1.00163 0.24151,0.59044 0.54383,-0.24063 1.12849,-0.35346 1.72942,-0.32248 0.41473,0.0215 0.86817,-0.0467 1.25448,0.0251 -0.22314,0.34854 -1.05887,1.15105 -1.02681,1.1775 -0.60401,0.63257 -0.76014,1.35695 -0.96633,2.06563 -0.16743,0.69007 0.60884,-0.19994 0.93762,-0.16073 0.60558,-0.34194 1.23367,-0.37281 1.89561,-0.42118 0.47443,0.11499 -0.43671,0.87912 -0.47627,1.22424 -0.29115,0.60181 -0.52113,1.22859 -0.43482,1.9093 0.30372,-0.50166 1.02582,-0.73954 1.56036,-0.99791 0.60448,-0.1519 1.21973,-0.37537 1.85968,-0.4354 0.26221,0.0654 0.33528,-0.10297 0.60489,-0.0466"/>
      <g transform="matrix(-0.81,0,0,0.81,-9.4186165,-7.519539)">
        <path style="fill:none;stroke:#000000;stroke-width:0.502327px;stroke-linecap:butt;stroke-linejoin:miter;stroke-opacity:1" d="m 107.29049,214.3125 -0.49976,-0.50233 h -1.49055 -0.5213"/>
        <path style="fill:#ffffff;stroke:#000000;stroke-width:0.251163;stroke-miterlimit:4;stroke-dashoffset:0;stroke-opacity:1" d="m 106.70838,213.83037 c 0.0707,0.11478 0.11151,0.24996 0.11151,0.39468 0,0.41612 -0.33734,0.75349 -0.75348,0.75349 -0.41617,0 -0.75351,-0.33737 -0.75351,-0.75349 0,-0.14864 0.0431,-0.28728 0.11738,-0.40402 z"/>
        <circle style="fill:#000000;fill-opacity:1;fill-rule:nonzero;stroke:#000000;stroke-width:0.251163;stroke-miterlimit:4;stroke-dasharray:none;stroke-dashoffset:0;stroke-opacity:1" cx="106.03442" cy="214.31506" r="0.2511633"/>
      </g>
      <g style="fill:#e6dfc2;fill-opacity:1" transform="translate(-246.06485,-133.47442)">
        <path style="fill:#e6dfc2;fill-opacity:1;fill-rule:evenodd;stroke:#000000;stroke-width:0.214312px;stroke-linecap:butt;stroke-linejoin:miter;stroke-opacity:1" d="m 141.16843,299.54802 -2.14313,-2.35744 c 0,0 -0.27912,0.49005 1.07157,3.429 0.61209,1.33186 2.14313,2.14313 2.14313,2.14313"/>
        <path style="fill:#e6dfc2;fill-opacity:1;fill-rule:evenodd;stroke:#000000;stroke-width:0.214312px;stroke-linecap:butt;stroke-linejoin:miter;stroke-opacity:1" d="m 156.04235,299.54802 2.14313,-2.35744 c 0,0 0.27913,0.49005 -1.07157,3.429 -0.61209,1.33186 -2.14313,2.14313 -2.14313,2.14313"/>
        <path style="fill:#e6dfc2;fill-opacity:1;fill-rule:evenodd;stroke:#000000;stroke-width:0.214312px;stroke-linecap:butt;stroke-linejoin:miter;stroke-opacity:1" d="m 146.52624,308.54914 c -1.28748,0.0309 -2.45538,-1.10291 -3.21469,-2.14312 -0.47104,-0.64532 -0.3415,-1.82035 -0.64293,-2.57175 -0.67965,-1.6942 -1.47018,-3.55665 -1.50019,-5.35782 -0.0245,-1.47251 -0.0105,-3.28726 1.07157,-4.28625 1.5964,-1.47379 4.25669,-2.14312 6.42937,-2.14312 2.17269,0 4.83297,0.66933 6.42938,2.14313 1.08209,0.99899 1.0961,2.81373 1.07155,4.28624 -0.03,1.79938 -1.03631,3.6649 -1.71449,5.35782 -0.30176,0.75326 0.0435,1.92499 -0.42863,2.57175 -0.7593,1.04021 -1.92756,2.09968 -3.21469,2.14312 -3.1164,0.10518 -0.8965,-0.0815 -4.28625,0 z"/>
      </g>
      <g transform="matrix(0.81,0,0,0.81,-185.37234,-7.519529)">
        <path style="fill:none;stroke:#000000;stroke-width:0.502327px;stroke-linecap:butt;stroke-linejoin:miter;stroke-opacity:1" d="m 107.29049,214.3125 -0.49976,-0.50233 h -1.49055 -0.5213"/>
        <path style="fill:#ffffff;stroke:#000000;stroke-width:0.251163;stroke-miterlimit:4;stroke-dashoffset:0;stroke-opacity:1" d="m 106.70838,213.83037 c 0.0707,0.11478 0.11151,0.24996 0.11151,0.39468 0,0.41612 -0.33734,0.75349 -0.75348,0.75349 -0.41617,0 -0.75351,-0.33737 -0.75351,-0.75349 0,-0.14864 0.0431,-0.28728 0.11738,-0.40402 z"/>
        <circle style="fill:#000000;fill-opacity:1;fill-rule:nonzero;stroke:#000000;stroke-width:0.251163;stroke-miterlimit:4;stroke-dasharray:none;stroke-dashoffset:0;stroke-opacity:1" cx="106.03442" cy="214.31506" r="0.2511633"/>
      </g>
      <g transform="matrix(0.81,0,0,0.81,-185.26361,-7.519529)">
        <path style="fill:none;stroke:#000000;stroke-width:0.502327px;stroke-linecap:butt;stroke-linejoin:miter;stroke-opacity:1" d="m 109.80213,214.3125 0.55646,-0.50233 h 1.95518"/>
        <path style="fill:#ffffff;stroke:#000000;stroke-width:0.251163;stroke-miterlimit:4;stroke-dashoffset:0;stroke-opacity:1" d="m 111.73165,213.83032 c 0.0707,0.11478 0.11151,0.24995 0.11151,0.39468 0,0.41612 -0.33734,0.75349 -0.75351,0.75349 -0.41613,0 -0.75347,-0.33737 -0.75347,-0.75349 0,-0.14864 0.043,-0.28728 0.11737,-0.40403 z"/>
        <circle style="fill:#000000;fill-opacity:1;fill-rule:nonzero;stroke:#000000;stroke-width:0.251163;stroke-miterlimit:4;stroke-dasharray:none;stroke-dashoffset:0;stroke-opacity:1" cx="111.07362" cy="214.31506" r="0.2511633"/>
      </g>
      <g transform="matrix(0.81,0,0,0.81,-185.26361,-7.519529)" style="stroke:#998f7c;stroke-opacity:1">
        <path style="fill:none;fill-rule:evenodd;stroke:#998f7c;stroke-width:0.529167;stroke-linecap:butt;stroke-linejoin:miter;stroke-dasharray:none;stroke-opacity:1" d="m 111.12501,210.34375 v 2.64583 l 2.11666,0.52917 1.05834,1.5875 -1.32292,2.38125 -2.64583,0.26458 0.26458,1.85208 0.79375,1.5875 0.79375,1.5875 1.05833,0.52917 -0.26458,0.79375 0.26458,0.52917"/>
        <path style="fill:none;fill-rule:evenodd;stroke:#998f7c;stroke-width:0.529167;stroke-linecap:butt;stroke-linejoin:miter;stroke-dasharray:none;stroke-opacity:1" d="m 112.44792,210.34375 1.05834,0.79375 h 1.5875 l 1.05833,1.05833 -1.05833,1.05833 0.52916,1.05834 v 1.85208 l -1.05833,0.79375 0.26458,0.79375 -1.05833,1.5875 0.52917,0.26458 0.79375,0.26459 0.47956,-0.14883"/>
        <path style="fill:none;fill-rule:evenodd;stroke:#998f7c;stroke-width:0.529167;stroke-linecap:butt;stroke-linejoin:miter;stroke-dasharray:none;stroke-opacity:1" d="m 105.83333,210.34375 v 2.64583 l -2.11666,0.52917 -1.05834,1.5875 1.32292,2.38125 2.64583,0.26458 -0.26458,1.85208 -0.79375,1.5875 -0.79375,1.5875 -1.05833,0.52917 0.26458,0.79375 -0.26458,0.52917"/>
        <path style="fill:none;fill-rule:evenodd;stroke:#998f7c;stroke-width:0.529167;stroke-linecap:butt;stroke-linejoin:miter;stroke-dasharray:none;stroke-opacity:1" d="M 108.47917,210.07916 V 219.075"/>
        <path style="fill:none;fill-rule:evenodd;stroke:#998f7c;stroke-width:0.529167;stroke-linecap:butt;stroke-linejoin:miter;stroke-dasharray:none;stroke-opacity:1" d="m 108.47917,216.69375 2.38125,-1.05834 1.5875,0.52917 0.79375,0.79375 1.32292,0.52917 1.5875,0.26458"/>
        <path style="fill:none;fill-rule:evenodd;stroke:#998f7c;stroke-width:0.529167;stroke-linecap:butt;stroke-linejoin:miter;stroke-dasharray:none;stroke-opacity:1" d="m 104.51042,210.34375 -1.05834,0.79375 h -1.5875 l -1.05833,1.05833 1.05833,1.05833 -0.52916,1.05834 v 1.85208 l 1.05833,0.79375 -0.26458,0.79375 1.05833,1.5875 -0.52917,0.26458 -0.79375,0.26459 -0.79375,-0.26459"/>
        <path style="fill:none;fill-rule:evenodd;stroke:#998f7c;stroke-width:0.529167;stroke-linecap:butt;stroke-linejoin:miter;stroke-dasharray:none;stroke-opacity:1" d="m 108.47917,216.69375 -2.38125,-1.05834 -1.5875,0.52917 -1.05833,0.52917 -1.32292,0.52917 -1.5875,0.26458"/>
        <path style="fill:none;fill-rule:evenodd;stroke:#998f7c;stroke-width:0.529167;stroke-linecap:butt;stroke-linejoin:miter;stroke-dasharray:none;stroke-opacity:1" d="m 108.47917,218.81042 2.64584,-1e-5 0.79375,0.52917 1.32291,0.26458 v 1.05834 l 1.05834,0.79375 0.52916,0.79375 0.52917,0.26458"/>
        <path style="fill:none;fill-rule:evenodd;stroke:#998f7c;stroke-width:0.529167;stroke-linecap:butt;stroke-linejoin:miter;stroke-dasharray:none;stroke-opacity:1" d="m 108.47917,218.81042 -2.64584,-1e-5 -0.79375,0.52917 -1.32291,0.26458 v 1.05834 l -1.05834,0.79375 -0.52916,0.79375 -0.52917,0.26458"/>
        <path style="fill:none;fill-rule:evenodd;stroke:#998f7c;stroke-width:0.529167;stroke-linecap:butt;stroke-linejoin:miter;stroke-dasharray:none;stroke-opacity:1" d="m 112.18334,213.78333 2.11667,-0.79375 1.5875,0.79375 0.79375,-0.26458 0.79375,0.79375"/>
        <path style="fill:none;fill-rule:evenodd;stroke:#998f7c;stroke-width:0.529167;stroke-linecap:butt;stroke-linejoin:miter;stroke-dasharray:none;stroke-opacity:1" d="m 104.775,213.78333 -2.11667,-0.79375 -1.5875,0.79375 -0.79375,-0.26458 -0.793748,0.79375"/>
        <path style="fill:none;fill-rule:evenodd;stroke:#998f7c;stroke-width:0.529167;stroke-linecap:butt;stroke-linejoin:miter;stroke-dasharray:none;stroke-opacity:1" d="m 108.13628,219.5819 -0.71545,1.60976 -0.26458,2.11667 -0.79375,1.05833 -1.05833,1.05834"/>
        <path style="fill:none;fill-rule:evenodd;stroke:#998f7c;stroke-width:0.529167;stroke-linecap:butt;stroke-linejoin:miter;stroke-dasharray:none;stroke-opacity:1" d="m 108.83559,219.61236 0.70192,1.5793 0.26458,2.11667 0.79375,1.05833 1.05833,1.05834"/>
        <path style="fill:none;fill-rule:evenodd;stroke:#998f7c;stroke-width:0.529167;stroke-linecap:butt;stroke-linejoin:miter;stroke-dasharray:none;stroke-opacity:1" d="M 108.47917,223.57291 V 225.425"/>
        <path style="fill:none;fill-rule:evenodd;stroke:#998f7c;stroke-width:0.529167;stroke-linecap:butt;stroke-linejoin:miter;stroke-dasharray:none;stroke-opacity:1" d="m 115.09376,211.1375 1.05833,-1.5875 1.05834,-0.26459"/>
        <path style="fill:none;fill-rule:evenodd;stroke:#998f7c;stroke-width:0.529167;stroke-linecap:butt;stroke-linejoin:miter;stroke-dasharray:none;stroke-opacity:1" d="m 101.86458,211.1375 -1.05833,-1.5875 -1.058335,-0.26459"/>
        <path style="fill:none;fill-rule:evenodd;stroke:#998f7c;stroke-width:0.529167;stroke-linecap:butt;stroke-linejoin:miter;stroke-dasharray:none;stroke-opacity:1" d="m 105.83333,211.66666 2.64584,0.26459 2.64583,-0.26459"/>
      </g>
      <path style="fill:none;fill-rule:evenodd;stroke:#000000;stroke-width:0.214312px;stroke-linecap:butt;stroke-linejoin:miter;stroke-opacity:1" d="m -98.467036,167.14516 v 3.21469 h 1.07156 1.07157 v -3.21469"/>
      <path style="fill:none;fill-opacity:1;fill-rule:evenodd;stroke:#000000;stroke-width:0.214312px;stroke-linecap:butt;stroke-linejoin:miter;stroke-opacity:1" d="m -99.538606,175.07472 c -1.287484,0.0309 -2.455384,-1.10291 -3.214694,-2.14312 -0.47104,-0.64532 -0.3415,-1.82035 -0.64293,-2.57175 -0.67965,-1.6942 -1.47018,-3.55665 -1.50019,-5.35782 -0.0245,-1.47251 -0.0105,-3.28726 1.07157,-4.28625 1.5964,-1.47379 4.256694,-2.14312 6.429374,-2.14312 2.17269,0 4.83297,0.66933 6.42938,2.14313 1.08209,0.99899 1.0961,2.81373 1.07155,4.28624 -0.03,1.79938 -1.03631,3.6649 -1.71449,5.35782 -0.30176,0.75326 0.0435,1.92499 -0.42863,2.57175 -0.7593,1.04021 -1.92756,2.09968 -3.21469,2.14312 -3.1164,0.10518 -0.8965,-0.0815 -4.28625,0 z"/>
      <path style="fill:#ffffc8;fill-opacity:1;fill-rule:evenodd;stroke:#000000;stroke-width:0.214312px;stroke-linecap:butt;stroke-linejoin:miter;stroke-opacity:1" d="m -99.604696,172.71105 -0.20838,1.10816 -0.435684,-0.22732 -0.23678,-0.48304 0.0379,-0.92345"/>
      <path style="fill:#ffffc8;fill-opacity:1;fill-rule:evenodd;stroke:#000000;stroke-width:0.214312px;stroke-linecap:butt;stroke-linejoin:miter;stroke-opacity:1" d="m -95.186246,172.71105 0.20837,1.10816 0.43568,-0.22732 0.23679,-0.48304 -0.0379,-0.88083"/>
      <path style="fill:none;fill-rule:evenodd;stroke:#000000;stroke-width:0.214312px;stroke-linecap:butt;stroke-linejoin:miter;stroke-opacity:1" d="m -100.61017,172.07434 0.857254,0.64294 h 4.71487 l 0.85726,-0.64294"/>
      <path style="fill:#adad8d;fill-opacity:1;fill-rule:evenodd;stroke:none;stroke-width:0.214312px;stroke-linecap:butt;stroke-linejoin:miter;stroke-opacity:1" d="m -90.537536,161.14438 -4.28625,1.7145 -5.11672,-0.0134 -4.312974,-1.70109 2.57175,-4.71488 c 0,0 2.143514,-1.11226 4.286254,-1.07156 2.11566,0.0402 4.28625,1.07156 4.28625,1.07156 z"/>
      <path style="fill:#adad8d;fill-opacity:1;stroke:#000000;stroke-width:0.264583;stroke-linecap:round;stroke-linejoin:round;stroke-dasharray:none;stroke-opacity:1" d="m -95.088736,155.12614 c -0.0177,0.18947 0.0789,0.42411 0.003,0.5959 -1.24285,-0.30051 -2.54909,-0.48726 -3.8155,-0.20691 -0.42692,0.0716 -0.85812,0.21866 -1.270704,0.29779 -0.015,-0.18296 0.037,-0.37459 0.0329,-0.55395 -0.49856,-0.0725 -0.94411,0.25471 -1.16218,0.68304 -0.16932,0.27266 -0.3645,0.58211 -0.62987,0.74351 -0.76123,0.0151 -1.51245,-0.15391 -2.27602,-0.11848 -0.50104,0.0151 -1.0197,-0.0353 -1.51034,0.0668 -0.0975,0.17539 0.20374,0.2803 0.29452,0.3846 0.13125,0.12298 0.39239,0.23992 0.38605,0.43365 -0.81045,0.3674 -1.77555,0.17799 -2.55442,0.64741 -0.28166,0.14668 -0.59817,0.27638 -0.85638,0.43648 1.07494,0.22117 2.16304,0.40156 3.21759,0.70652 0.16375,0.0396 0.0767,0.20772 -0.05,0.22262 -0.81747,0.31128 -1.71916,0.32179 -2.531,0.6454 -0.37167,0.1896 -0.76579,0.35332 -1.13815,0.52681 0.059,0.15634 0.29777,0.0656 0.42405,0.12197 0.80173,0.26305 1.61615,0.52565 2.37378,0.89697 0.0378,0.13279 -0.20756,0.15311 -0.2884,0.19367 -0.63586,0.18518 -1.34548,0.0747 -1.92879,0.4395 -0.19161,0.11737 -0.46279,0.17788 -0.6033,0.34795 0.32056,0.0369 0.66227,0.0268 0.9718,0.15484 0.38649,0.13859 0.78435,0.24963 1.1831,0.3339 0.12953,0.0369 0.12682,0.14513 2.6e-4,0.18452 -0.65673,0.29208 -1.41623,0.18529 -2.07278,0.49102 -0.32544,0.14438 -0.69975,0.30884 -0.88711,0.62248 0.0344,0.18749 0.31507,0.16455 0.45776,0.214 0.62335,0.11866 1.26104,0.28712 1.81279,0.60206 0.15471,0.24048 -0.19789,0.41899 -0.34883,0.54247 -0.37893,0.24585 -0.75958,0.50652 -0.98034,0.91504 -0.0531,0.10464 -0.19046,0.21283 -0.20125,0.32456 0.52973,0.10192 1.11426,-0.0424 1.6131,0.18738 0.24526,0.14864 0.043,0.44193 -0.1395,0.5461 -0.65466,0.64561 -1.14954,1.45518 -1.42664,2.33037 -0.0602,0.15359 0.10713,0.24262 0.22984,0.14671 0.54902,-0.26577 1.14862,-0.40087 1.75895,-0.39238 0.4514,0.006 0.92585,-0.0626 1.36556,0.0257 -0.009,0.20897 -0.25696,0.35285 -0.36422,0.52226 -0.5261,0.57883 -1.10692,1.15824 -1.3197,1.93656 -0.0962,0.32594 -0.24118,0.65519 -0.25439,0.99592 0.13927,0.0927 0.30491,-0.11504 0.43228,-0.15941 0.71764,-0.3915 1.54429,-0.64466 2.36775,-0.61553 0.21744,-0.009 0.18417,0.23749 0.0864,0.35428 -0.52416,0.76036 -0.97314,1.6442 -0.96303,2.58964 0.0742,0.0966 0.19694,-0.10396 0.26236,-0.13849 0.86949,-0.63645 1.94809,-0.91516 2.99232,-1.11212 0.14848,-0.0603 0.37955,0.0438 0.48865,-0.086 -0.10344,-0.21598 -0.34395,-0.35737 -0.47577,-0.5633 -0.36468,-0.41786 -0.72664,-0.87508 -0.79227,-1.44658 -0.1427,-0.78862 -0.22317,-1.59996 -0.57106,-2.33437 -0.0805,-0.27646 -0.23748,-0.52916 -0.51285,-0.64384 -0.83261,-0.55668 -1.56725,-1.30484 -1.93876,-2.25046 -0.39355,-0.92583 -0.84972,-1.86026 -0.95573,-2.87192 0.0126,-0.14642 -0.0608,-0.40809 0.0956,-0.4893 0.70985,0.71041 1.38084,1.50178 2.06656,2.22105 0.001,-1.50254 -0.16741,-3.11341 0.5651,-4.48977 0.0957,-0.17962 0.22761,-0.33567 0.36751,-0.48215 -0.0303,0.11068 -0.27062,0.3732 -0.0236,0.39921 1.39849,0.54678 2.79126,1.10833 4.186934,1.66205 0.7538,-0.007 1.50761,-0.0138 2.26141,-0.0209 0.0162,0.36158 -0.005,0.7611 0.0341,1.09943 0.01,-0.36648 0.0197,-0.73295 0.0295,-1.09943 0.91368,-0.003 1.8366,0.0435 2.7446,0.01 1.4184,-0.57288 2.8521,-1.13059 4.2609,-1.7131 -0.13553,-0.24974 -0.19872,-0.41722 0.0139,-0.13062 0.83949,1.20919 0.78308,2.75187 0.75952,4.15734 -0.0455,0.36618 -0.009,0.59582 0.25616,0.18825 0.56288,-0.59912 1.09493,-1.24074 1.69016,-1.80189 0.17165,0.17973 0.0834,0.49255 0.0653,0.71829 -0.27515,1.12212 -0.69631,2.21472 -1.23362,3.23768 -0.50399,0.80245 -1.2372,1.45187 -2.06665,1.90352 -0.25401,0.62135 -0.58048,1.24193 -0.55005,1.93402 -0.0474,0.62079 0.0181,1.32821 -0.43875,1.82423 -0.2765,0.37189 -0.63829,0.68863 -0.93178,1.03124 1.0979,0.16891 2.20385,0.48458 3.13976,1.09905 0.14194,0.0844 0.39939,0.46172 0.33252,0.0855 -0.0281,-0.90411 -0.45586,-1.74763 -0.9633,-2.47582 -0.0957,-0.11686 -0.14734,-0.37174 0.0743,-0.3706 0.95345,-0.0243 1.89164,0.29901 2.69378,0.80418 0.16664,0.11178 0.11045,-0.18159 0.0867,-0.25744 -0.18311,-0.766 -0.45696,-1.53776 -1.01601,-2.11479 -0.28693,-0.37672 -0.68452,-0.68273 -0.91672,-1.09413 0.12028,-0.10102 0.34943,-0.0169 0.4997,-0.0512 0.86715,0.013 1.78098,-0.0353 2.57393,0.37748 0.11144,0.0695 0.38773,0.12329 0.3232,-0.0977 -0.27808,-0.87439 -0.76793,-1.68021 -1.42478,-2.32288 -0.0966,-0.13941 -0.39761,-0.34743 -0.21974,-0.5274 0.48605,-0.3257 1.12267,-0.0914 1.65448,-0.25397 -0.1126,-0.24048 -0.31569,-0.44408 -0.45329,-0.67535 -0.31494,-0.34303 -0.79808,-0.5008 -1.07942,-0.87103 -0.10107,-0.17357 0.0657,-0.29602 0.22144,-0.32862 0.61494,-0.27283 1.27079,-0.42214 1.92424,-0.56491 0.15931,-0.0153 0.17257,-0.19968 0.0421,-0.27178 -0.59113,-0.57621 -1.44536,-0.71866 -2.23209,-0.79393 -0.23381,-0.0705 -0.55875,-0.0724 -0.70871,-0.28959 0.0627,-0.15272 0.30418,-0.0859 0.43228,-0.15293 0.56784,-0.14642 1.1079,-0.41939 1.70816,-0.40404 0.39787,0.003 -0.24895,-0.20082 -0.35415,-0.28848 -0.50595,-0.30419 -1.09424,-0.37679 -1.67091,-0.41712 -0.23803,-0.0512 -0.5061,-0.0809 -0.71876,-0.19449 0.0787,-0.21331 0.39356,-0.2323 0.5683,-0.34348 0.70941,-0.28787 1.43736,-0.54563 2.18021,-0.71803 0.12347,-0.11467 -0.16169,-0.13105 -0.21833,-0.17494 -0.57214,-0.29808 -1.1625,-0.57568 -1.80851,-0.66768 -0.58279,-0.12874 -1.20723,-0.19888 -1.73595,-0.48088 -0.0351,-0.15033 0.23777,-0.15126 0.32585,-0.19129 0.99647,-0.25424 2.03483,-0.42675 3.02366,-0.64797 -0.70767,-0.333 -1.40049,-0.78168 -2.2096,-0.79298 -0.39476,-0.0671 -0.83867,-0.0621 -1.17992,-0.29273 -0.0693,-0.14661 0.18478,-0.23625 0.25222,-0.3392 0.11452,-0.1393 0.37803,-0.22243 0.39793,-0.41838 -0.21374,-0.14865 -0.52498,-0.06 -0.77091,-0.098 -0.86794,-0.0201 -1.74041,-0.0193 -2.59911,0.11184 -0.23881,0.0373 -0.2657,-0.28752 -0.48028,-0.33374 -0.26721,-0.0849 -0.50266,-0.24691 -0.61096,-0.51597 -0.20663,-0.39396 -0.57182,-0.79197 -1.06059,-0.72734 -0.0326,0.0111 -0.0848,-0.0172 -0.11136,0.007 z"/>
    </g></g></g></svg>