<svg xmlns="http://www.w3.org/2000/svg" xmlns:xlink="http://www.w3.org/1999/xlink" width="64" height="64" viewBox="0 0 64 64"><defs id="defs355716">
    <rect x="172" y="97" width="745" height="239" id="rect276290"/>
    <color-profile name="Agfa-:-Swop-Standard" xmlns:xlink="http://www.w3.org/1999/xlink" xlink:href="file:///C:/WINDOWS/system32/spool/drivers/color/RSWOP.icm" id="color-profile294613"/>
    <linearGradient xmlns:inkscape="http://www.inkscape.org/namespaces/inkscape" inkscape:collect="always" id="linearGradient140439">
      <stop style="stop-color:#a4a870;stop-opacity:1;" offset="0" id="stop140435"/>
      <stop style="stop-color:#a4a870;stop-opacity:0;" offset="1" id="stop140437"/>
    </linearGradient>
    <linearGradient xmlns:inkscape="http://www.inkscape.org/namespaces/inkscape" inkscape:collect="always" id="linearGradient140390">
      <stop style="stop-color:#359676;stop-opacity:1;" offset="0" id="stop140386"/>
      <stop style="stop-color:#4a6a5e;stop-opacity:0;" offset="1" id="stop140388"/>
    </linearGradient>
    <linearGradient xmlns:inkscape="http://www.inkscape.org/namespaces/inkscape" inkscape:collect="always" id="linearGradient139515">
      <stop style="stop-color:#dbd764;stop-opacity:1;" offset="0" id="stop139511"/>
      <stop style="stop-color:#dbd764;stop-opacity:0;" offset="0.56578946" id="stop139513"/>
    </linearGradient>
    <linearGradient xmlns:inkscape="http://www.inkscape.org/namespaces/inkscape" inkscape:collect="always" id="linearGradient139325">
      <stop style="stop-color:#161c16;stop-opacity:1;" offset="0" id="stop139321"/>
      <stop style="stop-color:#6e836c;stop-opacity:0;" offset="1" id="stop139323"/>
    </linearGradient>
    <linearGradient xmlns:inkscape="http://www.inkscape.org/namespaces/inkscape" inkscape:collect="always" id="linearGradient387614">
      <stop style="stop-color:#a4a870;stop-opacity:1;" offset="0" id="stop387610"/>
      <stop style="stop-color:#a4a870;stop-opacity:0;" offset="1" id="stop387612"/>
    </linearGradient>
    <linearGradient xmlns:inkscape="http://www.inkscape.org/namespaces/inkscape" inkscape:collect="always" id="linearGradient387421">
      <stop style="stop-color:#344533;stop-opacity:1;" offset="0" id="stop387417"/>
      <stop style="stop-color:#1d251d;stop-opacity:0;" offset="1" id="stop387419"/>
    </linearGradient>
    <linearGradient xmlns:inkscape="http://www.inkscape.org/namespaces/inkscape" inkscape:collect="always" xmlns:xlink="http://www.w3.org/1999/xlink" xlink:href="#linearGradient206680" id="linearGradient206682" x1="168.01042" y1="262.08701" x2="168.01042" y2="247.38542" gradientUnits="userSpaceOnUse"/>
    <linearGradient xmlns:inkscape="http://www.inkscape.org/namespaces/inkscape" inkscape:collect="always" id="linearGradient206680">
      <stop style="stop-color:#dbd764;stop-opacity:0;" offset="0.38377193" id="stop206678"/>
      <stop style="stop-color:#dbd764;stop-opacity:1;" offset="1" id="stop206676"/>
    </linearGradient>
    <linearGradient xmlns:inkscape="http://www.inkscape.org/namespaces/inkscape" inkscape:collect="always" xmlns:xlink="http://www.w3.org/1999/xlink" xlink:href="#linearGradient216292" id="linearGradient216294" x1="168.01042" y1="236.00833" x2="168.01042" y2="248.97292" gradientUnits="userSpaceOnUse" gradientTransform="translate(8.4073796,-0.78650088)"/>
    <linearGradient xmlns:inkscape="http://www.inkscape.org/namespaces/inkscape" inkscape:collect="always" id="linearGradient216292">
      <stop style="stop-color:#359676;stop-opacity:1;" offset="0" id="stop216288"/>
      <stop style="stop-color:#4a6a5f;stop-opacity:0;" offset="1" id="stop216290"/>
    </linearGradient>
    <linearGradient xmlns:inkscape="http://www.inkscape.org/namespaces/inkscape" inkscape:collect="always" xmlns:xlink="http://www.w3.org/1999/xlink" xlink:href="#linearGradient387421" id="linearGradient387423" x1="31.75" y1="155.31041" x2="31.921236" y2="171.18663" gradientUnits="userSpaceOnUse"/>
    <linearGradient xmlns:inkscape="http://www.inkscape.org/namespaces/inkscape" inkscape:collect="always" xmlns:xlink="http://www.w3.org/1999/xlink" xlink:href="#linearGradient387614" id="linearGradient387616" x1="45.011326" y1="158.73975" x2="51.59375" y2="162.71875" gradientUnits="userSpaceOnUse" gradientTransform="translate(2.9601329,-0.98671096)"/>
    <linearGradient xmlns:inkscape="http://www.inkscape.org/namespaces/inkscape" inkscape:collect="always" xmlns:xlink="http://www.w3.org/1999/xlink" xlink:href="#linearGradient387614" id="linearGradient387620" gradientUnits="userSpaceOnUse" x1="45.011326" y1="158.73975" x2="51.593746" y2="162.71875" gradientTransform="matrix(-1,0,0,1,108.79346,-0.98671096)"/>
    <linearGradient xmlns:inkscape="http://www.inkscape.org/namespaces/inkscape" inkscape:collect="always" xmlns:xlink="http://www.w3.org/1999/xlink" xlink:href="#linearGradient139325" id="linearGradient139327" x1="70" y1="21" x2="70" y2="37" gradientUnits="userSpaceOnUse"/>
    <linearGradient xmlns:inkscape="http://www.inkscape.org/namespaces/inkscape" inkscape:collect="always" xmlns:xlink="http://www.w3.org/1999/xlink" xlink:href="#linearGradient139515" id="linearGradient139517" x1="70.426315" y1="1.5429174" x2="70.46106" y2="18.249472" gradientUnits="userSpaceOnUse"/>
    <linearGradient xmlns:inkscape="http://www.inkscape.org/namespaces/inkscape" inkscape:collect="always" xmlns:xlink="http://www.w3.org/1999/xlink" xlink:href="#linearGradient140390" id="linearGradient140392" x1="90.084175" y1="1.3586814" x2="90" y2="16" gradientUnits="userSpaceOnUse"/>
    <linearGradient xmlns:inkscape="http://www.inkscape.org/namespaces/inkscape" inkscape:collect="always" xmlns:xlink="http://www.w3.org/1999/xlink" xlink:href="#linearGradient140439" id="linearGradient140441" x1="90.01368" y1="24.010059" x2="94.88681" y2="28.136377" gradientUnits="userSpaceOnUse"/>
    <linearGradient xmlns:inkscape="http://www.inkscape.org/namespaces/inkscape" inkscape:collect="always" xmlns:xlink="http://www.w3.org/1999/xlink" xlink:href="#linearGradient140439" id="linearGradient140449" gradientUnits="userSpaceOnUse" x1="90.01368" y1="24.010059" x2="94.88681" y2="28.136377" gradientTransform="matrix(-1,0,0,1,190,0)"/>
    <radialGradient xmlns:inkscape="http://www.inkscape.org/namespaces/inkscape" inkscape:collect="always" xmlns:xlink="http://www.w3.org/1999/xlink" xlink:href="#linearGradient177339" id="radialGradient177341-3-0" cx="44.135807" cy="121.46028" fx="44.135807" fy="121.46028" r="1.1079427" gradientTransform="matrix(1.5015971,0,0,0.99367432,-157.6034,-4.3351259)" gradientUnits="userSpaceOnUse"/>
    <linearGradient xmlns:inkscape="http://www.inkscape.org/namespaces/inkscape" inkscape:collect="always" id="linearGradient177339">
      <stop style="stop-color:#b98d3e;stop-opacity:1;" offset="0" id="stop177335"/>
      <stop style="stop-color:#c9c943;stop-opacity:0;" offset="1" id="stop177337"/>
    </linearGradient>
    <radialGradient xmlns:inkscape="http://www.inkscape.org/namespaces/inkscape" inkscape:collect="always" xmlns:xlink="http://www.w3.org/1999/xlink" xlink:href="#linearGradient177339" id="radialGradient177345-7-9" gradientUnits="userSpaceOnUse" gradientTransform="matrix(1.5015971,0,0,0.99367432,-195.50719,-68.761115)" cx="44.135807" cy="121.46028" fx="44.135807" fy="121.46028" r="1.1079427"/>
    <rect x="172" y="97" width="745" height="239" id="rect276290-2"/>
    <rect x="172" y="97" width="745" height="239" id="rect276290-2-5"/>
    <rect x="172" y="97" width="745" height="239" id="rect276290-2-5-7"/>
  </defs><g transform="translate(220.18023600266116 -276.2099289190798) scale(2.570129206204699)"><g><g transform="translate(-220.42673,-119.23984)">
      <g transform="matrix(-0.95195627,0.30623399,0.30623399,0.95195627,212.43828,-13.831968)" style="fill:#a69e6c;fill-opacity:1">
        <g style="fill:#a69e6c;fill-opacity:1" transform="matrix(0.5499883,-0.00358909,0.00358909,0.5499883,101.29921,169.24448)">
          <path style="fill:#a69e6c;fill-opacity:1;fill-rule:evenodd;stroke:#000000;stroke-width:0.264583px;stroke-linecap:butt;stroke-linejoin:miter;stroke-opacity:1" d="m 59.437706,97.989374 2.629296,-2.64583"/>
          <path style="fill:#a69e6c;fill-opacity:1;fill-rule:evenodd;stroke:#000000;stroke-width:0.264583px;stroke-linecap:butt;stroke-linejoin:miter;stroke-opacity:1" d="m 60.760622,94.020624 2.645833,2.64583"/>
          <path style="fill:#a69e6c;fill-opacity:1;fill-rule:evenodd;stroke:#000000;stroke-width:0.264583px;stroke-linecap:butt;stroke-linejoin:miter;stroke-opacity:1" d="m 59.437705,95.343544 2.645833,-2.64584"/>
          <path style="fill:#a69e6c;fill-opacity:1;fill-rule:evenodd;stroke:#000000;stroke-width:0.264583px;stroke-linecap:butt;stroke-linejoin:miter;stroke-opacity:1" d="m 63.406455,94.020624 -2.645833,-2.64583"/>
          <path style="fill:#a69e6c;fill-opacity:1;fill-rule:evenodd;stroke:#000000;stroke-width:0.264583px;stroke-linecap:butt;stroke-linejoin:miter;stroke-opacity:1" d="m 59.437705,92.697704 2.645833,-2.645831"/>
          <path style="fill:#a69e6c;fill-opacity:1;fill-rule:evenodd;stroke:#000000;stroke-width:0.264583px;stroke-linecap:butt;stroke-linejoin:miter;stroke-opacity:1" d="m 62.083539,90.051874 1.322916,1.32292 0.529167,1.32291 -0.529167,1.32292 0.529167,1.32292 -0.529166,1.32291"/>
          <path style="fill:#a69e6c;fill-opacity:1;fill-rule:evenodd;stroke:#000000;stroke-width:0.264583px;stroke-linecap:butt;stroke-linejoin:miter;stroke-opacity:1" d="m 59.437705,92.697704 -0.529166,1.32292 0.529166,1.37253 -0.529166,1.2733 0.529166,1.32292"/>
          <path style="fill:#a69e6c;fill-opacity:1;fill-rule:evenodd;stroke:#000000;stroke-width:0.264583px;stroke-linecap:butt;stroke-linejoin:miter;stroke-opacity:1" d="m 59.437707,103.28104 2.629296,-2.64583"/>
          <path style="fill:#a69e6c;fill-opacity:1;fill-rule:evenodd;stroke:#000000;stroke-width:0.264583px;stroke-linecap:butt;stroke-linejoin:miter;stroke-opacity:1" d="m 60.760623,99.312294 2.645833,2.645826"/>
          <path style="fill:#a69e6c;fill-opacity:1;fill-rule:evenodd;stroke:#000000;stroke-width:0.264583px;stroke-linecap:butt;stroke-linejoin:miter;stroke-opacity:1" d="m 59.437706,100.63521 2.645833,-2.645836"/>
          <path style="fill:#a69e6c;fill-opacity:1;fill-rule:evenodd;stroke:#000000;stroke-width:0.264583px;stroke-linecap:butt;stroke-linejoin:miter;stroke-opacity:1" d="m 63.406456,99.312294 -2.645833,-2.64583"/>
          <path style="fill:#a69e6c;fill-opacity:1;fill-rule:evenodd;stroke:#000000;stroke-width:0.264583px;stroke-linecap:butt;stroke-linejoin:miter;stroke-opacity:1" d="m 59.437706,97.989374 2.645833,-2.64583"/>
          <path style="fill:#a69e6c;fill-opacity:1;fill-rule:evenodd;stroke:#000000;stroke-width:0.264583px;stroke-linecap:butt;stroke-linejoin:miter;stroke-opacity:1" d="m 62.08354,95.343544 1.322916,1.32292 0.529167,1.32291 -0.529167,1.32292 0.529167,1.322916 -0.529166,1.32291"/>
          <path style="fill:#a69e6c;fill-opacity:1;fill-rule:evenodd;stroke:#000000;stroke-width:0.264583px;stroke-linecap:butt;stroke-linejoin:miter;stroke-opacity:1" d="m 59.437706,97.989374 -0.529166,1.32292 0.529166,1.372526 -0.529166,1.2733 0.529166,1.32292"/>
          <path style="fill:#a69e6c;fill-opacity:1;fill-rule:evenodd;stroke:#000000;stroke-width:0.264583px;stroke-linecap:butt;stroke-linejoin:miter;stroke-opacity:1" d="m 59.437706,108.5727 2.629296,-2.64583"/>
          <path style="fill:#a69e6c;fill-opacity:1;fill-rule:evenodd;stroke:#000000;stroke-width:0.264583px;stroke-linecap:butt;stroke-linejoin:miter;stroke-opacity:1" d="m 60.760622,104.60395 2.645833,2.64583"/>
          <path style="fill:#a69e6c;fill-opacity:1;fill-rule:evenodd;stroke:#000000;stroke-width:0.264583px;stroke-linecap:butt;stroke-linejoin:miter;stroke-opacity:1" d="m 59.437705,105.92687 2.645833,-2.64584"/>
          <path style="fill:#a69e6c;fill-opacity:1;fill-rule:evenodd;stroke:#000000;stroke-width:0.264583px;stroke-linecap:butt;stroke-linejoin:miter;stroke-opacity:1" d="m 63.406455,104.60395 -2.645833,-2.64583"/>
          <path style="fill:#a69e6c;fill-opacity:1;fill-rule:evenodd;stroke:#000000;stroke-width:0.264583px;stroke-linecap:butt;stroke-linejoin:miter;stroke-opacity:1" d="m 59.437705,103.28103 2.645833,-2.64583"/>
          <path style="fill:#a69e6c;fill-opacity:1;fill-rule:evenodd;stroke:#000000;stroke-width:0.264583px;stroke-linecap:butt;stroke-linejoin:miter;stroke-opacity:1" d="m 62.083539,100.6352 1.322916,1.32292 0.529167,1.32291 -0.529167,1.32292 0.529167,1.32292 -0.529166,1.32291"/>
          <path style="fill:#a69e6c;fill-opacity:1;fill-rule:evenodd;stroke:#000000;stroke-width:0.264583px;stroke-linecap:butt;stroke-linejoin:miter;stroke-opacity:1" d="m 59.437705,103.28103 -0.529166,1.32292 0.529166,1.37253 -0.529166,1.2733 0.529166,1.32292"/>
          <path style="fill:#a69e6c;fill-opacity:1;fill-rule:evenodd;stroke:#000000;stroke-width:0.264583px;stroke-linecap:butt;stroke-linejoin:miter;stroke-opacity:1" d="m 59.437707,113.86437 2.474793,2.5523"/>
          <path style="fill:#a69e6c;fill-opacity:1;fill-rule:evenodd;stroke:#000000;stroke-width:0.264583px;stroke-linecap:butt;stroke-linejoin:miter;stroke-opacity:1" d="m 61.9125,116.41667 2.116667,-2.64584 0.529166,-1.32291"/>
          <path style="fill:#a69e6c;fill-opacity:1;fill-rule:evenodd;stroke:#000000;stroke-width:0.264583px;stroke-linecap:butt;stroke-linejoin:miter;stroke-opacity:1" d="m 59.437706,111.21854 2.645833,-2.64584"/>
          <path style="fill:#a69e6c;fill-opacity:1;fill-rule:evenodd;stroke:#000000;stroke-width:0.264583px;stroke-linecap:butt;stroke-linejoin:miter;stroke-opacity:1" d="m 63.406456,109.89562 -2.645833,-2.64583"/>
          <path style="fill:#a69e6c;fill-opacity:1;fill-rule:evenodd;stroke:#000000;stroke-width:0.264583px;stroke-linecap:butt;stroke-linejoin:miter;stroke-opacity:1" d="m 59.437706,108.5727 2.645833,-2.64583"/>
          <path style="fill:#a69e6c;fill-opacity:1;fill-rule:evenodd;stroke:#000000;stroke-width:0.264583px;stroke-linecap:butt;stroke-linejoin:miter;stroke-opacity:1" d="m 62.08354,105.92687 1.322916,1.32292 0.529167,1.32291 -0.529167,1.32292 0.358127,1.49396 0.79375,1.05834"/>
          <path style="fill:#a69e6c;fill-opacity:1;fill-rule:evenodd;stroke:#000000;stroke-width:0.264583px;stroke-linecap:butt;stroke-linejoin:miter;stroke-opacity:1" d="m 59.437706,108.5727 -0.529166,1.32292 0.529166,1.37253 -0.529166,1.2733 0.529166,1.32292"/>
        </g>
        <g style="fill:#a69e6c;fill-opacity:1" transform="translate(-86.513079,-68.208464)">
          <path style="fill:#a69e6c;fill-opacity:1;stroke:#000000;stroke-width:0.0182188;stroke-linecap:round;stroke-linejoin:miter;stroke-dasharray:none;stroke-opacity:1" d="m 221.97617,287.17964 c -0.0996,0.10459 -0.20978,0.20485 -0.3029,0.31201 0.44022,0.42683 0.86546,0.87226 1.31994,1.28255 0.0874,-0.18337 0.15463,-0.37978 0.23031,-0.56892 -0.098,-0.22684 -0.17809,-0.46543 -0.28649,-0.68535 -0.21986,-0.21428 -0.43545,-0.43891 -0.65793,-0.6468 -0.10098,0.10219 -0.20195,0.20438 -0.30295,0.30652 z"/>
          <path style="fill:#a69e6c;fill-opacity:1;stroke:#000000;stroke-width:0.0182188;stroke-linecap:round;stroke-linejoin:miter;stroke-dasharray:none;stroke-opacity:1" d="m 221.55549,287.6055 c -0.21912,0.2303 -0.45565,0.44923 -0.66419,0.68646 -0.0858,0.22118 -0.17437,0.44185 -0.25844,0.66335 0.0792,0.18973 0.144,0.38731 0.23612,0.57073 0.4445,-0.42417 0.87016,-0.87446 1.30589,-1.31007 -0.19914,-0.2053 -0.4112,-0.41445 -0.61933,-0.61049 z"/>
          <path style="fill:#a69e6c;fill-opacity:1;stroke:#000000;stroke-width:0.0182188;stroke-linecap:round;stroke-linejoin:miter;stroke-dasharray:none;stroke-opacity:1" d="m 221.98567,288.63482 c -0.0996,0.10458 -0.20978,0.20484 -0.3029,0.312 0.44022,0.42683 0.86545,0.87227 1.31994,1.28256 0.0874,-0.18337 0.15463,-0.37978 0.23031,-0.56893 -0.098,-0.22684 -0.17809,-0.46542 -0.28649,-0.68534 -0.21987,-0.21428 -0.43545,-0.43891 -0.65794,-0.6468 -0.10097,0.10219 -0.20194,0.20438 -0.30294,0.30652 z"/>
          <path style="fill:#a69e6c;fill-opacity:1;stroke:#000000;stroke-width:0.0182188;stroke-linecap:round;stroke-linejoin:miter;stroke-dasharray:none;stroke-opacity:1" d="m 221.24793,289.38225 c -0.12571,0.15175 -0.31957,0.25849 -0.3737,0.45759 -0.0766,0.18937 -0.15617,0.37817 -0.23097,0.56791 0.0778,0.1813 0.14436,0.37101 0.22849,0.54776 0.10251,-0.0331 0.16779,-0.14584 0.25152,-0.21165 0.35426,-0.35781 0.71486,-0.71533 1.06083,-1.0776 -0.20665,-0.20055 -0.40904,-0.41155 -0.6183,-0.60563 -0.10596,0.10717 -0.21189,0.21441 -0.31785,0.32161 z"/>
          <path style="fill:#a69e6c;fill-opacity:1;stroke:#000000;stroke-width:0.0182188;stroke-linecap:round;stroke-linejoin:miter;stroke-dasharray:none;stroke-opacity:1" d="m 221.99517,290.09 c -0.0996,0.10458 -0.20978,0.20484 -0.3029,0.312 0.44021,0.42683 0.86545,0.87226 1.31993,1.28256 0.0874,-0.18337 0.15464,-0.37977 0.23032,-0.56893 -0.098,-0.22684 -0.17809,-0.46542 -0.2865,-0.68534 -0.21986,-0.21428 -0.43545,-0.43892 -0.65793,-0.64681 -0.10097,0.1022 -0.20195,0.20439 -0.30294,0.30653 z"/>
          <path style="fill:#a69e6c;fill-opacity:1;stroke:#000000;stroke-width:0.0182188;stroke-linecap:round;stroke-linejoin:miter;stroke-dasharray:none;stroke-opacity:1" d="m 221.57449,290.51585 c -0.21913,0.23031 -0.45566,0.44924 -0.66419,0.68646 -0.0858,0.22119 -0.17438,0.44185 -0.25845,0.66335 0.0792,0.18973 0.144,0.38732 0.23612,0.57073 0.4445,-0.42416 0.87015,-0.87445 1.30589,-1.31006 -0.19913,-0.20531 -0.4112,-0.41445 -0.61933,-0.6105 z"/>
          <path style="fill:#a69e6c;fill-opacity:1;stroke:#000000;stroke-width:0.0182188;stroke-linecap:round;stroke-linejoin:miter;stroke-dasharray:none;stroke-opacity:1" d="m 222.00467,291.54519 c -0.0996,0.10458 -0.20983,0.20474 -0.30291,0.31199 0.44022,0.42683 0.86545,0.87226 1.31994,1.28255 0.0874,-0.18337 0.15463,-0.37977 0.23031,-0.56892 -0.098,-0.22684 -0.17809,-0.46542 -0.28649,-0.68534 -0.21986,-0.21429 -0.43545,-0.43892 -0.65793,-0.64681 -0.10098,0.10219 -0.20195,0.20438 -0.30294,0.30653 z"/>
          <path style="fill:#a69e6c;fill-opacity:1;stroke:#000000;stroke-width:0.0182188;stroke-linecap:round;stroke-linejoin:miter;stroke-dasharray:none;stroke-opacity:1" d="m 221.26693,292.2926 c -0.12571,0.15176 -0.31958,0.25849 -0.37371,0.4576 -0.0766,0.18936 -0.15616,0.37816 -0.23097,0.5679 0.0779,0.18132 0.14436,0.37101 0.22849,0.54777 0.10251,-0.0331 0.1678,-0.14584 0.25152,-0.21165 0.35426,-0.35783 0.71486,-0.71535 1.06083,-1.07762 -0.20665,-0.20054 -0.40903,-0.41153 -0.6183,-0.60563 -0.10597,0.10717 -0.2119,0.21442 -0.31785,0.32161 z"/>
          <path style="fill:#a69e6c;fill-opacity:1;stroke:#000000;stroke-width:0.0182188;stroke-linecap:round;stroke-linejoin:miter;stroke-dasharray:none;stroke-opacity:1" d="m 222.01416,293.00036 c -0.0996,0.10458 -0.20982,0.20474 -0.3029,0.31199 0.44022,0.42683 0.86544,0.87227 1.31993,1.28256 0.0874,-0.18337 0.15464,-0.37977 0.23032,-0.56893 -0.098,-0.22684 -0.17809,-0.46541 -0.28649,-0.68534 -0.21987,-0.21428 -0.43546,-0.43891 -0.65794,-0.6468 -0.10097,0.10219 -0.20195,0.20438 -0.30294,0.30653 z"/>
          <path style="fill:#a69e6c;fill-opacity:1;stroke:#000000;stroke-width:0.0182188;stroke-linecap:round;stroke-linejoin:miter;stroke-dasharray:none;stroke-opacity:1" d="m 221.59348,293.42621 c -0.21913,0.2303 -0.45566,0.44923 -0.66419,0.68646 -0.0858,0.22118 -0.17437,0.44184 -0.25845,0.66334 0.0792,0.18973 0.144,0.38732 0.23613,0.57073 0.4445,-0.42416 0.87014,-0.87445 1.30588,-1.31006 -0.19913,-0.20531 -0.4112,-0.41445 -0.61933,-0.61049 z"/>
          <path style="fill:#a69e6c;fill-opacity:1;stroke:#000000;stroke-width:0.0182188;stroke-linecap:round;stroke-linejoin:miter;stroke-dasharray:none;stroke-opacity:1" d="m 222.02366,294.45554 c -0.0996,0.10458 -0.20978,0.20484 -0.30291,0.31199 0.44022,0.42683 0.86545,0.87227 1.31994,1.28256 0.0874,-0.18337 0.15464,-0.37977 0.23031,-0.56893 -0.098,-0.22684 -0.17808,-0.46542 -0.28649,-0.68534 -0.21986,-0.21428 -0.43545,-0.43891 -0.65793,-0.64681 -0.10097,0.1022 -0.20195,0.20439 -0.30294,0.30654 z"/>
          <path style="fill:#a69e6c;fill-opacity:1;stroke:#000000;stroke-width:0.0182188;stroke-linecap:round;stroke-linejoin:miter;stroke-dasharray:none;stroke-opacity:1" d="m 221.28592,295.20297 c -0.12571,0.15175 -0.31958,0.25849 -0.37371,0.45758 -0.0766,0.18937 -0.15616,0.37816 -0.23097,0.56791 0.0778,0.18131 0.14437,0.37101 0.22849,0.54776 0.10252,-0.0331 0.1678,-0.14584 0.25152,-0.21164 0.35426,-0.35783 0.71486,-0.71535 1.06083,-1.07762 -0.20665,-0.20055 -0.40903,-0.41154 -0.61831,-0.60563 -0.10595,0.10716 -0.21188,0.21441 -0.31783,0.32162 z"/>
          <path style="fill:#a69e6c;fill-opacity:1;stroke:#000000;stroke-width:0.0182188;stroke-linecap:round;stroke-linejoin:miter;stroke-dasharray:none;stroke-opacity:1" d="m 222.03316,295.91072 c -0.0996,0.10458 -0.20978,0.20484 -0.30291,0.31199 0.44022,0.42683 0.86545,0.87226 1.31994,1.28255 0.0874,-0.18337 0.15463,-0.37977 0.23031,-0.56892 -0.098,-0.22684 -0.17809,-0.46542 -0.28649,-0.68534 -0.21986,-0.21429 -0.43545,-0.43892 -0.65794,-0.64681 -0.10097,0.10219 -0.20194,0.20438 -0.30293,0.30654 z"/>
          <path style="fill:#a69e6c;fill-opacity:1;stroke:#000000;stroke-width:0.0182188;stroke-linecap:round;stroke-linejoin:miter;stroke-dasharray:none;stroke-opacity:1" d="m 221.61247,296.33656 c -0.21913,0.23031 -0.45565,0.44924 -0.66418,0.68647 -0.0856,0.22079 -0.17404,0.44106 -0.258,0.66216 0.0403,0.0992 0.0742,0.2032 0.11745,0.2999 0.13431,-0.001 0.26923,5e-5 0.40316,-0.003 0.33899,-0.34724 0.6883,-0.6903 1.0208,-1.0402 -0.20692,-0.20034 -0.40972,-0.41119 -0.61927,-0.60499 z"/>
          <path style="fill:#a69e6c;fill-opacity:1;stroke:#000000;stroke-width:0.0182188;stroke-linecap:round;stroke-linejoin:miter;stroke-dasharray:none;stroke-opacity:1" d="m 221.89346,297.51705 c -0.14689,0.15523 -0.31489,0.30651 -0.44875,0.46429 0.54186,-0.007 1.08974,-9e-4 1.62785,-0.0153 -0.0341,-0.12051 -0.0272,-0.26396 -0.14777,-0.33657 -0.19394,-0.18869 -0.38361,-0.38775 -0.5802,-0.57002 -0.15049,0.15261 -0.30102,0.30516 -0.45152,0.45775 z"/>
          <path style="fill:#a69e6c;fill-opacity:1;stroke:#000000;stroke-width:0.0182188;stroke-linecap:round;stroke-linejoin:miter;stroke-dasharray:none;stroke-opacity:1" d="m 222.10862,298.71955 c -0.41423,0.006 -0.8304,0.005 -1.24343,0.0151 -0.0547,0.13454 -0.1124,0.26838 -0.16531,0.40322 0.0998,0.23094 0.18324,0.47274 0.29362,0.69683 0.4274,0.42772 0.83903,0.87303 1.2821,1.2841 0.37898,-0.44428 0.73175,-0.91582 1.09788,-1.37263 0.0858,-0.22387 0.17689,-0.44716 0.25953,-0.6714 -0.0951,-0.12227 -0.18762,-0.24778 -0.28443,-0.36803 -0.41331,0.004 -0.82661,0.008 -1.23992,0.0128 z"/>
        </g>
        <rect style="fill:#a69e6c;fill-opacity:1;stroke:#000000;stroke-width:0.14575;stroke-linecap:round;stroke-linejoin:miter;stroke-dasharray:none;stroke-opacity:1" width="2.7648959" height="0.58208328" x="132.6438" y="230.72961" transform="rotate(-0.37389303)"/>
      </g>
      <g transform="rotate(17.832419,85.510467,257.14582)" style="fill:#a69e6c;fill-opacity:1">
        <g style="fill:#a69e6c;fill-opacity:1" transform="matrix(0.5499883,-0.00358909,0.00358909,0.5499883,101.29921,169.24448)">
          <path style="fill:#a69e6c;fill-opacity:1;fill-rule:evenodd;stroke:#000000;stroke-width:0.264583px;stroke-linecap:butt;stroke-linejoin:miter;stroke-opacity:1" d="m 59.437706,97.989374 2.629296,-2.64583"/>
          <path style="fill:#a69e6c;fill-opacity:1;fill-rule:evenodd;stroke:#000000;stroke-width:0.264583px;stroke-linecap:butt;stroke-linejoin:miter;stroke-opacity:1" d="m 60.760622,94.020624 2.645833,2.64583"/>
          <path style="fill:#a69e6c;fill-opacity:1;fill-rule:evenodd;stroke:#000000;stroke-width:0.264583px;stroke-linecap:butt;stroke-linejoin:miter;stroke-opacity:1" d="m 59.437705,95.343544 2.645833,-2.64584"/>
          <path style="fill:#a69e6c;fill-opacity:1;fill-rule:evenodd;stroke:#000000;stroke-width:0.264583px;stroke-linecap:butt;stroke-linejoin:miter;stroke-opacity:1" d="m 63.406455,94.020624 -2.645833,-2.64583"/>
          <path style="fill:#a69e6c;fill-opacity:1;fill-rule:evenodd;stroke:#000000;stroke-width:0.264583px;stroke-linecap:butt;stroke-linejoin:miter;stroke-opacity:1" d="m 59.437705,92.697704 2.645833,-2.645831"/>
          <path style="fill:#a69e6c;fill-opacity:1;fill-rule:evenodd;stroke:#000000;stroke-width:0.264583px;stroke-linecap:butt;stroke-linejoin:miter;stroke-opacity:1" d="m 62.083539,90.051874 1.322916,1.32292 0.529167,1.32291 -0.529167,1.32292 0.529167,1.32292 -0.529166,1.32291"/>
          <path style="fill:#a69e6c;fill-opacity:1;fill-rule:evenodd;stroke:#000000;stroke-width:0.264583px;stroke-linecap:butt;stroke-linejoin:miter;stroke-opacity:1" d="m 59.437705,92.697704 -0.529166,1.32292 0.529166,1.37253 -0.529166,1.2733 0.529166,1.32292"/>
          <path style="fill:#a69e6c;fill-opacity:1;fill-rule:evenodd;stroke:#000000;stroke-width:0.264583px;stroke-linecap:butt;stroke-linejoin:miter;stroke-opacity:1" d="m 59.437707,103.28104 2.629296,-2.64583"/>
          <path style="fill:#a69e6c;fill-opacity:1;fill-rule:evenodd;stroke:#000000;stroke-width:0.264583px;stroke-linecap:butt;stroke-linejoin:miter;stroke-opacity:1" d="m 60.760623,99.312294 2.645833,2.645826"/>
          <path style="fill:#a69e6c;fill-opacity:1;fill-rule:evenodd;stroke:#000000;stroke-width:0.264583px;stroke-linecap:butt;stroke-linejoin:miter;stroke-opacity:1" d="m 59.437706,100.63521 2.645833,-2.645836"/>
          <path style="fill:#a69e6c;fill-opacity:1;fill-rule:evenodd;stroke:#000000;stroke-width:0.264583px;stroke-linecap:butt;stroke-linejoin:miter;stroke-opacity:1" d="m 63.406456,99.312294 -2.645833,-2.64583"/>
          <path style="fill:#a69e6c;fill-opacity:1;fill-rule:evenodd;stroke:#000000;stroke-width:0.264583px;stroke-linecap:butt;stroke-linejoin:miter;stroke-opacity:1" d="m 59.437706,97.989374 2.645833,-2.64583"/>
          <path style="fill:#a69e6c;fill-opacity:1;fill-rule:evenodd;stroke:#000000;stroke-width:0.264583px;stroke-linecap:butt;stroke-linejoin:miter;stroke-opacity:1" d="m 62.08354,95.343544 1.322916,1.32292 0.529167,1.32291 -0.529167,1.32292 0.529167,1.322916 -0.529166,1.32291"/>
          <path style="fill:#a69e6c;fill-opacity:1;fill-rule:evenodd;stroke:#000000;stroke-width:0.264583px;stroke-linecap:butt;stroke-linejoin:miter;stroke-opacity:1" d="m 59.437706,97.989374 -0.529166,1.32292 0.529166,1.372526 -0.529166,1.2733 0.529166,1.32292"/>
          <path style="fill:#a69e6c;fill-opacity:1;fill-rule:evenodd;stroke:#000000;stroke-width:0.264583px;stroke-linecap:butt;stroke-linejoin:miter;stroke-opacity:1" d="m 59.437706,108.5727 2.629296,-2.64583"/>
          <path style="fill:#a69e6c;fill-opacity:1;fill-rule:evenodd;stroke:#000000;stroke-width:0.264583px;stroke-linecap:butt;stroke-linejoin:miter;stroke-opacity:1" d="m 60.760622,104.60395 2.645833,2.64583"/>
          <path style="fill:#a69e6c;fill-opacity:1;fill-rule:evenodd;stroke:#000000;stroke-width:0.264583px;stroke-linecap:butt;stroke-linejoin:miter;stroke-opacity:1" d="m 59.437705,105.92687 2.645833,-2.64584"/>
          <path style="fill:#a69e6c;fill-opacity:1;fill-rule:evenodd;stroke:#000000;stroke-width:0.264583px;stroke-linecap:butt;stroke-linejoin:miter;stroke-opacity:1" d="m 63.406455,104.60395 -2.645833,-2.64583"/>
          <path style="fill:#a69e6c;fill-opacity:1;fill-rule:evenodd;stroke:#000000;stroke-width:0.264583px;stroke-linecap:butt;stroke-linejoin:miter;stroke-opacity:1" d="m 59.437705,103.28103 2.645833,-2.64583"/>
          <path style="fill:#a69e6c;fill-opacity:1;fill-rule:evenodd;stroke:#000000;stroke-width:0.264583px;stroke-linecap:butt;stroke-linejoin:miter;stroke-opacity:1" d="m 62.083539,100.6352 1.322916,1.32292 0.529167,1.32291 -0.529167,1.32292 0.529167,1.32292 -0.529166,1.32291"/>
          <path style="fill:#a69e6c;fill-opacity:1;fill-rule:evenodd;stroke:#000000;stroke-width:0.264583px;stroke-linecap:butt;stroke-linejoin:miter;stroke-opacity:1" d="m 59.437705,103.28103 -0.529166,1.32292 0.529166,1.37253 -0.529166,1.2733 0.529166,1.32292"/>
          <path style="fill:#a69e6c;fill-opacity:1;fill-rule:evenodd;stroke:#000000;stroke-width:0.264583px;stroke-linecap:butt;stroke-linejoin:miter;stroke-opacity:1" d="m 59.437707,113.86437 2.474793,2.5523"/>
          <path style="fill:#a69e6c;fill-opacity:1;fill-rule:evenodd;stroke:#000000;stroke-width:0.264583px;stroke-linecap:butt;stroke-linejoin:miter;stroke-opacity:1" d="m 61.9125,116.41667 2.116667,-2.64584 0.529166,-1.32291"/>
          <path style="fill:#a69e6c;fill-opacity:1;fill-rule:evenodd;stroke:#000000;stroke-width:0.264583px;stroke-linecap:butt;stroke-linejoin:miter;stroke-opacity:1" d="m 59.437706,111.21854 2.645833,-2.64584"/>
          <path style="fill:#a69e6c;fill-opacity:1;fill-rule:evenodd;stroke:#000000;stroke-width:0.264583px;stroke-linecap:butt;stroke-linejoin:miter;stroke-opacity:1" d="m 63.406456,109.89562 -2.645833,-2.64583"/>
          <path style="fill:#a69e6c;fill-opacity:1;fill-rule:evenodd;stroke:#000000;stroke-width:0.264583px;stroke-linecap:butt;stroke-linejoin:miter;stroke-opacity:1" d="m 59.437706,108.5727 2.645833,-2.64583"/>
          <path style="fill:#a69e6c;fill-opacity:1;fill-rule:evenodd;stroke:#000000;stroke-width:0.264583px;stroke-linecap:butt;stroke-linejoin:miter;stroke-opacity:1" d="m 62.08354,105.92687 1.322916,1.32292 0.529167,1.32291 -0.529167,1.32292 0.358127,1.49396 0.79375,1.05834"/>
          <path style="fill:#a69e6c;fill-opacity:1;fill-rule:evenodd;stroke:#000000;stroke-width:0.264583px;stroke-linecap:butt;stroke-linejoin:miter;stroke-opacity:1" d="m 59.437706,108.5727 -0.529166,1.32292 0.529166,1.37253 -0.529166,1.2733 0.529166,1.32292"/>
        </g>
        <g style="fill:#a69e6c;fill-opacity:1" transform="translate(-86.513079,-68.208464)">
          <path style="fill:#a69e6c;fill-opacity:1;stroke:#000000;stroke-width:0.0182188;stroke-linecap:round;stroke-linejoin:miter;stroke-dasharray:none;stroke-opacity:1" d="m 221.97617,287.17964 c -0.0996,0.10459 -0.20978,0.20485 -0.3029,0.31201 0.44022,0.42683 0.86546,0.87226 1.31994,1.28255 0.0874,-0.18337 0.15463,-0.37978 0.23031,-0.56892 -0.098,-0.22684 -0.17809,-0.46543 -0.28649,-0.68535 -0.21986,-0.21428 -0.43545,-0.43891 -0.65793,-0.6468 -0.10098,0.10219 -0.20195,0.20438 -0.30295,0.30652 z"/>
          <path style="fill:#a69e6c;fill-opacity:1;stroke:#000000;stroke-width:0.0182188;stroke-linecap:round;stroke-linejoin:miter;stroke-dasharray:none;stroke-opacity:1" d="m 221.55549,287.6055 c -0.21912,0.2303 -0.45565,0.44923 -0.66419,0.68646 -0.0858,0.22118 -0.17437,0.44185 -0.25844,0.66335 0.0792,0.18973 0.144,0.38731 0.23612,0.57073 0.4445,-0.42417 0.87016,-0.87446 1.30589,-1.31007 -0.19914,-0.2053 -0.4112,-0.41445 -0.61933,-0.61049 z"/>
          <path style="fill:#a69e6c;fill-opacity:1;stroke:#000000;stroke-width:0.0182188;stroke-linecap:round;stroke-linejoin:miter;stroke-dasharray:none;stroke-opacity:1" d="m 221.98567,288.63482 c -0.0996,0.10458 -0.20978,0.20484 -0.3029,0.312 0.44022,0.42683 0.86545,0.87227 1.31994,1.28256 0.0874,-0.18337 0.15463,-0.37978 0.23031,-0.56893 -0.098,-0.22684 -0.17809,-0.46542 -0.28649,-0.68534 -0.21987,-0.21428 -0.43545,-0.43891 -0.65794,-0.6468 -0.10097,0.10219 -0.20194,0.20438 -0.30294,0.30652 z"/>
          <path style="fill:#a69e6c;fill-opacity:1;stroke:#000000;stroke-width:0.0182188;stroke-linecap:round;stroke-linejoin:miter;stroke-dasharray:none;stroke-opacity:1" d="m 221.24793,289.38225 c -0.12571,0.15175 -0.31957,0.25849 -0.3737,0.45759 -0.0766,0.18937 -0.15617,0.37817 -0.23097,0.56791 0.0778,0.1813 0.14436,0.37101 0.22849,0.54776 0.10251,-0.0331 0.16779,-0.14584 0.25152,-0.21165 0.35426,-0.35781 0.71486,-0.71533 1.06083,-1.0776 -0.20665,-0.20055 -0.40904,-0.41155 -0.6183,-0.60563 -0.10596,0.10717 -0.21189,0.21441 -0.31785,0.32161 z"/>
          <path style="fill:#a69e6c;fill-opacity:1;stroke:#000000;stroke-width:0.0182188;stroke-linecap:round;stroke-linejoin:miter;stroke-dasharray:none;stroke-opacity:1" d="m 221.99517,290.09 c -0.0996,0.10458 -0.20978,0.20484 -0.3029,0.312 0.44021,0.42683 0.86545,0.87226 1.31993,1.28256 0.0874,-0.18337 0.15464,-0.37977 0.23032,-0.56893 -0.098,-0.22684 -0.17809,-0.46542 -0.2865,-0.68534 -0.21986,-0.21428 -0.43545,-0.43892 -0.65793,-0.64681 -0.10097,0.1022 -0.20195,0.20439 -0.30294,0.30653 z"/>
          <path style="fill:#a69e6c;fill-opacity:1;stroke:#000000;stroke-width:0.0182188;stroke-linecap:round;stroke-linejoin:miter;stroke-dasharray:none;stroke-opacity:1" d="m 221.57449,290.51585 c -0.21913,0.23031 -0.45566,0.44924 -0.66419,0.68646 -0.0858,0.22119 -0.17438,0.44185 -0.25845,0.66335 0.0792,0.18973 0.144,0.38732 0.23612,0.57073 0.4445,-0.42416 0.87015,-0.87445 1.30589,-1.31006 -0.19913,-0.20531 -0.4112,-0.41445 -0.61933,-0.6105 z"/>
          <path style="fill:#a69e6c;fill-opacity:1;stroke:#000000;stroke-width:0.0182188;stroke-linecap:round;stroke-linejoin:miter;stroke-dasharray:none;stroke-opacity:1" d="m 222.00467,291.54519 c -0.0996,0.10458 -0.20983,0.20474 -0.30291,0.31199 0.44022,0.42683 0.86545,0.87226 1.31994,1.28255 0.0874,-0.18337 0.15463,-0.37977 0.23031,-0.56892 -0.098,-0.22684 -0.17809,-0.46542 -0.28649,-0.68534 -0.21986,-0.21429 -0.43545,-0.43892 -0.65793,-0.64681 -0.10098,0.10219 -0.20195,0.20438 -0.30294,0.30653 z"/>
          <path style="fill:#a69e6c;fill-opacity:1;stroke:#000000;stroke-width:0.0182188;stroke-linecap:round;stroke-linejoin:miter;stroke-dasharray:none;stroke-opacity:1" d="m 221.26693,292.2926 c -0.12571,0.15176 -0.31958,0.25849 -0.37371,0.4576 -0.0766,0.18936 -0.15616,0.37816 -0.23097,0.5679 0.0779,0.18132 0.14436,0.37101 0.22849,0.54777 0.10251,-0.0331 0.1678,-0.14584 0.25152,-0.21165 0.35426,-0.35783 0.71486,-0.71535 1.06083,-1.07762 -0.20665,-0.20054 -0.40903,-0.41153 -0.6183,-0.60563 -0.10597,0.10717 -0.2119,0.21442 -0.31785,0.32161 z"/>
          <path style="fill:#a69e6c;fill-opacity:1;stroke:#000000;stroke-width:0.0182188;stroke-linecap:round;stroke-linejoin:miter;stroke-dasharray:none;stroke-opacity:1" d="m 222.01416,293.00036 c -0.0996,0.10458 -0.20982,0.20474 -0.3029,0.31199 0.44022,0.42683 0.86544,0.87227 1.31993,1.28256 0.0874,-0.18337 0.15464,-0.37977 0.23032,-0.56893 -0.098,-0.22684 -0.17809,-0.46541 -0.28649,-0.68534 -0.21987,-0.21428 -0.43546,-0.43891 -0.65794,-0.6468 -0.10097,0.10219 -0.20195,0.20438 -0.30294,0.30653 z"/>
          <path style="fill:#a69e6c;fill-opacity:1;stroke:#000000;stroke-width:0.0182188;stroke-linecap:round;stroke-linejoin:miter;stroke-dasharray:none;stroke-opacity:1" d="m 221.59348,293.42621 c -0.21913,0.2303 -0.45566,0.44923 -0.66419,0.68646 -0.0858,0.22118 -0.17437,0.44184 -0.25845,0.66334 0.0792,0.18973 0.144,0.38732 0.23613,0.57073 0.4445,-0.42416 0.87014,-0.87445 1.30588,-1.31006 -0.19913,-0.20531 -0.4112,-0.41445 -0.61933,-0.61049 z"/>
          <path style="fill:#a69e6c;fill-opacity:1;stroke:#000000;stroke-width:0.0182188;stroke-linecap:round;stroke-linejoin:miter;stroke-dasharray:none;stroke-opacity:1" d="m 222.02366,294.45554 c -0.0996,0.10458 -0.20978,0.20484 -0.30291,0.31199 0.44022,0.42683 0.86545,0.87227 1.31994,1.28256 0.0874,-0.18337 0.15464,-0.37977 0.23031,-0.56893 -0.098,-0.22684 -0.17808,-0.46542 -0.28649,-0.68534 -0.21986,-0.21428 -0.43545,-0.43891 -0.65793,-0.64681 -0.10097,0.1022 -0.20195,0.20439 -0.30294,0.30654 z"/>
          <path style="fill:#a69e6c;fill-opacity:1;stroke:#000000;stroke-width:0.0182188;stroke-linecap:round;stroke-linejoin:miter;stroke-dasharray:none;stroke-opacity:1" d="m 221.28592,295.20297 c -0.12571,0.15175 -0.31958,0.25849 -0.37371,0.45758 -0.0766,0.18937 -0.15616,0.37816 -0.23097,0.56791 0.0778,0.18131 0.14437,0.37101 0.22849,0.54776 0.10252,-0.0331 0.1678,-0.14584 0.25152,-0.21164 0.35426,-0.35783 0.71486,-0.71535 1.06083,-1.07762 -0.20665,-0.20055 -0.40903,-0.41154 -0.61831,-0.60563 -0.10595,0.10716 -0.21188,0.21441 -0.31783,0.32162 z"/>
          <path style="fill:#a69e6c;fill-opacity:1;stroke:#000000;stroke-width:0.0182188;stroke-linecap:round;stroke-linejoin:miter;stroke-dasharray:none;stroke-opacity:1" d="m 222.03316,295.91072 c -0.0996,0.10458 -0.20978,0.20484 -0.30291,0.31199 0.44022,0.42683 0.86545,0.87226 1.31994,1.28255 0.0874,-0.18337 0.15463,-0.37977 0.23031,-0.56892 -0.098,-0.22684 -0.17809,-0.46542 -0.28649,-0.68534 -0.21986,-0.21429 -0.43545,-0.43892 -0.65794,-0.64681 -0.10097,0.10219 -0.20194,0.20438 -0.30293,0.30654 z"/>
          <path style="fill:#a69e6c;fill-opacity:1;stroke:#000000;stroke-width:0.0182188;stroke-linecap:round;stroke-linejoin:miter;stroke-dasharray:none;stroke-opacity:1" d="m 221.61247,296.33656 c -0.21913,0.23031 -0.45565,0.44924 -0.66418,0.68647 -0.0856,0.22079 -0.17404,0.44106 -0.258,0.66216 0.0403,0.0992 0.0742,0.2032 0.11745,0.2999 0.13431,-0.001 0.26923,5e-5 0.40316,-0.003 0.33899,-0.34724 0.6883,-0.6903 1.0208,-1.0402 -0.20692,-0.20034 -0.40972,-0.41119 -0.61927,-0.60499 z"/>
          <path style="fill:#a69e6c;fill-opacity:1;stroke:#000000;stroke-width:0.0182188;stroke-linecap:round;stroke-linejoin:miter;stroke-dasharray:none;stroke-opacity:1" d="m 221.89346,297.51705 c -0.14689,0.15523 -0.31489,0.30651 -0.44875,0.46429 0.54186,-0.007 1.08974,-9e-4 1.62785,-0.0153 -0.0341,-0.12051 -0.0272,-0.26396 -0.14777,-0.33657 -0.19394,-0.18869 -0.38361,-0.38775 -0.5802,-0.57002 -0.15049,0.15261 -0.30102,0.30516 -0.45152,0.45775 z"/>
          <path style="fill:#a69e6c;fill-opacity:1;stroke:#000000;stroke-width:0.0182188;stroke-linecap:round;stroke-linejoin:miter;stroke-dasharray:none;stroke-opacity:1" d="m 222.10862,298.71955 c -0.41423,0.006 -0.8304,0.005 -1.24343,0.0151 -0.0547,0.13454 -0.1124,0.26838 -0.16531,0.40322 0.0998,0.23094 0.18324,0.47274 0.29362,0.69683 0.4274,0.42772 0.83903,0.87303 1.2821,1.2841 0.37898,-0.44428 0.73175,-0.91582 1.09788,-1.37263 0.0858,-0.22387 0.17689,-0.44716 0.25953,-0.6714 -0.0951,-0.12227 -0.18762,-0.24778 -0.28443,-0.36803 -0.41331,0.004 -0.82661,0.008 -1.23992,0.0128 z"/>
        </g>
        <rect style="fill:#a69e6c;fill-opacity:1;stroke:#000000;stroke-width:0.14575;stroke-linecap:round;stroke-linejoin:miter;stroke-dasharray:none;stroke-opacity:1" width="2.7648959" height="0.58208328" x="132.6438" y="230.72961" transform="rotate(-0.37389303)"/>
      </g>
      <g style="fill:#d7d3a9;fill-opacity:1" transform="translate(28.093736,25.026683)">
        <path style="fill:#d7d3a9;fill-opacity:1;fill-rule:evenodd;stroke:#000000;stroke-width:0.235743px;stroke-linecap:butt;stroke-linejoin:miter;stroke-opacity:1" d="m 125.9033,210.89081 2.35746,-2.5932 c 0,0 0.30702,0.53906 -1.17874,3.77191 -0.67329,1.46505 -2.35745,2.35744 -2.35745,2.35744"/>
        <path style="fill:#d7d3a9;fill-opacity:1;fill-rule:evenodd;stroke:#000000;stroke-width:0.235743px;stroke-linecap:butt;stroke-linejoin:miter;stroke-opacity:1" d="m 112.32628,210.63942 -2.35746,-2.5932 c 0,0 -0.30702,0.53906 1.17874,3.77191 0.67329,1.46505 2.35745,2.35744 2.35745,2.35744"/>
        <path style="fill:#d7d3a9;fill-opacity:1;fill-rule:evenodd;stroke:#000000;stroke-width:0.291041px;stroke-linecap:butt;stroke-linejoin:miter;stroke-opacity:1" d="m 119.12058,204.3846 c -5.23875,0 -6.82957,3.84961 -6.985,7.27605 -0.17167,3.78461 3.19649,9.02229 6.985,9.02229 3.78851,0 7.15668,-5.23768 6.985,-9.02229 -0.15543,-3.42644 -1.75422,-7.27605 -6.985,-7.27605 z"/>
      </g>
      <path d="m 146.20726,239.81429 c 0.14899,0.57752 0.22051,1.33956 0.93104,1.3612 0.90751,0.0276 0.76232,-0.61223 0.93101,-1.37161" style="fill:none;stroke:#000000;stroke-width:0.33528;stroke-linecap:butt;stroke-linejoin:miter;stroke-miterlimit:4;stroke-dasharray:none;stroke-opacity:1"/>
      <path d="m 145.95757,242.51057 c 0,0 0.19308,0.009 1.3328,0.009 1.13973,0 1.32035,-0.16834 1.32035,-0.16834" style="fill:none;stroke:#000000;stroke-width:0.33528;stroke-linecap:butt;stroke-linejoin:miter;stroke-miterlimit:4;stroke-dasharray:none;stroke-opacity:1"/>
      <g transform="matrix(0.97637042,0.08542135,-0.08542135,0.97637042,27.23337,101.21273)">
        <path d="m 132.64864,128.63846 -0.49976,-0.50232 c -0.67061,-0.28658 -1.34123,-0.27464 -2.01184,0" style="fill:none;stroke:#000000;stroke-width:0.502327px;stroke-linecap:butt;stroke-linejoin:miter;stroke-opacity:1"/>
        <path d="m 132.06653,128.15634 c 0.0707,0.11478 0.26352,0.33182 0.26352,0.47654 0,0.41611 -0.48935,0.67163 -0.90549,0.67163 -0.41616,0 -0.99905,-0.37245 -0.99905,-0.78856 0,-0.14864 0.28865,-0.25222 0.36292,-0.36895 0.14405,-0.17547 0.47549,-0.23227 1.2781,0.009 z" style="fill:#ffffff;stroke:#000000;stroke-width:0.251163;stroke-miterlimit:4;stroke-dashoffset:0;stroke-opacity:1"/>
        <circle r="0.2511633" cy="128.59143" cx="131.39276" style="fill:#000000;fill-opacity:1;fill-rule:nonzero;stroke:#000000;stroke-width:0.251163;stroke-miterlimit:4;stroke-dasharray:none;stroke-dashoffset:0;stroke-opacity:1"/>
      </g>
      <g transform="matrix(0.97637042,-0.08542135,0.08542135,0.97637042,5.714555,124.08932)">
        <path d="m 135.16028,128.63846 0.55646,-0.50232 c 0.75341,-0.30507 1.38854,-0.25528 1.95518,0" style="fill:none;stroke:#000000;stroke-width:0.502327px;stroke-linecap:butt;stroke-linejoin:miter;stroke-opacity:1"/>
        <path d="m 137.08981,128.15629 c 0.0707,0.11478 0.48568,0.24996 0.48568,0.39469 0,0.41613 -0.71152,0.75347 -1.12768,0.75347 -0.41614,0 -0.94057,-0.27887 -0.94057,-0.69501 0,-0.14865 0.23009,-0.34574 0.30447,-0.46249 0.4594,-0.20543 0.90585,-0.32995 1.2781,0.009 z" style="fill:#ffffff;stroke:#000000;stroke-width:0.251163;stroke-miterlimit:4;stroke-dashoffset:0;stroke-opacity:1"/>
        <circle r="0.2511633" cy="128.59143" cx="136.43196" style="fill:#000000;fill-opacity:1;fill-rule:nonzero;stroke:#000000;stroke-width:0.251163;stroke-miterlimit:4;stroke-dasharray:none;stroke-dashoffset:0;stroke-opacity:1"/>
      </g>
      <g transform="matrix(1.1,0,0,1.1,24.976816,-57.264755)" style="stroke:#b59b5f;stroke-opacity:1">
        <g style="stroke:#b59b5f;stroke-opacity:1">
          <path style="fill:none;fill-rule:evenodd;stroke:#b59b5f;stroke-width:0.396875;stroke-linecap:butt;stroke-linejoin:miter;stroke-dasharray:none;stroke-opacity:1" d="M 108.47917,265.1606 V 266.7 l -1.32292,0.52916 -0.52917,1.5875 0.26459,1.5875 1.05833,1.5875 0.26458,1.5875 -0.26458,0.52917"/>
          <path style="fill:none;fill-rule:evenodd;stroke:#b59b5f;stroke-width:0.396875;stroke-linecap:butt;stroke-linejoin:miter;stroke-dasharray:none;stroke-opacity:1" d="m 107.15625,267.22916 -1.32292,-1.32291 h -0.79375"/>
          <path style="fill:none;fill-rule:evenodd;stroke:#b59b5f;stroke-width:0.396875;stroke-linecap:butt;stroke-linejoin:miter;stroke-dasharray:none;stroke-opacity:1" d="m 106.62708,269.08125 -0.79375,-1.05834 -1.05833,10e-6"/>
          <path style="fill:none;fill-rule:evenodd;stroke:#b59b5f;stroke-width:0.396875;stroke-linecap:butt;stroke-linejoin:miter;stroke-dasharray:none;stroke-opacity:1" d="m 107.15625,270.66875 -1.32292,-0.52917 h -0.52916"/>
          <path style="fill:none;fill-rule:evenodd;stroke:#b59b5f;stroke-width:0.396875;stroke-linecap:butt;stroke-linejoin:miter;stroke-dasharray:none;stroke-opacity:1" d="m 107.68542,271.72708 -0.52917,0.79375 h -0.52917"/>
        </g>
        <path style="fill:none;fill-rule:evenodd;stroke:#b59b5f;stroke-width:0.396875;stroke-linecap:butt;stroke-linejoin:miter;stroke-dasharray:none;stroke-opacity:1" d="m 109.80208,264.99223 v 2.23693 l 1.32292,0.52917 1.32292,-0.52917 v -0.79374"/>
        <g style="stroke:#b59b5f;stroke-opacity:1">
          <path style="fill:none;fill-rule:evenodd;stroke:#b59b5f;stroke-width:0.396875;stroke-linecap:butt;stroke-linejoin:miter;stroke-dasharray:none;stroke-opacity:1" d="M 113.77083,265.64166 V 266.7 l 1.32292,0.52916 0.52917,1.5875 -0.26459,1.5875 -1.05833,1.5875 -0.26458,1.5875 0.26458,0.52917"/>
          <path style="fill:none;fill-rule:evenodd;stroke:#b59b5f;stroke-width:0.396875;stroke-linecap:butt;stroke-linejoin:miter;stroke-dasharray:none;stroke-opacity:1" d="m 115.09375,267.22916 1.32292,-1.32291 h 0.79375"/>
          <path style="fill:none;fill-rule:evenodd;stroke:#b59b5f;stroke-width:0.396875;stroke-linecap:butt;stroke-linejoin:miter;stroke-dasharray:none;stroke-opacity:1" d="m 115.62292,269.08125 0.79375,-1.05834 1.05833,10e-6"/>
          <path style="fill:none;fill-rule:evenodd;stroke:#b59b5f;stroke-width:0.396875;stroke-linecap:butt;stroke-linejoin:miter;stroke-dasharray:none;stroke-opacity:1" d="m 115.09375,270.66875 1.32292,-0.52917 h 0.52916"/>
          <path style="fill:none;fill-rule:evenodd;stroke:#b59b5f;stroke-width:0.396875;stroke-linecap:butt;stroke-linejoin:miter;stroke-dasharray:none;stroke-opacity:1" d="m 114.56458,271.72708 0.52917,0.79375 h 0.52917"/>
        </g>
      </g>
      <path style="fill:none;fill-opacity:1;fill-rule:evenodd;stroke:#000000;stroke-width:0.291041px;stroke-linecap:butt;stroke-linejoin:miter;stroke-opacity:1" d="m 147.21431,229.41129 c -5.23875,0 -6.82957,3.84961 -6.985,7.27605 -0.17167,3.78461 3.19649,9.02229 6.985,9.02229 3.78851,0 7.15668,-5.23768 6.985,-9.02229 -0.15543,-3.42644 -1.75422,-7.27605 -6.985,-7.27605 z"/>
      <path style="fill:#a69e6c;fill-opacity:1;stroke:#000000;stroke-width:0.264583;stroke-linecap:round;stroke-linejoin:round;stroke-dasharray:none;stroke-opacity:1" d="m 146.26249,228.41382 c -1.28705,-0.10713 -1.53683,-0.20888 -2.82055,-0.0211 -0.85645,0.13659 -1.74543,0.56435 -2.11936,1.39274 -0.57299,1.2629 -1.37951,2.6936 -1.24012,4.02085 0.0515,0.19582 0.0157,0.46338 0.12168,0.62704 0.8719,-0.11611 1.76757,-0.20679 2.63287,0.01 1.45891,0.25941 2.76239,-0.52836 3.90163,-0.304 0.23486,0.297 0.29697,1.47316 0.44679,1.34132 0.39669,0.33106 0.95647,0.51952 1.45286,0.30063 0.95429,-0.41892 1.74389,-1.16825 2.75664,-1.46738 0.93491,-0.31047 1.93496,-0.25303 2.89193,-0.0885 0.17116,-1.30491 -0.43505,-2.6219 -1.23587,-3.97225 -0.34673,-0.85929 -0.98311,-1.60043 -1.84082,-1.79182 -0.70973,-0.20274 -0.39407,-0.19723 -1.48648,-0.19545 -1.09241,0.002 -2.00785,0.31696 -3.4612,0.14822 z"/>
    </g></g></g></svg>