<svg xmlns="http://www.w3.org/2000/svg" xmlns:xlink="http://www.w3.org/1999/xlink" width="64" height="64" viewBox="0 0 64 64"><defs id="defs355716">
    <rect x="172" y="97" width="745" height="239" id="rect276290"/>
    <color-profile name="Agfa-:-Swop-Standard" xmlns:xlink="http://www.w3.org/1999/xlink" xlink:href="file:///C:/WINDOWS/system32/spool/drivers/color/RSWOP.icm" id="color-profile294613"/>
    <linearGradient xmlns:inkscape="http://www.inkscape.org/namespaces/inkscape" inkscape:collect="always" id="linearGradient140439">
      <stop style="stop-color:#a4a870;stop-opacity:1;" offset="0" id="stop140435"/>
      <stop style="stop-color:#a4a870;stop-opacity:0;" offset="1" id="stop140437"/>
    </linearGradient>
    <linearGradient xmlns:inkscape="http://www.inkscape.org/namespaces/inkscape" inkscape:collect="always" id="linearGradient140390">
      <stop style="stop-color:#359676;stop-opacity:1;" offset="0" id="stop140386"/>
      <stop style="stop-color:#4a6a5e;stop-opacity:0;" offset="1" id="stop140388"/>
    </linearGradient>
    <linearGradient xmlns:inkscape="http://www.inkscape.org/namespaces/inkscape" inkscape:collect="always" id="linearGradient139515">
      <stop style="stop-color:#dbd764;stop-opacity:1;" offset="0" id="stop139511"/>
      <stop style="stop-color:#dbd764;stop-opacity:0;" offset="0.56578946" id="stop139513"/>
    </linearGradient>
    <linearGradient xmlns:inkscape="http://www.inkscape.org/namespaces/inkscape" inkscape:collect="always" id="linearGradient139325">
      <stop style="stop-color:#161c16;stop-opacity:1;" offset="0" id="stop139321"/>
      <stop style="stop-color:#6e836c;stop-opacity:0;" offset="1" id="stop139323"/>
    </linearGradient>
    <linearGradient xmlns:inkscape="http://www.inkscape.org/namespaces/inkscape" inkscape:collect="always" id="linearGradient387614">
      <stop style="stop-color:#a4a870;stop-opacity:1;" offset="0" id="stop387610"/>
      <stop style="stop-color:#a4a870;stop-opacity:0;" offset="1" id="stop387612"/>
    </linearGradient>
    <linearGradient xmlns:inkscape="http://www.inkscape.org/namespaces/inkscape" inkscape:collect="always" id="linearGradient387421">
      <stop style="stop-color:#344533;stop-opacity:1;" offset="0" id="stop387417"/>
      <stop style="stop-color:#1d251d;stop-opacity:0;" offset="1" id="stop387419"/>
    </linearGradient>
    <linearGradient xmlns:inkscape="http://www.inkscape.org/namespaces/inkscape" inkscape:collect="always" xmlns:xlink="http://www.w3.org/1999/xlink" xlink:href="#linearGradient206680" id="linearGradient206682" x1="168.01042" y1="262.08701" x2="168.01042" y2="247.38542" gradientUnits="userSpaceOnUse"/>
    <linearGradient xmlns:inkscape="http://www.inkscape.org/namespaces/inkscape" inkscape:collect="always" id="linearGradient206680">
      <stop style="stop-color:#dbd764;stop-opacity:0;" offset="0.38377193" id="stop206678"/>
      <stop style="stop-color:#dbd764;stop-opacity:1;" offset="1" id="stop206676"/>
    </linearGradient>
    <linearGradient xmlns:inkscape="http://www.inkscape.org/namespaces/inkscape" inkscape:collect="always" xmlns:xlink="http://www.w3.org/1999/xlink" xlink:href="#linearGradient216292" id="linearGradient216294" x1="168.01042" y1="236.00833" x2="168.01042" y2="248.97292" gradientUnits="userSpaceOnUse" gradientTransform="translate(8.4073796,-0.78650088)"/>
    <linearGradient xmlns:inkscape="http://www.inkscape.org/namespaces/inkscape" inkscape:collect="always" id="linearGradient216292">
      <stop style="stop-color:#359676;stop-opacity:1;" offset="0" id="stop216288"/>
      <stop style="stop-color:#4a6a5f;stop-opacity:0;" offset="1" id="stop216290"/>
    </linearGradient>
    <linearGradient xmlns:inkscape="http://www.inkscape.org/namespaces/inkscape" inkscape:collect="always" xmlns:xlink="http://www.w3.org/1999/xlink" xlink:href="#linearGradient387421" id="linearGradient387423" x1="31.75" y1="155.31041" x2="31.921236" y2="171.18663" gradientUnits="userSpaceOnUse"/>
    <linearGradient xmlns:inkscape="http://www.inkscape.org/namespaces/inkscape" inkscape:collect="always" xmlns:xlink="http://www.w3.org/1999/xlink" xlink:href="#linearGradient387614" id="linearGradient387616" x1="45.011326" y1="158.73975" x2="51.59375" y2="162.71875" gradientUnits="userSpaceOnUse" gradientTransform="translate(2.9601329,-0.98671096)"/>
    <linearGradient xmlns:inkscape="http://www.inkscape.org/namespaces/inkscape" inkscape:collect="always" xmlns:xlink="http://www.w3.org/1999/xlink" xlink:href="#linearGradient387614" id="linearGradient387620" gradientUnits="userSpaceOnUse" x1="45.011326" y1="158.73975" x2="51.593746" y2="162.71875" gradientTransform="matrix(-1,0,0,1,108.79346,-0.98671096)"/>
    <linearGradient xmlns:inkscape="http://www.inkscape.org/namespaces/inkscape" inkscape:collect="always" xmlns:xlink="http://www.w3.org/1999/xlink" xlink:href="#linearGradient139325" id="linearGradient139327" x1="70" y1="21" x2="70" y2="37" gradientUnits="userSpaceOnUse"/>
    <linearGradient xmlns:inkscape="http://www.inkscape.org/namespaces/inkscape" inkscape:collect="always" xmlns:xlink="http://www.w3.org/1999/xlink" xlink:href="#linearGradient139515" id="linearGradient139517" x1="70.426315" y1="1.5429174" x2="70.46106" y2="18.249472" gradientUnits="userSpaceOnUse"/>
    <linearGradient xmlns:inkscape="http://www.inkscape.org/namespaces/inkscape" inkscape:collect="always" xmlns:xlink="http://www.w3.org/1999/xlink" xlink:href="#linearGradient140390" id="linearGradient140392" x1="90.084175" y1="1.3586814" x2="90" y2="16" gradientUnits="userSpaceOnUse"/>
    <linearGradient xmlns:inkscape="http://www.inkscape.org/namespaces/inkscape" inkscape:collect="always" xmlns:xlink="http://www.w3.org/1999/xlink" xlink:href="#linearGradient140439" id="linearGradient140441" x1="90.01368" y1="24.010059" x2="94.88681" y2="28.136377" gradientUnits="userSpaceOnUse"/>
    <linearGradient xmlns:inkscape="http://www.inkscape.org/namespaces/inkscape" inkscape:collect="always" xmlns:xlink="http://www.w3.org/1999/xlink" xlink:href="#linearGradient140439" id="linearGradient140449" gradientUnits="userSpaceOnUse" x1="90.01368" y1="24.010059" x2="94.88681" y2="28.136377" gradientTransform="matrix(-1,0,0,1,190,0)"/>
    <radialGradient xmlns:inkscape="http://www.inkscape.org/namespaces/inkscape" inkscape:collect="always" xmlns:xlink="http://www.w3.org/1999/xlink" xlink:href="#linearGradient177339" id="radialGradient177341-3-0" cx="44.135807" cy="121.46028" fx="44.135807" fy="121.46028" r="1.1079427" gradientTransform="matrix(1.5015971,0,0,0.99367432,-157.6034,-4.3351259)" gradientUnits="userSpaceOnUse"/>
    <linearGradient xmlns:inkscape="http://www.inkscape.org/namespaces/inkscape" inkscape:collect="always" id="linearGradient177339">
      <stop style="stop-color:#b98d3e;stop-opacity:1;" offset="0" id="stop177335"/>
      <stop style="stop-color:#c9c943;stop-opacity:0;" offset="1" id="stop177337"/>
    </linearGradient>
    <radialGradient xmlns:inkscape="http://www.inkscape.org/namespaces/inkscape" inkscape:collect="always" xmlns:xlink="http://www.w3.org/1999/xlink" xlink:href="#linearGradient177339" id="radialGradient177345-7-9" gradientUnits="userSpaceOnUse" gradientTransform="matrix(1.5015971,0,0,0.99367432,-195.50719,-68.761115)" cx="44.135807" cy="121.46028" fx="44.135807" fy="121.46028" r="1.1079427"/>
    <rect x="172" y="97" width="745" height="239" id="rect276290-2"/>
    <rect x="172" y="97" width="745" height="239" id="rect276290-2-5"/>
    <rect x="172" y="97" width="745" height="239" id="rect276290-2-5-7"/>
  </defs><g transform="translate(-612.8787364173221 -356.20881796205725) scale(2.101323427192037)"><g><g style="display:inline" transform="translate(103.95876,83.346943)">
      <path style="fill:#eecceb;fill-opacity:1;fill-rule:evenodd;stroke:#000000;stroke-width:0.214312px;stroke-linecap:butt;stroke-linejoin:miter;stroke-opacity:1" d="m 195.60102,102.80497 c -1.93948,-1.01182 -1.03732,-0.53829 -2.5492,-1.63613 0.0256,1.25393 0.29959,2.41332 0.85702,3.08766 0.88278,1.06794 0.77763,0.94301 1.69218,1.20045"/>
      <path style="fill:#eecceb;fill-opacity:1;fill-rule:evenodd;stroke:#000000;stroke-width:0.214312px;stroke-linecap:butt;stroke-linejoin:miter;stroke-opacity:1" d="m 210.01492,102.99206 c 1.93948,-1.01182 1.03732,-0.53829 2.5492,-1.63613 -0.0256,1.25393 -0.29959,2.41332 -0.85702,3.08766 -0.88278,1.06794 -0.77763,0.94301 -1.69218,1.20045"/>
      <path style="fill:#eecceb;fill-opacity:1;fill-rule:nonzero;stroke:#000000;stroke-width:0.564444;stroke-miterlimit:4;stroke-dasharray:none;stroke-dashoffset:0;stroke-opacity:1" d="m 195.07853,104.49494 c 0.37038,3.23322 1.6758,5.98675 3.2541,7.60928 0.51787,0.53237 1.06531,1.00411 1.61708,1.39153 1.00865,0.70822 2.03172,0.6055 2.91488,0.6055 0.85171,0 1.84867,0.10929 2.83601,-0.57756 0.56735,-0.39468 1.13153,-0.87751 1.66315,-1.41947 1.59107,-1.62205 2.89698,-4.35523 3.2869,-7.60928 0.57759,-4.820522 -2.93108,-8.539562 -7.78606,-8.539562 -4.85499,0 -8.33866,3.7161 -7.78606,8.539562 z"/>
      <g transform="rotate(15,68.24505,546.72437)">
        <path d="M 82.147589,85.498868 81.64783,84.996538 H 80.157273 79.63598" style="fill:none;stroke:#000000;stroke-width:0.502327px;stroke-linecap:butt;stroke-linejoin:miter;stroke-opacity:1"/>
        <path d="m 81.565477,85.016738 c 0.07072,0.11478 0.111506,0.24996 0.111506,0.39468 0,0.41612 -0.33734,0.75349 -0.753477,0.75349 -0.416164,0 -0.753505,-0.33737 -0.753505,-0.75349 0,-0.14864 0.04307,-0.28728 0.117377,-0.40402 z" style="fill:#ffffff;stroke:#000000;stroke-width:0.251163;stroke-miterlimit:4;stroke-dashoffset:0;stroke-opacity:1"/>
        <circle r="0.2511633" cy="85.428757" cx="80.891617" style="fill:#000000;fill-opacity:1;fill-rule:nonzero;stroke:#000000;stroke-width:0.251163;stroke-miterlimit:4;stroke-dasharray:none;stroke-dashoffset:0;stroke-opacity:1"/>
      </g>
      <g transform="rotate(-15,218.03252,-360.69572)">
        <path d="m 84.660865,85.499638 0.55646,-0.50233 h 1.392419 0.562761" style="fill:none;stroke:#000000;stroke-width:0.502327px;stroke-linecap:butt;stroke-linejoin:miter;stroke-opacity:1"/>
        <path d="m 86.590385,85.017458 c 0.0707,0.11478 0.11151,0.24995 0.11151,0.39468 0,0.41612 -0.33734,0.75349 -0.75351,0.75349 -0.41613,0 -0.75347,-0.33737 -0.75347,-0.75349 0,-0.14864 0.043,-0.28728 0.11737,-0.40403 z" style="fill:#ffffff;stroke:#000000;stroke-width:0.251163;stroke-miterlimit:4;stroke-dashoffset:0;stroke-opacity:1"/>
        <circle r="0.2511633" cy="85.385918" cx="85.932449" style="fill:#000000;fill-opacity:1;fill-rule:nonzero;stroke:#000000;stroke-width:0.251163;stroke-miterlimit:4;stroke-dasharray:none;stroke-dashoffset:0;stroke-opacity:1"/>
      </g>
      <path style="fill:none;stroke:#000000;stroke-width:0.502327px;stroke-linecap:butt;stroke-linejoin:miter;stroke-opacity:1" d="m 205.44092,109.95356 c 0,0 -1.02162,0.51727 -1.57678,0.62296 -0.82244,0.15658 -1.70645,0.22933 -2.51164,0 -0.47911,-0.13645 -1.27022,-0.78742 -1.27022,-0.78742"/>
      <path style="fill:none;stroke:#000000;stroke-width:0.502327px;stroke-linecap:butt;stroke-linejoin:miter;stroke-opacity:1" d="m 202.11526,105.46364 9.1e-4,3.03784 0.73202,0.21607 0.83123,-0.183 -0.0572,-3.07091"/>
      <path style="fill:#cccccc;fill-opacity:1;stroke:#000000;stroke-width:0.564444;stroke-linecap:butt;stroke-linejoin:miter;stroke-miterlimit:4;stroke-dasharray:none;stroke-dashoffset:0;stroke-opacity:1" d="m 202.70039,95.108478 c -2.1728,0.0257 -4.36403,0.8051 -5.94247,2.32255 -0.94898,0.91037 -1.6781,2.06034 -2.06804,3.318172 0.11898,0.78337 0.20689,1.57328 0.35548,2.35108 0.0856,0.0364 0.15356,-0.10258 0.22928,-0.13391 1.2965,-1.02102 2.58112,-2.05749 3.87107,-3.087122 2.44845,-0.0175 4.89735,-0.009 7.34549,-0.0496 0.16301,-0.0481 0.28487,0.0343 0.39855,0.14291 1.24514,0.962812 2.49028,1.925582 3.73541,2.888382 0.10778,-0.0614 0.0597,-0.28787 0.10663,-0.4123 0.0789,-0.59537 0.21434,-1.18525 0.25041,-1.7852 -0.0158,-0.33592 -0.21508,-0.62769 -0.33443,-0.933902 -0.84052,-1.78483 -2.39009,-3.20587 -4.21572,-3.94132 -1.17825,-0.48432 -2.46011,-0.69581 -3.73166,-0.67976 z"/>
      <path style="fill:#333333;fill-rule:evenodd;stroke:#000000;stroke-width:0.264583px;stroke-linecap:butt;stroke-linejoin:miter;stroke-opacity:1" d="m 204.7302,97.823646 c -0.14815,-0.909625 -0.35744,-1.815998 -0.3215,-2.744155 -0.0172,-0.459706 0.12735,-0.896444 0.22564,-1.338036 0.14349,-0.406826 0.35529,-0.798712 0.56636,-1.14628 0.23478,-0.441335 0.52453,-0.853074 0.76103,-1.290255 0.14601,-0.427687 0.38019,-0.841411 0.39565,-1.305331 0.21245,-0.36806 -0.0222,-1.130916 0.14357,-1.311304 0.29198,0.537496 0.40898,1.141358 0.55532,1.73508 0.1592,0.932878 0.49008,1.850776 0.39745,2.809656 -0.0676,0.468022 -0.3018,0.886966 -0.46201,1.324746 -0.20536,0.478476 -0.29104,1.003081 -0.37542,1.51471 0.0245,0.521309 -0.0344,1.061129 0.031,1.571606 0.0186,0.06021 0.0181,0.127926 0.0597,0.179515"/>
      <path style="fill:#333333;fill-rule:evenodd;stroke:#000000;stroke-width:0.264583px;stroke-linecap:butt;stroke-linejoin:miter;stroke-opacity:1" d="m 209.55946,100.94416 c 0.65739,0.0512 1.06865,-0.61668 1.49719,-1.014095 0.42761,-0.594026 0.83278,-1.206493 1.41296,-1.666562 0.46789,-0.508128 1.09371,-0.896355 1.7861,-0.996006 0.62294,-0.175699 1.17854,-0.661404 1.43287,-1.258425 0.3231,-0.584173 0.44417,-1.246458 0.56927,-1.894261 -0.39994,0.173873 -0.68304,0.68453 -1.10593,0.911083 -0.47002,0.425261 -1.05835,0.66434 -1.6207,0.938432 -0.541,0.191346 -1.09149,0.114328 -1.66703,0.177372 -0.56312,0.02956 -0.97205,0.416463 -1.35944,0.726785 -0.28681,0.468916 -0.37431,1.094432 -0.78043,1.46399 -0.34915,0.184584 -0.76213,0.217802 -1.13156,0.185805"/>
      <path style="fill:#333333;fill-rule:evenodd;stroke:#000000;stroke-width:0.264583px;stroke-linecap:butt;stroke-linejoin:miter;stroke-opacity:1" d="m 201.13567,97.823646 c 0.14814,-0.909625 0.35744,-1.815998 0.32149,-2.744155 0.0172,-0.459706 -0.12735,-0.896444 -0.22563,-1.338036 -0.14349,-0.406826 -0.3553,-0.798712 -0.56636,-1.14628 -0.23478,-0.441335 -0.52454,-0.853074 -0.76104,-1.290255 -0.14601,-0.427687 -0.38019,-0.841411 -0.39565,-1.305331 -0.21245,-0.36806 0.0222,-1.130916 -0.14356,-1.311304 -0.29198,0.537496 -0.40899,1.141358 -0.55532,1.73508 -0.1592,0.932878 -0.49008,1.850776 -0.39745,2.809656 0.0676,0.468022 0.30179,0.886966 0.46201,1.324746 0.20535,0.478476 0.29103,1.003081 0.37541,1.51471 -0.0245,0.521309 0.0344,1.061129 -0.031,1.571606 -0.0186,0.06021 -0.0181,0.127926 -0.0597,0.179515"/>
      <path style="fill:#333333;fill-rule:evenodd;stroke:#000000;stroke-width:0.264583px;stroke-linecap:butt;stroke-linejoin:miter;stroke-opacity:1" d="m 196.30641,100.94416 c -0.65739,0.0512 -1.06866,-0.61668 -1.4972,-1.014095 -0.42761,-0.594026 -0.83277,-1.206493 -1.41295,-1.666562 -0.46789,-0.508128 -1.09372,-0.896355 -1.7861,-0.996006 -0.62295,-0.175699 -1.17854,-0.661404 -1.43287,-1.258425 -0.3231,-0.584173 -0.44417,-1.246458 -0.56928,-1.894261 0.39994,0.173873 0.68305,0.68453 1.10594,0.911083 0.47002,0.425261 1.05834,0.66434 1.6207,0.938432 0.54099,0.191346 1.09148,0.114328 1.66702,0.177372 0.56312,0.02956 0.97205,0.416463 1.35945,0.726785 0.2868,0.468916 0.3743,1.094432 0.78043,1.46399 0.34914,0.184584 0.76212,0.217802 1.13156,0.185805"/>
    </g></g></g></svg>