<svg xmlns="http://www.w3.org/2000/svg" xmlns:xlink="http://www.w3.org/1999/xlink" width="64" height="64" viewBox="0 0 64 64"><defs id="defs355716">
    <rect x="172" y="97" width="745" height="239" id="rect276290"/>
    <color-profile name="Agfa-:-Swop-Standard" xmlns:xlink="http://www.w3.org/1999/xlink" xlink:href="file:///C:/WINDOWS/system32/spool/drivers/color/RSWOP.icm" id="color-profile294613"/>
    <linearGradient xmlns:inkscape="http://www.inkscape.org/namespaces/inkscape" inkscape:collect="always" id="linearGradient140439">
      <stop style="stop-color:#a4a870;stop-opacity:1;" offset="0" id="stop140435"/>
      <stop style="stop-color:#a4a870;stop-opacity:0;" offset="1" id="stop140437"/>
    </linearGradient>
    <linearGradient xmlns:inkscape="http://www.inkscape.org/namespaces/inkscape" inkscape:collect="always" id="linearGradient140390">
      <stop style="stop-color:#359676;stop-opacity:1;" offset="0" id="stop140386"/>
      <stop style="stop-color:#4a6a5e;stop-opacity:0;" offset="1" id="stop140388"/>
    </linearGradient>
    <linearGradient xmlns:inkscape="http://www.inkscape.org/namespaces/inkscape" inkscape:collect="always" id="linearGradient139515">
      <stop style="stop-color:#dbd764;stop-opacity:1;" offset="0" id="stop139511"/>
      <stop style="stop-color:#dbd764;stop-opacity:0;" offset="0.56578946" id="stop139513"/>
    </linearGradient>
    <linearGradient xmlns:inkscape="http://www.inkscape.org/namespaces/inkscape" inkscape:collect="always" id="linearGradient139325">
      <stop style="stop-color:#161c16;stop-opacity:1;" offset="0" id="stop139321"/>
      <stop style="stop-color:#6e836c;stop-opacity:0;" offset="1" id="stop139323"/>
    </linearGradient>
    <linearGradient xmlns:inkscape="http://www.inkscape.org/namespaces/inkscape" inkscape:collect="always" id="linearGradient387614">
      <stop style="stop-color:#a4a870;stop-opacity:1;" offset="0" id="stop387610"/>
      <stop style="stop-color:#a4a870;stop-opacity:0;" offset="1" id="stop387612"/>
    </linearGradient>
    <linearGradient xmlns:inkscape="http://www.inkscape.org/namespaces/inkscape" inkscape:collect="always" id="linearGradient387421">
      <stop style="stop-color:#344533;stop-opacity:1;" offset="0" id="stop387417"/>
      <stop style="stop-color:#1d251d;stop-opacity:0;" offset="1" id="stop387419"/>
    </linearGradient>
    <linearGradient xmlns:inkscape="http://www.inkscape.org/namespaces/inkscape" inkscape:collect="always" xmlns:xlink="http://www.w3.org/1999/xlink" xlink:href="#linearGradient206680" id="linearGradient206682" x1="168.01042" y1="262.08701" x2="168.01042" y2="247.38542" gradientUnits="userSpaceOnUse"/>
    <linearGradient xmlns:inkscape="http://www.inkscape.org/namespaces/inkscape" inkscape:collect="always" id="linearGradient206680">
      <stop style="stop-color:#dbd764;stop-opacity:0;" offset="0.38377193" id="stop206678"/>
      <stop style="stop-color:#dbd764;stop-opacity:1;" offset="1" id="stop206676"/>
    </linearGradient>
    <linearGradient xmlns:inkscape="http://www.inkscape.org/namespaces/inkscape" inkscape:collect="always" xmlns:xlink="http://www.w3.org/1999/xlink" xlink:href="#linearGradient216292" id="linearGradient216294" x1="168.01042" y1="236.00833" x2="168.01042" y2="248.97292" gradientUnits="userSpaceOnUse" gradientTransform="translate(8.4073796,-0.78650088)"/>
    <linearGradient xmlns:inkscape="http://www.inkscape.org/namespaces/inkscape" inkscape:collect="always" id="linearGradient216292">
      <stop style="stop-color:#359676;stop-opacity:1;" offset="0" id="stop216288"/>
      <stop style="stop-color:#4a6a5f;stop-opacity:0;" offset="1" id="stop216290"/>
    </linearGradient>
    <linearGradient xmlns:inkscape="http://www.inkscape.org/namespaces/inkscape" inkscape:collect="always" xmlns:xlink="http://www.w3.org/1999/xlink" xlink:href="#linearGradient387421" id="linearGradient387423" x1="31.75" y1="155.31041" x2="31.921236" y2="171.18663" gradientUnits="userSpaceOnUse"/>
    <linearGradient xmlns:inkscape="http://www.inkscape.org/namespaces/inkscape" inkscape:collect="always" xmlns:xlink="http://www.w3.org/1999/xlink" xlink:href="#linearGradient387614" id="linearGradient387616" x1="45.011326" y1="158.73975" x2="51.59375" y2="162.71875" gradientUnits="userSpaceOnUse" gradientTransform="translate(2.9601329,-0.98671096)"/>
    <linearGradient xmlns:inkscape="http://www.inkscape.org/namespaces/inkscape" inkscape:collect="always" xmlns:xlink="http://www.w3.org/1999/xlink" xlink:href="#linearGradient387614" id="linearGradient387620" gradientUnits="userSpaceOnUse" x1="45.011326" y1="158.73975" x2="51.593746" y2="162.71875" gradientTransform="matrix(-1,0,0,1,108.79346,-0.98671096)"/>
    <linearGradient xmlns:inkscape="http://www.inkscape.org/namespaces/inkscape" inkscape:collect="always" xmlns:xlink="http://www.w3.org/1999/xlink" xlink:href="#linearGradient139325" id="linearGradient139327" x1="70" y1="21" x2="70" y2="37" gradientUnits="userSpaceOnUse"/>
    <linearGradient xmlns:inkscape="http://www.inkscape.org/namespaces/inkscape" inkscape:collect="always" xmlns:xlink="http://www.w3.org/1999/xlink" xlink:href="#linearGradient139515" id="linearGradient139517" x1="70.426315" y1="1.5429174" x2="70.46106" y2="18.249472" gradientUnits="userSpaceOnUse"/>
    <linearGradient xmlns:inkscape="http://www.inkscape.org/namespaces/inkscape" inkscape:collect="always" xmlns:xlink="http://www.w3.org/1999/xlink" xlink:href="#linearGradient140390" id="linearGradient140392" x1="90.084175" y1="1.3586814" x2="90" y2="16" gradientUnits="userSpaceOnUse"/>
    <linearGradient xmlns:inkscape="http://www.inkscape.org/namespaces/inkscape" inkscape:collect="always" xmlns:xlink="http://www.w3.org/1999/xlink" xlink:href="#linearGradient140439" id="linearGradient140441" x1="90.01368" y1="24.010059" x2="94.88681" y2="28.136377" gradientUnits="userSpaceOnUse"/>
    <linearGradient xmlns:inkscape="http://www.inkscape.org/namespaces/inkscape" inkscape:collect="always" xmlns:xlink="http://www.w3.org/1999/xlink" xlink:href="#linearGradient140439" id="linearGradient140449" gradientUnits="userSpaceOnUse" x1="90.01368" y1="24.010059" x2="94.88681" y2="28.136377" gradientTransform="matrix(-1,0,0,1,190,0)"/>
    <radialGradient xmlns:inkscape="http://www.inkscape.org/namespaces/inkscape" inkscape:collect="always" xmlns:xlink="http://www.w3.org/1999/xlink" xlink:href="#linearGradient177339" id="radialGradient177341-3-0" cx="44.135807" cy="121.46028" fx="44.135807" fy="121.46028" r="1.1079427" gradientTransform="matrix(1.5015971,0,0,0.99367432,-157.6034,-4.3351259)" gradientUnits="userSpaceOnUse"/>
    <linearGradient xmlns:inkscape="http://www.inkscape.org/namespaces/inkscape" inkscape:collect="always" id="linearGradient177339">
      <stop style="stop-color:#b98d3e;stop-opacity:1;" offset="0" id="stop177335"/>
      <stop style="stop-color:#c9c943;stop-opacity:0;" offset="1" id="stop177337"/>
    </linearGradient>
    <radialGradient xmlns:inkscape="http://www.inkscape.org/namespaces/inkscape" inkscape:collect="always" xmlns:xlink="http://www.w3.org/1999/xlink" xlink:href="#linearGradient177339" id="radialGradient177345-7-9" gradientUnits="userSpaceOnUse" gradientTransform="matrix(1.5015971,0,0,0.99367432,-195.50719,-68.761115)" cx="44.135807" cy="121.46028" fx="44.135807" fy="121.46028" r="1.1079427"/>
    <rect x="172" y="97" width="745" height="239" id="rect276290-2"/>
    <rect x="172" y="97" width="745" height="239" id="rect276290-2-5"/>
    <rect x="172" y="97" width="745" height="239" id="rect276290-2-5-7"/>
  </defs><g transform="translate(-453.19835724156724 -78.29714550177015) scale(2.6456686555952764)"><g><g transform="translate(141.85979,-155.4773)">
      <path style="fill:#113196;fill-opacity:1;fill-rule:evenodd;stroke:#000000;stroke-width:0.264583px;stroke-linecap:butt;stroke-linejoin:miter;stroke-opacity:1" d="m 41.53368,193.36326 c -2.24853,0 -4.98726,-0.22876 -6.61458,1.32292 -1.31586,1.2547 -1.10076,3.48712 -1.32291,5.29167 -0.10776,0.87534 -0.41615,1.86824 0,2.64583 0.75023,1.40181 2.44702,2.71426 3.96874,3.175 1.26616,0.38336 2.64584,0.51264 3.96876,0.51264 1.32292,0 2.7026,-0.12927 3.96875,-0.51263 1.52173,-0.46074 3.21852,-1.77319 3.96875,-3.17501 0.41615,-0.77759 0.10776,-1.77049 0,-2.64583 -0.22215,-1.80455 -0.007,-4.03697 -1.32292,-5.29167 -1.62732,-1.55168 -4.36606,-1.32292 -6.61459,-1.32292 z"/>
      <path style="fill:none;fill-rule:evenodd;stroke:#000000;stroke-width:0.264583px;stroke-linecap:butt;stroke-linejoin:miter;stroke-opacity:1" d="M 45.50243,193.36326 Z"/>
      <path style="fill:#37ae2f;fill-opacity:1;fill-rule:evenodd;stroke:#000000;stroke-width:0.264583px;stroke-linecap:butt;stroke-linejoin:miter;stroke-opacity:1" d="m 44.17952,193.36326 3.96875,-5.29166 h 3.96875 v 0.52917 h -3.70417 l -3.43958,4.76249"/>
      <path style="fill:none;fill-rule:evenodd;stroke:#000000;stroke-width:0.264583px;stroke-linecap:butt;stroke-linejoin:miter;stroke-opacity:1" d="m 38.0941,201.30076 c 0,0 0.42068,0.82322 0.79375,1.05834 0.76091,0.47954 1.74642,0.52917 2.64583,0.52917 0.89941,0 1.88493,-0.0496 2.64584,-0.52917 0.37307,-0.23512 0.79375,-1.05834 0.79375,-1.05834"/>
      <path style="fill:none;fill-rule:evenodd;stroke:#000000;stroke-width:0.264583px;stroke-linecap:butt;stroke-linejoin:miter;stroke-opacity:1" d="m 40.73994,199.44869 v 1.32291"/>
      <path style="fill:none;fill-rule:evenodd;stroke:#000000;stroke-width:0.264583px;stroke-linecap:butt;stroke-linejoin:miter;stroke-opacity:1" d="m 42.32743,199.44869 v 1.32291"/>
      <g transform="translate(-136.5309,57.189237)">
        <path style="fill:none;fill-rule:evenodd;stroke:#ffffff;stroke-width:0.529167;stroke-linecap:butt;stroke-linejoin:miter;stroke-dasharray:none;stroke-opacity:1" d="m 173.66588,136.50846 c 0.0524,0.49085 0.46697,0.9012 0.35799,1.41757 -0.0992,0.38749 -0.36257,0.74518 -0.73677,0.9087 -0.32868,0.13043 -0.54409,0.40716 -0.74763,0.68192 -0.41779,0.47439 -0.343,1.1515 -0.53373,1.71982 -0.12841,0.36609 -0.24716,0.77627 -0.55037,1.04043 -0.41217,0.2072 -0.87012,0.46555 -1.3444,0.44899"/>
        <path style="fill:none;fill-rule:evenodd;stroke:#ffffff;stroke-width:0.529167;stroke-linecap:butt;stroke-linejoin:miter;stroke-dasharray:none;stroke-opacity:1" d="m 174.16198,137.9306 c 0.40235,-0.0397 0.80629,-0.0639 1.2106,-0.0501 0.16781,-0.0123 0.34604,0.0361 0.48003,0.1397 0.13365,0.12125 0.28422,0.20829 0.36033,0.37846 0.10972,0.17528 0.17132,0.37198 0.26513,0.55612 0.0276,0.2105 0.20729,0.282 0.39704,0.25191 0.11835,-0.0136 0.25808,-0.0498 0.34584,-0.13549"/>
        <path style="fill:none;fill-rule:evenodd;stroke:#ffffff;stroke-width:0.529167;stroke-linecap:butt;stroke-linejoin:miter;stroke-dasharray:none;stroke-opacity:1" d="m 172.07838,140.01419 c -0.0787,-0.21994 -0.0841,-0.4785 -0.24536,-0.66023 -0.12241,-0.0825 -0.28548,-0.0686 -0.40266,-0.16516 -0.0866,-0.0942 -0.15009,-0.22187 -0.1862,-0.34777 -0.0512,-0.1086 -0.10594,-0.22688 -0.0944,-0.35179 0.005,-0.19212 0.002,-0.38423 -8.9e-4,-0.57634 0.004,-0.0332 0.0211,-0.064 0.0191,-0.0981"/>
        <path style="fill:none;fill-rule:evenodd;stroke:#ffffff;stroke-width:0.529167;stroke-linecap:butt;stroke-linejoin:miter;stroke-dasharray:none;stroke-opacity:1" d="m 172.27682,143.13958 c -0.68993,-0.40877 -1.63642,0.48074 -1.11891,1.16267 0.3661,0.72508 1.64765,0.55045 1.61925,-0.32776 0.0405,-0.3438 -0.10249,-0.79074 -0.50034,-0.83491 z"/>
        <path style="fill:none;fill-rule:evenodd;stroke:#ffffff;stroke-width:0.529167;stroke-linecap:butt;stroke-linejoin:miter;stroke-dasharray:none;stroke-opacity:1" d="m 172.39258,144.79323 c 0.0121,0.27985 0.007,0.5723 0.13631,0.82909 0.0493,0.1313 0.0444,0.26897 0.0975,0.39947 -0.0158,0.17966 0.0297,0.36711 -0.0387,0.53995 -0.0376,0.15173 -0.14092,0.277 -0.16677,0.43271 -0.0634,0.16315 -0.18315,0.32494 -0.35955,0.37287 0.004,0.011 -0.0119,0.003 -0.0162,0.006"/>
        <path style="fill:none;fill-rule:evenodd;stroke:#ffffff;stroke-width:0.264583px;stroke-linecap:butt;stroke-linejoin:miter;stroke-opacity:1" d="m 171.94609,141.93242 c 0.28799,0.0916 0.56558,0.22552 0.86538,0.27393 0.11888,-0.0296 0.22399,0.005 0.33275,0.0369 0.1311,0.0306 0.23088,0.11318 0.34548,0.17835 0.1337,0.0705 0.13381,0.23817 0.14925,0.37016 5.2e-4,0.16282 -0.13414,0.2813 -0.23516,0.39167 -0.14005,0.0826 -0.31383,0.08 -0.4529,0.16557 -0.0383,0.009 -0.0843,0.004 -0.11187,0.0386"/>
        <path style="fill:none;fill-rule:evenodd;stroke:#ffffff;stroke-width:0.264583px;stroke-linecap:butt;stroke-linejoin:miter;stroke-opacity:1" d="m 170.98698,144.19791 c -0.27173,0.16702 -0.5879,0.27077 -0.81581,0.50234 -0.0656,0.0945 0.008,0.20751 0.006,0.31015 -0.004,0.0905 0.0236,0.1919 -0.0262,0.27392 -0.0146,0.0282 -0.0571,0.0344 -0.0565,0.0712"/>
      </g>
      <g>
        <g transform="matrix(1.1319443,-0.30330357,0.30330357,1.1319443,-85.042087,21.831124)">
          <path style="fill:#ffffff;stroke:#000000;stroke-width:0.1905;stroke-linecap:round;stroke-linejoin:round" d="m 63.063167,172.58934 a 1.1906249,1.7859375 20 0 1 -1.72966,1.27101 1.1906249,1.7859375 20 0 1 -0.50799,-2.08545 1.1906249,1.7859375 20 0 1 1.72965,-1.27102 1.1906249,1.7859375 20 0 1 0.508,2.08546 z"/>
          <path style="opacity:1;fill:#274675;fill-opacity:1;stroke:none;stroke-width:0.0206706;stroke-linecap:round;stroke-linejoin:round;stroke-dasharray:none;stroke-opacity:1" d="m 62.21473,170.44645 c -0.274158,0.005 -0.536509,0.12461 -0.75056,0.2902 -0.03053,0.0373 0.05471,0.0402 0.07112,0.0574 0.563847,0.23543 1.125263,0.4775 1.695612,0.69686 0.02573,0.0186 0.05524,0.004 0.04059,-0.028 -0.07361,-0.36496 -0.261041,-0.73595 -0.600032,-0.91873 -0.138787,-0.077 -0.299736,-0.10148 -0.45673,-0.0977 z"/>
          <ellipse style="fill:#000000;fill-opacity:1;stroke:#000000;stroke-width:0.223242;stroke-linecap:round;stroke-linejoin:round;stroke-dasharray:none;stroke-opacity:1" cx="61.877586" cy="172.08105" rx="0.45630273" ry="0.4563027"/>
          <path style="fill:none;fill-rule:evenodd;stroke:#000000;stroke-width:0.238125px;stroke-linecap:butt;stroke-linejoin:miter;stroke-opacity:1" d="m 61.419867,170.84121 1.761509,0.73092"/>
          <path style="fill:none;stroke:#000000;stroke-width:0.1905;stroke-linecap:round;stroke-linejoin:round" d="m 63.063167,172.58934 a 1.1906249,1.7859375 20 0 1 -1.72966,1.27101 1.1906249,1.7859375 20 0 1 -0.50799,-2.08545 1.1906249,1.7859375 20 0 1 1.72965,-1.27102 1.1906249,1.7859375 20 0 1 0.508,2.08546 z"/>
        </g>
        <path style="fill:none;fill-rule:evenodd;stroke:#000000;stroke-width:0.264583px;stroke-linecap:butt;stroke-linejoin:miter;stroke-opacity:1" d="m 38.084406,196.8909 c 0.24933,-0.5792 0.32325,-1.19494 0.19844,-1.85208"/>
        <path style="fill:none;fill-rule:evenodd;stroke:#000000;stroke-width:0.264583px;stroke-linecap:butt;stroke-linejoin:miter;stroke-opacity:1" d="m 37.43264,196.70616 c 0.15457,-0.52774 8.6e-4,-1.04207 -0.19844,-1.55442"/>
        <path style="fill:none;fill-rule:evenodd;stroke:#000000;stroke-width:0.264583px;stroke-linecap:butt;stroke-linejoin:miter;stroke-opacity:1" d="m 36.70504,196.62867 c 0.0584,-0.50564 -0.23948,-0.94342 -0.4961,-1.38906"/>
      </g>
      <g transform="matrix(-1,0,0,1,219.51871,57.189237)">
        <path style="fill:none;fill-rule:evenodd;stroke:#ffffff;stroke-width:0.529167;stroke-linecap:butt;stroke-linejoin:miter;stroke-dasharray:none;stroke-opacity:1" d="m 173.66588,136.50846 c 0.0524,0.49085 0.46697,0.9012 0.35799,1.41757 -0.0992,0.38749 -0.36257,0.74518 -0.73677,0.9087 -0.32868,0.13043 -0.54409,0.40716 -0.74763,0.68192 -0.41779,0.47439 -0.343,1.1515 -0.53373,1.71982 -0.12841,0.36609 -0.24716,0.77627 -0.55037,1.04043 -0.41217,0.2072 -0.87012,0.46555 -1.3444,0.44899"/>
        <path style="fill:none;fill-rule:evenodd;stroke:#ffffff;stroke-width:0.529167;stroke-linecap:butt;stroke-linejoin:miter;stroke-dasharray:none;stroke-opacity:1" d="m 174.16198,137.9306 c 0.40235,-0.0397 0.80629,-0.0639 1.2106,-0.0501 0.16781,-0.0123 0.34604,0.0361 0.48003,0.1397 0.13365,0.12125 0.28422,0.20829 0.36033,0.37846 0.10972,0.17528 0.17132,0.37198 0.26513,0.55612 0.0276,0.2105 0.20729,0.282 0.39704,0.25191 0.11835,-0.0136 0.25808,-0.0498 0.34584,-0.13549"/>
        <path style="fill:none;fill-rule:evenodd;stroke:#ffffff;stroke-width:0.529167;stroke-linecap:butt;stroke-linejoin:miter;stroke-dasharray:none;stroke-opacity:1" d="m 172.07838,140.01419 c -0.0787,-0.21994 -0.0841,-0.4785 -0.24536,-0.66023 -0.12241,-0.0825 -0.28548,-0.0686 -0.40266,-0.16516 -0.0866,-0.0942 -0.15009,-0.22187 -0.1862,-0.34777 -0.0512,-0.1086 -0.10594,-0.22688 -0.0944,-0.35179 0.005,-0.19212 0.002,-0.38423 -8.9e-4,-0.57634 0.004,-0.0332 0.0211,-0.064 0.0191,-0.0981"/>
        <path style="fill:none;fill-rule:evenodd;stroke:#ffffff;stroke-width:0.529167;stroke-linecap:butt;stroke-linejoin:miter;stroke-dasharray:none;stroke-opacity:1" d="m 172.27682,143.13958 c -0.68993,-0.40877 -1.63642,0.48074 -1.11891,1.16267 0.3661,0.72508 1.64765,0.55045 1.61925,-0.32776 0.0405,-0.3438 -0.10249,-0.79074 -0.50034,-0.83491 z"/>
        <path style="fill:none;fill-rule:evenodd;stroke:#ffffff;stroke-width:0.529167;stroke-linecap:butt;stroke-linejoin:miter;stroke-dasharray:none;stroke-opacity:1" d="m 172.39258,144.79323 c 0.0121,0.27985 0.007,0.5723 0.13631,0.82909 0.0493,0.1313 0.0444,0.26897 0.0975,0.39947 -0.0158,0.17966 0.0297,0.36711 -0.0387,0.53995 -0.0376,0.15173 -0.14092,0.277 -0.16677,0.43271 -0.0634,0.16315 -0.18315,0.32494 -0.35955,0.37287 0.004,0.011 -0.0119,0.003 -0.0162,0.006"/>
        <path style="fill:none;fill-rule:evenodd;stroke:#ffffff;stroke-width:0.264583px;stroke-linecap:butt;stroke-linejoin:miter;stroke-opacity:1" d="m 171.94609,141.93242 c 0.28799,0.0916 0.56558,0.22552 0.86538,0.27393 0.11888,-0.0296 0.22399,0.005 0.33275,0.0369 0.1311,0.0306 0.23088,0.11318 0.34548,0.17835 0.1337,0.0705 0.13381,0.23817 0.14925,0.37016 5.2e-4,0.16282 -0.13414,0.2813 -0.23516,0.39167 -0.14005,0.0826 -0.31383,0.08 -0.4529,0.16557 -0.0383,0.009 -0.0843,0.004 -0.11187,0.0386"/>
        <path style="fill:none;fill-rule:evenodd;stroke:#ffffff;stroke-width:0.264583px;stroke-linecap:butt;stroke-linejoin:miter;stroke-opacity:1" d="m 170.98698,144.19791 c -0.27173,0.16702 -0.5879,0.27077 -0.81581,0.50234 -0.0656,0.0945 0.008,0.20751 0.006,0.31015 -0.004,0.0905 0.0236,0.1919 -0.0262,0.27392 -0.0146,0.0282 -0.0571,0.0344 -0.0565,0.0712"/>
      </g>
      <path style="fill:none;fill-rule:evenodd;stroke:#ffffff;stroke-width:0.529167;stroke-linecap:butt;stroke-linejoin:miter;stroke-dasharray:none;stroke-opacity:1" d="m 40.42574,196.34354 c 0.15119,-0.07 0.31528,-0.12746 0.43282,-0.25035 0.0781,-0.0351 0.1325,-0.14405 0.23262,-0.0805 0.0528,-0.0388 0.10498,-0.0924 0.19016,-0.0669 0.12077,-0.025 0.25157,-0.0294 0.37382,0.001 0.10016,0.0427 0.21788,0.0279 0.30976,0.0931 0.0893,0.0592 0.19228,0.0988 0.26501,0.18019 0.0815,0.0638 0.17329,0.11173 0.26278,0.15645"/>
      <path style="fill:none;fill-rule:evenodd;stroke:#ffffff;stroke-width:0.264583px;stroke-linecap:butt;stroke-linejoin:miter;stroke-opacity:1" d="m 39.73121,193.41658 c 0.0623,0.10312 0.0729,0.30879 0.0827,0.42153 -0.004,0.18943 0.0147,0.38167 -0.0299,0.56745 -0.0416,0.0716 -0.0234,0.16438 -0.0694,0.23091 -0.0201,0.0765 -0.0619,0.14583 -0.0851,0.22096 -0.0221,0.0817 -0.0698,0.15128 -0.10376,0.22649 -0.0153,0.0173 -0.0433,0.0433 -0.0425,0.0689"/>
      <path style="fill:none;fill-rule:evenodd;stroke:#ffffff;stroke-width:0.264583px;stroke-linecap:butt;stroke-linejoin:miter;stroke-opacity:1" d="m 43.20531,193.41658 c -0.0623,0.10312 -0.0729,0.30879 -0.0827,0.42153 0.004,0.18943 -0.0147,0.38167 0.0299,0.56745 0.0416,0.0716 0.0234,0.16438 0.0694,0.23091 0.0201,0.0765 0.0619,0.14583 0.0851,0.22096 0.0221,0.0817 0.0698,0.15128 0.10376,0.22649 0.0153,0.0173 0.0433,0.0433 0.0425,0.0689"/>
      <g transform="translate(-136.5309,57.189237)">
        <path style="fill:#113196;fill-opacity:1;fill-rule:evenodd;stroke:#000000;stroke-width:0.264583px;stroke-linecap:butt;stroke-linejoin:miter;stroke-opacity:1" d="M 175.41875,136.17403 171.45,130.88237 h -3.96875 v 0.52917 h 3.70417 l 3.43958,4.76249"/>
        <path style="fill:none;fill-rule:evenodd;stroke:#ffffff;stroke-width:0.264583px;stroke-linecap:butt;stroke-linejoin:miter;stroke-opacity:1" d="m 168.96445,130.89191 v 0.53788"/>
        <path style="fill:none;fill-rule:evenodd;stroke:#ffffff;stroke-width:0.264583px;stroke-linecap:butt;stroke-linejoin:miter;stroke-opacity:1" d="m 170.50794,130.83345 v 0.53788"/>
        <path style="fill:none;fill-rule:evenodd;stroke:#ffffff;stroke-width:0.264583px;stroke-linecap:butt;stroke-linejoin:miter;stroke-opacity:1" d="m 168.09917,130.88022 v 0.53788"/>
        <path style="fill:none;fill-rule:evenodd;stroke:#ffffff;stroke-width:0.264583px;stroke-linecap:butt;stroke-linejoin:miter;stroke-opacity:1" d="m 172.08236,131.78208 -0.38928,0.37118"/>
        <path style="fill:none;fill-rule:evenodd;stroke:#ffffff;stroke-width:0.264583px;stroke-linecap:butt;stroke-linejoin:miter;stroke-opacity:1" d="m 172.71378,132.63567 -0.38928,0.37118"/>
        <path style="fill:none;fill-rule:evenodd;stroke:#ffffff;stroke-width:0.264583px;stroke-linecap:butt;stroke-linejoin:miter;stroke-opacity:1" d="m 173.3452,133.39572 -0.38928,0.37118"/>
        <path style="fill:none;fill-rule:evenodd;stroke:#ffffff;stroke-width:0.264583px;stroke-linecap:butt;stroke-linejoin:miter;stroke-opacity:1" d="m 174.0234,134.30778 -0.38928,0.37118"/>
        <path style="fill:none;fill-rule:evenodd;stroke:#ffffff;stroke-width:0.264583px;stroke-linecap:butt;stroke-linejoin:miter;stroke-opacity:1" d="m 174.54959,135.06783 -0.38928,0.37118"/>
        <path style="fill:none;fill-opacity:1;fill-rule:evenodd;stroke:#000000;stroke-width:0.264583px;stroke-linecap:butt;stroke-linejoin:miter;stroke-opacity:1" d="M 175.41875,136.17403 171.45,130.88237 h -3.96875 v 0.52917 h 3.70417 l 3.43958,4.76249"/>
      </g>
      <g transform="matrix(-1,0,0,1,219.59827,57.189227)">
        <path style="fill:#113196;fill-opacity:1;fill-rule:evenodd;stroke:#000000;stroke-width:0.264583px;stroke-linecap:butt;stroke-linejoin:miter;stroke-opacity:1" d="M 175.41875,136.17403 171.45,130.88237 h -3.96875 v 0.52917 h 3.70417 l 3.43958,4.76249"/>
        <path style="fill:none;fill-rule:evenodd;stroke:#ffffff;stroke-width:0.264583px;stroke-linecap:butt;stroke-linejoin:miter;stroke-opacity:1" d="m 168.96445,130.89191 v 0.53788"/>
        <path style="fill:none;fill-rule:evenodd;stroke:#ffffff;stroke-width:0.264583px;stroke-linecap:butt;stroke-linejoin:miter;stroke-opacity:1" d="m 170.50794,130.83345 v 0.53788"/>
        <path style="fill:none;fill-rule:evenodd;stroke:#ffffff;stroke-width:0.264583px;stroke-linecap:butt;stroke-linejoin:miter;stroke-opacity:1" d="m 168.09917,130.88022 v 0.53788"/>
        <path style="fill:none;fill-rule:evenodd;stroke:#ffffff;stroke-width:0.264583px;stroke-linecap:butt;stroke-linejoin:miter;stroke-opacity:1" d="m 172.08236,131.78208 -0.38928,0.37118"/>
        <path style="fill:none;fill-rule:evenodd;stroke:#ffffff;stroke-width:0.264583px;stroke-linecap:butt;stroke-linejoin:miter;stroke-opacity:1" d="m 172.71378,132.63567 -0.38928,0.37118"/>
        <path style="fill:none;fill-rule:evenodd;stroke:#ffffff;stroke-width:0.264583px;stroke-linecap:butt;stroke-linejoin:miter;stroke-opacity:1" d="m 173.3452,133.39572 -0.38928,0.37118"/>
        <path style="fill:none;fill-rule:evenodd;stroke:#ffffff;stroke-width:0.264583px;stroke-linecap:butt;stroke-linejoin:miter;stroke-opacity:1" d="m 174.0234,134.30778 -0.38928,0.37118"/>
        <path style="fill:none;fill-rule:evenodd;stroke:#ffffff;stroke-width:0.264583px;stroke-linecap:butt;stroke-linejoin:miter;stroke-opacity:1" d="m 174.54959,135.06783 -0.38928,0.37118"/>
        <path style="fill:none;fill-opacity:1;fill-rule:evenodd;stroke:#000000;stroke-width:0.264583px;stroke-linecap:butt;stroke-linejoin:miter;stroke-opacity:1" d="M 175.41875,136.17403 171.45,130.88237 h -3.96875 v 0.52917 h 3.70417 l 3.43958,4.76249"/>
      </g>
      <path style="fill:none;fill-opacity:1;fill-rule:evenodd;stroke:#000000;stroke-width:0.264583px;stroke-linecap:butt;stroke-linejoin:miter;stroke-opacity:1" d="m 41.53368,193.36326 c -2.24853,0 -4.98726,-0.22876 -6.61458,1.32292 -1.31586,1.2547 -1.10076,3.48712 -1.32291,5.29167 -0.10776,0.87534 -0.41615,1.86824 0,2.64583 0.75023,1.40181 2.44702,2.71426 3.96874,3.175 1.26616,0.38336 2.64584,0.51264 3.96876,0.51264 1.32292,0 2.7026,-0.12927 3.96875,-0.51263 1.52173,-0.46074 3.21852,-1.77319 3.96875,-3.17501 0.41615,-0.77759 0.10776,-1.77049 0,-2.64583 -0.22215,-1.80455 -0.007,-4.03697 -1.32292,-5.29167 -1.62732,-1.55168 -4.36606,-1.32292 -6.61459,-1.32292 z"/>
      <g transform="matrix(-1,0,0,1,82.970038,0)">
        <g transform="matrix(1.1319443,-0.30330357,0.30330357,1.1319443,-85.042087,21.831124)">
          <path style="fill:#ffffff;stroke:#000000;stroke-width:0.1905;stroke-linecap:round;stroke-linejoin:round" d="m 63.063167,172.58934 a 1.1906249,1.7859375 20 0 1 -1.72966,1.27101 1.1906249,1.7859375 20 0 1 -0.50799,-2.08545 1.1906249,1.7859375 20 0 1 1.72965,-1.27102 1.1906249,1.7859375 20 0 1 0.508,2.08546 z"/>
          <path style="opacity:1;fill:#274675;fill-opacity:1;stroke:none;stroke-width:0.0206706;stroke-linecap:round;stroke-linejoin:round;stroke-dasharray:none;stroke-opacity:1" d="m 62.21473,170.44645 c -0.274158,0.005 -0.536509,0.12461 -0.75056,0.2902 -0.03053,0.0373 0.05471,0.0402 0.07112,0.0574 0.563847,0.23543 1.125263,0.4775 1.695612,0.69686 0.02573,0.0186 0.05524,0.004 0.04059,-0.028 -0.07361,-0.36496 -0.261041,-0.73595 -0.600032,-0.91873 -0.138787,-0.077 -0.299736,-0.10148 -0.45673,-0.0977 z"/>
          <ellipse style="fill:#000000;fill-opacity:1;stroke:#000000;stroke-width:0.223242;stroke-linecap:round;stroke-linejoin:round;stroke-dasharray:none;stroke-opacity:1" cx="61.877586" cy="172.08105" rx="0.45630273" ry="0.4563027"/>
          <path style="fill:none;fill-rule:evenodd;stroke:#000000;stroke-width:0.238125px;stroke-linecap:butt;stroke-linejoin:miter;stroke-opacity:1" d="m 61.419867,170.84121 1.761509,0.73092"/>
          <path style="fill:none;stroke:#000000;stroke-width:0.1905;stroke-linecap:round;stroke-linejoin:round" d="m 63.063167,172.58934 a 1.1906249,1.7859375 20 0 1 -1.72966,1.27101 1.1906249,1.7859375 20 0 1 -0.50799,-2.08545 1.1906249,1.7859375 20 0 1 1.72965,-1.27102 1.1906249,1.7859375 20 0 1 0.508,2.08546 z"/>
        </g>
        <path style="fill:none;fill-rule:evenodd;stroke:#000000;stroke-width:0.264583px;stroke-linecap:butt;stroke-linejoin:miter;stroke-opacity:1" d="m 38.084406,196.8909 c 0.24933,-0.5792 0.32325,-1.19494 0.19844,-1.85208"/>
        <path style="fill:none;fill-rule:evenodd;stroke:#000000;stroke-width:0.264583px;stroke-linecap:butt;stroke-linejoin:miter;stroke-opacity:1" d="m 37.43264,196.70616 c 0.15457,-0.52774 8.6e-4,-1.04207 -0.19844,-1.55442"/>
        <path style="fill:none;fill-rule:evenodd;stroke:#000000;stroke-width:0.264583px;stroke-linecap:butt;stroke-linejoin:miter;stroke-opacity:1" d="m 36.70504,196.62867 c 0.0584,-0.50564 -0.23948,-0.94342 -0.4961,-1.38906"/>
      </g>
    </g></g></g></svg>