<svg xmlns="http://www.w3.org/2000/svg" xmlns:xlink="http://www.w3.org/1999/xlink" width="64" height="64" viewBox="0 0 64 64"><defs id="defs355716">
    <rect x="172" y="97" width="745" height="239" id="rect276290"/>
    <color-profile name="Agfa-:-Swop-Standard" xmlns:xlink="http://www.w3.org/1999/xlink" xlink:href="file:///C:/WINDOWS/system32/spool/drivers/color/RSWOP.icm" id="color-profile294613"/>
    <linearGradient xmlns:inkscape="http://www.inkscape.org/namespaces/inkscape" inkscape:collect="always" id="linearGradient140439">
      <stop style="stop-color:#a4a870;stop-opacity:1;" offset="0" id="stop140435"/>
      <stop style="stop-color:#a4a870;stop-opacity:0;" offset="1" id="stop140437"/>
    </linearGradient>
    <linearGradient xmlns:inkscape="http://www.inkscape.org/namespaces/inkscape" inkscape:collect="always" id="linearGradient140390">
      <stop style="stop-color:#359676;stop-opacity:1;" offset="0" id="stop140386"/>
      <stop style="stop-color:#4a6a5e;stop-opacity:0;" offset="1" id="stop140388"/>
    </linearGradient>
    <linearGradient xmlns:inkscape="http://www.inkscape.org/namespaces/inkscape" inkscape:collect="always" id="linearGradient139515">
      <stop style="stop-color:#dbd764;stop-opacity:1;" offset="0" id="stop139511"/>
      <stop style="stop-color:#dbd764;stop-opacity:0;" offset="0.56578946" id="stop139513"/>
    </linearGradient>
    <linearGradient xmlns:inkscape="http://www.inkscape.org/namespaces/inkscape" inkscape:collect="always" id="linearGradient139325">
      <stop style="stop-color:#161c16;stop-opacity:1;" offset="0" id="stop139321"/>
      <stop style="stop-color:#6e836c;stop-opacity:0;" offset="1" id="stop139323"/>
    </linearGradient>
    <linearGradient xmlns:inkscape="http://www.inkscape.org/namespaces/inkscape" inkscape:collect="always" id="linearGradient387614">
      <stop style="stop-color:#a4a870;stop-opacity:1;" offset="0" id="stop387610"/>
      <stop style="stop-color:#a4a870;stop-opacity:0;" offset="1" id="stop387612"/>
    </linearGradient>
    <linearGradient xmlns:inkscape="http://www.inkscape.org/namespaces/inkscape" inkscape:collect="always" id="linearGradient387421">
      <stop style="stop-color:#344533;stop-opacity:1;" offset="0" id="stop387417"/>
      <stop style="stop-color:#1d251d;stop-opacity:0;" offset="1" id="stop387419"/>
    </linearGradient>
    <linearGradient xmlns:inkscape="http://www.inkscape.org/namespaces/inkscape" inkscape:collect="always" xmlns:xlink="http://www.w3.org/1999/xlink" xlink:href="#linearGradient206680" id="linearGradient206682" x1="168.01042" y1="262.08701" x2="168.01042" y2="247.38542" gradientUnits="userSpaceOnUse"/>
    <linearGradient xmlns:inkscape="http://www.inkscape.org/namespaces/inkscape" inkscape:collect="always" id="linearGradient206680">
      <stop style="stop-color:#dbd764;stop-opacity:0;" offset="0.38377193" id="stop206678"/>
      <stop style="stop-color:#dbd764;stop-opacity:1;" offset="1" id="stop206676"/>
    </linearGradient>
    <linearGradient xmlns:inkscape="http://www.inkscape.org/namespaces/inkscape" inkscape:collect="always" xmlns:xlink="http://www.w3.org/1999/xlink" xlink:href="#linearGradient216292" id="linearGradient216294" x1="168.01042" y1="236.00833" x2="168.01042" y2="248.97292" gradientUnits="userSpaceOnUse" gradientTransform="translate(8.4073796,-0.78650088)"/>
    <linearGradient xmlns:inkscape="http://www.inkscape.org/namespaces/inkscape" inkscape:collect="always" id="linearGradient216292">
      <stop style="stop-color:#359676;stop-opacity:1;" offset="0" id="stop216288"/>
      <stop style="stop-color:#4a6a5f;stop-opacity:0;" offset="1" id="stop216290"/>
    </linearGradient>
    <linearGradient xmlns:inkscape="http://www.inkscape.org/namespaces/inkscape" inkscape:collect="always" xmlns:xlink="http://www.w3.org/1999/xlink" xlink:href="#linearGradient387421" id="linearGradient387423" x1="31.75" y1="155.31041" x2="31.921236" y2="171.18663" gradientUnits="userSpaceOnUse"/>
    <linearGradient xmlns:inkscape="http://www.inkscape.org/namespaces/inkscape" inkscape:collect="always" xmlns:xlink="http://www.w3.org/1999/xlink" xlink:href="#linearGradient387614" id="linearGradient387616" x1="45.011326" y1="158.73975" x2="51.59375" y2="162.71875" gradientUnits="userSpaceOnUse" gradientTransform="translate(2.9601329,-0.98671096)"/>
    <linearGradient xmlns:inkscape="http://www.inkscape.org/namespaces/inkscape" inkscape:collect="always" xmlns:xlink="http://www.w3.org/1999/xlink" xlink:href="#linearGradient387614" id="linearGradient387620" gradientUnits="userSpaceOnUse" x1="45.011326" y1="158.73975" x2="51.593746" y2="162.71875" gradientTransform="matrix(-1,0,0,1,108.79346,-0.98671096)"/>
    <linearGradient xmlns:inkscape="http://www.inkscape.org/namespaces/inkscape" inkscape:collect="always" xmlns:xlink="http://www.w3.org/1999/xlink" xlink:href="#linearGradient139325" id="linearGradient139327" x1="70" y1="21" x2="70" y2="37" gradientUnits="userSpaceOnUse"/>
    <linearGradient xmlns:inkscape="http://www.inkscape.org/namespaces/inkscape" inkscape:collect="always" xmlns:xlink="http://www.w3.org/1999/xlink" xlink:href="#linearGradient139515" id="linearGradient139517" x1="70.426315" y1="1.5429174" x2="70.46106" y2="18.249472" gradientUnits="userSpaceOnUse"/>
    <linearGradient xmlns:inkscape="http://www.inkscape.org/namespaces/inkscape" inkscape:collect="always" xmlns:xlink="http://www.w3.org/1999/xlink" xlink:href="#linearGradient140390" id="linearGradient140392" x1="90.084175" y1="1.3586814" x2="90" y2="16" gradientUnits="userSpaceOnUse"/>
    <linearGradient xmlns:inkscape="http://www.inkscape.org/namespaces/inkscape" inkscape:collect="always" xmlns:xlink="http://www.w3.org/1999/xlink" xlink:href="#linearGradient140439" id="linearGradient140441" x1="90.01368" y1="24.010059" x2="94.88681" y2="28.136377" gradientUnits="userSpaceOnUse"/>
    <linearGradient xmlns:inkscape="http://www.inkscape.org/namespaces/inkscape" inkscape:collect="always" xmlns:xlink="http://www.w3.org/1999/xlink" xlink:href="#linearGradient140439" id="linearGradient140449" gradientUnits="userSpaceOnUse" x1="90.01368" y1="24.010059" x2="94.88681" y2="28.136377" gradientTransform="matrix(-1,0,0,1,190,0)"/>
    <radialGradient xmlns:inkscape="http://www.inkscape.org/namespaces/inkscape" inkscape:collect="always" xmlns:xlink="http://www.w3.org/1999/xlink" xlink:href="#linearGradient177339" id="radialGradient177341-3-0" cx="44.135807" cy="121.46028" fx="44.135807" fy="121.46028" r="1.1079427" gradientTransform="matrix(1.5015971,0,0,0.99367432,-157.6034,-4.3351259)" gradientUnits="userSpaceOnUse"/>
    <linearGradient xmlns:inkscape="http://www.inkscape.org/namespaces/inkscape" inkscape:collect="always" id="linearGradient177339">
      <stop style="stop-color:#b98d3e;stop-opacity:1;" offset="0" id="stop177335"/>
      <stop style="stop-color:#c9c943;stop-opacity:0;" offset="1" id="stop177337"/>
    </linearGradient>
    <radialGradient xmlns:inkscape="http://www.inkscape.org/namespaces/inkscape" inkscape:collect="always" xmlns:xlink="http://www.w3.org/1999/xlink" xlink:href="#linearGradient177339" id="radialGradient177345-7-9" gradientUnits="userSpaceOnUse" gradientTransform="matrix(1.5015971,0,0,0.99367432,-195.50719,-68.761115)" cx="44.135807" cy="121.46028" fx="44.135807" fy="121.46028" r="1.1079427"/>
    <rect x="172" y="97" width="745" height="239" id="rect276290-2"/>
    <rect x="172" y="97" width="745" height="239" id="rect276290-2-5"/>
    <rect x="172" y="97" width="745" height="239" id="rect276290-2-5-7"/>
  </defs><g transform="translate(-118.09407660081042 -355.3557217096678) scale(3.3607435727204047)"><g><g transform="matrix(-1,0,0,1,115.40742,105.45792)">
      <path style="fill:#4a6a53;fill-opacity:1;fill-rule:evenodd;stroke:#000000;stroke-width:0.364375;stroke-linecap:butt;stroke-linejoin:miter;stroke-dasharray:none;stroke-opacity:1" d="m 70.746452,1.469526 c 0,0 -1.72084,0.349701 -2.546621,0.873125 -1.000208,0.633985 -2.14038,1.137642 -2.910413,2.037299 -0.50754,0.592977 -0.634876,1.070036 -0.94589,1.634633 -0.237886,0.43186 -0.687665,0.926563 -0.873125,1.494053 -0.344344,1.053679 -0.662827,2.16865 -0.582087,3.274216 0.05588,0.764929 0.775225,1.555719 1.164174,2.216731 0.600677,1.020855 0.948618,2.558578 1.964545,3.167538 0.708708,0.424809 1.589324,0.990958 2.40108,1.145178 0.768405,0.145981 1.546182,0.820204 2.328337,0.820204 0.782144,0 1.559921,-0.674223 2.328326,-0.820204 0.811767,-0.15422 1.692394,-0.720358 2.401113,-1.145178 1.015916,-0.60896 1.363846,-2.146694 1.964512,-3.167538 0.388949,-0.661023 1.108305,-1.451802 1.164174,-2.216731 C 78.685317,9.677286 78.366834,8.562315 78.02249,7.508636 77.832388,6.926923 77.395281,6.455529 77.149365,6.014583 76.841739,5.462999 76.701291,4.961553 76.203486,4.37995 75.433453,3.480282 74.29327,2.976636 73.293062,2.342651 72.467281,1.819238 70.746452,1.469526 70.746452,1.469526 Z"/>
      <path style="fill:url(#linearGradient139517);fill-opacity:1;fill-rule:evenodd;stroke:#000000;stroke-width:0.364375;stroke-linecap:butt;stroke-linejoin:miter;stroke-dasharray:none;stroke-opacity:1" d="m 70.746452,1.469526 c 0,0 -1.72084,0.349701 -2.546621,0.873125 -1.000208,0.633985 -2.14038,1.137642 -2.910413,2.037299 -0.50754,0.592977 -0.634876,1.070036 -0.94589,1.634633 -0.237886,0.43186 -0.687665,0.926563 -0.873125,1.494053 -0.344344,1.053679 -0.662827,2.16865 -0.582087,3.274216 0.05588,0.764929 0.775225,1.555719 1.164174,2.216731 0.600677,1.020855 0.948618,2.558578 1.964545,3.167538 0.708708,0.424809 1.589324,0.990958 2.40108,1.145178 0.768405,0.145981 1.546182,0.820204 2.328337,0.820204 0.782144,0 1.559921,-0.674223 2.328326,-0.820204 0.811767,-0.15422 1.692394,-0.720358 2.401113,-1.145178 1.015916,-0.60896 1.363846,-2.146694 1.964512,-3.167538 0.388949,-0.661023 1.108305,-1.451802 1.164174,-2.216731 C 78.685317,9.677286 78.366834,8.562315 78.02249,7.508636 77.832388,6.926923 77.395281,6.455529 77.149365,6.014583 76.841739,5.462999 76.701291,4.961553 76.203486,4.37995 75.433453,3.480282 74.29327,2.976636 73.293062,2.342651 72.467281,1.819238 70.746452,1.469526 70.746452,1.469526 Z"/>
      <path style="fill:none;fill-rule:evenodd;stroke:#000000;stroke-width:0.291041px;stroke-linecap:butt;stroke-linejoin:miter;stroke-opacity:1" d="m 70.77217,15.237975 -0.02574,2.894529"/>
      <g transform="matrix(0.99693868,0.46488012,-0.46488012,0.99693868,20.550552,-319.74963)">
        <path style="fill:none;stroke:#000000;stroke-width:0.502327px;stroke-linecap:butt;stroke-linejoin:miter;stroke-opacity:1" d="m 166.93549,253.48853 -0.49976,-0.50233 h -1.49055 -0.5213"/>
        <path style="fill:#ffffff;stroke:#000000;stroke-width:0.251163;stroke-miterlimit:4;stroke-dashoffset:0;stroke-opacity:1" d="m 166.35338,253.0064 c 0.0707,0.11478 0.11151,0.24996 0.11151,0.39468 0,0.41612 -0.33734,0.75349 -0.75348,0.75349 -0.41617,0 -0.75351,-0.33737 -0.75351,-0.75349 0,-0.14864 0.0431,-0.28728 0.11738,-0.40402 z"/>
        <circle style="fill:#000000;fill-opacity:1;fill-rule:nonzero;stroke:#000000;stroke-width:0.251163;stroke-miterlimit:4;stroke-dasharray:none;stroke-dashoffset:0;stroke-opacity:1" cx="165.67952" cy="253.4911" r="0.2511633"/>
      </g>
      <g transform="matrix(0.99693868,-0.46488012,0.46488012,0.99693868,-214.55538,-163.37072)">
        <path style="fill:none;stroke:#000000;stroke-width:0.502327px;stroke-linecap:butt;stroke-linejoin:miter;stroke-opacity:1" d="m 169.44713,253.48853 0.55646,-0.50233 h 1.95518"/>
        <path style="fill:#ffffff;stroke:#000000;stroke-width:0.251163;stroke-miterlimit:4;stroke-dashoffset:0;stroke-opacity:1" d="m 171.37665,253.00635 c 0.0707,0.11478 0.11151,0.24995 0.11151,0.39468 0,0.41612 -0.33734,0.75349 -0.75351,0.75349 -0.41613,0 -0.75347,-0.33737 -0.75347,-0.75349 0,-0.14864 0.043,-0.28728 0.11737,-0.40403 z"/>
        <circle style="fill:#000000;fill-opacity:1;fill-rule:nonzero;stroke:#000000;stroke-width:0.251163;stroke-miterlimit:4;stroke-dasharray:none;stroke-dashoffset:0;stroke-opacity:1" cx="170.71872" cy="253.4911" r="0.2511633"/>
      </g>
      <path style="fill:none;fill-rule:evenodd;stroke:#000000;stroke-width:0.291041px;stroke-linecap:butt;stroke-linejoin:miter;stroke-opacity:1" d="m 70.164365,10.03625 v 2.910424 h 1.164163 V 10.03625"/>
      <path style="fill:#ffffff;fill-opacity:1;stroke:#ffffff;stroke-width:0.0064413;stroke-linecap:round;stroke-linejoin:round;stroke-dasharray:none;stroke-opacity:1" d="m 74.727521,13.845892 c 0.01103,0.04458 -0.06523,-0.120258 -0.06264,-0.07358 -0.0063,0.186357 -0.0072,0.373381 -0.02305,0.559165 -0.02024,0.01409 -0.04035,-0.02628 -0.05938,-0.03311 -0.147215,-0.116068 -0.291012,-0.237062 -0.441821,-0.348027 -0.0113,0.207593 0.03048,0.531956 0.01601,0.739508 -0.02003,0.01288 -0.03787,-0.02415 -0.05613,-0.03029 -0.149028,-0.114837 -0.261263,-0.134946 -0.409003,-0.24344 -0.01142,0.20913 -0.05239,0.311473 -0.05977,0.52098 -0.02562,0.01684 -0.05597,-0.03975 -0.08274,-0.05058 -0.141034,-0.112291 -0.243029,-0.119847 -0.387454,-0.227851 0.0035,0.23666 -0.105628,0.593362 -0.105628,0.593362 0,0 -0.309895,-0.146376 -0.421897,-0.300336 -0.06842,0.198924 -0.08763,0.390646 -0.154495,0.590241 -0.02728,0.0099 -0.0396,-0.04763 -0.05995,-0.06435 -0.10505,-0.149501 -0.203731,-0.193215 -0.310035,-0.337887 -0.07051,0.192214 -0.130603,0.276056 -0.205073,0.466697 -0.01397,0.02871 -0.03619,-0.0077 -0.04345,-0.02134 -0.11143,-0.157784 -0.217305,-0.319594 -0.333817,-0.473715 -0.07073,0.19514 -0.128304,0.39622 -0.20416,0.589677 -0.02464,0.0044 -0.03168,-0.03795 -0.04895,-0.05071 -0.127259,-0.180037 -0.25168,-0.136972 -0.377333,-0.318153 0.0099,-0.02871 0.06732,-0.01265 0.09438,-0.02453 0.08019,-0.01199 0.163306,-0.02266 0.242869,-0.02849 0.249799,-0.04367 0.502502,-0.07029 0.753489,-0.10681 1.002221,-0.135564 1.810219,-0.913469 2.733134,-1.326999 l 0.0059,5.32e-4 z"/>
      <path style="fill:#ffffff;fill-opacity:1;stroke:#ffffff;stroke-width:0.0064413;stroke-linecap:round;stroke-linejoin:round;stroke-dasharray:none;stroke-opacity:1" d="m 66.78426,13.845892 c -0.01103,0.04458 0.06523,-0.120258 0.06264,-0.07358 0.0063,0.186357 0.0072,0.373381 0.02305,0.559165 0.02024,0.01409 0.04035,-0.02628 0.05938,-0.03311 0.147215,-0.116068 0.291012,-0.237062 0.441821,-0.348027 0.0113,0.207593 -0.03048,0.531956 -0.01601,0.739508 0.02003,0.01288 0.03787,-0.02415 0.05613,-0.03029 0.149028,-0.114837 0.261263,-0.134946 0.409003,-0.24344 0.01142,0.20913 0.05239,0.311473 0.05977,0.52098 0.02562,0.01684 0.05597,-0.03975 0.08274,-0.05058 0.141034,-0.112291 0.243029,-0.119847 0.387454,-0.227851 -0.0035,0.23666 0.105628,0.593362 0.105628,0.593362 0,0 0.309895,-0.146376 0.421897,-0.300336 0.06842,0.198924 0.08763,0.390646 0.154495,0.590241 0.02728,0.0099 0.0396,-0.04763 0.05995,-0.06435 0.10505,-0.149501 0.203731,-0.193215 0.310035,-0.337887 0.07051,0.192214 0.130603,0.276056 0.205073,0.466697 0.01397,0.02871 0.03619,-0.0077 0.04345,-0.02134 0.11143,-0.157784 0.217305,-0.319594 0.333817,-0.473715 0.07073,0.19514 0.128304,0.39622 0.20416,0.589677 0.02464,0.0044 0.03168,-0.03795 0.04895,-0.05071 0.127259,-0.180037 0.25168,-0.136972 0.377333,-0.318153 -0.0099,-0.02871 -0.06732,-0.01265 -0.09438,-0.02453 -0.08019,-0.01199 -0.163306,-0.02266 -0.242869,-0.02849 -0.249799,-0.04367 -0.502502,-0.07029 -0.753489,-0.10681 -1.002221,-0.135564 -1.810219,-0.913469 -2.733134,-1.326999 l -0.0059,5.32e-4 z"/>
      <path style="fill:none;fill-rule:evenodd;stroke:#000000;stroke-width:0.291041px;stroke-linecap:butt;stroke-linejoin:miter;stroke-opacity:1" d="m 66.380827,13.290633 c 0,0 0.909623,0.837671 1.455201,1.111242 0.909666,0.456138 1.918523,0.838487 2.936142,0.8361 1.001137,-0.0023 1.990817,-0.385254 2.884695,-0.8361 0.544938,-0.274851 1.455212,-1.111242 1.455212,-1.111242"/>
    </g></g></g></svg>