<svg xmlns="http://www.w3.org/2000/svg" xmlns:xlink="http://www.w3.org/1999/xlink" width="64" height="64" viewBox="0 0 64 64"><defs id="defs355716">
    <rect x="172" y="97" width="745" height="239" id="rect276290"/>
    <color-profile name="Agfa-:-Swop-Standard" xmlns:xlink="http://www.w3.org/1999/xlink" xlink:href="file:///C:/WINDOWS/system32/spool/drivers/color/RSWOP.icm" id="color-profile294613"/>
    <linearGradient xmlns:inkscape="http://www.inkscape.org/namespaces/inkscape" inkscape:collect="always" id="linearGradient140439">
      <stop style="stop-color:#a4a870;stop-opacity:1;" offset="0" id="stop140435"/>
      <stop style="stop-color:#a4a870;stop-opacity:0;" offset="1" id="stop140437"/>
    </linearGradient>
    <linearGradient xmlns:inkscape="http://www.inkscape.org/namespaces/inkscape" inkscape:collect="always" id="linearGradient140390">
      <stop style="stop-color:#359676;stop-opacity:1;" offset="0" id="stop140386"/>
      <stop style="stop-color:#4a6a5e;stop-opacity:0;" offset="1" id="stop140388"/>
    </linearGradient>
    <linearGradient xmlns:inkscape="http://www.inkscape.org/namespaces/inkscape" inkscape:collect="always" id="linearGradient139515">
      <stop style="stop-color:#dbd764;stop-opacity:1;" offset="0" id="stop139511"/>
      <stop style="stop-color:#dbd764;stop-opacity:0;" offset="0.56578946" id="stop139513"/>
    </linearGradient>
    <linearGradient xmlns:inkscape="http://www.inkscape.org/namespaces/inkscape" inkscape:collect="always" id="linearGradient139325">
      <stop style="stop-color:#161c16;stop-opacity:1;" offset="0" id="stop139321"/>
      <stop style="stop-color:#6e836c;stop-opacity:0;" offset="1" id="stop139323"/>
    </linearGradient>
    <linearGradient xmlns:inkscape="http://www.inkscape.org/namespaces/inkscape" inkscape:collect="always" id="linearGradient387614">
      <stop style="stop-color:#a4a870;stop-opacity:1;" offset="0" id="stop387610"/>
      <stop style="stop-color:#a4a870;stop-opacity:0;" offset="1" id="stop387612"/>
    </linearGradient>
    <linearGradient xmlns:inkscape="http://www.inkscape.org/namespaces/inkscape" inkscape:collect="always" id="linearGradient387421">
      <stop style="stop-color:#344533;stop-opacity:1;" offset="0" id="stop387417"/>
      <stop style="stop-color:#1d251d;stop-opacity:0;" offset="1" id="stop387419"/>
    </linearGradient>
    <linearGradient xmlns:inkscape="http://www.inkscape.org/namespaces/inkscape" inkscape:collect="always" xmlns:xlink="http://www.w3.org/1999/xlink" xlink:href="#linearGradient206680" id="linearGradient206682" x1="168.01042" y1="262.08701" x2="168.01042" y2="247.38542" gradientUnits="userSpaceOnUse"/>
    <linearGradient xmlns:inkscape="http://www.inkscape.org/namespaces/inkscape" inkscape:collect="always" id="linearGradient206680">
      <stop style="stop-color:#dbd764;stop-opacity:0;" offset="0.38377193" id="stop206678"/>
      <stop style="stop-color:#dbd764;stop-opacity:1;" offset="1" id="stop206676"/>
    </linearGradient>
    <linearGradient xmlns:inkscape="http://www.inkscape.org/namespaces/inkscape" inkscape:collect="always" xmlns:xlink="http://www.w3.org/1999/xlink" xlink:href="#linearGradient216292" id="linearGradient216294" x1="168.01042" y1="236.00833" x2="168.01042" y2="248.97292" gradientUnits="userSpaceOnUse" gradientTransform="translate(8.4073796,-0.78650088)"/>
    <linearGradient xmlns:inkscape="http://www.inkscape.org/namespaces/inkscape" inkscape:collect="always" id="linearGradient216292">
      <stop style="stop-color:#359676;stop-opacity:1;" offset="0" id="stop216288"/>
      <stop style="stop-color:#4a6a5f;stop-opacity:0;" offset="1" id="stop216290"/>
    </linearGradient>
    <linearGradient xmlns:inkscape="http://www.inkscape.org/namespaces/inkscape" inkscape:collect="always" xmlns:xlink="http://www.w3.org/1999/xlink" xlink:href="#linearGradient387421" id="linearGradient387423" x1="31.75" y1="155.31041" x2="31.921236" y2="171.18663" gradientUnits="userSpaceOnUse"/>
    <linearGradient xmlns:inkscape="http://www.inkscape.org/namespaces/inkscape" inkscape:collect="always" xmlns:xlink="http://www.w3.org/1999/xlink" xlink:href="#linearGradient387614" id="linearGradient387616" x1="45.011326" y1="158.73975" x2="51.59375" y2="162.71875" gradientUnits="userSpaceOnUse" gradientTransform="translate(2.9601329,-0.98671096)"/>
    <linearGradient xmlns:inkscape="http://www.inkscape.org/namespaces/inkscape" inkscape:collect="always" xmlns:xlink="http://www.w3.org/1999/xlink" xlink:href="#linearGradient387614" id="linearGradient387620" gradientUnits="userSpaceOnUse" x1="45.011326" y1="158.73975" x2="51.593746" y2="162.71875" gradientTransform="matrix(-1,0,0,1,108.79346,-0.98671096)"/>
    <linearGradient xmlns:inkscape="http://www.inkscape.org/namespaces/inkscape" inkscape:collect="always" xmlns:xlink="http://www.w3.org/1999/xlink" xlink:href="#linearGradient139325" id="linearGradient139327" x1="70" y1="21" x2="70" y2="37" gradientUnits="userSpaceOnUse"/>
    <linearGradient xmlns:inkscape="http://www.inkscape.org/namespaces/inkscape" inkscape:collect="always" xmlns:xlink="http://www.w3.org/1999/xlink" xlink:href="#linearGradient139515" id="linearGradient139517" x1="70.426315" y1="1.5429174" x2="70.46106" y2="18.249472" gradientUnits="userSpaceOnUse"/>
    <linearGradient xmlns:inkscape="http://www.inkscape.org/namespaces/inkscape" inkscape:collect="always" xmlns:xlink="http://www.w3.org/1999/xlink" xlink:href="#linearGradient140390" id="linearGradient140392" x1="90.084175" y1="1.3586814" x2="90" y2="16" gradientUnits="userSpaceOnUse"/>
    <linearGradient xmlns:inkscape="http://www.inkscape.org/namespaces/inkscape" inkscape:collect="always" xmlns:xlink="http://www.w3.org/1999/xlink" xlink:href="#linearGradient140439" id="linearGradient140441" x1="90.01368" y1="24.010059" x2="94.88681" y2="28.136377" gradientUnits="userSpaceOnUse"/>
    <linearGradient xmlns:inkscape="http://www.inkscape.org/namespaces/inkscape" inkscape:collect="always" xmlns:xlink="http://www.w3.org/1999/xlink" xlink:href="#linearGradient140439" id="linearGradient140449" gradientUnits="userSpaceOnUse" x1="90.01368" y1="24.010059" x2="94.88681" y2="28.136377" gradientTransform="matrix(-1,0,0,1,190,0)"/>
    <radialGradient xmlns:inkscape="http://www.inkscape.org/namespaces/inkscape" inkscape:collect="always" xmlns:xlink="http://www.w3.org/1999/xlink" xlink:href="#linearGradient177339" id="radialGradient177341-3-0" cx="44.135807" cy="121.46028" fx="44.135807" fy="121.46028" r="1.1079427" gradientTransform="matrix(1.5015971,0,0,0.99367432,-157.6034,-4.3351259)" gradientUnits="userSpaceOnUse"/>
    <linearGradient xmlns:inkscape="http://www.inkscape.org/namespaces/inkscape" inkscape:collect="always" id="linearGradient177339">
      <stop style="stop-color:#b98d3e;stop-opacity:1;" offset="0" id="stop177335"/>
      <stop style="stop-color:#c9c943;stop-opacity:0;" offset="1" id="stop177337"/>
    </linearGradient>
    <radialGradient xmlns:inkscape="http://www.inkscape.org/namespaces/inkscape" inkscape:collect="always" xmlns:xlink="http://www.w3.org/1999/xlink" xlink:href="#linearGradient177339" id="radialGradient177345-7-9" gradientUnits="userSpaceOnUse" gradientTransform="matrix(1.5015971,0,0,0.99367432,-195.50719,-68.761115)" cx="44.135807" cy="121.46028" fx="44.135807" fy="121.46028" r="1.1079427"/>
    <rect x="172" y="97" width="745" height="239" id="rect276290-2"/>
    <rect x="172" y="97" width="745" height="239" id="rect276290-2-5"/>
    <rect x="172" y="97" width="745" height="239" id="rect276290-2-5-7"/>
  </defs><g transform="translate(-63.181134191269535 -444.9298645278438) scale(3.5054994073152863)"><g><g transform="matrix(-1,0,0,1,122.15195,106.03935)">
      <path style="fill:#6e836c;fill-opacity:1;stroke:#000000;stroke-width:0.264583;stroke-linecap:round;stroke-linejoin:round" d="m 94.999997,22.0251 c -2.877566,0.002 -5.424001,0.91301 -6.298324,4.20284 -1.061528,0.69202 -1.637603,1.53961 -1.639176,2.41174 0.0016,0.87213 0.577648,1.71972 1.639176,2.41174 0.272734,1.02622 0.708173,2.90507 1.265614,3.5484 C 91.196874,36.01888 94,38 95,38 c 1.063823,-0.01833 3.72204,-1.95671 4.949888,-3.30691 0.597192,-0.6567 1.062332,-2.56516 1.348432,-3.64167 1.06153,-0.69202 1.6376,-1.53961 1.63918,-2.41174 -1.5e-4,-0.87251 -0.57535,-1.72068 -1.6366,-2.41329 -0.87506,-3.2903 -3.422733,-4.20101 -6.300903,-4.20129 z"/>
      <path style="fill:url(#linearGradient140449);fill-opacity:1;stroke:#000000;stroke-width:0.264583;stroke-linecap:round;stroke-linejoin:round" d="m 95,22.0251 c 2.877566,0.002 5.424,0.91301 6.29832,4.20284 1.06153,0.69202 1.63761,1.53961 1.63918,2.41174 -0.002,0.87213 -0.57765,1.71972 -1.63918,2.41174 -0.27273,1.02622 -0.70817,2.90507 -1.26561,3.5484 C 98.803123,36.01888 95.999997,38 94.999997,38 c -1.063823,-0.01833 -3.72204,-1.95671 -4.949888,-3.30691 -0.597192,-0.6567 -1.062332,-2.56516 -1.348432,-3.64167 -1.06153,-0.69202 -1.6376,-1.53961 -1.63918,-2.41174 1.5e-4,-0.87251 0.57535,-1.72068 1.6366,-2.41329 C 89.574157,22.93609 92.12183,22.02538 95,22.0251 Z"/>
      <path style="fill:url(#linearGradient140441);fill-opacity:1;stroke:#000000;stroke-width:0.264583;stroke-linecap:round;stroke-linejoin:round" d="m 94.999997,22.0251 c -2.877566,0.002 -5.424001,0.91301 -6.298324,4.20284 -1.061528,0.69202 -1.637603,1.53961 -1.639176,2.41174 0.0016,0.87213 0.577648,1.71972 1.639176,2.41174 0.272734,1.02622 0.708173,2.90507 1.265614,3.5484 C 91.196874,36.01888 94,38 95,38 c 1.063823,-0.01833 3.72204,-1.95671 4.949888,-3.30691 0.597192,-0.6567 1.062332,-2.56516 1.348432,-3.64167 1.06153,-0.69202 1.6376,-1.53961 1.63918,-2.41174 -1.5e-4,-0.87251 -0.57535,-1.72068 -1.6366,-2.41329 -0.87506,-3.2903 -3.422733,-4.20101 -6.300903,-4.20129 z"/>
      <path style="fill:none;fill-rule:evenodd;stroke:#000000;stroke-width:0.291041px;stroke-linecap:butt;stroke-linejoin:miter;stroke-opacity:1" d="m 95,35 v 2.986711"/>
      <path style="fill:none;fill-rule:evenodd;stroke:#000000;stroke-width:0.291041px;stroke-linecap:butt;stroke-linejoin:miter;stroke-opacity:1" d="m 94.417912,31.809237 v 0.58208 c 0,0.22562 0.03377,0.4421 0.122221,0.58852 0.09317,0.15433 0.27962,0.28473 0.459899,0.28461 0.188001,-1.3e-4 0.382976,-0.13595 0.479182,-0.29748 0.08855,-0.14866 0.10285,-0.57565 0.10285,-0.57565 l 1.1e-5,-0.58208"/>
      <path style="fill:#ffffff;fill-opacity:1;stroke:#ffffff;stroke-width:0.0064413;stroke-linecap:round;stroke-linejoin:round;stroke-dasharray:none;stroke-opacity:1" d="m 98.723858,33.176871 c 0.02615,0.03787 -0.103559,-0.08938 -0.08461,-0.04663 0.06007,0.176522 0.125373,0.35177 0.176328,0.531125 -0.01375,0.02061 -0.04702,-0.01027 -0.06723,-0.0099 -0.178755,-0.05641 -0.356068,-0.118724 -0.536388,-0.169138 0.0629,0.198157 0.139638,0.484889 0.151832,0.692591 -0.01805,0.01572 -0.04065,-0.01907 -0.05954,-0.02286 -0.162486,-0.09483 -0.27637,-0.100425 -0.436772,-0.189139 0.01542,0.208872 -0.01213,0.315621 0.0073,0.524346 -0.02317,0.02018 -0.06058,-0.03221 -0.08854,-0.03963 -0.154234,-0.09334 -0.25636,-0.08779 -0.413407,-0.17644 0.01652,0.206734 -0.009,0.310745 0.0064,0.517603 -0.01509,0.02021 -0.04142,-0.0146 -0.05965,-0.01879 -0.165112,-0.09481 -0.275192,-0.09543 -0.440121,-0.190551 0.01837,0.209558 -0.0927,0.29601 -0.127496,0.503617 -0.02538,0.01415 -0.04656,-0.04081 -0.06928,-0.05412 -0.127158,-0.131212 -0.231466,-0.158945 -0.359107,-0.285191 -0.03955,0.200878 -0.08578,0.293102 -0.129486,0.493049 -0.0093,0.03053 -0.037,-0.0022 -0.04625,-0.01424 -0.134757,-0.138401 -0.264657,-0.281642 -0.403859,-0.415623 -0.03931,0.203807 -0.0647,0.41142 -0.109333,0.61437 -0.02371,0.0078 -0.03724,-0.03257 -0.05628,-0.04241 -0.153874,-0.157899 -0.270018,-0.09588 -0.422485,-0.255159 0.0053,-0.0299 0.0645,-0.02308 0.08938,-0.03897 0.07732,-0.02441 0.15774,-0.04798 0.235414,-0.06617 0.239878,-0.08226 0.485302,-0.148096 0.727479,-0.223446 0.968642,-0.290788 1.792195,-0.902926 2.509035,-1.616307 l 0.0056,-0.0018 z"/>
      <path style="fill:#ffffff;fill-opacity:1;stroke:#ffffff;stroke-width:0.0064413;stroke-linecap:round;stroke-linejoin:round;stroke-dasharray:none;stroke-opacity:1" d="m 91.241108,33.176871 c -0.02615,0.03787 0.103559,-0.08938 0.08461,-0.04663 -0.06007,0.176522 -0.125373,0.35177 -0.176328,0.531125 0.01375,0.02061 0.04702,-0.01027 0.06723,-0.0099 0.178755,-0.05641 0.356068,-0.118724 0.536388,-0.169138 -0.0629,0.198157 -0.139638,0.484889 -0.151832,0.692591 0.01805,0.01572 0.04065,-0.01907 0.05954,-0.02286 0.162486,-0.09483 0.27637,-0.100425 0.436772,-0.189139 -0.01542,0.208872 0.01213,0.315621 -0.0073,0.524346 0.02317,0.02018 0.06058,-0.03221 0.08854,-0.03963 0.154234,-0.09334 0.25636,-0.08779 0.413407,-0.17644 -0.01652,0.206734 0.009,0.310745 -0.0064,0.517603 0.01509,0.02021 0.04142,-0.0146 0.05965,-0.01879 0.165112,-0.09481 0.275192,-0.09543 0.440121,-0.190551 -0.01837,0.209558 0.0927,0.29601 0.127496,0.503617 0.02538,0.01415 0.04656,-0.04081 0.06928,-0.05412 0.127158,-0.131212 0.231466,-0.158945 0.359107,-0.285191 0.03955,0.200878 0.08578,0.293102 0.129486,0.493049 0.0093,0.03053 0.037,-0.0022 0.04625,-0.01424 0.134757,-0.138401 0.264657,-0.281642 0.403859,-0.415623 0.03931,0.203807 0.0647,0.41142 0.109333,0.61437 0.02371,0.0078 0.03724,-0.03257 0.05628,-0.04241 0.153874,-0.157899 0.270018,-0.09588 0.422485,-0.255159 -0.0053,-0.0299 -0.0645,-0.02308 -0.08938,-0.03897 -0.07732,-0.02441 -0.15774,-0.04798 -0.235414,-0.06617 -0.239878,-0.08226 -0.485302,-0.148096 -0.727479,-0.223446 -0.968642,-0.290788 -1.792195,-0.902926 -2.509035,-1.616307 l -0.0056,-0.0018 z"/>
      <path style="fill:none;fill-rule:evenodd;stroke:#000000;stroke-width:0.291041px;stroke-linecap:butt;stroke-linejoin:miter;stroke-opacity:1" d="M 91.031247,32.87302 92.979444,34.452243 95,35 96.972768,34.496663 98.968747,32.87302"/>
      <g transform="matrix(0.83726612,0.30473995,-0.30473995,0.83726612,4.6722086,-94.982857)">
        <path d="m 141.6289,98.049468 -0.49976,-0.502327 c -0.67061,-0.286579 -1.34123,-0.274634 -2.01184,0" style="fill:none;stroke:#000000;stroke-width:0.502327px;stroke-linecap:butt;stroke-linejoin:miter;stroke-opacity:1"/>
        <path d="m 141.04679,97.567348 c 0.0707,0.11478 0.26352,0.331815 0.26352,0.476539 0,0.416108 -0.48935,0.671626 -0.90549,0.671626 -0.41616,0 -0.99905,-0.372448 -0.99905,-0.788556 0,-0.148647 0.28865,-0.252223 0.36292,-0.368951 0.14405,-0.175476 0.47549,-0.232273 1.2781,0.0093 z" style="fill:#ffffff;stroke:#000000;stroke-width:0.251163;stroke-miterlimit:4;stroke-dashoffset:0;stroke-opacity:1"/>
        <circle r="0.2511633" cy="98.002426" cx="140.37302" style="fill:#000000;fill-opacity:1;fill-rule:nonzero;stroke:#000000;stroke-width:0.251163;stroke-miterlimit:4;stroke-dasharray:none;stroke-dashoffset:0;stroke-opacity:1"/>
      </g>
      <g transform="matrix(0.80752023,-0.37655287,0.37655287,0.80752023,-57.217641,5.6603153)">
        <path d="m 144.66971,98.049468 0.55646,-0.502327 c 0.75341,-0.305064 1.38854,-0.255274 1.95518,0" style="fill:none;stroke:#000000;stroke-width:0.502327px;stroke-linecap:butt;stroke-linejoin:miter;stroke-opacity:1"/>
        <g transform="translate(0.52916667)">
          <path d="m 146.07007,97.567292 c 0.0707,0.114779 0.48568,0.249964 0.48568,0.394687 0,0.416137 -0.71152,0.753477 -1.12768,0.753477 -0.41614,0 -0.94057,-0.278875 -0.94057,-0.695012 0,-0.148646 0.23009,-0.345739 0.30447,-0.462494 0.4594,-0.205422 0.90585,-0.329946 1.2781,0.0093 z" style="fill:#ffffff;stroke:#000000;stroke-width:0.251163;stroke-miterlimit:4;stroke-dashoffset:0;stroke-opacity:1"/>
          <circle r="0.2511633" cy="98.002426" cx="145.41222" style="fill:#000000;fill-opacity:1;fill-rule:nonzero;stroke:#000000;stroke-width:0.251163;stroke-miterlimit:4;stroke-dasharray:none;stroke-dashoffset:0;stroke-opacity:1"/>
        </g>
      </g>
    </g></g></g></svg>