<svg xmlns="http://www.w3.org/2000/svg" xmlns:xlink="http://www.w3.org/1999/xlink" width="64" height="64" viewBox="0 0 64 64"><defs id="defs355716">
    <rect x="172" y="97" width="745" height="239" id="rect276290"/>
    <color-profile name="Agfa-:-Swop-Standard" xmlns:xlink="http://www.w3.org/1999/xlink" xlink:href="file:///C:/WINDOWS/system32/spool/drivers/color/RSWOP.icm" id="color-profile294613"/>
    <linearGradient xmlns:inkscape="http://www.inkscape.org/namespaces/inkscape" inkscape:collect="always" id="linearGradient140439">
      <stop style="stop-color:#a4a870;stop-opacity:1;" offset="0" id="stop140435"/>
      <stop style="stop-color:#a4a870;stop-opacity:0;" offset="1" id="stop140437"/>
    </linearGradient>
    <linearGradient xmlns:inkscape="http://www.inkscape.org/namespaces/inkscape" inkscape:collect="always" id="linearGradient140390">
      <stop style="stop-color:#359676;stop-opacity:1;" offset="0" id="stop140386"/>
      <stop style="stop-color:#4a6a5e;stop-opacity:0;" offset="1" id="stop140388"/>
    </linearGradient>
    <linearGradient xmlns:inkscape="http://www.inkscape.org/namespaces/inkscape" inkscape:collect="always" id="linearGradient139515">
      <stop style="stop-color:#dbd764;stop-opacity:1;" offset="0" id="stop139511"/>
      <stop style="stop-color:#dbd764;stop-opacity:0;" offset="0.56578946" id="stop139513"/>
    </linearGradient>
    <linearGradient xmlns:inkscape="http://www.inkscape.org/namespaces/inkscape" inkscape:collect="always" id="linearGradient139325">
      <stop style="stop-color:#161c16;stop-opacity:1;" offset="0" id="stop139321"/>
      <stop style="stop-color:#6e836c;stop-opacity:0;" offset="1" id="stop139323"/>
    </linearGradient>
    <linearGradient xmlns:inkscape="http://www.inkscape.org/namespaces/inkscape" inkscape:collect="always" id="linearGradient387614">
      <stop style="stop-color:#a4a870;stop-opacity:1;" offset="0" id="stop387610"/>
      <stop style="stop-color:#a4a870;stop-opacity:0;" offset="1" id="stop387612"/>
    </linearGradient>
    <linearGradient xmlns:inkscape="http://www.inkscape.org/namespaces/inkscape" inkscape:collect="always" id="linearGradient387421">
      <stop style="stop-color:#344533;stop-opacity:1;" offset="0" id="stop387417"/>
      <stop style="stop-color:#1d251d;stop-opacity:0;" offset="1" id="stop387419"/>
    </linearGradient>
    <linearGradient xmlns:inkscape="http://www.inkscape.org/namespaces/inkscape" inkscape:collect="always" xmlns:xlink="http://www.w3.org/1999/xlink" xlink:href="#linearGradient206680" id="linearGradient206682" x1="168.01042" y1="262.08701" x2="168.01042" y2="247.38542" gradientUnits="userSpaceOnUse"/>
    <linearGradient xmlns:inkscape="http://www.inkscape.org/namespaces/inkscape" inkscape:collect="always" id="linearGradient206680">
      <stop style="stop-color:#dbd764;stop-opacity:0;" offset="0.38377193" id="stop206678"/>
      <stop style="stop-color:#dbd764;stop-opacity:1;" offset="1" id="stop206676"/>
    </linearGradient>
    <linearGradient xmlns:inkscape="http://www.inkscape.org/namespaces/inkscape" inkscape:collect="always" xmlns:xlink="http://www.w3.org/1999/xlink" xlink:href="#linearGradient216292" id="linearGradient216294" x1="168.01042" y1="236.00833" x2="168.01042" y2="248.97292" gradientUnits="userSpaceOnUse" gradientTransform="translate(8.4073796,-0.78650088)"/>
    <linearGradient xmlns:inkscape="http://www.inkscape.org/namespaces/inkscape" inkscape:collect="always" id="linearGradient216292">
      <stop style="stop-color:#359676;stop-opacity:1;" offset="0" id="stop216288"/>
      <stop style="stop-color:#4a6a5f;stop-opacity:0;" offset="1" id="stop216290"/>
    </linearGradient>
    <linearGradient xmlns:inkscape="http://www.inkscape.org/namespaces/inkscape" inkscape:collect="always" xmlns:xlink="http://www.w3.org/1999/xlink" xlink:href="#linearGradient387421" id="linearGradient387423" x1="31.75" y1="155.31041" x2="31.921236" y2="171.18663" gradientUnits="userSpaceOnUse"/>
    <linearGradient xmlns:inkscape="http://www.inkscape.org/namespaces/inkscape" inkscape:collect="always" xmlns:xlink="http://www.w3.org/1999/xlink" xlink:href="#linearGradient387614" id="linearGradient387616" x1="45.011326" y1="158.73975" x2="51.59375" y2="162.71875" gradientUnits="userSpaceOnUse" gradientTransform="translate(2.9601329,-0.98671096)"/>
    <linearGradient xmlns:inkscape="http://www.inkscape.org/namespaces/inkscape" inkscape:collect="always" xmlns:xlink="http://www.w3.org/1999/xlink" xlink:href="#linearGradient387614" id="linearGradient387620" gradientUnits="userSpaceOnUse" x1="45.011326" y1="158.73975" x2="51.593746" y2="162.71875" gradientTransform="matrix(-1,0,0,1,108.79346,-0.98671096)"/>
    <linearGradient xmlns:inkscape="http://www.inkscape.org/namespaces/inkscape" inkscape:collect="always" xmlns:xlink="http://www.w3.org/1999/xlink" xlink:href="#linearGradient139325" id="linearGradient139327" x1="70" y1="21" x2="70" y2="37" gradientUnits="userSpaceOnUse"/>
    <linearGradient xmlns:inkscape="http://www.inkscape.org/namespaces/inkscape" inkscape:collect="always" xmlns:xlink="http://www.w3.org/1999/xlink" xlink:href="#linearGradient139515" id="linearGradient139517" x1="70.426315" y1="1.5429174" x2="70.46106" y2="18.249472" gradientUnits="userSpaceOnUse"/>
    <linearGradient xmlns:inkscape="http://www.inkscape.org/namespaces/inkscape" inkscape:collect="always" xmlns:xlink="http://www.w3.org/1999/xlink" xlink:href="#linearGradient140390" id="linearGradient140392" x1="90.084175" y1="1.3586814" x2="90" y2="16" gradientUnits="userSpaceOnUse"/>
    <linearGradient xmlns:inkscape="http://www.inkscape.org/namespaces/inkscape" inkscape:collect="always" xmlns:xlink="http://www.w3.org/1999/xlink" xlink:href="#linearGradient140439" id="linearGradient140441" x1="90.01368" y1="24.010059" x2="94.88681" y2="28.136377" gradientUnits="userSpaceOnUse"/>
    <linearGradient xmlns:inkscape="http://www.inkscape.org/namespaces/inkscape" inkscape:collect="always" xmlns:xlink="http://www.w3.org/1999/xlink" xlink:href="#linearGradient140439" id="linearGradient140449" gradientUnits="userSpaceOnUse" x1="90.01368" y1="24.010059" x2="94.88681" y2="28.136377" gradientTransform="matrix(-1,0,0,1,190,0)"/>
    <radialGradient xmlns:inkscape="http://www.inkscape.org/namespaces/inkscape" inkscape:collect="always" xmlns:xlink="http://www.w3.org/1999/xlink" xlink:href="#linearGradient177339" id="radialGradient177341-3-0" cx="44.135807" cy="121.46028" fx="44.135807" fy="121.46028" r="1.1079427" gradientTransform="matrix(1.5015971,0,0,0.99367432,-157.6034,-4.3351259)" gradientUnits="userSpaceOnUse"/>
    <linearGradient xmlns:inkscape="http://www.inkscape.org/namespaces/inkscape" inkscape:collect="always" id="linearGradient177339">
      <stop style="stop-color:#b98d3e;stop-opacity:1;" offset="0" id="stop177335"/>
      <stop style="stop-color:#c9c943;stop-opacity:0;" offset="1" id="stop177337"/>
    </linearGradient>
    <radialGradient xmlns:inkscape="http://www.inkscape.org/namespaces/inkscape" inkscape:collect="always" xmlns:xlink="http://www.w3.org/1999/xlink" xlink:href="#linearGradient177339" id="radialGradient177345-7-9" gradientUnits="userSpaceOnUse" gradientTransform="matrix(1.5015971,0,0,0.99367432,-195.50719,-68.761115)" cx="44.135807" cy="121.46028" fx="44.135807" fy="121.46028" r="1.1079427"/>
    <rect x="172" y="97" width="745" height="239" id="rect276290-2"/>
    <rect x="172" y="97" width="745" height="239" id="rect276290-2-5"/>
    <rect x="172" y="97" width="745" height="239" id="rect276290-2-5-7"/>
  </defs><g transform="translate(336.77377398201196 -517.1956062573911) scale(2.29271251696881)"><g><g transform="translate(-281.01631,-45.950257)">
      <path style="fill:#519448;fill-opacity:1;fill-rule:evenodd;stroke:none;stroke-width:0.214312px;stroke-linecap:butt;stroke-linejoin:miter;stroke-opacity:1" d="m 150.56729,275.22089 c 1.50523,-0.20982 1.05156,1.96786 2.51817,1.55377 0.553,-0.12021 1.11814,-0.12013 1.68678,-0.10716 0.45562,6.2e-4 0.91236,-8.1e-4 1.36717,0 0.46331,0.22738 -0.54619,0.53723 -0.59737,0.87357 0.62393,0.37522 1.48199,0.20542 2.17952,0.46213 0.35191,0.24566 1.11595,0.53503 1.31103,0.64631 -0.75219,0.13906 -1.53225,0.2867 -2.27672,0.45663 -0.31096,0.093 -1.78548,0.26365 -0.83081,0.50763 0.55993,0.2153 1.21934,0.27917 1.66092,0.37501 0.6927,0.11278 1.13637,0.41876 1.57535,0.65391 0.50957,0.0565 0.30574,0.25678 -0.11015,0.2484 0.31343,-0.2033 -0.8054,0.28421 -1.09014,0.32979 -0.27249,0.10296 -1.03502,0.47504 -0.99055,0.38585 0.3701,-0.11877 -0.80761,0.25946 -0.134,0.30904 0.61317,0.27985 1.38564,0.0378 1.92823,0.43017 0.37526,0.16754 1.29633,0.5527 0.34335,0.42233 -0.5343,0.0275 -1.05729,0.35987 -1.50581,0.43473 -1.07844,0.0498 0.36327,0.50498 0.74807,0.42065 0.59184,0.099 1.36347,0.31243 1.56777,0.56842 0.50932,0.27147 0.52846,0.51153 -0.0818,0.56448 -0.70329,0.0874 -1.24462,0.33518 -1.87525,0.5891 -0.14858,0.4866 1.06267,0.72238 1.23229,1.28588 0.30365,0.40117 0.62033,0.63808 -0.0535,0.53578 -0.48101,-0.0243 -1.94707,0.0237 -1.07156,0.69641 0.53469,0.52412 0.97676,1.10921 1.23231,1.82165 0.18046,0.27384 0.47733,1.00163 -0.24152,0.59044 -0.54384,-0.24063 -1.12849,-0.35346 -1.72942,-0.32248 -0.41473,0.0215 -0.86817,-0.0467 -1.25448,0.0251 0.22314,0.34854 1.05888,1.15105 1.02681,1.1775 0.60401,0.63257 0.76015,1.35695 0.96633,2.06563 0.16743,0.69007 -0.60884,-0.19994 -0.93762,-0.16073 -0.60558,-0.34194 -1.23367,-0.37281 -1.89561,-0.42118 -0.47443,0.11499 0.43671,0.87912 0.47627,1.22424 0.29116,0.60181 0.52113,1.22859 0.43483,1.9093 -0.30373,-0.50166 -1.02583,-0.73954 -1.56036,-0.99791 -0.60448,-0.1519 -1.21973,-0.37537 -1.85968,-0.4354 -0.2622,0.0654 -0.33527,-0.10297 -0.60488,-0.0466"/>
      <path style="fill:#519448;fill-opacity:1;fill-rule:evenodd;stroke:none;stroke-width:0.214312px;stroke-linecap:butt;stroke-linejoin:miter;stroke-opacity:1" d="m 145.54867,275.38163 c -1.50522,-0.20983 -0.99798,1.80712 -2.46459,1.39303 -0.55301,-0.12021 -1.11814,-0.12013 -1.68678,-0.10716 -0.45563,6.2e-4 -0.91236,-8.1e-4 -1.36718,0 -0.46331,0.22738 0.5462,0.53723 0.59738,0.87357 -0.62394,0.37522 -1.482,0.20542 -2.17953,0.46213 -0.35191,0.24566 -1.11596,0.53503 -1.31103,0.64631 0.75218,0.13906 1.53225,0.2867 2.27673,0.45663 0.31095,0.093 1.78548,0.26365 0.8308,0.50763 -0.55993,0.2153 -1.21934,0.27917 -1.66092,0.37501 -0.6927,0.11278 -1.13636,0.41876 -1.57535,0.65391 -0.50957,0.0565 -0.30574,0.25678 0.11014,0.2484 -0.31343,-0.2033 0.80541,0.28421 1.09016,0.32979 0.27247,0.10296 1.03501,0.47504 0.99054,0.38585 -0.3701,-0.11877 0.80762,0.25946 0.134,0.30904 -0.61317,0.27985 -1.38564,0.0378 -1.92823,0.43017 -0.37526,0.16754 -1.29633,0.5527 -0.34335,0.42233 0.5343,0.0275 1.05729,0.35987 1.50581,0.43473 1.07844,0.0498 -0.36327,0.50498 -0.74807,0.42065 -0.59184,0.099 -1.36346,0.31243 -1.56777,0.56842 -0.50932,0.27147 -0.52845,0.51153 0.0818,0.56448 0.7033,0.0874 1.24463,0.33518 1.87526,0.5891 0.14858,0.4866 -1.06267,0.72238 -1.23229,1.28588 -0.30364,0.40117 -0.62032,0.63808 0.0536,0.53578 0.48101,-0.0243 1.94707,0.0237 1.07155,0.69641 -0.53468,0.52412 -0.97674,1.10921 -1.23229,1.82165 -0.18047,0.27384 -0.47734,1.00163 0.24151,0.59044 0.54383,-0.24063 1.12849,-0.35346 1.72942,-0.32248 0.41473,0.0215 0.86817,-0.0467 1.25448,0.0251 -0.22314,0.34854 -1.05887,1.15105 -1.02681,1.1775 -0.60401,0.63257 -0.76014,1.35695 -0.96633,2.06563 -0.16743,0.69007 0.60884,-0.19994 0.93762,-0.16073 0.60558,-0.34194 1.23367,-0.37281 1.89561,-0.42118 0.47443,0.11499 -0.43671,0.87912 -0.47627,1.22424 -0.29115,0.60181 -0.52113,1.22859 -0.43482,1.9093 0.30372,-0.50166 1.02582,-0.73954 1.56036,-0.99791 0.60448,-0.1519 1.21973,-0.37537 1.85968,-0.4354 0.26221,0.0654 0.33528,-0.10297 0.60489,-0.0466"/>
      <g transform="matrix(-0.81,0,0,0.81,236.2562,112.59197)">
        <path style="fill:none;stroke:#000000;stroke-width:0.502327px;stroke-linecap:butt;stroke-linejoin:miter;stroke-opacity:1" d="m 107.29049,214.3125 -0.49976,-0.50233 h -1.49055 -0.5213"/>
        <path style="fill:#ffffff;stroke:#000000;stroke-width:0.251163;stroke-miterlimit:4;stroke-dashoffset:0;stroke-opacity:1" d="m 106.70838,213.83037 c 0.0707,0.11478 0.11151,0.24996 0.11151,0.39468 0,0.41612 -0.33734,0.75349 -0.75348,0.75349 -0.41617,0 -0.75351,-0.33737 -0.75351,-0.75349 0,-0.14864 0.0431,-0.28728 0.11738,-0.40402 z"/>
        <circle style="fill:#000000;fill-opacity:1;fill-rule:nonzero;stroke:#000000;stroke-width:0.251163;stroke-miterlimit:4;stroke-dasharray:none;stroke-dashoffset:0;stroke-opacity:1" cx="106.03442" cy="214.31506" r="0.2511633"/>
      </g>
      <g style="fill:#c99b75;fill-opacity:1" transform="translate(-0.39003234,-13.362917)">
        <path style="fill:#c99b75;fill-opacity:1;fill-rule:evenodd;stroke:#000000;stroke-width:0.214312px;stroke-linecap:butt;stroke-linejoin:miter;stroke-opacity:1" d="m 141.16843,299.54802 -2.14313,-2.35744 c 0,0 -0.27912,0.49005 1.07157,3.429 0.61209,1.33186 2.14313,2.14313 2.14313,2.14313"/>
        <path style="fill:#c99b75;fill-opacity:1;fill-rule:evenodd;stroke:#000000;stroke-width:0.214312px;stroke-linecap:butt;stroke-linejoin:miter;stroke-opacity:1" d="m 156.04235,299.54802 2.14313,-2.35744 c 0,0 0.27913,0.49005 -1.07157,3.429 -0.61209,1.33186 -2.14313,2.14313 -2.14313,2.14313"/>
        <path style="fill:#c99b75;fill-opacity:1;fill-rule:evenodd;stroke:#000000;stroke-width:0.214312px;stroke-linecap:butt;stroke-linejoin:miter;stroke-opacity:1" d="m 146.52624,308.54914 c -1.28748,0.0309 -2.45538,-1.10291 -3.21469,-2.14312 -0.47104,-0.64532 -0.3415,-1.82035 -0.64293,-2.57175 -0.67965,-1.6942 -1.47018,-3.55665 -1.50019,-5.35782 -0.0245,-1.47251 -0.0105,-3.28726 1.07157,-4.28625 1.5964,-1.47379 4.25669,-2.14312 6.42937,-2.14312 2.17269,0 4.83297,0.66933 6.42938,2.14313 1.08209,0.99899 1.0961,2.81373 1.07155,4.28624 -0.03,1.79938 -1.03631,3.6649 -1.71449,5.35782 -0.30176,0.75326 0.0435,1.92499 -0.42863,2.57175 -0.7593,1.04021 -1.92756,2.09968 -3.21469,2.14312 -3.1164,0.10518 -0.8965,-0.0815 -4.28625,0 z"/>
      </g>
      <g transform="matrix(0.81,0,0,0.81,60.302476,112.59198)">
        <path style="fill:none;stroke:#000000;stroke-width:0.502327px;stroke-linecap:butt;stroke-linejoin:miter;stroke-opacity:1" d="m 107.29049,214.3125 -0.49976,-0.50233 h -1.49055 -0.5213"/>
        <path style="fill:#ffffff;stroke:#000000;stroke-width:0.251163;stroke-miterlimit:4;stroke-dashoffset:0;stroke-opacity:1" d="m 106.70838,213.83037 c 0.0707,0.11478 0.11151,0.24996 0.11151,0.39468 0,0.41612 -0.33734,0.75349 -0.75348,0.75349 -0.41617,0 -0.75351,-0.33737 -0.75351,-0.75349 0,-0.14864 0.0431,-0.28728 0.11738,-0.40402 z"/>
        <circle style="fill:#000000;fill-opacity:1;fill-rule:nonzero;stroke:#000000;stroke-width:0.251163;stroke-miterlimit:4;stroke-dasharray:none;stroke-dashoffset:0;stroke-opacity:1" cx="106.03442" cy="214.31506" r="0.2511633"/>
      </g>
      <g transform="matrix(0.81,0,0,0.81,60.41121,112.59198)">
        <path style="fill:none;stroke:#000000;stroke-width:0.502327px;stroke-linecap:butt;stroke-linejoin:miter;stroke-opacity:1" d="m 109.80213,214.3125 0.55646,-0.50233 h 1.95518"/>
        <path style="fill:#ffffff;stroke:#000000;stroke-width:0.251163;stroke-miterlimit:4;stroke-dashoffset:0;stroke-opacity:1" d="m 111.73165,213.83032 c 0.0707,0.11478 0.11151,0.24995 0.11151,0.39468 0,0.41612 -0.33734,0.75349 -0.75351,0.75349 -0.41613,0 -0.75347,-0.33737 -0.75347,-0.75349 0,-0.14864 0.043,-0.28728 0.11737,-0.40403 z"/>
        <circle style="fill:#000000;fill-opacity:1;fill-rule:nonzero;stroke:#000000;stroke-width:0.251163;stroke-miterlimit:4;stroke-dasharray:none;stroke-dashoffset:0;stroke-opacity:1" cx="111.07362" cy="214.31506" r="0.2511633"/>
      </g>
      <g transform="matrix(0.81,0,0,0.81,60.41121,112.59198)" style="stroke:#996c40;stroke-opacity:1">
        <path style="fill:none;fill-rule:evenodd;stroke:#996c40;stroke-width:0.529167;stroke-linecap:butt;stroke-linejoin:miter;stroke-dasharray:none;stroke-opacity:1" d="m 111.12501,210.34375 v 2.64583 l 2.11666,0.52917 1.05834,1.5875 -1.32292,2.38125 -2.64583,0.26458 0.26458,1.85208 0.79375,1.5875 0.79375,1.5875 1.05833,0.52917 -0.26458,0.79375 0.26458,0.52917"/>
        <path style="fill:none;fill-rule:evenodd;stroke:#996c40;stroke-width:0.529167;stroke-linecap:butt;stroke-linejoin:miter;stroke-dasharray:none;stroke-opacity:1" d="m 112.44792,210.34375 1.05834,0.79375 h 1.5875 l 1.05833,1.05833 -1.05833,1.05833 0.52916,1.05834 v 1.85208 l -1.05833,0.79375 0.26458,0.79375 -1.05833,1.5875 0.52917,0.26458 0.79375,0.26459 0.47956,-0.14883"/>
        <path style="fill:none;fill-rule:evenodd;stroke:#996c40;stroke-width:0.529167;stroke-linecap:butt;stroke-linejoin:miter;stroke-dasharray:none;stroke-opacity:1" d="m 105.83333,210.34375 v 2.64583 l -2.11666,0.52917 -1.05834,1.5875 1.32292,2.38125 2.64583,0.26458 -0.26458,1.85208 -0.79375,1.5875 -0.79375,1.5875 -1.05833,0.52917 0.26458,0.79375 -0.26458,0.52917"/>
        <path style="fill:none;fill-rule:evenodd;stroke:#996c40;stroke-width:0.529167;stroke-linecap:butt;stroke-linejoin:miter;stroke-dasharray:none;stroke-opacity:1" d="M 108.47917,210.07916 V 219.075"/>
        <path style="fill:none;fill-rule:evenodd;stroke:#996c40;stroke-width:0.529167;stroke-linecap:butt;stroke-linejoin:miter;stroke-dasharray:none;stroke-opacity:1" d="m 108.47917,216.69375 2.38125,-1.05834 1.5875,0.52917 0.79375,0.79375 1.32292,0.52917 1.5875,0.26458"/>
        <path style="fill:none;fill-rule:evenodd;stroke:#996c40;stroke-width:0.529167;stroke-linecap:butt;stroke-linejoin:miter;stroke-dasharray:none;stroke-opacity:1" d="m 104.51042,210.34375 -1.05834,0.79375 h -1.5875 l -1.05833,1.05833 1.05833,1.05833 -0.52916,1.05834 v 1.85208 l 1.05833,0.79375 -0.26458,0.79375 1.05833,1.5875 -0.52917,0.26458 -0.79375,0.26459 -0.79375,-0.26459"/>
        <path style="fill:none;fill-rule:evenodd;stroke:#996c40;stroke-width:0.529167;stroke-linecap:butt;stroke-linejoin:miter;stroke-dasharray:none;stroke-opacity:1" d="m 108.47917,216.69375 -2.38125,-1.05834 -1.5875,0.52917 -1.05833,0.52917 -1.32292,0.52917 -1.5875,0.26458"/>
        <path style="fill:none;fill-rule:evenodd;stroke:#996c40;stroke-width:0.529167;stroke-linecap:butt;stroke-linejoin:miter;stroke-dasharray:none;stroke-opacity:1" d="m 108.47917,218.81042 2.64584,-1e-5 0.79375,0.52917 1.32291,0.26458 v 1.05834 l 1.05834,0.79375 0.52916,0.79375 0.52917,0.26458"/>
        <path style="fill:none;fill-rule:evenodd;stroke:#996c40;stroke-width:0.529167;stroke-linecap:butt;stroke-linejoin:miter;stroke-dasharray:none;stroke-opacity:1" d="m 108.47917,218.81042 -2.64584,-1e-5 -0.79375,0.52917 -1.32291,0.26458 v 1.05834 l -1.05834,0.79375 -0.52916,0.79375 -0.52917,0.26458"/>
        <path style="fill:none;fill-rule:evenodd;stroke:#996c40;stroke-width:0.529167;stroke-linecap:butt;stroke-linejoin:miter;stroke-dasharray:none;stroke-opacity:1" d="m 112.18334,213.78333 2.11667,-0.79375 1.5875,0.79375 0.79375,-0.26458 0.79375,0.79375"/>
        <path style="fill:none;fill-rule:evenodd;stroke:#996c40;stroke-width:0.529167;stroke-linecap:butt;stroke-linejoin:miter;stroke-dasharray:none;stroke-opacity:1" d="m 104.775,213.78333 -2.11667,-0.79375 -1.5875,0.79375 -0.79375,-0.26458 -0.793748,0.79375"/>
        <path style="fill:none;fill-rule:evenodd;stroke:#996c40;stroke-width:0.529167;stroke-linecap:butt;stroke-linejoin:miter;stroke-dasharray:none;stroke-opacity:1" d="m 108.13628,219.5819 -0.71545,1.60976 -0.26458,2.11667 -0.79375,1.05833 -1.05833,1.05834"/>
        <path style="fill:none;fill-rule:evenodd;stroke:#996c40;stroke-width:0.529167;stroke-linecap:butt;stroke-linejoin:miter;stroke-dasharray:none;stroke-opacity:1" d="m 108.83559,219.61236 0.70192,1.5793 0.26458,2.11667 0.79375,1.05833 1.05833,1.05834"/>
        <path style="fill:none;fill-rule:evenodd;stroke:#996c40;stroke-width:0.529167;stroke-linecap:butt;stroke-linejoin:miter;stroke-dasharray:none;stroke-opacity:1" d="M 108.47917,223.57291 V 225.425"/>
        <path style="fill:none;fill-rule:evenodd;stroke:#996c40;stroke-width:0.529167;stroke-linecap:butt;stroke-linejoin:miter;stroke-dasharray:none;stroke-opacity:1" d="m 115.09376,211.1375 1.05833,-1.5875 1.05834,-0.26459"/>
        <path style="fill:none;fill-rule:evenodd;stroke:#996c40;stroke-width:0.529167;stroke-linecap:butt;stroke-linejoin:miter;stroke-dasharray:none;stroke-opacity:1" d="m 101.86458,211.1375 -1.05833,-1.5875 -1.058335,-0.26459"/>
        <path style="fill:none;fill-rule:evenodd;stroke:#996c40;stroke-width:0.529167;stroke-linecap:butt;stroke-linejoin:miter;stroke-dasharray:none;stroke-opacity:1" d="m 105.83333,211.66666 2.64584,0.26459 2.64583,-0.26459"/>
      </g>
      <path style="fill:none;fill-rule:evenodd;stroke:#000000;stroke-width:0.214312px;stroke-linecap:butt;stroke-linejoin:miter;stroke-opacity:1" d="m 147.20778,287.25666 v 3.21469 h 1.07156 1.07157 v -3.21469"/>
      <path style="fill:none;fill-opacity:1;fill-rule:evenodd;stroke:#000000;stroke-width:0.214312px;stroke-linecap:butt;stroke-linejoin:miter;stroke-opacity:1" d="m 146.13621,295.18622 c -1.28748,0.0309 -2.45538,-1.10291 -3.21469,-2.14312 -0.47104,-0.64532 -0.3415,-1.82035 -0.64293,-2.57175 -0.67965,-1.6942 -1.47018,-3.55665 -1.50019,-5.35782 -0.0245,-1.47251 -0.0105,-3.28726 1.07157,-4.28625 1.5964,-1.47379 4.25669,-2.14312 6.42937,-2.14312 2.17269,0 4.83297,0.66933 6.42938,2.14313 1.08209,0.99899 1.0961,2.81373 1.07155,4.28624 -0.03,1.79938 -1.03631,3.6649 -1.71449,5.35782 -0.30176,0.75326 0.0435,1.92499 -0.42863,2.57175 -0.7593,1.04021 -1.92756,2.09968 -3.21469,2.14312 -3.1164,0.10518 -0.8965,-0.0815 -4.28625,0 z"/>
      <path style="fill:#ffffc8;fill-opacity:1;fill-rule:evenodd;stroke:#000000;stroke-width:0.214312px;stroke-linecap:butt;stroke-linejoin:miter;stroke-opacity:1" d="m 146.07012,292.82255 -0.20838,1.10816 -0.43568,-0.22732 -0.23678,-0.48304 0.0379,-0.92345"/>
      <path style="fill:#ffffc8;fill-opacity:1;fill-rule:evenodd;stroke:#000000;stroke-width:0.214312px;stroke-linecap:butt;stroke-linejoin:miter;stroke-opacity:1" d="m 150.48857,292.82255 0.20837,1.10816 0.43568,-0.22732 0.23679,-0.48304 -0.0379,-0.88083"/>
      <path style="fill:none;fill-rule:evenodd;stroke:#000000;stroke-width:0.214312px;stroke-linecap:butt;stroke-linejoin:miter;stroke-opacity:1" d="m 145.06465,292.18584 0.85725,0.64294 h 4.71487 l 0.85726,-0.64294"/>
      <path style="fill:#519448;fill-opacity:1;fill-rule:evenodd;stroke:none;stroke-width:0.214312px;stroke-linecap:butt;stroke-linejoin:miter;stroke-opacity:1" d="m 155.13728,281.25588 -4.28625,1.7145 -5.11672,-0.0134 -4.31297,-1.70109 2.57175,-4.71488 c 0,0 2.14351,-1.11226 4.28625,-1.07156 2.11566,0.0402 4.28625,1.07156 4.28625,1.07156 z"/>
      <path style="opacity:1;fill:#946b48;fill-opacity:1;stroke:#000000;stroke-width:1;stroke-linecap:round;stroke-linejoin:round;stroke-dasharray:none;stroke-opacity:1" d="m 569.12183,1040.2166 c -0.0236,0.7638 0.24937,1.6197 0.0703,2.3476 -2.89517,-0.7768 -5.87435,-1.4056 -8.89136,-1.2738 -2.31115,-0.072 -4.63043,0.079 -6.86841,0.6945 -1.17839,0.2821 -2.36448,0.5533 -3.50146,0.9785 0.0233,-0.7008 0.12854,-1.4312 0.104,-2.1148 -1.23285,-0.1122 -2.6173,0.1092 -3.4104,1.1595 -1.1595,1.3494 -1.81102,3.2293 -3.42138,4.1362 -1.54063,0.46 -3.08838,-0.4092 -4.6543,-0.312 -3.07186,-0.041 -6.15256,-0.1895 -9.22119,-0.019 -0.38692,-0.059 -0.76375,0.3719 -0.36841,0.655 0.76296,0.9015 2.0281,1.3495 2.57495,2.4226 -1.28515,0.9946 -3.0519,0.9602 -4.59985,1.2075 -1.65974,0.1762 -3.40122,0.3438 -4.81424,1.3163 -1.12287,0.6173 -2.36273,1.0268 -3.45676,1.6845 1.25823,0.4434 2.69548,0.5635 4.02002,0.8714 2.69064,0.5749 5.41154,1.0541 8.05908,1.8041 0.33462,0.038 0.81957,0.4696 0.31348,0.6985 -2.97884,1.2445 -6.27313,1.3597 -9.3291,2.3415 -1.63693,0.6291 -3.13493,1.5869 -4.79004,2.1619 -0.40825,0.3243 0.3448,0.551 0.59155,0.5552 0.39763,0.1058 0.74806,-0.1392 1.13379,0.096 2.20954,0.7234 4.40528,1.4666 6.53315,2.4064 0.7683,0.3028 1.80417,0.4531 2.21978,1.2355 -0.33215,0.3555 -1.00811,0.2913 -1.4563,0.4853 -1.80964,0.5087 -3.76707,0.2771 -5.54565,0.8904 -1.30313,0.62 -2.69871,1.1731 -3.87622,1.9866 0.90304,0.301 1.97241,-0.028 2.89666,0.3271 1.78167,0.5194 3.492,1.301 5.34113,1.5721 0.26092,0 0.67023,0.3259 0.25903,0.4863 -2.05297,1.22 -4.58627,0.7885 -6.79028,1.5879 -1.75515,0.5142 -3.58237,1.3088 -4.70093,2.8115 0.0761,0.5745 0.91466,0.5591 1.34082,0.7192 2.62126,0.3463 5.09091,1.3101 7.52783,2.2923 0.20724,1.196 -1.10877,1.7834 -1.89874,2.3726 -1.05358,0.7139 -2.27876,1.3509 -2.83368,2.5649 -0.34973,0.6324 -1.04491,1.1342 -1.21899,1.833 1.43893,0.3104 2.97242,0.021 4.43432,0.2876 0.75059,0.1536 1.84236,0.2126 2.12085,1.0573 -0.0757,1.0676 -1.30277,1.4945 -1.85424,2.2962 -1.76911,1.9428 -3.12868,4.2166 -4.15406,6.6277 -0.23344,0.589 -0.67835,1.4124 -0.23291,1.9917 0.78415,0.091 1.52263,-0.4973 2.26782,-0.6968 1.83706,-0.7339 3.81763,-0.9402 5.78418,-0.8838 1.54403,0.019 3.16892,-0.099 4.66846,0.072 -1.0463,1.622 -2.56509,2.9011 -3.78361,4.3977 -2.09911,2.2564 -3.07106,5.274 -3.77108,8.209 -0.16833,0.3419 0.10519,0.7561 0.47803,0.5307 1.1582,-0.5279 2.17528,-1.3395 3.41651,-1.6811 2.1499,-1.02 4.58594,-1.2968 6.9353,-1.3496 0.67142,0.169 0.28839,1.0423 0.0483,1.4279 -0.96787,1.5021 -1.99391,2.9842 -2.58203,4.6902 -0.74607,1.732 -1.12785,3.692 -1.0691,5.5308 2.29186,-2.3682 5.52215,-3.5034 8.62991,-4.3574 1.77961,-0.5165 3.59902,-0.8517 5.44505,-0.9849 0.53233,-0.011 0.11616,-0.5031 -0.0937,-0.6587 -1.47985,-1.5941 -3.08357,-3.1906 -4.00492,-5.186 -1.15035,-3.1135 -0.83378,-6.5892 -2.25625,-9.6272 -0.41863,-0.9364 -0.67232,-2.01 -1.20505,-2.8545 -2.73695,-1.6685 -5.30286,-3.7746 -7.08118,-6.4685 -2.09365,-3.6884 -3.63328,-7.6904 -4.75723,-11.7749 -0.24105,-1.2206 -0.73349,-2.6517 0.0595,-3.78 2.62231,2.8595 5.19133,5.771 7.86645,8.5803 0.0872,-1.1466 -0.17455,-2.4148 -0.14046,-3.6076 -0.016,-4.7389 0.0324,-9.825 2.60251,-13.9856 0.27858,-0.4034 0.65788,-1.0145 0.96471,-1.2408 -0.16186,0.4368 -0.49212,0.8246 -0.63574,1.2468 5.35861,2.1182 10.71631,4.2402 16.0769,6.3526 6.46813,0.05 12.93665,0.1052 19.40454,0.1523 5.36097,-2.1761 10.78791,-4.2384 16.09644,-6.5147 0.004,-0.4593 -0.31416,-0.8591 -0.47803,-1.2705 2.45673,2.7857 3.18661,6.6141 3.42993,10.2124 0.22805,2.6755 0.0797,5.3598 0.008,8.0372 0.74799,-0.5946 1.40515,-1.4871 2.11135,-2.1944 1.75965,-1.9184 3.50738,-3.8477 5.26121,-5.7715 0.84635,1.3445 0.21515,2.9964 -0.0877,4.4079 -1.0383,3.5459 -2.44101,6.9966 -4.10124,10.2979 -1.8029,3.1472 -4.65039,5.6188 -7.78321,7.3821 -0.59485,0.501 -0.64731,1.4439 -1.03452,2.1008 -0.75799,1.6004 -1.26591,3.3229 -1.25283,5.1065 -0.18987,2.3198 0.13963,4.9844 -1.47266,6.8921 -1.10066,1.543 -2.54202,2.7997 -3.74975,4.2429 2.33267,0.2263 4.70128,0.8899 6.95849,1.6155 2.2917,0.7945 4.57763,1.8471 6.25928,3.6499 0.12319,-2.3061 -0.59763,-4.6618 -1.59604,-6.7638 -0.5612,-1.4847 -1.74657,-2.636 -2.33731,-4.0875 -0.21408,-0.4444 0.1553,-0.9548 0.65137,-0.8116 2.43586,0.1066 4.89286,0.477 7.10498,1.5455 1.17181,0.2764 2.03009,1.288 3.19263,1.5507 0.50622,-0.1612 0.0831,-0.8826 0.061,-1.225 -0.69416,-2.6556 -1.56607,-5.3802 -3.49143,-7.4226 -1.28355,-1.5389 -2.77718,-2.9112 -3.94995,-4.5338 2.46955,-0.219 4.96831,-0.098 7.43823,0.031 1.80149,0.1517 3.41787,1.0114 5.12427,1.5093 0.57469,-0.046 0.36532,-0.8647 0.27343,-1.2344 -0.77409,-2.007 -1.78097,-3.9491 -3.02221,-5.7107 -0.92697,-1.3629 -2.32052,-2.3378 -3.23462,-3.699 -0.27995,-0.795 0.78243,-1.1421 1.37182,-1.2536 1.67525,-0.4079 3.43649,-0.095 5.11329,-0.3911 -0.0883,-0.5958 -0.71327,-1.0641 -1.01587,-1.5862 -0.32976,-0.5369 -0.60332,-1.1188 -1.17017,-1.482 -1.142,-1.0612 -2.7489,-1.6175 -3.6521,-2.9199 -0.27251,-0.4245 -0.0207,-0.9302 0.48193,-0.9958 2.27754,-0.9939 4.65273,-1.7751 7.1189,-2.1285 0.39512,-0.1172 1.34872,-0.2315 1.10449,-0.8452 -0.79947,-0.9152 -1.89794,-1.5734 -2.98755,-2.0988 -1.86135,-0.7423 -3.84822,-1.1597 -5.84448,-1.2557 -0.92778,-0.2092 -2.01264,-0.3611 -2.69946,-1.0625 0.10986,-0.4746 0.8663,-0.3288 1.21667,-0.4922 2.27194,-0.3862 4.32631,-1.8004 6.69886,-1.583 0.12794,-0.044 0.78298,0.048 0.62744,-0.2014 -1.44409,-0.8132 -2.92962,-1.6093 -4.49414,-2.1574 -2.0981,-0.2967 -4.30956,-0.2784 -6.2854,-1.0777 -0.10361,-0.425 0.58562,-0.5828 0.84594,-0.8071 1.01287,-0.4011 2.07527,-0.7014 3.06182,-1.1922 1.64517,-0.6827 3.35672,-1.2131 5.04634,-1.7646 0.46708,-0.099 0.95723,0.076 1.427,-0.1499 0.44737,-0.022 0.25978,-0.4753 -0.0666,-0.5205 -2.18284,-0.6879 -4.06747,-2.1774 -6.36701,-2.5487 -2.58999,-0.567 -5.29157,-0.8651 -7.7348,-1.9325 -0.34457,-0.3523 0.36673,-0.6201 0.62525,-0.6929 3.90196,-1.0697 7.93709,-1.6354 11.86425,-2.5864 -0.78466,-0.5799 -1.84635,-0.8834 -2.72661,-1.3646 -1.22646,-0.6405 -2.44884,-1.3737 -3.87031,-1.4626 -2.04202,-0.3759 -4.29129,-0.1924 -6.1333,-1.2856 -0.38397,-0.2837 0.32582,-0.6313 0.4707,-0.8625 0.63952,-0.7095 1.6554,-1.1074 2.11524,-1.9561 -0.11688,-0.6054 -0.98966,-0.3705 -1.42088,-0.4501 -3.27284,0.031 -6.55971,-0.077 -9.82272,0.2052 -0.69081,0.065 -1.4128,0.3716 -2.07818,0.3594 -0.33014,-0.5629 -0.61727,-1.2216 -1.32861,-1.3904 -0.71687,-0.361 -1.66464,-0.5066 -1.97471,-1.3579 -0.81161,-1.3862 -1.72486,-3.1915 -3.55752,-3.2905 -0.41482,-0.025 -0.86378,-0.098 -1.25781,-0.057 z" transform="scale(0.26458333)"/>
    </g></g></g></svg>