<svg xmlns="http://www.w3.org/2000/svg" xmlns:xlink="http://www.w3.org/1999/xlink" width="64" height="64" viewBox="0 0 64 64"><defs id="defs355716">
    <rect x="172" y="97" width="745" height="239" id="rect276290"/>
    <color-profile name="Agfa-:-Swop-Standard" xmlns:xlink="http://www.w3.org/1999/xlink" xlink:href="file:///C:/WINDOWS/system32/spool/drivers/color/RSWOP.icm" id="color-profile294613"/>
    <linearGradient xmlns:inkscape="http://www.inkscape.org/namespaces/inkscape" inkscape:collect="always" id="linearGradient140439">
      <stop style="stop-color:#a4a870;stop-opacity:1;" offset="0" id="stop140435"/>
      <stop style="stop-color:#a4a870;stop-opacity:0;" offset="1" id="stop140437"/>
    </linearGradient>
    <linearGradient xmlns:inkscape="http://www.inkscape.org/namespaces/inkscape" inkscape:collect="always" id="linearGradient140390">
      <stop style="stop-color:#359676;stop-opacity:1;" offset="0" id="stop140386"/>
      <stop style="stop-color:#4a6a5e;stop-opacity:0;" offset="1" id="stop140388"/>
    </linearGradient>
    <linearGradient xmlns:inkscape="http://www.inkscape.org/namespaces/inkscape" inkscape:collect="always" id="linearGradient139515">
      <stop style="stop-color:#dbd764;stop-opacity:1;" offset="0" id="stop139511"/>
      <stop style="stop-color:#dbd764;stop-opacity:0;" offset="0.56578946" id="stop139513"/>
    </linearGradient>
    <linearGradient xmlns:inkscape="http://www.inkscape.org/namespaces/inkscape" inkscape:collect="always" id="linearGradient139325">
      <stop style="stop-color:#161c16;stop-opacity:1;" offset="0" id="stop139321"/>
      <stop style="stop-color:#6e836c;stop-opacity:0;" offset="1" id="stop139323"/>
    </linearGradient>
    <linearGradient xmlns:inkscape="http://www.inkscape.org/namespaces/inkscape" inkscape:collect="always" id="linearGradient387614">
      <stop style="stop-color:#a4a870;stop-opacity:1;" offset="0" id="stop387610"/>
      <stop style="stop-color:#a4a870;stop-opacity:0;" offset="1" id="stop387612"/>
    </linearGradient>
    <linearGradient xmlns:inkscape="http://www.inkscape.org/namespaces/inkscape" inkscape:collect="always" id="linearGradient387421">
      <stop style="stop-color:#344533;stop-opacity:1;" offset="0" id="stop387417"/>
      <stop style="stop-color:#1d251d;stop-opacity:0;" offset="1" id="stop387419"/>
    </linearGradient>
    <linearGradient xmlns:inkscape="http://www.inkscape.org/namespaces/inkscape" inkscape:collect="always" xmlns:xlink="http://www.w3.org/1999/xlink" xlink:href="#linearGradient206680" id="linearGradient206682" x1="168.01042" y1="262.08701" x2="168.01042" y2="247.38542" gradientUnits="userSpaceOnUse"/>
    <linearGradient xmlns:inkscape="http://www.inkscape.org/namespaces/inkscape" inkscape:collect="always" id="linearGradient206680">
      <stop style="stop-color:#dbd764;stop-opacity:0;" offset="0.38377193" id="stop206678"/>
      <stop style="stop-color:#dbd764;stop-opacity:1;" offset="1" id="stop206676"/>
    </linearGradient>
    <linearGradient xmlns:inkscape="http://www.inkscape.org/namespaces/inkscape" inkscape:collect="always" xmlns:xlink="http://www.w3.org/1999/xlink" xlink:href="#linearGradient216292" id="linearGradient216294" x1="168.01042" y1="236.00833" x2="168.01042" y2="248.97292" gradientUnits="userSpaceOnUse" gradientTransform="translate(8.4073796,-0.78650088)"/>
    <linearGradient xmlns:inkscape="http://www.inkscape.org/namespaces/inkscape" inkscape:collect="always" id="linearGradient216292">
      <stop style="stop-color:#359676;stop-opacity:1;" offset="0" id="stop216288"/>
      <stop style="stop-color:#4a6a5f;stop-opacity:0;" offset="1" id="stop216290"/>
    </linearGradient>
    <linearGradient xmlns:inkscape="http://www.inkscape.org/namespaces/inkscape" inkscape:collect="always" xmlns:xlink="http://www.w3.org/1999/xlink" xlink:href="#linearGradient387421" id="linearGradient387423" x1="31.75" y1="155.31041" x2="31.921236" y2="171.18663" gradientUnits="userSpaceOnUse"/>
    <linearGradient xmlns:inkscape="http://www.inkscape.org/namespaces/inkscape" inkscape:collect="always" xmlns:xlink="http://www.w3.org/1999/xlink" xlink:href="#linearGradient387614" id="linearGradient387616" x1="45.011326" y1="158.73975" x2="51.59375" y2="162.71875" gradientUnits="userSpaceOnUse" gradientTransform="translate(2.9601329,-0.98671096)"/>
    <linearGradient xmlns:inkscape="http://www.inkscape.org/namespaces/inkscape" inkscape:collect="always" xmlns:xlink="http://www.w3.org/1999/xlink" xlink:href="#linearGradient387614" id="linearGradient387620" gradientUnits="userSpaceOnUse" x1="45.011326" y1="158.73975" x2="51.593746" y2="162.71875" gradientTransform="matrix(-1,0,0,1,108.79346,-0.98671096)"/>
    <linearGradient xmlns:inkscape="http://www.inkscape.org/namespaces/inkscape" inkscape:collect="always" xmlns:xlink="http://www.w3.org/1999/xlink" xlink:href="#linearGradient139325" id="linearGradient139327" x1="70" y1="21" x2="70" y2="37" gradientUnits="userSpaceOnUse"/>
    <linearGradient xmlns:inkscape="http://www.inkscape.org/namespaces/inkscape" inkscape:collect="always" xmlns:xlink="http://www.w3.org/1999/xlink" xlink:href="#linearGradient139515" id="linearGradient139517" x1="70.426315" y1="1.5429174" x2="70.46106" y2="18.249472" gradientUnits="userSpaceOnUse"/>
    <linearGradient xmlns:inkscape="http://www.inkscape.org/namespaces/inkscape" inkscape:collect="always" xmlns:xlink="http://www.w3.org/1999/xlink" xlink:href="#linearGradient140390" id="linearGradient140392" x1="90.084175" y1="1.3586814" x2="90" y2="16" gradientUnits="userSpaceOnUse"/>
    <linearGradient xmlns:inkscape="http://www.inkscape.org/namespaces/inkscape" inkscape:collect="always" xmlns:xlink="http://www.w3.org/1999/xlink" xlink:href="#linearGradient140439" id="linearGradient140441" x1="90.01368" y1="24.010059" x2="94.88681" y2="28.136377" gradientUnits="userSpaceOnUse"/>
    <linearGradient xmlns:inkscape="http://www.inkscape.org/namespaces/inkscape" inkscape:collect="always" xmlns:xlink="http://www.w3.org/1999/xlink" xlink:href="#linearGradient140439" id="linearGradient140449" gradientUnits="userSpaceOnUse" x1="90.01368" y1="24.010059" x2="94.88681" y2="28.136377" gradientTransform="matrix(-1,0,0,1,190,0)"/>
    <radialGradient xmlns:inkscape="http://www.inkscape.org/namespaces/inkscape" inkscape:collect="always" xmlns:xlink="http://www.w3.org/1999/xlink" xlink:href="#linearGradient177339" id="radialGradient177341-3-0" cx="44.135807" cy="121.46028" fx="44.135807" fy="121.46028" r="1.1079427" gradientTransform="matrix(1.5015971,0,0,0.99367432,-157.6034,-4.3351259)" gradientUnits="userSpaceOnUse"/>
    <linearGradient xmlns:inkscape="http://www.inkscape.org/namespaces/inkscape" inkscape:collect="always" id="linearGradient177339">
      <stop style="stop-color:#b98d3e;stop-opacity:1;" offset="0" id="stop177335"/>
      <stop style="stop-color:#c9c943;stop-opacity:0;" offset="1" id="stop177337"/>
    </linearGradient>
    <radialGradient xmlns:inkscape="http://www.inkscape.org/namespaces/inkscape" inkscape:collect="always" xmlns:xlink="http://www.w3.org/1999/xlink" xlink:href="#linearGradient177339" id="radialGradient177345-7-9" gradientUnits="userSpaceOnUse" gradientTransform="matrix(1.5015971,0,0,0.99367432,-195.50719,-68.761115)" cx="44.135807" cy="121.46028" fx="44.135807" fy="121.46028" r="1.1079427"/>
    <rect x="172" y="97" width="745" height="239" id="rect276290-2"/>
    <rect x="172" y="97" width="745" height="239" id="rect276290-2-5"/>
    <rect x="172" y="97" width="745" height="239" id="rect276290-2-5-7"/>
  </defs><g transform="translate(196.99892142993465 -297.7591818235487) scale(2.2927132331145064)"><g><g transform="translate(-65.352083,2.1166666)">
      <path style="fill:#000000;fill-rule:evenodd;stroke:#000000;stroke-width:0.214312px;stroke-linecap:butt;stroke-linejoin:miter;stroke-opacity:1" d="m -9.097111,131.44164 c -1.505223,-0.20982 -1.051558,1.96786 -2.518168,1.55377 -0.553004,-0.12021 -1.118141,-0.12013 -1.686777,-0.10716 -0.455625,6.3e-4 -0.912359,-8.1e-4 -1.367174,0 -0.463312,0.22738 0.546191,0.53723 0.597375,0.87357 -0.623935,0.37523 -1.481993,0.20543 -2.179524,0.46213 -0.351905,0.24566 -1.115953,0.53503 -1.311026,0.64631 0.752183,0.13907 1.532245,0.2867 2.276716,0.45664 0.310959,0.093 1.785483,0.26364 0.830809,0.50762 -0.559929,0.2153 -1.219342,0.27918 -1.660921,0.37501 -0.692696,0.11278 -1.136366,0.41876 -1.575345,0.65391 -0.509571,0.0565 -0.305743,0.25678 0.110144,0.2484 -0.31343,-0.2033 0.805407,0.28421 1.090146,0.3298 0.272484,0.10295 1.035018,0.47504 0.990549,0.38585 -0.370097,-0.11877 0.807611,0.25946 0.133999,0.30904 -0.61317,0.27984 -1.385643,0.0377 -1.92823,0.43016 -0.375256,0.16754 -1.296332,0.5527 -0.343351,0.42234 0.534301,0.0275 1.057293,0.35986 1.505815,0.43472 1.078434,0.0498 -0.363269,0.50498 -0.748076,0.42065 -0.591834,0.099 -1.363465,0.31244 -1.567771,0.56842 -0.50932,0.27147 -0.528452,0.51153 0.08182,0.56448 0.703299,0.0874 1.24463,0.33518 1.875255,0.58911 0.148579,0.48659 -1.062671,0.72237 -1.232293,1.28587 -0.303645,0.40117 -0.620322,0.63809 0.05354,0.53578 0.48101,-0.0243 1.94707,0.0237 1.071557,0.69641 -0.534689,0.52412 -0.976755,1.10921 -1.232302,1.82165 -0.180468,0.27384 -0.477333,1.00164 0.241518,0.59044 0.543834,-0.24063 1.128492,-0.35346 1.729415,-0.32248 0.414736,0.0215 0.868174,-0.0467 1.254479,0.0251 -0.223138,0.34855 -1.058872,1.15105 -1.026804,1.1775 -0.604009,0.63257 -0.760153,1.35695 -0.96633,2.06563 -0.167435,0.69007 0.608836,-0.19994 0.937623,-0.16073 0.605581,-0.34194 1.233663,-0.37281 1.895603,-0.42118 0.474433,0.11499 -0.436712,0.87912 -0.476264,1.22424 -0.291163,0.60181 -0.52113,1.22859 -0.434832,1.9093 0.303725,-0.50166 1.025824,-0.73954 1.560359,-0.9979 0.604479,-0.15191 1.219731,-0.37538 1.859679,-0.4354 0.262206,0.0654 2.177129,-0.71211 2.446737,-0.65573"/>
      <path style="fill:#000000;fill-rule:evenodd;stroke:#000000;stroke-width:0.214312px;stroke-linecap:butt;stroke-linejoin:miter;stroke-opacity:1" d="m -4.078489,131.60238 c 1.505223,-0.20982 0.997985,1.80712 2.464596,1.39303 0.553003,-0.12021 1.11814,-0.12013 1.686776,-0.10716 0.455625,6.3e-4 0.91236,-8.1e-4 1.367175,0 0.463312,0.22738 -0.546191,0.53723 -0.597375,0.87357 0.623935,0.37523 1.482,0.20543 2.179532,0.46213 0.351904,0.24566 1.115953,0.53503 1.311025,0.64631 -0.752182,0.13907 -1.532245,0.2867 -2.276724,0.45664 -0.310951,0.093 -1.785483,0.26364 -0.830809,0.50762 0.559937,0.2153 1.219342,0.27918 1.66093,0.37501 0.692695,0.11278 1.136357,0.41876 1.575344,0.65391 0.509571,0.0565 0.305743,0.25678 -0.110143,0.2484 0.313429,-0.2033 -0.805408,0.28421 -1.090155,0.3298 -0.272476,0.10295 -1.03501,0.47504 -0.990541,0.38585 0.370097,-0.11877 -0.807619,0.25946 -0.133998,0.30904 0.61317,0.27984 1.385642,0.0377 1.928229,0.43016 0.375257,0.16754 1.296332,0.5527 0.343351,0.42234 -0.5343,0.0275 -1.057293,0.35986 -1.505814,0.43472 -1.078434,0.0498 0.363268,0.50498 0.748075,0.42065 0.591835,0.099 1.363457,0.31244 1.567771,0.56842 0.50932,0.27147 0.528444,0.51153 -0.08182,0.56448 -0.703299,0.0874 -1.24463,0.33518 -1.875255,0.58911 -0.148578,0.48659 1.062671,0.72237 1.232293,1.28587 0.303637,0.40117 0.620315,0.63809 -0.05362,0.53578 -0.48101,-0.0243 -1.94707,0.0237 -1.071557,0.69641 0.534689,0.52412 0.976747,1.10921 1.232294,1.82165 0.180476,0.27384 0.477341,1.00164 -0.24151,0.59044 -0.543834,-0.24063 -1.128492,-0.35346 -1.729415,-0.32248 -0.414736,0.0215 -0.868174,-0.0467 -1.254479,0.0251 0.223139,0.34855 1.058864,1.15105 1.026805,1.1775 0.604008,0.63257 0.760144,1.35695 0.96633,2.06563 0.167435,0.69007 -0.608837,-0.19994 -0.937624,-0.16073 -0.60558,-0.34194 -1.233662,-0.37281 -1.895603,-0.42118 -0.474433,0.11499 0.436712,0.87912 0.476264,1.22424 0.291155,0.60181 0.52113,1.22859 0.434824,1.9093 -0.303725,-0.50166 -1.025824,-0.73954 -1.560359,-0.9979 -0.604479,-0.15191 -1.219731,-0.37538 -1.859679,-0.4354 -0.262213,0.0654 -1.566198,-0.71211 -1.835806,-0.65573"/>
      <g transform="matrix(0.81,0,0,0.81,-94.786011,-31.187275)">
        <path style="fill:none;stroke:#000000;stroke-width:0.502327px;stroke-linecap:butt;stroke-linejoin:miter;stroke-opacity:1" d="m 107.29049,214.3125 -0.49976,-0.50233 h -1.49055 -0.5213"/>
        <path style="fill:#ffffff;stroke:#000000;stroke-width:0.251163;stroke-miterlimit:4;stroke-dashoffset:0;stroke-opacity:1" d="m 106.70838,213.83037 c 0.0707,0.11478 0.11151,0.24996 0.11151,0.39468 0,0.41612 -0.33734,0.75349 -0.75348,0.75349 -0.41617,0 -0.75351,-0.33737 -0.75351,-0.75349 0,-0.14864 0.0431,-0.28728 0.11738,-0.40402 z"/>
        <circle style="fill:#000000;fill-opacity:1;fill-rule:nonzero;stroke:#000000;stroke-width:0.251163;stroke-miterlimit:4;stroke-dasharray:none;stroke-dashoffset:0;stroke-opacity:1" cx="106.03442" cy="214.31506" r="0.2511633"/>
      </g>
      <g style="fill:#e6e6e6;fill-opacity:1">
        <path style="fill:#e6e6e6;fill-opacity:1;fill-rule:evenodd;stroke:#000000;stroke-width:0.214312px;stroke-linecap:butt;stroke-linejoin:miter;stroke-opacity:1" d="m 0.162613,142.40585 2.14313,-2.35744 c 0,0 0.279126,0.49005 -1.071565,3.429 -0.612093,1.33186 -2.14313,2.14313 -2.14313,2.14313"/>
        <path style="fill:#e6e6e6;fill-opacity:1;fill-rule:evenodd;stroke:#000000;stroke-width:0.214312px;stroke-linecap:butt;stroke-linejoin:miter;stroke-opacity:1" d="m -13.65297,142.40585 -2.14313,-2.35744 c 0,0 -0.279134,0.49005 1.071565,3.429 0.612093,1.33186 2.14313,2.14313 2.14313,2.14313"/>
        <path style="fill:#e6e6e6;fill-opacity:1;fill-rule:evenodd;stroke:#000000;stroke-width:0.214312px;stroke-linecap:butt;stroke-linejoin:miter;stroke-opacity:1" d="m -5.195197,151.40697 c 3.386036,-2.50206 2.386036,-1.50206 3.857625,-4.71487 0.679647,-1.6942 1.999341,-3.55665 2.029352,-5.35782 0.02454,-1.47251 0.01053,-3.28726 -1.071565,-4.28625 -1.596405,-1.47379 -4.256688,-2.14312 -6.429376,-2.14312 -2.172687,0 -4.83297,0.66933 -6.429374,2.14313 -1.082096,0.99899 -1.096101,2.81373 -1.071558,4.28624 0.02997,1.79938 1.565481,3.6649 2.243662,5.35782 1.353239,3.42746 0.25727,2.21281 3.643315,4.71487 0.817834,0.58474 2.613955,0.49794 3.227919,0 z"/>
      </g>
      <g transform="matrix(-0.81,0,0,0.81,81.167704,-31.18727)">
        <path style="fill:none;stroke:#000000;stroke-width:0.502327px;stroke-linecap:butt;stroke-linejoin:miter;stroke-opacity:1" d="m 107.29049,214.3125 -0.49976,-0.50233 h -1.49055 -0.5213"/>
        <path style="fill:#ffffff;stroke:#000000;stroke-width:0.251163;stroke-miterlimit:4;stroke-dashoffset:0;stroke-opacity:1" d="m 106.70838,213.83037 c 0.0707,0.11478 0.11151,0.24996 0.11151,0.39468 0,0.41612 -0.33734,0.75349 -0.75348,0.75349 -0.41617,0 -0.75351,-0.33737 -0.75351,-0.75349 0,-0.14864 0.0431,-0.28728 0.11738,-0.40402 z"/>
        <circle style="fill:#000000;fill-opacity:1;fill-rule:nonzero;stroke:#000000;stroke-width:0.251163;stroke-miterlimit:4;stroke-dasharray:none;stroke-dashoffset:0;stroke-opacity:1" cx="106.03442" cy="214.31506" r="0.2511633"/>
      </g>
      <g transform="matrix(-0.81,0,0,0.81,81.05897,-31.18727)">
        <path style="fill:none;stroke:#000000;stroke-width:0.502327px;stroke-linecap:butt;stroke-linejoin:miter;stroke-opacity:1" d="m 109.80213,214.3125 0.55646,-0.50233 h 1.95518"/>
        <path style="fill:#ffffff;stroke:#000000;stroke-width:0.251163;stroke-miterlimit:4;stroke-dashoffset:0;stroke-opacity:1" d="m 111.73165,213.83032 c 0.0707,0.11478 0.11151,0.24995 0.11151,0.39468 0,0.41612 -0.33734,0.75349 -0.75351,0.75349 -0.41613,0 -0.75347,-0.33737 -0.75347,-0.75349 0,-0.14864 0.043,-0.28728 0.11737,-0.40403 z"/>
        <circle style="fill:#000000;fill-opacity:1;fill-rule:nonzero;stroke:#000000;stroke-width:0.251163;stroke-miterlimit:4;stroke-dasharray:none;stroke-dashoffset:0;stroke-opacity:1" cx="111.07362" cy="214.31506" r="0.2511633"/>
      </g>
      <g transform="matrix(-0.81,0,0,0.81,81.05897,-31.18727)" style="stroke:#7c8499;stroke-opacity:1">
        <path style="fill:none;fill-rule:evenodd;stroke:#7c8499;stroke-width:0.529167;stroke-linecap:butt;stroke-linejoin:miter;stroke-dasharray:none;stroke-opacity:1" d="m 111.12501,210.34375 v 2.64583 l 2.11666,0.52917 1.05834,1.5875 -1.32292,2.38125 -2.64583,0.26458 0.26458,1.85208 0.79375,1.5875 0.79375,1.5875 1.05833,0.52917"/>
        <path style="fill:none;fill-rule:evenodd;stroke:#7c8499;stroke-width:0.529167;stroke-linecap:butt;stroke-linejoin:miter;stroke-dasharray:none;stroke-opacity:1" d="m 112.44792,210.34375 1.05834,0.79375 h 1.5875 l 1.05833,1.05833 -1.05833,1.05833 0.52916,1.05834 v 1.85208 l -1.05833,0.79375 0.26458,0.79375 -1.05833,1.5875 0.52917,0.26458 0.52514,0.17505"/>
        <path style="fill:none;fill-rule:evenodd;stroke:#7c8499;stroke-width:0.529167;stroke-linecap:butt;stroke-linejoin:miter;stroke-dasharray:none;stroke-opacity:1" d="m 105.83333,210.34375 v 2.64583 l -2.11666,0.52917 -1.05834,1.5875 1.32292,2.38125 2.64583,0.26458 -0.26458,1.85208 -0.79375,1.5875 -0.79375,1.5875 -1.05833,0.52917"/>
        <path style="fill:none;fill-rule:evenodd;stroke:#7c8499;stroke-width:0.529167;stroke-linecap:butt;stroke-linejoin:miter;stroke-dasharray:none;stroke-opacity:1" d="M 108.47917,210.07916 V 219.075"/>
        <path style="fill:none;fill-rule:evenodd;stroke:#7c8499;stroke-width:0.529167;stroke-linecap:butt;stroke-linejoin:miter;stroke-dasharray:none;stroke-opacity:1" d="m 108.47917,216.69375 2.38125,-1.05834 1.5875,0.52917 0.79375,0.79375 1.32292,0.52917 1.33883,0.22314"/>
        <path style="fill:none;fill-rule:evenodd;stroke:#7c8499;stroke-width:0.529167;stroke-linecap:butt;stroke-linejoin:miter;stroke-dasharray:none;stroke-opacity:1" d="m 104.51042,210.34375 -1.05834,0.79375 h -1.5875 l -1.05833,1.05833 1.05833,1.05833 -0.52916,1.05834 v 1.85208 l 1.05833,0.79375 -0.26458,0.79375 1.05833,1.5875 -0.52917,0.26458 -0.79375,0.26459"/>
        <path style="fill:none;fill-rule:evenodd;stroke:#7c8499;stroke-width:0.529167;stroke-linecap:butt;stroke-linejoin:miter;stroke-dasharray:none;stroke-opacity:1" d="m 108.47917,216.69375 -2.38125,-1.05834 -1.5875,0.52917 -1.05833,0.52917 -1.32292,0.52917 -1.40049,0.23341"/>
        <path style="fill:none;fill-rule:evenodd;stroke:#7c8499;stroke-width:0.529167;stroke-linecap:butt;stroke-linejoin:miter;stroke-dasharray:none;stroke-opacity:1" d="m 108.47917,218.81042 2.64584,-1e-5 0.79375,0.52917 1.32291,0.26458 v 1.05834 l 1.05834,0.79375"/>
        <path style="fill:none;fill-rule:evenodd;stroke:#7c8499;stroke-width:0.529167;stroke-linecap:butt;stroke-linejoin:miter;stroke-dasharray:none;stroke-opacity:1" d="m 108.47917,218.81042 -2.64584,-1e-5 -0.79375,0.52917 -1.32291,0.26458 v 1.05834 l -1.05834,0.79375"/>
        <path style="fill:none;fill-rule:evenodd;stroke:#7c8499;stroke-width:0.529167;stroke-linecap:butt;stroke-linejoin:miter;stroke-dasharray:none;stroke-opacity:1" d="m 112.18334,213.78333 2.11667,-0.79375 1.5875,0.79375 0.79375,-0.26458 0.79375,0.79375"/>
        <path style="fill:none;fill-rule:evenodd;stroke:#7c8499;stroke-width:0.529167;stroke-linecap:butt;stroke-linejoin:miter;stroke-dasharray:none;stroke-opacity:1" d="m 104.775,213.78333 -2.11667,-0.79375 -1.5875,0.79375 -0.79375,-0.26458 -0.793748,0.79375"/>
        <path style="fill:none;fill-rule:evenodd;stroke:#7c8499;stroke-width:0.529167;stroke-linecap:butt;stroke-linejoin:miter;stroke-dasharray:none;stroke-opacity:1" d="m 108.13628,219.5819 -0.71545,1.60976 -0.26458,2.11667 -0.79375,1.05833 -0.52916,0.52917"/>
        <path style="fill:none;fill-rule:evenodd;stroke:#7c8499;stroke-width:0.529167;stroke-linecap:butt;stroke-linejoin:miter;stroke-dasharray:none;stroke-opacity:1" d="m 108.83559,219.61236 0.70192,1.5793 0.26458,2.11667 0.79375,1.05833 0.53668,0.53669"/>
        <path style="fill:none;fill-rule:evenodd;stroke:#7c8499;stroke-width:0.529167;stroke-linecap:butt;stroke-linejoin:miter;stroke-dasharray:none;stroke-opacity:1" d="m 108.47917,223.57291 v 2.46682"/>
        <path style="fill:none;fill-rule:evenodd;stroke:#7c8499;stroke-width:0.529167;stroke-linecap:butt;stroke-linejoin:miter;stroke-dasharray:none;stroke-opacity:1" d="m 115.09376,211.1375 1.05833,-1.5875 1.05834,-0.26459"/>
        <path style="fill:none;fill-rule:evenodd;stroke:#7c8499;stroke-width:0.529167;stroke-linecap:butt;stroke-linejoin:miter;stroke-dasharray:none;stroke-opacity:1" d="m 101.86458,211.1375 -1.05833,-1.5875 -1.058335,-0.26459"/>
        <path style="fill:none;fill-rule:evenodd;stroke:#7c8499;stroke-width:0.529167;stroke-linecap:butt;stroke-linejoin:miter;stroke-dasharray:none;stroke-opacity:1" d="m 105.83333,211.66666 2.64584,0.26459 2.64583,-0.26459"/>
      </g>
      <path style="fill:none;fill-rule:evenodd;stroke:#000000;stroke-width:0.214312px;stroke-linecap:butt;stroke-linejoin:miter;stroke-opacity:1" d="m -5.737595,143.47741 v 3.21469 h -1.071566 -1.071565 v -3.21469"/>
      <path style="fill:#000000;fill-opacity:1;fill-rule:evenodd;stroke:#000000;stroke-width:0.214312px;stroke-linecap:butt;stroke-linejoin:miter;stroke-opacity:1" d="m -13.667098,137.47663 4.286252,1.7145 5.116714,-0.0134 4.312974,-1.70109 -2.57175,-4.71488 c 0,0 -2.143511,-1.11226 -4.286253,-1.07156 -2.115655,0.0402 -4.286244,1.07156 -4.286244,1.07156 z"/>
      <path style="fill:#ffffc8;fill-opacity:1;fill-rule:evenodd;stroke:#000000;stroke-width:0.214312px;stroke-linecap:butt;stroke-linejoin:miter;stroke-opacity:1" d="m -4.599934,149.04331 0.208372,1.10815 0.435683,-0.22732 0.236779,-0.48304 -0.03791,-0.92345"/>
      <path style="fill:#ffffc8;fill-opacity:1;fill-rule:evenodd;stroke:#000000;stroke-width:0.214312px;stroke-linecap:butt;stroke-linejoin:miter;stroke-opacity:1" d="m -9.018387,149.04331 -0.208372,1.10815 -0.435683,-0.22732 -0.236788,-0.48304 0.03791,-0.88083"/>
      <path style="fill:none;fill-rule:evenodd;stroke:#000000;stroke-width:0.214312px;stroke-linecap:butt;stroke-linejoin:miter;stroke-opacity:1" d="m -3.594473,148.4066 -0.857247,0.64293 h -4.714873 l -0.857255,-0.64293"/>
      <path style="fill:none;fill-opacity:1;fill-rule:evenodd;stroke:#000000;stroke-width:0.214312px;stroke-linecap:butt;stroke-linejoin:miter;stroke-opacity:1" d="m -5.195197,151.40697 c 3.386036,-2.50206 2.386036,-1.50206 3.857625,-4.71487 0.679647,-1.6942 1.999341,-3.55665 2.029352,-5.35782 0.02454,-1.47251 0.01053,-3.28726 -1.071565,-4.28625 -1.596405,-1.47379 -4.256688,-2.14312 -6.429376,-2.14312 -2.172687,0 -4.83297,0.66933 -6.429374,2.14313 -1.082096,0.99899 -1.096101,2.81373 -1.071558,4.28624 0.02997,1.79938 1.565481,3.6649 2.243662,5.35782 1.353239,3.42746 0.25727,2.21281 3.643315,4.71487 0.817834,0.58474 2.613955,0.49794 3.227919,0 z"/>
      <path style="fill:#cccccc;fill-opacity:1;stroke:#000000;stroke-width:1;stroke-linecap:round;stroke-linejoin:round;stroke-dasharray:none;stroke-opacity:1" d="m -35.631836,496.40625 c -1.984007,0.39408 -3.004488,2.21555 -3.988281,3.70508 -3.903065,3.69263 -9.625346,1.21032 -14.374024,1.875 -1.395426,-0.32243 -2.901106,1.01604 -1.22168,1.96387 0.793474,0.38858 2.094306,1.73476 0.455079,1.89062 -4.117318,0.61777 -8.593665,1.63206 -11.861329,4.07422 4.072937,1.08342 8.615989,1.2891 12.429688,2.99219 -4.449855,1.61594 -9.841285,1.67979 -13.631836,4.80859 0.778581,1.28487 3.166777,1.0325 4.479492,1.74414 1.463702,0.76265 4.136634,0.88604 4.816406,2.48242 -2.406719,0.77487 -5.234454,0.33485 -7.514648,1.80274 -4.253536,1.30441 -1.721224,1.82851 1.049805,2.18261 1.548314,0.51677 3.384123,1.17954 4.835937,1.34961 -3.367196,1.79226 -8.446042,0.98441 -10.827148,4.43457 0.519314,1.8994 3.403741,1.39986 4.860351,2.20899 1.005997,0.52096 3.06751,0.70146 3.446289,1.75293 -2.098027,1.95636 -5.096579,3.54163 -5.878906,6.42578 2.03157,0.18898 4.948856,-0.4368 6.449219,1.16211 -2.450941,3.21405 -5.470666,6.41793 -6.295898,10.53906 0.822212,1.34502 2.790178,-0.58682 4.030273,-0.47656 2.678982,-0.35788 5.646173,-1.08763 8.265625,-0.48047 -2.509549,3.5876 -6.015393,6.76164 -6.668945,11.35254 -0.404852,0.82542 -0.412662,2.40803 0.882812,1.47559 3.233336,-1.69137 6.743847,-2.66439 10.414063,-2.71289 -2.464362,3.41381 -4.504288,7.70917 -4.082032,11.86425 4.595298,-4.55543 11.489022,-5.22188 17.535157,-6.32128 2.204198,0.19229 -0.207808,-1.41279 -0.866211,-1.83692 -4.653651,-3.50113 -4.808948,-9.97276 -7.580227,-14.73945 -0.684667,-0.98923 -1.091217,-3.39796 -2.580906,-2.92461 -6.091896,-3.99755 -8.730078,-11.4024 -10.331055,-18.15918 0.239374,-1.08655 1.558019,1.1489 1.961371,1.33096 1.433361,1.27693 2.488973,3.40063 3.500543,4.71689 0.811755,-5.39827 -0.450769,-11.53119 2.350586,-16.46485 5.498837,1.03425 10.670282,4.22619 16.085938,5.67481 6.81099,-0.13665 13.723873,0.2663 20.474113,-0.19226 5.003025,-1.77054 9.93742,-4.44034 15.08448,-5.48352 2.707755,4.82619 1.72278,10.80111 2.169925,16.1289 -0.074845,1.3672 0.642815,0.74486 0.8457,-0.13574 1.46635,-2.13137 3.121345,-4.53345 5.26172,-5.88867 -0.526165,4.39937 -2.57888,8.64184 -4.61133,12.55957 -1.78328,2.44703 -3.873715,5.24367 -6.59863,6.40528 -3.83725,5.58497 -4.455115,13.24824 -10.200195,17.44726 -0.67499,0.32478 -2.05319,2.29622 -0.418945,1.3916 1.746415,-1.59106 4.02305,0.90988 6,0.91309 4.71895,0.84431 9.678205,2.36496 13.22656,5.45801 -0.00347,-4.29733 -1.763285,-8.3306 -4.26758,-11.74414 4.05853,-0.13235 7.69474,1.5226 11.339845,2.96972 0.449295,-1.9583 -0.92235,-4.31495 -1.60742,-6.22851 -1.29574,-2.54178 -3.87604,-4.37854 -5.070315,-6.86817 3.99375,-0.68769 8.059385,0.51244 11.885745,1.41407 1.099875,-0.97772 -0.672545,-2.8483 -0.951945,-3.95214 -1.069785,-2.77586 -3.52374,-4.68816 -4.97091,-7.14162 1.57133,-1.71433 4.620835,-0.6203 6.539065,-1.20214 -1.091915,-2.92218 -4.101235,-4.34555 -6.021485,-6.45215 2.37319,-1.96333 5.91815,-1.52278 8.286135,-3.33301 0.102055,-1.95401 -2.801385,-2.44392 -4.21387,-3.09473 -1.941075,-0.78853 -5.156805,-0.60322 -6.458005,-1.90722 2.93073,-0.20031 5.523615,-1.89961 8.529295,-1.90332 -2.694285,-2.06991 -6.45597,-2.90342 -9.936525,-3.13184 -1.023495,-0.8097 1.512885,-1.45957 2.015625,-1.7666 2.17711,-1.15531 5.03551,-1.16174 7,-2.53613 -2.219895,-2.25192 -5.87114,-2.7647 -8.836915,-3.66407 -1.33488,-0.52003 -3.9111,-0.39728 -4.733395,-1.37207 3.91829,-1.56907 8.57026,-1.72576 12.373045,-3.06054 -3.797,-2.45394 -8.27556,-3.20066 -12.5625,-4.14258 -0.7747,-1.18889 3.171055,-2.09064 1.51465,-3.32129 -4.777595,-0.82486 -9.703035,0.13605 -14.52539,0.10351 -1.58386,-1.87712 -3.045425,-5.46423 -5.94043,-5.21972 -0.606295,1.04181 0.356325,2.98215 -1.669775,1.6869 -5.70924,-1.78425 -12.060404,-1.58126 -17.712062,-0.14491 -0.304304,-0.88594 0.148391,-2.47896 -1.383789,-2.28418 z" transform="scale(0.26458333)"/>
    </g></g></g></svg>