<svg xmlns="http://www.w3.org/2000/svg" xmlns:xlink="http://www.w3.org/1999/xlink" width="64" height="64" viewBox="0 0 64 64"><defs id="defs355716">
    <rect x="172" y="97" width="745" height="239" id="rect276290"/>
    <color-profile name="Agfa-:-Swop-Standard" xmlns:xlink="http://www.w3.org/1999/xlink" xlink:href="file:///C:/WINDOWS/system32/spool/drivers/color/RSWOP.icm" id="color-profile294613"/>
    <linearGradient xmlns:inkscape="http://www.inkscape.org/namespaces/inkscape" inkscape:collect="always" id="linearGradient140439">
      <stop style="stop-color:#a4a870;stop-opacity:1;" offset="0" id="stop140435"/>
      <stop style="stop-color:#a4a870;stop-opacity:0;" offset="1" id="stop140437"/>
    </linearGradient>
    <linearGradient xmlns:inkscape="http://www.inkscape.org/namespaces/inkscape" inkscape:collect="always" id="linearGradient140390">
      <stop style="stop-color:#359676;stop-opacity:1;" offset="0" id="stop140386"/>
      <stop style="stop-color:#4a6a5e;stop-opacity:0;" offset="1" id="stop140388"/>
    </linearGradient>
    <linearGradient xmlns:inkscape="http://www.inkscape.org/namespaces/inkscape" inkscape:collect="always" id="linearGradient139515">
      <stop style="stop-color:#dbd764;stop-opacity:1;" offset="0" id="stop139511"/>
      <stop style="stop-color:#dbd764;stop-opacity:0;" offset="0.56578946" id="stop139513"/>
    </linearGradient>
    <linearGradient xmlns:inkscape="http://www.inkscape.org/namespaces/inkscape" inkscape:collect="always" id="linearGradient139325">
      <stop style="stop-color:#161c16;stop-opacity:1;" offset="0" id="stop139321"/>
      <stop style="stop-color:#6e836c;stop-opacity:0;" offset="1" id="stop139323"/>
    </linearGradient>
    <linearGradient xmlns:inkscape="http://www.inkscape.org/namespaces/inkscape" inkscape:collect="always" id="linearGradient387614">
      <stop style="stop-color:#a4a870;stop-opacity:1;" offset="0" id="stop387610"/>
      <stop style="stop-color:#a4a870;stop-opacity:0;" offset="1" id="stop387612"/>
    </linearGradient>
    <linearGradient xmlns:inkscape="http://www.inkscape.org/namespaces/inkscape" inkscape:collect="always" id="linearGradient387421">
      <stop style="stop-color:#344533;stop-opacity:1;" offset="0" id="stop387417"/>
      <stop style="stop-color:#1d251d;stop-opacity:0;" offset="1" id="stop387419"/>
    </linearGradient>
    <linearGradient xmlns:inkscape="http://www.inkscape.org/namespaces/inkscape" inkscape:collect="always" xmlns:xlink="http://www.w3.org/1999/xlink" xlink:href="#linearGradient206680" id="linearGradient206682" x1="168.01042" y1="262.08701" x2="168.01042" y2="247.38542" gradientUnits="userSpaceOnUse"/>
    <linearGradient xmlns:inkscape="http://www.inkscape.org/namespaces/inkscape" inkscape:collect="always" id="linearGradient206680">
      <stop style="stop-color:#dbd764;stop-opacity:0;" offset="0.38377193" id="stop206678"/>
      <stop style="stop-color:#dbd764;stop-opacity:1;" offset="1" id="stop206676"/>
    </linearGradient>
    <linearGradient xmlns:inkscape="http://www.inkscape.org/namespaces/inkscape" inkscape:collect="always" xmlns:xlink="http://www.w3.org/1999/xlink" xlink:href="#linearGradient216292" id="linearGradient216294" x1="168.01042" y1="236.00833" x2="168.01042" y2="248.97292" gradientUnits="userSpaceOnUse" gradientTransform="translate(8.4073796,-0.78650088)"/>
    <linearGradient xmlns:inkscape="http://www.inkscape.org/namespaces/inkscape" inkscape:collect="always" id="linearGradient216292">
      <stop style="stop-color:#359676;stop-opacity:1;" offset="0" id="stop216288"/>
      <stop style="stop-color:#4a6a5f;stop-opacity:0;" offset="1" id="stop216290"/>
    </linearGradient>
    <linearGradient xmlns:inkscape="http://www.inkscape.org/namespaces/inkscape" inkscape:collect="always" xmlns:xlink="http://www.w3.org/1999/xlink" xlink:href="#linearGradient387421" id="linearGradient387423" x1="31.75" y1="155.31041" x2="31.921236" y2="171.18663" gradientUnits="userSpaceOnUse"/>
    <linearGradient xmlns:inkscape="http://www.inkscape.org/namespaces/inkscape" inkscape:collect="always" xmlns:xlink="http://www.w3.org/1999/xlink" xlink:href="#linearGradient387614" id="linearGradient387616" x1="45.011326" y1="158.73975" x2="51.59375" y2="162.71875" gradientUnits="userSpaceOnUse" gradientTransform="translate(2.9601329,-0.98671096)"/>
    <linearGradient xmlns:inkscape="http://www.inkscape.org/namespaces/inkscape" inkscape:collect="always" xmlns:xlink="http://www.w3.org/1999/xlink" xlink:href="#linearGradient387614" id="linearGradient387620" gradientUnits="userSpaceOnUse" x1="45.011326" y1="158.73975" x2="51.593746" y2="162.71875" gradientTransform="matrix(-1,0,0,1,108.79346,-0.98671096)"/>
    <linearGradient xmlns:inkscape="http://www.inkscape.org/namespaces/inkscape" inkscape:collect="always" xmlns:xlink="http://www.w3.org/1999/xlink" xlink:href="#linearGradient139325" id="linearGradient139327" x1="70" y1="21" x2="70" y2="37" gradientUnits="userSpaceOnUse"/>
    <linearGradient xmlns:inkscape="http://www.inkscape.org/namespaces/inkscape" inkscape:collect="always" xmlns:xlink="http://www.w3.org/1999/xlink" xlink:href="#linearGradient139515" id="linearGradient139517" x1="70.426315" y1="1.5429174" x2="70.46106" y2="18.249472" gradientUnits="userSpaceOnUse"/>
    <linearGradient xmlns:inkscape="http://www.inkscape.org/namespaces/inkscape" inkscape:collect="always" xmlns:xlink="http://www.w3.org/1999/xlink" xlink:href="#linearGradient140390" id="linearGradient140392" x1="90.084175" y1="1.3586814" x2="90" y2="16" gradientUnits="userSpaceOnUse"/>
    <linearGradient xmlns:inkscape="http://www.inkscape.org/namespaces/inkscape" inkscape:collect="always" xmlns:xlink="http://www.w3.org/1999/xlink" xlink:href="#linearGradient140439" id="linearGradient140441" x1="90.01368" y1="24.010059" x2="94.88681" y2="28.136377" gradientUnits="userSpaceOnUse"/>
    <linearGradient xmlns:inkscape="http://www.inkscape.org/namespaces/inkscape" inkscape:collect="always" xmlns:xlink="http://www.w3.org/1999/xlink" xlink:href="#linearGradient140439" id="linearGradient140449" gradientUnits="userSpaceOnUse" x1="90.01368" y1="24.010059" x2="94.88681" y2="28.136377" gradientTransform="matrix(-1,0,0,1,190,0)"/>
    <radialGradient xmlns:inkscape="http://www.inkscape.org/namespaces/inkscape" inkscape:collect="always" xmlns:xlink="http://www.w3.org/1999/xlink" xlink:href="#linearGradient177339" id="radialGradient177341-3-0" cx="44.135807" cy="121.46028" fx="44.135807" fy="121.46028" r="1.1079427" gradientTransform="matrix(1.5015971,0,0,0.99367432,-157.6034,-4.3351259)" gradientUnits="userSpaceOnUse"/>
    <linearGradient xmlns:inkscape="http://www.inkscape.org/namespaces/inkscape" inkscape:collect="always" id="linearGradient177339">
      <stop style="stop-color:#b98d3e;stop-opacity:1;" offset="0" id="stop177335"/>
      <stop style="stop-color:#c9c943;stop-opacity:0;" offset="1" id="stop177337"/>
    </linearGradient>
    <radialGradient xmlns:inkscape="http://www.inkscape.org/namespaces/inkscape" inkscape:collect="always" xmlns:xlink="http://www.w3.org/1999/xlink" xlink:href="#linearGradient177339" id="radialGradient177345-7-9" gradientUnits="userSpaceOnUse" gradientTransform="matrix(1.5015971,0,0,0.99367432,-195.50719,-68.761115)" cx="44.135807" cy="121.46028" fx="44.135807" fy="121.46028" r="1.1079427"/>
    <rect x="172" y="97" width="745" height="239" id="rect276290-2"/>
    <rect x="172" y="97" width="745" height="239" id="rect276290-2-5"/>
    <rect x="172" y="97" width="745" height="239" id="rect276290-2-5-7"/>
  </defs><g transform="translate(-126.62176288113216 -437.64883060612783) scale(3.4933004120553557)"><g><g transform="translate(-13.844562,-4.8643054)">
      <g transform="matrix(-1,0,0,1,129.25198,110.32223)">
        <path style="fill:#6e836c;fill-opacity:1;stroke:#000000;stroke-width:0.264583;stroke-linecap:round;stroke-linejoin:round" d="m 69.999999,20.96946 c 0,0 -1.78521,0.77156 -2.58777,1.216 -1.599774,0.88593 -2.903294,2.04779 -3.565343,4.23793 -1.152795,0.58942 -1.782959,1.85552 -1.784387,2.61587 1.87e-4,0.65825 0.471787,1.3015 1.354439,1.84743 C 63.730464,35.30948 68.854928,37.018126 70,37 c 1,0 6.269535,-1.53499 6.583061,-5.95778 0.882652,-0.54593 1.354251,-1.34471 1.354438,-2.00296 -2.76e-4,-0.7606 -0.629732,-2.02709 -1.78232,-2.6169 -0.644654,-2.13179 -1.897055,-3.26136 -3.43876,-4.16494 -0.837164,-0.49065 -2.71642,-1.28796 -2.71642,-1.28796 z"/>
        <path style="fill:url(#linearGradient139327);fill-opacity:1;stroke:#000000;stroke-width:0.264583;stroke-linecap:round;stroke-linejoin:round" d="m 69.999999,20.96946 c 0,0 -1.78521,0.77156 -2.58777,1.216 -1.599774,0.88593 -2.903294,2.04779 -3.565343,4.23793 -1.152795,0.58942 -1.782959,1.85552 -1.784387,2.61587 1.87e-4,0.65825 0.471787,1.3015 1.354439,1.84743 C 63.730464,35.30948 68.854928,37.018126 70,37 c 1,0 6.269535,-1.53499 6.583061,-5.95778 0.882652,-0.54593 1.354251,-1.34471 1.354438,-2.00296 -2.76e-4,-0.7606 -0.629732,-2.02709 -1.78232,-2.6169 -0.644654,-2.13179 -1.897055,-3.26136 -3.43876,-4.16494 -0.837164,-0.49065 -2.71642,-1.28796 -2.71642,-1.28796 z"/>
        <path style="fill:none;fill-rule:evenodd;stroke:#000000;stroke-width:0.291041px;stroke-linecap:butt;stroke-linejoin:miter;stroke-opacity:1" d="m 70,35 -10e-7,1.84447"/>
        <g transform="matrix(0.95262806,0.55000004,-0.55000004,0.95262806,48.704567,-303.07345)">
          <path style="fill:none;stroke:#000000;stroke-width:0.502327px;stroke-linecap:butt;stroke-linejoin:miter;stroke-opacity:1" d="m 167.00352,253.099 -0.56779,-0.1128 h -1.49055 -0.5213"/>
          <path style="fill:#ffffff;stroke:#000000;stroke-width:0.251163;stroke-miterlimit:4;stroke-dashoffset:0;stroke-opacity:1" d="m 166.35338,253.0064 c 0.0707,0.11478 0.11151,0.24996 0.11151,0.39468 0,0.41612 -0.33734,0.75349 -0.75348,0.75349 -0.41617,0 -0.75351,-0.33737 -0.75351,-0.75349 0,-0.14864 0.0431,-0.28728 0.11738,-0.40402 z"/>
          <circle style="fill:#000000;fill-opacity:1;fill-rule:nonzero;stroke:#000000;stroke-width:0.303907;stroke-miterlimit:4;stroke-dasharray:none;stroke-dashoffset:0;stroke-opacity:1" cx="165.67952" cy="253.4911" r="0.3039076"/>
        </g>
        <g transform="matrix(0.95262806,-0.55000004,0.55000004,0.95262806,-229.29474,-118.0404)">
          <path style="fill:none;stroke:#000000;stroke-width:0.502327px;stroke-linecap:butt;stroke-linejoin:miter;stroke-opacity:1" d="m 169.51104,253.12188 0.49255,-0.13568 h 1.95518"/>
          <path style="fill:#ffffff;stroke:#000000;stroke-width:0.251163;stroke-miterlimit:4;stroke-dashoffset:0;stroke-opacity:1" d="m 171.37665,253.00635 c 0.0707,0.11478 0.11151,0.24995 0.11151,0.39468 0,0.41612 -0.33734,0.75349 -0.75351,0.75349 -0.41613,0 -0.75347,-0.33737 -0.75347,-0.75349 0,-0.14864 0.043,-0.28728 0.11737,-0.40403 z"/>
          <circle style="fill:#000000;fill-opacity:1;fill-rule:nonzero;stroke:#000000;stroke-width:0.303907;stroke-miterlimit:4;stroke-dasharray:none;stroke-dashoffset:0;stroke-opacity:1" cx="170.71872" cy="253.4911" r="0.3039076"/>
        </g>
        <path style="fill:none;fill-rule:evenodd;stroke:#000000;stroke-width:0.291041px;stroke-linecap:butt;stroke-linejoin:miter;stroke-opacity:1" d="m 69.206249,30.229887 v 2.38125 h 1.5875 v -2.38125"/>
        <path style="fill:#ffffff;fill-opacity:1;stroke:#ffffff;stroke-width:0.0064413;stroke-linecap:round;stroke-linejoin:round;stroke-dasharray:none;stroke-opacity:1" d="m 74.012992,33.326188 c 0.01834,0.04213 -0.08447,-0.107618 -0.07408,-0.06201 0.02504,0.184775 0.05546,0.369304 0.07101,0.555113 -0.01746,0.01754 -0.04417,-0.01912 -0.06409,-0.02266 -0.164586,-0.08974 -0.326629,-0.184919 -0.493904,-0.269031 0.02365,0.206543 0.119218,0.519312 0.13974,0.726354 -0.01741,0.01644 -0.04139,-0.01747 -0.06041,-0.02045 -0.166168,-0.08823 -0.280183,-0.08924 -0.444022,-0.171432 0.02381,0.208086 5.69e-4,0.315852 0.02841,0.523627 -0.02235,0.02107 -0.06184,-0.02979 -0.09006,-0.03603 -0.157859,-0.08706 -0.318277,-0.106261 -0.45038,-0.229021 -0.03206,0.204903 -0.08104,0.300123 -0.114197,0.504883 -0.01938,0.01612 -0.03689,-0.02386 -0.05364,-0.03213 -0.138513,-0.130631 -0.245427,-0.156849 -0.383688,-0.287749 -0.03091,0.208075 -0.08402,0.305771 -0.113275,0.514232 -0.025,0.01482 -0.04764,-0.03956 -0.07069,-0.05226 -0.130609,-0.127776 -0.235619,-0.152721 -0.366578,-0.275522 -0.03418,0.201862 -0.07794,0.295284 -0.116303,0.496326 -0.0085,0.03077 -0.03704,-0.0012 -0.04661,-0.013 -0.138397,-0.134762 -0.272067,-0.274491 -0.41479,-0.404714 -0.03387,0.204781 -0.0537,0.412996 -0.09292,0.617064 -0.0235,0.0084 -0.03809,-0.03157 -0.05739,-0.0409 -0.158028,-0.153742 -0.272479,-0.08866 -0.429135,-0.24381 0.0045,-0.03003 0.06386,-0.0248 0.08831,-0.04134 0.07665,-0.02646 0.156405,-0.05217 0.233567,-0.07241 0.237602,-0.08862 0.481184,-0.160975 0.721268,-0.24275 0.96055,-0.316495 1.806473,-0.857302 2.647005,-1.419694 l 0.0059,-6.13e-4 z"/>
        <path style="fill:#ffffff;fill-opacity:1;stroke:#ffffff;stroke-width:0.0064413;stroke-linecap:round;stroke-linejoin:round;stroke-dasharray:none;stroke-opacity:1" d="m 66.058691,33.326188 c -0.01834,0.04213 0.08447,-0.107618 0.07408,-0.06201 -0.02504,0.184775 -0.05546,0.369304 -0.07101,0.555113 0.01746,0.01754 0.04417,-0.01912 0.06409,-0.02266 0.164586,-0.08974 0.326629,-0.184919 0.493904,-0.269031 -0.02365,0.206543 -0.119218,0.519312 -0.13974,0.726354 0.01741,0.01644 0.04139,-0.01747 0.06041,-0.02045 0.166168,-0.08823 0.280183,-0.08924 0.444022,-0.171432 -0.02381,0.208086 -5.69e-4,0.315852 -0.02841,0.523627 0.02235,0.02107 0.06184,-0.02979 0.09006,-0.03603 0.157859,-0.08706 0.318277,-0.106261 0.45038,-0.229021 0.03206,0.204903 0.08104,0.300123 0.114197,0.504883 0.01938,0.01612 0.03689,-0.02386 0.05364,-0.03213 0.138513,-0.130631 0.245427,-0.156849 0.383688,-0.287749 0.03091,0.208075 0.08402,0.305771 0.113275,0.514232 0.025,0.01482 0.04764,-0.03956 0.07069,-0.05226 0.130609,-0.127776 0.235619,-0.152721 0.366578,-0.275522 0.03418,0.201862 0.07794,0.295284 0.116303,0.496326 0.0085,0.03077 0.03704,-0.0012 0.04661,-0.013 0.138397,-0.134762 0.272067,-0.274491 0.41479,-0.404714 0.03387,0.204781 0.0537,0.412996 0.09292,0.617064 0.0235,0.0084 0.03809,-0.03157 0.05739,-0.0409 0.158028,-0.153742 0.272479,-0.08866 0.429135,-0.24381 -0.0045,-0.03003 -0.06386,-0.0248 -0.08831,-0.04134 -0.07665,-0.02646 -0.156405,-0.05217 -0.233567,-0.07241 -0.237602,-0.08862 -0.481184,-0.160975 -0.721268,-0.24275 -0.96055,-0.316495 -1.806473,-0.857302 -2.647005,-1.419694 l -0.0059,-6.13e-4 z"/>
        <path style="fill:none;fill-rule:evenodd;stroke:#000000;stroke-width:0.291041px;stroke-linecap:butt;stroke-linejoin:miter;stroke-opacity:1" d="M 65.634376,32.86968 67,34 c 0,0 1.972107,1 3,1 1.02789,0 3,-1 3,-1 l 1.365626,-1.13032"/>
      </g>
      <g transform="matrix(0.97741527,-0.21132769,-0.21132769,-0.97741527,30.656486,288.40274)">
        <path style="fill:#999999;fill-rule:evenodd;stroke:#000000;stroke-width:0.264583px;stroke-linecap:butt;stroke-linejoin:miter;stroke-opacity:1" d="m 64.405274,140.76084 c -0.22426,0.51848 -0.0899,0.70321 -0.935443,1.54348 l 1.099146,0.86528 c 0.392675,-0.0207 0.511465,-0.86217 0.841897,-1.94104 z"/>
        <circle style="fill:#ff0000;fill-opacity:1;stroke:#000000;stroke-width:0.132292;stroke-linecap:round;stroke-linejoin:round;stroke-dasharray:none;stroke-opacity:1" cx="64.32682" cy="142.41197" r="0.18190104"/>
        <circle style="display:inline;fill:#000080;fill-opacity:1;stroke:#000000;stroke-width:0.132292;stroke-linecap:round;stroke-linejoin:round;stroke-dasharray:none;stroke-opacity:1" cx="64.773308" cy="141.7836" r="0.18190104"/>
      </g>
    </g></g></g></svg>