<svg xmlns="http://www.w3.org/2000/svg" xmlns:xlink="http://www.w3.org/1999/xlink" width="64" height="64" viewBox="0 0 64 64"><defs id="defs355716">
    <rect x="172" y="97" width="745" height="239" id="rect276290"/>
    <color-profile name="Agfa-:-Swop-Standard" xmlns:xlink="http://www.w3.org/1999/xlink" xlink:href="file:///C:/WINDOWS/system32/spool/drivers/color/RSWOP.icm" id="color-profile294613"/>
    <linearGradient xmlns:inkscape="http://www.inkscape.org/namespaces/inkscape" inkscape:collect="always" id="linearGradient140439">
      <stop style="stop-color:#a4a870;stop-opacity:1;" offset="0" id="stop140435"/>
      <stop style="stop-color:#a4a870;stop-opacity:0;" offset="1" id="stop140437"/>
    </linearGradient>
    <linearGradient xmlns:inkscape="http://www.inkscape.org/namespaces/inkscape" inkscape:collect="always" id="linearGradient140390">
      <stop style="stop-color:#359676;stop-opacity:1;" offset="0" id="stop140386"/>
      <stop style="stop-color:#4a6a5e;stop-opacity:0;" offset="1" id="stop140388"/>
    </linearGradient>
    <linearGradient xmlns:inkscape="http://www.inkscape.org/namespaces/inkscape" inkscape:collect="always" id="linearGradient139515">
      <stop style="stop-color:#dbd764;stop-opacity:1;" offset="0" id="stop139511"/>
      <stop style="stop-color:#dbd764;stop-opacity:0;" offset="0.56578946" id="stop139513"/>
    </linearGradient>
    <linearGradient xmlns:inkscape="http://www.inkscape.org/namespaces/inkscape" inkscape:collect="always" id="linearGradient139325">
      <stop style="stop-color:#161c16;stop-opacity:1;" offset="0" id="stop139321"/>
      <stop style="stop-color:#6e836c;stop-opacity:0;" offset="1" id="stop139323"/>
    </linearGradient>
    <linearGradient xmlns:inkscape="http://www.inkscape.org/namespaces/inkscape" inkscape:collect="always" id="linearGradient387614">
      <stop style="stop-color:#a4a870;stop-opacity:1;" offset="0" id="stop387610"/>
      <stop style="stop-color:#a4a870;stop-opacity:0;" offset="1" id="stop387612"/>
    </linearGradient>
    <linearGradient xmlns:inkscape="http://www.inkscape.org/namespaces/inkscape" inkscape:collect="always" id="linearGradient387421">
      <stop style="stop-color:#344533;stop-opacity:1;" offset="0" id="stop387417"/>
      <stop style="stop-color:#1d251d;stop-opacity:0;" offset="1" id="stop387419"/>
    </linearGradient>
    <linearGradient xmlns:inkscape="http://www.inkscape.org/namespaces/inkscape" inkscape:collect="always" xmlns:xlink="http://www.w3.org/1999/xlink" xlink:href="#linearGradient206680" id="linearGradient206682" x1="168.01042" y1="262.08701" x2="168.01042" y2="247.38542" gradientUnits="userSpaceOnUse"/>
    <linearGradient xmlns:inkscape="http://www.inkscape.org/namespaces/inkscape" inkscape:collect="always" id="linearGradient206680">
      <stop style="stop-color:#dbd764;stop-opacity:0;" offset="0.38377193" id="stop206678"/>
      <stop style="stop-color:#dbd764;stop-opacity:1;" offset="1" id="stop206676"/>
    </linearGradient>
    <linearGradient xmlns:inkscape="http://www.inkscape.org/namespaces/inkscape" inkscape:collect="always" xmlns:xlink="http://www.w3.org/1999/xlink" xlink:href="#linearGradient216292" id="linearGradient216294" x1="168.01042" y1="236.00833" x2="168.01042" y2="248.97292" gradientUnits="userSpaceOnUse" gradientTransform="translate(8.4073796,-0.78650088)"/>
    <linearGradient xmlns:inkscape="http://www.inkscape.org/namespaces/inkscape" inkscape:collect="always" id="linearGradient216292">
      <stop style="stop-color:#359676;stop-opacity:1;" offset="0" id="stop216288"/>
      <stop style="stop-color:#4a6a5f;stop-opacity:0;" offset="1" id="stop216290"/>
    </linearGradient>
    <linearGradient xmlns:inkscape="http://www.inkscape.org/namespaces/inkscape" inkscape:collect="always" xmlns:xlink="http://www.w3.org/1999/xlink" xlink:href="#linearGradient387421" id="linearGradient387423" x1="31.75" y1="155.31041" x2="31.921236" y2="171.18663" gradientUnits="userSpaceOnUse"/>
    <linearGradient xmlns:inkscape="http://www.inkscape.org/namespaces/inkscape" inkscape:collect="always" xmlns:xlink="http://www.w3.org/1999/xlink" xlink:href="#linearGradient387614" id="linearGradient387616" x1="45.011326" y1="158.73975" x2="51.59375" y2="162.71875" gradientUnits="userSpaceOnUse" gradientTransform="translate(2.9601329,-0.98671096)"/>
    <linearGradient xmlns:inkscape="http://www.inkscape.org/namespaces/inkscape" inkscape:collect="always" xmlns:xlink="http://www.w3.org/1999/xlink" xlink:href="#linearGradient387614" id="linearGradient387620" gradientUnits="userSpaceOnUse" x1="45.011326" y1="158.73975" x2="51.593746" y2="162.71875" gradientTransform="matrix(-1,0,0,1,108.79346,-0.98671096)"/>
    <linearGradient xmlns:inkscape="http://www.inkscape.org/namespaces/inkscape" inkscape:collect="always" xmlns:xlink="http://www.w3.org/1999/xlink" xlink:href="#linearGradient139325" id="linearGradient139327" x1="70" y1="21" x2="70" y2="37" gradientUnits="userSpaceOnUse"/>
    <linearGradient xmlns:inkscape="http://www.inkscape.org/namespaces/inkscape" inkscape:collect="always" xmlns:xlink="http://www.w3.org/1999/xlink" xlink:href="#linearGradient139515" id="linearGradient139517" x1="70.426315" y1="1.5429174" x2="70.46106" y2="18.249472" gradientUnits="userSpaceOnUse"/>
    <linearGradient xmlns:inkscape="http://www.inkscape.org/namespaces/inkscape" inkscape:collect="always" xmlns:xlink="http://www.w3.org/1999/xlink" xlink:href="#linearGradient140390" id="linearGradient140392" x1="90.084175" y1="1.3586814" x2="90" y2="16" gradientUnits="userSpaceOnUse"/>
    <linearGradient xmlns:inkscape="http://www.inkscape.org/namespaces/inkscape" inkscape:collect="always" xmlns:xlink="http://www.w3.org/1999/xlink" xlink:href="#linearGradient140439" id="linearGradient140441" x1="90.01368" y1="24.010059" x2="94.88681" y2="28.136377" gradientUnits="userSpaceOnUse"/>
    <linearGradient xmlns:inkscape="http://www.inkscape.org/namespaces/inkscape" inkscape:collect="always" xmlns:xlink="http://www.w3.org/1999/xlink" xlink:href="#linearGradient140439" id="linearGradient140449" gradientUnits="userSpaceOnUse" x1="90.01368" y1="24.010059" x2="94.88681" y2="28.136377" gradientTransform="matrix(-1,0,0,1,190,0)"/>
    <radialGradient xmlns:inkscape="http://www.inkscape.org/namespaces/inkscape" inkscape:collect="always" xmlns:xlink="http://www.w3.org/1999/xlink" xlink:href="#linearGradient177339" id="radialGradient177341-3-0" cx="44.135807" cy="121.46028" fx="44.135807" fy="121.46028" r="1.1079427" gradientTransform="matrix(1.5015971,0,0,0.99367432,-157.6034,-4.3351259)" gradientUnits="userSpaceOnUse"/>
    <linearGradient xmlns:inkscape="http://www.inkscape.org/namespaces/inkscape" inkscape:collect="always" id="linearGradient177339">
      <stop style="stop-color:#b98d3e;stop-opacity:1;" offset="0" id="stop177335"/>
      <stop style="stop-color:#c9c943;stop-opacity:0;" offset="1" id="stop177337"/>
    </linearGradient>
    <radialGradient xmlns:inkscape="http://www.inkscape.org/namespaces/inkscape" inkscape:collect="always" xmlns:xlink="http://www.w3.org/1999/xlink" xlink:href="#linearGradient177339" id="radialGradient177345-7-9" gradientUnits="userSpaceOnUse" gradientTransform="matrix(1.5015971,0,0,0.99367432,-195.50719,-68.761115)" cx="44.135807" cy="121.46028" fx="44.135807" fy="121.46028" r="1.1079427"/>
    <rect x="172" y="97" width="745" height="239" id="rect276290-2"/>
    <rect x="172" y="97" width="745" height="239" id="rect276290-2-5"/>
    <rect x="172" y="97" width="745" height="239" id="rect276290-2-5-7"/>
  </defs><g transform="translate(-364.4190314543067 -265.64866605933975) scale(2.460154057258998)"><g><g transform="matrix(-0.9025,0,0,0.9025,225.40904,-96.377713)">
      <g transform="translate(-103.99114,-27.556371)" style="fill:#b37b48;fill-opacity:1">
        <g transform="translate(90)" style="fill:#b37b48;fill-opacity:1">
          <g style="fill:#b37b48;fill-opacity:1" transform="matrix(0.5499883,-0.00358909,0.00358909,0.5499883,54.942691,217.19919)">
            <path style="fill:#b37b48;fill-opacity:1;fill-rule:evenodd;stroke:#000000;stroke-width:0.264583px;stroke-linecap:butt;stroke-linejoin:miter;stroke-opacity:1" d="m 59.437706,97.989374 2.629296,-2.64583"/>
            <path style="fill:#b37b48;fill-opacity:1;fill-rule:evenodd;stroke:#000000;stroke-width:0.264583px;stroke-linecap:butt;stroke-linejoin:miter;stroke-opacity:1" d="m 60.760622,94.020624 2.645833,2.64583"/>
            <path style="fill:#b37b48;fill-opacity:1;fill-rule:evenodd;stroke:#000000;stroke-width:0.264583px;stroke-linecap:butt;stroke-linejoin:miter;stroke-opacity:1" d="m 59.437705,95.343544 2.645833,-2.64584"/>
            <path style="fill:#b37b48;fill-opacity:1;fill-rule:evenodd;stroke:#000000;stroke-width:0.264583px;stroke-linecap:butt;stroke-linejoin:miter;stroke-opacity:1" d="m 63.406455,94.020624 -2.645833,-2.64583"/>
            <path style="fill:#b37b48;fill-opacity:1;fill-rule:evenodd;stroke:#000000;stroke-width:0.264583px;stroke-linecap:butt;stroke-linejoin:miter;stroke-opacity:1" d="m 59.437705,92.697704 2.645833,-2.645831"/>
            <path style="fill:#b37b48;fill-opacity:1;fill-rule:evenodd;stroke:#000000;stroke-width:0.264583px;stroke-linecap:butt;stroke-linejoin:miter;stroke-opacity:1" d="m 62.083539,90.051874 1.322916,1.32292 0.529167,1.32291 -0.529167,1.32292 0.529167,1.32292 -0.529166,1.32291"/>
            <path style="fill:#b37b48;fill-opacity:1;fill-rule:evenodd;stroke:#000000;stroke-width:0.264583px;stroke-linecap:butt;stroke-linejoin:miter;stroke-opacity:1" d="m 59.437705,92.697704 -0.529166,1.32292 0.529166,1.37253 -0.529166,1.2733 0.529166,1.32292"/>
            <path style="fill:#b37b48;fill-opacity:1;fill-rule:evenodd;stroke:#000000;stroke-width:0.264583px;stroke-linecap:butt;stroke-linejoin:miter;stroke-opacity:1" d="m 59.437707,103.28104 2.629296,-2.64583"/>
            <path style="fill:#b37b48;fill-opacity:1;fill-rule:evenodd;stroke:#000000;stroke-width:0.264583px;stroke-linecap:butt;stroke-linejoin:miter;stroke-opacity:1" d="m 60.760623,99.312294 2.645833,2.645826"/>
            <path style="fill:#b37b48;fill-opacity:1;fill-rule:evenodd;stroke:#000000;stroke-width:0.264583px;stroke-linecap:butt;stroke-linejoin:miter;stroke-opacity:1" d="m 59.437706,100.63521 2.645833,-2.645836"/>
            <path style="fill:#b37b48;fill-opacity:1;fill-rule:evenodd;stroke:#000000;stroke-width:0.264583px;stroke-linecap:butt;stroke-linejoin:miter;stroke-opacity:1" d="m 63.406456,99.312294 -2.645833,-2.64583"/>
            <path style="fill:#b37b48;fill-opacity:1;fill-rule:evenodd;stroke:#000000;stroke-width:0.264583px;stroke-linecap:butt;stroke-linejoin:miter;stroke-opacity:1" d="m 59.437706,97.989374 2.645833,-2.64583"/>
            <path style="fill:#b37b48;fill-opacity:1;fill-rule:evenodd;stroke:#000000;stroke-width:0.264583px;stroke-linecap:butt;stroke-linejoin:miter;stroke-opacity:1" d="m 62.08354,95.343544 1.322916,1.32292 0.529167,1.32291 -0.529167,1.32292 0.529167,1.322916 -0.529166,1.32291"/>
            <path style="fill:#b37b48;fill-opacity:1;fill-rule:evenodd;stroke:#000000;stroke-width:0.264583px;stroke-linecap:butt;stroke-linejoin:miter;stroke-opacity:1" d="m 59.437706,97.989374 -0.529166,1.32292 0.529166,1.372526 -0.529166,1.2733 0.529166,1.32292"/>
            <path style="fill:#b37b48;fill-opacity:1;fill-rule:evenodd;stroke:#000000;stroke-width:0.264583px;stroke-linecap:butt;stroke-linejoin:miter;stroke-opacity:1" d="m 59.437706,108.5727 2.629296,-2.64583"/>
            <path style="fill:#b37b48;fill-opacity:1;fill-rule:evenodd;stroke:#000000;stroke-width:0.264583px;stroke-linecap:butt;stroke-linejoin:miter;stroke-opacity:1" d="m 60.760622,104.60395 2.645833,2.64583"/>
            <path style="fill:#b37b48;fill-opacity:1;fill-rule:evenodd;stroke:#000000;stroke-width:0.264583px;stroke-linecap:butt;stroke-linejoin:miter;stroke-opacity:1" d="m 59.437705,105.92687 2.645833,-2.64584"/>
            <path style="fill:#b37b48;fill-opacity:1;fill-rule:evenodd;stroke:#000000;stroke-width:0.264583px;stroke-linecap:butt;stroke-linejoin:miter;stroke-opacity:1" d="m 63.406455,104.60395 -2.645833,-2.64583"/>
            <path style="fill:#b37b48;fill-opacity:1;fill-rule:evenodd;stroke:#000000;stroke-width:0.264583px;stroke-linecap:butt;stroke-linejoin:miter;stroke-opacity:1" d="m 59.437705,103.28103 2.645833,-2.64583"/>
            <path style="fill:#b37b48;fill-opacity:1;fill-rule:evenodd;stroke:#000000;stroke-width:0.264583px;stroke-linecap:butt;stroke-linejoin:miter;stroke-opacity:1" d="m 62.083539,100.6352 1.322916,1.32292 0.529167,1.32291 -0.529167,1.32292 0.529167,1.32292 -0.529166,1.32291"/>
            <path style="fill:#b37b48;fill-opacity:1;fill-rule:evenodd;stroke:#000000;stroke-width:0.264583px;stroke-linecap:butt;stroke-linejoin:miter;stroke-opacity:1" d="m 59.437705,103.28103 -0.529166,1.32292 0.529166,1.37253 -0.529166,1.2733 0.529166,1.32292"/>
            <path style="fill:#b37b48;fill-opacity:1;fill-rule:evenodd;stroke:#000000;stroke-width:0.264583px;stroke-linecap:butt;stroke-linejoin:miter;stroke-opacity:1" d="m 59.437707,113.86437 2.474793,2.5523"/>
            <path style="fill:#b37b48;fill-opacity:1;fill-rule:evenodd;stroke:#000000;stroke-width:0.264583px;stroke-linecap:butt;stroke-linejoin:miter;stroke-opacity:1" d="m 61.9125,116.41667 2.116667,-2.64584 0.529166,-1.32291"/>
            <path style="fill:#b37b48;fill-opacity:1;fill-rule:evenodd;stroke:#000000;stroke-width:0.264583px;stroke-linecap:butt;stroke-linejoin:miter;stroke-opacity:1" d="m 59.437706,111.21854 2.645833,-2.64584"/>
            <path style="fill:#b37b48;fill-opacity:1;fill-rule:evenodd;stroke:#000000;stroke-width:0.264583px;stroke-linecap:butt;stroke-linejoin:miter;stroke-opacity:1" d="m 63.406456,109.89562 -2.645833,-2.64583"/>
            <path style="fill:#b37b48;fill-opacity:1;fill-rule:evenodd;stroke:#000000;stroke-width:0.264583px;stroke-linecap:butt;stroke-linejoin:miter;stroke-opacity:1" d="m 59.437706,108.5727 2.645833,-2.64583"/>
            <path style="fill:#b37b48;fill-opacity:1;fill-rule:evenodd;stroke:#000000;stroke-width:0.264583px;stroke-linecap:butt;stroke-linejoin:miter;stroke-opacity:1" d="m 62.08354,105.92687 1.322916,1.32292 0.529167,1.32291 -0.529167,1.32292 0.358127,1.49396 0.79375,1.05834"/>
            <path style="fill:#b37b48;fill-opacity:1;fill-rule:evenodd;stroke:#000000;stroke-width:0.264583px;stroke-linecap:butt;stroke-linejoin:miter;stroke-opacity:1" d="m 59.437706,108.5727 -0.529166,1.32292 0.529166,1.37253 -0.529166,1.2733 0.529166,1.32292"/>
          </g>
          <path style="fill:#b37b48;fill-opacity:1;stroke:#000000;stroke-width:0.0182188;stroke-linecap:round;stroke-linejoin:miter;stroke-dasharray:none;stroke-opacity:1" d="m 89.106574,266.92588 c -0.09958,0.10459 -0.20978,0.20485 -0.302901,0.31201 0.44022,0.42683 0.865456,0.87226 1.319937,1.28255 0.08737,-0.18337 0.15463,-0.37978 0.230314,-0.56892 -0.098,-0.22684 -0.178092,-0.46543 -0.286493,-0.68535 -0.219863,-0.21428 -0.435451,-0.43891 -0.657934,-0.6468 -0.100974,0.10219 -0.201947,0.20438 -0.302943,0.30652 z"/>
          <path style="fill:#b37b48;fill-opacity:1;stroke:#000000;stroke-width:0.0182188;stroke-linecap:round;stroke-linejoin:miter;stroke-dasharray:none;stroke-opacity:1" d="m 88.685895,267.35174 c -0.219128,0.2303 -0.455656,0.44923 -0.66419,0.68646 -0.08579,0.22118 -0.174375,0.44185 -0.258449,0.66335 0.07916,0.18973 0.144,0.38731 0.236126,0.57073 0.444499,-0.42417 0.870154,-0.87446 1.305884,-1.31007 -0.199133,-0.2053 -0.411199,-0.41445 -0.619331,-0.61049 z"/>
          <path style="fill:#b37b48;fill-opacity:1;stroke:#000000;stroke-width:0.0182188;stroke-linecap:round;stroke-linejoin:miter;stroke-dasharray:none;stroke-opacity:1" d="m 89.11607,268.38106 c -0.09958,0.10458 -0.20978,0.20484 -0.302901,0.312 0.44022,0.42683 0.865456,0.87227 1.319938,1.28256 0.08737,-0.18337 0.154629,-0.37978 0.230313,-0.56893 -0.09799,-0.22684 -0.178087,-0.46542 -0.286493,-0.68534 -0.219862,-0.21428 -0.435451,-0.43891 -0.657934,-0.6468 -0.100973,0.10219 -0.201947,0.20438 -0.302943,0.30652 z"/>
          <path style="fill:#b37b48;fill-opacity:1;stroke:#000000;stroke-width:0.0182188;stroke-linecap:round;stroke-linejoin:miter;stroke-dasharray:none;stroke-opacity:1" d="m 88.378335,269.12849 c -0.125711,0.15175 -0.319573,0.25849 -0.373707,0.45759 -0.07664,0.18937 -0.156163,0.37817 -0.230969,0.56791 0.07784,0.1813 0.144362,0.37101 0.228488,0.54776 0.102514,-0.0331 0.167796,-0.14584 0.251527,-0.21165 0.354258,-0.35781 0.714854,-0.71533 1.060825,-1.0776 -0.206649,-0.20055 -0.409035,-0.41155 -0.618298,-0.60563 -0.105965,0.10717 -0.211895,0.21441 -0.317846,0.32161 z"/>
          <path style="fill:#b37b48;fill-opacity:1;stroke:#000000;stroke-width:0.0182188;stroke-linecap:round;stroke-linejoin:miter;stroke-dasharray:none;stroke-opacity:1" d="m 89.125566,269.83624 c -0.09958,0.10458 -0.20978,0.20484 -0.3029,0.312 0.440219,0.42683 0.865456,0.87226 1.319937,1.28256 0.08737,-0.18337 0.154634,-0.37977 0.230313,-0.56893 -0.09799,-0.22684 -0.178087,-0.46542 -0.286493,-0.68534 -0.219862,-0.21428 -0.435451,-0.43892 -0.657933,-0.64681 -0.100974,0.1022 -0.201948,0.20439 -0.302944,0.30653 z"/>
          <path style="fill:#b37b48;fill-opacity:1;stroke:#000000;stroke-width:0.0182188;stroke-linecap:round;stroke-linejoin:miter;stroke-dasharray:none;stroke-opacity:1" d="m 88.704887,270.26209 c -0.219127,0.23031 -0.455656,0.44924 -0.66419,0.68646 -0.0858,0.22119 -0.174374,0.44185 -0.258449,0.66335 0.07916,0.18973 0.144,0.38732 0.236126,0.57073 0.4445,-0.42416 0.870144,-0.87445 1.305884,-1.31006 -0.199132,-0.20531 -0.411199,-0.41445 -0.619331,-0.6105 z"/>
          <path style="fill:#b37b48;fill-opacity:1;stroke:#000000;stroke-width:0.0182188;stroke-linecap:round;stroke-linejoin:miter;stroke-dasharray:none;stroke-opacity:1" d="m 89.135067,271.29143 c -0.09958,0.10458 -0.209824,0.20474 -0.302905,0.31199 0.44022,0.42683 0.865446,0.87226 1.319937,1.28255 0.08737,-0.18337 0.154634,-0.37977 0.230314,-0.56892 -0.09799,-0.22684 -0.178088,-0.46542 -0.286493,-0.68534 -0.219863,-0.21429 -0.435452,-0.43892 -0.657934,-0.64681 -0.100974,0.10219 -0.201948,0.20438 -0.302939,0.30653 z"/>
          <path style="fill:#b37b48;fill-opacity:1;stroke:#000000;stroke-width:0.0182188;stroke-linecap:round;stroke-linejoin:miter;stroke-dasharray:none;stroke-opacity:1" d="m 88.397327,272.03884 c -0.125711,0.15176 -0.319573,0.25849 -0.373706,0.4576 -0.07664,0.18936 -0.156164,0.37816 -0.23097,0.5679 0.07784,0.18132 0.144362,0.37101 0.228489,0.54777 0.102513,-0.0331 0.167796,-0.14584 0.251517,-0.21165 0.354263,-0.35783 0.714859,-0.71535 1.06083,-1.07762 -0.206649,-0.20054 -0.409031,-0.41153 -0.618298,-0.60563 -0.105965,0.10717 -0.211895,0.21442 -0.317846,0.32161 z"/>
          <path style="fill:#b37b48;fill-opacity:1;stroke:#000000;stroke-width:0.0182188;stroke-linecap:round;stroke-linejoin:miter;stroke-dasharray:none;stroke-opacity:1" d="m 89.144563,272.7466 c -0.09958,0.10458 -0.209824,0.20474 -0.302905,0.31199 0.44022,0.42683 0.865446,0.87227 1.319937,1.28256 0.08737,-0.18337 0.154634,-0.37977 0.230314,-0.56893 -0.09799,-0.22684 -0.178088,-0.46541 -0.286493,-0.68534 -0.219863,-0.21428 -0.435451,-0.43891 -0.657934,-0.6468 -0.100974,0.10219 -0.201947,0.20438 -0.302939,0.30653 z"/>
          <path style="fill:#b37b48;fill-opacity:1;stroke:#000000;stroke-width:0.0182188;stroke-linecap:round;stroke-linejoin:miter;stroke-dasharray:none;stroke-opacity:1" d="m 88.72388,273.17245 c -0.219127,0.2303 -0.455656,0.44923 -0.66419,0.68646 -0.0858,0.22118 -0.174374,0.44184 -0.258449,0.66334 0.07916,0.18973 0.144,0.38732 0.236126,0.57073 0.4445,-0.42416 0.870144,-0.87445 1.305884,-1.31006 -0.199133,-0.20531 -0.411199,-0.41445 -0.619331,-0.61049 z"/>
          <path style="fill:#b37b48;fill-opacity:1;stroke:#000000;stroke-width:0.0182188;stroke-linecap:round;stroke-linejoin:miter;stroke-dasharray:none;stroke-opacity:1" d="m 89.15406,274.20178 c -0.09958,0.10458 -0.20978,0.20484 -0.302906,0.31199 0.44022,0.42683 0.865446,0.87227 1.319938,1.28256 0.08737,-0.18337 0.154634,-0.37977 0.230313,-0.56893 -0.09799,-0.22684 -0.178087,-0.46542 -0.286493,-0.68534 -0.219862,-0.21428 -0.435451,-0.43891 -0.657933,-0.64681 -0.100974,0.1022 -0.201948,0.20439 -0.30294,0.30654 z"/>
          <path style="fill:#b37b48;fill-opacity:1;stroke:#000000;stroke-width:0.0182188;stroke-linecap:round;stroke-linejoin:miter;stroke-dasharray:none;stroke-opacity:1" d="m 88.416324,274.94921 c -0.125711,0.15175 -0.319583,0.25849 -0.37371,0.45758 -0.07664,0.18937 -0.156164,0.37816 -0.23097,0.56791 0.07784,0.18131 0.144362,0.37101 0.228488,0.54776 0.102514,-0.0331 0.167796,-0.14584 0.251517,-0.21164 0.354263,-0.35783 0.714859,-0.71535 1.060831,-1.07762 -0.20665,-0.20055 -0.409031,-0.41154 -0.618309,-0.60563 -0.105955,0.10716 -0.211884,0.21441 -0.317831,0.32162 z"/>
          <path style="fill:#b37b48;fill-opacity:1;stroke:#000000;stroke-width:0.0182188;stroke-linecap:round;stroke-linejoin:miter;stroke-dasharray:none;stroke-opacity:1" d="m 89.163556,275.65696 c -0.09959,0.10458 -0.20978,0.20484 -0.302905,0.31199 0.44022,0.42683 0.865446,0.87226 1.319937,1.28255 0.08737,-0.18337 0.154634,-0.37977 0.230313,-0.56892 -0.09799,-0.22684 -0.178087,-0.46542 -0.286493,-0.68534 -0.219862,-0.21429 -0.435451,-0.43892 -0.657933,-0.64681 -0.100974,0.10219 -0.201948,0.20438 -0.302939,0.30654 z"/>
          <path style="fill:#b37b48;fill-opacity:1;stroke:#000000;stroke-width:0.0182188;stroke-linecap:round;stroke-linejoin:miter;stroke-dasharray:none;stroke-opacity:1" d="m 88.742872,276.0828 c -0.219127,0.23031 -0.455655,0.44924 -0.664185,0.68647 -0.08564,0.22079 -0.174037,0.44106 -0.257999,0.66216 0.0403,0.0992 0.07418,0.2032 0.117456,0.2999 0.134309,-0.001 0.269226,5e-5 0.403153,-0.003 0.338991,-0.34724 0.688305,-0.6903 1.020802,-1.0402 -0.206916,-0.20034 -0.409718,-0.41119 -0.619265,-0.60499 z"/>
          <path style="fill:#b37b48;fill-opacity:1;stroke:#000000;stroke-width:0.0182188;stroke-linecap:round;stroke-linejoin:miter;stroke-dasharray:none;stroke-opacity:1" d="m 89.023859,277.26329 c -0.146884,0.15523 -0.314891,0.30651 -0.44875,0.46429 0.541861,-0.007 1.089743,-9e-4 1.627846,-0.0153 -0.03409,-0.12051 -0.02721,-0.26396 -0.147764,-0.33657 -0.193944,-0.18869 -0.38361,-0.38775 -0.5802,-0.57002 -0.150493,0.15261 -0.301018,0.30516 -0.451525,0.45775 z"/>
          <path style="fill:#b37b48;fill-opacity:1;stroke:#000000;stroke-width:0.0182188;stroke-linecap:round;stroke-linejoin:miter;stroke-dasharray:none;stroke-opacity:1" d="m 89.23902,278.46579 c -0.414231,0.006 -0.830401,0.005 -1.243426,0.0151 -0.05473,0.13454 -0.112408,0.26838 -0.165319,0.40322 0.09981,0.23094 0.183249,0.47274 0.293621,0.69683 0.427408,0.42772 0.839033,0.87303 1.282102,1.2841 0.378985,-0.44428 0.731751,-0.91582 1.097886,-1.37263 0.08585,-0.22387 0.176884,-0.44716 0.259526,-0.6714 -0.09513,-0.12227 -0.187616,-0.24778 -0.28443,-0.36803 -0.41331,0.004 -0.826614,0.008 -1.23992,0.0128 z"/>
        </g>
        <g transform="translate(90)" style="fill:#b37b48;fill-opacity:1">
          <g style="fill:#b37b48;fill-opacity:1" transform="matrix(0.5499883,-0.00358909,0.00358909,0.5499883,47.005601,217.19919)">
            <path style="fill:#b37b48;fill-opacity:1;fill-rule:evenodd;stroke:#000000;stroke-width:0.264583px;stroke-linecap:butt;stroke-linejoin:miter;stroke-opacity:1" d="m 59.437706,97.989374 2.629296,-2.64583"/>
            <path style="fill:#b37b48;fill-opacity:1;fill-rule:evenodd;stroke:#000000;stroke-width:0.264583px;stroke-linecap:butt;stroke-linejoin:miter;stroke-opacity:1" d="m 60.760622,94.020624 2.645833,2.64583"/>
            <path style="fill:#b37b48;fill-opacity:1;fill-rule:evenodd;stroke:#000000;stroke-width:0.264583px;stroke-linecap:butt;stroke-linejoin:miter;stroke-opacity:1" d="m 59.437705,95.343544 2.645833,-2.64584"/>
            <path style="fill:#b37b48;fill-opacity:1;fill-rule:evenodd;stroke:#000000;stroke-width:0.264583px;stroke-linecap:butt;stroke-linejoin:miter;stroke-opacity:1" d="m 63.406455,94.020624 -2.645833,-2.64583"/>
            <path style="fill:#b37b48;fill-opacity:1;fill-rule:evenodd;stroke:#000000;stroke-width:0.264583px;stroke-linecap:butt;stroke-linejoin:miter;stroke-opacity:1" d="m 59.437705,92.697704 2.645833,-2.645831"/>
            <path style="fill:#b37b48;fill-opacity:1;fill-rule:evenodd;stroke:#000000;stroke-width:0.264583px;stroke-linecap:butt;stroke-linejoin:miter;stroke-opacity:1" d="m 62.083539,90.051874 1.322916,1.32292 0.529167,1.32291 -0.529167,1.32292 0.529167,1.32292 -0.529166,1.32291"/>
            <path style="fill:#b37b48;fill-opacity:1;fill-rule:evenodd;stroke:#000000;stroke-width:0.264583px;stroke-linecap:butt;stroke-linejoin:miter;stroke-opacity:1" d="m 59.437705,92.697704 -0.529166,1.32292 0.529166,1.37253 -0.529166,1.2733 0.529166,1.32292"/>
            <path style="fill:#b37b48;fill-opacity:1;fill-rule:evenodd;stroke:#000000;stroke-width:0.264583px;stroke-linecap:butt;stroke-linejoin:miter;stroke-opacity:1" d="m 59.437707,103.28104 2.629296,-2.64583"/>
            <path style="fill:#b37b48;fill-opacity:1;fill-rule:evenodd;stroke:#000000;stroke-width:0.264583px;stroke-linecap:butt;stroke-linejoin:miter;stroke-opacity:1" d="m 60.760623,99.312294 2.645833,2.645826"/>
            <path style="fill:#b37b48;fill-opacity:1;fill-rule:evenodd;stroke:#000000;stroke-width:0.264583px;stroke-linecap:butt;stroke-linejoin:miter;stroke-opacity:1" d="m 59.437706,100.63521 2.645833,-2.645836"/>
            <path style="fill:#b37b48;fill-opacity:1;fill-rule:evenodd;stroke:#000000;stroke-width:0.264583px;stroke-linecap:butt;stroke-linejoin:miter;stroke-opacity:1" d="m 63.406456,99.312294 -2.645833,-2.64583"/>
            <path style="fill:#b37b48;fill-opacity:1;fill-rule:evenodd;stroke:#000000;stroke-width:0.264583px;stroke-linecap:butt;stroke-linejoin:miter;stroke-opacity:1" d="m 59.437706,97.989374 2.645833,-2.64583"/>
            <path style="fill:#b37b48;fill-opacity:1;fill-rule:evenodd;stroke:#000000;stroke-width:0.264583px;stroke-linecap:butt;stroke-linejoin:miter;stroke-opacity:1" d="m 62.08354,95.343544 1.322916,1.32292 0.529167,1.32291 -0.529167,1.32292 0.529167,1.322916 -0.529166,1.32291"/>
            <path style="fill:#b37b48;fill-opacity:1;fill-rule:evenodd;stroke:#000000;stroke-width:0.264583px;stroke-linecap:butt;stroke-linejoin:miter;stroke-opacity:1" d="m 59.437706,97.989374 -0.529166,1.32292 0.529166,1.372526 -0.529166,1.2733 0.529166,1.32292"/>
            <path style="fill:#b37b48;fill-opacity:1;fill-rule:evenodd;stroke:#000000;stroke-width:0.264583px;stroke-linecap:butt;stroke-linejoin:miter;stroke-opacity:1" d="m 59.437706,108.5727 2.629296,-2.64583"/>
            <path style="fill:#b37b48;fill-opacity:1;fill-rule:evenodd;stroke:#000000;stroke-width:0.264583px;stroke-linecap:butt;stroke-linejoin:miter;stroke-opacity:1" d="m 60.760622,104.60395 2.645833,2.64583"/>
            <path style="fill:#b37b48;fill-opacity:1;fill-rule:evenodd;stroke:#000000;stroke-width:0.264583px;stroke-linecap:butt;stroke-linejoin:miter;stroke-opacity:1" d="m 59.437705,105.92687 2.645833,-2.64584"/>
            <path style="fill:#b37b48;fill-opacity:1;fill-rule:evenodd;stroke:#000000;stroke-width:0.264583px;stroke-linecap:butt;stroke-linejoin:miter;stroke-opacity:1" d="m 63.406455,104.60395 -2.645833,-2.64583"/>
            <path style="fill:#b37b48;fill-opacity:1;fill-rule:evenodd;stroke:#000000;stroke-width:0.264583px;stroke-linecap:butt;stroke-linejoin:miter;stroke-opacity:1" d="m 59.437705,103.28103 2.645833,-2.64583"/>
            <path style="fill:#b37b48;fill-opacity:1;fill-rule:evenodd;stroke:#000000;stroke-width:0.264583px;stroke-linecap:butt;stroke-linejoin:miter;stroke-opacity:1" d="m 62.083539,100.6352 1.322916,1.32292 0.529167,1.32291 -0.529167,1.32292 0.529167,1.32292 -0.529166,1.32291"/>
            <path style="fill:#b37b48;fill-opacity:1;fill-rule:evenodd;stroke:#000000;stroke-width:0.264583px;stroke-linecap:butt;stroke-linejoin:miter;stroke-opacity:1" d="m 59.437705,103.28103 -0.529166,1.32292 0.529166,1.37253 -0.529166,1.2733 0.529166,1.32292"/>
            <path style="fill:#b37b48;fill-opacity:1;fill-rule:evenodd;stroke:#000000;stroke-width:0.264583px;stroke-linecap:butt;stroke-linejoin:miter;stroke-opacity:1" d="m 59.437707,113.86437 2.474793,2.5523"/>
            <path style="fill:#b37b48;fill-opacity:1;fill-rule:evenodd;stroke:#000000;stroke-width:0.264583px;stroke-linecap:butt;stroke-linejoin:miter;stroke-opacity:1" d="m 61.9125,116.41667 2.116667,-2.64584 0.529166,-1.32291"/>
            <path style="fill:#b37b48;fill-opacity:1;fill-rule:evenodd;stroke:#000000;stroke-width:0.264583px;stroke-linecap:butt;stroke-linejoin:miter;stroke-opacity:1" d="m 59.437706,111.21854 2.645833,-2.64584"/>
            <path style="fill:#b37b48;fill-opacity:1;fill-rule:evenodd;stroke:#000000;stroke-width:0.264583px;stroke-linecap:butt;stroke-linejoin:miter;stroke-opacity:1" d="m 63.406456,109.89562 -2.645833,-2.64583"/>
            <path style="fill:#b37b48;fill-opacity:1;fill-rule:evenodd;stroke:#000000;stroke-width:0.264583px;stroke-linecap:butt;stroke-linejoin:miter;stroke-opacity:1" d="m 59.437706,108.5727 2.645833,-2.64583"/>
            <path style="fill:#b37b48;fill-opacity:1;fill-rule:evenodd;stroke:#000000;stroke-width:0.264583px;stroke-linecap:butt;stroke-linejoin:miter;stroke-opacity:1" d="m 62.08354,105.92687 1.322916,1.32292 0.529167,1.32291 -0.529167,1.32292 0.358127,1.49396 0.79375,1.05834"/>
            <path style="fill:#b37b48;fill-opacity:1;fill-rule:evenodd;stroke:#000000;stroke-width:0.264583px;stroke-linecap:butt;stroke-linejoin:miter;stroke-opacity:1" d="m 59.437706,108.5727 -0.529166,1.32292 0.529166,1.37253 -0.529166,1.2733 0.529166,1.32292"/>
          </g>
          <path style="fill:#b37b48;fill-opacity:1;stroke:#000000;stroke-width:0.0182188;stroke-linecap:round;stroke-linejoin:miter;stroke-dasharray:none;stroke-opacity:1" d="m 81.169484,266.92588 c -0.09958,0.10459 -0.20978,0.20485 -0.302901,0.31201 0.44022,0.42683 0.865456,0.87226 1.319937,1.28255 0.08737,-0.18337 0.15463,-0.37978 0.230314,-0.56892 -0.09799,-0.22684 -0.178092,-0.46543 -0.286493,-0.68535 -0.219863,-0.21428 -0.435451,-0.43891 -0.657934,-0.6468 -0.100974,0.10219 -0.201947,0.20438 -0.302943,0.30652 z"/>
          <path style="fill:#b37b48;fill-opacity:1;stroke:#000000;stroke-width:0.0182188;stroke-linecap:round;stroke-linejoin:miter;stroke-dasharray:none;stroke-opacity:1" d="m 80.748805,267.35174 c -0.219128,0.2303 -0.455656,0.44923 -0.66419,0.68646 -0.08579,0.22118 -0.174375,0.44185 -0.258449,0.66335 0.07916,0.18973 0.144,0.38731 0.236126,0.57073 0.444499,-0.42417 0.870154,-0.87446 1.305884,-1.31007 -0.199133,-0.2053 -0.411199,-0.41445 -0.619331,-0.61049 z"/>
          <path style="fill:#b37b48;fill-opacity:1;stroke:#000000;stroke-width:0.0182188;stroke-linecap:round;stroke-linejoin:miter;stroke-dasharray:none;stroke-opacity:1" d="m 81.17898,268.38106 c -0.09958,0.10458 -0.20978,0.20484 -0.302901,0.312 0.44022,0.42683 0.865456,0.87227 1.319938,1.28256 0.08737,-0.18337 0.154629,-0.37978 0.230313,-0.56893 -0.09799,-0.22684 -0.178087,-0.46542 -0.286493,-0.68534 -0.219862,-0.21428 -0.435451,-0.43891 -0.657934,-0.6468 -0.100973,0.10219 -0.201947,0.20438 -0.302943,0.30652 z"/>
          <path style="fill:#b37b48;fill-opacity:1;stroke:#000000;stroke-width:0.0182188;stroke-linecap:round;stroke-linejoin:miter;stroke-dasharray:none;stroke-opacity:1" d="m 80.441245,269.12849 c -0.125711,0.15175 -0.319573,0.25849 -0.373707,0.45759 -0.07664,0.18937 -0.156163,0.37817 -0.230969,0.56791 0.07784,0.1813 0.144362,0.37101 0.228488,0.54776 0.102514,-0.0331 0.167796,-0.14584 0.251527,-0.21165 0.354258,-0.35781 0.714854,-0.71533 1.060825,-1.0776 -0.206649,-0.20055 -0.409035,-0.41155 -0.618298,-0.60563 -0.105965,0.10717 -0.211895,0.21441 -0.317846,0.32161 z"/>
          <path style="fill:#b37b48;fill-opacity:1;stroke:#000000;stroke-width:0.0182188;stroke-linecap:round;stroke-linejoin:miter;stroke-dasharray:none;stroke-opacity:1" d="m 81.188476,269.83624 c -0.09958,0.10458 -0.20978,0.20484 -0.3029,0.312 0.440219,0.42683 0.865456,0.87226 1.319937,1.28256 0.08737,-0.18337 0.154634,-0.37977 0.230313,-0.56893 -0.09799,-0.22684 -0.178087,-0.46542 -0.286493,-0.68534 -0.219862,-0.21428 -0.435451,-0.43892 -0.657933,-0.64681 -0.100974,0.1022 -0.201948,0.20439 -0.302944,0.30653 z"/>
          <path style="fill:#b37b48;fill-opacity:1;stroke:#000000;stroke-width:0.0182188;stroke-linecap:round;stroke-linejoin:miter;stroke-dasharray:none;stroke-opacity:1" d="m 80.767797,270.26209 c -0.219127,0.23031 -0.455656,0.44924 -0.66419,0.68646 -0.0858,0.22119 -0.174374,0.44185 -0.258449,0.66335 0.07916,0.18973 0.144,0.38732 0.236126,0.57073 0.4445,-0.42416 0.870144,-0.87445 1.305884,-1.31006 -0.199132,-0.20531 -0.411199,-0.41445 -0.619331,-0.6105 z"/>
          <path style="fill:#b37b48;fill-opacity:1;stroke:#000000;stroke-width:0.0182188;stroke-linecap:round;stroke-linejoin:miter;stroke-dasharray:none;stroke-opacity:1" d="m 81.197977,271.29143 c -0.09958,0.10458 -0.209824,0.20474 -0.302905,0.31199 0.44022,0.42683 0.865446,0.87226 1.319937,1.28255 0.08737,-0.18337 0.154634,-0.37977 0.230314,-0.56892 -0.09799,-0.22684 -0.178088,-0.46542 -0.286493,-0.68534 -0.219863,-0.21429 -0.435452,-0.43892 -0.657934,-0.64681 -0.100974,0.10219 -0.201948,0.20438 -0.302939,0.30653 z"/>
          <path style="fill:#b37b48;fill-opacity:1;stroke:#000000;stroke-width:0.0182188;stroke-linecap:round;stroke-linejoin:miter;stroke-dasharray:none;stroke-opacity:1" d="m 80.460237,272.03884 c -0.125711,0.15176 -0.319573,0.25849 -0.373706,0.4576 -0.07664,0.18936 -0.156164,0.37816 -0.23097,0.5679 0.07785,0.18132 0.144362,0.37101 0.228489,0.54777 0.102513,-0.0331 0.167796,-0.14584 0.251517,-0.21165 0.354263,-0.35783 0.714859,-0.71535 1.06083,-1.07762 -0.206649,-0.20054 -0.409031,-0.41153 -0.618298,-0.60563 -0.105965,0.10717 -0.211895,0.21442 -0.317846,0.32161 z"/>
          <path style="fill:#b37b48;fill-opacity:1;stroke:#000000;stroke-width:0.0182188;stroke-linecap:round;stroke-linejoin:miter;stroke-dasharray:none;stroke-opacity:1" d="m 81.207473,272.7466 c -0.09958,0.10458 -0.209824,0.20474 -0.302905,0.31199 0.44022,0.42683 0.865446,0.87227 1.319937,1.28256 0.08737,-0.18337 0.154634,-0.37977 0.230314,-0.56893 -0.09799,-0.22684 -0.178088,-0.46541 -0.286493,-0.68534 -0.219863,-0.21428 -0.435451,-0.43891 -0.657934,-0.6468 -0.100974,0.10219 -0.201947,0.20438 -0.302939,0.30653 z"/>
          <path style="fill:#b37b48;fill-opacity:1;stroke:#000000;stroke-width:0.0182188;stroke-linecap:round;stroke-linejoin:miter;stroke-dasharray:none;stroke-opacity:1" d="m 80.78679,273.17245 c -0.219127,0.2303 -0.455656,0.44923 -0.66419,0.68646 -0.0858,0.22118 -0.174374,0.44184 -0.258449,0.66334 0.07916,0.18973 0.144,0.38732 0.236126,0.57073 0.4445,-0.42416 0.870144,-0.87445 1.305884,-1.31006 -0.199133,-0.20531 -0.411199,-0.41445 -0.619331,-0.61049 z"/>
          <path style="fill:#b37b48;fill-opacity:1;stroke:#000000;stroke-width:0.0182188;stroke-linecap:round;stroke-linejoin:miter;stroke-dasharray:none;stroke-opacity:1" d="m 81.21697,274.20178 c -0.09958,0.10458 -0.20978,0.20484 -0.302906,0.31199 0.44022,0.42683 0.865446,0.87227 1.319938,1.28256 0.08737,-0.18337 0.154634,-0.37977 0.230313,-0.56893 -0.09799,-0.22684 -0.178087,-0.46542 -0.286493,-0.68534 -0.219862,-0.21428 -0.435451,-0.43891 -0.657933,-0.64681 -0.100974,0.1022 -0.201948,0.20439 -0.30294,0.30654 z"/>
          <path style="fill:#b37b48;fill-opacity:1;stroke:#000000;stroke-width:0.0182188;stroke-linecap:round;stroke-linejoin:miter;stroke-dasharray:none;stroke-opacity:1" d="m 80.479234,274.94921 c -0.125711,0.15175 -0.319583,0.25849 -0.37371,0.45758 -0.07664,0.18937 -0.156164,0.37816 -0.23097,0.56791 0.07784,0.18131 0.144362,0.37101 0.228488,0.54776 0.102514,-0.0331 0.167796,-0.14584 0.251517,-0.21164 0.354263,-0.35783 0.714859,-0.71535 1.060831,-1.07762 -0.20665,-0.20055 -0.409031,-0.41154 -0.618309,-0.60563 -0.105955,0.10716 -0.211884,0.21441 -0.317831,0.32162 z"/>
          <path style="fill:#b37b48;fill-opacity:1;stroke:#000000;stroke-width:0.0182188;stroke-linecap:round;stroke-linejoin:miter;stroke-dasharray:none;stroke-opacity:1" d="m 81.226466,275.65696 c -0.09959,0.10458 -0.20978,0.20484 -0.302905,0.31199 0.44022,0.42683 0.865446,0.87226 1.319937,1.28255 0.08737,-0.18337 0.154634,-0.37977 0.230313,-0.56892 -0.09799,-0.22684 -0.178087,-0.46542 -0.286493,-0.68534 -0.219862,-0.21429 -0.435451,-0.43892 -0.657933,-0.64681 -0.100974,0.10219 -0.201948,0.20438 -0.302939,0.30654 z"/>
          <path style="fill:#b37b48;fill-opacity:1;stroke:#000000;stroke-width:0.0182188;stroke-linecap:round;stroke-linejoin:miter;stroke-dasharray:none;stroke-opacity:1" d="m 80.805782,276.0828 c -0.219127,0.23031 -0.455655,0.44924 -0.664185,0.68647 -0.08564,0.22079 -0.174037,0.44106 -0.257999,0.66216 0.0403,0.0992 0.07418,0.2032 0.117456,0.2999 0.134309,-0.001 0.269226,5e-5 0.403153,-0.003 0.338991,-0.34724 0.688305,-0.6903 1.020802,-1.0402 -0.206916,-0.20034 -0.409718,-0.41119 -0.619265,-0.60499 z"/>
          <path style="fill:#b37b48;fill-opacity:1;stroke:#000000;stroke-width:0.0182188;stroke-linecap:round;stroke-linejoin:miter;stroke-dasharray:none;stroke-opacity:1" d="m 81.086769,277.26329 c -0.146884,0.15523 -0.314891,0.30651 -0.44875,0.46429 0.541861,-0.007 1.089743,-9e-4 1.627846,-0.0153 -0.03409,-0.12051 -0.02721,-0.26396 -0.147764,-0.33657 -0.193944,-0.18869 -0.38361,-0.38775 -0.5802,-0.57002 -0.150493,0.15261 -0.301018,0.30516 -0.451525,0.45775 z"/>
          <path style="fill:#b37b48;fill-opacity:1;stroke:#000000;stroke-width:0.0182188;stroke-linecap:round;stroke-linejoin:miter;stroke-dasharray:none;stroke-opacity:1" d="m 81.30193,278.46579 c -0.414231,0.006 -0.830401,0.005 -1.243426,0.0151 -0.05473,0.13454 -0.112408,0.26838 -0.165319,0.40322 0.09981,0.23094 0.183249,0.47274 0.293621,0.69683 0.427408,0.42772 0.839033,0.87303 1.282102,1.2841 0.378985,-0.44428 0.731751,-0.91582 1.097886,-1.37263 0.08585,-0.22387 0.176884,-0.44716 0.259526,-0.6714 -0.09513,-0.12227 -0.187616,-0.24778 -0.28443,-0.36803 -0.41331,0.004 -0.826614,0.008 -1.23992,0.0128 z"/>
        </g>
        <path style="fill:#b37b48;fill-opacity:1;fill-rule:evenodd;stroke:#000000;stroke-width:0.291041px;stroke-linecap:butt;stroke-linejoin:miter;stroke-opacity:1" d="m 168.22296,266.47543 c 0,0 -1.47938,-4.88961 -0.87311,-6.24415 0.78167,-1.74646 4.9477,-3.96875 4.9477,-3.96875 2.91041,-0.58209 2.81326,-0.55079 6.11187,-0.29104 0,0 3.58396,1.93125 4.36563,3.67771 0.60626,1.35454 -0.87312,6.82622 -0.87312,6.82622"/>
      </g>
      <g transform="translate(-103.99114,-27.556371)" style="fill:#ecb88b;fill-opacity:1">
        <path style="fill:#ecb88b;fill-opacity:1;fill-rule:evenodd;stroke:#000000;stroke-width:0.235743px;stroke-linecap:butt;stroke-linejoin:miter;stroke-opacity:1" d="m 181.97125,265.40536 2.12248,-2.78878 c 0,0 0.35284,0.51023 -0.84552,3.86028 -0.54302,1.51815 -2.14301,2.55393 -2.14301,2.55393"/>
        <path style="fill:#ecb88b;fill-opacity:1;fill-rule:evenodd;stroke:#000000;stroke-width:0.235743px;stroke-linecap:butt;stroke-linejoin:miter;stroke-opacity:1" d="m 168.44465,265.15397 -2.12247,-2.78879 c 0,0 -0.35285,0.51024 0.84552,3.86029 0.54302,1.51814 2.14301,2.55392 2.14301,2.55392"/>
        <path style="fill:#ecb88b;fill-opacity:1;fill-rule:evenodd;stroke:#000000;stroke-width:0.291041px;stroke-linecap:butt;stroke-linejoin:miter;stroke-opacity:1" d="m 175.21375,258.8373 c -5.23875,0 -6.82957,3.84961 -6.985,7.27605 -0.11686,2.57611 1.40059,5.31443 3.58011,7.12692 1.02246,0.85028 2.18935,1.38434 3.3991,1.38434 1.20657,0 2.3705,-0.53127 3.39103,-1.37764 2.18383,-1.81119 3.71675,-4.55433 3.59976,-7.13362 -0.15543,-3.42644 -1.75423,-7.27605 -6.985,-7.27605 z"/>
      </g>
      <g transform="translate(-103.99114,-27.556371)" style="stroke:#996c40;stroke-opacity:1">
        <g transform="matrix(1.1,0,0,1.1,-34.342039,-36.207896)" style="stroke:#996c40;stroke-opacity:1">
          <path style="fill:none;fill-rule:evenodd;stroke:#996c40;stroke-width:0.396875;stroke-linecap:butt;stroke-linejoin:miter;stroke-dasharray:none;stroke-opacity:1" d="m 185.67839,279.50138 1.67564,0.1632 h 1.0293"/>
          <path style="fill:none;fill-rule:evenodd;stroke:#996c40;stroke-width:0.396875;stroke-linecap:butt;stroke-linejoin:miter;stroke-dasharray:none;stroke-opacity:1" d="m 184.79259,275.99192 0.68032,2.08516 1.66852,0.52917 h 0.97732"/>
          <path style="fill:none;fill-rule:evenodd;stroke:#996c40;stroke-width:0.396875;stroke-linecap:butt;stroke-linejoin:miter;stroke-dasharray:none;stroke-opacity:1" d="m 186.00208,273.57916 c -0.19712,-1.54944 0.73598,-1.1355 1.32292,-1.32291"/>
          <path style="fill:none;fill-rule:evenodd;stroke:#996c40;stroke-width:0.396875;stroke-linecap:butt;stroke-linejoin:miter;stroke-dasharray:none;stroke-opacity:1" d="m 188.64791,273.05 v 1.5875"/>
          <path style="fill:none;fill-rule:evenodd;stroke:#996c40;stroke-width:0.396875;stroke-linecap:butt;stroke-linejoin:miter;stroke-dasharray:none;stroke-opacity:1" d="m 187.85416,273.84375 c -0.45373,0.17065 -1.22545,-0.51012 -1.05833,1.32291"/>
          <path style="fill:none;fill-rule:evenodd;stroke:#996c40;stroke-width:0.396875;stroke-linecap:butt;stroke-linejoin:miter;stroke-dasharray:none;stroke-opacity:1" d="m 185.20833,274.10833 0.53585,1.47985 1.33625,1.7085 0.77373,0.51582"/>
          <path style="fill:none;fill-rule:evenodd;stroke:#996c40;stroke-width:0.396875;stroke-linecap:butt;stroke-linejoin:miter;stroke-dasharray:none;stroke-opacity:1" d="m 187.85416,280.45833 -0.52916,0.79375"/>
          <path style="fill:none;fill-rule:evenodd;stroke:#996c40;stroke-width:0.396875;stroke-linecap:butt;stroke-linejoin:miter;stroke-dasharray:none;stroke-opacity:1" d="m 189.97083,273.31458 v 1.5875"/>
        </g>
        <g transform="matrix(-1.1,0,0,1.1,384.66102,-36.207896)" style="stroke:#996c40;stroke-opacity:1">
          <path style="fill:none;fill-rule:evenodd;stroke:#996c40;stroke-width:0.396875;stroke-linecap:butt;stroke-linejoin:miter;stroke-dasharray:none;stroke-opacity:1" d="m 185.67839,279.50138 1.67564,0.1632 h 1.0293"/>
          <path style="fill:none;fill-rule:evenodd;stroke:#996c40;stroke-width:0.396875;stroke-linecap:butt;stroke-linejoin:miter;stroke-dasharray:none;stroke-opacity:1" d="m 184.79259,275.99192 0.68032,2.08516 1.66852,0.52917 h 0.97732"/>
          <path style="fill:none;fill-rule:evenodd;stroke:#996c40;stroke-width:0.396875;stroke-linecap:butt;stroke-linejoin:miter;stroke-dasharray:none;stroke-opacity:1" d="m 186.00208,273.57916 c -0.19712,-1.54944 0.73598,-1.1355 1.32292,-1.32291"/>
          <path style="fill:none;fill-rule:evenodd;stroke:#996c40;stroke-width:0.396875;stroke-linecap:butt;stroke-linejoin:miter;stroke-dasharray:none;stroke-opacity:1" d="m 188.64791,273.05 v 1.5875"/>
          <path style="fill:none;fill-rule:evenodd;stroke:#996c40;stroke-width:0.396875;stroke-linecap:butt;stroke-linejoin:miter;stroke-dasharray:none;stroke-opacity:1" d="m 187.85416,273.84375 c -0.45373,0.17065 -1.22545,-0.51012 -1.05833,1.32291"/>
          <path style="fill:none;fill-rule:evenodd;stroke:#996c40;stroke-width:0.396875;stroke-linecap:butt;stroke-linejoin:miter;stroke-dasharray:none;stroke-opacity:1" d="m 185.20833,274.10833 0.53585,1.47985 1.33625,1.7085 0.77373,0.51582"/>
          <path style="fill:none;fill-rule:evenodd;stroke:#996c40;stroke-width:0.396875;stroke-linecap:butt;stroke-linejoin:miter;stroke-dasharray:none;stroke-opacity:1" d="m 187.85416,280.45833 -0.52916,0.79375"/>
          <path style="fill:none;fill-rule:evenodd;stroke:#996c40;stroke-width:0.396875;stroke-linecap:butt;stroke-linejoin:miter;stroke-dasharray:none;stroke-opacity:1" d="m 189.97083,273.31458 v 1.5875"/>
        </g>
      </g>
      <g transform="translate(-102.52459,-48.830143)">
        <path d="m 172.74014,291.09615 c 0.14898,0.57752 0.2205,1.33957 0.93104,1.36121 0.90751,0.0276 0.76232,-0.61223 0.931,-1.37161" style="fill:none;stroke:#000000;stroke-width:0.33528;stroke-linecap:butt;stroke-linejoin:miter;stroke-miterlimit:4;stroke-dasharray:none;stroke-opacity:1"/>
        <g transform="matrix(0.97637042,0.08542135,-0.08542135,0.97637042,53.766258,151.43626)">
          <path d="m 132.64864,128.63846 -0.49976,-0.50232 c -0.67061,-0.28658 -1.34123,-0.27464 -2.01184,0" style="fill:none;stroke:#000000;stroke-width:0.502327px;stroke-linecap:butt;stroke-linejoin:miter;stroke-opacity:1"/>
          <path d="m 132.06653,128.15634 c 0.0707,0.11478 0.26352,0.33182 0.26352,0.47654 0,0.41611 -0.48935,0.67163 -0.90549,0.67163 -0.41616,0 -0.99905,-0.37245 -0.99905,-0.78856 0,-0.14864 0.28865,-0.25222 0.36292,-0.36895 0.14405,-0.17547 0.47549,-0.23227 1.2781,0.009 z" style="fill:#ffffff;stroke:#000000;stroke-width:0.251163;stroke-miterlimit:4;stroke-dashoffset:0;stroke-opacity:1"/>
          <circle r="0.2511633" cy="128.59143" cx="131.39276" style="fill:#000000;fill-opacity:1;fill-rule:nonzero;stroke:#000000;stroke-width:0.251163;stroke-miterlimit:4;stroke-dasharray:none;stroke-dashoffset:0;stroke-opacity:1"/>
        </g>
        <path style="fill:none;fill-rule:evenodd;stroke:#000000;stroke-width:0.291041px;stroke-linecap:butt;stroke-linejoin:miter;stroke-opacity:1" d="m 172.00637,293.279 0.69968,0.29104 h 2.30235 l 0.49047,-0.29104"/>
        <g transform="matrix(0.97637042,-0.08542135,0.08542135,0.97637042,32.247443,174.31285)">
          <path d="m 135.16028,128.63846 0.55646,-0.50232 c 0.75341,-0.30507 1.38854,-0.25528 1.95518,0" style="fill:none;stroke:#000000;stroke-width:0.502327px;stroke-linecap:butt;stroke-linejoin:miter;stroke-opacity:1"/>
          <path d="m 137.08981,128.15629 c 0.0707,0.11478 0.48568,0.24996 0.48568,0.39469 0,0.41613 -0.71152,0.75347 -1.12768,0.75347 -0.41614,0 -0.94057,-0.27887 -0.94057,-0.69501 0,-0.14865 0.23009,-0.34574 0.30447,-0.46249 0.4594,-0.20543 0.90585,-0.32995 1.2781,0.009 z" style="fill:#ffffff;stroke:#000000;stroke-width:0.251163;stroke-miterlimit:4;stroke-dashoffset:0;stroke-opacity:1"/>
          <circle r="0.2511633" cy="128.59143" cx="136.43196" style="fill:#000000;fill-opacity:1;fill-rule:nonzero;stroke:#000000;stroke-width:0.251163;stroke-miterlimit:4;stroke-dasharray:none;stroke-dashoffset:0;stroke-opacity:1"/>
        </g>
      </g>
      <rect style="fill:#666666;fill-opacity:1;stroke:#000000;stroke-width:0.14575;stroke-linecap:round;stroke-linejoin:miter;stroke-dasharray:none;stroke-opacity:1" width="2.7648959" height="0.58208328" x="64.227379" y="250.68195" transform="rotate(-0.37389303)"/>
      <rect style="fill:#666666;fill-opacity:1;stroke:#000000;stroke-width:0.14575;stroke-linecap:round;stroke-linejoin:miter;stroke-dasharray:none;stroke-opacity:1" width="2.7648959" height="0.58208328" x="72.164299" y="250.73373" transform="rotate(-0.37389303)"/>
      <path style="fill:none;fill-opacity:1;fill-rule:evenodd;stroke:#000000;stroke-width:0.291041px;stroke-linecap:butt;stroke-linejoin:miter;stroke-opacity:1" d="m 71.2226,231.28093 c -5.23875,0 -6.82957,3.84961 -6.985,7.27605 -0.11686,2.57611 1.40059,5.31443 3.58011,7.12692 1.02246,0.85028 2.18935,1.38434 3.3991,1.38434 1.20657,0 2.3705,-0.53127 3.39103,-1.37764 2.18383,-1.81119 3.71675,-4.55433 3.59976,-7.13362 -0.15543,-3.42644 -1.75423,-7.27605 -6.985,-7.27605 z"/>
      <g transform="matrix(1.1,0,0,1.1,-138.33318,-63.764267)" style="fill:#946b48;fill-opacity:1;stroke:none">
        <path d="m 196.09147,270.64662 c -4.02335,-0.67057 -4.08147,2.78921 -5.58621,1.0588 l -0.37124,-3.92444 c 3.59929,0.29004 5.76273,0.53366 5.95745,2.86564 z" style="fill:#946b48;fill-opacity:1;stroke:none;stroke-width:0.67056px;stroke-linecap:butt;stroke-linejoin:miter;stroke-opacity:1"/>
        <path style="fill:#946b48;fill-opacity:1;stroke:none;stroke-width:0.67056px;stroke-linecap:butt;stroke-linejoin:miter;stroke-opacity:1" d="m 184.95074,270.84592 c 4.02335,-0.67057 3.87811,2.53589 5.55452,0.8595 l 0.59089,-3.92444 c -1.95697,0.29004 -6.2547,0.56966 -6.14541,3.06494 z"/>
      </g>
      <path style="fill:#b37b48;fill-opacity:1;stroke:#000000;stroke-width:0.264583;stroke-linecap:round;stroke-linejoin:round;stroke-dasharray:none;stroke-opacity:1" d="m 71.504839,228.39286 c -1.020128,0.0185 -2.025764,0.2276 -3.019261,0.44201 -0.568979,0.19439 -1.050346,0.576 -1.569284,0.87011 -1.106535,0.71398 -2.225175,1.46553 -3.069838,2.49061 -0.26229,0.32845 -0.496009,0.72159 -0.448641,1.15924 -0.02866,0.81452 0.04986,1.62809 0.222234,2.42419 0.08345,0.30221 0.04506,0.65834 0.288282,0.89046 0.111091,0.11501 0.182938,0.30705 0.329314,0.37555 0.210598,-0.97571 0.495183,-1.96345 1.012018,-2.82882 0.137258,-0.18479 0.415263,-0.0978 0.61101,-0.13288 0.698524,-0.0329 1.413547,0.003 2.065922,0.27459 0.762484,0.26569 1.327925,0.87352 2.036477,1.23502 0.471802,0.16211 0.933503,-0.1438 1.243785,-0.47485 0.28362,0.2789 0.657225,0.63199 1.093023,0.48853 0.485891,-0.18775 0.848529,-0.59124 1.276723,-0.87545 0.837872,-0.64363 1.910061,-0.93192 2.958999,-0.87818 0.190133,0.0169 0.461283,-0.0372 0.551389,0.18584 0.553379,0.88704 0.890159,1.8968 1.094182,2.91396 0.07013,0.007 0.04922,-0.15327 0.08049,-0.20171 0.281972,-1.32877 0.547309,-2.68206 0.496866,-4.04686 -0.05222,-0.7928 -0.664265,-1.38321 -1.201682,-1.90267 -0.955971,-0.8772 -2.049105,-1.58941 -3.170272,-2.23544 -0.959355,-0.0689 -1.919261,-0.16841 -2.881735,-0.17325 z"/>
    </g></g></g></svg>