<svg xmlns="http://www.w3.org/2000/svg" xmlns:xlink="http://www.w3.org/1999/xlink" width="64" height="64" viewBox="0 0 64 64"><defs id="defs355716">
    <rect x="172" y="97" width="745" height="239" id="rect276290"/>
    <color-profile name="Agfa-:-Swop-Standard" xmlns:xlink="http://www.w3.org/1999/xlink" xlink:href="file:///C:/WINDOWS/system32/spool/drivers/color/RSWOP.icm" id="color-profile294613"/>
    <linearGradient xmlns:inkscape="http://www.inkscape.org/namespaces/inkscape" inkscape:collect="always" id="linearGradient140439">
      <stop style="stop-color:#a4a870;stop-opacity:1;" offset="0" id="stop140435"/>
      <stop style="stop-color:#a4a870;stop-opacity:0;" offset="1" id="stop140437"/>
    </linearGradient>
    <linearGradient xmlns:inkscape="http://www.inkscape.org/namespaces/inkscape" inkscape:collect="always" id="linearGradient140390">
      <stop style="stop-color:#359676;stop-opacity:1;" offset="0" id="stop140386"/>
      <stop style="stop-color:#4a6a5e;stop-opacity:0;" offset="1" id="stop140388"/>
    </linearGradient>
    <linearGradient xmlns:inkscape="http://www.inkscape.org/namespaces/inkscape" inkscape:collect="always" id="linearGradient139515">
      <stop style="stop-color:#dbd764;stop-opacity:1;" offset="0" id="stop139511"/>
      <stop style="stop-color:#dbd764;stop-opacity:0;" offset="0.56578946" id="stop139513"/>
    </linearGradient>
    <linearGradient xmlns:inkscape="http://www.inkscape.org/namespaces/inkscape" inkscape:collect="always" id="linearGradient139325">
      <stop style="stop-color:#161c16;stop-opacity:1;" offset="0" id="stop139321"/>
      <stop style="stop-color:#6e836c;stop-opacity:0;" offset="1" id="stop139323"/>
    </linearGradient>
    <linearGradient xmlns:inkscape="http://www.inkscape.org/namespaces/inkscape" inkscape:collect="always" id="linearGradient387614">
      <stop style="stop-color:#a4a870;stop-opacity:1;" offset="0" id="stop387610"/>
      <stop style="stop-color:#a4a870;stop-opacity:0;" offset="1" id="stop387612"/>
    </linearGradient>
    <linearGradient xmlns:inkscape="http://www.inkscape.org/namespaces/inkscape" inkscape:collect="always" id="linearGradient387421">
      <stop style="stop-color:#344533;stop-opacity:1;" offset="0" id="stop387417"/>
      <stop style="stop-color:#1d251d;stop-opacity:0;" offset="1" id="stop387419"/>
    </linearGradient>
    <linearGradient xmlns:inkscape="http://www.inkscape.org/namespaces/inkscape" inkscape:collect="always" xmlns:xlink="http://www.w3.org/1999/xlink" xlink:href="#linearGradient206680" id="linearGradient206682" x1="168.01042" y1="262.08701" x2="168.01042" y2="247.38542" gradientUnits="userSpaceOnUse"/>
    <linearGradient xmlns:inkscape="http://www.inkscape.org/namespaces/inkscape" inkscape:collect="always" id="linearGradient206680">
      <stop style="stop-color:#dbd764;stop-opacity:0;" offset="0.38377193" id="stop206678"/>
      <stop style="stop-color:#dbd764;stop-opacity:1;" offset="1" id="stop206676"/>
    </linearGradient>
    <linearGradient xmlns:inkscape="http://www.inkscape.org/namespaces/inkscape" inkscape:collect="always" xmlns:xlink="http://www.w3.org/1999/xlink" xlink:href="#linearGradient216292" id="linearGradient216294" x1="168.01042" y1="236.00833" x2="168.01042" y2="248.97292" gradientUnits="userSpaceOnUse" gradientTransform="translate(8.4073796,-0.78650088)"/>
    <linearGradient xmlns:inkscape="http://www.inkscape.org/namespaces/inkscape" inkscape:collect="always" id="linearGradient216292">
      <stop style="stop-color:#359676;stop-opacity:1;" offset="0" id="stop216288"/>
      <stop style="stop-color:#4a6a5f;stop-opacity:0;" offset="1" id="stop216290"/>
    </linearGradient>
    <linearGradient xmlns:inkscape="http://www.inkscape.org/namespaces/inkscape" inkscape:collect="always" xmlns:xlink="http://www.w3.org/1999/xlink" xlink:href="#linearGradient387421" id="linearGradient387423" x1="31.75" y1="155.31041" x2="31.921236" y2="171.18663" gradientUnits="userSpaceOnUse"/>
    <linearGradient xmlns:inkscape="http://www.inkscape.org/namespaces/inkscape" inkscape:collect="always" xmlns:xlink="http://www.w3.org/1999/xlink" xlink:href="#linearGradient387614" id="linearGradient387616" x1="45.011326" y1="158.73975" x2="51.59375" y2="162.71875" gradientUnits="userSpaceOnUse" gradientTransform="translate(2.9601329,-0.98671096)"/>
    <linearGradient xmlns:inkscape="http://www.inkscape.org/namespaces/inkscape" inkscape:collect="always" xmlns:xlink="http://www.w3.org/1999/xlink" xlink:href="#linearGradient387614" id="linearGradient387620" gradientUnits="userSpaceOnUse" x1="45.011326" y1="158.73975" x2="51.593746" y2="162.71875" gradientTransform="matrix(-1,0,0,1,108.79346,-0.98671096)"/>
    <linearGradient xmlns:inkscape="http://www.inkscape.org/namespaces/inkscape" inkscape:collect="always" xmlns:xlink="http://www.w3.org/1999/xlink" xlink:href="#linearGradient139325" id="linearGradient139327" x1="70" y1="21" x2="70" y2="37" gradientUnits="userSpaceOnUse"/>
    <linearGradient xmlns:inkscape="http://www.inkscape.org/namespaces/inkscape" inkscape:collect="always" xmlns:xlink="http://www.w3.org/1999/xlink" xlink:href="#linearGradient139515" id="linearGradient139517" x1="70.426315" y1="1.5429174" x2="70.46106" y2="18.249472" gradientUnits="userSpaceOnUse"/>
    <linearGradient xmlns:inkscape="http://www.inkscape.org/namespaces/inkscape" inkscape:collect="always" xmlns:xlink="http://www.w3.org/1999/xlink" xlink:href="#linearGradient140390" id="linearGradient140392" x1="90.084175" y1="1.3586814" x2="90" y2="16" gradientUnits="userSpaceOnUse"/>
    <linearGradient xmlns:inkscape="http://www.inkscape.org/namespaces/inkscape" inkscape:collect="always" xmlns:xlink="http://www.w3.org/1999/xlink" xlink:href="#linearGradient140439" id="linearGradient140441" x1="90.01368" y1="24.010059" x2="94.88681" y2="28.136377" gradientUnits="userSpaceOnUse"/>
    <linearGradient xmlns:inkscape="http://www.inkscape.org/namespaces/inkscape" inkscape:collect="always" xmlns:xlink="http://www.w3.org/1999/xlink" xlink:href="#linearGradient140439" id="linearGradient140449" gradientUnits="userSpaceOnUse" x1="90.01368" y1="24.010059" x2="94.88681" y2="28.136377" gradientTransform="matrix(-1,0,0,1,190,0)"/>
    <radialGradient xmlns:inkscape="http://www.inkscape.org/namespaces/inkscape" inkscape:collect="always" xmlns:xlink="http://www.w3.org/1999/xlink" xlink:href="#linearGradient177339" id="radialGradient177341-3-0" cx="44.135807" cy="121.46028" fx="44.135807" fy="121.46028" r="1.1079427" gradientTransform="matrix(1.5015971,0,0,0.99367432,-157.6034,-4.3351259)" gradientUnits="userSpaceOnUse"/>
    <linearGradient xmlns:inkscape="http://www.inkscape.org/namespaces/inkscape" inkscape:collect="always" id="linearGradient177339">
      <stop style="stop-color:#b98d3e;stop-opacity:1;" offset="0" id="stop177335"/>
      <stop style="stop-color:#c9c943;stop-opacity:0;" offset="1" id="stop177337"/>
    </linearGradient>
    <radialGradient xmlns:inkscape="http://www.inkscape.org/namespaces/inkscape" inkscape:collect="always" xmlns:xlink="http://www.w3.org/1999/xlink" xlink:href="#linearGradient177339" id="radialGradient177345-7-9" gradientUnits="userSpaceOnUse" gradientTransform="matrix(1.5015971,0,0,0.99367432,-195.50719,-68.761115)" cx="44.135807" cy="121.46028" fx="44.135807" fy="121.46028" r="1.1079427"/>
    <rect x="172" y="97" width="745" height="239" id="rect276290-2"/>
    <rect x="172" y="97" width="745" height="239" id="rect276290-2-5"/>
    <rect x="172" y="97" width="745" height="239" id="rect276290-2-5-7"/>
  </defs><g transform="translate(208.74575235063392 -25.68273020280728) scale(2.6456686555952764)"><g><g transform="translate(-203.06611,-113.88145)">
      <path style="fill:#72ae6e;fill-opacity:1;fill-rule:evenodd;stroke:#000000;stroke-width:0.264583px;stroke-linecap:butt;stroke-linejoin:miter;stroke-opacity:1" d="m 136.26041,132.29166 c -2.24853,0 -4.98726,-0.22876 -6.61458,1.32292 -1.31586,1.2547 -1.10076,3.48712 -1.32291,5.29167 -0.10776,0.87534 -0.41615,1.86824 0,2.64583 0.75023,1.40181 2.44702,2.18509 3.96874,2.64583 1.26616,0.38336 2.64584,1e-5 3.96876,1e-5 1.32292,0 2.7026,0.38336 3.96875,0 1.52173,-0.46074 3.21852,-1.24402 3.96875,-2.64584 0.41615,-0.77759 0.10776,-1.77049 0,-2.64583 -0.22215,-1.80455 -0.007,-4.03697 -1.32292,-5.29167 -1.62732,-1.55168 -4.36606,-1.32292 -6.61459,-1.32292 z"/>
      <path style="fill:none;fill-rule:evenodd;stroke:#000000;stroke-width:0.264583px;stroke-linecap:butt;stroke-linejoin:miter;stroke-opacity:1" d="M 140.22916,132.29166 Z"/>
      <path style="fill:#72ae6e;fill-opacity:1;fill-rule:evenodd;stroke:#000000;stroke-width:0.264583px;stroke-linecap:butt;stroke-linejoin:miter;stroke-opacity:1" d="M 138.90625,132.29166 142.875,127 h 3.96875 v 0.52917 h -3.70417 L 139.7,132.29166"/>
      <path style="fill:#72ae6e;fill-opacity:1;fill-rule:evenodd;stroke:#000000;stroke-width:0.264583px;stroke-linecap:butt;stroke-linejoin:miter;stroke-opacity:1" d="m 133.61458,132.29167 -3.96875,-5.29166 h -3.96875 v 0.52917 h 3.70417 l 3.43958,4.76249"/>
      <g transform="matrix(0.9,0,0,0.9,13.629107,13.639268)">
        <path style="fill:#ffffff;stroke:#000000;stroke-width:0.211667;stroke-linecap:round;stroke-linejoin:round" transform="rotate(20)" d="m 171.291,83.282776 a 1.3229166,1.984375 0 0 1 -1.32292,1.984375 1.3229166,1.984375 0 0 1 -1.32292,-1.984375 1.3229166,1.984375 0 0 1 1.32292,-1.984375 1.3229166,1.984375 0 0 1 1.32292,1.984375 z"/>
        <path style="fill:none;fill-rule:evenodd;stroke:#000000;stroke-width:0.264583px;stroke-linecap:butt;stroke-linejoin:miter;stroke-opacity:1" d="m 130.01863,135.14063 2.94961,1.10301"/>
        <path style="fill:none;fill-rule:evenodd;stroke:#000000;stroke-width:0.264583px;stroke-linecap:butt;stroke-linejoin:miter;stroke-opacity:1" d="m 129.5452,136.47245 2.73653,1.30755"/>
        <path style="fill:#4c744a;fill-opacity:1;stroke:#000000;stroke-width:0.0353553;stroke-linecap:round;stroke-linejoin:round;stroke-dasharray:none;stroke-opacity:1" d="m 490.06497,516.59865 c -0.19356,1.89136 0.0396,3.93432 1.155,5.52677 0.77021,1.11716 2.15243,1.84058 3.52,1.63821 1.60686,-0.15754 2.98218,-1.15162 4.05611,-2.29913 0.12452,-0.16997 0.36593,-0.3034 0.40448,-0.51842 -1.77805,-0.89032 -3.59361,-1.7287 -5.38758,-2.59589 -1.23676,-0.59098 -2.47353,-1.18197 -3.71029,-1.77295 z" transform="scale(0.26458333)"/>
        <path style="fill:#4c744a;fill-opacity:1;stroke:#000000;stroke-width:0.0353553;stroke-linecap:round;stroke-linejoin:round;stroke-dasharray:none;stroke-opacity:1" d="m 497.63659,507.20238 c -2.1249,0.0868 -3.92706,1.55052 -5.15199,3.18811 -0.083,0.0841 -0.12475,0.24877 0.0486,0.25282 3.12238,1.19935 6.26149,2.35492 9.39291,3.53053 0.0848,-0.31318 0.0256,-0.7049 0.0495,-1.0497 0.0156,-1.66636 -0.40904,-3.42832 -1.55139,-4.68876 -0.70669,-0.77674 -1.73465,-1.24353 -2.78766,-1.233 z" transform="scale(0.26458333)"/>
        <circle style="fill:#000000;fill-opacity:1;stroke:#000000;stroke-width:0.211667;stroke-linecap:round;stroke-linejoin:round;stroke-dasharray:none;stroke-opacity:1" cx="131.5818" cy="136.50092" r="0.43264255"/>
      </g>
      <g transform="matrix(-0.9,0,0,0.9,258.95303,13.639268)">
        <path style="fill:#ffffff;stroke:#000000;stroke-width:0.211667;stroke-linecap:round;stroke-linejoin:round" transform="rotate(20)" d="m 171.291,83.282776 a 1.3229166,1.984375 0 0 1 -1.32292,1.984375 1.3229166,1.984375 0 0 1 -1.32292,-1.984375 1.3229166,1.984375 0 0 1 1.32292,-1.984375 1.3229166,1.984375 0 0 1 1.32292,1.984375 z"/>
        <path style="fill:none;fill-rule:evenodd;stroke:#000000;stroke-width:0.264583px;stroke-linecap:butt;stroke-linejoin:miter;stroke-opacity:1" d="m 130.01863,135.14063 2.94961,1.10301"/>
        <path style="fill:none;fill-rule:evenodd;stroke:#000000;stroke-width:0.264583px;stroke-linecap:butt;stroke-linejoin:miter;stroke-opacity:1" d="m 129.5452,136.47245 2.73653,1.30755"/>
        <path style="fill:#4c744a;fill-opacity:1;stroke:#000000;stroke-width:0.0353553;stroke-linecap:round;stroke-linejoin:round;stroke-dasharray:none;stroke-opacity:1" d="m 490.06497,516.59865 c -0.19356,1.89136 0.0396,3.93432 1.155,5.52677 0.77021,1.11716 2.15243,1.84058 3.52,1.63821 1.60686,-0.15754 2.98218,-1.15162 4.05611,-2.29913 0.12452,-0.16997 0.36593,-0.3034 0.40448,-0.51842 -1.77805,-0.89032 -3.59361,-1.7287 -5.38758,-2.59589 -1.23676,-0.59098 -2.47353,-1.18197 -3.71029,-1.77295 z" transform="scale(0.26458333)"/>
        <path style="fill:#4c744a;fill-opacity:1;stroke:#000000;stroke-width:0.0353553;stroke-linecap:round;stroke-linejoin:round;stroke-dasharray:none;stroke-opacity:1" d="m 497.63659,507.20238 c -2.1249,0.0868 -3.92706,1.55052 -5.15199,3.18811 -0.083,0.0841 -0.12475,0.24877 0.0486,0.25282 3.12238,1.19935 6.26149,2.35492 9.39291,3.53053 0.0848,-0.31318 0.0256,-0.7049 0.0495,-1.0497 0.0156,-1.66636 -0.40904,-3.42832 -1.55139,-4.68876 -0.70669,-0.77674 -1.73465,-1.24353 -2.78766,-1.233 z" transform="scale(0.26458333)"/>
        <circle style="fill:#000000;fill-opacity:1;stroke:#000000;stroke-width:0.211667;stroke-linecap:round;stroke-linejoin:round;stroke-dasharray:none;stroke-opacity:1" cx="131.5818" cy="136.50092" r="0.43264255"/>
      </g>
      <path style="fill:none;fill-rule:evenodd;stroke:#000000;stroke-width:0.264583px;stroke-linecap:butt;stroke-linejoin:miter;stroke-opacity:1" d="m 131.7625,140.22916 0.79375,1.05834 h 3.70416 3.70417 l 0.79375,-1.05834"/>
      <path style="fill:none;fill-rule:evenodd;stroke:#000000;stroke-width:0.264583px;stroke-linecap:butt;stroke-linejoin:miter;stroke-opacity:1" d="M 134.9375,137.84792 V 139.7"/>
      <path style="fill:none;fill-rule:evenodd;stroke:#000000;stroke-width:0.264583px;stroke-linecap:butt;stroke-linejoin:miter;stroke-opacity:1" d="M 137.58333,137.84792 V 139.7"/>
    </g></g></g></svg>