<svg xmlns="http://www.w3.org/2000/svg" xmlns:xlink="http://www.w3.org/1999/xlink" width="64" height="64" viewBox="0 0 64 64"><defs id="defs355716">
    <rect x="172" y="97" width="745" height="239" id="rect276290"/>
    <color-profile name="Agfa-:-Swop-Standard" xmlns:xlink="http://www.w3.org/1999/xlink" xlink:href="file:///C:/WINDOWS/system32/spool/drivers/color/RSWOP.icm" id="color-profile294613"/>
    <linearGradient xmlns:inkscape="http://www.inkscape.org/namespaces/inkscape" inkscape:collect="always" id="linearGradient140439">
      <stop style="stop-color:#a4a870;stop-opacity:1;" offset="0" id="stop140435"/>
      <stop style="stop-color:#a4a870;stop-opacity:0;" offset="1" id="stop140437"/>
    </linearGradient>
    <linearGradient xmlns:inkscape="http://www.inkscape.org/namespaces/inkscape" inkscape:collect="always" id="linearGradient140390">
      <stop style="stop-color:#359676;stop-opacity:1;" offset="0" id="stop140386"/>
      <stop style="stop-color:#4a6a5e;stop-opacity:0;" offset="1" id="stop140388"/>
    </linearGradient>
    <linearGradient xmlns:inkscape="http://www.inkscape.org/namespaces/inkscape" inkscape:collect="always" id="linearGradient139515">
      <stop style="stop-color:#dbd764;stop-opacity:1;" offset="0" id="stop139511"/>
      <stop style="stop-color:#dbd764;stop-opacity:0;" offset="0.56578946" id="stop139513"/>
    </linearGradient>
    <linearGradient xmlns:inkscape="http://www.inkscape.org/namespaces/inkscape" inkscape:collect="always" id="linearGradient139325">
      <stop style="stop-color:#161c16;stop-opacity:1;" offset="0" id="stop139321"/>
      <stop style="stop-color:#6e836c;stop-opacity:0;" offset="1" id="stop139323"/>
    </linearGradient>
    <linearGradient xmlns:inkscape="http://www.inkscape.org/namespaces/inkscape" inkscape:collect="always" id="linearGradient387614">
      <stop style="stop-color:#a4a870;stop-opacity:1;" offset="0" id="stop387610"/>
      <stop style="stop-color:#a4a870;stop-opacity:0;" offset="1" id="stop387612"/>
    </linearGradient>
    <linearGradient xmlns:inkscape="http://www.inkscape.org/namespaces/inkscape" inkscape:collect="always" id="linearGradient387421">
      <stop style="stop-color:#344533;stop-opacity:1;" offset="0" id="stop387417"/>
      <stop style="stop-color:#1d251d;stop-opacity:0;" offset="1" id="stop387419"/>
    </linearGradient>
    <linearGradient xmlns:inkscape="http://www.inkscape.org/namespaces/inkscape" inkscape:collect="always" xmlns:xlink="http://www.w3.org/1999/xlink" xlink:href="#linearGradient206680" id="linearGradient206682" x1="168.01042" y1="262.08701" x2="168.01042" y2="247.38542" gradientUnits="userSpaceOnUse"/>
    <linearGradient xmlns:inkscape="http://www.inkscape.org/namespaces/inkscape" inkscape:collect="always" id="linearGradient206680">
      <stop style="stop-color:#dbd764;stop-opacity:0;" offset="0.38377193" id="stop206678"/>
      <stop style="stop-color:#dbd764;stop-opacity:1;" offset="1" id="stop206676"/>
    </linearGradient>
    <linearGradient xmlns:inkscape="http://www.inkscape.org/namespaces/inkscape" inkscape:collect="always" xmlns:xlink="http://www.w3.org/1999/xlink" xlink:href="#linearGradient216292" id="linearGradient216294" x1="168.01042" y1="236.00833" x2="168.01042" y2="248.97292" gradientUnits="userSpaceOnUse" gradientTransform="translate(8.4073796,-0.78650088)"/>
    <linearGradient xmlns:inkscape="http://www.inkscape.org/namespaces/inkscape" inkscape:collect="always" id="linearGradient216292">
      <stop style="stop-color:#359676;stop-opacity:1;" offset="0" id="stop216288"/>
      <stop style="stop-color:#4a6a5f;stop-opacity:0;" offset="1" id="stop216290"/>
    </linearGradient>
    <linearGradient xmlns:inkscape="http://www.inkscape.org/namespaces/inkscape" inkscape:collect="always" xmlns:xlink="http://www.w3.org/1999/xlink" xlink:href="#linearGradient387421" id="linearGradient387423" x1="31.75" y1="155.31041" x2="31.921236" y2="171.18663" gradientUnits="userSpaceOnUse"/>
    <linearGradient xmlns:inkscape="http://www.inkscape.org/namespaces/inkscape" inkscape:collect="always" xmlns:xlink="http://www.w3.org/1999/xlink" xlink:href="#linearGradient387614" id="linearGradient387616" x1="45.011326" y1="158.73975" x2="51.59375" y2="162.71875" gradientUnits="userSpaceOnUse" gradientTransform="translate(2.9601329,-0.98671096)"/>
    <linearGradient xmlns:inkscape="http://www.inkscape.org/namespaces/inkscape" inkscape:collect="always" xmlns:xlink="http://www.w3.org/1999/xlink" xlink:href="#linearGradient387614" id="linearGradient387620" gradientUnits="userSpaceOnUse" x1="45.011326" y1="158.73975" x2="51.593746" y2="162.71875" gradientTransform="matrix(-1,0,0,1,108.79346,-0.98671096)"/>
    <linearGradient xmlns:inkscape="http://www.inkscape.org/namespaces/inkscape" inkscape:collect="always" xmlns:xlink="http://www.w3.org/1999/xlink" xlink:href="#linearGradient139325" id="linearGradient139327" x1="70" y1="21" x2="70" y2="37" gradientUnits="userSpaceOnUse"/>
    <linearGradient xmlns:inkscape="http://www.inkscape.org/namespaces/inkscape" inkscape:collect="always" xmlns:xlink="http://www.w3.org/1999/xlink" xlink:href="#linearGradient139515" id="linearGradient139517" x1="70.426315" y1="1.5429174" x2="70.46106" y2="18.249472" gradientUnits="userSpaceOnUse"/>
    <linearGradient xmlns:inkscape="http://www.inkscape.org/namespaces/inkscape" inkscape:collect="always" xmlns:xlink="http://www.w3.org/1999/xlink" xlink:href="#linearGradient140390" id="linearGradient140392" x1="90.084175" y1="1.3586814" x2="90" y2="16" gradientUnits="userSpaceOnUse"/>
    <linearGradient xmlns:inkscape="http://www.inkscape.org/namespaces/inkscape" inkscape:collect="always" xmlns:xlink="http://www.w3.org/1999/xlink" xlink:href="#linearGradient140439" id="linearGradient140441" x1="90.01368" y1="24.010059" x2="94.88681" y2="28.136377" gradientUnits="userSpaceOnUse"/>
    <linearGradient xmlns:inkscape="http://www.inkscape.org/namespaces/inkscape" inkscape:collect="always" xmlns:xlink="http://www.w3.org/1999/xlink" xlink:href="#linearGradient140439" id="linearGradient140449" gradientUnits="userSpaceOnUse" x1="90.01368" y1="24.010059" x2="94.88681" y2="28.136377" gradientTransform="matrix(-1,0,0,1,190,0)"/>
    <radialGradient xmlns:inkscape="http://www.inkscape.org/namespaces/inkscape" inkscape:collect="always" xmlns:xlink="http://www.w3.org/1999/xlink" xlink:href="#linearGradient177339" id="radialGradient177341-3-0" cx="44.135807" cy="121.46028" fx="44.135807" fy="121.46028" r="1.1079427" gradientTransform="matrix(1.5015971,0,0,0.99367432,-157.6034,-4.3351259)" gradientUnits="userSpaceOnUse"/>
    <linearGradient xmlns:inkscape="http://www.inkscape.org/namespaces/inkscape" inkscape:collect="always" id="linearGradient177339">
      <stop style="stop-color:#b98d3e;stop-opacity:1;" offset="0" id="stop177335"/>
      <stop style="stop-color:#c9c943;stop-opacity:0;" offset="1" id="stop177337"/>
    </linearGradient>
    <radialGradient xmlns:inkscape="http://www.inkscape.org/namespaces/inkscape" inkscape:collect="always" xmlns:xlink="http://www.w3.org/1999/xlink" xlink:href="#linearGradient177339" id="radialGradient177345-7-9" gradientUnits="userSpaceOnUse" gradientTransform="matrix(1.5015971,0,0,0.99367432,-195.50719,-68.761115)" cx="44.135807" cy="121.46028" fx="44.135807" fy="121.46028" r="1.1079427"/>
    <rect x="172" y="97" width="745" height="239" id="rect276290-2"/>
    <rect x="172" y="97" width="745" height="239" id="rect276290-2-5"/>
    <rect x="172" y="97" width="745" height="239" id="rect276290-2-5-7"/>
  </defs><g transform="translate(-152.07605365108316 -239.38647083861846) scale(2.4051539537576763)"><g><g transform="matrix(-1,0,0,1,186.55228,-9.89723)">
      <path style="fill:#faaf3b;fill-opacity:1;fill-rule:evenodd;stroke:#000000;stroke-width:0.400459px;stroke-linecap:butt;stroke-linejoin:miter;stroke-opacity:1" d="m 117.37629,119.37215 c 2.38861,-1.37495 2.16699,-4.31222 0.84407,-6.1643 -2.30005,-1.01955 -3.85046,0.66831 -5.64959,2.96062 0.93771,2.39616 2.98239,2.57837 4.80552,3.20368 z"/>
      <path style="fill:#faaf3b;fill-opacity:1;fill-rule:evenodd;stroke:#000000;stroke-width:0.400459px;stroke-linecap:butt;stroke-linejoin:miter;stroke-opacity:1" d="m 102.92484,119.37215 c -2.38861,-1.37495 -2.16698,-4.31222 -0.84407,-6.1643 2.30006,-1.01955 3.85046,0.66831 5.64959,2.96062 -0.93771,2.39616 -2.98239,2.57837 -4.80552,3.20368 z"/>
      <path style="fill:#faaf3b;fill-opacity:1;fill-rule:evenodd;stroke:#000000;stroke-width:0.264583px;stroke-linecap:butt;stroke-linejoin:miter;stroke-opacity:1" d="m 112.68373,130.93493 c 0.89504,-0.0886 1.82208,-0.1681 2.64584,-0.52917 1.09867,-0.48156 2.14943,-1.18936 2.91041,-2.11666 0.80107,-0.97614 1.31661,-2.20623 1.5875,-3.43959 0.22704,-1.03369 0.19155,-2.13414 0,-3.17499 -0.3587,-1.9492 -0.88066,-4.00696 -2.11666,-5.55626 -0.59493,-0.74573 -1.49126,-1.24403 -2.38125,-1.5875 -1.66703,-0.64334 -3.51462,-0.79375 -5.30148,-0.79375 -1.78686,0 -3.63446,0.15041 -5.30148,0.79375 -0.88999,0.34347 -1.78632,0.84177 -2.38125,1.5875 -1.236,1.5493 -1.75797,3.60706 -2.11667,5.55626 -0.19154,1.04085 -0.22704,2.1413 0,3.17499 0.27089,1.23336 0.78644,2.46345 1.5875,3.43959 0.76099,0.9273 1.81175,1.6351 2.91042,2.11666 0.82375,0.36107 1.7508,0.44055 2.64583,0.52917 0.88091,0.0872 1.77043,0 2.65565,0 0.88521,0 1.77474,0.0872 2.65564,0 z"/>
      <path style="fill:#ffffff;fill-opacity:1;fill-rule:evenodd;stroke:#000000;stroke-width:0.264583px;stroke-linecap:butt;stroke-linejoin:miter;stroke-opacity:1" d="m 112.92869,132.52243 c 0.89504,-0.0886 1.57712,-1.7556 2.40088,-2.11667 1.09867,-0.48156 2.14943,-1.18936 2.91041,-2.11666 0.80107,-0.97614 1.32806,-2.20377 1.5875,-3.43959 0.41115,-0.34531 -0.0275,-4.34338 -0.22312,-4.34338 l -5.70641,1.96629 -0.17551,3.43543 -1.5875,2.11667 -1.05833,-1.32292 h -2.11667 l -0.79375,1.32292 -1.85208,-2.11667 -0.41616,-3.43543 -5.46514,-2 c -0.28355,0 -0.651532,4.03253 -0.20412,4.37709 0.27089,1.23336 0.78644,2.46345 1.5875,3.43959 0.76099,0.9273 1.81175,1.6351 2.91042,2.11666 0.82375,0.36107 1.99576,2.02805 2.89079,2.11667 0.88091,0.0872 1.77043,0 2.65565,0 0.88521,0 1.77473,0.0872 2.65564,0 z"/>
      <path style="fill:#000000;fill-rule:evenodd;stroke:#000000;stroke-width:0.264583px;stroke-linecap:butt;stroke-linejoin:miter;stroke-opacity:1" d="m 108.95994,126.7016 h 2.11667 v 0.52917 l -1.05834,0.79375 -1.05833,-0.79375 z"/>
      <path style="fill:none;fill-rule:evenodd;stroke:#000000;stroke-width:0.264583px;stroke-linecap:butt;stroke-linejoin:miter;stroke-opacity:1" d="m 107.34651,129.4798 c 1.76495,0.35315 3.52884,0.35241 5.29166,0"/>
      <path style="fill:none;fill-rule:evenodd;stroke:#000000;stroke-width:0.264583px;stroke-linecap:butt;stroke-linejoin:miter;stroke-opacity:1" d="m 100.22869,123.79118 -1.852085,0.79375 1.322917,0.79375 -1.058333,1.32292 1.058333,0.79375 v 1.85208 h 1.852088 l 0.52916,2.11667 1.32292,-0.52917 0.52917,1.05834 1.5875,-1.05834"/>
      <path style="fill:none;fill-rule:evenodd;stroke:#000000;stroke-width:0.264583px;stroke-linecap:butt;stroke-linejoin:miter;stroke-opacity:1" d="m 119.80786,123.79118 1.85208,0.79375 -1.32291,0.79375 1.05833,1.32292 -1.05833,0.79375 v 1.85208 h -1.85209 l -0.52916,2.11667 -1.32292,-0.52917 -0.52917,1.05834 -1.5875,-1.05834"/>
      <path style="fill:#ffffff;fill-rule:evenodd;stroke:#000000;stroke-width:0.132292;stroke-linecap:butt;stroke-linejoin:miter;stroke-dasharray:none;stroke-opacity:1" d="m 107.24205,120.7191 c 0.56445,-0.12592 1.1315,-0.91516 1.18501,-1.26724 0.0841,-0.55326 -0.73812,-2.86153 -1.20557,-3.10278 -0.29111,-0.15024 -1.48261,-0.33652 -1.93833,0.12334 -0.3265,0.32946 -0.79407,2.43654 -0.18501,3.39057 0.41407,0.6486 1.39286,1.02366 2.1439,0.85611 z"/>
      <path style="fill:none;fill-rule:evenodd;stroke:#000000;stroke-width:0.264583;stroke-linecap:butt;stroke-linejoin:miter;stroke-dasharray:none;stroke-opacity:1" d="m 104.16559,124.42279 -2.25662,1.16663 c -0.98364,-1.69003 -0.89002,-3.38005 -0.55492,-5.07008 0.0703,-0.35465 0.0279,-0.21595 0.11179,-0.5706"/>
      <ellipse style="fill:#000000;fill-opacity:1;stroke:none;stroke-width:0.499999;stroke-linecap:round;stroke-linejoin:round;stroke-dasharray:none" cx="154.40483" cy="24.880177" rx="0.50874686" ry="1.2936707" transform="rotate(39.143337)"/>
      <ellipse style="fill:#000000;fill-opacity:1;stroke:none;stroke-width:0.499999;stroke-linecap:round;stroke-linejoin:round;stroke-dasharray:none" cx="128.93068" cy="92.304871" rx="0.49421123" ry="0.82853061" transform="rotate(13.593637)"/>
      <ellipse style="fill:#000000;fill-opacity:1;stroke:none;stroke-width:0.499999;stroke-linecap:round;stroke-linejoin:round;stroke-dasharray:none" cx="103.14449" cy="122.44973" rx="0.36339062" ry="0.66863871"/>
      <ellipse style="fill:#000000;fill-opacity:1;stroke:none;stroke-width:0.499999;stroke-linecap:round;stroke-linejoin:round;stroke-dasharray:none" cx="157.11043" cy="37.484169" rx="0.36339062" ry="0.21803437" transform="rotate(36.491297)"/>
      <ellipse style="fill:#000000;fill-opacity:1;stroke:none;stroke-width:0.702222;stroke-linecap:round;stroke-linejoin:round;stroke-dasharray:none" cx="61.03075" cy="145.2549" rx="1.0448642" ry="0.52888507" transform="matrix(0.9383529,-0.34567881,0.35145656,0.93620419,0,0)"/>
      <ellipse style="fill:#000000;fill-opacity:1;stroke:none;stroke-width:0.499999;stroke-linecap:round;stroke-linejoin:round;stroke-dasharray:none" cx="108.97328" cy="116.37383" rx="0.14535625" ry="0.29071251"/>
      <ellipse style="fill:#000000;fill-opacity:1;stroke:none;stroke-width:0.499999;stroke-linecap:round;stroke-linejoin:round;stroke-dasharray:none" cx="109.14771" cy="118.74314" rx="0.17442749" ry="0.77038813"/>
      <ellipse style="fill:#000000;fill-opacity:1;stroke:none;stroke-width:0.499999;stroke-linecap:round;stroke-linejoin:round;stroke-dasharray:none" cx="143.28265" cy="76.145355" rx="0.15989187" ry="0.71224564" transform="rotate(20.008356)"/>
      <ellipse style="fill:#000000;fill-opacity:1;stroke:none;stroke-width:0.499999;stroke-linecap:round;stroke-linejoin:round;stroke-dasharray:none" cx="128.25719" cy="100.09373" rx="0.15989187" ry="0.71224564" transform="rotate(9.888634)"/>
      <ellipse style="fill:#000000;fill-opacity:1;stroke:none;stroke-width:0.499999;stroke-linecap:round;stroke-linejoin:round;stroke-dasharray:none" cx="130.50792" cy="87.704552" rx="0.23639949" ry="1.4492317" transform="rotate(15.914869)"/>
      <ellipse style="fill:#000000;fill-opacity:1;stroke:none;stroke-width:0.396875;stroke-linecap:round;stroke-linejoin:round;stroke-dasharray:none" cx="33.144459" cy="158.86438" rx="1.7473006" ry="0.16445182" transform="rotate(-28.21036)"/>
      <path style="fill:none;fill-rule:evenodd;stroke:#000000;stroke-width:0.396875;stroke-linecap:butt;stroke-linejoin:miter;stroke-dasharray:none;stroke-opacity:1" d="m 101.90897,125.58942 c -0.98364,-1.69003 -0.89002,-3.38005 -0.55492,-5.07008 0.0703,-0.35465 0.0279,-0.21595 0.11179,-0.5706"/>
      <ellipse style="fill:#000000;fill-opacity:1;stroke:none;stroke-width:0.132292;stroke-linecap:round;stroke-linejoin:round;stroke-dasharray:none" cx="22.456209" cy="161.64395" rx="1.0997716" ry="0.10278239" transform="rotate(-31.429787)"/>
      <ellipse style="fill:#000000;fill-opacity:1;stroke:none;stroke-width:0.0913757;stroke-linecap:round;stroke-linejoin:round;stroke-dasharray:none" cx="23.087255" cy="163.17305" rx="0.75962585" ry="0.070993066" transform="rotate(-31.429787)"/>
      <ellipse style="fill:#000000;fill-opacity:1;stroke:none;stroke-width:0.132292;stroke-linecap:round;stroke-linejoin:round;stroke-dasharray:none" cx="-1.6491346" cy="163.28731" rx="0.41112956" ry="0.082225911" transform="rotate(-40.558759)"/>
      <path style="fill:#000000;fill-rule:evenodd;stroke:#000000;stroke-width:0.181651px;stroke-linecap:butt;stroke-linejoin:miter;stroke-opacity:1" d="m 105.91056,118.28928 c 0.11435,0.14001 0.21548,0.27909 0.32352,0.42402 0.13926,0.16439 0.27109,0.33704 0.41215,0.49718 0.10688,0.0887 0.25505,0.31894 0.39777,0.44807 0.1069,0.0929 0.20183,0.27593 0.30252,0.31544 0.0603,-0.073 -0.11529,-0.36436 -0.22633,-0.52363 -0.1258,-0.16349 -0.25662,-0.34526 -0.38808,-0.51396 -0.14848,-0.11534 -0.24736,-0.25693 -0.36984,-0.4263 -0.14198,-0.17665 -0.29825,-0.34118 -0.40872,-0.537 -0.10862,-0.20165 -0.34664,-0.61072 -0.38232,-0.59746 -0.17832,0.0619 -0.0992,0.12123 -0.0468,0.29657 0.0525,0.17534 0.19685,0.42512 0.38608,0.61707 z"/>
      <path style="fill:#ffffff;fill-rule:evenodd;stroke:#000000;stroke-width:0.132292;stroke-linecap:butt;stroke-linejoin:miter;stroke-dasharray:none;stroke-opacity:1" d="m 112.59646,120.69275 c -0.56445,-0.12592 -1.1315,-0.91516 -1.18501,-1.26724 -0.0841,-0.55326 0.73812,-2.86153 1.20557,-3.10278 0.29111,-0.15024 1.48261,-0.33652 1.93833,0.12334 0.3265,0.32946 0.79407,2.43654 0.18501,3.39057 -0.41407,0.6486 -1.39286,1.02366 -2.1439,0.85611 z"/>
      <path style="fill:none;fill-rule:evenodd;stroke:#000000;stroke-width:0.264583;stroke-linecap:butt;stroke-linejoin:miter;stroke-dasharray:none;stroke-opacity:1" d="m 115.67292,124.39644 2.25662,1.16663 c 0.98364,-1.69003 0.89002,-3.38005 0.55492,-5.07008 -0.0703,-0.35465 -0.0279,-0.21595 -0.11179,-0.5706"/>
      <ellipse style="fill:#000000;fill-opacity:1;stroke:none;stroke-width:0.499999;stroke-linecap:round;stroke-linejoin:round;stroke-dasharray:none" cx="-16.111769" cy="163.63557" rx="0.50874686" ry="1.2936707" transform="matrix(-0.77556916,0.63126261,0.63126261,0.77556916,0,0)"/>
      <ellipse style="fill:#000000;fill-opacity:1;stroke:none;stroke-width:0.499999;stroke-linecap:round;stroke-linejoin:round;stroke-dasharray:none" cx="-84.755699" cy="143.94881" rx="0.49421123" ry="0.82853061" transform="matrix(-0.97198711,0.23503417,0.23503417,0.97198711,0,0)"/>
      <ellipse style="fill:#000000;fill-opacity:1;stroke:none;stroke-width:0.499999;stroke-linecap:round;stroke-linejoin:round;stroke-dasharray:none" cx="-116.69402" cy="122.42338" rx="0.36339062" ry="0.66863871" transform="scale(-1,1)"/>
      <ellipse style="fill:#000000;fill-opacity:1;stroke:none;stroke-width:0.499999;stroke-linecap:round;stroke-linejoin:round;stroke-dasharray:none" cx="-19.643787" cy="168.2011" rx="0.36339062" ry="0.21803437" transform="matrix(-0.8039472,0.59470068,0.59470068,0.8039472,0,0)"/>
      <ellipse style="fill:#000000;fill-opacity:1;stroke:none;stroke-width:0.702222;stroke-linecap:round;stroke-linejoin:round;stroke-dasharray:none" cx="-144.77763" cy="69.235222" rx="1.0448642" ry="0.52888507" transform="matrix(-0.9383529,-0.34567881,-0.35145656,0.93620419,0,0)"/>
      <ellipse style="fill:#000000;fill-opacity:1;stroke:none;stroke-width:0.499999;stroke-linecap:round;stroke-linejoin:round;stroke-dasharray:none" cx="-110.86523" cy="116.34748" rx="0.14535625" ry="0.29071251" transform="scale(-1,1)"/>
      <ellipse style="fill:#000000;fill-opacity:1;stroke:none;stroke-width:0.499999;stroke-linecap:round;stroke-linejoin:round;stroke-dasharray:none" cx="-110.6908" cy="118.71679" rx="0.17442749" ry="0.77038813" transform="scale(-1,1)"/>
      <ellipse style="fill:#000000;fill-opacity:1;stroke:none;stroke-width:0.499999;stroke-linecap:round;stroke-linejoin:round;stroke-dasharray:none" cx="-63.296017" cy="151.33992" rx="0.15989187" ry="0.71224564" transform="matrix(-0.93964273,0.34215718,0.34215718,0.93964273,0,0)"/>
      <ellipse style="fill:#000000;fill-opacity:1;stroke:none;stroke-width:0.499999;stroke-linecap:round;stroke-linejoin:round;stroke-dasharray:none" cx="-88.319794" cy="137.82146" rx="0.15989187" ry="0.71224564" transform="matrix(-0.98514341,0.17173368,0.17173368,0.98514341,0,0)"/>
      <ellipse style="fill:#000000;fill-opacity:1;stroke:none;stroke-width:0.499999;stroke-linecap:round;stroke-linejoin:round;stroke-dasharray:none" cx="-80.911453" cy="147.96086" rx="0.23639949" ry="1.4492317" transform="matrix(-0.96167018,0.27420879,0.27420879,0.96167018,0,0)"/>
      <ellipse style="fill:#000000;fill-opacity:1;stroke:none;stroke-width:0.396875;stroke-linecap:round;stroke-linejoin:round;stroke-dasharray:none" cx="-160.56874" cy="54.921288" rx="1.7473006" ry="0.16445182" transform="matrix(-0.88121799,-0.47271011,-0.47271011,0.88121799,0,0)"/>
      <path style="fill:none;fill-rule:evenodd;stroke:#000000;stroke-width:0.396875;stroke-linecap:butt;stroke-linejoin:miter;stroke-dasharray:none;stroke-opacity:1" d="m 117.92954,125.56307 c 0.98364,-1.69003 0.89002,-3.38005 0.55492,-5.07008 -0.0703,-0.35465 -0.0279,-0.21595 -0.11179,-0.5706"/>
      <ellipse style="fill:#000000;fill-opacity:1;stroke:none;stroke-width:0.132292;stroke-linecap:round;stroke-linejoin:round;stroke-dasharray:none" cx="-165.11382" cy="46.985954" rx="1.0997716" ry="0.10278239" transform="matrix(-0.85327982,-0.52145331,-0.52145331,0.85327982,0,0)"/>
      <ellipse style="fill:#000000;fill-opacity:1;stroke:none;stroke-width:0.0913757;stroke-linecap:round;stroke-linejoin:round;stroke-dasharray:none" cx="-164.48277" cy="48.515053" rx="0.75962585" ry="0.070993066" transform="matrix(-0.85327982,-0.52145331,-0.52145331,0.85327982,0,0)"/>
      <ellipse style="fill:#000000;fill-opacity:1;stroke:none;stroke-width:0.132292;stroke-linecap:round;stroke-linejoin:round;stroke-dasharray:none" cx="-168.65201" cy="20.322245" rx="0.41112956" ry="0.082225911" transform="matrix(-0.75973953,-0.65022753,-0.65022753,0.75973953,0,0)"/>
      <path style="fill:#000000;fill-rule:evenodd;stroke:#000000;stroke-width:0.181651px;stroke-linecap:butt;stroke-linejoin:miter;stroke-opacity:1" d="m 113.84573,118.42738 c -0.11435,0.14001 -0.21548,0.27909 -0.32352,0.42402 -0.13926,0.16439 -0.27109,0.33704 -0.41215,0.49718 -0.10688,0.0887 -0.25505,0.31894 -0.39777,0.44807 -0.1069,0.0929 -0.20183,0.27593 -0.30252,0.31544 -0.0603,-0.073 0.11529,-0.36436 0.22633,-0.52363 0.1258,-0.16349 0.25662,-0.34526 0.38808,-0.51396 0.14848,-0.11534 0.24736,-0.25693 0.36984,-0.4263 0.14198,-0.17665 0.29825,-0.34118 0.40872,-0.537 0.10862,-0.20165 0.34664,-0.61072 0.38232,-0.59746 0.17832,0.0619 0.0992,0.12123 0.0468,0.29657 -0.0525,0.17534 -0.19685,0.42512 -0.38608,0.61707 z"/>
      <g transform="matrix(1.0973927,0.51172263,-0.51172263,1.0973927,125.92749,183.68888)">
        <path style="fill:none;stroke:#000000;stroke-width:0.502327px;stroke-linecap:butt;stroke-linejoin:miter;stroke-opacity:1" d="m -35.533208,-39.941229 -0.499759,-0.502327 h -1.490557 -0.521293"/>
        <path style="fill:#ffffff;stroke:#000000;stroke-width:0.251163;stroke-miterlimit:4;stroke-dashoffset:0;stroke-opacity:1" d="m -36.11532,-40.42336 c 0.07072,0.11478 0.111506,0.249956 0.111506,0.394676 0,0.416128 -0.33734,0.753491 -0.753477,0.753491 -0.416164,0 -0.753505,-0.337363 -0.753505,-0.753491 0,-0.148638 0.04307,-0.287279 0.117377,-0.404021 z"/>
        <circle style="fill:#000000;fill-opacity:1;fill-rule:nonzero;stroke:#000000;stroke-width:0.251163;stroke-miterlimit:4;stroke-dasharray:none;stroke-dashoffset:0;stroke-opacity:1" cx="-36.789185" cy="-39.93866" r="0.2511633"/>
      </g>
      <g transform="matrix(1.0973927,-0.51172263,0.51172263,1.0973927,169.34057,148.60785)">
        <path style="fill:none;stroke:#000000;stroke-width:0.502327px;stroke-linecap:butt;stroke-linejoin:miter;stroke-opacity:1" d="m -33.021571,-39.941229 0.556457,-0.502327 h 1.955179"/>
        <path style="fill:#ffffff;stroke:#000000;stroke-width:0.251163;stroke-miterlimit:4;stroke-dashoffset:0;stroke-opacity:1" d="m -31.092046,-40.423411 c 0.0707,0.11478 0.111506,0.249956 0.111506,0.394676 0,0.416129 -0.33734,0.753491 -0.753505,0.753491 -0.416137,0 -0.753477,-0.337362 -0.753477,-0.753491 0,-0.148638 0.04304,-0.287279 0.117376,-0.40402 z"/>
        <circle style="fill:#000000;fill-opacity:1;fill-rule:nonzero;stroke:#000000;stroke-width:0.251163;stroke-miterlimit:4;stroke-dasharray:none;stroke-dashoffset:0;stroke-opacity:1" cx="-31.749975" cy="-39.93866" r="0.2511633"/>
      </g>
    </g></g></g></svg>