<svg xmlns="http://www.w3.org/2000/svg" xmlns:xlink="http://www.w3.org/1999/xlink" width="64" height="64" viewBox="0 0 64 64"><defs id="defs355716">
    <rect x="172" y="97" width="745" height="239" id="rect276290"/>
    <color-profile name="Agfa-:-Swop-Standard" xmlns:xlink="http://www.w3.org/1999/xlink" xlink:href="file:///C:/WINDOWS/system32/spool/drivers/color/RSWOP.icm" id="color-profile294613"/>
    <linearGradient xmlns:inkscape="http://www.inkscape.org/namespaces/inkscape" inkscape:collect="always" id="linearGradient140439">
      <stop style="stop-color:#a4a870;stop-opacity:1;" offset="0" id="stop140435"/>
      <stop style="stop-color:#a4a870;stop-opacity:0;" offset="1" id="stop140437"/>
    </linearGradient>
    <linearGradient xmlns:inkscape="http://www.inkscape.org/namespaces/inkscape" inkscape:collect="always" id="linearGradient140390">
      <stop style="stop-color:#359676;stop-opacity:1;" offset="0" id="stop140386"/>
      <stop style="stop-color:#4a6a5e;stop-opacity:0;" offset="1" id="stop140388"/>
    </linearGradient>
    <linearGradient xmlns:inkscape="http://www.inkscape.org/namespaces/inkscape" inkscape:collect="always" id="linearGradient139515">
      <stop style="stop-color:#dbd764;stop-opacity:1;" offset="0" id="stop139511"/>
      <stop style="stop-color:#dbd764;stop-opacity:0;" offset="0.56578946" id="stop139513"/>
    </linearGradient>
    <linearGradient xmlns:inkscape="http://www.inkscape.org/namespaces/inkscape" inkscape:collect="always" id="linearGradient139325">
      <stop style="stop-color:#161c16;stop-opacity:1;" offset="0" id="stop139321"/>
      <stop style="stop-color:#6e836c;stop-opacity:0;" offset="1" id="stop139323"/>
    </linearGradient>
    <linearGradient xmlns:inkscape="http://www.inkscape.org/namespaces/inkscape" inkscape:collect="always" id="linearGradient387614">
      <stop style="stop-color:#a4a870;stop-opacity:1;" offset="0" id="stop387610"/>
      <stop style="stop-color:#a4a870;stop-opacity:0;" offset="1" id="stop387612"/>
    </linearGradient>
    <linearGradient xmlns:inkscape="http://www.inkscape.org/namespaces/inkscape" inkscape:collect="always" id="linearGradient387421">
      <stop style="stop-color:#344533;stop-opacity:1;" offset="0" id="stop387417"/>
      <stop style="stop-color:#1d251d;stop-opacity:0;" offset="1" id="stop387419"/>
    </linearGradient>
    <linearGradient xmlns:inkscape="http://www.inkscape.org/namespaces/inkscape" inkscape:collect="always" xmlns:xlink="http://www.w3.org/1999/xlink" xlink:href="#linearGradient206680" id="linearGradient206682" x1="168.01042" y1="262.08701" x2="168.01042" y2="247.38542" gradientUnits="userSpaceOnUse"/>
    <linearGradient xmlns:inkscape="http://www.inkscape.org/namespaces/inkscape" inkscape:collect="always" id="linearGradient206680">
      <stop style="stop-color:#dbd764;stop-opacity:0;" offset="0.38377193" id="stop206678"/>
      <stop style="stop-color:#dbd764;stop-opacity:1;" offset="1" id="stop206676"/>
    </linearGradient>
    <linearGradient xmlns:inkscape="http://www.inkscape.org/namespaces/inkscape" inkscape:collect="always" xmlns:xlink="http://www.w3.org/1999/xlink" xlink:href="#linearGradient216292" id="linearGradient216294" x1="168.01042" y1="236.00833" x2="168.01042" y2="248.97292" gradientUnits="userSpaceOnUse" gradientTransform="translate(8.4073796,-0.78650088)"/>
    <linearGradient xmlns:inkscape="http://www.inkscape.org/namespaces/inkscape" inkscape:collect="always" id="linearGradient216292">
      <stop style="stop-color:#359676;stop-opacity:1;" offset="0" id="stop216288"/>
      <stop style="stop-color:#4a6a5f;stop-opacity:0;" offset="1" id="stop216290"/>
    </linearGradient>
    <linearGradient xmlns:inkscape="http://www.inkscape.org/namespaces/inkscape" inkscape:collect="always" xmlns:xlink="http://www.w3.org/1999/xlink" xlink:href="#linearGradient387421" id="linearGradient387423" x1="31.75" y1="155.31041" x2="31.921236" y2="171.18663" gradientUnits="userSpaceOnUse"/>
    <linearGradient xmlns:inkscape="http://www.inkscape.org/namespaces/inkscape" inkscape:collect="always" xmlns:xlink="http://www.w3.org/1999/xlink" xlink:href="#linearGradient387614" id="linearGradient387616" x1="45.011326" y1="158.73975" x2="51.59375" y2="162.71875" gradientUnits="userSpaceOnUse" gradientTransform="translate(2.9601329,-0.98671096)"/>
    <linearGradient xmlns:inkscape="http://www.inkscape.org/namespaces/inkscape" inkscape:collect="always" xmlns:xlink="http://www.w3.org/1999/xlink" xlink:href="#linearGradient387614" id="linearGradient387620" gradientUnits="userSpaceOnUse" x1="45.011326" y1="158.73975" x2="51.593746" y2="162.71875" gradientTransform="matrix(-1,0,0,1,108.79346,-0.98671096)"/>
    <linearGradient xmlns:inkscape="http://www.inkscape.org/namespaces/inkscape" inkscape:collect="always" xmlns:xlink="http://www.w3.org/1999/xlink" xlink:href="#linearGradient139325" id="linearGradient139327" x1="70" y1="21" x2="70" y2="37" gradientUnits="userSpaceOnUse"/>
    <linearGradient xmlns:inkscape="http://www.inkscape.org/namespaces/inkscape" inkscape:collect="always" xmlns:xlink="http://www.w3.org/1999/xlink" xlink:href="#linearGradient139515" id="linearGradient139517" x1="70.426315" y1="1.5429174" x2="70.46106" y2="18.249472" gradientUnits="userSpaceOnUse"/>
    <linearGradient xmlns:inkscape="http://www.inkscape.org/namespaces/inkscape" inkscape:collect="always" xmlns:xlink="http://www.w3.org/1999/xlink" xlink:href="#linearGradient140390" id="linearGradient140392" x1="90.084175" y1="1.3586814" x2="90" y2="16" gradientUnits="userSpaceOnUse"/>
    <linearGradient xmlns:inkscape="http://www.inkscape.org/namespaces/inkscape" inkscape:collect="always" xmlns:xlink="http://www.w3.org/1999/xlink" xlink:href="#linearGradient140439" id="linearGradient140441" x1="90.01368" y1="24.010059" x2="94.88681" y2="28.136377" gradientUnits="userSpaceOnUse"/>
    <linearGradient xmlns:inkscape="http://www.inkscape.org/namespaces/inkscape" inkscape:collect="always" xmlns:xlink="http://www.w3.org/1999/xlink" xlink:href="#linearGradient140439" id="linearGradient140449" gradientUnits="userSpaceOnUse" x1="90.01368" y1="24.010059" x2="94.88681" y2="28.136377" gradientTransform="matrix(-1,0,0,1,190,0)"/>
    <radialGradient xmlns:inkscape="http://www.inkscape.org/namespaces/inkscape" inkscape:collect="always" xmlns:xlink="http://www.w3.org/1999/xlink" xlink:href="#linearGradient177339" id="radialGradient177341-3-0" cx="44.135807" cy="121.46028" fx="44.135807" fy="121.46028" r="1.1079427" gradientTransform="matrix(1.5015971,0,0,0.99367432,-157.6034,-4.3351259)" gradientUnits="userSpaceOnUse"/>
    <linearGradient xmlns:inkscape="http://www.inkscape.org/namespaces/inkscape" inkscape:collect="always" id="linearGradient177339">
      <stop style="stop-color:#b98d3e;stop-opacity:1;" offset="0" id="stop177335"/>
      <stop style="stop-color:#c9c943;stop-opacity:0;" offset="1" id="stop177337"/>
    </linearGradient>
    <radialGradient xmlns:inkscape="http://www.inkscape.org/namespaces/inkscape" inkscape:collect="always" xmlns:xlink="http://www.w3.org/1999/xlink" xlink:href="#linearGradient177339" id="radialGradient177345-7-9" gradientUnits="userSpaceOnUse" gradientTransform="matrix(1.5015971,0,0,0.99367432,-195.50719,-68.761115)" cx="44.135807" cy="121.46028" fx="44.135807" fy="121.46028" r="1.1079427"/>
    <rect x="172" y="97" width="745" height="239" id="rect276290-2"/>
    <rect x="172" y="97" width="745" height="239" id="rect276290-2-5"/>
    <rect x="172" y="97" width="745" height="239" id="rect276290-2-5-7"/>
  </defs><g transform="translate(-508.60545189928496 -209.77400519970465) scale(2.530230608486784)"><g><g transform="translate(-13.844562,-4.8643054)">
      <path style="fill:#e9d9e2;fill-opacity:1;fill-rule:evenodd;stroke:#000000;stroke-width:0.214312px;stroke-linecap:butt;stroke-linejoin:miter;stroke-opacity:1" d="m 233.98348,101.83215 c 1.93948,-1.01183 1.03732,-0.53829 2.5492,-1.63613 -0.0256,1.25392 -0.29959,2.41332 -0.85702,3.08766 -0.88277,1.06794 -0.77763,0.94301 -1.69218,1.20045"/>
      <path style="fill:#e9d9e2;fill-opacity:1;fill-rule:evenodd;stroke:#000000;stroke-width:0.214312px;stroke-linecap:butt;stroke-linejoin:miter;stroke-opacity:1" d="m 221.62767,101.88572 c -1.93948,-1.01181 -1.46594,-0.59186 -2.97782,-1.6897 0.0256,1.25392 0.2996,2.41332 0.85702,3.08766 0.88278,1.06794 1.20626,0.99658 2.1208,1.25403"/>
      <path style="fill:#e9d9e2;fill-opacity:1;stroke:#000000;stroke-width:0.6096;stroke-linecap:butt;stroke-linejoin:miter;stroke-miterlimit:4;stroke-dasharray:none;stroke-opacity:1" d="m 227.60965,96.848715 c -4.67522,-0.899253 -7.90417,4.776215 -6.09847,8.783385 0.67741,3.65367 4.79397,7.38567 8.50415,5.20545 3.55972,-2.17149 4.70372,-7.11728 3.52116,-10.919396 -0.99425,-2.325057 -3.51813,-3.365194 -5.92684,-3.069439 z"/>
      <path d="m 226.77406,106.30807 c 0.13543,0.52502 0.20045,1.21779 0.84639,1.23746 0.82502,0.0251 0.69302,-0.55657 0.84638,-1.24693" style="fill:none;stroke:#000000;stroke-width:0.3048;stroke-linecap:butt;stroke-linejoin:miter;stroke-miterlimit:4;stroke-dasharray:none;stroke-opacity:1"/>
      <path d="m 226.48459,108.76829 c 0,0 0.17551,0.008 1.21163,0.008 1.03611,0 1.16725,0.0454 1.16725,0.0454" style="fill:none;stroke:#000000;stroke-width:0.3048;stroke-linecap:butt;stroke-linejoin:miter;stroke-miterlimit:4;stroke-dasharray:none;stroke-opacity:1"/>
      <path d="m 225.8155,104.22963 c 0.0344,0.11508 0.15027,0.34634 0.1169,0.47089 -0.096,0.35813 -0.57604,0.46519 -0.93418,0.36922 -0.35817,-0.096 -0.77394,-0.55093 -0.67798,-0.90905 0.0343,-0.12793 0.30659,-0.15051 0.39743,-0.23384 0.16444,-0.1178 0.46279,-0.0902 1.09791,0.30248 z" style="fill:#ffffff;stroke:#000000;stroke-width:0.223786;stroke-miterlimit:4;stroke-dashoffset:0;stroke-opacity:1"/>
      <circle r="0.2237865" cy="42.620399" cx="244.4973" style="fill:#000000;fill-opacity:1;fill-rule:nonzero;stroke:#000000;stroke-width:0.223786;stroke-miterlimit:4;stroke-dasharray:none;stroke-dashoffset:0;stroke-opacity:1" transform="rotate(15)"/>
      <path d="m 230.58095,103.92333 c 0.0873,0.0825 0.47563,0.10312 0.50901,0.22768 0.096,0.35814 -0.43861,0.81255 -0.79677,0.90852 -0.35815,0.096 -0.8738,-0.0231 -0.96977,-0.38125 -0.0343,-0.12793 0.1183,-0.35062 0.15539,-0.46825 0.348,-0.28274 0.70352,-0.49286 1.10206,-0.28699 z" style="fill:#ffffff;stroke:#000000;stroke-width:0.223786;stroke-miterlimit:4;stroke-dashoffset:0;stroke-opacity:1"/>
      <circle r="0.2237865" cy="160.44868" cx="195.24062" style="fill:#000000;fill-opacity:1;fill-rule:nonzero;stroke:#000000;stroke-width:0.223786;stroke-miterlimit:4;stroke-dasharray:none;stroke-dashoffset:0;stroke-opacity:1" transform="rotate(-15)"/>
      <path style="fill:#a73a5a;fill-opacity:1;stroke:#000000;stroke-width:0.67056px;stroke-linecap:butt;stroke-linejoin:miter;stroke-opacity:1" d="m 220.22845,103.48596 c 4.02335,-0.67057 5.69975,-1.67641 7.37616,-3.3528 v -4.35865 c -6.03504,-0.670551 -8.04672,3.017525 -7.37616,7.71145 z"/>
      <path d="m 234.98076,103.48596 c -4.02335,-0.67057 -5.87142,-1.62239 -7.37615,-3.3528 v -4.35865 c 6.03503,-0.670551 8.04671,3.017525 7.37615,7.71145 z" style="fill:#a73a5a;fill-opacity:1;stroke:#000000;stroke-width:0.67056px;stroke-linecap:butt;stroke-linejoin:miter;stroke-opacity:1"/>
      <path style="fill:#999999;fill-opacity:1;fill-rule:evenodd;stroke:#000000;stroke-width:0.214312px;stroke-linecap:butt;stroke-linejoin:miter;stroke-opacity:1" d="m 225.80537,97.929944 c -0.64915,-0.755973 -0.97708,-1.728127 -1.32351,-2.64691 -0.30982,-1.292898 -0.23676,-2.64593 -0.61193,-3.927763 -0.12898,-0.772837 -0.34495,-1.761418 -1.21268,-2.003016 -0.0124,1.088688 0.19124,2.205443 -0.16143,3.262526 -0.0761,0.836236 -0.43051,1.640922 -0.32407,2.493901 -0.10413,0.857571 0.12203,1.694349 0.57266,2.423479 0.40068,0.604649 0.73508,1.256375 1.16673,1.837428"/>
      <path style="fill:#999999;fill-opacity:1;fill-rule:evenodd;stroke:#000000;stroke-width:0.214312px;stroke-linecap:butt;stroke-linejoin:miter;stroke-opacity:1" d="m 229.39488,97.929944 c 0.64915,-0.755973 0.97707,-1.728127 1.3235,-2.64691 0.30983,-1.292898 0.23677,-2.64593 0.61193,-3.927763 0.12899,-0.772837 0.34496,-1.761418 1.21268,-2.003016 0.0124,1.088688 -0.19123,2.205443 0.16143,3.262526 0.0761,0.836236 0.43051,1.640922 0.32407,2.493901 0.10413,0.857571 -0.12203,1.694349 -0.57266,2.423479 -0.40067,0.604649 -0.73507,1.256375 -1.16673,1.837428"/>
      <path style="fill:#999999;fill-rule:evenodd;stroke:#000000;stroke-width:0.214312px;stroke-linecap:butt;stroke-linejoin:miter;stroke-opacity:1" d="m 222.77453,101.03655 c -0.12767,-0.78021 -1.12404,-1.02045 -1.75841,-0.70362 -0.77117,0.25478 -1.15659,1.1031 -1.08393,1.87056 -0.0174,0.87037 0.12116,1.73745 0.0698,2.60658 -0.0947,0.48736 -0.46843,1.00846 -1.02874,0.89149 -0.34586,0.0799 -0.8316,-0.32042 -1.04254,-0.14705 0.39378,0.50446 1.1073,0.7757 1.74658,0.75245 0.66254,0.0219 1.01645,-0.62593 1.13724,-1.19114 0.0816,-0.55407 0.2527,-1.10078 0.17007,-1.66793 -0.10663,-0.57826 0.47584,-1.17261 0.99466,-0.70651"/>
      <path style="fill:#999999;fill-rule:evenodd;stroke:#000000;stroke-width:0.214312px;stroke-linecap:butt;stroke-linejoin:miter;stroke-opacity:1" d="m 232.23171,100.9294 c 0.12768,-0.78023 1.12405,-1.020456 1.75842,-0.70362 0.77117,0.25477 1.15659,1.10309 1.08393,1.87055 0.0174,0.87037 -0.12116,1.73745 -0.0698,2.60658 0.0947,0.48736 0.46843,1.00845 1.02874,0.8915 0.34586,0.0799 0.83159,-0.32042 1.04254,-0.14705 -0.39378,0.50444 -1.1073,0.7757 -1.74658,0.75245 -0.66254,0.022 -1.01645,-0.62594 -1.13724,-1.19115 -0.0816,-0.55406 -0.2527,-1.10078 -0.17007,-1.66792 0.10663,-0.57827 -0.47584,-1.17262 -0.99466,-0.70652"/>
      <path d="m 226.2053,104.92763 -0.31427,-0.54757 c -0.51107,-0.40129 -1.09098,-0.54566 -1.73147,-0.46394" style="fill:none;stroke:#000000;stroke-width:0.447573px;stroke-linecap:butt;stroke-linejoin:miter;stroke-opacity:1"/>
      <path d="m 229.03151,104.91556 0.36307,-0.56064 c 0.57806,-0.4363 1.13616,-0.53992 1.68271,-0.45088" style="fill:none;stroke:#000000;stroke-width:0.447573px;stroke-linecap:butt;stroke-linejoin:miter;stroke-opacity:1"/>
    </g></g></g></svg>