<svg xmlns="http://www.w3.org/2000/svg" xmlns:xlink="http://www.w3.org/1999/xlink" width="64" height="64" viewBox="0 0 64 64"><defs id="defs355716">
    <rect x="172" y="97" width="745" height="239" id="rect276290"/>
    <color-profile name="Agfa-:-Swop-Standard" xmlns:xlink="http://www.w3.org/1999/xlink" xlink:href="file:///C:/WINDOWS/system32/spool/drivers/color/RSWOP.icm" id="color-profile294613"/>
    <linearGradient xmlns:inkscape="http://www.inkscape.org/namespaces/inkscape" inkscape:collect="always" id="linearGradient140439">
      <stop style="stop-color:#a4a870;stop-opacity:1;" offset="0" id="stop140435"/>
      <stop style="stop-color:#a4a870;stop-opacity:0;" offset="1" id="stop140437"/>
    </linearGradient>
    <linearGradient xmlns:inkscape="http://www.inkscape.org/namespaces/inkscape" inkscape:collect="always" id="linearGradient140390">
      <stop style="stop-color:#359676;stop-opacity:1;" offset="0" id="stop140386"/>
      <stop style="stop-color:#4a6a5e;stop-opacity:0;" offset="1" id="stop140388"/>
    </linearGradient>
    <linearGradient xmlns:inkscape="http://www.inkscape.org/namespaces/inkscape" inkscape:collect="always" id="linearGradient139515">
      <stop style="stop-color:#dbd764;stop-opacity:1;" offset="0" id="stop139511"/>
      <stop style="stop-color:#dbd764;stop-opacity:0;" offset="0.56578946" id="stop139513"/>
    </linearGradient>
    <linearGradient xmlns:inkscape="http://www.inkscape.org/namespaces/inkscape" inkscape:collect="always" id="linearGradient139325">
      <stop style="stop-color:#161c16;stop-opacity:1;" offset="0" id="stop139321"/>
      <stop style="stop-color:#6e836c;stop-opacity:0;" offset="1" id="stop139323"/>
    </linearGradient>
    <linearGradient xmlns:inkscape="http://www.inkscape.org/namespaces/inkscape" inkscape:collect="always" id="linearGradient387614">
      <stop style="stop-color:#a4a870;stop-opacity:1;" offset="0" id="stop387610"/>
      <stop style="stop-color:#a4a870;stop-opacity:0;" offset="1" id="stop387612"/>
    </linearGradient>
    <linearGradient xmlns:inkscape="http://www.inkscape.org/namespaces/inkscape" inkscape:collect="always" id="linearGradient387421">
      <stop style="stop-color:#344533;stop-opacity:1;" offset="0" id="stop387417"/>
      <stop style="stop-color:#1d251d;stop-opacity:0;" offset="1" id="stop387419"/>
    </linearGradient>
    <linearGradient xmlns:inkscape="http://www.inkscape.org/namespaces/inkscape" inkscape:collect="always" xmlns:xlink="http://www.w3.org/1999/xlink" xlink:href="#linearGradient206680" id="linearGradient206682" x1="168.01042" y1="262.08701" x2="168.01042" y2="247.38542" gradientUnits="userSpaceOnUse"/>
    <linearGradient xmlns:inkscape="http://www.inkscape.org/namespaces/inkscape" inkscape:collect="always" id="linearGradient206680">
      <stop style="stop-color:#dbd764;stop-opacity:0;" offset="0.38377193" id="stop206678"/>
      <stop style="stop-color:#dbd764;stop-opacity:1;" offset="1" id="stop206676"/>
    </linearGradient>
    <linearGradient xmlns:inkscape="http://www.inkscape.org/namespaces/inkscape" inkscape:collect="always" xmlns:xlink="http://www.w3.org/1999/xlink" xlink:href="#linearGradient216292" id="linearGradient216294" x1="168.01042" y1="236.00833" x2="168.01042" y2="248.97292" gradientUnits="userSpaceOnUse" gradientTransform="translate(8.4073796,-0.78650088)"/>
    <linearGradient xmlns:inkscape="http://www.inkscape.org/namespaces/inkscape" inkscape:collect="always" id="linearGradient216292">
      <stop style="stop-color:#359676;stop-opacity:1;" offset="0" id="stop216288"/>
      <stop style="stop-color:#4a6a5f;stop-opacity:0;" offset="1" id="stop216290"/>
    </linearGradient>
    <linearGradient xmlns:inkscape="http://www.inkscape.org/namespaces/inkscape" inkscape:collect="always" xmlns:xlink="http://www.w3.org/1999/xlink" xlink:href="#linearGradient387421" id="linearGradient387423" x1="31.75" y1="155.31041" x2="31.921236" y2="171.18663" gradientUnits="userSpaceOnUse"/>
    <linearGradient xmlns:inkscape="http://www.inkscape.org/namespaces/inkscape" inkscape:collect="always" xmlns:xlink="http://www.w3.org/1999/xlink" xlink:href="#linearGradient387614" id="linearGradient387616" x1="45.011326" y1="158.73975" x2="51.59375" y2="162.71875" gradientUnits="userSpaceOnUse" gradientTransform="translate(2.9601329,-0.98671096)"/>
    <linearGradient xmlns:inkscape="http://www.inkscape.org/namespaces/inkscape" inkscape:collect="always" xmlns:xlink="http://www.w3.org/1999/xlink" xlink:href="#linearGradient387614" id="linearGradient387620" gradientUnits="userSpaceOnUse" x1="45.011326" y1="158.73975" x2="51.593746" y2="162.71875" gradientTransform="matrix(-1,0,0,1,108.79346,-0.98671096)"/>
    <linearGradient xmlns:inkscape="http://www.inkscape.org/namespaces/inkscape" inkscape:collect="always" xmlns:xlink="http://www.w3.org/1999/xlink" xlink:href="#linearGradient139325" id="linearGradient139327" x1="70" y1="21" x2="70" y2="37" gradientUnits="userSpaceOnUse"/>
    <linearGradient xmlns:inkscape="http://www.inkscape.org/namespaces/inkscape" inkscape:collect="always" xmlns:xlink="http://www.w3.org/1999/xlink" xlink:href="#linearGradient139515" id="linearGradient139517" x1="70.426315" y1="1.5429174" x2="70.46106" y2="18.249472" gradientUnits="userSpaceOnUse"/>
    <linearGradient xmlns:inkscape="http://www.inkscape.org/namespaces/inkscape" inkscape:collect="always" xmlns:xlink="http://www.w3.org/1999/xlink" xlink:href="#linearGradient140390" id="linearGradient140392" x1="90.084175" y1="1.3586814" x2="90" y2="16" gradientUnits="userSpaceOnUse"/>
    <linearGradient xmlns:inkscape="http://www.inkscape.org/namespaces/inkscape" inkscape:collect="always" xmlns:xlink="http://www.w3.org/1999/xlink" xlink:href="#linearGradient140439" id="linearGradient140441" x1="90.01368" y1="24.010059" x2="94.88681" y2="28.136377" gradientUnits="userSpaceOnUse"/>
    <linearGradient xmlns:inkscape="http://www.inkscape.org/namespaces/inkscape" inkscape:collect="always" xmlns:xlink="http://www.w3.org/1999/xlink" xlink:href="#linearGradient140439" id="linearGradient140449" gradientUnits="userSpaceOnUse" x1="90.01368" y1="24.010059" x2="94.88681" y2="28.136377" gradientTransform="matrix(-1,0,0,1,190,0)"/>
    <radialGradient xmlns:inkscape="http://www.inkscape.org/namespaces/inkscape" inkscape:collect="always" xmlns:xlink="http://www.w3.org/1999/xlink" xlink:href="#linearGradient177339" id="radialGradient177341-3-0" cx="44.135807" cy="121.46028" fx="44.135807" fy="121.46028" r="1.1079427" gradientTransform="matrix(1.5015971,0,0,0.99367432,-157.6034,-4.3351259)" gradientUnits="userSpaceOnUse"/>
    <linearGradient xmlns:inkscape="http://www.inkscape.org/namespaces/inkscape" inkscape:collect="always" id="linearGradient177339">
      <stop style="stop-color:#b98d3e;stop-opacity:1;" offset="0" id="stop177335"/>
      <stop style="stop-color:#c9c943;stop-opacity:0;" offset="1" id="stop177337"/>
    </linearGradient>
    <radialGradient xmlns:inkscape="http://www.inkscape.org/namespaces/inkscape" inkscape:collect="always" xmlns:xlink="http://www.w3.org/1999/xlink" xlink:href="#linearGradient177339" id="radialGradient177345-7-9" gradientUnits="userSpaceOnUse" gradientTransform="matrix(1.5015971,0,0,0.99367432,-195.50719,-68.761115)" cx="44.135807" cy="121.46028" fx="44.135807" fy="121.46028" r="1.1079427"/>
    <rect x="172" y="97" width="745" height="239" id="rect276290-2"/>
    <rect x="172" y="97" width="745" height="239" id="rect276290-2-5"/>
    <rect x="172" y="97" width="745" height="239" id="rect276290-2-5-7"/>
  </defs><g transform="translate(241.32997304619286 -72.11168320737866) scale(2.1482361346083576)"><g><g transform="translate(-167.56884,-120.36944)">
      <path style="fill:#3d6fb9;fill-opacity:1;fill-rule:evenodd;stroke:#000000;stroke-width:0.264583px;stroke-linecap:butt;stroke-linejoin:miter;stroke-opacity:1" d="m 74.522469,162.89309 3.96875,-5.29166 h 3.96875 v 0.52917 h -3.70417 l -3.43958,4.76249"/>
      <path style="fill:#3d6fb9;fill-opacity:1;fill-rule:evenodd;stroke:#000000;stroke-width:0.264583px;stroke-linecap:butt;stroke-linejoin:miter;stroke-opacity:1" d="m 65.823335,162.6734 -3.96875,-5.29166 h -3.96875 v 0.52918 h 3.70418 l 3.43957,4.76248"/>
      <path style="fill:#1e2874;fill-opacity:1;fill-rule:evenodd;stroke:#000000;stroke-width:0.330729px;stroke-linecap:butt;stroke-linejoin:miter;stroke-opacity:1" d="m 65.495915,177.30818 0.99219,1.65364 1.98437,-1.65364"/>
      <path style="fill:#1e2874;fill-opacity:1;fill-rule:evenodd;stroke:#000000;stroke-width:0.330729px;stroke-linecap:butt;stroke-linejoin:miter;stroke-opacity:1" d="m 74.756325,177.30818 -0.99219,1.65364 -1.98437,-1.65364"/>
      <path style="fill:#1e2874;fill-opacity:1;fill-rule:evenodd;stroke:#000000;stroke-width:0.330729px;stroke-linecap:butt;stroke-linejoin:miter;stroke-opacity:1" d="m 61.196425,165.07119 c 0,0 -0.54817,-0.84308 -0.66145,-1.32291 -0.12664,-0.53647 -0.17431,-1.13072 0,-1.65365 0.17431,-0.52292 0.99219,-1.32291 0.99219,-1.32291 0,0 0.0462,0.96835 0.33072,1.32291 0.3085,0.38458 0.84308,0.54819 1.32292,0.66146 0.32188,0.076 0.99218,0 0.99218,0"/>
      <path style="fill:#1e2874;fill-opacity:1;fill-rule:evenodd;stroke:#000000;stroke-width:0.330729px;stroke-linecap:butt;stroke-linejoin:miter;stroke-opacity:1" d="m 79.055815,165.07119 c 0,0 0.54817,-0.84308 0.66145,-1.32291 0.12664,-0.53647 0.17431,-1.13072 0,-1.65365 -0.17431,-0.52292 -0.99219,-1.32291 -0.99219,-1.32291 0,0 -0.0463,0.96835 -0.33072,1.32291 -0.3085,0.38458 -0.84308,0.54819 -1.32292,0.66146 -0.32188,0.076 -0.99218,0 -0.99218,0"/>
      <path style="fill:#1e2874;fill-opacity:1;fill-rule:evenodd;stroke:#000000;stroke-width:0.330729px;stroke-linecap:butt;stroke-linejoin:miter;stroke-opacity:1" d="m 59.873515,172.67797 c 0,0 -1.53953,1.40122 -1.98438,2.3151 -0.49206,1.01086 -1.06271,2.25707 -0.66146,3.3073 0.39346,1.02982 2.64584,1.98437 2.64584,1.98437 h 1.65365 c 0,0 -1.10244,-1.10243 -1.65365,-1.65365 -0.33073,-0.33072 -0.89815,-0.53401 -0.99219,-0.99218 -0.11937,-0.58155 0.19899,-1.2814 0.66146,-1.65365 0.52239,-0.42047 1.98438,-0.33073 1.98438,-0.33073"/>
      <path style="fill:#1e2874;fill-opacity:1;fill-rule:evenodd;stroke:#000000;stroke-width:0.330729px;stroke-linecap:butt;stroke-linejoin:miter;stroke-opacity:1" d="m 80.378725,172.67797 c 0,0 1.53953,1.40122 1.98438,2.3151 0.49206,1.01086 1.06271,2.25707 0.66146,3.3073 -0.39346,1.02982 -2.64584,1.98437 -2.64584,1.98437 h -1.65365 c 0,0 1.10244,-1.10243 1.65365,-1.65365 0.33073,-0.33072 0.89815,-0.53401 0.99219,-0.99218 0.11937,-0.58155 -0.19899,-1.2814 -0.66146,-1.65365 -0.52239,-0.42047 -1.98438,-0.33073 -1.98438,-0.33073"/>
      <path style="fill:#3d6fb9;fill-opacity:1;fill-rule:evenodd;stroke:#000000;stroke-width:0.330729px;stroke-linecap:butt;stroke-linejoin:miter;stroke-opacity:1" d="m 70.126125,162.42537 c -2.81066,0 -6.23407,-0.28595 -8.26822,1.65365 -1.64483,1.56837 -1.37595,4.3589 -1.65364,6.61459 -0.1347,1.09417 -0.52019,2.3353 0,3.30728 0.93779,1.75227 3.05877,2.73137 4.96092,3.30729 1.5827,0.4792 3.3073,1e-5 4.96095,1e-5 1.65365,0 3.37825,0.4792 4.96094,0 1.90216,-0.57592 4.02315,-1.55502 4.96094,-3.3073 0.52019,-0.97198 0.1347,-2.21311 0,-3.30728 -0.27769,-2.25569 -0.009,-5.04622 -1.65365,-6.61459 -2.03415,-1.9396 -5.45758,-1.65365 -8.26824,-1.65365 z"/>
      <path style="fill:none;fill-rule:evenodd;stroke:#000000;stroke-width:0.330729px;stroke-linecap:butt;stroke-linejoin:miter;stroke-opacity:1" d="M 75.087065,162.42537 Z"/>
      <path style="fill:none;fill-rule:evenodd;stroke:#000000;stroke-width:0.330729px;stroke-linecap:butt;stroke-linejoin:miter;stroke-opacity:1" d="m 65.495925,173.67017 c 3.107208,0.65294 6.19725,0.75658 9.26041,0"/>
      <path style="fill:none;fill-rule:evenodd;stroke:#000000;stroke-width:0.330729px;stroke-linecap:butt;stroke-linejoin:miter;stroke-opacity:1" d="m 67.480275,169.37068 v 2.3151"/>
      <path style="fill:none;fill-rule:evenodd;stroke:#000000;stroke-width:0.330729px;stroke-linecap:butt;stroke-linejoin:miter;stroke-opacity:1" d="m 72.771975,169.37068 v 2.3151"/>
      <g transform="rotate(-15,45.173556,163.48471)">
        <path style="fill:#ffffff;stroke:#000000;stroke-width:0.1905;stroke-linecap:round;stroke-linejoin:round" d="m 63.063167,172.58934 a 1.1906249,1.7859375 20 0 1 -1.72966,1.27101 1.1906249,1.7859375 20 0 1 -0.50799,-2.08545 1.1906249,1.7859375 20 0 1 1.72965,-1.27102 1.1906249,1.7859375 20 0 1 0.508,2.08546 z"/>
        <path style="opacity:1;fill:#274675;fill-opacity:1;stroke:none;stroke-width:0.0206706;stroke-linecap:round;stroke-linejoin:round;stroke-dasharray:none;stroke-opacity:1" d="m 60.577226,172.61679 c 0.02113,0.3607 0.123147,0.73448 0.364622,1.01235 0.178716,0.20312 0.446971,0.33687 0.721267,0.31607 0.297118,-0.001 0.577804,-0.14089 0.80569,-0.32286 0.02613,-0.0343 -0.04903,-0.0421 -0.06571,-0.0608 -0.603241,-0.32001 -1.206586,-0.6403 -1.814989,-0.95027 l -0.0092,0.005 z"/>
        <path style="fill:none;fill-rule:evenodd;stroke:#000000;stroke-width:0.238125px;stroke-linecap:butt;stroke-linejoin:miter;stroke-opacity:1" d="m 60.658848,172.5462 1.86039,0.98027"/>
        <path style="opacity:1;fill:#274675;fill-opacity:1;stroke:none;stroke-width:0.0206706;stroke-linecap:round;stroke-linejoin:round;stroke-dasharray:none;stroke-opacity:1" d="m 62.21473,170.44645 c -0.274158,0.005 -0.536509,0.12461 -0.75056,0.2902 -0.03053,0.0373 0.05471,0.0402 0.07112,0.0574 0.563847,0.23543 1.125263,0.4775 1.695612,0.69686 0.02573,0.0186 0.05524,0.004 0.04059,-0.028 -0.07361,-0.36496 -0.261041,-0.73595 -0.600032,-0.91873 -0.138787,-0.077 -0.299736,-0.10148 -0.45673,-0.0977 z"/>
        <circle style="fill:#000000;fill-opacity:1;stroke:#000000;stroke-width:0.297656;stroke-linecap:round;stroke-linejoin:round;stroke-dasharray:none;stroke-opacity:1" cx="61.877586" cy="172.08105" r="0.60840362"/>
        <path style="fill:none;fill-rule:evenodd;stroke:#000000;stroke-width:0.238125px;stroke-linecap:butt;stroke-linejoin:miter;stroke-opacity:1" d="m 61.419867,170.84121 1.761509,0.73092"/>
        <path style="fill:none;stroke:#000000;stroke-width:0.1905;stroke-linecap:round;stroke-linejoin:round" d="m 63.063167,172.58934 a 1.1906249,1.7859375 20 0 1 -1.72966,1.27101 1.1906249,1.7859375 20 0 1 -0.50799,-2.08545 1.1906249,1.7859375 20 0 1 1.72965,-1.27102 1.1906249,1.7859375 20 0 1 0.508,2.08546 z"/>
      </g>
      <g transform="matrix(-0.96592583,-0.25881905,-0.25881905,0.96592583,180.42461,17.262383)">
        <path style="fill:#ffffff;stroke:#000000;stroke-width:0.1905;stroke-linecap:round;stroke-linejoin:round" d="m 63.063167,172.58934 a 1.1906249,1.7859375 20 0 1 -1.72966,1.27101 1.1906249,1.7859375 20 0 1 -0.50799,-2.08545 1.1906249,1.7859375 20 0 1 1.72965,-1.27102 1.1906249,1.7859375 20 0 1 0.508,2.08546 z"/>
        <path style="opacity:1;fill:#274675;fill-opacity:1;stroke:none;stroke-width:0.0206706;stroke-linecap:round;stroke-linejoin:round;stroke-dasharray:none;stroke-opacity:1" d="m 60.577226,172.61679 c 0.02113,0.3607 0.123147,0.73448 0.364622,1.01235 0.178716,0.20312 0.446971,0.33687 0.721267,0.31607 0.297118,-0.001 0.577804,-0.14089 0.80569,-0.32286 0.02613,-0.0343 -0.04903,-0.0421 -0.06571,-0.0608 -0.603241,-0.32001 -1.206586,-0.6403 -1.814989,-0.95027 l -0.0092,0.005 z"/>
        <path style="fill:none;fill-rule:evenodd;stroke:#000000;stroke-width:0.238125px;stroke-linecap:butt;stroke-linejoin:miter;stroke-opacity:1" d="m 60.658848,172.5462 1.86039,0.98027"/>
        <path style="opacity:1;fill:#274675;fill-opacity:1;stroke:none;stroke-width:0.0206706;stroke-linecap:round;stroke-linejoin:round;stroke-dasharray:none;stroke-opacity:1" d="m 62.21473,170.44645 c -0.274158,0.005 -0.536509,0.12461 -0.75056,0.2902 -0.03053,0.0373 0.05471,0.0402 0.07112,0.0574 0.563847,0.23543 1.125263,0.4775 1.695612,0.69686 0.02573,0.0186 0.05524,0.004 0.04059,-0.028 -0.07361,-0.36496 -0.261041,-0.73595 -0.600032,-0.91873 -0.138787,-0.077 -0.299736,-0.10148 -0.45673,-0.0977 z"/>
        <circle style="fill:#000000;fill-opacity:1;stroke:#000000;stroke-width:0.297656;stroke-linecap:round;stroke-linejoin:round;stroke-dasharray:none;stroke-opacity:1" cx="61.877586" cy="172.08105" r="0.60840362"/>
        <path style="fill:none;fill-rule:evenodd;stroke:#000000;stroke-width:0.238125px;stroke-linecap:butt;stroke-linejoin:miter;stroke-opacity:1" d="m 61.419867,170.84121 1.761509,0.73092"/>
        <path style="fill:none;stroke:#000000;stroke-width:0.1905;stroke-linecap:round;stroke-linejoin:round" d="m 63.063167,172.58934 a 1.1906249,1.7859375 20 0 1 -1.72966,1.27101 1.1906249,1.7859375 20 0 1 -0.50799,-2.08545 1.1906249,1.7859375 20 0 1 1.72965,-1.27102 1.1906249,1.7859375 20 0 1 0.508,2.08546 z"/>
      </g>
    </g></g></g></svg>