<svg xmlns="http://www.w3.org/2000/svg" xmlns:xlink="http://www.w3.org/1999/xlink" width="64" height="64" viewBox="0 0 64 64"><defs id="defs355716">
    <rect x="172" y="97" width="745" height="239" id="rect276290"/>
    <color-profile name="Agfa-:-Swop-Standard" xmlns:xlink="http://www.w3.org/1999/xlink" xlink:href="file:///C:/WINDOWS/system32/spool/drivers/color/RSWOP.icm" id="color-profile294613"/>
    <linearGradient xmlns:inkscape="http://www.inkscape.org/namespaces/inkscape" inkscape:collect="always" id="linearGradient140439">
      <stop style="stop-color:#a4a870;stop-opacity:1;" offset="0" id="stop140435"/>
      <stop style="stop-color:#a4a870;stop-opacity:0;" offset="1" id="stop140437"/>
    </linearGradient>
    <linearGradient xmlns:inkscape="http://www.inkscape.org/namespaces/inkscape" inkscape:collect="always" id="linearGradient140390">
      <stop style="stop-color:#359676;stop-opacity:1;" offset="0" id="stop140386"/>
      <stop style="stop-color:#4a6a5e;stop-opacity:0;" offset="1" id="stop140388"/>
    </linearGradient>
    <linearGradient xmlns:inkscape="http://www.inkscape.org/namespaces/inkscape" inkscape:collect="always" id="linearGradient139515">
      <stop style="stop-color:#dbd764;stop-opacity:1;" offset="0" id="stop139511"/>
      <stop style="stop-color:#dbd764;stop-opacity:0;" offset="0.56578946" id="stop139513"/>
    </linearGradient>
    <linearGradient xmlns:inkscape="http://www.inkscape.org/namespaces/inkscape" inkscape:collect="always" id="linearGradient139325">
      <stop style="stop-color:#161c16;stop-opacity:1;" offset="0" id="stop139321"/>
      <stop style="stop-color:#6e836c;stop-opacity:0;" offset="1" id="stop139323"/>
    </linearGradient>
    <linearGradient xmlns:inkscape="http://www.inkscape.org/namespaces/inkscape" inkscape:collect="always" id="linearGradient387614">
      <stop style="stop-color:#a4a870;stop-opacity:1;" offset="0" id="stop387610"/>
      <stop style="stop-color:#a4a870;stop-opacity:0;" offset="1" id="stop387612"/>
    </linearGradient>
    <linearGradient xmlns:inkscape="http://www.inkscape.org/namespaces/inkscape" inkscape:collect="always" id="linearGradient387421">
      <stop style="stop-color:#344533;stop-opacity:1;" offset="0" id="stop387417"/>
      <stop style="stop-color:#1d251d;stop-opacity:0;" offset="1" id="stop387419"/>
    </linearGradient>
    <linearGradient xmlns:inkscape="http://www.inkscape.org/namespaces/inkscape" inkscape:collect="always" xmlns:xlink="http://www.w3.org/1999/xlink" xlink:href="#linearGradient206680" id="linearGradient206682" x1="168.01042" y1="262.08701" x2="168.01042" y2="247.38542" gradientUnits="userSpaceOnUse"/>
    <linearGradient xmlns:inkscape="http://www.inkscape.org/namespaces/inkscape" inkscape:collect="always" id="linearGradient206680">
      <stop style="stop-color:#dbd764;stop-opacity:0;" offset="0.38377193" id="stop206678"/>
      <stop style="stop-color:#dbd764;stop-opacity:1;" offset="1" id="stop206676"/>
    </linearGradient>
    <linearGradient xmlns:inkscape="http://www.inkscape.org/namespaces/inkscape" inkscape:collect="always" xmlns:xlink="http://www.w3.org/1999/xlink" xlink:href="#linearGradient216292" id="linearGradient216294" x1="168.01042" y1="236.00833" x2="168.01042" y2="248.97292" gradientUnits="userSpaceOnUse" gradientTransform="translate(8.4073796,-0.78650088)"/>
    <linearGradient xmlns:inkscape="http://www.inkscape.org/namespaces/inkscape" inkscape:collect="always" id="linearGradient216292">
      <stop style="stop-color:#359676;stop-opacity:1;" offset="0" id="stop216288"/>
      <stop style="stop-color:#4a6a5f;stop-opacity:0;" offset="1" id="stop216290"/>
    </linearGradient>
    <linearGradient xmlns:inkscape="http://www.inkscape.org/namespaces/inkscape" inkscape:collect="always" xmlns:xlink="http://www.w3.org/1999/xlink" xlink:href="#linearGradient387421" id="linearGradient387423" x1="31.75" y1="155.31041" x2="31.921236" y2="171.18663" gradientUnits="userSpaceOnUse"/>
    <linearGradient xmlns:inkscape="http://www.inkscape.org/namespaces/inkscape" inkscape:collect="always" xmlns:xlink="http://www.w3.org/1999/xlink" xlink:href="#linearGradient387614" id="linearGradient387616" x1="45.011326" y1="158.73975" x2="51.59375" y2="162.71875" gradientUnits="userSpaceOnUse" gradientTransform="translate(2.9601329,-0.98671096)"/>
    <linearGradient xmlns:inkscape="http://www.inkscape.org/namespaces/inkscape" inkscape:collect="always" xmlns:xlink="http://www.w3.org/1999/xlink" xlink:href="#linearGradient387614" id="linearGradient387620" gradientUnits="userSpaceOnUse" x1="45.011326" y1="158.73975" x2="51.593746" y2="162.71875" gradientTransform="matrix(-1,0,0,1,108.79346,-0.98671096)"/>
    <linearGradient xmlns:inkscape="http://www.inkscape.org/namespaces/inkscape" inkscape:collect="always" xmlns:xlink="http://www.w3.org/1999/xlink" xlink:href="#linearGradient139325" id="linearGradient139327" x1="70" y1="21" x2="70" y2="37" gradientUnits="userSpaceOnUse"/>
    <linearGradient xmlns:inkscape="http://www.inkscape.org/namespaces/inkscape" inkscape:collect="always" xmlns:xlink="http://www.w3.org/1999/xlink" xlink:href="#linearGradient139515" id="linearGradient139517" x1="70.426315" y1="1.5429174" x2="70.46106" y2="18.249472" gradientUnits="userSpaceOnUse"/>
    <linearGradient xmlns:inkscape="http://www.inkscape.org/namespaces/inkscape" inkscape:collect="always" xmlns:xlink="http://www.w3.org/1999/xlink" xlink:href="#linearGradient140390" id="linearGradient140392" x1="90.084175" y1="1.3586814" x2="90" y2="16" gradientUnits="userSpaceOnUse"/>
    <linearGradient xmlns:inkscape="http://www.inkscape.org/namespaces/inkscape" inkscape:collect="always" xmlns:xlink="http://www.w3.org/1999/xlink" xlink:href="#linearGradient140439" id="linearGradient140441" x1="90.01368" y1="24.010059" x2="94.88681" y2="28.136377" gradientUnits="userSpaceOnUse"/>
    <linearGradient xmlns:inkscape="http://www.inkscape.org/namespaces/inkscape" inkscape:collect="always" xmlns:xlink="http://www.w3.org/1999/xlink" xlink:href="#linearGradient140439" id="linearGradient140449" gradientUnits="userSpaceOnUse" x1="90.01368" y1="24.010059" x2="94.88681" y2="28.136377" gradientTransform="matrix(-1,0,0,1,190,0)"/>
    <radialGradient xmlns:inkscape="http://www.inkscape.org/namespaces/inkscape" inkscape:collect="always" xmlns:xlink="http://www.w3.org/1999/xlink" xlink:href="#linearGradient177339" id="radialGradient177341-3-0" cx="44.135807" cy="121.46028" fx="44.135807" fy="121.46028" r="1.1079427" gradientTransform="matrix(1.5015971,0,0,0.99367432,-157.6034,-4.3351259)" gradientUnits="userSpaceOnUse"/>
    <linearGradient xmlns:inkscape="http://www.inkscape.org/namespaces/inkscape" inkscape:collect="always" id="linearGradient177339">
      <stop style="stop-color:#b98d3e;stop-opacity:1;" offset="0" id="stop177335"/>
      <stop style="stop-color:#c9c943;stop-opacity:0;" offset="1" id="stop177337"/>
    </linearGradient>
    <radialGradient xmlns:inkscape="http://www.inkscape.org/namespaces/inkscape" inkscape:collect="always" xmlns:xlink="http://www.w3.org/1999/xlink" xlink:href="#linearGradient177339" id="radialGradient177345-7-9" gradientUnits="userSpaceOnUse" gradientTransform="matrix(1.5015971,0,0,0.99367432,-195.50719,-68.761115)" cx="44.135807" cy="121.46028" fx="44.135807" fy="121.46028" r="1.1079427"/>
    <rect x="172" y="97" width="745" height="239" id="rect276290-2"/>
    <rect x="172" y="97" width="745" height="239" id="rect276290-2-5"/>
    <rect x="172" y="97" width="745" height="239" id="rect276290-2-5-7"/>
  </defs><g transform="translate(-301.6117800441168 -122.69895158511832) scale(2.183835285982992)"><g><g transform="translate(70.821115,-73.210201)">
      <path style="fill:#666666;fill-opacity:1;fill-rule:evenodd;stroke:#000000;stroke-width:0.264583px;stroke-linecap:butt;stroke-linejoin:miter;stroke-opacity:1" d="m 78.713541,139.63387 c -0.148799,-0.80072 -0.338406,-1.60634 -0.262385,-2.42658 -0.0071,-0.87679 -0.01013,-1.75498 0.03092,-2.62889 0.03374,-0.64376 -0.131559,-1.38789 0.292255,-1.93702 0.315021,-0.38232 0.861601,-0.45803 1.296878,-0.24724 0.576672,0.14221 0.779243,0.77519 0.763495,1.30637 -0.01465,1.3061 0.0058,2.61232 -0.009,3.91842 -0.150141,0.56206 -0.239372,1.1773 -0.122646,1.74755 0.03579,0.0757 0.07864,0.15075 0.09408,0.23429"/>
      <path style="fill:#666666;fill-opacity:1;fill-rule:evenodd;stroke:#000000;stroke-width:0.264583px;stroke-linecap:butt;stroke-linejoin:miter;stroke-opacity:1" d="m 82.649218,139.237 c 0.119248,-1.2457 0.04793,-2.49696 0.06659,-3.74585 0.0099,-0.55107 -0.02109,-1.10517 0.0097,-1.65426 0.09961,-0.53354 0.383732,-1.16082 0.976517,-1.27181 0.492615,-0.10425 0.925063,0.28224 1.181107,0.66196 0.303872,0.50345 0.145374,1.11361 0.180057,1.66938 -0.01,0.88543 0.02886,1.7731 -0.03553,2.65518 0.01973,0.617 -0.05036,1.24322 0.113276,1.84675 -0.0025,0.24632 0.205337,0.48119 0.121062,0.73153"/>
      <path style="fill:#666666;fill-opacity:1;fill-rule:evenodd;stroke:#000000;stroke-width:0.264583px;stroke-linecap:butt;stroke-linejoin:miter;stroke-opacity:1" d="m 80.334114,139.36929 c 0.009,-1.34168 -0.018,-2.68747 0.01346,-4.02657 0.105303,-0.413 0.244837,-0.82018 0.505382,-1.15964 0.225709,-0.37843 0.548796,-0.70515 0.624683,-1.16056 0.115742,-0.56721 0.182976,-1.24828 0.678066,-1.62461 0.355546,-0.35012 0.899083,-0.10999 1.140251,0.24773 0.315484,0.35837 0.612886,0.80345 0.545191,1.3015 0.03624,0.41127 -0.07795,0.80103 -0.155444,1.20096 -0.100259,0.53617 -0.32458,1.03604 -0.504499,1.54636 -0.06676,0.66063 -0.441415,1.25447 -0.463916,1.92639 -0.122179,0.44909 -0.205437,0.90507 -0.167251,1.37212 0,0.0813 0,0.16253 0,0.24379"/>
      <path style="fill:#666666;fill-opacity:1;fill-rule:evenodd;stroke:#000000;stroke-width:0.264583px;stroke-linecap:butt;stroke-linejoin:miter;stroke-opacity:1" d="m 88.479872,140.75835 c 0.207751,0.30498 0.513414,-0.21508 0.793051,-0.19942 0.330428,-0.15283 0.668193,-0.28644 1.000631,-0.43079 0.229748,-0.18189 0.528081,0.004 0.754787,-0.18071 0.315909,-0.0912 0.631152,-0.20222 0.955625,-0.27723 0.275497,-0.094 0.69207,-0.15669 0.711858,0.24986 0.155979,0.354 0.227636,0.74838 0.180127,1.13112 -0.07843,0.2741 -0.394218,0.34233 -0.603747,0.48885 -0.133829,0.0738 -0.404034,0.18142 -0.139168,0.0248 -0.36865,0.17489 -0.733008,0.36478 -1.046208,0.62871 -0.249439,0.0867 -0.462421,0.24642 -0.673036,0.40333 -0.213685,0.16633 -0.301198,0.44146 -0.485254,0.63708 -0.04203,0.0566 -0.08407,0.11318 -0.125756,0.17002"/>
      <path style="fill:#666666;fill-opacity:1;fill-rule:evenodd;stroke:#000000;stroke-width:0.264583px;stroke-linecap:butt;stroke-linejoin:miter;stroke-opacity:1" d="m 87.156955,140.75835 c -0.0441,-0.23151 -0.116615,-0.45938 -0.132291,-0.69453 -0.0068,-0.10141 0.04197,-0.19893 0.06615,-0.29766 0.151371,-0.61809 0.324975,-1.23087 0.463021,-1.85208 0.07082,-0.3187 0.132094,-0.63945 0.198438,-0.95911 0.05492,-0.26463 0.118396,-0.5276 0.165364,-0.79375 0.01926,-0.10911 0.01408,-0.22158 0.03307,-0.33073 0.05902,-0.33935 0.100243,-0.35597 0.132292,-0.62839 0.03918,-0.33305 0.03307,-0.65753 0.03307,-0.99219 0,-0.13124 0.03399,-0.30923 -0.03307,-0.42994 -0.05904,-0.10628 -0.212225,-0.24687 -0.330729,-0.29766 -0.04087,-0.0175 -0.268227,-0.0603 -0.297656,-0.0661 -0.05512,-0.011 -0.109586,-0.0261 -0.165365,-0.0331 -0.111273,-0.0139 -0.44963,-0.0152 -0.56224,0.0331 -0.187126,0.0802 -0.455078,0.23661 -0.595312,0.39688 -0.04649,0.0531 -0.08539,0.11261 -0.132292,0.16536 -0.04143,0.0466 -0.094,0.0831 -0.132291,0.1323 -0.02582,0.0332 -0.230614,0.39521 -0.231511,0.39687 -0.03506,0.0651 -0.07175,0.12977 -0.09922,0.19844 -0.01688,0.0422 -0.02204,0.0882 -0.03307,0.13229 -0.03307,0.0992 -0.06038,0.20055 -0.09922,0.29766 -0.02747,0.0687 -0.07435,0.12879 -0.09922,0.19843 -0.03057,0.0856 -0.04272,0.17675 -0.06615,0.26459 -0.02069,0.0776 -0.0481,0.1533 -0.06615,0.23151 -0.04273,0.18515 -0.03133,0.2657 -0.06615,0.46302 -0.05337,0.3024 -0.07056,0.27418 -0.132291,0.56224 -0.02785,0.12996 -0.05788,0.38032 -0.06615,0.49609 -0.0039,0.055 0.0055,0.11052 0,0.16537 -0.0056,0.0559 -0.02687,0.10949 -0.03307,0.16536 -0.01551,0.13948 0,0.2892 0,0.42995 0,0.27561 0,0.55122 0,0.82682 0,0.0331 0.01045,0.0678 0,0.0992 -0.0049,0.0148 -0.02611,0.0191 -0.03307,0.0331 -0.0049,0.01 0.0035,0.0226 0,0.0331 -0.0078,0.0234 -0.02527,0.0428 -0.03307,0.0661 -0.0035,0.0104 0.01103,0.0331 0,0.0331 -0.01103,0 0,-0.022 0,-0.0331 -0.09922,0.0882 -0.198437,0.17639 -0.297656,0.26458"/>
      <path style="fill:#666666;fill-opacity:1;fill-rule:evenodd;stroke:#000000;stroke-width:0.264583px;stroke-linecap:butt;stroke-linejoin:miter;stroke-opacity:1" d="m 85.040289,141.45288 c 0.444614,-0.64328 0.797005,-1.34598 1.218279,-2.00553 0.427093,-0.79136 1.016413,-1.46993 1.600818,-2.14612 0.320493,-0.52903 0.825027,-0.89305 1.335801,-1.22268 0.301585,-0.28758 0.724777,-0.56764 1.100757,-0.81414 0.453941,-0.2224 1.280054,-1.05538 1.564702,-0.26124 0.219967,0.47775 0.137298,1.04781 -0.113155,1.4844 -0.188494,0.83989 -0.768927,1.50094 -1.153906,2.25259 -0.331345,0.44292 -0.696298,0.86662 -1.045066,1.29515 -0.375948,0.68961 -0.826968,1.33288 -1.263495,1.98337 -0.168633,0.26807 -0.287365,0.5826 -0.499693,0.82325"/>
      <path style="fill:#666666;fill-opacity:1;fill-rule:evenodd;stroke:#000000;stroke-width:0.264583px;stroke-linecap:butt;stroke-linejoin:miter;stroke-opacity:1" d="m 75.406249,140.75835 c -0.207751,0.30498 -0.513414,-0.21508 -0.793051,-0.19942 -0.330428,-0.15283 -0.668193,-0.28644 -1.000631,-0.43079 -0.229748,-0.18189 -0.528081,0.004 -0.754787,-0.18071 -0.315909,-0.0912 -0.631152,-0.20222 -0.955625,-0.27723 -0.275497,-0.094 -0.69207,-0.15669 -0.711858,0.24986 -0.155979,0.354 -0.227636,0.74838 -0.180127,1.13112 0.07843,0.2741 0.394218,0.34233 0.603747,0.48885 0.133829,0.0738 0.404034,0.18142 0.139168,0.0248 0.36865,0.17489 0.733008,0.36478 1.046208,0.62871 0.249439,0.0867 0.462421,0.24642 0.673036,0.40333 0.213685,0.16633 0.301198,0.44146 0.485254,0.63708 0.04203,0.0566 0.08407,0.11318 0.125756,0.17002"/>
      <path style="fill:#666666;fill-opacity:1;fill-rule:evenodd;stroke:#000000;stroke-width:0.264583px;stroke-linecap:butt;stroke-linejoin:miter;stroke-opacity:1" d="m 76.729166,140.75835 c 0.0441,-0.23151 0.116615,-0.45938 0.132291,-0.69453 0.0068,-0.10141 -0.04197,-0.19893 -0.06615,-0.29766 -0.151371,-0.61809 -0.324975,-1.23087 -0.463021,-1.85208 -0.07082,-0.3187 -0.132094,-0.63945 -0.198438,-0.95911 -0.05492,-0.26463 -0.118396,-0.5276 -0.165364,-0.79375 -0.01926,-0.10911 -0.01408,-0.22158 -0.03307,-0.33073 -0.05902,-0.33935 -0.100243,-0.35597 -0.132292,-0.62839 -0.03918,-0.33305 -0.03307,-0.65753 -0.03307,-0.99219 0,-0.13124 -0.03399,-0.30923 0.03307,-0.42994 0.05904,-0.10628 0.212225,-0.24687 0.330729,-0.29766 0.04087,-0.0175 0.268227,-0.0603 0.297656,-0.0661 0.05512,-0.011 0.109586,-0.0261 0.165365,-0.0331 0.111273,-0.0139 0.44963,-0.0152 0.56224,0.0331 0.187126,0.0802 0.455078,0.23661 0.595312,0.39688 0.04649,0.0531 0.08539,0.11261 0.132292,0.16536 0.04143,0.0466 0.094,0.0831 0.132291,0.1323 0.02582,0.0332 0.230614,0.39521 0.231511,0.39687 0.03506,0.0651 0.07175,0.12977 0.09922,0.19844 0.01688,0.0422 0.02204,0.0882 0.03307,0.13229 0.03307,0.0992 0.06038,0.20055 0.09922,0.29766 0.02747,0.0687 0.07435,0.12879 0.09922,0.19843 0.03057,0.0856 0.04272,0.17675 0.06615,0.26459 0.02069,0.0776 0.0481,0.1533 0.06615,0.23151 0.04273,0.18515 0.03133,0.2657 0.06615,0.46302 0.05337,0.3024 0.07056,0.27418 0.132291,0.56224 0.02785,0.12996 0.05788,0.38032 0.06615,0.49609 0.0039,0.055 -0.0055,0.11052 0,0.16537 0.0056,0.0559 0.02687,0.10949 0.03307,0.16536 0.01551,0.13948 0,0.2892 0,0.42995 0,0.27561 0,0.55122 0,0.82682 0,0.0331 -0.01045,0.0678 0,0.0992 0.0049,0.0148 0.02611,0.0191 0.03307,0.0331 0.0049,0.01 -0.0035,0.0226 0,0.0331 0.0078,0.0234 0.02527,0.0428 0.03307,0.0661 0.0035,0.0104 -0.01103,0.0331 0,0.0331 0.01103,0 0,-0.022 0,-0.0331 0.09922,0.0882 0.198437,0.17639 0.297656,0.26458"/>
      <path style="fill:#666666;fill-opacity:1;fill-rule:evenodd;stroke:#000000;stroke-width:0.264583px;stroke-linecap:butt;stroke-linejoin:miter;stroke-opacity:1" d="m 78.845832,141.45288 c -0.444614,-0.64328 -0.797005,-1.34598 -1.218279,-2.00553 -0.427093,-0.79136 -1.016413,-1.46993 -1.600818,-2.14612 -0.320493,-0.52903 -0.825027,-0.89305 -1.335801,-1.22268 -0.301585,-0.28758 -0.724777,-0.56764 -1.100757,-0.81414 -0.453941,-0.2224 -1.280054,-1.05538 -1.564702,-0.26124 -0.219967,0.47775 -0.137298,1.04781 0.113155,1.4844 0.188494,0.83989 0.768927,1.50094 1.153906,2.25259 0.331345,0.44292 0.696298,0.86662 1.045066,1.29515 0.375948,0.68961 0.826968,1.33288 1.263495,1.98337 0.168633,0.26807 0.287365,0.5826 0.499693,0.82325"/>
      <g transform="matrix(1.25,0,0,1.25,-20.505208,-36.527803)">
        <path style="fill:#4d4d4d;stroke:#000000;stroke-width:0.423333;stroke-linecap:round;stroke-linejoin:round;stroke-dasharray:none" d="m 89.958333,146.84374 c 0,2.13425 -2.674529,2.91505 -5.25549,3.75189 -0.444912,0.14426 -1.312214,1.39813 -1.312214,1.39813 0,0 -0.949433,-0.91669 -1.36979,-0.91669 -0.410594,0 -1.33598,0.92307 -1.33598,0.92307 0,0 -0.849736,-1.24631 -1.28625,-1.3853 -2.599275,-0.82765 -5.315276,-1.62036 -5.315276,-3.7711 0,-5.29166 2.645834,-9.26041 7.9375,-9.26041 5.303762,0 7.9375,3.96875 7.9375,9.26041 z"/>
        <g transform="rotate(10,-201.67905,282.52862)">
          <path style="fill:none;stroke:#000000;stroke-width:0.502327px;stroke-linecap:butt;stroke-linejoin:miter;stroke-opacity:1" d="M 51.578592,97.700591 51.078833,97.198264 H 49.588276 49.066983"/>
          <path style="fill:#ffffff;stroke:#000000;stroke-width:0.251163;stroke-miterlimit:4;stroke-dashoffset:0;stroke-opacity:1" d="m 50.99648,97.21846 c 0.07073,0.11478 0.111506,0.249956 0.111506,0.394676 0,0.416128 -0.33734,0.753491 -0.753477,0.753491 -0.416164,0 -0.753505,-0.337363 -0.753505,-0.753491 0,-0.148638 0.04307,-0.287279 0.117377,-0.404021 z"/>
          <circle style="fill:#000000;fill-opacity:1;fill-rule:nonzero;stroke:#000000;stroke-width:0.251163;stroke-miterlimit:4;stroke-dasharray:none;stroke-dashoffset:0;stroke-opacity:1" cx="50.322617" cy="97.703163" r="0.2511633"/>
        </g>
        <g transform="rotate(-10,336.50761,-50.712324)">
          <path style="fill:none;stroke:#000000;stroke-width:0.502327px;stroke-linecap:butt;stroke-linejoin:miter;stroke-opacity:1" d="m 54.090229,97.700591 0.556457,-0.502327 h 1.955179"/>
          <path style="fill:#ffffff;stroke:#000000;stroke-width:0.251163;stroke-miterlimit:4;stroke-dashoffset:0;stroke-opacity:1" d="m 56.019754,97.218409 c 0.0707,0.11478 0.111506,0.249956 0.111506,0.394676 0,0.416129 -0.33734,0.753491 -0.753505,0.753491 -0.416137,0 -0.753477,-0.337362 -0.753477,-0.753491 0,-0.148638 0.04304,-0.287279 0.117376,-0.40402 z"/>
          <circle style="fill:#000000;fill-opacity:1;fill-rule:nonzero;stroke:#000000;stroke-width:0.251163;stroke-miterlimit:4;stroke-dasharray:none;stroke-dashoffset:0;stroke-opacity:1" cx="55.361824" cy="97.703163" r="0.2511633"/>
        </g>
        <path style="fill:#800000;fill-rule:evenodd;stroke:#000000;stroke-width:0.264583px;stroke-linecap:butt;stroke-linejoin:miter;stroke-opacity:1" d="m 87.3125,146.84375 c -2.607863,-1.71884 -7.897549,-1.80847 -10.583333,0 3.96875,3.96875 6.686391,3.81798 10.583333,0 z"/>
        <g style="fill:#ffffd9;fill-opacity:1">
          <path style="fill:#ffffd9;fill-opacity:1;fill-rule:evenodd;stroke:#000000;stroke-width:0.264583px;stroke-linecap:butt;stroke-linejoin:miter;stroke-opacity:1" d="m 80.433333,149.58858 0.529166,-1.32292 0.264583,1.32292"/>
          <path style="fill:#ffffd9;fill-opacity:1;fill-rule:evenodd;stroke:#000000;stroke-width:0.264583px;stroke-linecap:butt;stroke-linejoin:miter;stroke-opacity:1" d="m 83.608332,149.58858 -0.529166,-1.32292 -0.264583,1.32292"/>
          <path style="fill:#ffffd9;fill-opacity:1;fill-rule:evenodd;stroke:#000000;stroke-width:0.264583px;stroke-linecap:butt;stroke-linejoin:miter;stroke-opacity:1" d="m 81.491666,149.78702 0.264583,-1.32292 0.264583,1.32292 0.264585,-1.32292 0.264583,1.32292"/>
          <path style="fill:#ffffd9;fill-opacity:1;fill-rule:evenodd;stroke:#000000;stroke-width:0.264583px;stroke-linecap:butt;stroke-linejoin:miter;stroke-opacity:1" d="m 80.16875,149.45629 -0.264584,-1.32292 -0.264584,1.05834"/>
          <path style="fill:#ffffd9;fill-opacity:1;fill-rule:evenodd;stroke:#000000;stroke-width:0.264583px;stroke-linecap:butt;stroke-linejoin:miter;stroke-opacity:1" d="m 79.440456,149.0131 -0.264584,-1.32292 -0.264584,1.05834"/>
          <path style="fill:#ffffd9;fill-opacity:1;fill-rule:evenodd;stroke:#000000;stroke-width:0.264583px;stroke-linecap:butt;stroke-linejoin:miter;stroke-opacity:1" d="m 78.712853,148.53354 -0.264584,-1.32292 -0.264584,1.05834"/>
          <path style="fill:#ffffd9;fill-opacity:1;fill-rule:evenodd;stroke:#000000;stroke-width:0.264583px;stroke-linecap:butt;stroke-linejoin:miter;stroke-opacity:1" d="m 83.774389,149.45629 0.264584,-1.32292 0.264584,1.05834"/>
          <path style="fill:#ffffd9;fill-opacity:1;fill-rule:evenodd;stroke:#000000;stroke-width:0.264583px;stroke-linecap:butt;stroke-linejoin:miter;stroke-opacity:1" d="m 84.502683,149.0131 0.264584,-1.32292 0.264584,1.05834"/>
          <path style="fill:#ffffd9;fill-opacity:1;fill-rule:evenodd;stroke:#000000;stroke-width:0.264583px;stroke-linecap:butt;stroke-linejoin:miter;stroke-opacity:1" d="m 85.230286,148.53354 0.264584,-1.32292 0.264584,1.05834"/>
        </g>
        <g style="fill:#ffffd9;fill-opacity:1">
          <path style="fill:#ffffd9;fill-opacity:1;fill-rule:evenodd;stroke:#000000;stroke-width:0.264583px;stroke-linecap:butt;stroke-linejoin:miter;stroke-opacity:1" d="m 80.433333,145.52083 0.529166,1.32292 0.264583,-1.32292"/>
          <path style="fill:#ffffd9;fill-opacity:1;fill-rule:evenodd;stroke:#000000;stroke-width:0.264583px;stroke-linecap:butt;stroke-linejoin:miter;stroke-opacity:1" d="m 83.608332,145.52083 -0.529166,1.32292 -0.264583,-1.32292"/>
          <path style="fill:#ffffd9;fill-opacity:1;fill-rule:evenodd;stroke:#000000;stroke-width:0.264583px;stroke-linecap:butt;stroke-linejoin:miter;stroke-opacity:1" d="m 81.491666,145.52083 0.264583,1.32292 0.264583,-1.32292 0.264585,1.32292 0.264583,-1.32292"/>
          <path style="fill:#ffffd9;fill-opacity:1;fill-rule:evenodd;stroke:#000000;stroke-width:0.264583px;stroke-linecap:butt;stroke-linejoin:miter;stroke-opacity:1" d="m 80.16875,145.52083 -0.264584,1.32292 -0.264584,-1.05834"/>
          <path style="fill:#ffffd9;fill-opacity:1;fill-rule:evenodd;stroke:#000000;stroke-width:0.264583px;stroke-linecap:butt;stroke-linejoin:miter;stroke-opacity:1" d="m 79.232142,145.71613 -0.148279,1.34093 -0.355818,-1.03125"/>
          <path style="fill:#ffffd9;fill-opacity:1;fill-rule:evenodd;stroke:#000000;stroke-width:0.238125px;stroke-linecap:butt;stroke-linejoin:miter;stroke-opacity:1" d="m 78.430045,145.94997 -0.133451,1.20683 -0.320236,-0.92812"/>
          <path style="fill:#ffffd9;fill-opacity:1;fill-rule:evenodd;stroke:#000000;stroke-width:0.264583px;stroke-linecap:butt;stroke-linejoin:miter;stroke-opacity:1" d="m 83.816664,145.52083 0.264584,1.32292 0.264584,-1.05834"/>
          <path style="fill:#ffffd9;fill-opacity:1;fill-rule:evenodd;stroke:#000000;stroke-width:0.264583px;stroke-linecap:butt;stroke-linejoin:miter;stroke-opacity:1" d="m 84.753272,145.71613 0.148279,1.34093 0.355818,-1.03125"/>
          <path style="fill:#ffffd9;fill-opacity:1;fill-rule:evenodd;stroke:#000000;stroke-width:0.238125px;stroke-linecap:butt;stroke-linejoin:miter;stroke-opacity:1" d="m 85.555369,145.94997 0.133451,1.20683 0.320236,-0.92812"/>
        </g>
        <path style="fill:none;fill-rule:evenodd;stroke:#000000;stroke-width:0.264583px;stroke-linecap:butt;stroke-linejoin:miter;stroke-opacity:1" d="m 87.3125,146.84375 c -2.607863,-1.71884 -7.897549,-1.80847 -10.583333,0 3.96875,3.96875 6.686391,3.81798 10.583333,0 z"/>
        <path style="fill:#de8787;fill-rule:evenodd;stroke:#000000;stroke-width:0.264583px;stroke-linecap:butt;stroke-linejoin:miter;stroke-opacity:1" d="m 80.433332,147.37291 c 0.299306,0.55243 0.307817,1.18574 0.351526,1.79376 0.188267,0.93002 0.41975,1.85109 0.600105,2.78268 0.181881,0.80527 -0.203539,1.65854 0.143884,2.43555 0.219071,0.46924 0.727102,0.45547 0.604035,-0.12129 0.168673,-1.19847 1.101058,-2.14383 1.18381,-3.3663 0.121316,-0.80859 -0.232188,-1.55914 -0.533163,-2.28436 -0.09775,-0.40426 -0.112349,-0.91599 -0.008,-1.28605 l 0.02855,0.016 0.01065,0.03"/>
        <path style="fill:none;fill-rule:evenodd;stroke:#000000;stroke-width:0.264583px;stroke-linecap:butt;stroke-linejoin:miter;stroke-opacity:1" d="m 76.199999,140.22916 c 1.769632,1.09676 3.175001,1.32292 4.497917,3.96875 h 2.645833 c 1.322918,-2.64583 2.645834,-2.91041 4.497917,-3.96875"/>
        <path style="fill:#333333;fill-opacity:1;stroke:#000000;stroke-width:0.141421;stroke-linecap:round;stroke-linejoin:round;stroke-dasharray:none;stroke-opacity:1" d="m 309.70017,520.87823 c -2.34363,-0.028 -4.69128,0.15625 -6.9749,0.7027 -3.18004,0.65109 -6.21006,1.93883 -8.91283,3.73297 -1.90431,1.20652 -3.55018,2.78001 -5.06342,4.43683 0.10968,0.30115 0.58628,0.38798 0.82737,0.59176 3.71397,2.14492 7.79087,3.89372 10.77688,7.07368 2.09168,2.01924 3.59597,4.55566 4.98428,7.07867 3.10693,-0.008 6.22357,0.0205 9.32445,-0.01 1.55941,-2.93548 3.37736,-5.78768 5.85797,-8.03591 3.07324,-2.89753 7.05709,-4.49762 10.65529,-6.60548 0.13913,-0.23265 -0.29696,-0.41196 -0.38054,-0.59723 -1.9117,-2.05665 -4.10378,-3.86913 -6.60587,-5.1631 -3.42236,-1.79786 -7.23623,-2.83881 -11.08528,-3.1345 -1.13333,-0.0595 -2.26867,-0.0739 -3.4034,-0.0707 z" transform="scale(0.26458333)"/>
        <ellipse style="fill:#800000;fill-opacity:1;stroke:#000000;stroke-width:0.211667;stroke-linecap:round;stroke-linejoin:round;stroke-dasharray:none;stroke-opacity:1" cx="76.067711" cy="142.875" rx="0.39687499" ry="0.52916664"/>
        <circle style="fill:#800000;fill-opacity:1;stroke:#000000;stroke-width:0.211667;stroke-linecap:round;stroke-linejoin:round;stroke-dasharray:none;stroke-opacity:1" cx="75.935417" cy="144.99167" r="0.52916664"/>
        <ellipse style="fill:#800000;fill-opacity:1;stroke:#000000;stroke-width:0.211667;stroke-linecap:round;stroke-linejoin:round;stroke-dasharray:none;stroke-opacity:1" cx="75.40625" cy="146.71146" rx="0.52916664" ry="0.39687499"/>
        <circle style="fill:#800000;fill-opacity:1;stroke:#000000;stroke-width:0.211667;stroke-linecap:round;stroke-linejoin:round;stroke-dasharray:none;stroke-opacity:1" cx="78.581245" cy="139.43541" r="0.26458332"/>
        <circle style="fill:#800000;fill-opacity:1;stroke:#000000;stroke-width:0.211667;stroke-linecap:round;stroke-linejoin:round;stroke-dasharray:none;stroke-opacity:1" cx="81.756248" cy="138.90625" r="0.26458332"/>
        <circle style="fill:#800000;fill-opacity:1;stroke:#000000;stroke-width:0.211667;stroke-linecap:round;stroke-linejoin:round;stroke-dasharray:none;stroke-opacity:1" cx="85.724998" cy="139.43541" r="0.26458332"/>
        <ellipse style="fill:#800000;fill-opacity:1;stroke:#000000;stroke-width:0.211667;stroke-linecap:round;stroke-linejoin:round;stroke-dasharray:none;stroke-opacity:1" cx="-87.973953" cy="142.875" rx="0.39687499" ry="0.52916664" transform="scale(-1,1)"/>
        <circle style="fill:#800000;fill-opacity:1;stroke:#000000;stroke-width:0.211667;stroke-linecap:round;stroke-linejoin:round;stroke-dasharray:none;stroke-opacity:1" cx="-88.106247" cy="144.99167" r="0.52916664" transform="scale(-1,1)"/>
        <ellipse style="fill:#800000;fill-opacity:1;stroke:#000000;stroke-width:0.211667;stroke-linecap:round;stroke-linejoin:round;stroke-dasharray:none;stroke-opacity:1" cx="-88.635414" cy="146.71146" rx="0.52916664" ry="0.39687499" transform="scale(-1,1)"/>
      </g>
      <path style="fill:none;fill-rule:evenodd;stroke:#000000;stroke-width:0.264583px;stroke-linecap:butt;stroke-linejoin:miter;stroke-opacity:1" d="m 71.867447,141.61823 c -0.0014,-0.30981 0.0038,-0.61969 -0.0047,-0.92943 0.09605,-0.13197 0.02154,-0.31449 0.172998,-0.40781 0.04503,-0.14734 0.139974,-0.28239 0.26138,-0.38029 0.02379,-0.10831 0.09204,-0.096 0.132566,-0.1676"/>
      <path style="fill:none;fill-rule:evenodd;stroke:#000000;stroke-width:0.264583px;stroke-linecap:butt;stroke-linejoin:miter;stroke-opacity:1" d="m 72.595051,137.64948 c 0.04497,-0.22866 0.07501,-0.46019 0.07014,-0.69306 0.06529,-0.16979 0.02977,-0.3589 0.114903,-0.51626 0.06406,-0.18435 0.144782,-0.36159 0.304116,-0.48753 0.09508,-0.17284 0.303988,-0.17676 0.47001,-0.23062 0.19658,0.047 0.374261,-0.0885 0.556487,-0.12993 l 0.03879,0.007"/>
      <path style="fill:none;fill-rule:evenodd;stroke:#000000;stroke-width:0.264583px;stroke-linecap:butt;stroke-linejoin:miter;stroke-opacity:1" d="m 75.86927,135.20208 c 0.0881,-0.19878 0.228617,-0.43475 0.480638,-0.40313 0.159306,-0.08 0.322631,-0.15985 0.508417,-0.1301 0.217018,8.7e-4 0.435833,0.0157 0.651689,-0.004 0.15592,-0.0744 0.331688,-0.0708 0.495476,-0.0242 0.145723,0.0989 0.293705,0.20603 0.410431,0.33025"/>
      <path style="fill:none;fill-rule:evenodd;stroke:#000000;stroke-width:0.264583px;stroke-linecap:butt;stroke-linejoin:miter;stroke-opacity:1" d="m 91.611978,139.89844 c 0.05046,0.22258 0.178281,0.41404 0.281099,0.61176 0.11413,0.2479 0.262868,0.47673 0.419918,0.69918 0.05031,0.0652 0.02896,0.22445 0.02664,0.24347"/>
      <path style="fill:none;fill-rule:evenodd;stroke:#000000;stroke-width:0.264583px;stroke-linecap:butt;stroke-linejoin:miter;stroke-opacity:1" d="m 89.892186,135.6651 c 0.200539,0.12539 0.430174,0.18618 0.651311,0.26159 0.172359,0.0922 0.337413,0.19874 0.507866,0.2931 0.08255,0.12897 0.120548,0.25946 0.140115,0.41558 -0.01544,0.31518 -0.0078,0.63205 -0.0095,0.94799"/>
      <path style="fill:none;fill-rule:evenodd;stroke:#000000;stroke-width:0.264583px;stroke-linecap:butt;stroke-linejoin:miter;stroke-opacity:1" d="m 78.647395,134.01146 c 0.108313,-0.14028 0.318202,-0.12166 0.445167,-0.24096 0.150056,-0.0198 0.273946,-0.11433 0.419079,-0.12111 0.167492,-0.009 0.316801,-0.13477 0.491197,-0.10381 0.186707,0.0183 0.353093,-0.10011 0.504386,-0.16808 0.07527,-0.003 0.196906,-0.0231 0.223791,0.0715"/>
      <path style="fill:none;fill-rule:evenodd;stroke:#000000;stroke-width:0.264583px;stroke-linecap:butt;stroke-linejoin:miter;stroke-opacity:1" d="m 81.557811,132.92005 c 0.277041,0.0449 0.545983,0.1511 0.830751,0.12706 0.256042,0.0654 0.452176,0.25319 0.662952,0.40119 0.123375,0.14285 0.198984,0.31948 0.290994,0.48564 0.06475,0.118 0.245051,0.17569 0.26582,0.30925"/>
      <path style="fill:none;fill-rule:evenodd;stroke:#000000;stroke-width:0.264583px;stroke-linecap:butt;stroke-linejoin:miter;stroke-opacity:1" d="m 85.691926,134.40833 c 0.275778,0.0198 0.53712,-0.0762 0.789026,-0.16897 0.235381,0.0122 0.458646,0.13742 0.647815,0.27117 0.1868,0.16572 0.333223,0.36903 0.52301,0.5324 0.127571,0.15507 0.326156,0.24827 0.421406,0.42351"/>
      <path style="fill:none;fill-rule:evenodd;stroke:#000000;stroke-width:0.264583px;stroke-linecap:butt;stroke-linejoin:miter;stroke-opacity:1" d="m 85.030468,133.64765 c -0.112746,0.0192 -0.206026,0.0857 -0.256351,0.18596 -0.09583,0.0451 -0.141459,0.14581 -0.236792,0.1872 0.0247,0.0813 -0.127236,0.0408 -0.188001,0.0889 -0.08399,0.0551 -0.192581,0.0455 -0.274263,0.001 -0.09053,-0.0818 -0.153383,-0.18341 -0.274504,-0.23154 -0.05393,-0.0395 -0.07545,-0.1125 -0.02692,-0.16617"/>
      <path style="fill:#800000;fill-opacity:1;stroke:#000000;stroke-width:0.1;stroke-linecap:round;stroke-linejoin:round;stroke-dasharray:none;stroke-opacity:1" d="m 270.30396,528.15186 c -0.78075,0.11178 -0.81681,1.15592 -1.07007,1.74243 -0.22694,1.02966 -0.54015,2.15074 -0.28028,3.19336 0.51551,0.67642 1.3505,1.13625 2.11499,1.41968 0.26119,-1.60219 -0.26365,-3.49973 0.86084,-4.8562 0.0971,-0.34802 0.59888,-0.67384 0.49244,-1.0315 -0.66916,-0.24209 -1.40231,-0.43512 -2.11792,-0.46777 z" transform="scale(0.26458333)"/>
      <path style="fill:#800000;fill-opacity:1;stroke:#000000;stroke-width:0.1;stroke-linecap:round;stroke-linejoin:round;stroke-dasharray:none;stroke-opacity:1" d="m 273.6333,509.49561 c -1.00104,0.31435 -1.19943,1.58796 -1.31262,2.49216 -0.24006,2.09032 0.98657,3.9301 1.5388,5.867 0.3073,1.09823 0.30651,-0.58957 0.41664,-0.99295 0.24321,-1.88614 1.35452,-3.99412 3.40186,-4.33032 0.25164,-0.18269 0.89039,0.1535 0.94873,-0.23877 -1.11749,-0.98055 -2.48612,-1.6742 -3.76876,-2.42679 -0.38154,-0.1824 -0.78784,-0.4067 -1.22465,-0.37033 z" transform="scale(0.26458333)"/>
      <path style="fill:#800000;fill-opacity:1;stroke:#000000;stroke-width:0.1;stroke-linecap:round;stroke-linejoin:round;stroke-dasharray:none;stroke-opacity:1" d="m 290.1416,504.59693 c -1.20293,0.0867 -2.55796,0.29471 -3.29297,1.37378 0.0536,1.13983 -0.10391,2.35419 0.0977,3.45922 0.65117,-0.19062 1.25387,-0.55056 1.93677,-0.65625 1.53075,-0.53845 3.21351,-0.24709 4.80454,-0.39551 0.47596,-0.11499 1.93694,0.28569 1.1581,-0.54687 -1.10516,-1.57262 -2.60158,-3.2827 -4.7041,-3.23437 z" transform="scale(0.26458333)"/>
      <path style="fill:#800000;fill-opacity:1;stroke:#000000;stroke-width:0.1;stroke-linecap:round;stroke-linejoin:round;stroke-dasharray:none;stroke-opacity:1" d="m 300.56152,500.4895 c -1.55633,0.0173 -2.87984,1.24662 -3.15936,2.7533 -0.16423,0.83711 -0.38924,1.75808 -0.24469,2.59265 0.97898,-0.37178 1.95809,-0.91795 3.01287,-1.14647 1.3128,-0.48618 2.76388,-0.39172 4.01594,-1.06788 0.22314,-0.0801 0.70579,-0.064 0.50928,-0.44776 -0.35345,-1.1462 -1.24029,-2.10186 -2.43261,-2.3753 -0.54848,-0.17836 -1.11988,-0.32808 -1.70143,-0.30854 z" transform="scale(0.26458333)"/>
      <path style="fill:#800000;fill-opacity:1;stroke:#000000;stroke-width:0.1;stroke-linecap:round;stroke-linejoin:round;stroke-dasharray:none;stroke-opacity:1" d="m 312.05029,496.47656 c -1.71943,0.35684 -2.66905,2.14363 -3.03128,3.7269 -0.0915,0.55235 -0.40221,1.17811 -0.22067,1.72306 0.90207,0.30574 1.88288,0.3534 2.80542,0.44824 1.38425,0.61905 2.82976,1.45744 3.47705,2.90649 0.24053,0.28917 0.38279,0.86799 0.7815,0.9353 0.57473,-1.61532 0.43504,-3.40474 0.476,-5.09765 -0.47869,-1.52471 -1.48846,-2.92038 -2.70232,-3.98218 -0.44141,-0.36449 -1.0132,-0.62204 -1.5857,-0.66016 z" transform="scale(0.26458333)"/>
      <path style="fill:#800000;fill-opacity:1;stroke:#000000;stroke-width:0.1;stroke-linecap:round;stroke-linejoin:round;stroke-dasharray:none;stroke-opacity:1" d="m 317.61524,501.62012 c -0.36609,0.24233 -0.0553,0.9055 -0.19092,1.27978 -0.038,0.89536 -0.12554,1.79358 -0.29395,2.66871 0.42703,0.25569 0.75538,0.91307 1.2876,0.93335 0.92765,-0.40747 1.73081,-1.09535 2.37695,-1.85743 -0.62034,-1.31152 -1.6814,-2.58428 -3.10669,-3.02075 -0.0241,-0.003 -0.0487,-0.005 -0.073,-0.004 z" transform="scale(0.26458333)"/>
      <path style="fill:#800000;fill-opacity:1;stroke:#000000;stroke-width:0.1;stroke-linecap:round;stroke-linejoin:round;stroke-dasharray:none;stroke-opacity:1" d="m 329.03027,504.60938 c -1.77874,8.5e-4 -3.15412,1.43078 -4.11962,2.75244 0.96592,-0.0889 1.96644,-0.69647 2.97241,-0.32202 1.80857,0.61778 2.87835,2.36561 4.37939,3.43042 0.35277,-0.07 0.11716,-0.688 0.21875,-0.93238 0.0412,-1.20941 0.0431,-2.4237 0.0374,-3.6311 -0.80863,-1.11246 -2.22243,-1.26037 -3.48829,-1.29736 z" transform="scale(0.26458333)"/>
      <path style="fill:#800000;fill-opacity:1;stroke:#000000;stroke-width:0.1;stroke-linecap:round;stroke-linejoin:round;stroke-dasharray:none;stroke-opacity:1" d="m 345.66651,509.51026 c -1.25659,0.2091 -2.25995,1.13503 -3.36799,1.70723 -0.58425,0.42972 -1.36978,0.73601 -1.81878,1.28862 1.32466,0.64927 2.82184,1.08307 3.98877,2.02368 1.00449,1.11692 0.54206,2.76373 0.68945,4.04541 0.7389,-1.29822 1.04373,-2.78448 1.65967,-4.13916 0.49204,-1.54705 0.4585,-3.45178 -0.59741,-4.75684 -0.15236,-0.12996 -0.35647,-0.1813 -0.55371,-0.16894 z" transform="scale(0.26458333)"/>
      <path style="fill:#800000;fill-opacity:1;stroke:#000000;stroke-width:0.1;stroke-linecap:round;stroke-linejoin:round;stroke-dasharray:none;stroke-opacity:1" d="m 349.03516,528.17627 c -0.73675,0.10408 -1.57281,0.16921 -2.20655,0.56055 0.17941,0.91508 0.80474,1.72795 1.20387,2.57235 0.47118,0.85302 1.02459,1.71254 1.49999,2.53385 0.65111,-0.15286 1.13983,-0.76869 0.9978,-1.45532 0.0321,-1.31913 -0.38306,-2.57297 -0.7539,-3.81397 0.003,-0.37763 -0.46557,-0.4104 -0.74121,-0.39746 z" transform="scale(0.26458333)"/>
    </g></g></g></svg>