<svg xmlns="http://www.w3.org/2000/svg" xmlns:xlink="http://www.w3.org/1999/xlink" width="64" height="64" viewBox="0 0 64 64"><defs id="defs355716">
    <rect x="172" y="97" width="745" height="239" id="rect276290"/>
    <color-profile name="Agfa-:-Swop-Standard" xmlns:xlink="http://www.w3.org/1999/xlink" xlink:href="file:///C:/WINDOWS/system32/spool/drivers/color/RSWOP.icm" id="color-profile294613"/>
    <linearGradient xmlns:inkscape="http://www.inkscape.org/namespaces/inkscape" inkscape:collect="always" id="linearGradient140439">
      <stop style="stop-color:#a4a870;stop-opacity:1;" offset="0" id="stop140435"/>
      <stop style="stop-color:#a4a870;stop-opacity:0;" offset="1" id="stop140437"/>
    </linearGradient>
    <linearGradient xmlns:inkscape="http://www.inkscape.org/namespaces/inkscape" inkscape:collect="always" id="linearGradient140390">
      <stop style="stop-color:#359676;stop-opacity:1;" offset="0" id="stop140386"/>
      <stop style="stop-color:#4a6a5e;stop-opacity:0;" offset="1" id="stop140388"/>
    </linearGradient>
    <linearGradient xmlns:inkscape="http://www.inkscape.org/namespaces/inkscape" inkscape:collect="always" id="linearGradient139515">
      <stop style="stop-color:#dbd764;stop-opacity:1;" offset="0" id="stop139511"/>
      <stop style="stop-color:#dbd764;stop-opacity:0;" offset="0.56578946" id="stop139513"/>
    </linearGradient>
    <linearGradient xmlns:inkscape="http://www.inkscape.org/namespaces/inkscape" inkscape:collect="always" id="linearGradient139325">
      <stop style="stop-color:#161c16;stop-opacity:1;" offset="0" id="stop139321"/>
      <stop style="stop-color:#6e836c;stop-opacity:0;" offset="1" id="stop139323"/>
    </linearGradient>
    <linearGradient xmlns:inkscape="http://www.inkscape.org/namespaces/inkscape" inkscape:collect="always" id="linearGradient387614">
      <stop style="stop-color:#a4a870;stop-opacity:1;" offset="0" id="stop387610"/>
      <stop style="stop-color:#a4a870;stop-opacity:0;" offset="1" id="stop387612"/>
    </linearGradient>
    <linearGradient xmlns:inkscape="http://www.inkscape.org/namespaces/inkscape" inkscape:collect="always" id="linearGradient387421">
      <stop style="stop-color:#344533;stop-opacity:1;" offset="0" id="stop387417"/>
      <stop style="stop-color:#1d251d;stop-opacity:0;" offset="1" id="stop387419"/>
    </linearGradient>
    <linearGradient xmlns:inkscape="http://www.inkscape.org/namespaces/inkscape" inkscape:collect="always" xmlns:xlink="http://www.w3.org/1999/xlink" xlink:href="#linearGradient206680" id="linearGradient206682" x1="168.01042" y1="262.08701" x2="168.01042" y2="247.38542" gradientUnits="userSpaceOnUse"/>
    <linearGradient xmlns:inkscape="http://www.inkscape.org/namespaces/inkscape" inkscape:collect="always" id="linearGradient206680">
      <stop style="stop-color:#dbd764;stop-opacity:0;" offset="0.38377193" id="stop206678"/>
      <stop style="stop-color:#dbd764;stop-opacity:1;" offset="1" id="stop206676"/>
    </linearGradient>
    <linearGradient xmlns:inkscape="http://www.inkscape.org/namespaces/inkscape" inkscape:collect="always" xmlns:xlink="http://www.w3.org/1999/xlink" xlink:href="#linearGradient216292" id="linearGradient216294" x1="168.01042" y1="236.00833" x2="168.01042" y2="248.97292" gradientUnits="userSpaceOnUse" gradientTransform="translate(8.4073796,-0.78650088)"/>
    <linearGradient xmlns:inkscape="http://www.inkscape.org/namespaces/inkscape" inkscape:collect="always" id="linearGradient216292">
      <stop style="stop-color:#359676;stop-opacity:1;" offset="0" id="stop216288"/>
      <stop style="stop-color:#4a6a5f;stop-opacity:0;" offset="1" id="stop216290"/>
    </linearGradient>
    <linearGradient xmlns:inkscape="http://www.inkscape.org/namespaces/inkscape" inkscape:collect="always" xmlns:xlink="http://www.w3.org/1999/xlink" xlink:href="#linearGradient387421" id="linearGradient387423" x1="31.75" y1="155.31041" x2="31.921236" y2="171.18663" gradientUnits="userSpaceOnUse"/>
    <linearGradient xmlns:inkscape="http://www.inkscape.org/namespaces/inkscape" inkscape:collect="always" xmlns:xlink="http://www.w3.org/1999/xlink" xlink:href="#linearGradient387614" id="linearGradient387616" x1="45.011326" y1="158.73975" x2="51.59375" y2="162.71875" gradientUnits="userSpaceOnUse" gradientTransform="translate(2.9601329,-0.98671096)"/>
    <linearGradient xmlns:inkscape="http://www.inkscape.org/namespaces/inkscape" inkscape:collect="always" xmlns:xlink="http://www.w3.org/1999/xlink" xlink:href="#linearGradient387614" id="linearGradient387620" gradientUnits="userSpaceOnUse" x1="45.011326" y1="158.73975" x2="51.593746" y2="162.71875" gradientTransform="matrix(-1,0,0,1,108.79346,-0.98671096)"/>
    <linearGradient xmlns:inkscape="http://www.inkscape.org/namespaces/inkscape" inkscape:collect="always" xmlns:xlink="http://www.w3.org/1999/xlink" xlink:href="#linearGradient139325" id="linearGradient139327" x1="70" y1="21" x2="70" y2="37" gradientUnits="userSpaceOnUse"/>
    <linearGradient xmlns:inkscape="http://www.inkscape.org/namespaces/inkscape" inkscape:collect="always" xmlns:xlink="http://www.w3.org/1999/xlink" xlink:href="#linearGradient139515" id="linearGradient139517" x1="70.426315" y1="1.5429174" x2="70.46106" y2="18.249472" gradientUnits="userSpaceOnUse"/>
    <linearGradient xmlns:inkscape="http://www.inkscape.org/namespaces/inkscape" inkscape:collect="always" xmlns:xlink="http://www.w3.org/1999/xlink" xlink:href="#linearGradient140390" id="linearGradient140392" x1="90.084175" y1="1.3586814" x2="90" y2="16" gradientUnits="userSpaceOnUse"/>
    <linearGradient xmlns:inkscape="http://www.inkscape.org/namespaces/inkscape" inkscape:collect="always" xmlns:xlink="http://www.w3.org/1999/xlink" xlink:href="#linearGradient140439" id="linearGradient140441" x1="90.01368" y1="24.010059" x2="94.88681" y2="28.136377" gradientUnits="userSpaceOnUse"/>
    <linearGradient xmlns:inkscape="http://www.inkscape.org/namespaces/inkscape" inkscape:collect="always" xmlns:xlink="http://www.w3.org/1999/xlink" xlink:href="#linearGradient140439" id="linearGradient140449" gradientUnits="userSpaceOnUse" x1="90.01368" y1="24.010059" x2="94.88681" y2="28.136377" gradientTransform="matrix(-1,0,0,1,190,0)"/>
    <radialGradient xmlns:inkscape="http://www.inkscape.org/namespaces/inkscape" inkscape:collect="always" xmlns:xlink="http://www.w3.org/1999/xlink" xlink:href="#linearGradient177339" id="radialGradient177341-3-0" cx="44.135807" cy="121.46028" fx="44.135807" fy="121.46028" r="1.1079427" gradientTransform="matrix(1.5015971,0,0,0.99367432,-157.6034,-4.3351259)" gradientUnits="userSpaceOnUse"/>
    <linearGradient xmlns:inkscape="http://www.inkscape.org/namespaces/inkscape" inkscape:collect="always" id="linearGradient177339">
      <stop style="stop-color:#b98d3e;stop-opacity:1;" offset="0" id="stop177335"/>
      <stop style="stop-color:#c9c943;stop-opacity:0;" offset="1" id="stop177337"/>
    </linearGradient>
    <radialGradient xmlns:inkscape="http://www.inkscape.org/namespaces/inkscape" inkscape:collect="always" xmlns:xlink="http://www.w3.org/1999/xlink" xlink:href="#linearGradient177339" id="radialGradient177345-7-9" gradientUnits="userSpaceOnUse" gradientTransform="matrix(1.5015971,0,0,0.99367432,-195.50719,-68.761115)" cx="44.135807" cy="121.46028" fx="44.135807" fy="121.46028" r="1.1079427"/>
    <rect x="172" y="97" width="745" height="239" id="rect276290-2"/>
    <rect x="172" y="97" width="745" height="239" id="rect276290-2-5"/>
    <rect x="172" y="97" width="745" height="239" id="rect276290-2-5-7"/>
  </defs><g transform="translate(256.77632855194753 -349.16222995428416) scale(2.292713770224072)"><g><g transform="translate(-60.060416,-2.6458334)">
      <path style="display:inline;fill:#000000;fill-rule:evenodd;stroke:#000000;stroke-width:0.214312px;stroke-linecap:butt;stroke-linejoin:miter;stroke-opacity:1" d="m -40.461527,158.6242 c -1.505223,-0.20982 -1.051558,1.96786 -2.518168,1.55377 -0.553004,-0.12021 -1.118141,-0.12013 -1.686777,-0.10716 -0.455625,6.3e-4 -0.912359,-8.1e-4 -1.367174,0 -0.463312,0.22738 0.546191,0.53723 0.597375,0.87357 -0.623935,0.37523 -1.481993,0.20543 -2.179524,0.46213 -0.351905,0.24566 -1.115953,0.53503 -1.311026,0.64631 0.752183,0.13907 1.532245,0.2867 2.276716,0.45664 0.310959,0.093 1.785483,0.26364 0.830809,0.50762 -0.559929,0.2153 -1.219342,0.27918 -1.660921,0.37501 -0.692696,0.11278 -1.136366,0.41876 -1.575345,0.65391 -0.509571,0.0565 -0.305743,0.25678 0.110144,0.2484 -0.31343,-0.2033 0.805407,0.28421 1.090146,0.3298 0.272484,0.10295 1.035018,0.47504 0.990549,0.38585 -0.370097,-0.11877 0.807611,0.25946 0.133999,0.30904 -0.61317,0.27984 -1.385643,0.0377 -1.92823,0.43016 -0.375256,0.16754 -1.296332,0.5527 -0.343351,0.42234 0.534301,0.0275 1.057293,0.35986 1.505815,0.43472 1.078434,0.0498 -0.363269,0.50498 -0.748076,0.42065 -0.591834,0.099 -1.363465,0.31244 -1.567771,0.56842 -0.50932,0.27147 -0.528452,0.51153 0.08182,0.56448 0.703299,0.0874 1.24463,0.33518 1.875255,0.58911 0.148579,0.48659 -1.062671,0.72237 -1.232293,1.28587 -0.303645,0.40117 -0.620322,0.63809 0.05354,0.53578 0.48101,-0.0243 1.94707,0.0237 1.071557,0.69641 -0.534689,0.52412 -0.976755,1.10921 -1.232302,1.82165 -0.180468,0.27384 -0.477333,1.00164 0.241518,0.59044 0.543834,-0.24063 1.128492,-0.35346 1.729415,-0.32248 0.414736,0.0215 0.868174,-0.0467 1.254479,0.0251 -0.223138,0.34855 -1.058872,1.15105 -1.026804,1.1775 -0.604009,0.63257 -0.760153,1.35695 -0.96633,2.06563 -0.167435,0.69007 0.608836,-0.19994 0.937623,-0.16073 0.605581,-0.34194 1.233663,-0.37281 1.895603,-0.42118 0.474433,0.11499 -0.436712,0.87912 -0.476264,1.22424 -0.291163,0.60181 -0.52113,1.22859 -0.434832,1.9093 0.303725,-0.50166 1.025824,-0.73954 1.560359,-0.9979 0.604479,-0.15191 1.219731,-0.37538 1.859679,-0.4354 0.262206,0.0654 2.177129,-0.71211 2.446737,-0.65573"/>
      <path style="display:inline;fill:#000000;fill-rule:evenodd;stroke:#000000;stroke-width:0.214312px;stroke-linecap:butt;stroke-linejoin:miter;stroke-opacity:1" d="m -35.442905,158.78494 c 1.505223,-0.20982 0.997985,1.80712 2.464596,1.39303 0.553003,-0.12021 1.11814,-0.12013 1.686776,-0.10716 0.455625,6.3e-4 0.91236,-8.1e-4 1.367175,0 0.463312,0.22738 -0.546191,0.53723 -0.597375,0.87357 0.623935,0.37523 1.482,0.20543 2.179532,0.46213 0.351904,0.24566 1.115953,0.53503 1.311025,0.64631 -0.752182,0.13907 -1.532245,0.2867 -2.276724,0.45664 -0.310951,0.093 -1.785483,0.26364 -0.830809,0.50762 0.559937,0.2153 1.219342,0.27918 1.66093,0.37501 0.692695,0.11278 1.136357,0.41876 1.575344,0.65391 0.509571,0.0565 0.305743,0.25678 -0.110143,0.2484 0.313429,-0.2033 -0.805408,0.28421 -1.090155,0.3298 -0.272476,0.10295 -1.03501,0.47504 -0.990541,0.38585 0.370097,-0.11877 -0.807619,0.25946 -0.133998,0.30904 0.61317,0.27984 1.385642,0.0377 1.928229,0.43016 0.375257,0.16754 1.296332,0.5527 0.343351,0.42234 -0.5343,0.0275 -1.057293,0.35986 -1.505814,0.43472 -1.078434,0.0498 0.363268,0.50498 0.748075,0.42065 0.591835,0.099 1.363457,0.31244 1.567771,0.56842 0.50932,0.27147 0.528444,0.51153 -0.08182,0.56448 -0.703299,0.0874 -1.24463,0.33518 -1.875255,0.58911 -0.148578,0.48659 1.062671,0.72237 1.232293,1.28587 0.303637,0.40117 0.620315,0.63809 -0.05362,0.53578 -0.48101,-0.0243 -1.94707,0.0237 -1.071557,0.69641 0.534689,0.52412 0.976747,1.10921 1.232294,1.82165 0.180476,0.27384 0.477341,1.00164 -0.24151,0.59044 -0.543834,-0.24063 -1.128492,-0.35346 -1.729415,-0.32248 -0.414736,0.0215 -0.868174,-0.0467 -1.254479,0.0251 0.223139,0.34855 1.058864,1.15105 1.026805,1.1775 0.604008,0.63257 0.760144,1.35695 0.96633,2.06563 0.167435,0.69007 -0.608837,-0.19994 -0.937624,-0.16073 -0.60558,-0.34194 -1.233662,-0.37281 -1.895603,-0.42118 -0.474433,0.11499 0.436712,0.87912 0.476264,1.22424 0.291155,0.60181 0.52113,1.22859 0.434824,1.9093 -0.303725,-0.50166 -1.025824,-0.73954 -1.560359,-0.9979 -0.604479,-0.15191 -1.219731,-0.37538 -1.859679,-0.4354 -0.262213,0.0654 -1.566198,-0.71211 -1.835806,-0.65573"/>
      <g transform="matrix(0.81,0,0,0.81,-126.15043,-4.004719)" style="display:inline">
        <path style="fill:none;stroke:#000000;stroke-width:0.502327px;stroke-linecap:butt;stroke-linejoin:miter;stroke-opacity:1" d="m 107.29049,214.3125 -0.49976,-0.50233 h -1.49055 -0.5213"/>
        <path style="fill:#ffffff;stroke:#000000;stroke-width:0.251163;stroke-miterlimit:4;stroke-dashoffset:0;stroke-opacity:1" d="m 106.70838,213.83037 c 0.0707,0.11478 0.11151,0.24996 0.11151,0.39468 0,0.41612 -0.33734,0.75349 -0.75348,0.75349 -0.41617,0 -0.75351,-0.33737 -0.75351,-0.75349 0,-0.14864 0.0431,-0.28728 0.11738,-0.40402 z"/>
        <circle style="fill:#000000;fill-opacity:1;fill-rule:nonzero;stroke:#000000;stroke-width:0.251163;stroke-miterlimit:4;stroke-dasharray:none;stroke-dashoffset:0;stroke-opacity:1" cx="106.03442" cy="214.31506" r="0.2511633"/>
      </g>
      <g style="display:inline;fill:#e6dfc2;fill-opacity:1" transform="translate(-31.364416,27.182556)">
        <path style="fill:#e6dfc2;fill-opacity:1;fill-rule:evenodd;stroke:#000000;stroke-width:0.214312px;stroke-linecap:butt;stroke-linejoin:miter;stroke-opacity:1" d="m 0.162613,142.40585 2.14313,-2.35744 c 0,0 0.279126,0.49005 -1.071565,3.429 -0.612093,1.33186 -2.14313,2.14313 -2.14313,2.14313"/>
        <path style="fill:#e6dfc2;fill-opacity:1;fill-rule:evenodd;stroke:#000000;stroke-width:0.214312px;stroke-linecap:butt;stroke-linejoin:miter;stroke-opacity:1" d="m -13.65297,142.40585 -2.14313,-2.35744 c 0,0 -0.279134,0.49005 1.071565,3.429 0.612093,1.33186 2.14313,2.14313 2.14313,2.14313"/>
        <path style="fill:#e6dfc2;fill-opacity:1;fill-rule:evenodd;stroke:#000000;stroke-width:0.214312px;stroke-linecap:butt;stroke-linejoin:miter;stroke-opacity:1" d="m -5.195197,151.40697 c 3.386036,-2.50206 2.386036,-1.50206 3.857625,-4.71487 0.679647,-1.6942 1.999341,-3.55665 2.029352,-5.35782 0.02454,-1.47251 0.01053,-3.28726 -1.071565,-4.28625 -1.596405,-1.47379 -4.256688,-2.14312 -6.429376,-2.14312 -2.172687,0 -4.83297,0.66933 -6.429374,2.14313 -1.082096,0.99899 -1.096101,2.81373 -1.071558,4.28624 0.02997,1.79938 1.565481,3.6649 2.243662,5.35782 1.353239,3.42746 0.25727,2.21281 3.643315,4.71487 0.817834,0.58474 2.613955,0.49794 3.227919,0 z"/>
      </g>
      <g transform="matrix(-0.81,0,0,0.81,49.803288,-4.004714)" style="display:inline">
        <path style="fill:none;stroke:#000000;stroke-width:0.502327px;stroke-linecap:butt;stroke-linejoin:miter;stroke-opacity:1" d="m 107.29049,214.3125 -0.49976,-0.50233 h -1.49055 -0.5213"/>
        <path style="fill:#ffffff;stroke:#000000;stroke-width:0.251163;stroke-miterlimit:4;stroke-dashoffset:0;stroke-opacity:1" d="m 106.70838,213.83037 c 0.0707,0.11478 0.11151,0.24996 0.11151,0.39468 0,0.41612 -0.33734,0.75349 -0.75348,0.75349 -0.41617,0 -0.75351,-0.33737 -0.75351,-0.75349 0,-0.14864 0.0431,-0.28728 0.11738,-0.40402 z"/>
        <circle style="fill:#000000;fill-opacity:1;fill-rule:nonzero;stroke:#000000;stroke-width:0.251163;stroke-miterlimit:4;stroke-dasharray:none;stroke-dashoffset:0;stroke-opacity:1" cx="106.03442" cy="214.31506" r="0.2511633"/>
      </g>
      <g transform="matrix(-0.81,0,0,0.81,49.694554,-4.004714)" style="display:inline">
        <path style="fill:none;stroke:#000000;stroke-width:0.502327px;stroke-linecap:butt;stroke-linejoin:miter;stroke-opacity:1" d="m 109.80213,214.3125 0.55646,-0.50233 h 1.95518"/>
        <path style="fill:#ffffff;stroke:#000000;stroke-width:0.251163;stroke-miterlimit:4;stroke-dashoffset:0;stroke-opacity:1" d="m 111.73165,213.83032 c 0.0707,0.11478 0.11151,0.24995 0.11151,0.39468 0,0.41612 -0.33734,0.75349 -0.75351,0.75349 -0.41613,0 -0.75347,-0.33737 -0.75347,-0.75349 0,-0.14864 0.043,-0.28728 0.11737,-0.40403 z"/>
        <circle style="fill:#000000;fill-opacity:1;fill-rule:nonzero;stroke:#000000;stroke-width:0.251163;stroke-miterlimit:4;stroke-dasharray:none;stroke-dashoffset:0;stroke-opacity:1" cx="111.07362" cy="214.31506" r="0.2511633"/>
      </g>
      <g transform="matrix(-0.81,0,0,0.81,49.694554,-4.004714)" style="display:inline;stroke:#998f7c;stroke-opacity:1">
        <path style="fill:none;fill-rule:evenodd;stroke:#998f7c;stroke-width:0.529167;stroke-linecap:butt;stroke-linejoin:miter;stroke-dasharray:none;stroke-opacity:1" d="m 111.12501,210.34375 v 2.64583 l 2.11666,0.52917 1.05834,1.5875 -1.32292,2.38125 -2.64583,0.26458 0.26458,1.85208 0.79375,1.5875 0.79375,1.5875 1.05833,0.52917"/>
        <path style="fill:none;fill-rule:evenodd;stroke:#998f7c;stroke-width:0.529167;stroke-linecap:butt;stroke-linejoin:miter;stroke-dasharray:none;stroke-opacity:1" d="m 112.44792,210.34375 1.05834,0.79375 h 1.5875 l 1.05833,1.05833 -1.05833,1.05833 0.52916,1.05834 v 1.85208 l -1.05833,0.79375 0.26458,0.79375 -1.05833,1.5875 0.52917,0.26458 0.52514,0.17505"/>
        <path style="fill:none;fill-rule:evenodd;stroke:#998f7c;stroke-width:0.529167;stroke-linecap:butt;stroke-linejoin:miter;stroke-dasharray:none;stroke-opacity:1" d="m 105.83333,210.34375 v 2.64583 l -2.11666,0.52917 -1.05834,1.5875 1.32292,2.38125 2.64583,0.26458 -0.26458,1.85208 -0.79375,1.5875 -0.79375,1.5875 -1.05833,0.52917"/>
        <path style="fill:none;fill-rule:evenodd;stroke:#998f7c;stroke-width:0.529167;stroke-linecap:butt;stroke-linejoin:miter;stroke-dasharray:none;stroke-opacity:1" d="M 108.47917,210.07916 V 219.075"/>
        <path style="fill:none;fill-rule:evenodd;stroke:#998f7c;stroke-width:0.529167;stroke-linecap:butt;stroke-linejoin:miter;stroke-dasharray:none;stroke-opacity:1" d="m 108.47917,216.69375 2.38125,-1.05834 1.5875,0.52917 0.79375,0.79375 1.32292,0.52917 1.33883,0.22314"/>
        <path style="fill:none;fill-rule:evenodd;stroke:#998f7c;stroke-width:0.529167;stroke-linecap:butt;stroke-linejoin:miter;stroke-dasharray:none;stroke-opacity:1" d="m 104.51042,210.34375 -1.05834,0.79375 h -1.5875 l -1.05833,1.05833 1.05833,1.05833 -0.52916,1.05834 v 1.85208 l 1.05833,0.79375 -0.26458,0.79375 1.05833,1.5875 -0.52917,0.26458 -0.79375,0.26459"/>
        <path style="fill:none;fill-rule:evenodd;stroke:#998f7c;stroke-width:0.529167;stroke-linecap:butt;stroke-linejoin:miter;stroke-dasharray:none;stroke-opacity:1" d="m 108.47917,216.69375 -2.38125,-1.05834 -1.5875,0.52917 -1.05833,0.52917 -1.32292,0.52917 -1.40049,0.23341"/>
        <path style="fill:none;fill-rule:evenodd;stroke:#998f7c;stroke-width:0.529167;stroke-linecap:butt;stroke-linejoin:miter;stroke-dasharray:none;stroke-opacity:1" d="m 108.47917,218.81042 2.64584,-1e-5 0.79375,0.52917 1.32291,0.26458 v 1.05834 l 1.05834,0.79375"/>
        <path style="fill:none;fill-rule:evenodd;stroke:#998f7c;stroke-width:0.529167;stroke-linecap:butt;stroke-linejoin:miter;stroke-dasharray:none;stroke-opacity:1" d="m 108.47917,218.81042 -2.64584,-1e-5 -0.79375,0.52917 -1.32291,0.26458 v 1.05834 l -1.05834,0.79375"/>
        <path style="fill:none;fill-rule:evenodd;stroke:#998f7c;stroke-width:0.529167;stroke-linecap:butt;stroke-linejoin:miter;stroke-dasharray:none;stroke-opacity:1" d="m 112.18334,213.78333 2.11667,-0.79375 1.5875,0.79375 0.79375,-0.26458 0.79375,0.79375"/>
        <path style="fill:none;fill-rule:evenodd;stroke:#998f7c;stroke-width:0.529167;stroke-linecap:butt;stroke-linejoin:miter;stroke-dasharray:none;stroke-opacity:1" d="m 104.775,213.78333 -2.11667,-0.79375 -1.5875,0.79375 -0.79375,-0.26458 -0.793748,0.79375"/>
        <path style="fill:none;fill-rule:evenodd;stroke:#998f7c;stroke-width:0.529167;stroke-linecap:butt;stroke-linejoin:miter;stroke-dasharray:none;stroke-opacity:1" d="m 108.13628,219.5819 -0.71545,1.60976 -0.26458,2.11667 -0.79375,1.05833 -0.52916,0.52917"/>
        <path style="fill:none;fill-rule:evenodd;stroke:#998f7c;stroke-width:0.529167;stroke-linecap:butt;stroke-linejoin:miter;stroke-dasharray:none;stroke-opacity:1" d="m 108.83559,219.61236 0.70192,1.5793 0.26458,2.11667 0.79375,1.05833 0.53668,0.53669"/>
        <path style="fill:none;fill-rule:evenodd;stroke:#998f7c;stroke-width:0.529167;stroke-linecap:butt;stroke-linejoin:miter;stroke-dasharray:none;stroke-opacity:1" d="m 108.47917,223.57291 v 2.46682"/>
        <path style="fill:none;fill-rule:evenodd;stroke:#998f7c;stroke-width:0.529167;stroke-linecap:butt;stroke-linejoin:miter;stroke-dasharray:none;stroke-opacity:1" d="m 115.09376,211.1375 1.05833,-1.5875 1.05834,-0.26459"/>
        <path style="fill:none;fill-rule:evenodd;stroke:#998f7c;stroke-width:0.529167;stroke-linecap:butt;stroke-linejoin:miter;stroke-dasharray:none;stroke-opacity:1" d="m 101.86458,211.1375 -1.05833,-1.5875 -1.058335,-0.26459"/>
        <path style="fill:none;fill-rule:evenodd;stroke:#998f7c;stroke-width:0.529167;stroke-linecap:butt;stroke-linejoin:miter;stroke-dasharray:none;stroke-opacity:1" d="m 105.83333,211.66666 2.64584,0.26459 2.64583,-0.26459"/>
      </g>
      <path style="display:inline;fill:none;fill-rule:evenodd;stroke:#000000;stroke-width:0.214312px;stroke-linecap:butt;stroke-linejoin:miter;stroke-opacity:1" d="m -37.102011,170.65997 v 3.21469 h -1.071566 -1.071565 v -3.21469"/>
      <path style="display:inline;fill:#000000;fill-opacity:1;fill-rule:evenodd;stroke:#000000;stroke-width:0.214312px;stroke-linecap:butt;stroke-linejoin:miter;stroke-opacity:1" d="m -45.031514,164.65919 4.286252,1.7145 5.116714,-0.0134 4.312974,-1.70109 -2.57175,-4.71488 c 0,0 -2.143511,-1.11226 -4.286253,-1.07156 -2.115655,0.0402 -4.286244,1.07156 -4.286244,1.07156 z"/>
      <path style="display:inline;fill:#ffffc8;fill-opacity:1;fill-rule:evenodd;stroke:#000000;stroke-width:0.214312px;stroke-linecap:butt;stroke-linejoin:miter;stroke-opacity:1" d="m -35.96435,176.22587 0.208372,1.10815 0.435683,-0.22732 0.236779,-0.48304 -0.03791,-0.92345"/>
      <path style="display:inline;fill:#ffffc8;fill-opacity:1;fill-rule:evenodd;stroke:#000000;stroke-width:0.214312px;stroke-linecap:butt;stroke-linejoin:miter;stroke-opacity:1" d="m -40.382803,176.22587 -0.208372,1.10815 -0.435683,-0.22732 -0.236788,-0.48304 0.03791,-0.88083"/>
      <path style="display:inline;fill:none;fill-rule:evenodd;stroke:#000000;stroke-width:0.214312px;stroke-linecap:butt;stroke-linejoin:miter;stroke-opacity:1" d="m -34.958889,175.58916 -0.857247,0.64293 h -4.714873 l -0.857255,-0.64293"/>
      <path style="display:inline;fill:none;fill-opacity:1;fill-rule:evenodd;stroke:#000000;stroke-width:0.214312px;stroke-linecap:butt;stroke-linejoin:miter;stroke-opacity:1" d="m -36.559613,178.58953 c 3.386036,-2.50206 2.386036,-1.50206 3.857625,-4.71487 0.679647,-1.6942 1.999341,-3.55665 2.029352,-5.35782 0.02454,-1.47251 0.01053,-3.28726 -1.071565,-4.28625 -1.596405,-1.47379 -4.256688,-2.14312 -6.429376,-2.14312 -2.172687,0 -4.83297,0.66933 -6.429374,2.14313 -1.082096,0.99899 -1.096101,2.81373 -1.071558,4.28624 0.02997,1.79938 1.565481,3.6649 2.243662,5.35782 1.353239,3.42746 0.25727,2.21281 3.643315,4.71487 0.817834,0.58474 2.613955,0.49794 3.227919,0 z"/>
      <path style="display:inline;fill:#adad8d;fill-opacity:1;stroke:#000000;stroke-width:0.264583;stroke-linecap:round;stroke-linejoin:round;stroke-dasharray:none;stroke-opacity:1" d="m -40.792006,158.52337 c -0.524935,0.10427 -0.794937,0.5862 -1.055232,0.98031 -1.032686,0.97701 -2.546707,0.32023 -3.803128,0.49609 -0.369206,-0.0853 -0.767584,0.26883 -0.323236,0.51961 0.20994,0.10281 0.554119,0.45899 0.120407,0.50022 -1.089374,0.16346 -2.273741,0.43182 -3.13831,1.07798 1.077631,0.28665 2.279647,0.34107 3.288688,0.79168 -1.177358,0.42755 -2.60384,0.44444 -3.606757,1.27227 0.206,0.33996 0.837877,0.27318 1.185199,0.46147 0.387271,0.20179 1.094485,0.23443 1.274341,0.65681 -0.636778,0.20502 -1.384949,0.0886 -1.988251,0.47697 -1.125414,0.34513 -0.455407,0.4838 0.277761,0.57749 0.409658,0.13672 0.895383,0.31208 1.279509,0.35708 -0.890904,0.4742 -2.234682,0.26046 -2.864683,1.17331 0.137402,0.50255 0.900573,0.37038 1.285968,0.58447 0.26617,0.13783 0.811612,0.18559 0.91183,0.46379 -0.555103,0.51762 -1.34847,0.93706 -1.55546,1.70016 0.537519,0.05 1.309384,-0.11557 1.706355,0.30747 -0.648478,0.85038 -1.447447,1.69808 -1.665789,2.78846 0.217543,0.35587 0.738234,-0.15526 1.066343,-0.12609 0.708814,-0.0947 1.493883,-0.28777 2.186946,-0.12712 -0.663984,0.94922 -1.591572,1.78901 -1.764491,3.00369 -0.107117,0.21839 -0.109184,0.63712 0.233577,0.39042 0.855487,-0.44751 1.78431,-0.70496 2.755388,-0.71779 -0.65203,0.90324 -1.19176,2.03972 -1.080038,3.13908 1.215839,-1.20529 3.039804,-1.38162 4.63951,-1.6725 0.583194,0.0509 -0.05498,-0.3738 -0.229185,-0.48602 -1.231278,-0.92634 -1.272367,-2.63863 -2.005602,-3.89981 -0.181151,-0.26174 -0.288717,-0.89905 -0.682864,-0.77381 -1.611814,-1.05768 -2.309833,-3.01688 -2.733425,-4.80461 0.06333,-0.28749 0.412226,0.30398 0.518946,0.35215 0.379243,0.33785 0.658541,0.89975 0.926185,1.24801 0.214777,-1.42829 -0.119266,-3.05096 0.621926,-4.35633 1.454901,0.27365 2.823179,1.11818 4.256071,1.50146 1.802075,-0.0361 3.631108,0.0705 5.417109,-0.0509 1.323717,-0.46845 2.629276,-1.17484 3.991102,-1.45084 0.716427,1.27693 0.455819,2.85779 0.574126,4.26743 -0.0198,0.36174 0.170078,0.19708 0.223758,-0.0359 0.387972,-0.56393 0.825856,-1.19948 1.392164,-1.55804 -0.139215,1.164 -0.682329,2.28648 -1.220081,3.32305 -0.471827,0.64744 -1.024921,1.38739 -1.745888,1.69473 -1.015272,1.47769 -1.178749,3.50526 -2.698801,4.61625 -0.178592,0.0859 -0.54324,0.60754 -0.110846,0.3682 0.462072,-0.42097 1.064432,0.24074 1.5875,0.24159 1.248555,0.22339 2.560691,0.62572 3.499527,1.44409 -9.18e-4,-1.137 -0.466536,-2.20413 -1.129131,-3.1073 1.07382,-0.035 2.0359,0.40285 3.000334,0.78574 0.118876,-0.51813 -0.244038,-1.14167 -0.425296,-1.64796 -0.342831,-0.67251 -1.025536,-1.15849 -1.341521,-1.8172 1.05668,-0.18196 2.132379,0.13558 3.14477,0.37413 0.291009,-0.25868 -0.177944,-0.75361 -0.251869,-1.04567 -0.283047,-0.73444 -0.932323,-1.2404 -1.31522,-1.88955 0.415748,-0.45358 1.222596,-0.16412 1.730128,-0.31807 -0.288903,-0.77316 -1.085119,-1.14976 -1.593185,-1.70713 0.627907,-0.51946 1.565844,-0.4029 2.192374,-0.88186 0.027,-0.51699 -0.7412,-0.64662 -1.11492,-0.81881 -0.513576,-0.20863 -1.364405,-0.1596 -1.708681,-0.50462 0.775423,-0.053 1.461457,-0.5026 2.25671,-0.50358 -0.712863,-0.54767 -1.708142,-0.7682 -2.629039,-0.82864 -0.2708,-0.21423 0.400284,-0.38618 0.5333,-0.46741 0.576027,-0.30568 1.332312,-0.30738 1.852084,-0.67102 -0.587347,-0.59582 -1.553406,-0.73149 -2.338101,-0.96945 -0.353187,-0.13759 -1.034811,-0.10511 -1.252377,-0.36303 1.036714,-0.41515 2.267548,-0.4566 3.273701,-0.80976 -1.004623,-0.64928 -2.189575,-0.84685 -3.323828,-1.09606 -0.204972,-0.31456 0.839009,-0.55315 0.400751,-0.87876 -1.264072,-0.21824 -2.567261,0.036 -3.843176,0.0274 -0.419063,-0.49666 -0.805768,-1.44575 -1.571738,-1.38105 -0.160416,0.27564 0.09428,0.78902 -0.441795,0.44632 -1.51057,-0.47208 -3.190982,-0.41837 -4.686316,-0.0383 -0.08051,-0.2344 0.03926,-0.65589 -0.366128,-0.60436 z"/>
    </g></g></g></svg>