<svg xmlns="http://www.w3.org/2000/svg" xmlns:xlink="http://www.w3.org/1999/xlink" width="64" height="64" viewBox="0 0 64 64"><defs id="defs355716">
    <rect x="172" y="97" width="745" height="239" id="rect276290"/>
    <color-profile name="Agfa-:-Swop-Standard" xmlns:xlink="http://www.w3.org/1999/xlink" xlink:href="file:///C:/WINDOWS/system32/spool/drivers/color/RSWOP.icm" id="color-profile294613"/>
    <linearGradient xmlns:inkscape="http://www.inkscape.org/namespaces/inkscape" inkscape:collect="always" id="linearGradient140439">
      <stop style="stop-color:#a4a870;stop-opacity:1;" offset="0" id="stop140435"/>
      <stop style="stop-color:#a4a870;stop-opacity:0;" offset="1" id="stop140437"/>
    </linearGradient>
    <linearGradient xmlns:inkscape="http://www.inkscape.org/namespaces/inkscape" inkscape:collect="always" id="linearGradient140390">
      <stop style="stop-color:#359676;stop-opacity:1;" offset="0" id="stop140386"/>
      <stop style="stop-color:#4a6a5e;stop-opacity:0;" offset="1" id="stop140388"/>
    </linearGradient>
    <linearGradient xmlns:inkscape="http://www.inkscape.org/namespaces/inkscape" inkscape:collect="always" id="linearGradient139515">
      <stop style="stop-color:#dbd764;stop-opacity:1;" offset="0" id="stop139511"/>
      <stop style="stop-color:#dbd764;stop-opacity:0;" offset="0.56578946" id="stop139513"/>
    </linearGradient>
    <linearGradient xmlns:inkscape="http://www.inkscape.org/namespaces/inkscape" inkscape:collect="always" id="linearGradient139325">
      <stop style="stop-color:#161c16;stop-opacity:1;" offset="0" id="stop139321"/>
      <stop style="stop-color:#6e836c;stop-opacity:0;" offset="1" id="stop139323"/>
    </linearGradient>
    <linearGradient xmlns:inkscape="http://www.inkscape.org/namespaces/inkscape" inkscape:collect="always" id="linearGradient387614">
      <stop style="stop-color:#a4a870;stop-opacity:1;" offset="0" id="stop387610"/>
      <stop style="stop-color:#a4a870;stop-opacity:0;" offset="1" id="stop387612"/>
    </linearGradient>
    <linearGradient xmlns:inkscape="http://www.inkscape.org/namespaces/inkscape" inkscape:collect="always" id="linearGradient387421">
      <stop style="stop-color:#344533;stop-opacity:1;" offset="0" id="stop387417"/>
      <stop style="stop-color:#1d251d;stop-opacity:0;" offset="1" id="stop387419"/>
    </linearGradient>
    <linearGradient xmlns:inkscape="http://www.inkscape.org/namespaces/inkscape" inkscape:collect="always" xmlns:xlink="http://www.w3.org/1999/xlink" xlink:href="#linearGradient206680" id="linearGradient206682" x1="168.01042" y1="262.08701" x2="168.01042" y2="247.38542" gradientUnits="userSpaceOnUse"/>
    <linearGradient xmlns:inkscape="http://www.inkscape.org/namespaces/inkscape" inkscape:collect="always" id="linearGradient206680">
      <stop style="stop-color:#dbd764;stop-opacity:0;" offset="0.38377193" id="stop206678"/>
      <stop style="stop-color:#dbd764;stop-opacity:1;" offset="1" id="stop206676"/>
    </linearGradient>
    <linearGradient xmlns:inkscape="http://www.inkscape.org/namespaces/inkscape" inkscape:collect="always" xmlns:xlink="http://www.w3.org/1999/xlink" xlink:href="#linearGradient216292" id="linearGradient216294" x1="168.01042" y1="236.00833" x2="168.01042" y2="248.97292" gradientUnits="userSpaceOnUse" gradientTransform="translate(8.4073796,-0.78650088)"/>
    <linearGradient xmlns:inkscape="http://www.inkscape.org/namespaces/inkscape" inkscape:collect="always" id="linearGradient216292">
      <stop style="stop-color:#359676;stop-opacity:1;" offset="0" id="stop216288"/>
      <stop style="stop-color:#4a6a5f;stop-opacity:0;" offset="1" id="stop216290"/>
    </linearGradient>
    <linearGradient xmlns:inkscape="http://www.inkscape.org/namespaces/inkscape" inkscape:collect="always" xmlns:xlink="http://www.w3.org/1999/xlink" xlink:href="#linearGradient387421" id="linearGradient387423" x1="31.75" y1="155.31041" x2="31.921236" y2="171.18663" gradientUnits="userSpaceOnUse"/>
    <linearGradient xmlns:inkscape="http://www.inkscape.org/namespaces/inkscape" inkscape:collect="always" xmlns:xlink="http://www.w3.org/1999/xlink" xlink:href="#linearGradient387614" id="linearGradient387616" x1="45.011326" y1="158.73975" x2="51.59375" y2="162.71875" gradientUnits="userSpaceOnUse" gradientTransform="translate(2.9601329,-0.98671096)"/>
    <linearGradient xmlns:inkscape="http://www.inkscape.org/namespaces/inkscape" inkscape:collect="always" xmlns:xlink="http://www.w3.org/1999/xlink" xlink:href="#linearGradient387614" id="linearGradient387620" gradientUnits="userSpaceOnUse" x1="45.011326" y1="158.73975" x2="51.593746" y2="162.71875" gradientTransform="matrix(-1,0,0,1,108.79346,-0.98671096)"/>
    <linearGradient xmlns:inkscape="http://www.inkscape.org/namespaces/inkscape" inkscape:collect="always" xmlns:xlink="http://www.w3.org/1999/xlink" xlink:href="#linearGradient139325" id="linearGradient139327" x1="70" y1="21" x2="70" y2="37" gradientUnits="userSpaceOnUse"/>
    <linearGradient xmlns:inkscape="http://www.inkscape.org/namespaces/inkscape" inkscape:collect="always" xmlns:xlink="http://www.w3.org/1999/xlink" xlink:href="#linearGradient139515" id="linearGradient139517" x1="70.426315" y1="1.5429174" x2="70.46106" y2="18.249472" gradientUnits="userSpaceOnUse"/>
    <linearGradient xmlns:inkscape="http://www.inkscape.org/namespaces/inkscape" inkscape:collect="always" xmlns:xlink="http://www.w3.org/1999/xlink" xlink:href="#linearGradient140390" id="linearGradient140392" x1="90.084175" y1="1.3586814" x2="90" y2="16" gradientUnits="userSpaceOnUse"/>
    <linearGradient xmlns:inkscape="http://www.inkscape.org/namespaces/inkscape" inkscape:collect="always" xmlns:xlink="http://www.w3.org/1999/xlink" xlink:href="#linearGradient140439" id="linearGradient140441" x1="90.01368" y1="24.010059" x2="94.88681" y2="28.136377" gradientUnits="userSpaceOnUse"/>
    <linearGradient xmlns:inkscape="http://www.inkscape.org/namespaces/inkscape" inkscape:collect="always" xmlns:xlink="http://www.w3.org/1999/xlink" xlink:href="#linearGradient140439" id="linearGradient140449" gradientUnits="userSpaceOnUse" x1="90.01368" y1="24.010059" x2="94.88681" y2="28.136377" gradientTransform="matrix(-1,0,0,1,190,0)"/>
    <radialGradient xmlns:inkscape="http://www.inkscape.org/namespaces/inkscape" inkscape:collect="always" xmlns:xlink="http://www.w3.org/1999/xlink" xlink:href="#linearGradient177339" id="radialGradient177341-3-0" cx="44.135807" cy="121.46028" fx="44.135807" fy="121.46028" r="1.1079427" gradientTransform="matrix(1.5015971,0,0,0.99367432,-157.6034,-4.3351259)" gradientUnits="userSpaceOnUse"/>
    <linearGradient xmlns:inkscape="http://www.inkscape.org/namespaces/inkscape" inkscape:collect="always" id="linearGradient177339">
      <stop style="stop-color:#b98d3e;stop-opacity:1;" offset="0" id="stop177335"/>
      <stop style="stop-color:#c9c943;stop-opacity:0;" offset="1" id="stop177337"/>
    </linearGradient>
    <radialGradient xmlns:inkscape="http://www.inkscape.org/namespaces/inkscape" inkscape:collect="always" xmlns:xlink="http://www.w3.org/1999/xlink" xlink:href="#linearGradient177339" id="radialGradient177345-7-9" gradientUnits="userSpaceOnUse" gradientTransform="matrix(1.5015971,0,0,0.99367432,-195.50719,-68.761115)" cx="44.135807" cy="121.46028" fx="44.135807" fy="121.46028" r="1.1079427"/>
    <rect x="172" y="97" width="745" height="239" id="rect276290-2"/>
    <rect x="172" y="97" width="745" height="239" id="rect276290-2-5"/>
    <rect x="172" y="97" width="745" height="239" id="rect276290-2-5-7"/>
  </defs><g transform="translate(-237.5261392120316 -171.07546056360246) scale(2.144339727372056)"><g><g transform="translate(5.4547225,-115.79509)">
      <path style="fill:#e6e6e6;fill-opacity:1;fill-rule:evenodd;stroke:#000000;stroke-width:0.264583px;stroke-linecap:butt;stroke-linejoin:miter;stroke-opacity:1" d="m 116.51588,204.42369 c 0.0496,-0.54408 -0.18671,-1.05398 -0.2435,-1.58695 -0.16711,-0.76486 -0.38579,-1.55603 -0.25313,-2.34051 0.25241,-0.53812 0.5585,-1.1558 1.14823,-1.37792 0.50044,-0.15991 1.02851,0.17558 1.18438,0.65875 0.34211,0.92509 0.81771,1.81649 0.9316,2.81013 0.13871,0.4665 0.0562,0.96132 0.0764,1.4398"/>
      <g transform="translate(-1.0914062,-0.42994791)">
        <path style="fill:#e6e6e6;fill-opacity:1;fill-rule:evenodd;stroke:#000000;stroke-width:0.264583px;stroke-linecap:butt;stroke-linejoin:miter;stroke-opacity:1" d="m 127.85971,206.77179 c 0.27405,-0.29678 0.48485,-0.6404 0.7545,-0.9396 0.40498,-0.19623 0.64011,-0.58414 0.95236,-0.88643 0.19083,-0.24411 0.3661,-0.53453 0.45021,-0.80563 0.24129,-0.2491 0.1396,-0.71779 0.15872,-1.10565 0.0406,-0.32086 -0.0503,-0.62833 -0.12916,-0.93503 -0.12416,-0.4098 -0.49937,-0.6578 -0.91499,-0.48004 -0.41255,0.045 -0.84483,0.12121 -1.16503,0.4109 -0.34557,0.2209 -0.74804,0.56307 -0.88702,0.86556 -0.17748,0.31748 -0.44561,0.59981 -0.71198,0.86391 -0.26859,0.21063 -0.46349,0.49364 -0.6092,0.78971 -0.14302,0.13733 -0.33332,0.47571 -0.44221,0.62742"/>
        <path style="fill:none;fill-rule:evenodd;stroke:#000000;stroke-width:0.264583px;stroke-linecap:butt;stroke-linejoin:miter;stroke-opacity:1" d="m 127.07998,202.94443 c 0.27881,0.0227 0.58395,-0.0645 0.83758,0.0872 0.2043,0.0882 0.4434,0.13396 0.57684,0.33122 0.1606,0.19455 0.40996,0.26873 0.61901,0.39878 0.19762,0.1185 0.30339,0.33152 0.45156,0.49961 0.0338,0.10516 0.15611,0.17164 0.20526,0.29777"/>
        <path style="fill:#4d4d4d;fill-opacity:1;stroke:#000000;stroke-width:0.2;stroke-linecap:round;stroke-linejoin:round" d="m 489.05542,762.38696 c -1.8085,0.22654 -3.7335,0.48093 -5.18164,1.69775 -0.9835,0.71543 -2.02283,1.5013 -2.73951,2.44165 2.00886,-0.18464 3.95589,0.7139 5.38906,2.07801 1.09952,0.78287 2.40817,1.32227 3.16211,2.51087 0.32408,0.20131 0.6667,1.46876 0.9477,0.89974 0.38966,-0.87418 1.03497,-1.68998 0.82718,-2.70249 -0.0742,-2.02006 0.24231,-4.27701 -0.87927,-6.07666 -0.3592,-0.46302 -0.89226,-0.94319 -1.52563,-0.84887 z" transform="scale(0.26458333)"/>
      </g>
      <g transform="rotate(-26.47476,115.74258,208.42855)">
        <path style="fill:#e6e6e6;fill-opacity:1;fill-rule:evenodd;stroke:#000000;stroke-width:0.264583px;stroke-linecap:butt;stroke-linejoin:miter;stroke-opacity:1" d="m 112.08411,206.63958 c -0.50711,-0.20646 -0.69092,-0.77222 -0.98772,-1.1875 -0.21373,-0.39757 -0.23252,-0.86183 -0.30589,-1.29858 -0.0484,-0.62434 0.35825,-1.34834 1.02398,-1.42408 0.54897,0.005 0.85888,0.58092 0.8947,1.06801 0.0338,0.5167 0.18734,1.01414 0.47036,1.4485 0.0993,0.19928 0.30448,0.3107 0.46005,0.4348"/>
        <path style="fill:none;fill-rule:evenodd;stroke:#000000;stroke-width:0.264583px;stroke-linecap:butt;stroke-linejoin:miter;stroke-opacity:1" d="m 110.92656,204.75442 c 0.16191,-0.0933 0.34058,-0.15725 0.49932,-0.25372 0.12927,-0.0881 0.24897,-0.15038 0.38376,-0.22073 0.14155,-0.0914 0.31349,-0.11509 0.47422,-0.15319 0.14529,-0.0143 0.2911,0.007 0.43632,-0.008 0.0337,0.002 0.0692,0.0132 0.0915,0.0401"/>
        <path style="fill:#4d4d4d;fill-opacity:1;stroke:#000000;stroke-width:0.2;stroke-linecap:round;stroke-linejoin:round" d="m 422.58105,766.78906 c -1.59692,0.20077 -2.76996,1.70588 -3.14575,3.19336 -0.18333,0.9916 -0.22277,2.09228 0.12475,3.03955 1.65529,-0.56474 3.0493,-1.88239 4.86294,-2.03304 0.66723,-0.0291 1.39068,-0.0308 0.99424,-0.91594 -0.20564,-1.46446 -1.11734,-3.31614 -2.83618,-3.28393 z" transform="scale(0.26458333)"/>
      </g>
      <g transform="matrix(-1,0,0,1,240.47437,0)">
        <path style="fill:#e6e6e6;fill-opacity:1;fill-rule:evenodd;stroke:#000000;stroke-width:0.264583px;stroke-linecap:butt;stroke-linejoin:miter;stroke-opacity:1" d="m 129.91042,209.54999 c 0.18683,-0.0603 0.15984,0.025 0.3851,-0.045 0.2746,-0.0318 0.52758,-0.15557 0.79926,-0.19015 0.29229,-0.0736 0.62073,-0.004 0.92902,-0.0339 0.32197,-0.0584 0.59861,0.11811 0.83816,0.28761 0.23176,0.17378 0.27082,0.43868 0.35793,0.70423 -0.006,0.31692 0.13018,0.62595 0.0491,0.94651 -0.027,0.24143 -0.22012,0.39105 -0.40534,0.51833 -0.21431,0.13172 -0.45158,0.26205 -0.70011,0.27927 -0.24541,0.0428 -0.47347,0.12157 -0.70603,0.22315 -0.16456,0.0975 -0.40733,0.20019 -0.45542,0.35223"/>
        <path style="fill:none;fill-rule:evenodd;stroke:#000000;stroke-width:0.264583px;stroke-linecap:butt;stroke-linejoin:miter;stroke-opacity:1" d="m 132.22566,212.06327 c 0.10655,-0.37716 -0.0386,-0.7589 -0.0755,-1.13501 -0.13371,-0.46833 -0.34256,-0.92606 -0.66363,-1.29616 -0.19053,-0.0957 -0.0721,-0.30731 -0.2946,-0.29698"/>
        <path style="fill:#4d4d4d;fill-opacity:1;stroke:#000000;stroke-width:0.2;stroke-linecap:round;stroke-linejoin:round" d="m 497.40722,791.5144 c -0.15461,-0.035 -0.70992,0.0223 -0.34839,0.21972 1.23545,1.09215 1.9258,2.68063 2.54932,4.17334 0.49806,1.4842 0.66106,3.07594 0.87891,4.60547 0.78968,-0.23948 1.53131,-0.80159 2.1477,-1.36548 0.99934,-1.13231 0.4669,-2.76542 0.30762,-4.09863 -0.15426,-1.24665 -0.71445,-2.54079 -1.93244,-3.07324 -1.0484,-0.70811 -2.418,-0.36651 -3.60272,-0.46118 z" transform="scale(0.26458333)"/>
      </g>
      <path style="fill:#e6e6e6;fill-opacity:1;fill-rule:evenodd;stroke:#000000;stroke-width:0.264583px;stroke-linecap:butt;stroke-linejoin:miter;stroke-opacity:1" d="m 128.13596,207.07263 c 0.34177,-0.13767 0.65869,-0.33507 0.88592,-0.63009 0.28725,-0.29578 0.43638,-0.71211 0.79247,-0.94237 0.25512,-0.27627 0.64624,-0.27258 0.95761,-0.43435 0.33462,-0.1951 0.85994,-0.14282 0.99361,0.27214 0.11082,0.37369 0.23744,0.79421 0.10169,1.17743 -0.20825,0.42094 -0.747,0.67875 -1.12479,0.86613 -0.48273,0.22771 -0.78652,0.49817 -1.15944,0.88626 -0.1434,0.11976 -0.27259,0.2594 -0.4369,0.35181"/>
      <path style="fill:none;fill-rule:evenodd;stroke:#000000;stroke-width:0.264583px;stroke-linecap:butt;stroke-linejoin:miter;stroke-opacity:1" d="m 129.87039,205.48831 c 0.0944,0.14981 0.27816,0.20405 0.3985,0.32848 0.17547,0.16999 0.41735,0.29005 0.51255,0.52905 0.10695,0.18746 0.21228,0.38545 0.22711,0.60479 0.0186,0.0834 -0.0109,0.16856 0.003,0.25228"/>
      <path style="fill:#e6e6e6;fill-opacity:1;fill-rule:evenodd;stroke:#000000;stroke-width:0.264583px;stroke-linecap:butt;stroke-linejoin:miter;stroke-opacity:1" d="m 124.28802,204.48984 c 0.16032,-0.33237 0.0985,-0.70116 0.0661,-1.05074 0.0256,-0.32514 -0.0943,-0.70651 0.16157,-0.96199 0.22831,-0.38921 0.6552,-0.57946 1.07058,-0.70033 0.24737,-0.15644 0.55708,-0.0968 0.83133,-0.0923 0.30398,0.11022 0.28732,0.48551 0.22752,0.74512 -0.0749,0.27114 -0.21074,0.513 -0.30494,0.77852 -0.12996,0.28567 -0.25311,0.58493 -0.19958,0.90688 0.0114,0.30916 0.0161,0.62447 -0.0857,0.91992 -0.0152,0.12604 -0.0523,0.25704 -0.14641,0.34781"/>
      <path style="fill:none;fill-rule:evenodd;stroke:#000000;stroke-width:0.264583px;stroke-linecap:butt;stroke-linejoin:miter;stroke-opacity:1" d="m 124.43735,202.9912 c 0.23084,-0.23175 0.56662,-0.26062 0.87384,-0.24196 0.30139,0.0482 0.637,0.0581 0.90501,0.20496 l 0.0271,0.0377 0.0177,0.0464"/>
      <path style="fill:#e6e6e6;fill-opacity:1;fill-rule:evenodd;stroke:#000000;stroke-width:0.264583px;stroke-linecap:butt;stroke-linejoin:miter;stroke-opacity:1" d="m 115.25911,204.62213 c -0.59699,-0.93629 -0.68912,-2.15902 -1.48547,-2.96839 -0.63951,-0.51636 -1.82243,-0.35996 -2.0787,0.49901 -0.28932,0.76772 0.50889,1.29279 0.69613,1.95867 0.17134,0.74283 0.50162,1.43595 0.58633,2.19728"/>
      <path style="fill:none;fill-rule:evenodd;stroke:#000000;stroke-width:0.264583px;stroke-linecap:butt;stroke-linejoin:miter;stroke-opacity:1" d="m 112.28255,203.86145 c 0.20278,-0.26674 0.49177,-0.45068 0.69756,-0.71491 0.19348,-0.21217 0.48733,-0.23891 0.74776,-0.31146 0.22529,-0.0288 0.44242,-0.10162 0.67111,-0.0656"/>
      <path style="fill:#e6e6e6;fill-opacity:1;fill-rule:evenodd;stroke:#000000;stroke-width:0.264583px;stroke-linecap:butt;stroke-linejoin:miter;stroke-opacity:1" d="m 117.01198,203.99374 c -0.0818,-0.63799 -0.23545,-1.26661 -0.35552,-1.8968 -0.17946,-0.5631 -0.4061,-1.1826 -0.97193,-1.46265 -0.47248,-0.39358 -1.23446,-0.24745 -1.60749,0.2153 -0.37486,0.43632 0.14877,0.88516 0.1868,1.33631 0.17202,0.87657 -0.013,1.77857 0.10278,2.65919 0.0156,0.0708 0.0373,0.14041 0.066,0.20709"/>
      <path style="fill:#e6e6e6;fill-opacity:1;fill-rule:evenodd;stroke:#000000;stroke-width:0.264583px;stroke-linecap:butt;stroke-linejoin:miter;stroke-opacity:1" d="m 121.67779,203.85649 c 0.0468,-0.71108 0.0514,-1.43367 -0.12368,-2.12924 -0.0676,-0.40186 -0.1212,-0.8437 -0.415,-1.15272 -0.44063,-0.23091 -0.9284,-0.40376 -1.43182,-0.39285 -0.42579,-0.15622 -0.86537,0.057 -1.23897,0.25218 -0.3181,0.28156 -0.18245,0.7418 -0.1079,1.1 0.12139,0.56018 0.45554,1.05245 0.5472,1.62271 0.0601,0.26948 0.0252,0.54461 0.0336,0.81738"/>
      <path style="fill:none;fill-rule:evenodd;stroke:#000000;stroke-width:0.264583px;stroke-linecap:butt;stroke-linejoin:miter;stroke-opacity:1" d="m 118.61421,202.45332 c 0.18754,-0.014 0.3771,-0.004 0.55934,-0.0602 0.18698,-0.0311 0.37502,-0.0694 0.54281,-0.12369 0.21615,-0.0525 0.44032,-9.3e-4 0.65539,-0.0645 0.19821,-0.013 0.4001,-0.0202 0.59831,-0.002 0.2183,0.0395 0.43968,0.0858 0.6336,0.203 0.0234,0.0104 0.0164,0.0574 0.0514,0.0469"/>
      <path style="fill:#e6e6e6;fill-opacity:1;fill-rule:evenodd;stroke:#000000;stroke-width:0.264583px;stroke-linecap:butt;stroke-linejoin:miter;stroke-opacity:1" d="m 121.11302,203.72916 c 0.10067,-0.58312 0.26937,-1.15445 0.51137,-1.69286 0.18417,-0.47121 0.12713,-1.05024 0.48163,-1.44228 0.55876,-0.38801 1.26776,-0.57313 1.945,-0.48956 0.41804,0.15134 0.68778,0.55058 0.80225,0.96325 0.26025,0.54955 0.13963,1.20373 -0.11346,1.73273 -0.17648,0.48414 -0.39413,0.94804 -0.64793,1.395 -0.0466,0.0973 -0.0908,0.1957 -0.13452,0.29428"/>
      <path style="fill:#e6e6e6;stroke:#000000;stroke-width:0.529166;stroke-linecap:round;stroke-linejoin:round;stroke-dasharray:none" d="m 131,215 c 0,2.66781 -4.42129,4.11655 -7.64749,5.1626 -0.55614,0.18033 -1.64026,1.74767 -1.64026,1.74767 0,0 -1.1868,-1.14587 -1.71224,-1.14587 -0.51324,0 -1.66998,1.15384 -1.66998,1.15384 0,0 -1.06217,-1.55789 -1.60781,-1.73162 C 113.47313,219.15205 109,217.68843 109,215 c 0,-6.61457 4.38542,-11.10277 11,-11.10277 6.6297,0 11,4.4882 11,11.10277 z"/>
      <path style="fill:#b3b3b3;fill-opacity:0.99384;stroke:#000000;stroke-width:0.0529167;stroke-linecap:round;stroke-linejoin:round" d="m 119.8005,204.22991 c -2.19582,-0.003 -4.42044,0.5955 -6.23554,1.85066 -0.38437,0.28367 -0.78867,0.56815 -1.10639,0.92197 0.41121,0.27943 0.88253,0.47705 1.31782,0.72208 1.16457,0.61058 2.35343,1.24411 3.25606,2.22322 0.58854,0.59479 1.06812,1.29035 1.46413,2.02345 1.00965,-0.002 2.02202,0.005 3.02998,-0.004 0.78811,-1.58456 2.0863,-2.89637 3.6459,-3.728 0.78737,-0.4301 1.60038,-0.81326 2.38099,-1.25516 -1.13854,-1.08234 -2.57932,-1.84868 -4.08379,-2.30535 -1.18807,-0.35196 -2.43453,-0.45562 -3.66916,-0.4492 z"/>
      <g transform="matrix(1.2310097,0.21706022,-0.21706022,1.2310097,74.969737,81.059872)">
        <path style="fill:none;stroke:#000000;stroke-width:0.502327px;stroke-linecap:butt;stroke-linejoin:miter;stroke-opacity:1" d="M 51.578592,97.700591 51.078833,97.198264 H 49.588276 49.066983"/>
        <path style="fill:#ffffff;stroke:#000000;stroke-width:0.251163;stroke-miterlimit:4;stroke-dashoffset:0;stroke-opacity:1" d="m 50.99648,97.21846 c 0.07073,0.11478 0.111506,0.249956 0.111506,0.394676 0,0.416128 -0.33734,0.753491 -0.753477,0.753491 -0.416164,0 -0.753505,-0.337363 -0.753505,-0.753491 0,-0.148638 0.04307,-0.287279 0.117377,-0.404021 z"/>
        <circle style="fill:#000000;fill-opacity:1;fill-rule:nonzero;stroke:#000000;stroke-width:0.251163;stroke-miterlimit:4;stroke-dasharray:none;stroke-dashoffset:0;stroke-opacity:1" cx="50.322617" cy="97.703163" r="0.2511633"/>
      </g>
      <g transform="matrix(1.2310097,-0.21706022,0.21706022,1.2310097,34.871971,103.99744)">
        <path style="fill:none;stroke:#000000;stroke-width:0.502327px;stroke-linecap:butt;stroke-linejoin:miter;stroke-opacity:1" d="m 54.090229,97.700591 0.556457,-0.502327 h 1.955179"/>
        <path style="fill:#ffffff;stroke:#000000;stroke-width:0.251163;stroke-miterlimit:4;stroke-dashoffset:0;stroke-opacity:1" d="m 56.019754,97.218409 c 0.0707,0.11478 0.111506,0.249956 0.111506,0.394676 0,0.416129 -0.33734,0.753491 -0.753505,0.753491 -0.416137,0 -0.753477,-0.337362 -0.753477,-0.753491 0,-0.148638 0.04304,-0.287279 0.117376,-0.40402 z"/>
        <circle style="fill:#000000;fill-opacity:1;fill-rule:nonzero;stroke:#000000;stroke-width:0.251163;stroke-miterlimit:4;stroke-dasharray:none;stroke-dashoffset:0;stroke-opacity:1" cx="55.361824" cy="97.703163" r="0.2511633"/>
      </g>
      <path style="fill:#800000;fill-rule:evenodd;stroke:#000000;stroke-width:0.330729px;stroke-linecap:butt;stroke-linejoin:miter;stroke-opacity:1" d="m 126.61458,215.47275 c -3.25982,-2.14855 -9.87193,-2.26058 -13.22916,0 4.96094,4.96094 8.35799,4.77248 13.22916,0 z"/>
      <g style="fill:#ffffd9;fill-opacity:1" transform="matrix(1.25,0,0,1.25,17.473959,31.918067)">
        <path style="fill:#ffffd9;fill-opacity:1;fill-rule:evenodd;stroke:#000000;stroke-width:0.264583px;stroke-linecap:butt;stroke-linejoin:miter;stroke-opacity:1" d="m 80.433333,149.58858 0.529166,-1.32292 0.264583,1.32292"/>
        <path style="fill:#ffffd9;fill-opacity:1;fill-rule:evenodd;stroke:#000000;stroke-width:0.264583px;stroke-linecap:butt;stroke-linejoin:miter;stroke-opacity:1" d="m 83.608332,149.58858 -0.529166,-1.32292 -0.264583,1.32292"/>
        <path style="fill:#ffffd9;fill-opacity:1;fill-rule:evenodd;stroke:#000000;stroke-width:0.264583px;stroke-linecap:butt;stroke-linejoin:miter;stroke-opacity:1" d="m 81.491666,149.78702 0.264583,-1.32292 0.264583,1.32292 0.264585,-1.32292 0.264583,1.32292"/>
        <path style="fill:#ffffd9;fill-opacity:1;fill-rule:evenodd;stroke:#000000;stroke-width:0.264583px;stroke-linecap:butt;stroke-linejoin:miter;stroke-opacity:1" d="m 80.16875,149.45629 -0.264584,-1.32292 -0.264584,1.05834"/>
        <path style="fill:#ffffd9;fill-opacity:1;fill-rule:evenodd;stroke:#000000;stroke-width:0.264583px;stroke-linecap:butt;stroke-linejoin:miter;stroke-opacity:1" d="m 79.440456,149.0131 -0.264584,-1.32292 -0.264584,1.05834"/>
        <path style="fill:#ffffd9;fill-opacity:1;fill-rule:evenodd;stroke:#000000;stroke-width:0.264583px;stroke-linecap:butt;stroke-linejoin:miter;stroke-opacity:1" d="m 78.712853,148.53354 -0.264584,-1.32292 -0.264584,1.05834"/>
        <path style="fill:#ffffd9;fill-opacity:1;fill-rule:evenodd;stroke:#000000;stroke-width:0.264583px;stroke-linecap:butt;stroke-linejoin:miter;stroke-opacity:1" d="m 83.774389,149.45629 0.264584,-1.32292 0.264584,1.05834"/>
        <path style="fill:#ffffd9;fill-opacity:1;fill-rule:evenodd;stroke:#000000;stroke-width:0.264583px;stroke-linecap:butt;stroke-linejoin:miter;stroke-opacity:1" d="m 84.502683,149.0131 0.264584,-1.32292 0.264584,1.05834"/>
        <path style="fill:#ffffd9;fill-opacity:1;fill-rule:evenodd;stroke:#000000;stroke-width:0.264583px;stroke-linecap:butt;stroke-linejoin:miter;stroke-opacity:1" d="m 85.230286,148.53354 0.264584,-1.32292 0.264584,1.05834"/>
      </g>
      <g style="fill:#ffffd9;fill-opacity:1" transform="matrix(1.25,0,0,1.25,17.473959,31.918067)">
        <path style="fill:#ffffd9;fill-opacity:1;fill-rule:evenodd;stroke:#000000;stroke-width:0.264583px;stroke-linecap:butt;stroke-linejoin:miter;stroke-opacity:1" d="m 80.433333,145.52083 0.529166,1.32292 0.264583,-1.32292"/>
        <path style="fill:#ffffd9;fill-opacity:1;fill-rule:evenodd;stroke:#000000;stroke-width:0.264583px;stroke-linecap:butt;stroke-linejoin:miter;stroke-opacity:1" d="m 83.608332,145.52083 -0.529166,1.32292 -0.264583,-1.32292"/>
        <path style="fill:#ffffd9;fill-opacity:1;fill-rule:evenodd;stroke:#000000;stroke-width:0.264583px;stroke-linecap:butt;stroke-linejoin:miter;stroke-opacity:1" d="m 81.491666,145.52083 0.264583,1.32292 0.264583,-1.32292 0.264585,1.32292 0.264583,-1.32292"/>
        <path style="fill:#ffffd9;fill-opacity:1;fill-rule:evenodd;stroke:#000000;stroke-width:0.264583px;stroke-linecap:butt;stroke-linejoin:miter;stroke-opacity:1" d="m 80.16875,145.52083 -0.264584,1.32292 -0.264584,-1.05834"/>
        <path style="fill:#ffffd9;fill-opacity:1;fill-rule:evenodd;stroke:#000000;stroke-width:0.264583px;stroke-linecap:butt;stroke-linejoin:miter;stroke-opacity:1" d="m 79.232142,145.71613 -0.148279,1.34093 -0.355818,-1.03125"/>
        <path style="fill:#ffffd9;fill-opacity:1;fill-rule:evenodd;stroke:#000000;stroke-width:0.238125px;stroke-linecap:butt;stroke-linejoin:miter;stroke-opacity:1" d="m 78.430045,145.94997 -0.133451,1.20683 -0.320236,-0.92812"/>
        <path style="fill:#ffffd9;fill-opacity:1;fill-rule:evenodd;stroke:#000000;stroke-width:0.264583px;stroke-linecap:butt;stroke-linejoin:miter;stroke-opacity:1" d="m 83.816664,145.52083 0.264584,1.32292 0.264584,-1.05834"/>
        <path style="fill:#ffffd9;fill-opacity:1;fill-rule:evenodd;stroke:#000000;stroke-width:0.264583px;stroke-linecap:butt;stroke-linejoin:miter;stroke-opacity:1" d="m 84.753272,145.71613 0.148279,1.34093 0.355818,-1.03125"/>
        <path style="fill:#ffffd9;fill-opacity:1;fill-rule:evenodd;stroke:#000000;stroke-width:0.238125px;stroke-linecap:butt;stroke-linejoin:miter;stroke-opacity:1" d="m 85.555369,145.94997 0.133451,1.20683 0.320236,-0.92812"/>
      </g>
      <path style="fill:none;fill-rule:evenodd;stroke:#000000;stroke-width:0.330729px;stroke-linecap:butt;stroke-linejoin:miter;stroke-opacity:1" d="m 126.61458,215.47275 c -3.25982,-2.14855 -9.87193,-2.26058 -13.22916,0 4.96094,4.96094 8.35799,4.77248 13.22916,0 z"/>
      <path style="fill:none;fill-rule:evenodd;stroke:#000000;stroke-width:0.330729px;stroke-linecap:butt;stroke-linejoin:miter;stroke-opacity:1" d="m 112,207 c 2.21204,1.37095 4.69271,1.85817 6.34635,5.16545 h 3.3073 C 123.30729,208.85817 125.6849,208.32292 128,207"/>
      <g>
        <ellipse style="fill:#800000;fill-opacity:1;stroke:#000000;stroke-width:0.264584;stroke-linecap:round;stroke-linejoin:round;stroke-dasharray:none;stroke-opacity:1" cx="113.37161" cy="209.79375" rx="0.49609375" ry="0.66145831"/>
        <circle style="fill:#800000;fill-opacity:1;stroke:#000000;stroke-width:0.264584;stroke-linecap:round;stroke-linejoin:round;stroke-dasharray:none;stroke-opacity:1" cx="111.66146" cy="212" r="0.66145831"/>
        <ellipse style="fill:#800000;fill-opacity:1;stroke:#000000;stroke-width:0.264584;stroke-linecap:round;stroke-linejoin:round;stroke-dasharray:none;stroke-opacity:1" cx="112.33854" cy="214" rx="0.66145831" ry="0.49609375"/>
      </g>
      <g transform="matrix(-1,0,0,1,239.67708,0)">
        <ellipse style="fill:#800000;fill-opacity:1;stroke:#000000;stroke-width:0.264584;stroke-linecap:round;stroke-linejoin:round;stroke-dasharray:none;stroke-opacity:1" cx="113.37161" cy="209.79375" rx="0.49609375" ry="0.66145831"/>
        <circle style="fill:#800000;fill-opacity:1;stroke:#000000;stroke-width:0.264584;stroke-linecap:round;stroke-linejoin:round;stroke-dasharray:none;stroke-opacity:1" cx="111.66146" cy="212" r="0.66145831"/>
        <ellipse style="fill:#800000;fill-opacity:1;stroke:#000000;stroke-width:0.264584;stroke-linecap:round;stroke-linejoin:round;stroke-dasharray:none;stroke-opacity:1" cx="112.33854" cy="214" rx="0.66145831" ry="0.49609375"/>
      </g>
      <path style="fill:#ffaaaa;fill-rule:evenodd;stroke:#000000;stroke-width:0.264583px;stroke-linecap:butt;stroke-linejoin:miter;stroke-opacity:1" d="m 118.00618,216.29788 c 0.10485,0.31879 0.24012,0.61527 0.39607,0.92052 0.0991,0.29963 0.11606,0.4672 0.23022,0.72408 0.12426,0.24833 0.16142,0.52528 0.28189,0.77498 0.0953,0.24129 0.26746,0.45266 0.44981,0.63781 0.28408,0.20125 0.71598,0.20128 1.02582,0.0659 0.32061,-0.11269 0.5877,-0.34372 0.75342,-0.63983 0.14496,-0.21687 0.23861,-0.41254 0.38311,-0.6242 0.17848,-0.34086 0.16034,-0.74275 0.34877,-1.07563 0.10882,-0.28656 0.21954,-0.589 0.38817,-0.8306"/>
      <path style="fill:#999999;fill-opacity:0;stroke:#000000;stroke-width:0.0529167;stroke-linecap:round;stroke-linejoin:round" d="m 119.88577,204.19735 c -0.94633,-0.0139 -1.89344,0.0767 -2.81287,0.30529 -1.73737,0.40486 -3.39732,1.23555 -4.67595,2.48976 0.0182,0.0971 0.18735,0.12264 0.25912,0.18596 1.45618,0.79567 3.03925,1.44716 4.22273,2.64938 0.64714,0.62999 1.17075,1.37955 1.58839,2.17624 1.02696,-0.002 2.05681,0.005 3.08198,-0.004 0.47743,-0.95027 1.11846,-1.82318 1.91983,-2.52613 1.18445,-1.0955 2.72041,-1.67425 4.10732,-2.45347 0.0409,-0.10704 -0.14597,-0.16948 -0.19105,-0.24547 -1.70961,-1.52472 -3.96106,-2.38308 -6.23339,-2.55119 -0.42161,-0.0223 -0.84397,-0.0279 -1.26611,-0.0267 z"/>
      <path style="fill:none;fill-rule:evenodd;stroke:#000000;stroke-width:0.264583px;stroke-linecap:butt;stroke-linejoin:miter;stroke-opacity:1" d="m 121.81811,201.77513 c 0.44281,-0.0175 0.90183,-0.0777 1.33438,0.0376 0.33268,0.16356 0.70381,0.20239 1.04892,0.32097 0.25637,0.0566 0.52179,0.11414 0.70421,0.32054"/>
      <path style="fill:none;fill-rule:evenodd;stroke:#000000;stroke-width:0.264583px;stroke-linecap:butt;stroke-linejoin:miter;stroke-opacity:1" d="m 114.36614,202.20781 c 0.04,-0.23763 0.30781,-0.30997 0.49658,-0.39725 0.1668,-0.11982 0.36188,-0.0329 0.54418,-0.0829 0.26714,-0.0691 0.53707,-0.15378 0.8166,-0.11355 0.11946,10e-4 0.23894,-0.003 0.35849,-0.001"/>
      <g>
        <path style="fill:#e6e6e6;fill-opacity:1;fill-rule:evenodd;stroke:#000000;stroke-width:0.264583px;stroke-linecap:butt;stroke-linejoin:miter;stroke-opacity:1" d="m 129.91042,209.54999 c 0.18683,-0.0603 0.15984,0.025 0.3851,-0.045 0.2746,-0.0318 0.52758,-0.15557 0.79926,-0.19015 0.29229,-0.0736 0.62073,-0.004 0.92902,-0.0339 0.32197,-0.0584 0.59861,0.11811 0.83816,0.28761 0.23176,0.17378 0.27082,0.43868 0.35793,0.70423 -0.006,0.31692 0.13018,0.62595 0.0491,0.94651 -0.027,0.24143 -0.22012,0.39105 -0.40534,0.51833 -0.21431,0.13172 -0.45158,0.26205 -0.70011,0.27927 -0.24541,0.0428 -0.47347,0.12157 -0.70603,0.22315 -0.16456,0.0975 -0.40733,0.20019 -0.45542,0.35223"/>
        <path style="fill:none;fill-rule:evenodd;stroke:#000000;stroke-width:0.264583px;stroke-linecap:butt;stroke-linejoin:miter;stroke-opacity:1" d="m 132.22566,212.06327 c 0.10655,-0.37716 -0.0386,-0.7589 -0.0755,-1.13501 -0.13371,-0.46833 -0.34256,-0.92606 -0.66363,-1.29616 -0.19053,-0.0957 -0.0721,-0.30731 -0.2946,-0.29698"/>
        <path style="fill:#4d4d4d;fill-opacity:1;stroke:#000000;stroke-width:0.2;stroke-linecap:round;stroke-linejoin:round" d="m 497.40722,791.5144 c -0.15461,-0.035 -0.70992,0.0223 -0.34839,0.21972 1.23545,1.09215 1.9258,2.68063 2.54932,4.17334 0.49806,1.4842 0.66106,3.07594 0.87891,4.60547 0.78968,-0.23948 1.53131,-0.80159 2.1477,-1.36548 0.99934,-1.13231 0.4669,-2.76542 0.30762,-4.09863 -0.15426,-1.24665 -0.71445,-2.54079 -1.93244,-3.07324 -1.0484,-0.70811 -2.418,-0.36651 -3.60272,-0.46118 z" transform="scale(0.26458333)"/>
      </g>
      <path style="fill:#4d4d4d;fill-opacity:1;stroke:#000000;stroke-width:0.0529167;stroke-linecap:round;stroke-linejoin:round" d="m 123.69264,200.23674 c -0.54627,0.0241 -1.14834,0.14628 -1.54603,0.54913 -0.15689,0.23497 -0.2085,0.53184 -0.26129,0.80408 0.53796,0.0784 1.11117,-0.0373 1.62397,0.1954 0.41926,0.12191 0.83964,0.24845 1.26022,0.35967 0.11695,-0.0345 0.0444,-0.2227 0.0735,-0.31199 0.0253,-0.4249 -0.13,-0.84626 -0.35541,-1.19967 -0.16253,-0.22634 -0.4024,-0.43315 -0.70098,-0.39656 -0.0313,-8e-4 -0.0626,1e-5 -0.0939,-6e-5 z"/>
      <path style="fill:#4d4d4d;fill-opacity:1;stroke:#000000;stroke-width:0.0529167;stroke-linecap:round;stroke-linejoin:round" d="m 115.00422,200.55139 c -0.36034,0.0268 -0.76725,0.20768 -0.90337,0.56385 -0.0363,0.2826 0.1426,0.54612 0.25089,0.78852 0.29755,-0.15497 0.60288,-0.31555 0.94639,-0.31723 0.32392,-0.0422 0.65848,-0.15161 0.97733,-0.11602 -0.23885,-0.41931 -0.62224,-0.80711 -1.10659,-0.91299 -0.0545,-0.007 -0.10973,-0.009 -0.16465,-0.006 z"/>
      <path style="fill:none;fill-rule:evenodd;stroke:#000000;stroke-width:0.264583px;stroke-linecap:butt;stroke-linejoin:miter;stroke-opacity:1" d="m 116.58203,201.87708 c 0.279,-0.14377 0.58288,-0.23258 0.89482,-0.26185 0.36102,-0.0714 0.71578,-0.21196 1.09017,-0.16762 0.0769,-5.4e-4 0.15381,-0.002 0.2307,5e-5"/>
      <path style="fill:#4d4d4d;fill-opacity:1;stroke:#000000;stroke-width:0.0529167;stroke-linecap:round;stroke-linejoin:round" d="m 119.33425,200.29061 c -0.30215,0.0186 -0.61988,0.12756 -0.84174,0.3368 -0.155,0.26187 -0.0378,0.58935 0.009,0.86713 0.0856,0.27688 0.14544,0.58777 0.32284,0.81908 0.75876,-0.14486 1.53866,-0.3378 2.31453,-0.2184 0.0904,-0.002 0.30408,0.13827 0.31109,-0.0316 -0.0162,-0.38473 -0.10753,-0.77109 -0.24236,-1.13139 -0.12295,-0.32954 -0.51267,-0.39761 -0.80564,-0.50372 -0.34717,-0.0909 -0.70876,-0.13368 -1.06725,-0.13791 z"/>
      <path style="fill:#4d4d4d;fill-opacity:1;stroke:#000000;stroke-width:0.0529167;stroke-linecap:round;stroke-linejoin:round" d="m 126.05787,201.80699 c -0.33582,0.0211 -0.64206,0.18882 -0.95265,0.29953 -0.0133,0.16167 -0.1071,0.32914 -0.098,0.48647 0.26754,0.0367 0.55044,0.028 0.81777,0.0955 0.17262,0.023 0.34183,0.10097 0.50023,0.14496 0.14698,-0.26929 0.27409,-0.61412 0.15116,-0.91423 -0.0908,-0.1338 -0.28013,-0.10017 -0.41852,-0.1122 z"/>
      <path style="fill:#4d4d4d;fill-opacity:1;stroke:#000000;stroke-width:0.0529167;stroke-linecap:round;stroke-linejoin:round" d="m 117.38741,199.22537 c -0.48566,0.0517 -0.78895,0.51382 -1.02035,0.89632 -0.10925,0.22433 -0.33978,0.50664 -0.14715,0.75125 0.18403,0.24795 0.33301,0.52403 0.45132,0.80435 0.47101,-0.19386 0.99269,-0.22128 1.47466,-0.36846 0.004,-0.33542 -0.0636,-0.74583 0.23028,-0.98725 0.0288,-0.137 -0.10101,-0.30112 -0.13765,-0.44793 -0.12647,-0.34735 -0.45831,-0.67324 -0.85111,-0.64828 z"/>
      <path style="fill:#4d4d4d;fill-opacity:1;stroke:#000000;stroke-width:0.0374176;stroke-linecap:round;stroke-linejoin:round" d="m 112.86521,201.49938 c -0.44055,-0.002 -0.90673,0.24849 -1.03712,0.69076 -0.12116,0.27421 -0.0402,0.58252 0.11139,0.82669 0.11656,0.20114 0.24131,0.40863 0.37881,0.58903 0.23066,-0.19782 0.43437,-0.42424 0.65289,-0.63361 0.35047,-0.24664 0.8035,-0.26431 1.20543,-0.35573 0.0159,-0.18271 -0.11579,-0.34802 -0.2065,-0.49709 -0.17527,-0.27441 -0.42634,-0.52305 -0.75763,-0.58447 -0.11365,-0.0264 -0.23064,-0.0379 -0.34727,-0.0356 z"/>
      <path style="fill:#4d4d4d;fill-opacity:1;stroke:#000000;stroke-width:0.0374176;stroke-linecap:round;stroke-linejoin:round" d="m 131.16391,205.0959 c -0.28454,0.0302 -0.53126,0.19737 -0.80756,0.26394 -0.0897,0.0447 -0.22327,0.0482 -0.28679,0.12696 0.16227,0.1362 0.34664,0.25924 0.50218,0.40914 0.30891,0.23588 0.46511,0.60898 0.56677,0.97329 0.0167,0.0414 -0.008,0.15735 0.0687,0.10437 0.27017,-0.17083 0.58775,-0.41248 0.57438,-0.76853 0.002,-0.31582 -0.0664,-0.63751 -0.20088,-0.92304 -0.0821,-0.14151 -0.26325,-0.19017 -0.41684,-0.18613 z"/>
      <rect style="fill:#800000;fill-opacity:1;stroke:#000000;stroke-width:0.264583;stroke-linecap:round;stroke-linejoin:round;stroke-dasharray:none" width="2.0000076" height="1" x="228.1026" y="63.63961" transform="rotate(45)"/>
      <rect style="fill:#800000;fill-opacity:1;stroke:#000000;stroke-width:0.264583;stroke-linecap:round;stroke-linejoin:round;stroke-dasharray:none" width="2.0000076" height="1" x="58.396965" y="233.34525" transform="matrix(-0.70710678,0.70710678,0.70710678,0.70710678,0,0)"/>
    </g></g></g></svg>