<svg xmlns="http://www.w3.org/2000/svg" xmlns:xlink="http://www.w3.org/1999/xlink" width="64" height="64" viewBox="0 0 64 64"><defs id="defs355716">
    <rect x="172" y="97" width="745" height="239" id="rect276290"/>
    <color-profile name="Agfa-:-Swop-Standard" xmlns:xlink="http://www.w3.org/1999/xlink" xlink:href="file:///C:/WINDOWS/system32/spool/drivers/color/RSWOP.icm" id="color-profile294613"/>
    <linearGradient xmlns:inkscape="http://www.inkscape.org/namespaces/inkscape" inkscape:collect="always" id="linearGradient140439">
      <stop style="stop-color:#a4a870;stop-opacity:1;" offset="0" id="stop140435"/>
      <stop style="stop-color:#a4a870;stop-opacity:0;" offset="1" id="stop140437"/>
    </linearGradient>
    <linearGradient xmlns:inkscape="http://www.inkscape.org/namespaces/inkscape" inkscape:collect="always" id="linearGradient140390">
      <stop style="stop-color:#359676;stop-opacity:1;" offset="0" id="stop140386"/>
      <stop style="stop-color:#4a6a5e;stop-opacity:0;" offset="1" id="stop140388"/>
    </linearGradient>
    <linearGradient xmlns:inkscape="http://www.inkscape.org/namespaces/inkscape" inkscape:collect="always" id="linearGradient139515">
      <stop style="stop-color:#dbd764;stop-opacity:1;" offset="0" id="stop139511"/>
      <stop style="stop-color:#dbd764;stop-opacity:0;" offset="0.56578946" id="stop139513"/>
    </linearGradient>
    <linearGradient xmlns:inkscape="http://www.inkscape.org/namespaces/inkscape" inkscape:collect="always" id="linearGradient139325">
      <stop style="stop-color:#161c16;stop-opacity:1;" offset="0" id="stop139321"/>
      <stop style="stop-color:#6e836c;stop-opacity:0;" offset="1" id="stop139323"/>
    </linearGradient>
    <linearGradient xmlns:inkscape="http://www.inkscape.org/namespaces/inkscape" inkscape:collect="always" id="linearGradient387614">
      <stop style="stop-color:#a4a870;stop-opacity:1;" offset="0" id="stop387610"/>
      <stop style="stop-color:#a4a870;stop-opacity:0;" offset="1" id="stop387612"/>
    </linearGradient>
    <linearGradient xmlns:inkscape="http://www.inkscape.org/namespaces/inkscape" inkscape:collect="always" id="linearGradient387421">
      <stop style="stop-color:#344533;stop-opacity:1;" offset="0" id="stop387417"/>
      <stop style="stop-color:#1d251d;stop-opacity:0;" offset="1" id="stop387419"/>
    </linearGradient>
    <linearGradient xmlns:inkscape="http://www.inkscape.org/namespaces/inkscape" inkscape:collect="always" xmlns:xlink="http://www.w3.org/1999/xlink" xlink:href="#linearGradient206680" id="linearGradient206682" x1="168.01042" y1="262.08701" x2="168.01042" y2="247.38542" gradientUnits="userSpaceOnUse"/>
    <linearGradient xmlns:inkscape="http://www.inkscape.org/namespaces/inkscape" inkscape:collect="always" id="linearGradient206680">
      <stop style="stop-color:#dbd764;stop-opacity:0;" offset="0.38377193" id="stop206678"/>
      <stop style="stop-color:#dbd764;stop-opacity:1;" offset="1" id="stop206676"/>
    </linearGradient>
    <linearGradient xmlns:inkscape="http://www.inkscape.org/namespaces/inkscape" inkscape:collect="always" xmlns:xlink="http://www.w3.org/1999/xlink" xlink:href="#linearGradient216292" id="linearGradient216294" x1="168.01042" y1="236.00833" x2="168.01042" y2="248.97292" gradientUnits="userSpaceOnUse" gradientTransform="translate(8.4073796,-0.78650088)"/>
    <linearGradient xmlns:inkscape="http://www.inkscape.org/namespaces/inkscape" inkscape:collect="always" id="linearGradient216292">
      <stop style="stop-color:#359676;stop-opacity:1;" offset="0" id="stop216288"/>
      <stop style="stop-color:#4a6a5f;stop-opacity:0;" offset="1" id="stop216290"/>
    </linearGradient>
    <linearGradient xmlns:inkscape="http://www.inkscape.org/namespaces/inkscape" inkscape:collect="always" xmlns:xlink="http://www.w3.org/1999/xlink" xlink:href="#linearGradient387421" id="linearGradient387423" x1="31.75" y1="155.31041" x2="31.921236" y2="171.18663" gradientUnits="userSpaceOnUse"/>
    <linearGradient xmlns:inkscape="http://www.inkscape.org/namespaces/inkscape" inkscape:collect="always" xmlns:xlink="http://www.w3.org/1999/xlink" xlink:href="#linearGradient387614" id="linearGradient387616" x1="45.011326" y1="158.73975" x2="51.59375" y2="162.71875" gradientUnits="userSpaceOnUse" gradientTransform="translate(2.9601329,-0.98671096)"/>
    <linearGradient xmlns:inkscape="http://www.inkscape.org/namespaces/inkscape" inkscape:collect="always" xmlns:xlink="http://www.w3.org/1999/xlink" xlink:href="#linearGradient387614" id="linearGradient387620" gradientUnits="userSpaceOnUse" x1="45.011326" y1="158.73975" x2="51.593746" y2="162.71875" gradientTransform="matrix(-1,0,0,1,108.79346,-0.98671096)"/>
    <linearGradient xmlns:inkscape="http://www.inkscape.org/namespaces/inkscape" inkscape:collect="always" xmlns:xlink="http://www.w3.org/1999/xlink" xlink:href="#linearGradient139325" id="linearGradient139327" x1="70" y1="21" x2="70" y2="37" gradientUnits="userSpaceOnUse"/>
    <linearGradient xmlns:inkscape="http://www.inkscape.org/namespaces/inkscape" inkscape:collect="always" xmlns:xlink="http://www.w3.org/1999/xlink" xlink:href="#linearGradient139515" id="linearGradient139517" x1="70.426315" y1="1.5429174" x2="70.46106" y2="18.249472" gradientUnits="userSpaceOnUse"/>
    <linearGradient xmlns:inkscape="http://www.inkscape.org/namespaces/inkscape" inkscape:collect="always" xmlns:xlink="http://www.w3.org/1999/xlink" xlink:href="#linearGradient140390" id="linearGradient140392" x1="90.084175" y1="1.3586814" x2="90" y2="16" gradientUnits="userSpaceOnUse"/>
    <linearGradient xmlns:inkscape="http://www.inkscape.org/namespaces/inkscape" inkscape:collect="always" xmlns:xlink="http://www.w3.org/1999/xlink" xlink:href="#linearGradient140439" id="linearGradient140441" x1="90.01368" y1="24.010059" x2="94.88681" y2="28.136377" gradientUnits="userSpaceOnUse"/>
    <linearGradient xmlns:inkscape="http://www.inkscape.org/namespaces/inkscape" inkscape:collect="always" xmlns:xlink="http://www.w3.org/1999/xlink" xlink:href="#linearGradient140439" id="linearGradient140449" gradientUnits="userSpaceOnUse" x1="90.01368" y1="24.010059" x2="94.88681" y2="28.136377" gradientTransform="matrix(-1,0,0,1,190,0)"/>
    <radialGradient xmlns:inkscape="http://www.inkscape.org/namespaces/inkscape" inkscape:collect="always" xmlns:xlink="http://www.w3.org/1999/xlink" xlink:href="#linearGradient177339" id="radialGradient177341-3-0" cx="44.135807" cy="121.46028" fx="44.135807" fy="121.46028" r="1.1079427" gradientTransform="matrix(1.5015971,0,0,0.99367432,-157.6034,-4.3351259)" gradientUnits="userSpaceOnUse"/>
    <linearGradient xmlns:inkscape="http://www.inkscape.org/namespaces/inkscape" inkscape:collect="always" id="linearGradient177339">
      <stop style="stop-color:#b98d3e;stop-opacity:1;" offset="0" id="stop177335"/>
      <stop style="stop-color:#c9c943;stop-opacity:0;" offset="1" id="stop177337"/>
    </linearGradient>
    <radialGradient xmlns:inkscape="http://www.inkscape.org/namespaces/inkscape" inkscape:collect="always" xmlns:xlink="http://www.w3.org/1999/xlink" xlink:href="#linearGradient177339" id="radialGradient177345-7-9" gradientUnits="userSpaceOnUse" gradientTransform="matrix(1.5015971,0,0,0.99367432,-195.50719,-68.761115)" cx="44.135807" cy="121.46028" fx="44.135807" fy="121.46028" r="1.1079427"/>
    <rect x="172" y="97" width="745" height="239" id="rect276290-2"/>
    <rect x="172" y="97" width="745" height="239" id="rect276290-2-5"/>
    <rect x="172" y="97" width="745" height="239" id="rect276290-2-5-7"/>
  </defs><g transform="translate(-515.6833882781823 -338.0618045163541) scale(2.580825185368543)"><g><g transform="translate(-52.787544,32.897104)">
      <g transform="rotate(7.3424011,294.53393,166.51864)">
        <g transform="matrix(-0.9025,0,0,0.9025,336.19184,-127.8221)" style="fill:#ececec;fill-opacity:1">
          <g style="fill:#ececec;fill-opacity:1" transform="matrix(0.5499883,-0.00358909,0.00358909,0.5499883,54.942691,217.19919)">
            <path style="fill:#ececec;fill-opacity:1;fill-rule:evenodd;stroke:#000000;stroke-width:0.264583px;stroke-linecap:butt;stroke-linejoin:miter;stroke-opacity:1" d="m 62.08354,95.343544 1.322916,1.32292 0.529167,1.32291 -0.529167,1.32292 0.529167,1.322916 -0.529166,1.32291"/>
            <path style="fill:#ececec;fill-opacity:1;fill-rule:evenodd;stroke:#000000;stroke-width:0.264583px;stroke-linecap:butt;stroke-linejoin:miter;stroke-opacity:1" d="m 59.437706,97.989374 2.629296,-2.64583"/>
            <path style="fill:#ececec;fill-opacity:1;fill-rule:evenodd;stroke:#000000;stroke-width:0.264583px;stroke-linecap:butt;stroke-linejoin:miter;stroke-opacity:1" d="m 60.760622,94.020624 2.645833,2.64583"/>
            <path style="fill:#ececec;fill-opacity:1;fill-rule:evenodd;stroke:#000000;stroke-width:0.264583px;stroke-linecap:butt;stroke-linejoin:miter;stroke-opacity:1" d="m 59.437705,95.343544 2.645833,-2.64584"/>
            <path style="fill:#ececec;fill-opacity:1;fill-rule:evenodd;stroke:#000000;stroke-width:0.264583px;stroke-linecap:butt;stroke-linejoin:miter;stroke-opacity:1" d="m 63.406455,94.020624 -2.645833,-2.64583"/>
            <path style="fill:#ececec;fill-opacity:1;fill-rule:evenodd;stroke:#000000;stroke-width:0.264583px;stroke-linecap:butt;stroke-linejoin:miter;stroke-opacity:1" d="m 59.437705,92.697704 2.645833,-2.645831"/>
            <path style="fill:none;fill-opacity:1;fill-rule:evenodd;stroke:#000000;stroke-width:0.264583px;stroke-linecap:butt;stroke-linejoin:miter;stroke-opacity:1" d="m 62.083539,90.051874 1.322916,1.32292 0.529167,1.32291 -0.529167,1.32292 0.529167,1.32292 -0.529166,1.32291"/>
            <path style="fill:#ececec;fill-opacity:1;fill-rule:evenodd;stroke:#000000;stroke-width:0.264583px;stroke-linecap:butt;stroke-linejoin:miter;stroke-opacity:1" d="m 59.437705,92.697704 -0.529166,1.32292 0.529166,1.37253 -0.529166,1.2733 0.529166,1.32292"/>
            <path style="fill:#ececec;fill-opacity:1;fill-rule:evenodd;stroke:#000000;stroke-width:0.264583px;stroke-linecap:butt;stroke-linejoin:miter;stroke-opacity:1" d="m 59.437707,103.28104 2.629296,-2.64583"/>
            <path style="fill:#ececec;fill-opacity:1;fill-rule:evenodd;stroke:#000000;stroke-width:0.264583px;stroke-linecap:butt;stroke-linejoin:miter;stroke-opacity:1" d="m 60.760623,99.312294 2.645833,2.645826"/>
            <path style="fill:#ececec;fill-opacity:1;fill-rule:evenodd;stroke:#000000;stroke-width:0.264583px;stroke-linecap:butt;stroke-linejoin:miter;stroke-opacity:1" d="m 59.437706,100.63521 2.645833,-2.645836"/>
            <path style="fill:#ececec;fill-opacity:1;fill-rule:evenodd;stroke:#000000;stroke-width:0.264583px;stroke-linecap:butt;stroke-linejoin:miter;stroke-opacity:1" d="m 63.406456,99.312294 -2.645833,-2.64583"/>
            <path style="fill:#ececec;fill-opacity:1;fill-rule:evenodd;stroke:#000000;stroke-width:0.264583px;stroke-linecap:butt;stroke-linejoin:miter;stroke-opacity:1" d="m 59.437706,97.989374 2.645833,-2.64583"/>
            <path style="fill:#ececec;fill-opacity:1;fill-rule:evenodd;stroke:#000000;stroke-width:0.264583px;stroke-linecap:butt;stroke-linejoin:miter;stroke-opacity:1" d="m 59.437706,97.989374 -0.529166,1.32292 0.529166,1.372526 -0.529166,1.2733 0.529166,1.32292"/>
            <path style="fill:#ececec;fill-opacity:1;fill-rule:evenodd;stroke:#000000;stroke-width:0.264583px;stroke-linecap:butt;stroke-linejoin:miter;stroke-opacity:1" d="m 59.437706,108.5727 2.629296,-2.64583"/>
            <path style="fill:#ececec;fill-opacity:1;fill-rule:evenodd;stroke:#000000;stroke-width:0.264583px;stroke-linecap:butt;stroke-linejoin:miter;stroke-opacity:1" d="m 60.760622,104.60395 2.645833,2.64583"/>
            <path style="fill:#ececec;fill-opacity:1;fill-rule:evenodd;stroke:#000000;stroke-width:0.264583px;stroke-linecap:butt;stroke-linejoin:miter;stroke-opacity:1" d="m 59.437705,105.92687 2.645833,-2.64584"/>
            <path style="fill:#ececec;fill-opacity:1;fill-rule:evenodd;stroke:#000000;stroke-width:0.264583px;stroke-linecap:butt;stroke-linejoin:miter;stroke-opacity:1" d="m 63.406455,104.60395 -2.645833,-2.64583"/>
            <path style="fill:#ececec;fill-opacity:1;fill-rule:evenodd;stroke:#000000;stroke-width:0.264583px;stroke-linecap:butt;stroke-linejoin:miter;stroke-opacity:1" d="m 59.437705,103.28103 2.645833,-2.64583"/>
            <path style="fill:none;fill-opacity:1;fill-rule:evenodd;stroke:#000000;stroke-width:0.264583px;stroke-linecap:butt;stroke-linejoin:miter;stroke-opacity:1" d="m 62.083539,100.6352 1.322916,1.32292 0.529167,1.32291 -0.529167,1.32292 0.529167,1.32292 -0.529166,1.32291"/>
            <path style="fill:#ececec;fill-opacity:1;fill-rule:evenodd;stroke:#000000;stroke-width:0.264583px;stroke-linecap:butt;stroke-linejoin:miter;stroke-opacity:1" d="m 59.437705,103.28103 -0.529166,1.32292 0.529166,1.37253 -0.529166,1.2733 0.529166,1.32292"/>
            <path style="fill:#ececec;fill-opacity:1;fill-rule:evenodd;stroke:#000000;stroke-width:0.264583px;stroke-linecap:butt;stroke-linejoin:miter;stroke-opacity:1" d="m 59.437707,113.86437 2.474793,2.5523"/>
            <path style="fill:#ececec;fill-opacity:1;fill-rule:evenodd;stroke:#000000;stroke-width:0.264583px;stroke-linecap:butt;stroke-linejoin:miter;stroke-opacity:1" d="m 61.9125,116.41667 2.116667,-2.64584 0.529166,-1.32291"/>
            <path style="fill:#ececec;fill-opacity:1;fill-rule:evenodd;stroke:#000000;stroke-width:0.264583px;stroke-linecap:butt;stroke-linejoin:miter;stroke-opacity:1" d="m 59.437706,111.21854 2.645833,-2.64584"/>
            <path style="fill:#ececec;fill-opacity:1;fill-rule:evenodd;stroke:#000000;stroke-width:0.264583px;stroke-linecap:butt;stroke-linejoin:miter;stroke-opacity:1" d="m 63.406456,109.89562 -2.645833,-2.64583"/>
            <path style="fill:#ececec;fill-opacity:1;fill-rule:evenodd;stroke:#000000;stroke-width:0.264583px;stroke-linecap:butt;stroke-linejoin:miter;stroke-opacity:1" d="m 59.437706,108.5727 2.645833,-2.64583"/>
            <path style="fill:#ececec;fill-opacity:1;fill-rule:evenodd;stroke:#000000;stroke-width:0.264583px;stroke-linecap:butt;stroke-linejoin:miter;stroke-opacity:1" d="m 62.08354,105.92687 1.322916,1.32292 0.529167,1.32291 -0.529167,1.32292 0.358127,1.49396 0.79375,1.05834"/>
            <path style="fill:#ececec;fill-opacity:1;fill-rule:evenodd;stroke:#000000;stroke-width:0.264583px;stroke-linecap:butt;stroke-linejoin:miter;stroke-opacity:1" d="m 59.437706,108.5727 -0.529166,1.32292 0.529166,1.37253 -0.529166,1.2733 0.529166,1.32292"/>
          </g>
          <path style="fill:#ececec;fill-opacity:1;stroke:#000000;stroke-width:0.0182188;stroke-linecap:round;stroke-linejoin:miter;stroke-dasharray:none;stroke-opacity:1" d="m 89.106574,266.92588 c -0.09958,0.10459 -0.20978,0.20485 -0.302901,0.31201 0.44022,0.42683 0.865456,0.87226 1.319937,1.28255 0.08737,-0.18337 0.15463,-0.37978 0.230314,-0.56892 -0.098,-0.22684 -0.178092,-0.46543 -0.286493,-0.68535 -0.219863,-0.21428 -0.435451,-0.43891 -0.657934,-0.6468 -0.100974,0.10219 -0.201947,0.20438 -0.302943,0.30652 z"/>
          <path style="fill:#ececec;fill-opacity:1;stroke:#000000;stroke-width:0.0182188;stroke-linecap:round;stroke-linejoin:miter;stroke-dasharray:none;stroke-opacity:1" d="m 88.685895,267.35174 c -0.219128,0.2303 -0.455656,0.44923 -0.66419,0.68646 -0.08579,0.22118 -0.174375,0.44185 -0.258449,0.66335 0.07916,0.18973 0.144,0.38731 0.236126,0.57073 0.444499,-0.42417 0.870154,-0.87446 1.305884,-1.31007 -0.199133,-0.2053 -0.411199,-0.41445 -0.619331,-0.61049 z"/>
          <path style="fill:#ececec;fill-opacity:1;stroke:#000000;stroke-width:0.0182188;stroke-linecap:round;stroke-linejoin:miter;stroke-dasharray:none;stroke-opacity:1" d="m 89.11607,268.38106 c -0.09958,0.10458 -0.20978,0.20484 -0.302901,0.312 0.44022,0.42683 0.865456,0.87227 1.319938,1.28256 0.08737,-0.18337 0.154629,-0.37978 0.230313,-0.56893 -0.09799,-0.22684 -0.178087,-0.46542 -0.286493,-0.68534 -0.219862,-0.21428 -0.435451,-0.43891 -0.657934,-0.6468 -0.100973,0.10219 -0.201947,0.20438 -0.302943,0.30652 z"/>
          <path style="fill:#ececec;fill-opacity:1;stroke:#000000;stroke-width:0.0182188;stroke-linecap:round;stroke-linejoin:miter;stroke-dasharray:none;stroke-opacity:1" d="m 88.378335,269.12849 c -0.125711,0.15175 -0.319573,0.25849 -0.373707,0.45759 -0.07664,0.18937 -0.156163,0.37817 -0.230969,0.56791 0.07784,0.1813 0.144362,0.37101 0.228488,0.54776 0.102514,-0.0331 0.167796,-0.14584 0.251527,-0.21165 0.354258,-0.35781 0.714854,-0.71533 1.060825,-1.0776 -0.206649,-0.20055 -0.409035,-0.41155 -0.618298,-0.60563 -0.105965,0.10717 -0.211895,0.21441 -0.317846,0.32161 z"/>
          <path style="fill:#ececec;fill-opacity:1;stroke:#000000;stroke-width:0.0182188;stroke-linecap:round;stroke-linejoin:miter;stroke-dasharray:none;stroke-opacity:1" d="m 89.125566,269.83624 c -0.09958,0.10458 -0.20978,0.20484 -0.3029,0.312 0.440219,0.42683 0.865456,0.87226 1.319937,1.28256 0.08737,-0.18337 0.154634,-0.37977 0.230313,-0.56893 -0.09799,-0.22684 -0.178087,-0.46542 -0.286493,-0.68534 -0.219862,-0.21428 -0.435451,-0.43892 -0.657933,-0.64681 -0.100974,0.1022 -0.201948,0.20439 -0.302944,0.30653 z"/>
          <path style="fill:#ececec;fill-opacity:1;stroke:#000000;stroke-width:0.0182188;stroke-linecap:round;stroke-linejoin:miter;stroke-dasharray:none;stroke-opacity:1" d="m 88.704887,270.26209 c -0.219127,0.23031 -0.455656,0.44924 -0.66419,0.68646 -0.0858,0.22119 -0.174374,0.44185 -0.258449,0.66335 0.07916,0.18973 0.144,0.38732 0.236126,0.57073 0.4445,-0.42416 0.870144,-0.87445 1.305884,-1.31006 -0.199132,-0.20531 -0.411199,-0.41445 -0.619331,-0.6105 z"/>
          <path style="fill:#ececec;fill-opacity:1;stroke:#000000;stroke-width:0.0182188;stroke-linecap:round;stroke-linejoin:miter;stroke-dasharray:none;stroke-opacity:1" d="m 89.135067,271.29143 c -0.09958,0.10458 -0.209824,0.20474 -0.302905,0.31199 0.44022,0.42683 0.865446,0.87226 1.319937,1.28255 0.08737,-0.18337 0.154634,-0.37977 0.230314,-0.56892 -0.09799,-0.22684 -0.178088,-0.46542 -0.286493,-0.68534 -0.219863,-0.21429 -0.435452,-0.43892 -0.657934,-0.64681 -0.100974,0.10219 -0.201948,0.20438 -0.302939,0.30653 z"/>
          <path style="fill:#ececec;fill-opacity:1;stroke:#000000;stroke-width:0.0182188;stroke-linecap:round;stroke-linejoin:miter;stroke-dasharray:none;stroke-opacity:1" d="m 88.397327,272.03884 c -0.125711,0.15176 -0.319573,0.25849 -0.373706,0.4576 -0.07664,0.18936 -0.156164,0.37816 -0.23097,0.5679 0.07784,0.18132 0.144362,0.37101 0.228489,0.54777 0.102513,-0.0331 0.167796,-0.14584 0.251517,-0.21165 0.354263,-0.35783 0.714859,-0.71535 1.06083,-1.07762 -0.206649,-0.20054 -0.409031,-0.41153 -0.618298,-0.60563 -0.105965,0.10717 -0.211895,0.21442 -0.317846,0.32161 z"/>
          <path style="fill:#ececec;fill-opacity:1;stroke:#000000;stroke-width:0.0182188;stroke-linecap:round;stroke-linejoin:miter;stroke-dasharray:none;stroke-opacity:1" d="m 89.144563,272.7466 c -0.09958,0.10458 -0.209824,0.20474 -0.302905,0.31199 0.44022,0.42683 0.865446,0.87227 1.319937,1.28256 0.08737,-0.18337 0.154634,-0.37977 0.230314,-0.56893 -0.09799,-0.22684 -0.178088,-0.46541 -0.286493,-0.68534 -0.219863,-0.21428 -0.435451,-0.43891 -0.657934,-0.6468 -0.100974,0.10219 -0.201947,0.20438 -0.302939,0.30653 z"/>
          <path style="fill:#ececec;fill-opacity:1;stroke:#000000;stroke-width:0.0182188;stroke-linecap:round;stroke-linejoin:miter;stroke-dasharray:none;stroke-opacity:1" d="m 88.72388,273.17245 c -0.219127,0.2303 -0.455656,0.44923 -0.66419,0.68646 -0.0858,0.22118 -0.174374,0.44184 -0.258449,0.66334 0.07916,0.18973 0.144,0.38732 0.236126,0.57073 0.4445,-0.42416 0.870144,-0.87445 1.305884,-1.31006 -0.199133,-0.20531 -0.411199,-0.41445 -0.619331,-0.61049 z"/>
          <path style="fill:#ececec;fill-opacity:1;stroke:#000000;stroke-width:0.0182188;stroke-linecap:round;stroke-linejoin:miter;stroke-dasharray:none;stroke-opacity:1" d="m 89.15406,274.20178 c -0.09958,0.10458 -0.20978,0.20484 -0.302906,0.31199 0.44022,0.42683 0.865446,0.87227 1.319938,1.28256 0.08737,-0.18337 0.154634,-0.37977 0.230313,-0.56893 -0.09799,-0.22684 -0.178087,-0.46542 -0.286493,-0.68534 -0.219862,-0.21428 -0.435451,-0.43891 -0.657933,-0.64681 -0.100974,0.1022 -0.201948,0.20439 -0.30294,0.30654 z"/>
          <path style="fill:#ececec;fill-opacity:1;stroke:#000000;stroke-width:0.0182188;stroke-linecap:round;stroke-linejoin:miter;stroke-dasharray:none;stroke-opacity:1" d="m 88.416324,274.94921 c -0.125711,0.15175 -0.319583,0.25849 -0.37371,0.45758 -0.07664,0.18937 -0.156164,0.37816 -0.23097,0.56791 0.07784,0.18131 0.144362,0.37101 0.228488,0.54776 0.102514,-0.0331 0.167796,-0.14584 0.251517,-0.21164 0.354263,-0.35783 0.714859,-0.71535 1.060831,-1.07762 -0.20665,-0.20055 -0.409031,-0.41154 -0.618309,-0.60563 -0.105955,0.10716 -0.211884,0.21441 -0.317831,0.32162 z"/>
          <path style="fill:#ececec;fill-opacity:1;stroke:#000000;stroke-width:0.0182188;stroke-linecap:round;stroke-linejoin:miter;stroke-dasharray:none;stroke-opacity:1" d="m 89.163556,275.65696 c -0.09959,0.10458 -0.20978,0.20484 -0.302905,0.31199 0.44022,0.42683 0.865446,0.87226 1.319937,1.28255 0.08737,-0.18337 0.154634,-0.37977 0.230313,-0.56892 -0.09799,-0.22684 -0.178087,-0.46542 -0.286493,-0.68534 -0.219862,-0.21429 -0.435451,-0.43892 -0.657933,-0.64681 -0.100974,0.10219 -0.201948,0.20438 -0.302939,0.30654 z"/>
          <path style="fill:#ececec;fill-opacity:1;stroke:#000000;stroke-width:0.0182188;stroke-linecap:round;stroke-linejoin:miter;stroke-dasharray:none;stroke-opacity:1" d="m 88.742872,276.0828 c -0.219127,0.23031 -0.455655,0.44924 -0.664185,0.68647 -0.08564,0.22079 -0.174037,0.44106 -0.257999,0.66216 0.0403,0.0992 0.07418,0.2032 0.117456,0.2999 0.134309,-0.001 0.269226,5e-5 0.403153,-0.003 0.338991,-0.34724 0.688305,-0.6903 1.020802,-1.0402 -0.206916,-0.20034 -0.409718,-0.41119 -0.619265,-0.60499 z"/>
          <path style="fill:#ececec;fill-opacity:1;stroke:#000000;stroke-width:0.0182188;stroke-linecap:round;stroke-linejoin:miter;stroke-dasharray:none;stroke-opacity:1" d="m 89.023859,277.26329 c -0.146884,0.15523 -0.314891,0.30651 -0.44875,0.46429 0.541861,-0.007 1.089743,-9e-4 1.627846,-0.0153 -0.03409,-0.12051 -0.02721,-0.26396 -0.147764,-0.33657 -0.193944,-0.18869 -0.38361,-0.38775 -0.5802,-0.57002 -0.150493,0.15261 -0.301018,0.30516 -0.451525,0.45775 z"/>
          <path style="fill:#ececec;fill-opacity:1;stroke:#000000;stroke-width:0.0182188;stroke-linecap:round;stroke-linejoin:miter;stroke-dasharray:none;stroke-opacity:1" d="m 89.23902,278.46579 c -0.414231,0.006 -0.830401,0.005 -1.243426,0.0151 -0.05473,0.13454 -0.112408,0.26838 -0.165319,0.40322 0.09981,0.23094 0.183249,0.47274 0.293621,0.69683 0.427408,0.42772 0.839033,0.87303 1.282102,1.2841 0.378985,-0.44428 0.731751,-0.91582 1.097886,-1.37263 0.08585,-0.22387 0.176884,-0.44716 0.259526,-0.6714 -0.09513,-0.12227 -0.187616,-0.24778 -0.28443,-0.36803 -0.41331,0.004 -0.826614,0.008 -1.23992,0.0128 z"/>
        </g>
        <rect style="fill:#ffff00;fill-opacity:1;stroke:#000000;stroke-width:0.131539;stroke-linecap:round;stroke-linejoin:miter;stroke-dasharray:none;stroke-opacity:1" width="2.4953187" height="0.52533019" x="-257.75784" y="121.22546" transform="matrix(-0.99997871,-0.00652562,-0.00652562,0.99997871,0,0)"/>
      </g>
      <path style="fill:#f8d6cc;fill-opacity:1;stroke:#000000;stroke-width:0.6096;stroke-linecap:butt;stroke-linejoin:miter;stroke-miterlimit:4;stroke-dasharray:none;stroke-opacity:1" d="m 265.00504,100.79601 c -4.67522,-0.899258 -7.04427,4.41241 -6.09847,8.78339 0.78587,3.63188 4.79397,7.38567 8.50415,5.20545 3.55972,-2.17149 4.70372,-7.11729 3.52117,-10.9194 -0.99425,-2.32506 -3.51813,-3.3652 -5.92685,-3.06944 z"/>
      <path d="m 264.46178,110.88393 c 0.13543,0.52501 -0.0919,0.58922 0.55406,0.60889 0.82502,0.0251 0.40069,0.072 0.55405,-0.61836" style="fill:none;stroke:#000000;stroke-width:0.3048;stroke-linecap:butt;stroke-linejoin:miter;stroke-miterlimit:4;stroke-dasharray:none;stroke-opacity:1"/>
      <g transform="translate(180.09834,48.471286)">
        <path d="M 83.535344,60.168131 83.174542,59.65004 c -0.544096,-0.35522 -1.134388,-0.448502 -1.765317,-0.311273" style="fill:none;stroke:#000000;stroke-width:0.447573px;stroke-linecap:butt;stroke-linejoin:miter;stroke-opacity:1"/>
        <path d="m 83.099157,59.655024 c 0.04428,0.111654 0.17989,0.331932 0.157499,0.458918 -0.06438,0.365122 -0.533302,0.513619 -0.89845,0.449233 -0.365165,-0.06439 -0.819004,-0.481385 -0.754623,-0.846506 0.023,-0.130426 0.292303,-0.176654 0.375533,-0.267589 0.153547,-0.131681 0.453162,-0.13024 1.120094,0.205645 z" style="fill:#ffffff;stroke:#000000;stroke-width:0.223786;stroke-miterlimit:4;stroke-dashoffset:0;stroke-opacity:1"/>
        <circle r="0.2237865" cy="44.692066" cx="91.592827" style="fill:#b3b3b3;fill-opacity:1;fill-rule:nonzero;stroke:#000000;stroke-width:0.223786;stroke-miterlimit:4;stroke-dasharray:none;stroke-dashoffset:0;stroke-opacity:1" transform="rotate(10)"/>
      </g>
      <path style="fill:#ececec;fill-opacity:1;stroke:#000000;stroke-width:0.67056px;stroke-linecap:butt;stroke-linejoin:miter;stroke-opacity:1" d="m 263.5033,99.64353 c -4.52868,0.05811 -6.24734,3.04011 -5.97483,6.90035 0.0206,0.29166 0.94095,0.58856 0.98392,0.88936 4.02334,-0.67056 4.81105,-1.67637 6.48746,-3.35277 1.50472,1.73041 2.55764,2.68221 6.58099,3.35277 0.0476,-0.33354 0.877,-0.66174 0.8971,-0.98392 0.26252,-4.21187 -1.87191,-7.35066 -7.47809,-6.727758 -0.52953,-0.05884 -1.02807,-0.08404 -1.49655,-0.07803 z"/>
      <g transform="matrix(-1,0,0,1,349.85621,48.471286)">
        <path d="M 83.535344,60.168131 83.174542,59.65004 c -0.544096,-0.35522 -1.134388,-0.448502 -1.765317,-0.311273" style="fill:none;stroke:#000000;stroke-width:0.447573px;stroke-linecap:butt;stroke-linejoin:miter;stroke-opacity:1"/>
        <path d="m 83.099157,59.655024 c 0.04428,0.111654 0.17989,0.331932 0.157499,0.458918 -0.06438,0.365122 -0.533302,0.513619 -0.89845,0.449233 -0.365165,-0.06439 -0.819004,-0.481385 -0.754623,-0.846506 0.023,-0.130426 0.292303,-0.176654 0.375533,-0.267589 0.153547,-0.131681 0.453162,-0.13024 1.120094,0.205645 z" style="fill:#ffffff;stroke:#000000;stroke-width:0.223786;stroke-miterlimit:4;stroke-dashoffset:0;stroke-opacity:1"/>
        <circle r="0.2237865" cy="44.692066" cx="91.592827" style="fill:#e6e6e6;fill-opacity:1;fill-rule:nonzero;stroke:#000000;stroke-width:0.223786;stroke-miterlimit:4;stroke-dasharray:none;stroke-dashoffset:0;stroke-opacity:1" transform="rotate(10)"/>
      </g>
      <path style="fill:none;fill-rule:evenodd;stroke:#ffffff;stroke-width:1.05833;stroke-linecap:butt;stroke-linejoin:miter;stroke-dasharray:none;stroke-opacity:1" d="m 259.84282,102.68648 c 0.45557,-1.05287 2.01459,-1.70978 2.87675,-1.75782"/>
      <path style="fill:#ffff00;fill-rule:evenodd;stroke:#000000;stroke-width:0.132292;stroke-linecap:butt;stroke-linejoin:miter;stroke-dasharray:none;stroke-opacity:1" d="m 264.94662,101.82479 -0.91054,0.91106 c -0.0765,-0.001 -0.15293,-0.001 -0.22944,-0.003 -1.95935,-0.0342 -3.9129,-0.22462 -5.84616,-0.54054 -0.0772,0.0249 -0.0511,0.13769 -0.0698,0.20051 -0.0199,0.0652 0.0355,0.12517 0.10232,0.11007 0.0734,-0.0107 -0.0134,0.0416 -0.0305,0.0599 -0.10548,0.0955 -0.24429,0.16114 -0.33176,0.27285 0.0102,0.0409 0.0326,0.0802 0.0103,0.12713 -1.1e-4,0.0581 -0.0657,0.16928 0.0212,0.18965 2.08695,0.40202 4.2115,0.58863 6.33501,0.63304 1.13071,-0.004 2.26217,0.006 3.39101,-0.0698 1.67367,-0.0943 3.34312,-0.27584 4.99711,-0.54777 0.0731,-0.0454 0.007,-0.15161 0.0119,-0.21859 0.0371,-0.10124 -0.11225,-0.0482 -0.0667,-0.1018 -0.0209,-0.0762 -0.12132,-0.10602 -0.17363,-0.16226 -0.0599,-0.0522 -0.15431,-0.10457 -0.19585,-0.1602 0.0851,-0.0288 0.20528,0.0101 0.2682,-0.0651 0.0135,-0.0833 -1.1e-4,-0.17834 -0.0331,-0.2558 -0.009,-0.0104 -0.0229,-0.0153 -0.0367,-0.0145 h -5.2e-4 c -0.3901,0.0637 -0.78697,0.10244 -1.17874,0.1602 -1.70148,0.20691 -3.41287,0.3428 -5.12682,0.3824 z m -6.45077,0.76326 0.016,0.002 0.0114,10e-4 c 0.1455,0.0183 0.29145,0.0378 0.43408,0.0651 -0.0991,0.07 -0.20602,0.16334 -0.30851,0.2098 -0.0528,-0.0914 -0.10029,-0.18632 -0.15296,-0.27802 z m 12.96768,0.005 c -0.0217,0.041 -0.0438,0.0819 -0.0656,0.12299 -0.0278,0.0515 -0.0555,0.10327 -0.0873,0.15245 -0.10895,-0.0662 -0.21041,-0.14346 -0.31471,-0.21653 0.15587,-0.0194 0.31194,-0.0383 0.46767,-0.0589 z m 0.26562,0.14935 0.0114,0.007 c 0.0793,0.0551 0.15706,0.11422 0.23254,0.1757 -0.12067,0.0242 -0.24633,0.0408 -0.37,0.0558 0.0399,-0.0814 0.081,-0.16096 0.12609,-0.23874 z m -1.49138,0.002 -0.007,0.006 c -0.13909,0.10551 -0.27672,0.22276 -0.42788,0.30902 -0.19156,-0.0642 -0.38375,-0.1417 -0.56999,-0.21342 0.33422,-0.0374 0.66952,-0.0714 1.00459,-0.1018 z m -12.00495,0.003 c 0.0407,0.0707 0.10296,0.16144 0.12195,0.22531 -0.10876,-0.0214 -0.25165,-0.0339 -0.33693,-0.0651 0.0666,-0.0554 0.14418,-0.12625 0.21498,-0.16019 z m 1.5043,0.005 0.007,5.2e-4 c 0.31613,0.0394 0.63286,0.0707 0.94929,0.10697 -0.18109,0.0661 -0.36361,0.15259 -0.54777,0.19637 -0.14176,-0.0932 -0.27671,-0.19683 -0.40824,-0.30386 z m 10.93163,0.0574 c 0.13647,0.0625 0.24959,0.16909 0.37569,0.25011 -0.28586,0.0402 -0.57261,0.0724 -0.85886,0.10955 0.16028,-0.12092 0.31733,-0.24851 0.48317,-0.35966 z m -11.37863,0.003 0.007,0.004 c 0.17241,0.11637 0.33821,0.24132 0.5023,0.36897 -0.2933,-0.042 -0.58804,-0.0779 -0.88005,-0.12712 0.1201,-0.0872 0.24218,-0.17219 0.37104,-0.24598 z m 9.02063,0.10645 c -0.0711,0.057 -0.14233,0.11403 -0.21342,0.17105 -0.0934,0.0738 -0.18573,0.14948 -0.2837,0.21704 -0.25025,-0.0973 -0.49675,-0.20445 -0.74466,-0.30747 0.41346,-0.0288 0.82832,-0.0491 1.24178,-0.0806 z m -6.62853,0.0217 c 0.0177,0.001 0.0351,0.002 0.0527,0.004 0.37387,0.0287 0.74985,0.0447 1.12344,0.0692 -0.23799,0.0985 -0.4789,0.21123 -0.71933,0.28991 -0.15581,-0.11608 -0.3069,-0.23872 -0.45682,-0.36277 z m 7.04298,0.0408 c 0.11739,0.0441 0.23504,0.0882 0.35243,0.13229 0.11803,0.0446 0.23617,0.0887 0.35295,0.13539 -0.38968,0.0415 -0.78176,0.0734 -1.17305,0.10594 0.15451,-0.1265 0.31143,-0.24925 0.46767,-0.37362 z m -7.4812,0.008 0.0129,0.01 0.005,0.004 c 0.1592,0.12073 0.31347,0.2476 0.46974,0.37207 -0.41225,-0.0218 -0.82268,-0.0655 -1.23249,-0.11421 0.24617,-0.0958 0.49353,-0.19009 0.74466,-0.2713 z m 5.27203,0.0326 c -0.009,0.008 -0.0171,0.0162 -0.0258,0.0243 -0.14208,0.12791 -0.28483,0.25559 -0.43408,0.37517 -0.22794,-0.11876 -0.4523,-0.24499 -0.67799,-0.36794 0.37925,-0.0131 0.7585,-0.0246 1.13791,-0.0315 z m -3.04477,0.014 c 0.02,1.5e-4 0.0404,2.5e-4 0.0605,5.2e-4 0.34991,0.004 0.69967,0.012 1.04955,0.0186 -0.2271,0.12031 -0.45418,0.25518 -0.68213,0.36484 -0.14838,-0.1212 -0.28962,-0.25141 -0.42788,-0.38396 z m 1.50998,0.14676 c 0.0999,0.0546 0.19987,0.10871 0.29973,0.1633 0.0465,0.0388 0.25708,0.11399 0.19998,0.13022 -0.34938,0.0135 -0.70447,0.014 -1.05626,0.0134 0.18428,-0.10477 0.37081,-0.20478 0.55655,-0.30696 z m 1.79214,0.0243 c 0.0959,0.0398 0.19201,0.0796 0.28784,0.11937 0.0711,0.0305 0.14335,0.0579 0.21291,0.092 -0.26205,0.0182 -0.52588,0.0214 -0.78859,0.0403 0.0955,-0.0844 0.19169,-0.1681 0.28784,-0.25166 z m -3.58376,0.01 c 0.10667,0.0796 0.20755,0.16688 0.30696,0.25528 -0.283,-0.0133 -0.56561,-0.0177 -0.84801,-0.0403 0.1799,-0.0719 0.35837,-0.15295 0.54105,-0.21497 z"/>
      <path style="fill:none;fill-rule:evenodd;stroke:#000000;stroke-width:0.264583px;stroke-linecap:butt;stroke-linejoin:miter;stroke-opacity:1" d="m 263,112.47083 c 0,0 1,0.52917 2.05787,0.52917 C 266,113 267,112.47083 267,112.47083"/>
    </g></g></g></svg>