<svg xmlns="http://www.w3.org/2000/svg" xmlns:xlink="http://www.w3.org/1999/xlink" width="64" height="64" viewBox="0 0 64 64"><defs id="defs355716">
    <rect x="172" y="97" width="745" height="239" id="rect276290"/>
    <color-profile name="Agfa-:-Swop-Standard" xmlns:xlink="http://www.w3.org/1999/xlink" xlink:href="file:///C:/WINDOWS/system32/spool/drivers/color/RSWOP.icm" id="color-profile294613"/>
    <linearGradient xmlns:inkscape="http://www.inkscape.org/namespaces/inkscape" inkscape:collect="always" id="linearGradient140439">
      <stop style="stop-color:#a4a870;stop-opacity:1;" offset="0" id="stop140435"/>
      <stop style="stop-color:#a4a870;stop-opacity:0;" offset="1" id="stop140437"/>
    </linearGradient>
    <linearGradient xmlns:inkscape="http://www.inkscape.org/namespaces/inkscape" inkscape:collect="always" id="linearGradient140390">
      <stop style="stop-color:#359676;stop-opacity:1;" offset="0" id="stop140386"/>
      <stop style="stop-color:#4a6a5e;stop-opacity:0;" offset="1" id="stop140388"/>
    </linearGradient>
    <linearGradient xmlns:inkscape="http://www.inkscape.org/namespaces/inkscape" inkscape:collect="always" id="linearGradient139515">
      <stop style="stop-color:#dbd764;stop-opacity:1;" offset="0" id="stop139511"/>
      <stop style="stop-color:#dbd764;stop-opacity:0;" offset="0.56578946" id="stop139513"/>
    </linearGradient>
    <linearGradient xmlns:inkscape="http://www.inkscape.org/namespaces/inkscape" inkscape:collect="always" id="linearGradient139325">
      <stop style="stop-color:#161c16;stop-opacity:1;" offset="0" id="stop139321"/>
      <stop style="stop-color:#6e836c;stop-opacity:0;" offset="1" id="stop139323"/>
    </linearGradient>
    <linearGradient xmlns:inkscape="http://www.inkscape.org/namespaces/inkscape" inkscape:collect="always" id="linearGradient387614">
      <stop style="stop-color:#a4a870;stop-opacity:1;" offset="0" id="stop387610"/>
      <stop style="stop-color:#a4a870;stop-opacity:0;" offset="1" id="stop387612"/>
    </linearGradient>
    <linearGradient xmlns:inkscape="http://www.inkscape.org/namespaces/inkscape" inkscape:collect="always" id="linearGradient387421">
      <stop style="stop-color:#344533;stop-opacity:1;" offset="0" id="stop387417"/>
      <stop style="stop-color:#1d251d;stop-opacity:0;" offset="1" id="stop387419"/>
    </linearGradient>
    <linearGradient xmlns:inkscape="http://www.inkscape.org/namespaces/inkscape" inkscape:collect="always" xmlns:xlink="http://www.w3.org/1999/xlink" xlink:href="#linearGradient206680" id="linearGradient206682" x1="168.01042" y1="262.08701" x2="168.01042" y2="247.38542" gradientUnits="userSpaceOnUse"/>
    <linearGradient xmlns:inkscape="http://www.inkscape.org/namespaces/inkscape" inkscape:collect="always" id="linearGradient206680">
      <stop style="stop-color:#dbd764;stop-opacity:0;" offset="0.38377193" id="stop206678"/>
      <stop style="stop-color:#dbd764;stop-opacity:1;" offset="1" id="stop206676"/>
    </linearGradient>
    <linearGradient xmlns:inkscape="http://www.inkscape.org/namespaces/inkscape" inkscape:collect="always" xmlns:xlink="http://www.w3.org/1999/xlink" xlink:href="#linearGradient216292" id="linearGradient216294" x1="168.01042" y1="236.00833" x2="168.01042" y2="248.97292" gradientUnits="userSpaceOnUse" gradientTransform="translate(8.4073796,-0.78650088)"/>
    <linearGradient xmlns:inkscape="http://www.inkscape.org/namespaces/inkscape" inkscape:collect="always" id="linearGradient216292">
      <stop style="stop-color:#359676;stop-opacity:1;" offset="0" id="stop216288"/>
      <stop style="stop-color:#4a6a5f;stop-opacity:0;" offset="1" id="stop216290"/>
    </linearGradient>
    <linearGradient xmlns:inkscape="http://www.inkscape.org/namespaces/inkscape" inkscape:collect="always" xmlns:xlink="http://www.w3.org/1999/xlink" xlink:href="#linearGradient387421" id="linearGradient387423" x1="31.75" y1="155.31041" x2="31.921236" y2="171.18663" gradientUnits="userSpaceOnUse"/>
    <linearGradient xmlns:inkscape="http://www.inkscape.org/namespaces/inkscape" inkscape:collect="always" xmlns:xlink="http://www.w3.org/1999/xlink" xlink:href="#linearGradient387614" id="linearGradient387616" x1="45.011326" y1="158.73975" x2="51.59375" y2="162.71875" gradientUnits="userSpaceOnUse" gradientTransform="translate(2.9601329,-0.98671096)"/>
    <linearGradient xmlns:inkscape="http://www.inkscape.org/namespaces/inkscape" inkscape:collect="always" xmlns:xlink="http://www.w3.org/1999/xlink" xlink:href="#linearGradient387614" id="linearGradient387620" gradientUnits="userSpaceOnUse" x1="45.011326" y1="158.73975" x2="51.593746" y2="162.71875" gradientTransform="matrix(-1,0,0,1,108.79346,-0.98671096)"/>
    <linearGradient xmlns:inkscape="http://www.inkscape.org/namespaces/inkscape" inkscape:collect="always" xmlns:xlink="http://www.w3.org/1999/xlink" xlink:href="#linearGradient139325" id="linearGradient139327" x1="70" y1="21" x2="70" y2="37" gradientUnits="userSpaceOnUse"/>
    <linearGradient xmlns:inkscape="http://www.inkscape.org/namespaces/inkscape" inkscape:collect="always" xmlns:xlink="http://www.w3.org/1999/xlink" xlink:href="#linearGradient139515" id="linearGradient139517" x1="70.426315" y1="1.5429174" x2="70.46106" y2="18.249472" gradientUnits="userSpaceOnUse"/>
    <linearGradient xmlns:inkscape="http://www.inkscape.org/namespaces/inkscape" inkscape:collect="always" xmlns:xlink="http://www.w3.org/1999/xlink" xlink:href="#linearGradient140390" id="linearGradient140392" x1="90.084175" y1="1.3586814" x2="90" y2="16" gradientUnits="userSpaceOnUse"/>
    <linearGradient xmlns:inkscape="http://www.inkscape.org/namespaces/inkscape" inkscape:collect="always" xmlns:xlink="http://www.w3.org/1999/xlink" xlink:href="#linearGradient140439" id="linearGradient140441" x1="90.01368" y1="24.010059" x2="94.88681" y2="28.136377" gradientUnits="userSpaceOnUse"/>
    <linearGradient xmlns:inkscape="http://www.inkscape.org/namespaces/inkscape" inkscape:collect="always" xmlns:xlink="http://www.w3.org/1999/xlink" xlink:href="#linearGradient140439" id="linearGradient140449" gradientUnits="userSpaceOnUse" x1="90.01368" y1="24.010059" x2="94.88681" y2="28.136377" gradientTransform="matrix(-1,0,0,1,190,0)"/>
    <radialGradient xmlns:inkscape="http://www.inkscape.org/namespaces/inkscape" inkscape:collect="always" xmlns:xlink="http://www.w3.org/1999/xlink" xlink:href="#linearGradient177339" id="radialGradient177341-3-0" cx="44.135807" cy="121.46028" fx="44.135807" fy="121.46028" r="1.1079427" gradientTransform="matrix(1.5015971,0,0,0.99367432,-157.6034,-4.3351259)" gradientUnits="userSpaceOnUse"/>
    <linearGradient xmlns:inkscape="http://www.inkscape.org/namespaces/inkscape" inkscape:collect="always" id="linearGradient177339">
      <stop style="stop-color:#b98d3e;stop-opacity:1;" offset="0" id="stop177335"/>
      <stop style="stop-color:#c9c943;stop-opacity:0;" offset="1" id="stop177337"/>
    </linearGradient>
    <radialGradient xmlns:inkscape="http://www.inkscape.org/namespaces/inkscape" inkscape:collect="always" xmlns:xlink="http://www.w3.org/1999/xlink" xlink:href="#linearGradient177339" id="radialGradient177345-7-9" gradientUnits="userSpaceOnUse" gradientTransform="matrix(1.5015971,0,0,0.99367432,-195.50719,-68.761115)" cx="44.135807" cy="121.46028" fx="44.135807" fy="121.46028" r="1.1079427"/>
    <rect x="172" y="97" width="745" height="239" id="rect276290-2"/>
    <rect x="172" y="97" width="745" height="239" id="rect276290-2-5"/>
    <rect x="172" y="97" width="745" height="239" id="rect276290-2-5-7"/>
  </defs><g transform="translate(212.8768643825852 -541.1756103930016) scale(2.29271251696881)"><g><g transform="matrix(0.81,0,0,0.81,-144.04309,30.005956)">
      <path style="fill:#000000;fill-rule:evenodd;stroke:#000000;stroke-width:0.264583px;stroke-linecap:butt;stroke-linejoin:miter;stroke-opacity:1" d="m 83.498182,258.91841 c 1.8583,-0.25904 1.29822,2.42946 3.10885,1.91823 0.68272,-0.1484 1.38042,-0.1483 2.08244,-0.13229 0.5625,7.7e-4 1.12637,-10e-4 1.68787,0 0.57199,0.28071 -0.67431,0.66325 -0.7375,1.07848 0.77029,0.46324 1.82962,0.25361 2.69077,0.57053 0.43445,0.30328 1.37772,0.66053 1.61855,0.79791 -0.92862,0.17169 -1.89166,0.35395 -2.81076,0.56375 -0.3839,0.11481 -2.2043,0.32549 -1.02569,0.6267 0.69127,0.2658 1.50536,0.34466 2.05052,0.46297 0.85518,0.13924 1.40292,0.51699 1.94487,0.8073 0.6291,0.0698 0.37746,0.31701 -0.13598,0.30667 0.38695,-0.25099 -0.99433,0.35087 -1.34586,0.40715 -0.3364,0.12711 -1.2778,0.58647 -1.2229,0.47636 0.45691,-0.14663 -0.99705,0.32032 -0.16543,0.38153 0.757,0.34549 1.71067,0.0466 2.38053,0.53107 0.46328,0.20684 1.60041,0.68234 0.42389,0.5214 -0.65963,0.0339 -1.3053,0.44428 -1.85903,0.5367 -1.3314,0.0615 0.44848,0.62343 0.92355,0.51932 0.73066,0.12227 1.68329,0.38572 1.93552,0.70175 0.62879,0.33515 0.65241,0.63152 -0.10101,0.69689 -0.86827,0.10785 -1.53658,0.4138 -2.31513,0.72729 -0.18343,0.60073 1.31194,0.89182 1.52135,1.5875 0.37487,0.49527 0.76583,0.78776 -0.0661,0.66146 -0.59384,-0.03 -2.40379,0.0293 -1.32291,0.85976 0.66011,0.64706 1.20587,1.3694 1.52136,2.24895 0.2228,0.33808 0.5893,1.23659 -0.29817,0.72894 -0.6714,-0.29707 -1.3932,-0.43637 -2.13508,-0.39812 -0.51202,0.0266 -1.07182,-0.0577 -1.54874,0.031 0.27548,0.4303 1.30725,1.42105 1.26766,1.4537 0.74569,0.78095 0.93846,1.67525 1.193,2.55016 0.20671,0.85194 -0.75165,-0.24684 -1.15756,-0.19843 -0.74763,-0.42215 -1.52304,-0.46026 -2.34025,-0.51998 -0.58572,0.14197 0.53915,1.08534 0.58798,1.51141 0.35946,0.74298 0.64337,1.51678 0.53683,2.35716 -0.37497,-0.61933 -1.26645,-0.91301 -1.92637,-1.23198 -0.74627,-0.18754 -1.50584,-0.46343 -2.2959,-0.53753 -0.32371,0.0808 -0.41392,-0.12713 -0.74677,-0.0575"/>
      <path style="fill:#000000;fill-rule:evenodd;stroke:#000000;stroke-width:0.264583px;stroke-linecap:butt;stroke-linejoin:miter;stroke-opacity:1" d="m 77.302352,259.11685 c -1.8583,-0.25904 -1.23208,2.23102 -3.04271,1.71979 -0.68272,-0.1484 -1.38042,-0.1483 -2.082441,-0.13229 -0.5625,7.7e-4 -1.12637,-10e-4 -1.68787,0 -0.57199,0.28071 0.67431,0.66325 0.7375,1.07848 -0.77029,0.46324 -1.829627,0.25361 -2.690777,0.57053 -0.434446,0.30328 -1.377719,0.66053 -1.618545,0.79791 0.928613,0.17169 1.891658,0.35395 2.810761,0.56375 0.3839,0.11481 2.204301,0.32549 1.025691,0.6267 -0.691276,0.2658 -1.50536,0.34466 -2.050524,0.46297 -0.855182,0.13924 -1.402916,0.51699 -1.944873,0.8073 -0.629097,0.0698 -0.377458,0.31701 0.135979,0.30667 -0.386946,-0.25099 0.994335,0.35087 1.345868,0.40715 0.336392,0.12711 1.277795,0.58647 1.222897,0.47636 -0.456913,-0.14663 0.997053,0.32032 0.165428,0.38153 -0.757003,0.34549 -1.710667,0.0466 -2.380529,0.53107 -0.463279,0.20684 -1.600412,0.68234 -0.423893,0.5214 0.659635,0.0339 1.305305,0.44428 1.859032,0.5367 1.331397,0.0615 -0.44848,0.62343 -0.923554,0.51932 -0.730655,0.12227 -1.683282,0.38572 -1.935518,0.70175 -0.628792,0.33515 -0.652404,0.63152 0.101009,0.69689 0.868269,0.10785 1.536581,0.4138 2.315132,0.72729 0.183433,0.60073 -1.311941,0.89182 -1.521353,1.5875 -0.374861,0.49527 -0.765822,0.78776 0.06615,0.66146 0.593843,-0.03 2.403791,0.0293 1.322917,0.85976 -0.660111,0.64706 -1.205868,1.3694 -1.521358,2.24895 -0.222808,0.33808 -0.589309,1.23659 0.298166,0.72894 0.671402,-0.29707 1.393196,-0.43637 2.135077,-0.39812 0.512019,0.0266 1.071825,-0.0577 1.548737,0.031 -0.27548,0.4303 -1.30724,1.42105 -1.267654,1.4537 -0.745693,0.78095 -0.938456,1.67525 -1.192999,2.55016 -0.206712,0.85194 0.751652,-0.24684 1.157554,-0.19843 0.747635,-0.42215 1.523039,-0.46026 2.340249,-0.51998 0.58572,0.14197 -0.53915,1.08534 -0.58798,1.51141 -0.35945,0.74298 -0.64337,1.51678 -0.53682,2.35716 0.37497,-0.61933 1.26645,-0.91301 1.926371,-1.23198 0.74627,-0.18754 1.50584,-0.46343 2.2959,-0.53753 0.32372,0.0808 0.41393,-0.12713 0.74678,-0.0575"/>
      <path style="fill:#598059;fill-opacity:1;fill-rule:evenodd;stroke:#000000;stroke-width:0.264583px;stroke-linecap:butt;stroke-linejoin:miter;stroke-opacity:1" d="m 71.413131,272.45447 -2.645832,-2.91042 c 0,0 -0.344604,0.605 1.322916,4.23334 0.755666,1.64427 2.645837,2.64583 2.645837,2.64583"/>
      <path style="fill:#598059;fill-opacity:1;fill-rule:evenodd;stroke:#000000;stroke-width:0.264583px;stroke-linecap:butt;stroke-linejoin:miter;stroke-opacity:1" d="m 89.775992,272.45447 2.64584,-2.91042 c 0,0 0.34461,0.605 -1.32292,4.23334 -0.75567,1.64427 -2.64584,2.64583 -2.64584,2.64583"/>
      <g transform="matrix(-1,0,0,1,189.28696,58.141964)">
        <path style="fill:none;stroke:#000000;stroke-width:0.502327px;stroke-linecap:butt;stroke-linejoin:miter;stroke-opacity:1" d="m 107.29049,214.3125 -0.49976,-0.50233 h -1.49055 -0.5213"/>
        <path style="fill:#ffffff;stroke:#000000;stroke-width:0.251163;stroke-miterlimit:4;stroke-dashoffset:0;stroke-opacity:1" d="m 106.70838,213.83037 c 0.0707,0.11478 0.11151,0.24996 0.11151,0.39468 0,0.41612 -0.33734,0.75349 -0.75348,0.75349 -0.41617,0 -0.75351,-0.33737 -0.75351,-0.75349 0,-0.14864 0.0431,-0.28728 0.11738,-0.40402 z"/>
        <circle style="fill:#000000;fill-opacity:1;fill-rule:nonzero;stroke:#000000;stroke-width:0.251163;stroke-miterlimit:4;stroke-dasharray:none;stroke-dashoffset:0;stroke-opacity:1" cx="106.03442" cy="214.31506" r="0.2511633"/>
      </g>
      <path style="fill:#598059;fill-opacity:1;fill-rule:evenodd;stroke:#000000;stroke-width:0.264583px;stroke-linecap:butt;stroke-linejoin:miter;stroke-opacity:1" d="m 78.027712,283.56697 c -1.58949,0.0382 -3.03134,-1.36162 -3.96875,-2.64583 -0.58154,-0.79669 -0.42161,-2.24735 -0.79375,-3.175 -0.83907,-2.09161 -1.815031,-4.39093 -1.852081,-6.61459 -0.0303,-1.81792 -0.013,-4.05835 1.322921,-5.29167 1.97087,-1.81949 5.25517,-2.64583 7.9375,-2.64583 2.68233,0 5.96663,0.82634 7.9375,2.64584 1.33592,1.23332 1.35321,3.47374 1.32291,5.29166 -0.037,2.22145 -1.2794,4.52456 -2.11666,6.61459 -0.37254,0.92995 0.0537,2.37653 -0.52917,3.175 -0.93741,1.28421 -2.37971,2.5922 -3.96875,2.64583 -3.84741,0.12985 -1.10679,-0.10066 -5.29167,0 z"/>
      <g transform="translate(-27.939858,58.14197)">
        <path style="fill:none;stroke:#000000;stroke-width:0.502327px;stroke-linecap:butt;stroke-linejoin:miter;stroke-opacity:1" d="m 107.29049,214.3125 -0.49976,-0.50233 h -1.49055 -0.5213"/>
        <path style="fill:#ffffff;stroke:#000000;stroke-width:0.251163;stroke-miterlimit:4;stroke-dashoffset:0;stroke-opacity:1" d="m 106.70838,213.83037 c 0.0707,0.11478 0.11151,0.24996 0.11151,0.39468 0,0.41612 -0.33734,0.75349 -0.75348,0.75349 -0.41617,0 -0.75351,-0.33737 -0.75351,-0.75349 0,-0.14864 0.0431,-0.28728 0.11738,-0.40402 z"/>
        <circle style="fill:#000000;fill-opacity:1;fill-rule:nonzero;stroke:#000000;stroke-width:0.251163;stroke-miterlimit:4;stroke-dasharray:none;stroke-dashoffset:0;stroke-opacity:1" cx="106.03442" cy="214.31506" r="0.2511633"/>
      </g>
      <g transform="translate(-27.805618,58.14197)">
        <path style="fill:none;stroke:#000000;stroke-width:0.502327px;stroke-linecap:butt;stroke-linejoin:miter;stroke-opacity:1" d="m 109.80213,214.3125 0.55646,-0.50233 h 1.95518"/>
        <path style="fill:#ffffff;stroke:#000000;stroke-width:0.251163;stroke-miterlimit:4;stroke-dashoffset:0;stroke-opacity:1" d="m 111.73165,213.83032 c 0.0707,0.11478 0.11151,0.24995 0.11151,0.39468 0,0.41612 -0.33734,0.75349 -0.75351,0.75349 -0.41613,0 -0.75347,-0.33737 -0.75347,-0.75349 0,-0.14864 0.043,-0.28728 0.11737,-0.40403 z"/>
        <circle style="fill:#000000;fill-opacity:1;fill-rule:nonzero;stroke:#000000;stroke-width:0.251163;stroke-miterlimit:4;stroke-dasharray:none;stroke-dashoffset:0;stroke-opacity:1" cx="111.07362" cy="214.31506" r="0.2511633"/>
      </g>
      <g transform="translate(-27.805618,58.14197)">
        <path style="fill:none;fill-rule:evenodd;stroke:#23482d;stroke-width:0.529167;stroke-linecap:butt;stroke-linejoin:miter;stroke-dasharray:none;stroke-opacity:1" d="m 111.12501,210.34375 v 2.64583 l 2.11666,0.52917 1.05834,1.5875 -1.32292,2.38125 -2.64583,0.26458 0.26458,1.85208 0.79375,1.5875 0.79375,1.5875 1.05833,0.52917 -0.26458,0.79375 0.26458,0.52917"/>
        <path style="fill:none;fill-rule:evenodd;stroke:#23482d;stroke-width:0.529167;stroke-linecap:butt;stroke-linejoin:miter;stroke-dasharray:none;stroke-opacity:1" d="m 112.44792,210.34375 1.05834,0.79375 h 1.5875 l 1.05833,1.05833 -1.05833,1.05833 0.52916,1.05834 v 1.85208 l -1.05833,0.79375 0.26458,0.79375 -1.05833,1.5875 0.52917,0.26458 0.79375,0.26459 0.47956,-0.14883"/>
        <path style="fill:none;fill-rule:evenodd;stroke:#23482d;stroke-width:0.529167;stroke-linecap:butt;stroke-linejoin:miter;stroke-dasharray:none;stroke-opacity:1" d="m 105.83333,210.34375 v 2.64583 l -2.11666,0.52917 -1.05834,1.5875 1.32292,2.38125 2.64583,0.26458 -0.26458,1.85208 -0.79375,1.5875 -0.79375,1.5875 -1.05833,0.52917 0.26458,0.79375 -0.26458,0.52917"/>
        <path style="fill:none;fill-rule:evenodd;stroke:#23482d;stroke-width:0.529167;stroke-linecap:butt;stroke-linejoin:miter;stroke-dasharray:none;stroke-opacity:1" d="M 108.47917,210.07916 V 219.075"/>
        <path style="fill:none;fill-rule:evenodd;stroke:#23482d;stroke-width:0.529167;stroke-linecap:butt;stroke-linejoin:miter;stroke-dasharray:none;stroke-opacity:1" d="m 108.47917,216.69375 2.38125,-1.05834 1.5875,0.52917 0.79375,0.79375 1.32292,0.52917 1.5875,0.26458"/>
        <path style="fill:none;fill-rule:evenodd;stroke:#23482d;stroke-width:0.529167;stroke-linecap:butt;stroke-linejoin:miter;stroke-dasharray:none;stroke-opacity:1" d="m 104.51042,210.34375 -1.05834,0.79375 h -1.5875 l -1.05833,1.05833 1.05833,1.05833 -0.52916,1.05834 v 1.85208 l 1.05833,0.79375 -0.26458,0.79375 1.05833,1.5875 -0.52917,0.26458 -0.79375,0.26459 -0.79375,-0.26459"/>
        <path style="fill:none;fill-rule:evenodd;stroke:#23482d;stroke-width:0.529167;stroke-linecap:butt;stroke-linejoin:miter;stroke-dasharray:none;stroke-opacity:1" d="m 108.47917,216.69375 -2.38125,-1.05834 -1.5875,0.52917 -1.05833,0.52917 -1.32292,0.52917 -1.5875,0.26458"/>
        <path style="fill:none;fill-rule:evenodd;stroke:#23482d;stroke-width:0.529167;stroke-linecap:butt;stroke-linejoin:miter;stroke-dasharray:none;stroke-opacity:1" d="m 108.47917,218.81042 2.64584,-1e-5 0.79375,0.52917 1.32291,0.26458 v 1.05834 l 1.05834,0.79375 0.52916,0.79375 0.52917,0.26458"/>
        <path style="fill:none;fill-rule:evenodd;stroke:#23482d;stroke-width:0.529167;stroke-linecap:butt;stroke-linejoin:miter;stroke-dasharray:none;stroke-opacity:1" d="m 108.47917,218.81042 -2.64584,-1e-5 -0.79375,0.52917 -1.32291,0.26458 v 1.05834 l -1.05834,0.79375 -0.52916,0.79375 -0.52917,0.26458"/>
        <path style="fill:none;fill-rule:evenodd;stroke:#23482d;stroke-width:0.529167;stroke-linecap:butt;stroke-linejoin:miter;stroke-dasharray:none;stroke-opacity:1" d="m 112.18334,213.78333 2.11667,-0.79375 1.5875,0.79375 0.79375,-0.26458 0.79375,0.79375"/>
        <path style="fill:none;fill-rule:evenodd;stroke:#23482d;stroke-width:0.529167;stroke-linecap:butt;stroke-linejoin:miter;stroke-dasharray:none;stroke-opacity:1" d="m 104.775,213.78333 -2.11667,-0.79375 -1.5875,0.79375 -0.79375,-0.26458 -0.793748,0.79375"/>
        <path style="fill:none;fill-rule:evenodd;stroke:#23482d;stroke-width:0.529167;stroke-linecap:butt;stroke-linejoin:miter;stroke-dasharray:none;stroke-opacity:1" d="m 108.13628,219.5819 -0.71545,1.60976 -0.26458,2.11667 -0.79375,1.05833 -1.05833,1.05834"/>
        <path style="fill:none;fill-rule:evenodd;stroke:#23482d;stroke-width:0.529167;stroke-linecap:butt;stroke-linejoin:miter;stroke-dasharray:none;stroke-opacity:1" d="m 108.83559,219.61236 0.70192,1.5793 0.26458,2.11667 0.79375,1.05833 1.05833,1.05834"/>
        <path style="fill:none;fill-rule:evenodd;stroke:#23482d;stroke-width:0.529167;stroke-linecap:butt;stroke-linejoin:miter;stroke-dasharray:none;stroke-opacity:1" d="M 108.47917,223.57291 V 225.425"/>
        <path style="fill:none;fill-rule:evenodd;stroke:#23482d;stroke-width:0.529167;stroke-linecap:butt;stroke-linejoin:miter;stroke-dasharray:none;stroke-opacity:1" d="m 115.09376,211.1375 1.05833,-1.5875 1.05834,-0.26459"/>
        <path style="fill:none;fill-rule:evenodd;stroke:#23482d;stroke-width:0.529167;stroke-linecap:butt;stroke-linejoin:miter;stroke-dasharray:none;stroke-opacity:1" d="m 101.86458,211.1375 -1.05833,-1.5875 -1.058335,-0.26459"/>
        <path style="fill:none;fill-rule:evenodd;stroke:#23482d;stroke-width:0.529167;stroke-linecap:butt;stroke-linejoin:miter;stroke-dasharray:none;stroke-opacity:1" d="m 105.83333,211.66666 2.64584,0.26459 2.64583,-0.26459"/>
      </g>
      <path style="fill:none;fill-rule:evenodd;stroke:#000000;stroke-width:0.264583px;stroke-linecap:butt;stroke-linejoin:miter;stroke-opacity:1" d="m 79.350632,273.77739 v 3.96875 h 1.32292 1.32292 v -3.96875"/>
      <path style="fill:#000000;fill-opacity:1;fill-rule:evenodd;stroke:#000000;stroke-width:0.264583px;stroke-linecap:butt;stroke-linejoin:miter;stroke-opacity:1" d="m 85.965142,264.25234 -2.116667,4.23334 -6.316926,-0.0165 -2.149667,-4.21679 v -3.70417 c 0,0 2.64631,-1.37316 5.29167,-1.32291 2.61192,0.0496 5.29166,1.32291 5.29166,1.32291 z"/>
      <path style="fill:none;fill-opacity:1;fill-rule:evenodd;stroke:#000000;stroke-width:0.264583px;stroke-linecap:butt;stroke-linejoin:miter;stroke-opacity:1" d="m 78.027712,283.56697 c -1.58949,0.0382 -3.03134,-1.36162 -3.96875,-2.64583 -0.58154,-0.79669 -0.42161,-2.24735 -0.79375,-3.175 -0.83907,-2.09161 -1.815031,-4.39093 -1.852081,-6.61459 -0.0303,-1.81792 -0.013,-4.05835 1.322921,-5.29167 1.97087,-1.81949 5.25517,-2.64583 7.9375,-2.64583 2.68233,0 5.96663,0.82634 7.9375,2.64584 1.33592,1.23332 1.35321,3.47374 1.32291,5.29166 -0.037,2.22145 -1.2794,4.52456 -2.11666,6.61459 -0.37254,0.92995 0.0537,2.37653 -0.52917,3.175 -0.93741,1.28421 -2.37971,2.5922 -3.96875,2.64583 -3.84741,0.12985 -1.10679,-0.10066 -5.29167,0 z"/>
      <path style="fill:#ffffc8;fill-opacity:1;fill-rule:evenodd;stroke:#000000;stroke-width:0.264583px;stroke-linecap:butt;stroke-linejoin:miter;stroke-opacity:1" d="m 77.946112,280.64886 -0.25725,1.36809 -0.53788,-0.28064 -0.29232,-0.59634 0.0468,-1.14007"/>
      <path style="fill:#ffffc8;fill-opacity:1;fill-rule:evenodd;stroke:#000000;stroke-width:0.264583px;stroke-linecap:butt;stroke-linejoin:miter;stroke-opacity:1" d="m 83.400992,280.64886 0.25725,1.36809 0.53788,-0.28064 0.29233,-0.59634 -0.0468,-1.08745"/>
      <path style="fill:none;fill-rule:evenodd;stroke:#000000;stroke-width:0.264583px;stroke-linecap:butt;stroke-linejoin:miter;stroke-opacity:1" d="m 76.704802,279.8628 1.05833,0.79375 h 5.82083 l 1.05834,-0.79375"/>
    </g></g></g></svg>