<svg xmlns="http://www.w3.org/2000/svg" xmlns:xlink="http://www.w3.org/1999/xlink" width="64" height="64" viewBox="0 0 64 64"><defs id="defs355716">
    <rect x="172" y="97" width="745" height="239" id="rect276290"/>
    <color-profile name="Agfa-:-Swop-Standard" xmlns:xlink="http://www.w3.org/1999/xlink" xlink:href="file:///C:/WINDOWS/system32/spool/drivers/color/RSWOP.icm" id="color-profile294613"/>
    <linearGradient xmlns:inkscape="http://www.inkscape.org/namespaces/inkscape" inkscape:collect="always" id="linearGradient140439">
      <stop style="stop-color:#a4a870;stop-opacity:1;" offset="0" id="stop140435"/>
      <stop style="stop-color:#a4a870;stop-opacity:0;" offset="1" id="stop140437"/>
    </linearGradient>
    <linearGradient xmlns:inkscape="http://www.inkscape.org/namespaces/inkscape" inkscape:collect="always" id="linearGradient140390">
      <stop style="stop-color:#359676;stop-opacity:1;" offset="0" id="stop140386"/>
      <stop style="stop-color:#4a6a5e;stop-opacity:0;" offset="1" id="stop140388"/>
    </linearGradient>
    <linearGradient xmlns:inkscape="http://www.inkscape.org/namespaces/inkscape" inkscape:collect="always" id="linearGradient139515">
      <stop style="stop-color:#dbd764;stop-opacity:1;" offset="0" id="stop139511"/>
      <stop style="stop-color:#dbd764;stop-opacity:0;" offset="0.56578946" id="stop139513"/>
    </linearGradient>
    <linearGradient xmlns:inkscape="http://www.inkscape.org/namespaces/inkscape" inkscape:collect="always" id="linearGradient139325">
      <stop style="stop-color:#161c16;stop-opacity:1;" offset="0" id="stop139321"/>
      <stop style="stop-color:#6e836c;stop-opacity:0;" offset="1" id="stop139323"/>
    </linearGradient>
    <linearGradient xmlns:inkscape="http://www.inkscape.org/namespaces/inkscape" inkscape:collect="always" id="linearGradient387614">
      <stop style="stop-color:#a4a870;stop-opacity:1;" offset="0" id="stop387610"/>
      <stop style="stop-color:#a4a870;stop-opacity:0;" offset="1" id="stop387612"/>
    </linearGradient>
    <linearGradient xmlns:inkscape="http://www.inkscape.org/namespaces/inkscape" inkscape:collect="always" id="linearGradient387421">
      <stop style="stop-color:#344533;stop-opacity:1;" offset="0" id="stop387417"/>
      <stop style="stop-color:#1d251d;stop-opacity:0;" offset="1" id="stop387419"/>
    </linearGradient>
    <linearGradient xmlns:inkscape="http://www.inkscape.org/namespaces/inkscape" inkscape:collect="always" xmlns:xlink="http://www.w3.org/1999/xlink" xlink:href="#linearGradient206680" id="linearGradient206682" x1="168.01042" y1="262.08701" x2="168.01042" y2="247.38542" gradientUnits="userSpaceOnUse"/>
    <linearGradient xmlns:inkscape="http://www.inkscape.org/namespaces/inkscape" inkscape:collect="always" id="linearGradient206680">
      <stop style="stop-color:#dbd764;stop-opacity:0;" offset="0.38377193" id="stop206678"/>
      <stop style="stop-color:#dbd764;stop-opacity:1;" offset="1" id="stop206676"/>
    </linearGradient>
    <linearGradient xmlns:inkscape="http://www.inkscape.org/namespaces/inkscape" inkscape:collect="always" xmlns:xlink="http://www.w3.org/1999/xlink" xlink:href="#linearGradient216292" id="linearGradient216294" x1="168.01042" y1="236.00833" x2="168.01042" y2="248.97292" gradientUnits="userSpaceOnUse" gradientTransform="translate(8.4073796,-0.78650088)"/>
    <linearGradient xmlns:inkscape="http://www.inkscape.org/namespaces/inkscape" inkscape:collect="always" id="linearGradient216292">
      <stop style="stop-color:#359676;stop-opacity:1;" offset="0" id="stop216288"/>
      <stop style="stop-color:#4a6a5f;stop-opacity:0;" offset="1" id="stop216290"/>
    </linearGradient>
    <linearGradient xmlns:inkscape="http://www.inkscape.org/namespaces/inkscape" inkscape:collect="always" xmlns:xlink="http://www.w3.org/1999/xlink" xlink:href="#linearGradient387421" id="linearGradient387423" x1="31.75" y1="155.31041" x2="31.921236" y2="171.18663" gradientUnits="userSpaceOnUse"/>
    <linearGradient xmlns:inkscape="http://www.inkscape.org/namespaces/inkscape" inkscape:collect="always" xmlns:xlink="http://www.w3.org/1999/xlink" xlink:href="#linearGradient387614" id="linearGradient387616" x1="45.011326" y1="158.73975" x2="51.59375" y2="162.71875" gradientUnits="userSpaceOnUse" gradientTransform="translate(2.9601329,-0.98671096)"/>
    <linearGradient xmlns:inkscape="http://www.inkscape.org/namespaces/inkscape" inkscape:collect="always" xmlns:xlink="http://www.w3.org/1999/xlink" xlink:href="#linearGradient387614" id="linearGradient387620" gradientUnits="userSpaceOnUse" x1="45.011326" y1="158.73975" x2="51.593746" y2="162.71875" gradientTransform="matrix(-1,0,0,1,108.79346,-0.98671096)"/>
    <linearGradient xmlns:inkscape="http://www.inkscape.org/namespaces/inkscape" inkscape:collect="always" xmlns:xlink="http://www.w3.org/1999/xlink" xlink:href="#linearGradient139325" id="linearGradient139327" x1="70" y1="21" x2="70" y2="37" gradientUnits="userSpaceOnUse"/>
    <linearGradient xmlns:inkscape="http://www.inkscape.org/namespaces/inkscape" inkscape:collect="always" xmlns:xlink="http://www.w3.org/1999/xlink" xlink:href="#linearGradient139515" id="linearGradient139517" x1="70.426315" y1="1.5429174" x2="70.46106" y2="18.249472" gradientUnits="userSpaceOnUse"/>
    <linearGradient xmlns:inkscape="http://www.inkscape.org/namespaces/inkscape" inkscape:collect="always" xmlns:xlink="http://www.w3.org/1999/xlink" xlink:href="#linearGradient140390" id="linearGradient140392" x1="90.084175" y1="1.3586814" x2="90" y2="16" gradientUnits="userSpaceOnUse"/>
    <linearGradient xmlns:inkscape="http://www.inkscape.org/namespaces/inkscape" inkscape:collect="always" xmlns:xlink="http://www.w3.org/1999/xlink" xlink:href="#linearGradient140439" id="linearGradient140441" x1="90.01368" y1="24.010059" x2="94.88681" y2="28.136377" gradientUnits="userSpaceOnUse"/>
    <linearGradient xmlns:inkscape="http://www.inkscape.org/namespaces/inkscape" inkscape:collect="always" xmlns:xlink="http://www.w3.org/1999/xlink" xlink:href="#linearGradient140439" id="linearGradient140449" gradientUnits="userSpaceOnUse" x1="90.01368" y1="24.010059" x2="94.88681" y2="28.136377" gradientTransform="matrix(-1,0,0,1,190,0)"/>
    <radialGradient xmlns:inkscape="http://www.inkscape.org/namespaces/inkscape" inkscape:collect="always" xmlns:xlink="http://www.w3.org/1999/xlink" xlink:href="#linearGradient177339" id="radialGradient177341-3-0" cx="44.135807" cy="121.46028" fx="44.135807" fy="121.46028" r="1.1079427" gradientTransform="matrix(1.5015971,0,0,0.99367432,-157.6034,-4.3351259)" gradientUnits="userSpaceOnUse"/>
    <linearGradient xmlns:inkscape="http://www.inkscape.org/namespaces/inkscape" inkscape:collect="always" id="linearGradient177339">
      <stop style="stop-color:#b98d3e;stop-opacity:1;" offset="0" id="stop177335"/>
      <stop style="stop-color:#c9c943;stop-opacity:0;" offset="1" id="stop177337"/>
    </linearGradient>
    <radialGradient xmlns:inkscape="http://www.inkscape.org/namespaces/inkscape" inkscape:collect="always" xmlns:xlink="http://www.w3.org/1999/xlink" xlink:href="#linearGradient177339" id="radialGradient177345-7-9" gradientUnits="userSpaceOnUse" gradientTransform="matrix(1.5015971,0,0,0.99367432,-195.50719,-68.761115)" cx="44.135807" cy="121.46028" fx="44.135807" fy="121.46028" r="1.1079427"/>
    <rect x="172" y="97" width="745" height="239" id="rect276290-2"/>
    <rect x="172" y="97" width="745" height="239" id="rect276290-2-5"/>
    <rect x="172" y="97" width="745" height="239" id="rect276290-2-5-7"/>
  </defs><g transform="translate(-266.8843157522124 -304.20754123893806) scale(2.969418761061947)"><g><g transform="matrix(-1,0,0,1,163.02076,44.458745)">
      <g transform="matrix(0.75587983,-0.26200322,0.26200322,0.75587983,-34.83437,-16.944384)">
        <path style="fill:#df905e;fill-opacity:1;fill-rule:evenodd;stroke:#000000;stroke-width:0.264583px;stroke-linecap:butt;stroke-linejoin:miter;stroke-opacity:1" d="m 84.1375,136.26042 c 0,0 4.253588,-2.54835 6.35,-2.91042 0.274827,-0.0475 0.631624,0.0376 0.79375,0.26459 1.248941,1.74851 0.586347,5.17071 -1.026515,7.05406 -0.09553,0.11156 -1.34416,0.98938 -1.44616,1.08947"/>
        <path style="fill:#ffaaaa;fill-opacity:1;fill-rule:evenodd;stroke:#000000;stroke-width:0.169333px;stroke-linecap:butt;stroke-linejoin:miter;stroke-opacity:1" d="m 85.55221,136.57789 c 0,0 2.722296,-1.63094 4.064,-1.86266 0.175889,-0.0304 0.40426,0.0241 0.508,0.16933 0.795428,1.1136 0.379364,3.28794 -0.641929,4.49692 -0.06579,0.0779 -0.757109,0.59756 -0.757109,0.59756"/>
      </g>
      <g transform="matrix(-0.75587983,-0.26200322,-0.26200322,0.75587983,159.56761,-16.944384)">
        <path style="fill:#df905e;fill-opacity:1;fill-rule:evenodd;stroke:#000000;stroke-width:0.264583px;stroke-linecap:butt;stroke-linejoin:miter;stroke-opacity:1" d="m 84.1375,136.26042 c 0,0 4.253588,-2.54835 6.35,-2.91042 0.274827,-0.0475 0.631624,0.0376 0.79375,0.26459 1.248941,1.74851 0.586347,5.17071 -1.026515,7.05406 -0.09553,0.11156 -1.34416,0.98938 -1.44616,1.08947"/>
        <path style="fill:#ffaaaa;fill-opacity:1;fill-rule:evenodd;stroke:#000000;stroke-width:0.169333px;stroke-linecap:butt;stroke-linejoin:miter;stroke-opacity:1" d="m 85.55221,136.57789 c 0,0 2.722296,-1.63094 4.064,-1.86266 0.175889,-0.0304 0.40426,0.0241 0.508,0.16933 0.795428,1.1136 0.379364,3.28794 -0.641929,4.49692 -0.06579,0.0779 -0.757109,0.59756 -0.757109,0.59756"/>
      </g>
      <path style="fill:#df905e;fill-opacity:1;fill-rule:evenodd;stroke:#000000;stroke-width:0.212;stroke-linecap:butt;stroke-linejoin:miter;stroke-dasharray:none;stroke-opacity:1" d="m 62.449399,62.014686 c -1.11558,0 -2.172857,0.144864 -3.175,0.634992 -1.142621,0.55884 -2.442291,1.076952 -3.175,2.116668 -0.837884,1.18896 -0.880613,2.789688 -1.058333,4.233336 -0.129311,1.050392 -0.306688,2.162072 0,3.175 0.368593,1.217376 1.217257,2.275592 2.116666,3.175 0.899411,0.8994 1.957619,1.74808 3.175,2.116664 1.350563,0.40892 2.882771,0.40892 4.233334,0 1.217381,-0.368584 2.275589,-1.217264 3.175,-2.116664 0.899409,-0.899408 1.748073,-1.957624 2.116666,-3.175 0.306688,-1.012928 0.129311,-2.124608 0,-3.175 -0.177721,-1.443648 -0.220449,-3.044376 -1.058333,-4.233336 -0.73271,-1.039716 -2.03238,-1.557828 -3.175,-2.116668 -1.002144,-0.490128 -2.059419,-0.634992 -3.175,-0.634992 z"/>
      <path d="m 61.073972,71.61112 c 0.131097,0.5082 0.41353,0.818456 1.038791,0.837496 0.798619,0.02432 0.90988,-0.178424 1.058333,-0.846664 -0.861401,-0.353496 -1.494126,-0.204808 -2.097124,0.0092 z" style="fill:#ffaaaa;fill-opacity:1;stroke:#000000;stroke-width:0.295046;stroke-linecap:butt;stroke-linejoin:miter;stroke-miterlimit:4;stroke-dasharray:none;stroke-opacity:1"/>
      <path d="m 61.276541,74.283354 c 0,0 0.169903,0.008 1.172858,0.008 1.002954,0 1.129898,0.04392 1.129898,0.04392" style="fill:none;stroke:#000000;stroke-width:0.295046;stroke-linecap:butt;stroke-linejoin:miter;stroke-miterlimit:4;stroke-dasharray:none;stroke-opacity:1"/>
      <g style="stroke-width:0.529167;stroke-dasharray:none">
        <path style="fill:none;fill-rule:evenodd;stroke:#b0570b;stroke-width:0.529167;stroke-linecap:butt;stroke-linejoin:miter;stroke-dasharray:none;stroke-opacity:1" d="m 59.218136,62.7939 0.843066,0.872138 v 3.750191"/>
        <path style="fill:none;fill-rule:evenodd;stroke:#b0570b;stroke-width:0.529167;stroke-linecap:butt;stroke-linejoin:miter;stroke-dasharray:none;stroke-opacity:1" d="m 65.352083,62.441666 -1.058334,1.058333 v 3.96875"/>
        <path style="fill:none;fill-rule:evenodd;stroke:#b0570b;stroke-width:0.529167;stroke-linecap:butt;stroke-linejoin:miter;stroke-dasharray:none;stroke-opacity:1" d="m 62.177083,61.912499 v 5.55625"/>
        <path style="fill:none;fill-rule:evenodd;stroke:#b0570b;stroke-width:0.529167;stroke-linecap:butt;stroke-linejoin:miter;stroke-dasharray:none;stroke-opacity:1" d="m 55.033333,68.791666 1.5875,0.79375 h 0.79375"/>
        <path style="fill:none;fill-rule:evenodd;stroke:#b0570b;stroke-width:0.529167;stroke-linecap:butt;stroke-linejoin:miter;stroke-dasharray:none;stroke-opacity:1" d="m 54.76875,70.379166 1.852083,0.264583 h 0.79375"/>
        <path style="fill:none;fill-rule:evenodd;stroke:#b0570b;stroke-width:0.529167;stroke-linecap:butt;stroke-linejoin:miter;stroke-dasharray:none;stroke-opacity:1" d="m 54.76875,71.437499 h 2.645833"/>
        <path style="fill:none;fill-rule:evenodd;stroke:#b0570b;stroke-width:0.529167;stroke-linecap:butt;stroke-linejoin:miter;stroke-dasharray:none;stroke-opacity:1" d="m 69.85,68.791666 -1.5875,0.79375 h -0.79375"/>
        <path style="fill:none;fill-rule:evenodd;stroke:#b0570b;stroke-width:0.529167;stroke-linecap:butt;stroke-linejoin:miter;stroke-dasharray:none;stroke-opacity:1" d="M 70.114583,70.379166 68.2625,70.643749 h -0.79375"/>
        <path style="fill:none;fill-rule:evenodd;stroke:#b0570b;stroke-width:0.529167;stroke-linecap:butt;stroke-linejoin:miter;stroke-dasharray:none;stroke-opacity:1" d="M 70.114583,71.437499 H 67.46875"/>
      </g>
      <path style="fill:none;fill-opacity:1;fill-rule:evenodd;stroke:#000000;stroke-width:0.212;stroke-linecap:butt;stroke-linejoin:miter;stroke-dasharray:none;stroke-opacity:1" d="m 62.449399,62.014686 c -1.11558,0 -2.172857,0.144864 -3.175,0.634992 -1.142621,0.55884 -2.442291,1.076952 -3.175,2.116668 -0.837884,1.18896 -0.880613,2.789688 -1.058333,4.233336 -0.129311,1.050392 -0.306688,2.162072 0,3.175 0.368593,1.217376 1.217257,2.275592 2.116666,3.175 0.899411,0.8994 1.957619,1.74808 3.175,2.116664 1.350563,0.40892 2.882771,0.40892 4.233334,0 1.217381,-0.368584 2.275589,-1.217264 3.175,-2.116664 0.899409,-0.899408 1.748073,-1.957624 2.116666,-3.175 0.306688,-1.012928 0.129311,-2.124608 0,-3.175 -0.177721,-1.443648 -0.220449,-3.044376 -1.058333,-4.233336 -0.73271,-1.039716 -2.03238,-1.557828 -3.175,-2.116668 -1.002144,-0.490128 -2.059419,-0.634992 -3.175,-0.634992 z"/>
      <g transform="matrix(0.83309944,0.22322833,-0.22322833,0.83309944,-21.733047,-67.126009)">
        <path d="m 132.64864,128.63846 -0.49976,-0.50232 c -0.67061,-0.28658 -1.34123,-0.27464 -2.01184,0" style="fill:none;stroke:#000000;stroke-width:0.502327px;stroke-linecap:butt;stroke-linejoin:miter;stroke-opacity:1"/>
        <path d="m 132.06653,128.15634 c 0.0707,0.11478 0.26352,0.33182 0.26352,0.47654 0,0.41611 -0.48935,0.67163 -0.90549,0.67163 -0.41616,0 -0.99905,-0.37245 -0.99905,-0.78856 0,-0.14864 0.28865,-0.25222 0.36292,-0.36895 0.14405,-0.17547 0.47549,-0.23227 1.2781,0.009 z" style="fill:#ffffff;stroke:#000000;stroke-width:0.251163;stroke-miterlimit:4;stroke-dashoffset:0;stroke-opacity:1"/>
        <circle r="0.2511633" cy="128.59143" cx="131.39276" style="fill:#000000;fill-opacity:1;fill-rule:nonzero;stroke:#000000;stroke-width:0.251163;stroke-miterlimit:4;stroke-dasharray:none;stroke-dashoffset:0;stroke-opacity:1"/>
      </g>
      <g transform="matrix(0.83309944,-0.22322833,0.22322833,0.83309944,-77.287828,-7.4192391)">
        <path d="m 135.16028,128.63846 0.55646,-0.50232 c 0.75341,-0.30507 1.38854,-0.25528 1.95518,0" style="fill:none;stroke:#000000;stroke-width:0.502327px;stroke-linecap:butt;stroke-linejoin:miter;stroke-opacity:1"/>
        <path d="m 137.08981,128.15629 c 0.0707,0.11478 0.48568,0.24996 0.48568,0.39469 0,0.41613 -0.71152,0.75347 -1.12768,0.75347 -0.41614,0 -0.94057,-0.27887 -0.94057,-0.69501 0,-0.14865 0.23009,-0.34574 0.30447,-0.46249 0.4594,-0.20543 0.90585,-0.32995 1.2781,0.009 z" style="fill:#ffffff;stroke:#000000;stroke-width:0.251163;stroke-miterlimit:4;stroke-dashoffset:0;stroke-opacity:1"/>
        <circle r="0.2511633" cy="128.59143" cx="136.43196" style="fill:#000000;fill-opacity:1;fill-rule:nonzero;stroke:#000000;stroke-width:0.251163;stroke-miterlimit:4;stroke-dasharray:none;stroke-dashoffset:0;stroke-opacity:1"/>
      </g>
    </g></g></g></svg>