<svg xmlns="http://www.w3.org/2000/svg" xmlns:xlink="http://www.w3.org/1999/xlink" width="64" height="64" viewBox="0 0 64 64"><defs id="defs355716">
    <rect x="172" y="97" width="745" height="239" id="rect276290"/>
    <color-profile name="Agfa-:-Swop-Standard" xmlns:xlink="http://www.w3.org/1999/xlink" xlink:href="file:///C:/WINDOWS/system32/spool/drivers/color/RSWOP.icm" id="color-profile294613"/>
    <linearGradient xmlns:inkscape="http://www.inkscape.org/namespaces/inkscape" inkscape:collect="always" id="linearGradient140439">
      <stop style="stop-color:#a4a870;stop-opacity:1;" offset="0" id="stop140435"/>
      <stop style="stop-color:#a4a870;stop-opacity:0;" offset="1" id="stop140437"/>
    </linearGradient>
    <linearGradient xmlns:inkscape="http://www.inkscape.org/namespaces/inkscape" inkscape:collect="always" id="linearGradient140390">
      <stop style="stop-color:#359676;stop-opacity:1;" offset="0" id="stop140386"/>
      <stop style="stop-color:#4a6a5e;stop-opacity:0;" offset="1" id="stop140388"/>
    </linearGradient>
    <linearGradient xmlns:inkscape="http://www.inkscape.org/namespaces/inkscape" inkscape:collect="always" id="linearGradient139515">
      <stop style="stop-color:#dbd764;stop-opacity:1;" offset="0" id="stop139511"/>
      <stop style="stop-color:#dbd764;stop-opacity:0;" offset="0.56578946" id="stop139513"/>
    </linearGradient>
    <linearGradient xmlns:inkscape="http://www.inkscape.org/namespaces/inkscape" inkscape:collect="always" id="linearGradient139325">
      <stop style="stop-color:#161c16;stop-opacity:1;" offset="0" id="stop139321"/>
      <stop style="stop-color:#6e836c;stop-opacity:0;" offset="1" id="stop139323"/>
    </linearGradient>
    <linearGradient xmlns:inkscape="http://www.inkscape.org/namespaces/inkscape" inkscape:collect="always" id="linearGradient387614">
      <stop style="stop-color:#a4a870;stop-opacity:1;" offset="0" id="stop387610"/>
      <stop style="stop-color:#a4a870;stop-opacity:0;" offset="1" id="stop387612"/>
    </linearGradient>
    <linearGradient xmlns:inkscape="http://www.inkscape.org/namespaces/inkscape" inkscape:collect="always" id="linearGradient387421">
      <stop style="stop-color:#344533;stop-opacity:1;" offset="0" id="stop387417"/>
      <stop style="stop-color:#1d251d;stop-opacity:0;" offset="1" id="stop387419"/>
    </linearGradient>
    <linearGradient xmlns:inkscape="http://www.inkscape.org/namespaces/inkscape" inkscape:collect="always" xmlns:xlink="http://www.w3.org/1999/xlink" xlink:href="#linearGradient206680" id="linearGradient206682" x1="168.01042" y1="262.08701" x2="168.01042" y2="247.38542" gradientUnits="userSpaceOnUse"/>
    <linearGradient xmlns:inkscape="http://www.inkscape.org/namespaces/inkscape" inkscape:collect="always" id="linearGradient206680">
      <stop style="stop-color:#dbd764;stop-opacity:0;" offset="0.38377193" id="stop206678"/>
      <stop style="stop-color:#dbd764;stop-opacity:1;" offset="1" id="stop206676"/>
    </linearGradient>
    <linearGradient xmlns:inkscape="http://www.inkscape.org/namespaces/inkscape" inkscape:collect="always" xmlns:xlink="http://www.w3.org/1999/xlink" xlink:href="#linearGradient216292" id="linearGradient216294" x1="168.01042" y1="236.00833" x2="168.01042" y2="248.97292" gradientUnits="userSpaceOnUse" gradientTransform="translate(8.4073796,-0.78650088)"/>
    <linearGradient xmlns:inkscape="http://www.inkscape.org/namespaces/inkscape" inkscape:collect="always" id="linearGradient216292">
      <stop style="stop-color:#359676;stop-opacity:1;" offset="0" id="stop216288"/>
      <stop style="stop-color:#4a6a5f;stop-opacity:0;" offset="1" id="stop216290"/>
    </linearGradient>
    <linearGradient xmlns:inkscape="http://www.inkscape.org/namespaces/inkscape" inkscape:collect="always" xmlns:xlink="http://www.w3.org/1999/xlink" xlink:href="#linearGradient387421" id="linearGradient387423" x1="31.75" y1="155.31041" x2="31.921236" y2="171.18663" gradientUnits="userSpaceOnUse"/>
    <linearGradient xmlns:inkscape="http://www.inkscape.org/namespaces/inkscape" inkscape:collect="always" xmlns:xlink="http://www.w3.org/1999/xlink" xlink:href="#linearGradient387614" id="linearGradient387616" x1="45.011326" y1="158.73975" x2="51.59375" y2="162.71875" gradientUnits="userSpaceOnUse" gradientTransform="translate(2.9601329,-0.98671096)"/>
    <linearGradient xmlns:inkscape="http://www.inkscape.org/namespaces/inkscape" inkscape:collect="always" xmlns:xlink="http://www.w3.org/1999/xlink" xlink:href="#linearGradient387614" id="linearGradient387620" gradientUnits="userSpaceOnUse" x1="45.011326" y1="158.73975" x2="51.593746" y2="162.71875" gradientTransform="matrix(-1,0,0,1,108.79346,-0.98671096)"/>
    <linearGradient xmlns:inkscape="http://www.inkscape.org/namespaces/inkscape" inkscape:collect="always" xmlns:xlink="http://www.w3.org/1999/xlink" xlink:href="#linearGradient139325" id="linearGradient139327" x1="70" y1="21" x2="70" y2="37" gradientUnits="userSpaceOnUse"/>
    <linearGradient xmlns:inkscape="http://www.inkscape.org/namespaces/inkscape" inkscape:collect="always" xmlns:xlink="http://www.w3.org/1999/xlink" xlink:href="#linearGradient139515" id="linearGradient139517" x1="70.426315" y1="1.5429174" x2="70.46106" y2="18.249472" gradientUnits="userSpaceOnUse"/>
    <linearGradient xmlns:inkscape="http://www.inkscape.org/namespaces/inkscape" inkscape:collect="always" xmlns:xlink="http://www.w3.org/1999/xlink" xlink:href="#linearGradient140390" id="linearGradient140392" x1="90.084175" y1="1.3586814" x2="90" y2="16" gradientUnits="userSpaceOnUse"/>
    <linearGradient xmlns:inkscape="http://www.inkscape.org/namespaces/inkscape" inkscape:collect="always" xmlns:xlink="http://www.w3.org/1999/xlink" xlink:href="#linearGradient140439" id="linearGradient140441" x1="90.01368" y1="24.010059" x2="94.88681" y2="28.136377" gradientUnits="userSpaceOnUse"/>
    <linearGradient xmlns:inkscape="http://www.inkscape.org/namespaces/inkscape" inkscape:collect="always" xmlns:xlink="http://www.w3.org/1999/xlink" xlink:href="#linearGradient140439" id="linearGradient140449" gradientUnits="userSpaceOnUse" x1="90.01368" y1="24.010059" x2="94.88681" y2="28.136377" gradientTransform="matrix(-1,0,0,1,190,0)"/>
    <radialGradient xmlns:inkscape="http://www.inkscape.org/namespaces/inkscape" inkscape:collect="always" xmlns:xlink="http://www.w3.org/1999/xlink" xlink:href="#linearGradient177339" id="radialGradient177341-3-0" cx="44.135807" cy="121.46028" fx="44.135807" fy="121.46028" r="1.1079427" gradientTransform="matrix(1.5015971,0,0,0.99367432,-157.6034,-4.3351259)" gradientUnits="userSpaceOnUse"/>
    <linearGradient xmlns:inkscape="http://www.inkscape.org/namespaces/inkscape" inkscape:collect="always" id="linearGradient177339">
      <stop style="stop-color:#b98d3e;stop-opacity:1;" offset="0" id="stop177335"/>
      <stop style="stop-color:#c9c943;stop-opacity:0;" offset="1" id="stop177337"/>
    </linearGradient>
    <radialGradient xmlns:inkscape="http://www.inkscape.org/namespaces/inkscape" inkscape:collect="always" xmlns:xlink="http://www.w3.org/1999/xlink" xlink:href="#linearGradient177339" id="radialGradient177345-7-9" gradientUnits="userSpaceOnUse" gradientTransform="matrix(1.5015971,0,0,0.99367432,-195.50719,-68.761115)" cx="44.135807" cy="121.46028" fx="44.135807" fy="121.46028" r="1.1079427"/>
    <rect x="172" y="97" width="745" height="239" id="rect276290-2"/>
    <rect x="172" y="97" width="745" height="239" id="rect276290-2-5"/>
    <rect x="172" y="97" width="745" height="239" id="rect276290-2-5-7"/>
  </defs><g transform="translate(-21.86958978657982 -93.66881894879815) scale(3.027030459979811)"><g><g transform="translate(-13.844562,-4.8643054)">
      <path style="fill:#4d586e;fill-opacity:1;fill-rule:evenodd;stroke:#000000;stroke-width:0.214312px;stroke-linecap:butt;stroke-linejoin:miter;stroke-opacity:1" d="m 37.912914,45.785692 c 1.939481,-1.01182 1.465941,-1.650203 2.97782,-2.748043 -0.0256,1.25393 -0.299599,2.41332 -0.857019,3.08766 -0.88278,1.06794 -1.20626,0.99659 -2.120801,1.25403"/>
      <path style="fill:#4d586e;fill-opacity:1;fill-rule:evenodd;stroke:#000000;stroke-width:0.214312px;stroke-linecap:butt;stroke-linejoin:miter;stroke-opacity:1" d="m 25.368577,45.719547 c -1.93948,-1.01182 -1.46594,-1.650203 -2.97782,-2.748043 0.0256,1.25393 0.2996,2.41332 0.85702,3.08766 0.88278,1.06794 1.20626,0.99659 2.1208,1.25403"/>
      <path style="fill:#ffffff;fill-opacity:1;fill-rule:evenodd;stroke:#000000;stroke-width:0.529167;stroke-linecap:butt;stroke-linejoin:miter;stroke-dasharray:none;stroke-opacity:1" d="m 24.525493,45.589309 1.000001,9 h 12 l 1,-9"/>
      <path style="fill:#4d586e;fill-opacity:1;fill-rule:evenodd;stroke:#000000;stroke-width:0.264583px;stroke-linecap:butt;stroke-linejoin:miter;stroke-opacity:1" d="m 24.525494,46.589309 c 0.09763,4.00268 3.560416,8 7,8 3.439583,0 7,-4.02244 7,-8 0,-6.88425 -3.812169,-7.32014 -7,-7.34583 -3.218691,-0.0259 -7.167859,0.46363 -7,7.34583 z"/>
      <path d="m 30.679101,49.880526 c 0.135432,0.52502 0.200459,0.720363 0.846393,0.740033 0.825018,0.0251 0.69302,-0.05915 0.846377,-0.749503" style="fill:none;stroke:#000000;stroke-width:0.3048;stroke-linecap:butt;stroke-linejoin:miter;stroke-miterlimit:4;stroke-dasharray:none;stroke-opacity:1"/>
      <path d="m 30.136431,51.678892 c 0,0 0.428719,0.172438 1.464831,0.172438 1.036111,0 1.660559,-0.271658 1.660559,-0.271658" style="fill:none;stroke:#000000;stroke-width:0.3048;stroke-linecap:butt;stroke-linejoin:miter;stroke-miterlimit:4;stroke-dasharray:none;stroke-opacity:1"/>
      <g transform="matrix(0.81,0,0,0.81,-84.532613,-31.848746)">
        <path d="m 141.6289,98.049468 -0.49976,-0.502327 c -0.67061,-0.286579 -1.34123,-0.274634 -2.01184,0" style="fill:none;stroke:#000000;stroke-width:0.502327px;stroke-linecap:butt;stroke-linejoin:miter;stroke-opacity:1"/>
        <path d="m 141.04679,97.812758 c 0.0707,0.11478 0.26352,0.0864 0.26352,0.231129 0,0.416108 -0.48935,0.671626 -0.90549,0.671626 -0.41616,0 -0.99905,-0.372448 -0.99905,-0.788556 0,-0.148647 0.0288,-0.0068 0.10307,-0.123541 0.14405,-0.175476 0.73534,-0.232273 1.53795,0.0093 z" style="fill:#ffffff;stroke:#000000;stroke-width:0.251163;stroke-miterlimit:4;stroke-dashoffset:0;stroke-opacity:1"/>
        <circle r="0.2511633" cy="98.002426" cx="140.37302" style="fill:#000000;fill-opacity:1;fill-rule:nonzero;stroke:#000000;stroke-width:0.251163;stroke-miterlimit:4;stroke-dasharray:none;stroke-dashoffset:0;stroke-opacity:1"/>
      </g>
      <path style="fill:#ffffff;fill-opacity:1;stroke:#000000;stroke-width:0.529167;stroke-linecap:butt;stroke-linejoin:miter;stroke-dasharray:none;stroke-opacity:1" d="m 24.133499,45.502649 c 4.023351,-0.67056 5.699743,-1.14723 7.376152,-2.82362 v -4.35865 c -6.081807,0.17135 -8.046718,2.48835 -7.376152,7.18227 z"/>
      <path d="m 38.885802,45.502649 c -4.023351,-0.67056 -5.871414,-1.09321 -7.376151,-2.82362 v -4.35865 c 5.94149,0.17135 8.046718,2.48835 7.376151,7.18227 z" style="fill:#ffffff;fill-opacity:1;stroke:#000000;stroke-width:0.529167;stroke-linecap:butt;stroke-linejoin:miter;stroke-dasharray:none;stroke-opacity:1"/>
      <g transform="matrix(-0.81,0,0,0.81,147.5226,-31.848746)">
        <path d="m 141.6289,98.049468 -0.49976,-0.502327 c -0.67061,-0.286579 -1.34123,-0.274634 -2.01184,0" style="fill:none;stroke:#000000;stroke-width:0.502327px;stroke-linecap:butt;stroke-linejoin:miter;stroke-opacity:1"/>
        <path d="m 141.04679,97.812758 c 0.0707,0.11478 0.26352,0.0864 0.26352,0.231129 0,0.416108 -0.48935,0.671626 -0.90549,0.671626 -0.41616,0 -0.99905,-0.372448 -0.99905,-0.788556 0,-0.148647 0.0288,-0.0068 0.10307,-0.123541 0.14405,-0.175476 0.73534,-0.232273 1.53795,0.0093 z" style="fill:#ffffff;stroke:#000000;stroke-width:0.251163;stroke-miterlimit:4;stroke-dashoffset:0;stroke-opacity:1"/>
        <circle r="0.2511633" cy="98.002426" cx="140.37302" style="fill:#000000;fill-opacity:1;fill-rule:nonzero;stroke:#000000;stroke-width:0.251163;stroke-miterlimit:4;stroke-dasharray:none;stroke-dashoffset:0;stroke-opacity:1"/>
      </g>
      <rect style="fill:#ffffff;fill-opacity:1;stroke:#000000;stroke-width:0;stroke-linecap:round;stroke-linejoin:round;stroke-dasharray:none" width="0.21047476" height="0.21047476" x="-15.704514" y="52.43647" transform="rotate(-45)"/>
      <rect style="fill:#ffffff;fill-opacity:1;stroke:#000000;stroke-width:0;stroke-linecap:round;stroke-linejoin:round;stroke-dasharray:none" width="0.21047476" height="0.21047476" x="-15.597031" y="53.221947" transform="rotate(-45)"/>
      <rect style="fill:#ffffff;fill-opacity:1;stroke:#000000;stroke-width:0;stroke-linecap:round;stroke-linejoin:round;stroke-dasharray:none" width="0.21047476" height="0.21047476" x="-15.200153" y="54.280281" transform="rotate(-45)"/>
      <rect style="fill:#ffffff;fill-opacity:1;stroke:#000000;stroke-width:0;stroke-linecap:round;stroke-linejoin:round;stroke-dasharray:none" width="0.21047476" height="0.21047476" x="-14.166626" y="55.429565" transform="rotate(-45)"/>
      <rect style="fill:#ffffff;fill-opacity:1;stroke:#000000;stroke-width:0;stroke-linecap:round;stroke-linejoin:round;stroke-dasharray:none" width="0.21047476" height="0.21047476" x="-13.314999" y="56.016609" transform="rotate(-45)"/>
      <rect style="fill:#ffffff;fill-opacity:1;stroke:#000000;stroke-width:0;stroke-linecap:round;stroke-linejoin:round;stroke-dasharray:none" width="0.21047476" height="0.21047476" x="-16.572681" y="54.114922" transform="rotate(-45)"/>
      <rect style="fill:#ffffff;fill-opacity:1;stroke:#000000;stroke-width:0;stroke-linecap:round;stroke-linejoin:round;stroke-dasharray:none" width="0.21047476" height="0.21047476" x="-17.159725" y="55.661079" transform="rotate(-45)"/>
      <rect style="fill:#ffffff;fill-opacity:1;stroke:#000000;stroke-width:0;stroke-linecap:round;stroke-linejoin:round;stroke-dasharray:none" width="0.21047476" height="0.21047476" x="-15.853344" y="55.396492" transform="rotate(-45)"/>
      <rect style="fill:#ffffff;fill-opacity:1;stroke:#000000;stroke-width:0;stroke-linecap:round;stroke-linejoin:round;stroke-dasharray:none" width="0.21047476" height="0.21047476" x="-14.464283" y="56.322533" transform="rotate(-45)"/>
      <rect style="fill:#ffffff;fill-opacity:1;stroke:#000000;stroke-width:0;stroke-linecap:round;stroke-linejoin:round;stroke-dasharray:none" width="0.21047476" height="0.21047476" x="-15.745857" y="56.76075" transform="rotate(-45)"/>
      <rect style="fill:#ffffff;fill-opacity:1;stroke:#000000;stroke-width:0;stroke-linecap:round;stroke-linejoin:round;stroke-dasharray:none" width="0.21047476" height="0.21047476" x="-15.836807" y="56.091026" transform="rotate(-45)"/>
      <rect style="fill:#ffffff;fill-opacity:1;stroke:#000000;stroke-width:0;stroke-linecap:round;stroke-linejoin:round;stroke-dasharray:none" width="0.21047476" height="0.21047476" x="-15.191887" y="56.272926" transform="rotate(-45)"/>
      <rect style="fill:#ffffff;fill-opacity:1;stroke:#000000;stroke-width:0;stroke-linecap:round;stroke-linejoin:round;stroke-dasharray:none" width="0.21047476" height="0.21047476" x="-16.721508" y="55.040962" transform="rotate(-45)"/>
      <rect style="fill:#ffffff;fill-opacity:1;stroke:#000000;stroke-width:0;stroke-linecap:round;stroke-linejoin:round;stroke-dasharray:none" width="0.21047476" height="0.21047476" x="-16.572681" y="56.661537" transform="rotate(-45)"/>
      <rect style="fill:#ffffff;fill-opacity:1;stroke:#000000;stroke-width:0;stroke-linecap:round;stroke-linejoin:round;stroke-dasharray:none" width="0.21047476" height="0.21047476" x="-14.331989" y="51.857689" transform="rotate(-45)"/>
      <rect style="fill:#ffffff;fill-opacity:1;stroke:#000000;stroke-width:0;stroke-linecap:round;stroke-linejoin:round;stroke-dasharray:none" width="0.21047476" height="0.21047476" x="-14.439476" y="53.751114" transform="rotate(-45)"/>
      <rect style="fill:#ffffff;fill-opacity:1;stroke:#000000;stroke-width:0;stroke-linecap:round;stroke-linejoin:round;stroke-dasharray:none" width="0.21047476" height="0.21047476" x="-60.195839" y="7.9451485" transform="matrix(-0.70710678,-0.70710678,-0.70710678,0.70710678,0,0)"/>
      <rect style="fill:#ffffff;fill-opacity:1;stroke:#000000;stroke-width:0;stroke-linecap:round;stroke-linejoin:round;stroke-dasharray:none" width="0.21047476" height="0.21047476" x="-60.088356" y="8.7306252" transform="matrix(-0.70710678,-0.70710678,-0.70710678,0.70710678,0,0)"/>
      <rect style="fill:#ffffff;fill-opacity:1;stroke:#000000;stroke-width:0;stroke-linecap:round;stroke-linejoin:round;stroke-dasharray:none" width="0.21047476" height="0.21047476" x="-59.691475" y="9.7889595" transform="matrix(-0.70710678,-0.70710678,-0.70710678,0.70710678,0,0)"/>
      <rect style="fill:#ffffff;fill-opacity:1;stroke:#000000;stroke-width:0;stroke-linecap:round;stroke-linejoin:round;stroke-dasharray:none" width="0.21047476" height="0.21047476" x="-58.657951" y="10.938244" transform="matrix(-0.70710678,-0.70710678,-0.70710678,0.70710678,0,0)"/>
      <rect style="fill:#ffffff;fill-opacity:1;stroke:#000000;stroke-width:0;stroke-linecap:round;stroke-linejoin:round;stroke-dasharray:none" width="0.21047476" height="0.21047476" x="-57.80632" y="11.525288" transform="matrix(-0.70710678,-0.70710678,-0.70710678,0.70710678,0,0)"/>
      <rect style="fill:#ffffff;fill-opacity:1;stroke:#000000;stroke-width:0;stroke-linecap:round;stroke-linejoin:round;stroke-dasharray:none" width="0.21047476" height="0.21047476" x="-61.064003" y="9.6236" transform="matrix(-0.70710678,-0.70710678,-0.70710678,0.70710678,0,0)"/>
      <rect style="fill:#ffffff;fill-opacity:1;stroke:#000000;stroke-width:0;stroke-linecap:round;stroke-linejoin:round;stroke-dasharray:none" width="0.21047476" height="0.21047476" x="-61.651047" y="11.169758" transform="matrix(-0.70710678,-0.70710678,-0.70710678,0.70710678,0,0)"/>
      <rect style="fill:#ffffff;fill-opacity:1;stroke:#000000;stroke-width:0;stroke-linecap:round;stroke-linejoin:round;stroke-dasharray:none" width="0.21047476" height="0.21047476" x="-60.344666" y="10.90517" transform="matrix(-0.70710678,-0.70710678,-0.70710678,0.70710678,0,0)"/>
      <rect style="fill:#ffffff;fill-opacity:1;stroke:#000000;stroke-width:0;stroke-linecap:round;stroke-linejoin:round;stroke-dasharray:none" width="0.21047476" height="0.21047476" x="-58.955605" y="11.831211" transform="matrix(-0.70710678,-0.70710678,-0.70710678,0.70710678,0,0)"/>
      <rect style="fill:#ffffff;fill-opacity:1;stroke:#000000;stroke-width:0;stroke-linecap:round;stroke-linejoin:round;stroke-dasharray:none" width="0.21047476" height="0.21047476" x="-60.237183" y="12.269428" transform="matrix(-0.70710678,-0.70710678,-0.70710678,0.70710678,0,0)"/>
      <rect style="fill:#ffffff;fill-opacity:1;stroke:#000000;stroke-width:0;stroke-linecap:round;stroke-linejoin:round;stroke-dasharray:none" width="0.21047476" height="0.21047476" x="-60.328133" y="11.599705" transform="matrix(-0.70710678,-0.70710678,-0.70710678,0.70710678,0,0)"/>
      <rect style="fill:#ffffff;fill-opacity:1;stroke:#000000;stroke-width:0;stroke-linecap:round;stroke-linejoin:round;stroke-dasharray:none" width="0.21047476" height="0.21047476" x="-59.683212" y="11.781605" transform="matrix(-0.70710678,-0.70710678,-0.70710678,0.70710678,0,0)"/>
      <rect style="fill:#ffffff;fill-opacity:1;stroke:#000000;stroke-width:0;stroke-linecap:round;stroke-linejoin:round;stroke-dasharray:none" width="0.21047476" height="0.21047476" x="-61.21283" y="10.549641" transform="matrix(-0.70710678,-0.70710678,-0.70710678,0.70710678,0,0)"/>
      <rect style="fill:#ffffff;fill-opacity:1;stroke:#000000;stroke-width:0;stroke-linecap:round;stroke-linejoin:round;stroke-dasharray:none" width="0.21047476" height="0.21047476" x="-61.064003" y="12.170216" transform="matrix(-0.70710678,-0.70710678,-0.70710678,0.70710678,0,0)"/>
      <rect style="fill:#ffffff;fill-opacity:1;stroke:#000000;stroke-width:0;stroke-linecap:round;stroke-linejoin:round;stroke-dasharray:none" width="0.21047476" height="0.21047476" x="-58.823311" y="7.3663673" transform="matrix(-0.70710678,-0.70710678,-0.70710678,0.70710678,0,0)"/>
      <rect style="fill:#ffffff;fill-opacity:1;stroke:#000000;stroke-width:0;stroke-linecap:round;stroke-linejoin:round;stroke-dasharray:none" width="0.21047476" height="0.21047476" x="-58.930801" y="9.2597923" transform="matrix(-0.70710678,-0.70710678,-0.70710678,0.70710678,0,0)"/>
      <g style="stroke:#ffff00">
        <path style="display:inline;fill:none;fill-rule:evenodd;stroke:#ffff00;stroke-width:0.264583px;stroke-linecap:butt;stroke-linejoin:miter;stroke-opacity:1" d="m 23.853805,43.591659 c 4.477028,0.382014 8.285123,-2.179273 12.160765,-4.443357"/>
        <path style="display:inline;fill:none;fill-rule:evenodd;stroke:#ffff00;stroke-width:0.264583px;stroke-linecap:butt;stroke-linejoin:miter;stroke-opacity:1" d="m 24.157824,42.121088 c 3.664776,-0.375047 6.670739,-1.9106 9.935524,-3.564468"/>
        <path style="display:inline;fill:none;fill-rule:evenodd;stroke:#ffff00;stroke-width:0.264583px;stroke-linecap:butt;stroke-linejoin:miter;stroke-opacity:1" d="m 25.211032,40.228856 c 2.121475,-0.369159 4.131998,-1.06915 6.095945,-1.931898"/>
        <path style="display:inline;fill:none;fill-rule:evenodd;stroke:#ffff00;stroke-width:0.264583px;stroke-linecap:butt;stroke-linejoin:miter;stroke-opacity:1" d="m 33.430476,42.756333 c 1.558519,-0.538384 2.795568,-1.574381 4.034031,-2.768885"/>
        <path style="display:inline;fill:none;fill-rule:evenodd;stroke:#ffff00;stroke-width:0.264583px;stroke-linecap:butt;stroke-linejoin:miter;stroke-opacity:1" d="M 29.468806,42.616016 C 27.910287,42.077632 26.883713,41.181952 25.64525,39.987448"/>
        <path style="display:inline;fill:none;fill-rule:evenodd;stroke:#ffff00;stroke-width:0.264583px;stroke-linecap:butt;stroke-linejoin:miter;stroke-opacity:1" d="m 23.713488,43.615045 c 4.477028,0.382014 8.42544,-2.202659 12.301082,-4.466743" transform="matrix(-1,0,0,1,62.540877,0)"/>
        <path style="display:inline;fill:none;fill-rule:evenodd;stroke:#ffff00;stroke-width:0.264583px;stroke-linecap:butt;stroke-linejoin:miter;stroke-opacity:1" d="m 23.853805,42.004158 c 3.664776,-0.375047 6.974758,-1.79367 10.239543,-3.447538" transform="matrix(-1,0,0,1,62.540877,0)"/>
        <path style="display:inline;fill:none;fill-rule:evenodd;stroke:#ffff00;stroke-width:0.264583px;stroke-linecap:butt;stroke-linejoin:miter;stroke-opacity:1" d="m 25.211032,40.228856 c 2.121475,-0.369159 4.131998,-1.06915 6.095945,-1.931898" transform="matrix(-1,0,0,1,62.540877,0)"/>
        <path style="fill:none;fill-rule:evenodd;stroke:#ffff00;stroke-width:0.264583px;stroke-linecap:butt;stroke-linejoin:miter;stroke-opacity:1" d="m 35.687164,43.40457 c 0.971584,-0.707725 1.760051,-1.476488 2.549083,-2.245064"/>
        <path style="fill:none;fill-rule:evenodd;stroke:#ffff00;stroke-width:0.264583px;stroke-linecap:butt;stroke-linejoin:miter;stroke-opacity:1" d="m 27.25889,43.334412 c -0.971584,-0.707725 -1.596348,-1.40633 -2.38538,-2.174906"/>
      </g>
      <path style="fill:#ffff00;fill-opacity:1;stroke:#000000;stroke-width:0.5;stroke-linecap:round;stroke-linejoin:round;stroke-dasharray:none;stroke-opacity:1" d="m 118.26306,144.26672 c -0.59075,0.0332 -1.13524,0.4234 -1.69917,0.61623 -1.73321,0.71574 -3.46195,1.44898 -5.22917,2.07689 -1.2206,-0.53401 -2.38798,-1.20941 -3.60094,-1.738 -0.22184,0.25013 -0.37492,0.64083 -0.50178,0.95942 0.4383,0.33478 1.03277,0.52947 1.5299,0.81126 0.35521,0.17701 0.71041,0.35403 1.06561,0.53104 -1.94328,0.70933 -3.91851,1.3307 -5.89916,1.92737 -1.1187,-0.63733 -2.21774,-1.32412 -3.34449,-1.93897 -0.31054,0.0656 -0.37844,0.48164 -0.54931,0.7096 -0.223634,0.32149 0.32658,0.40698 0.50303,0.56847 0.60739,0.35821 1.21663,0.71326 1.82131,1.07606 -1.55176,0.45475 -3.141427,0.78979 -4.720218,1.15686 -0.193232,-0.2725 -0.482813,-0.4192 -0.669189,-0.0403 -0.435326,0.41566 -1.107316,0.29292 -1.640015,0.50793 -0.35376,0.0915 -0.0734,0.52592 -0.07874,0.76343 0.0034,0.18544 0.101889,0.42317 0.328247,0.31482 0.552383,-0.0756 1.104516,-0.23762 1.65747,-0.26184 1.538655,1.28412 2.950625,2.71747 4.528205,3.95788 0.14425,0.13506 0.51171,0.33141 0.1217,0.35127 -1.59892,0.41163 -3.200272,0.8078 -4.817141,1.14202 -0.903806,-0.86276 -1.768502,-1.78837 -2.69632,-2.61257 -0.237039,0.1521 -0.529878,0.38306 -0.652191,0.66616 -3.06e-4,0.42242 0.465782,0.66393 0.696529,0.96548 0.405638,0.40735 0.813463,0.80714 1.191167,1.24204 -1.424315,0.25035 -2.86337,0.44416 -4.2948,0.59826 -0.204201,0.21585 -0.05751,0.57422 -0.04871,0.84241 -0.019,0.52491 0.591688,0.18838 0.897894,0.2146 1.502956,-0.16785 2.996399,-0.40845 4.486749,-0.66296 1.609197,1.56116 3.267168,3.07558 5.009883,4.48474 -2.665181,0.5443 -5.449028,0.82663 -8.203364,0.82629 -1.084823,0.0306 -2.172696,-0.13084 -3.252564,-0.0563 -0.190242,0.26545 -0.09744,0.65251 -0.162475,0.95947 0.15019,0.22936 0.543917,0.0967 0.798498,0.15866 4.077728,0.25003 8.186501,-0.0797 12.169895,-0.98844 5.30984,-1.18191 10.38083,-3.24319 15.24364,-5.65203 6.64203,3.25315 13.71236,5.91006 21.12317,6.61597 2.30448,0.25479 4.62971,0.18817 6.94248,0.083 0.20914,-0.009 0.60304,0.0108 0.522,-0.31173 -0.0291,-0.28342 -0.006,-0.59221 -0.11182,-0.85401 -1.90384,0.13582 -3.84168,0.13549 -5.75425,0.0583 -1.59548,-0.1069 -3.18631,-0.28769 -4.76418,-0.55557 2.01547,-1.57188 3.93865,-3.25818 5.80957,-4.99805 1.34345,0.18516 2.689,0.43281 4.04272,0.49609 0.31673,-0.13452 0.1897,-0.59573 0.27318,-0.8632 0.086,-0.41813 -0.53747,-0.21502 -0.77806,-0.31429 -0.82682,-0.0893 -1.65389,-0.20262 -2.48035,-0.3164 0.6006,-0.63735 1.28823,-1.21965 1.83594,-1.89038 -0.22307,-0.26228 -0.47955,-0.54872 -0.76782,-0.73499 -0.88877,0.74388 -1.63428,1.67787 -2.57837,2.36096 -1.71188,-0.25485 -3.4163,-0.61966 -5.10425,-1.0216 1.35644,-1.13933 2.70338,-2.29237 4.00634,-3.49404 0.18197,-0.20855 0.46578,-0.32921 0.6255,-0.53697 0.23792,-0.37547 0.66684,-0.60496 0.91125,-0.96814 -0.2124,-0.26117 -0.45574,-0.5442 -0.74987,-0.72143 -0.38884,0.0718 -0.58729,0.70619 -1.04468,0.52539 -2.08672,-0.41294 -4.16104,-0.88326 -6.21729,-1.42054 0.79249,-0.49664 1.65082,-0.91769 2.40686,-1.45605 -0.0775,-0.32198 -0.28004,-0.64185 -0.50268,-0.88867 -0.28902,-0.0861 -0.51409,0.27769 -0.77735,0.35046 -0.88783,0.52234 -1.77816,1.04034 -2.66748,1.56018 -1.96364,-0.5924 -3.91963,-1.21359 -5.84875,-1.91089 0.81778,-0.5032 1.74194,-0.8462 2.54431,-1.35205 -0.13161,-0.32923 -0.28781,-0.69065 -0.50354,-0.97009 -1.2135,0.53955 -2.382,1.2053 -3.60229,1.74451 -2.26127,-0.81276 -4.46957,-1.77125 -6.69092,-2.68567 -0.0293,-0.006 -0.0594,-0.01 -0.0894,-0.007 z m 1.41687,1.79737 c 1.31492,0.56695 2.65545,1.08371 3.97583,1.62964 -1.74435,0.88046 -3.49904,1.74129 -5.26806,2.57104 -1.8783,-0.82134 -3.7342,-1.68999 -5.58155,-2.57812 1.78292,-0.77667 3.60255,-1.46803 5.37976,-2.2594 0.49801,0.21228 0.99602,0.42456 1.49402,0.63684 z m -6.62829,3.0133 c 1.30537,0.63339 2.63485,1.21704 3.94189,1.84571 -2.00561,0.89636 -4.00453,1.82021 -6.05957,2.59362 -1.91018,-1.04075 -3.76743,-2.17345 -5.65112,-3.26294 2.00879,-0.64254 4.01447,-1.2969 5.99511,-2.02246 0.59123,0.28203 1.18246,0.56405 1.77369,0.84607 z m 12.66394,-0.62097 c 1.78102,0.62543 3.57563,1.21318 5.37121,1.79419 -1.71783,1.0061 -3.407,2.06583 -5.16352,3.00163 -0.40826,-0.0302 -0.80173,-0.27811 -1.20267,-0.39669 -1.63644,-0.63573 -3.27605,-1.27498 -4.88723,-1.97628 1.76309,-0.90148 3.55136,-1.75249 5.32837,-2.62597 0.18461,0.0677 0.36923,0.13541 0.55384,0.20312 z m 7.12829,2.31091 c 2.21214,0.54406 4.41363,1.13975 6.65308,1.56665 -1.46653,1.31689 -2.9282,2.65275 -4.52893,3.80603 -2.56918,-0.69228 -5.11948,-1.45492 -7.62854,-2.33935 1.74876,-1.03596 3.50353,-2.06076 5.25586,-3.0907 0.0828,0.0191 0.16569,0.0383 0.24853,0.0574 z m -29.08825,-0.0339 c 1.92903,1.04135 3.80769,2.19867 5.71227,3.29578 0.13452,0.12013 -0.33628,0.17709 -0.45856,0.26006 -1.81968,0.66152 -3.65612,1.3223 -5.51165,1.84968 -1.71851,-1.26398 -3.30301,-2.69851 -4.842406,-4.17163 1.704186,-0.36329 3.387726,-0.83444 5.083126,-1.24073 z m 14.69946,0.82629 c 1.97904,0.81806 3.96503,1.64727 5.95996,2.42859 0.37339,0.10605 -0.2778,0.25432 -0.37169,0.37377 -1.92114,1.05723 -3.83847,2.12516 -5.80812,3.09022 -2.01696,-1.03333 -4.04545,-2.07213 -5.99976,-3.20544 2.07555,-0.82086 4.09095,-1.79031 6.13636,-2.67835 0.0272,-0.007 0.0553,-0.0105 0.0832,-0.009 z m 8.5,3.33142 c 2.26956,0.76713 4.54894,1.51744 6.8678,2.12207 -2.31072,1.62804 -4.80911,3.05145 -7.48963,3.96875 -2.33317,-0.7907 -4.56096,-1.85143 -6.79565,-2.88208 2.17994,-1.14216 4.34238,-2.31784 6.47973,-3.53796 0.31259,0.10974 0.62517,0.21948 0.93775,0.32922 z m -16.1211,-0.0586 c 1.15418,0.56769 2.28355,1.25033 3.43536,1.8489 0.8624,0.48972 1.82059,0.91878 2.63105,1.4387 -1.76763,0.86117 -3.56519,1.66173 -5.38684,2.39782 -2.31692,-0.844 -4.54329,-1.93739 -6.58363,-3.32923 -0.60681,-0.24389 0.26991,-0.29645 0.50153,-0.43221 1.81709,-0.59278 3.61664,-1.2527 5.40253,-1.92398 z m 25.75342,2.87585 c 1.32206,0.31159 2.65646,0.56589 3.98755,0.83484 -1.71912,1.61394 -3.53401,3.13305 -5.40503,4.57154 -0.26753,0.19908 -0.57469,0.46004 -0.92759,0.28733 -2.11513,-0.50721 -4.22175,-1.08687 -6.28579,-1.78306 2.59395,-1.09119 5.04049,-2.55614 7.31665,-4.21887 0.43807,0.10274 0.87614,0.20548 1.31421,0.30822 z m -33.32007,-0.24426 c 0.56304,0.321 1.0879,0.75654 1.65549,1.09212 1.56835,1.0144 3.24039,1.86584 4.96219,2.58098 -2.06987,0.79632 -4.21408,1.43299 -6.35999,1.96069 -0.41156,0.17856 -0.72397,-0.27574 -1.04296,-0.44641 -1.57062,-1.20508 -3.048792,-2.52855 -4.446659,-3.9314 1.751699,-0.33493 3.465129,-0.8459 5.198119,-1.25525 l 0.0187,-8.5e-4 z" transform="scale(0.26458333)"/>
      <path style="fill:none;fill-opacity:1;stroke:#000000;stroke-width:0.529167;stroke-linecap:butt;stroke-linejoin:miter;stroke-dasharray:none;stroke-opacity:1" d="m 31.509705,38.320142 c -6.081801,0.171349 -8.04686,2.488592 -7.376294,7.182507 4.023347,-0.670559 5.699886,-1.147212 7.376294,-2.8236 1.504735,1.730408 3.352947,2.153041 7.376294,2.8236 0.670566,-4.693915 -1.43481,-7.011158 -7.376294,-7.182507 z"/>
      <rect style="fill:#ffff00;fill-opacity:1;stroke:#000000;stroke-width:0.132292;stroke-linecap:round;stroke-linejoin:round;stroke-dasharray:none;stroke-opacity:1" width="0.52916664" height="1.6205729" x="23.151041" y="45.673698"/>
      <rect style="display:inline;fill:#ffff00;fill-opacity:1;stroke:#000000;stroke-width:0.132292;stroke-linecap:round;stroke-linejoin:round;stroke-dasharray:none;stroke-opacity:1" width="0.52916664" height="1.6205729" x="39.489063" y="45.756378"/>
    </g></g></g></svg>