<svg xmlns="http://www.w3.org/2000/svg" xmlns:xlink="http://www.w3.org/1999/xlink" width="64" height="64" viewBox="0 0 64 64"><defs id="defs355716">
    <rect x="172" y="97" width="745" height="239" id="rect276290"/>
    <color-profile name="Agfa-:-Swop-Standard" xmlns:xlink="http://www.w3.org/1999/xlink" xlink:href="file:///C:/WINDOWS/system32/spool/drivers/color/RSWOP.icm" id="color-profile294613"/>
    <linearGradient xmlns:inkscape="http://www.inkscape.org/namespaces/inkscape" inkscape:collect="always" id="linearGradient140439">
      <stop style="stop-color:#a4a870;stop-opacity:1;" offset="0" id="stop140435"/>
      <stop style="stop-color:#a4a870;stop-opacity:0;" offset="1" id="stop140437"/>
    </linearGradient>
    <linearGradient xmlns:inkscape="http://www.inkscape.org/namespaces/inkscape" inkscape:collect="always" id="linearGradient140390">
      <stop style="stop-color:#359676;stop-opacity:1;" offset="0" id="stop140386"/>
      <stop style="stop-color:#4a6a5e;stop-opacity:0;" offset="1" id="stop140388"/>
    </linearGradient>
    <linearGradient xmlns:inkscape="http://www.inkscape.org/namespaces/inkscape" inkscape:collect="always" id="linearGradient139515">
      <stop style="stop-color:#dbd764;stop-opacity:1;" offset="0" id="stop139511"/>
      <stop style="stop-color:#dbd764;stop-opacity:0;" offset="0.56578946" id="stop139513"/>
    </linearGradient>
    <linearGradient xmlns:inkscape="http://www.inkscape.org/namespaces/inkscape" inkscape:collect="always" id="linearGradient139325">
      <stop style="stop-color:#161c16;stop-opacity:1;" offset="0" id="stop139321"/>
      <stop style="stop-color:#6e836c;stop-opacity:0;" offset="1" id="stop139323"/>
    </linearGradient>
    <linearGradient xmlns:inkscape="http://www.inkscape.org/namespaces/inkscape" inkscape:collect="always" id="linearGradient387614">
      <stop style="stop-color:#a4a870;stop-opacity:1;" offset="0" id="stop387610"/>
      <stop style="stop-color:#a4a870;stop-opacity:0;" offset="1" id="stop387612"/>
    </linearGradient>
    <linearGradient xmlns:inkscape="http://www.inkscape.org/namespaces/inkscape" inkscape:collect="always" id="linearGradient387421">
      <stop style="stop-color:#344533;stop-opacity:1;" offset="0" id="stop387417"/>
      <stop style="stop-color:#1d251d;stop-opacity:0;" offset="1" id="stop387419"/>
    </linearGradient>
    <linearGradient xmlns:inkscape="http://www.inkscape.org/namespaces/inkscape" inkscape:collect="always" xmlns:xlink="http://www.w3.org/1999/xlink" xlink:href="#linearGradient206680" id="linearGradient206682" x1="168.01042" y1="262.08701" x2="168.01042" y2="247.38542" gradientUnits="userSpaceOnUse"/>
    <linearGradient xmlns:inkscape="http://www.inkscape.org/namespaces/inkscape" inkscape:collect="always" id="linearGradient206680">
      <stop style="stop-color:#dbd764;stop-opacity:0;" offset="0.38377193" id="stop206678"/>
      <stop style="stop-color:#dbd764;stop-opacity:1;" offset="1" id="stop206676"/>
    </linearGradient>
    <linearGradient xmlns:inkscape="http://www.inkscape.org/namespaces/inkscape" inkscape:collect="always" xmlns:xlink="http://www.w3.org/1999/xlink" xlink:href="#linearGradient216292" id="linearGradient216294" x1="168.01042" y1="236.00833" x2="168.01042" y2="248.97292" gradientUnits="userSpaceOnUse" gradientTransform="translate(8.4073796,-0.78650088)"/>
    <linearGradient xmlns:inkscape="http://www.inkscape.org/namespaces/inkscape" inkscape:collect="always" id="linearGradient216292">
      <stop style="stop-color:#359676;stop-opacity:1;" offset="0" id="stop216288"/>
      <stop style="stop-color:#4a6a5f;stop-opacity:0;" offset="1" id="stop216290"/>
    </linearGradient>
    <linearGradient xmlns:inkscape="http://www.inkscape.org/namespaces/inkscape" inkscape:collect="always" xmlns:xlink="http://www.w3.org/1999/xlink" xlink:href="#linearGradient387421" id="linearGradient387423" x1="31.75" y1="155.31041" x2="31.921236" y2="171.18663" gradientUnits="userSpaceOnUse"/>
    <linearGradient xmlns:inkscape="http://www.inkscape.org/namespaces/inkscape" inkscape:collect="always" xmlns:xlink="http://www.w3.org/1999/xlink" xlink:href="#linearGradient387614" id="linearGradient387616" x1="45.011326" y1="158.73975" x2="51.59375" y2="162.71875" gradientUnits="userSpaceOnUse" gradientTransform="translate(2.9601329,-0.98671096)"/>
    <linearGradient xmlns:inkscape="http://www.inkscape.org/namespaces/inkscape" inkscape:collect="always" xmlns:xlink="http://www.w3.org/1999/xlink" xlink:href="#linearGradient387614" id="linearGradient387620" gradientUnits="userSpaceOnUse" x1="45.011326" y1="158.73975" x2="51.593746" y2="162.71875" gradientTransform="matrix(-1,0,0,1,108.79346,-0.98671096)"/>
    <linearGradient xmlns:inkscape="http://www.inkscape.org/namespaces/inkscape" inkscape:collect="always" xmlns:xlink="http://www.w3.org/1999/xlink" xlink:href="#linearGradient139325" id="linearGradient139327" x1="70" y1="21" x2="70" y2="37" gradientUnits="userSpaceOnUse"/>
    <linearGradient xmlns:inkscape="http://www.inkscape.org/namespaces/inkscape" inkscape:collect="always" xmlns:xlink="http://www.w3.org/1999/xlink" xlink:href="#linearGradient139515" id="linearGradient139517" x1="70.426315" y1="1.5429174" x2="70.46106" y2="18.249472" gradientUnits="userSpaceOnUse"/>
    <linearGradient xmlns:inkscape="http://www.inkscape.org/namespaces/inkscape" inkscape:collect="always" xmlns:xlink="http://www.w3.org/1999/xlink" xlink:href="#linearGradient140390" id="linearGradient140392" x1="90.084175" y1="1.3586814" x2="90" y2="16" gradientUnits="userSpaceOnUse"/>
    <linearGradient xmlns:inkscape="http://www.inkscape.org/namespaces/inkscape" inkscape:collect="always" xmlns:xlink="http://www.w3.org/1999/xlink" xlink:href="#linearGradient140439" id="linearGradient140441" x1="90.01368" y1="24.010059" x2="94.88681" y2="28.136377" gradientUnits="userSpaceOnUse"/>
    <linearGradient xmlns:inkscape="http://www.inkscape.org/namespaces/inkscape" inkscape:collect="always" xmlns:xlink="http://www.w3.org/1999/xlink" xlink:href="#linearGradient140439" id="linearGradient140449" gradientUnits="userSpaceOnUse" x1="90.01368" y1="24.010059" x2="94.88681" y2="28.136377" gradientTransform="matrix(-1,0,0,1,190,0)"/>
    <radialGradient xmlns:inkscape="http://www.inkscape.org/namespaces/inkscape" inkscape:collect="always" xmlns:xlink="http://www.w3.org/1999/xlink" xlink:href="#linearGradient177339" id="radialGradient177341-3-0" cx="44.135807" cy="121.46028" fx="44.135807" fy="121.46028" r="1.1079427" gradientTransform="matrix(1.5015971,0,0,0.99367432,-157.6034,-4.3351259)" gradientUnits="userSpaceOnUse"/>
    <linearGradient xmlns:inkscape="http://www.inkscape.org/namespaces/inkscape" inkscape:collect="always" id="linearGradient177339">
      <stop style="stop-color:#b98d3e;stop-opacity:1;" offset="0" id="stop177335"/>
      <stop style="stop-color:#c9c943;stop-opacity:0;" offset="1" id="stop177337"/>
    </linearGradient>
    <radialGradient xmlns:inkscape="http://www.inkscape.org/namespaces/inkscape" inkscape:collect="always" xmlns:xlink="http://www.w3.org/1999/xlink" xlink:href="#linearGradient177339" id="radialGradient177345-7-9" gradientUnits="userSpaceOnUse" gradientTransform="matrix(1.5015971,0,0,0.99367432,-195.50719,-68.761115)" cx="44.135807" cy="121.46028" fx="44.135807" fy="121.46028" r="1.1079427"/>
    <rect x="172" y="97" width="745" height="239" id="rect276290-2"/>
    <rect x="172" y="97" width="745" height="239" id="rect276290-2-5"/>
    <rect x="172" y="97" width="745" height="239" id="rect276290-2-5-7"/>
  </defs><g transform="translate(-231.90521895931863 -115.51064836588733) scale(2.113985972295384)"><g><g transform="translate(29.684241,-114.7049)">
      <g transform="translate(-0.03307292,1.1575521)">
        <path style="fill:#333333;fill-opacity:1;fill-rule:evenodd;stroke:#000000;stroke-width:0.264583px;stroke-linecap:butt;stroke-linejoin:miter;stroke-opacity:1" d="m 95.580728,177.27083 c 0.700243,-0.26812 1.031102,-0.99877 1.403099,-1.59441 0.540816,-1.09401 1.121356,-2.28498 2.229196,-2.9081 0.36312,-0.40313 1.112287,-0.52847 1.538177,-0.18059 0.17825,0.37708 0.20052,0.89435 -0.0122,1.25732 -0.22084,0.44088 -0.40585,0.90262 -0.62809,1.34516 -0.282717,0.77976 -0.774047,1.45854 -1.160087,2.18783 -0.32762,0.6707 -0.87348,1.22928 -1.55098,1.54636"/>
        <path style="fill:none;fill-rule:evenodd;stroke:#000000;stroke-width:0.264583px;stroke-linecap:butt;stroke-linejoin:miter;stroke-opacity:1" d="m 98.350175,173.4195 c 0.169208,0.24274 0.401487,0.43575 0.681571,0.53526 0.377083,0.15347 0.785308,0.20617 1.182544,0.28081 0.0802,0.006 0.16054,0.003 0.2408,0.003"/>
        <path style="fill:#e0e072;fill-opacity:1;stroke:#000000;stroke-width:0.176777;stroke-linecap:round;stroke-linejoin:round;stroke-dasharray:none;stroke-opacity:1" d="m 378.26829,652.11265 c -2.10214,0.0283 -3.55649,1.84552 -5.19799,2.9037 -0.48779,0.20229 -0.71713,0.76571 -0.15054,1.03753 1.93148,1.25902 4.31145,1.85592 6.59771,1.89171 0.72733,-0.49445 0.85749,-1.56429 1.14214,-2.34954 0.15851,-1.01772 0.22388,-2.38871 -0.61216,-3.12432 -0.53859,-0.29798 -1.17334,-0.36499 -1.77916,-0.35908 z" transform="scale(0.26458333)"/>
      </g>
      <g transform="translate(-0.16536458,0.44648437)">
        <path style="fill:#333333;fill-opacity:1;fill-rule:evenodd;stroke:#000000;stroke-width:0.264583px;stroke-linecap:butt;stroke-linejoin:miter;stroke-opacity:1" d="m 90.95052,178.1638 c -0.170716,-0.46715 -0.216426,-0.96785 -0.481938,-1.40237 -0.228785,-0.39992 -0.551636,-0.73665 -0.808648,-1.1173 -0.239051,-0.23604 -0.381099,-0.54514 -0.542644,-0.83526 -0.08597,-0.49747 -0.254229,-0.98905 -0.216947,-1.49956 -0.1122,-0.45726 0.397445,-0.71047 0.785972,-0.66846 0.33094,0.0523 0.751121,0.27837 0.874067,0.54167 0.18458,0.28603 0.274181,0.65475 0.440735,0.9782 0.110362,0.32586 0.256529,0.6747 0.449224,0.94239 0.148354,0.29551 0.393091,0.53653 0.577307,0.81709 0.242335,0.35479 0.497388,0.72027 0.558902,1.1532 0.131371,0.29544 0.07047,0.61352 0.08376,0.9252"/>
        <path style="fill:none;fill-rule:evenodd;stroke:#000000;stroke-width:0.264583px;stroke-linecap:butt;stroke-linejoin:miter;stroke-opacity:1" d="m 89.065363,174.18678 c 0.126704,0.0406 0.256406,0.0725 0.390661,0.0659 0.255622,1e-5 0.511249,-7.7e-4 0.766883,-2.1e-4 0.119771,-0.0483 0.252464,-0.0571 0.365955,-0.1231 0.0882,-0.0374 0.17623,-0.0808 0.245963,-0.14789"/>
        <path style="fill:#e0e072;fill-opacity:1;stroke:#000000;stroke-width:0.176777;stroke-linecap:round;stroke-linejoin:round;stroke-dasharray:none;stroke-opacity:1" d="m 338.41689,653.06559 c -0.98815,-0.007 -2.16937,0.71199 -1.85823,1.85339 0.1172,0.94777 -0.094,2.06087 0.3242,2.92545 1.68122,0.28613 3.46068,0.10697 5.1469,-0.13603 0.65206,-0.0301 0.98942,-0.70302 0.60801,-1.24055 -0.61193,-1.53645 -1.69355,-3.08347 -3.45577,-3.33631 -0.25149,-0.0502 -0.50862,-0.0753 -0.76511,-0.0659 z" transform="scale(0.26458333)"/>
      </g>
      <g transform="rotate(-19.423801,88.781546,179.22324)">
        <path style="fill:#333333;fill-opacity:1;fill-rule:evenodd;stroke:#000000;stroke-width:0.264583px;stroke-linecap:butt;stroke-linejoin:miter;stroke-opacity:1" d="m 91.984534,179.28828 c -0.70024,-0.26812 -1.0311,-0.99877 -1.4031,-1.59441 -0.54081,-1.09401 -1.12135,-2.28498 -2.22919,-2.9081 -0.36312,-0.40313 -1.11229,-0.52847 -1.53818,-0.18059 -0.17825,0.37708 -0.20052,0.89435 0.0122,1.25732 0.22084,0.44088 0.40585,0.90262 0.62809,1.34516 0.28272,0.77976 0.77405,1.45854 1.16009,2.18783 0.32762,0.6707 0.87348,1.22928 1.55098,1.54636"/>
        <path style="fill:none;fill-rule:evenodd;stroke:#000000;stroke-width:0.264583px;stroke-linecap:butt;stroke-linejoin:miter;stroke-opacity:1" d="m 87.07272,176.38614 c 0.28537,0.0433 0.710868,-0.0654 0.953931,-0.20875 0.185676,-0.10914 0.359939,-0.23681 0.532194,-0.36552 0.07152,-0.0647 0.359046,-0.39934 0.40082,-0.48666"/>
        <path style="fill:#e0e072;fill-opacity:1;stroke:#000000;stroke-width:0.0441942;stroke-linecap:round;stroke-linejoin:round;stroke-dasharray:none;stroke-opacity:1" d="m 330.4281,659.66088 c -0.65908,0.0143 -1.37323,0.14401 -1.88645,0.58324 -0.31346,0.55195 -0.39873,1.20852 -0.4543,1.83294 -0.0813,0.94879 0.21826,1.88004 0.66755,2.70472 0.24177,0.46829 0.44193,0.96832 0.68617,1.42769 0.99626,0.005 1.99513,-0.25619 2.88102,-0.70643 1.00328,-0.58747 2.00917,-1.22478 2.74774,-2.1407 0.22798,-0.28436 0.49995,-0.56746 0.66701,-0.87856 -0.66927,-0.61028 -1.46514,-1.05094 -2.18805,-1.58866 -0.83623,-0.79846 -1.96047,-1.25896 -3.12069,-1.23424 z" transform="scale(0.26458333)"/>
      </g>
      <g transform="translate(0.48543334,2.1282171)">
        <path style="fill:#333333;fill-opacity:1;fill-rule:evenodd;stroke:#000000;stroke-width:0.264583px;stroke-linecap:butt;stroke-linejoin:miter;stroke-opacity:1" d="m 91.148957,177.07239 c 0.170496,-0.67727 0.368004,-1.36498 0.296569,-2.07118 -0.06,-0.99536 -0.02229,-1.99241 -0.03198,-2.98895 0.119461,-0.45725 0.192779,-1.10948 0.70977,-1.27785 0.416793,-0.079 0.916456,0.19137 0.921795,0.65182 0.08077,0.57931 -0.03943,1.16997 0.06296,1.74958 8.71e-4,0.448 0.161783,0.87819 0.211086,1.32075 0.107546,0.60352 0.06014,1.22379 -0.136921,1.80401 -0.07142,0.32952 -0.06733,0.67802 -0.01588,1.01007"/>
        <path style="fill:none;fill-rule:evenodd;stroke:#000000;stroke-width:0.264583px;stroke-linecap:butt;stroke-linejoin:miter;stroke-opacity:1" d="m 91.388736,172.16107 c 0.192031,0.0417 0.386525,0.0714 0.573733,0.13164 0.229912,0.0513 0.466597,0.0286 0.699901,0.0292 0.121733,-0.0217 0.240614,-0.0738 0.355419,-0.12064"/>
        <path style="fill:#e0e072;fill-opacity:1;stroke:#000000;stroke-width:0.176777;stroke-linecap:round;stroke-linejoin:round;stroke-dasharray:none;stroke-opacity:1" d="m 348.53321,645.76872 c -1.67881,0.49831 -2.01449,2.53125 -2.39546,3.99508 -0.0956,0.92666 1.24689,0.73518 1.8268,0.88941 1.1154,0.0417 2.34478,0.22856 3.36843,-0.30452 -0.2114,-1.45556 0.13415,-3.71241 -1.58236,-4.38179 -0.38939,-0.13011 -0.80544,-0.2143 -1.21741,-0.19818 z" transform="scale(0.26458333)"/>
      </g>
      <g transform="translate(-0.30519429,1.806688)">
        <path style="fill:#333333;fill-opacity:1;fill-rule:evenodd;stroke:#000000;stroke-width:0.264583px;stroke-linecap:butt;stroke-linejoin:miter;stroke-opacity:1" d="m 97.246812,176.9698 c 0.06597,-0.41437 0.110373,-0.8325 0.193994,-1.24386 -0.142725,0.61187 -0.05733,-0.3631 0.0072,-0.54143 0.09068,-0.58417 0.06572,-1.17821 0.06668,-1.76701 -0.116644,-0.60918 -0.09624,-1.29724 -0.53936,-1.78525 -0.377074,-0.40514 -0.621926,-0.96623 -1.113683,-1.24028 -0.439518,-0.11847 -1.341303,-0.24705 -1.419423,0.37958 -0.03234,0.58603 0.279316,1.08029 0.604955,1.53634 0.331555,0.62362 0.530583,1.35296 0.457225,2.05922 -0.143047,0.65357 -0.240837,1.33519 -0.617371,1.90326 l -0.05341,0.0899 -0.05608,0.0864"/>
        <path style="fill:none;fill-rule:evenodd;stroke:#000000;stroke-width:0.264583px;stroke-linecap:butt;stroke-linejoin:miter;stroke-opacity:1" d="m 94.947498,172.05141 c 0.603341,0.0554 1.210026,-0.21675 1.636397,-0.63241 l 0.03804,-0.0504 0.03279,-0.0541"/>
        <path style="fill:#e0e072;fill-opacity:1;stroke:#000000;stroke-width:0.0441942;stroke-linecap:round;stroke-linejoin:round;stroke-dasharray:none;stroke-opacity:1" d="m 359.58244,644.13198 c -0.68066,0.0149 -1.48471,0.13097 -1.91312,0.72394 -0.34555,0.46419 -0.21618,1.07269 -0.18763,1.60708 0.15337,1.20166 0.7289,2.29921 1.34867,3.32161 2.07608,0.19921 4.13955,-0.69252 5.6711,-2.06323 0.16719,-0.12043 0.3705,-0.33774 0.20414,-0.54544 -0.68281,-0.96189 -1.40052,-1.95628 -2.40755,-2.60392 -0.57991,-0.29972 -1.25618,-0.32949 -1.89311,-0.40994 -0.27347,-0.0228 -0.54807,-0.0341 -0.8225,-0.0301 z" transform="scale(0.26458333)"/>
      </g>
      <g transform="rotate(17.901314,97.230958,177.7706)">
        <path style="fill:#333333;fill-opacity:1;fill-rule:evenodd;stroke:#000000;stroke-width:0.264583px;stroke-linecap:butt;stroke-linejoin:miter;stroke-opacity:1" d="m 97.796613,178.75911 c 0.70024,-0.26812 1.0311,-0.99877 1.4031,-1.59441 0.54081,-1.09401 1.121347,-2.28498 2.229187,-2.9081 0.36312,-0.40313 1.11229,-0.52847 1.53818,-0.18059 0.17825,0.37708 0.20052,0.89435 -0.0122,1.25732 -0.22084,0.44088 -0.40585,0.90262 -0.62809,1.34516 -0.28272,0.77976 -0.77405,1.45854 -1.16009,2.18783 -0.32762,0.6707 -0.87348,1.22928 -1.550977,1.54636"/>
        <path style="fill:none;fill-rule:evenodd;stroke:#000000;stroke-width:0.264583px;stroke-linecap:butt;stroke-linejoin:miter;stroke-opacity:1" d="m 102.88984,175.51797 c -0.2755,-0.003 -0.55183,0.005 -0.82681,-7.9e-4 -0.14556,-0.0587 -0.29348,-0.1209 -0.42092,-0.21102 -0.0638,-0.0359 -0.23714,-0.12819 -0.3333,-0.22577 -0.11876,-0.11273 -0.33532,-0.29984 -0.39214,-0.37735"/>
        <path style="fill:#e0e072;fill-opacity:1;stroke:#000000;stroke-width:0.176777;stroke-linecap:round;stroke-linejoin:round;stroke-dasharray:none;stroke-opacity:1" d="m 386.39035,657.79057 c -1.77611,0.093 -3.08236,1.52607 -4.45671,2.42999 1.5111,1.15013 3.06095,2.7971 5.14586,2.54185 0.93628,0.13327 1.79256,0.10078 1.85202,-1.03269 0.24494,-1.12267 0.31997,-2.47725 -0.31558,-3.47856 -0.58225,-0.52893 -1.49932,-0.4464 -2.22559,-0.46059 z" transform="scale(0.26458333)"/>
      </g>
      <g transform="translate(-0.44972491,1.4027617)">
        <path style="fill:#333333;fill-opacity:1;fill-rule:evenodd;stroke:#000000;stroke-width:0.264583px;stroke-linecap:butt;stroke-linejoin:miter;stroke-opacity:1" d="m 91.422299,179.22213 c -1.45387,-0.79415 -2.86734,-1.65267 -4.29512,-2.49117 -0.70111,-0.41989 -1.47228,-0.77145 -2.29117,-0.86334 -0.694833,-0.14361 -0.896763,0.66896 -0.824763,1.19611 0.0503,0.85694 0.881953,1.27771 1.550863,1.61935 1.10055,0.62214 2.00461,1.52675 3.02795,2.25232 0.48404,0.27559 0.95759,0.60302 1.47595,0.80001"/>
        <path style="fill:none;fill-rule:evenodd;stroke:#000000;stroke-width:0.264583px;stroke-linecap:butt;stroke-linejoin:miter;stroke-opacity:1" d="m 85.295051,178.46146 c 0.31698,-0.16713 0.639865,-0.32564 0.937592,-0.52629 0.277445,-0.1004 0.344643,-0.35652 0.445569,-0.60254 0.10405,-0.20105 0.09745,-0.43026 0.181716,-0.63667 l -1.75e-4,-0.0429 -0.01029,-0.0439"/>
        <path style="fill:#e0e072;fill-opacity:1;stroke:#000000;stroke-width:0.176777;stroke-linecap:round;stroke-linejoin:round;stroke-dasharray:none;stroke-opacity:1" d="m 319.81148,665.21381 c -1.4724,0.20011 -1.73954,2.0522 -1.77501,3.2721 -0.15915,1.8894 1.03994,3.50575 2.49359,4.57326 0.6362,0.3263 1.32999,1.41641 2.05762,0.72869 1.22785,-0.83561 2.83133,-1.22428 3.81322,-2.37651 0.77598,-1.11192 1.07751,-2.4867 1.33066,-3.78378 -2.48783,-1.18298 -5.12797,-2.3147 -7.92008,-2.41376 z" transform="scale(0.26458333)"/>
      </g>
      <g transform="translate(-0.86224629,1.3469911)">
        <path style="fill:#333333;fill-opacity:1;fill-rule:evenodd;stroke:#000000;stroke-width:0.264583px;stroke-linecap:butt;stroke-linejoin:miter;stroke-opacity:1" d="m 88.412665,180.34662 c -0.35676,-0.0932 -0.63955,-0.35253 -0.95454,-0.5319 -0.24016,-0.11969 -0.44962,-0.22636 -0.53755,-0.30331 -0.25867,-0.12602 -0.53752,-0.18728 -0.79202,-0.31856 -0.38131,-0.11481 -0.7306,-0.32975 -1.12998,-0.38215 -0.11471,-0.0119 -0.53031,-0.0732 -0.76316,0.0394 -0.38656,0.19751 -0.85426,0.24662 -1.157543,0.58106 -0.22961,0.23409 -0.21183,0.64533 -0.0248,0.89792 0.14759,0.25945 0.440033,0.35836 0.684563,0.49992 0.41232,0.18113 0.84193,0.34281 1.29194,0.38762 0.30689,0.14046 0.63568,0.18779 0.92989,0.36151 0.39261,0.17146 0.83589,0.29506 1.16329,0.58766 0.16513,0.0441 0.34691,0.18679 0.46298,0.19849"/>
        <path style="fill:none;fill-rule:evenodd;stroke:#000000;stroke-width:0.264583px;stroke-linecap:butt;stroke-linejoin:miter;stroke-opacity:1" d="m 85.295051,181.27265 c 0.112605,-0.19528 0.149439,-0.45993 0.331469,-0.59333 0.07574,-0.16396 0.143314,-0.33028 0.155181,-0.51444 0.07349,-0.16415 0.03289,-0.34371 0.04242,-0.5168 -0.0313,-0.17248 0.07469,-0.41021 -0.04911,-0.54046 -0.01882,-0.0111 -0.05776,-0.02 -0.05004,-0.0505"/>
        <path style="fill:#e0e072;fill-opacity:1;stroke:#000000;stroke-width:0.176777;stroke-linecap:round;stroke-linejoin:round;stroke-dasharray:none;stroke-opacity:1" d="m 319.73173,676.33037 c -1.77375,0.18416 -3.46202,0.99623 -4.98393,1.89275 -1.44671,0.9829 -0.75774,3.21021 0.59109,3.95504 2.00788,1.17599 4.28268,2.06485 6.60772,2.26253 0.58159,-0.40393 0.63098,-1.30695 1.1349,-1.82473 0.91652,-1.60103 0.81825,-3.54987 0.69675,-5.31988 -1.23395,-0.77552 -2.608,-1.00116 -4.04653,-0.96571 z" transform="scale(0.26458333)"/>
      </g>
      <g transform="translate(-0.32878201,1.2624452)">
        <path style="fill:#333333;fill-opacity:1;fill-rule:evenodd;stroke:#000000;stroke-width:0.264583px;stroke-linecap:butt;stroke-linejoin:miter;stroke-opacity:1" d="m 88.412669,182.33098 c -0.83477,-0.21159 -1.68374,-0.43126 -2.55307,-0.36289 -0.93041,0.008 -1.86336,-0.0248 -2.792143,0.0241 -0.35173,0.0973 -0.96328,0.37549 -0.80449,0.82167 0.33289,0.37912 0.89499,0.33745 1.34463,0.47335 0.728793,0.14622 1.457463,0.28977 2.182643,0.45072 0.61139,0.10728 1.22081,0.22373 1.82419,0.36961 0.10282,0.0137 0.20472,0.0391 0.30165,0.0761"/>
        <path style="fill:none;fill-rule:evenodd;stroke:#000000;stroke-width:0.264583px;stroke-linecap:butt;stroke-linejoin:miter;stroke-opacity:1" d="m 84.302864,182.03333 c 0.09118,0.01 0.202369,0.0431 0.207459,0.15278 0.03667,0.0834 0.07187,0.16982 0.06082,0.26296 -0.0029,0.15892 0.02665,0.32999 -0.05613,0.47446 -0.04619,0.0898 -0.06936,0.18609 -0.143627,0.26108 -0.05108,0.0562 -0.123373,0.15705 -0.216415,0.15324 -0.0084,0.003 -0.01175,0.0121 -0.01742,0.0184"/>
        <path style="fill:#e0e072;fill-opacity:1;stroke:#000000;stroke-width:0.176777;stroke-linecap:round;stroke-linejoin:round;stroke-dasharray:none;stroke-opacity:1" d="m 316.22761,688.34324 c -1.68737,-0.002 -3.87737,0.0883 -4.80024,1.76121 -0.3214,1.0353 1.17113,1.2178 1.83723,1.46443 1.55357,0.31159 3.13031,0.94243 4.72767,0.77877 1.24623,-0.69662 1.30307,-2.51871 0.84625,-3.71921 -0.66319,-0.49331 -1.83132,-0.18948 -2.61091,-0.2852 z" transform="scale(0.26458333)"/>
      </g>
      <g transform="translate(0.29668264,1.5327029)">
        <path style="fill:#333333;fill-opacity:1;fill-rule:evenodd;stroke:#000000;stroke-width:0.264583px;stroke-linecap:butt;stroke-linejoin:miter;stroke-opacity:1" d="m 98.788796,179.22213 c 1.453874,-0.79415 2.867344,-1.65267 4.295124,-2.49117 0.70111,-0.41989 1.47228,-0.77145 2.29117,-0.86334 0.69483,-0.14361 0.89676,0.66896 0.82476,1.19611 -0.0503,0.85694 -0.88195,1.27771 -1.55086,1.61935 -1.10055,0.62214 -2.00461,1.52675 -3.02795,2.25232 -0.48404,0.27559 -0.95759,0.60302 -1.47595,0.80001"/>
        <path style="fill:none;fill-rule:evenodd;stroke:#000000;stroke-width:0.264583px;stroke-linecap:butt;stroke-linejoin:miter;stroke-opacity:1" d="m 103.61745,176.37786 c 0.0295,0.18592 -0.0886,0.34818 -0.10602,0.52 -0.0231,0.24243 0.0817,0.46768 0.15816,0.69128 0.0855,0.16556 0.10571,0.33007 0.23458,0.465 0.15619,0.14221 0.32271,0.30474 0.54588,0.32103 0.1614,0.0156 0.3287,0.0433 0.46739,0.12029 0.0407,0.002 0.0814,-0.002 0.12211,-5.6e-4"/>
        <path style="fill:#e0e072;fill-opacity:1;stroke:#000000;stroke-width:0.176777;stroke-linecap:round;stroke-linejoin:round;stroke-dasharray:none;stroke-opacity:1" d="m 398.70568,665.22762 c -2.30333,0.16213 -4.50228,0.99627 -6.587,1.93211 -0.44984,1.15799 -0.4197,2.40274 0.1132,3.52577 0.43409,1.45646 1.44764,2.94989 3.10892,3.05971 0.76544,0.33507 1.65776,0.42225 2.30303,-0.20703 1.7129,-1.05506 3.42488,-2.74889 3.19594,-4.93903 0.01,-1.32516 -0.32574,-3.55895 -2.13409,-3.37153 z" transform="scale(0.26458333)"/>
      </g>
      <g transform="translate(0.67086001,1.6980675)">
        <path style="fill:#333333;fill-opacity:1;fill-rule:evenodd;stroke:#000000;stroke-width:0.264583px;stroke-linecap:butt;stroke-linejoin:miter;stroke-opacity:1" d="m 101.79843,180.34662 c 0.35676,-0.0932 0.63955,-0.35253 0.95454,-0.5319 0.24016,-0.11969 0.44962,-0.22636 0.53755,-0.30331 0.25867,-0.12602 0.53752,-0.18728 0.79202,-0.31856 0.38131,-0.11481 0.7306,-0.32975 1.12998,-0.38215 0.11471,-0.0119 0.53031,-0.0732 0.76316,0.0394 0.38656,0.19751 0.85426,0.24662 1.15754,0.58106 0.22961,0.23409 0.21183,0.64533 0.0248,0.89792 -0.14759,0.25945 -0.44003,0.35836 -0.68456,0.49992 -0.41232,0.18113 -0.84193,0.34281 -1.29194,0.38762 -0.30689,0.14046 -0.63568,0.18779 -0.92989,0.36151 -0.39261,0.17146 -0.83589,0.29506 -1.16329,0.58766 -0.16513,0.0441 -0.34691,0.18679 -0.46298,0.19849"/>
        <path style="fill:none;fill-rule:evenodd;stroke:#000000;stroke-width:0.264583px;stroke-linecap:butt;stroke-linejoin:miter;stroke-opacity:1" d="m 104.70885,179.0237 c 0.049,0.32989 0.0664,0.6696 0.17514,0.98605 -0.007,0.18611 0.0952,0.32634 0.15965,0.48934 0.0491,0.17541 0.21856,0.27627 0.27238,0.45321 0.10791,0.0858 0.0589,0.11757 0.18844,0.21707"/>
        <path style="fill:#e0e072;fill-opacity:1;stroke:#000000;stroke-width:0.176777;stroke-linecap:round;stroke-linejoin:round;stroke-dasharray:none;stroke-opacity:1" d="m 398.21402,676.32347 c -0.59168,0.11813 -1.52072,-0.001 -1.87031,0.57107 0.26551,2.48529 0.7488,5.22298 2.55394,7.08246 1.14314,0.0908 2.21596,-0.67509 3.28038,-1.03028 1.46691,-0.6132 3.30902,-1.95414 2.69653,-3.78309 -0.70877,-1.52094 -2.64228,-1.81795 -4.01614,-2.47867 -0.8489,-0.28199 -1.75135,-0.39919 -2.6444,-0.36149 z" transform="scale(0.26458333)"/>
      </g>
      <g transform="translate(0.42467678,1.8190104)">
        <path style="fill:#333333;fill-opacity:1;fill-rule:evenodd;stroke:#000000;stroke-width:0.264583px;stroke-linecap:butt;stroke-linejoin:miter;stroke-opacity:1" d="m 101.79843,182.33098 c 0.83477,-0.21159 1.68374,-0.43126 2.55307,-0.36289 0.93041,0.008 1.86336,-0.0248 2.79214,0.0241 0.35173,0.0973 0.96328,0.37549 0.80449,0.82167 -0.33289,0.37912 -0.89499,0.33745 -1.34463,0.47335 -0.72879,0.14622 -1.45746,0.28977 -2.18264,0.45072 -0.61139,0.10728 -1.22081,0.22373 -1.82419,0.36961 -0.10282,0.0137 -0.20472,0.0391 -0.30165,0.0761"/>
        <path style="fill:none;fill-rule:evenodd;stroke:#000000;stroke-width:0.264583px;stroke-linecap:butt;stroke-linejoin:miter;stroke-opacity:1" d="m 106.16406,182.00026 c -0.0919,0.0745 -0.26502,0.11917 -0.26618,0.25559 0.005,0.22812 -2e-4,0.45622 -0.002,0.68433 0.0318,0.0881 0.14541,0.10779 0.17437,0.19724 0.0986,0.0322 0.11131,0.17873 0.22622,0.18589"/>
        <path style="fill:#e0e072;fill-opacity:1;stroke:#000000;stroke-width:0.176777;stroke-linecap:round;stroke-linejoin:round;stroke-dasharray:none;stroke-opacity:1" d="m 402.94383,688.34739 c -0.72132,0.1001 -2.2286,-0.16438 -2.20591,0.96053 -0.10893,1.04458 -0.0374,2.20235 0.92691,2.85031 0.72656,0.48939 1.84234,-0.25887 2.7236,-0.27669 1.02498,-0.34048 2.50906,-0.33393 3.09601,-1.38072 0.0194,-1.16561 -1.42675,-1.61442 -2.31018,-1.98391 -0.72322,-0.20371 -1.48717,-0.16722 -2.23043,-0.16952 z" transform="scale(0.26458333)"/>
      </g>
      <path style="fill:#333333;fill-opacity:1;stroke:#000000;stroke-width:0.529166;stroke-linecap:round;stroke-linejoin:round;stroke-dasharray:none" d="m 104,187 c 0,2.66781 -1.7738,4.95395 -5,6 -0.55614,0.18032 -2,1 -2,1 0,0 -1.474546,-0.42221 -1.999992,-0.42221 C 94.486765,193.57779 93,194 93,194 c 0,0 -1.454357,-0.82626 -2,-1 -3.249094,-1.03456 -5,-3.31158 -5,-6 0,-6.61458 3,-12 9,-12 6,0 9,5.38542 9,12 z"/>
      <path style="fill:#800000;fill-rule:evenodd;stroke:#000000;stroke-width:0.330729px;stroke-linecap:butt;stroke-linejoin:miter;stroke-opacity:1" d="m 101.61458,188.1047 c -3.259825,-2.14855 -9.871932,-2.26059 -13.229162,0 5.051797,4.50664 8.454186,4.29148 13.229162,0 z"/>
      <g style="fill:#ffffd9;fill-opacity:1" transform="matrix(1.25,0,0,1.25,-7.526041,4.2547008)">
        <path style="fill:#ffffd9;fill-opacity:1;fill-rule:evenodd;stroke:#000000;stroke-width:0.264583px;stroke-linecap:butt;stroke-linejoin:miter;stroke-opacity:1" d="m 80.433333,149.58858 0.529166,-1.32292 0.264583,1.32292"/>
        <path style="fill:#ffffd9;fill-opacity:1;fill-rule:evenodd;stroke:#000000;stroke-width:0.264583px;stroke-linecap:butt;stroke-linejoin:miter;stroke-opacity:1" d="m 83.608332,149.58858 -0.529166,-1.32292 -0.264583,1.32292"/>
        <path style="fill:#ffffd9;fill-opacity:1;fill-rule:evenodd;stroke:#000000;stroke-width:0.264583px;stroke-linecap:butt;stroke-linejoin:miter;stroke-opacity:1" d="m 81.491666,149.78702 0.264583,-1.32292 0.264583,1.32292 0.264585,-1.32292 0.264583,1.32292"/>
        <path style="fill:#ffffd9;fill-opacity:1;fill-rule:evenodd;stroke:#000000;stroke-width:0.264583px;stroke-linecap:butt;stroke-linejoin:miter;stroke-opacity:1" d="m 80.16875,149.45629 -0.264584,-1.32292 -0.264584,1.05834"/>
        <path style="fill:#ffffd9;fill-opacity:1;fill-rule:evenodd;stroke:#000000;stroke-width:0.264583px;stroke-linecap:butt;stroke-linejoin:miter;stroke-opacity:1" d="m 79.440456,149.0131 -0.264584,-1.32292 -0.264584,1.05834"/>
        <path style="fill:#ffffd9;fill-opacity:1;fill-rule:evenodd;stroke:#000000;stroke-width:0.264583px;stroke-linecap:butt;stroke-linejoin:miter;stroke-opacity:1" d="m 78.712853,148.53354 -0.264584,-1.32292 -0.264584,1.05834"/>
        <path style="fill:#ffffd9;fill-opacity:1;fill-rule:evenodd;stroke:#000000;stroke-width:0.264583px;stroke-linecap:butt;stroke-linejoin:miter;stroke-opacity:1" d="m 83.774389,149.45629 0.264584,-1.32292 0.264584,1.05834"/>
        <path style="fill:#ffffd9;fill-opacity:1;fill-rule:evenodd;stroke:#000000;stroke-width:0.264583px;stroke-linecap:butt;stroke-linejoin:miter;stroke-opacity:1" d="m 84.502683,149.0131 0.264584,-1.32292 0.264584,1.05834"/>
        <path style="fill:#ffffd9;fill-opacity:1;fill-rule:evenodd;stroke:#000000;stroke-width:0.264583px;stroke-linecap:butt;stroke-linejoin:miter;stroke-opacity:1" d="m 85.230286,148.53354 0.264584,-1.32292 0.264584,1.05834"/>
      </g>
      <g style="fill:#ffffd9;fill-opacity:1" transform="matrix(1.25,0,0,1.25,-7.526041,4.5500067)">
        <path style="fill:#ffffd9;fill-opacity:1;fill-rule:evenodd;stroke:#000000;stroke-width:0.264583px;stroke-linecap:butt;stroke-linejoin:miter;stroke-opacity:1" d="m 80.433333,145.52083 0.529166,1.32292 0.264583,-1.32292"/>
        <path style="fill:#ffffd9;fill-opacity:1;fill-rule:evenodd;stroke:#000000;stroke-width:0.264583px;stroke-linecap:butt;stroke-linejoin:miter;stroke-opacity:1" d="m 83.608332,145.52083 -0.529166,1.32292 -0.264583,-1.32292"/>
        <path style="fill:#ffffd9;fill-opacity:1;fill-rule:evenodd;stroke:#000000;stroke-width:0.264583px;stroke-linecap:butt;stroke-linejoin:miter;stroke-opacity:1" d="m 81.491666,145.52083 0.264583,1.32292 0.264583,-1.32292 0.264585,1.32292 0.264583,-1.32292"/>
        <path style="fill:#ffffd9;fill-opacity:1;fill-rule:evenodd;stroke:#000000;stroke-width:0.264583px;stroke-linecap:butt;stroke-linejoin:miter;stroke-opacity:1" d="m 80.16875,145.52083 -0.264584,1.32292 -0.264584,-1.05834"/>
        <path style="fill:#ffffd9;fill-opacity:1;fill-rule:evenodd;stroke:#000000;stroke-width:0.264583px;stroke-linecap:butt;stroke-linejoin:miter;stroke-opacity:1" d="m 79.232142,145.71613 -0.148279,1.34093 -0.355818,-1.03125"/>
        <path style="fill:#ffffd9;fill-opacity:1;fill-rule:evenodd;stroke:#000000;stroke-width:0.238125px;stroke-linecap:butt;stroke-linejoin:miter;stroke-opacity:1" d="m 78.430045,145.94997 -0.133451,1.20683 -0.320236,-0.92812"/>
        <path style="fill:#ffffd9;fill-opacity:1;fill-rule:evenodd;stroke:#000000;stroke-width:0.264583px;stroke-linecap:butt;stroke-linejoin:miter;stroke-opacity:1" d="m 83.816664,145.52083 0.264584,1.32292 0.264584,-1.05834"/>
        <path style="fill:#ffffd9;fill-opacity:1;fill-rule:evenodd;stroke:#000000;stroke-width:0.264583px;stroke-linecap:butt;stroke-linejoin:miter;stroke-opacity:1" d="m 84.753272,145.71613 0.148279,1.34093 0.355818,-1.03125"/>
        <path style="fill:#ffffd9;fill-opacity:1;fill-rule:evenodd;stroke:#000000;stroke-width:0.238125px;stroke-linecap:butt;stroke-linejoin:miter;stroke-opacity:1" d="m 85.555369,145.94997 0.133451,1.20683 0.320236,-0.92812"/>
      </g>
      <path style="fill:none;fill-rule:evenodd;stroke:#000000;stroke-width:0.330729px;stroke-linecap:butt;stroke-linejoin:miter;stroke-opacity:1" d="m 101.61458,188.1047 c -3.259825,-2.14855 -9.871932,-2.26059 -13.229162,0 4.614582,4.42447 8.614582,4.42447 13.229162,0 z"/>
      <path style="fill:none;fill-rule:evenodd;stroke:#000000;stroke-width:0.330729px;stroke-linecap:butt;stroke-linejoin:miter;stroke-opacity:1" d="m 87.723958,179.30729 c 2.21204,1.37095 3.968751,1.65365 5.622396,4.96094 h 3.307291 c 1.653648,-3.30729 3.307293,-3.63801 5.622395,-4.96094"/>
      <path style="fill:#e0e072;fill-opacity:1;stroke:#000000;stroke-width:0.0233861;stroke-linecap:round;stroke-linejoin:round;stroke-dasharray:none;stroke-opacity:1" d="m 94.846919,175.27801 c -1.697233,0.002 -3.40814,0.54651 -4.734493,1.61898 -0.830268,0.66127 -1.515182,1.49809 -2.045597,2.41484 1.207246,0.73686 2.575105,1.28078 3.592131,2.29997 0.748435,0.70652 1.32619,1.57244 1.789819,2.48674 1.033886,0.006 2.075214,0.006 3.108933,-2.3e-4 0.492723,-0.98924 1.119852,-1.92432 1.938698,-2.67354 0.864835,-0.82515 1.97092,-1.32021 3.00785,-1.88663 0.13276,-0.0827 0.30418,-0.13855 0.4169,-0.23617 -0.21532,-0.41062 -0.50343,-0.78127 -0.78197,-1.15117 -0.95197,-1.20844 -2.273742,-2.12776 -3.756864,-2.55013 -0.774353,-0.23001 -1.582121,-0.34209 -2.390066,-0.3233 -0.04845,-8e-5 -0.09689,5.3e-4 -0.145341,5.3e-4 z"/>
      <g transform="matrix(1.1095118,0.0970697,-0.0970697,1.1095118,-42.206655,29.328326)">
        <path d="m 132.64864,128.63846 -0.49976,-0.50232 c -0.67061,-0.28658 -1.34123,-0.27464 -2.01184,0" style="fill:none;stroke:#000000;stroke-width:0.502327px;stroke-linecap:butt;stroke-linejoin:miter;stroke-opacity:1"/>
        <path d="m 132.06653,128.15634 c 0.0707,0.11478 0.26352,0.33182 0.26352,0.47654 0,0.41611 -0.48935,0.67163 -0.90549,0.67163 -0.41616,0 -0.99905,-0.37245 -0.99905,-0.78856 0,-0.14864 0.28865,-0.25222 0.36292,-0.36895 0.14405,-0.17547 0.47549,-0.23227 1.2781,0.009 z" style="fill:#ffffff;stroke:#000000;stroke-width:0.251163;stroke-miterlimit:4;stroke-dashoffset:0;stroke-opacity:1"/>
        <circle r="0.2511633" cy="128.59143" cx="131.39276" style="fill:#000000;fill-opacity:1;fill-rule:nonzero;stroke:#000000;stroke-width:0.251163;stroke-miterlimit:4;stroke-dasharray:none;stroke-dashoffset:0;stroke-opacity:1"/>
      </g>
      <g transform="matrix(1.1095118,-0.09706971,0.09706971,1.1095118,-64.945152,55.317459)">
        <path d="m 135.16028,128.63846 0.55646,-0.50232 c 0.75341,-0.30507 1.38854,-0.25528 1.95518,0" style="fill:none;stroke:#000000;stroke-width:0.502327px;stroke-linecap:butt;stroke-linejoin:miter;stroke-opacity:1"/>
        <path d="m 137.08981,128.15629 c 0.0707,0.11478 0.48568,0.24996 0.48568,0.39469 0,0.41613 -0.71152,0.75347 -1.12768,0.75347 -0.41614,0 -0.94057,-0.27887 -0.94057,-0.69501 0,-0.14865 0.23009,-0.34574 0.30447,-0.46249 0.4594,-0.20543 0.90585,-0.32995 1.2781,0.009 z" style="fill:#ffffff;stroke:#000000;stroke-width:0.251163;stroke-miterlimit:4;stroke-dashoffset:0;stroke-opacity:1"/>
        <circle r="0.2511633" cy="128.59143" cx="136.43196" style="fill:#000000;fill-opacity:1;fill-rule:nonzero;stroke:#000000;stroke-width:0.251163;stroke-miterlimit:4;stroke-dasharray:none;stroke-dashoffset:0;stroke-opacity:1"/>
      </g>
      <path style="fill:none;fill-rule:evenodd;stroke:#e0e072;stroke-width:0.79375;stroke-linecap:butt;stroke-linejoin:miter;stroke-dasharray:none;stroke-opacity:1" d="m 100,182 c 0,0 1.60814,0.36596 2,1 0.35049,0.5671 0,2 0,2"/>
      <path style="fill:none;fill-rule:evenodd;stroke:#e0e072;stroke-width:0.79375;stroke-linecap:butt;stroke-linejoin:miter;stroke-dasharray:none;stroke-opacity:1" d="m 88,185 c 0,0 -0.350487,-1.4329 0,-2 0.391857,-0.63404 1.999999,-1 1.999999,-1"/>
      <path style="fill:none;fill-rule:evenodd;stroke:#e0e072;stroke-width:0.79375;stroke-linecap:butt;stroke-linejoin:miter;stroke-dasharray:none;stroke-opacity:1" d="m 88.999998,190 1.000001,1"/>
      <path style="fill:none;fill-rule:evenodd;stroke:#e0e072;stroke-width:0.79375;stroke-linecap:butt;stroke-linejoin:miter;stroke-dasharray:none;stroke-opacity:1" d="m 101,190 -1,1"/>
      <path style="fill:#e0e072;fill-opacity:1;stroke:#000000;stroke-width:0.264583;stroke-linecap:round;stroke-linejoin:round;stroke-dasharray:none;stroke-opacity:1" d="m 89.861709,181.63318 c -0.616593,0.15515 -1.236686,0.36289 -1.764633,0.7261 -0.371462,0.25183 -0.625306,0.67743 -0.624761,1.13152 -0.04,0.52756 0.01913,1.0604 0.143418,1.57269 0.06701,0.0565 0.173169,-0.0297 0.251269,-0.0301 0.164539,-0.0526 0.351584,-0.0787 0.500877,-0.15835 -0.09672,-0.50233 -0.153482,-1.02259 -0.08715,-1.53202 0.101598,-0.29316 0.41438,-0.43264 0.670021,-0.56784 0.360031,-0.17626 0.754652,-0.2776 1.130207,-0.40031 -0.06993,-0.24163 -0.08174,-0.50774 -0.191429,-0.73465 -0.0075,-0.007 -0.01802,-0.009 -0.02782,-0.007 z"/>
      <path style="fill:#e0e072;fill-opacity:1;stroke:#000000;stroke-width:0.264583;stroke-linecap:round;stroke-linejoin:round;stroke-dasharray:none;stroke-opacity:1" d="m 100.09321,181.62244 c -0.0597,0.2504 -0.130834,0.50793 -0.162237,0.75987 0.574827,0.17468 1.189067,0.33103 1.652787,0.73406 0.20015,0.20284 0.16861,0.51905 0.1723,0.78099 -0.007,0.33874 -0.0845,0.67 -0.12334,1.00471 0.23734,0.0693 0.48834,0.13574 0.73114,0.1759 0.10856,-0.25092 0.11312,-0.53807 0.15409,-0.80666 0.0506,-0.52219 0.075,-1.1109 -0.24504,-1.55844 -0.39311,-0.49157 -1.01103,-0.72316 -1.58701,-0.92375 -0.19522,-0.0579 -0.39532,-0.13281 -0.59269,-0.16668 z"/>
      <path style="fill:#e0e072;fill-opacity:1;stroke:#000000;stroke-width:0.264583;stroke-linecap:round;stroke-linejoin:round;stroke-dasharray:none;stroke-opacity:1" d="m 88.996836,190.00087 c -0.07064,0.1011 -0.255783,0.19499 -0.258622,0.30092 0.329973,0.32353 0.652129,0.66578 0.98688,0.97783 0.18098,-0.18728 0.381032,-0.36665 0.550304,-0.5588 -0.335481,-0.32905 -0.663151,-0.6768 -1.003411,-0.99437 -0.09171,0.0915 -0.183433,0.18295 -0.275151,0.27442 z"/>
      <path style="fill:#e0e072;fill-opacity:1;stroke:#000000;stroke-width:0.264583;stroke-linecap:round;stroke-linejoin:round;stroke-dasharray:none;stroke-opacity:1" d="m 100.70669,189.7265 c -0.32469,0.33156 -0.66797,0.65538 -0.981124,0.99176 0.187844,0.17451 0.358744,0.3858 0.559254,0.53811 0.33369,-0.31913 0.66851,-0.6483 0.98204,-0.98103 -0.18765,-0.18047 -0.36775,-0.38009 -0.56017,-0.54884 z"/>
      <path style="fill:#333333;fill-opacity:1;stroke:#000000;stroke-width:0.264583;stroke-linecap:round;stroke-linejoin:round;stroke-dasharray:none;stroke-opacity:1" d="m 90.365608,176.73546 c -0.238742,0.13252 -0.457126,0.32673 -0.640726,0.51967 1.322158,0.77288 2.233721,2.07767 2.904734,3.4235 0.393554,0.77529 0.687721,1.59657 0.996579,2.40599 0.130379,0.0317 0.275715,-0.0821 0.407726,-0.10316 0.08939,-0.0598 0.26807,-0.043 0.315809,-0.14747 -0.542322,-1.62529 -1.243391,-3.23512 -2.325568,-4.58118 -0.471334,-0.57429 -1.010513,-1.10652 -1.635043,-1.5116 -0.0075,-0.003 -0.01535,-0.006 -0.02352,-0.006 z"/>
      <path style="fill:#333333;fill-opacity:1;stroke:#000000;stroke-width:0.264583;stroke-linecap:round;stroke-linejoin:round;stroke-dasharray:none;stroke-opacity:1" d="m 99.55723,176.70239 c -0.264652,0.10397 -0.468101,0.332 -0.690009,0.50604 -1.404599,1.27711 -2.255253,3.02655 -2.92186,4.77446 -0.09652,0.28921 -0.247632,0.57401 -0.287637,0.87597 0.219054,0.0942 0.454465,0.19501 0.689364,0.22467 0.23471,-0.4367 0.344435,-0.93275 0.550323,-1.38469 0.648512,-1.56508 1.472422,-3.1468 2.848049,-4.19411 0.149156,-0.11853 0.32974,-0.2108 0.46896,-0.33047 -0.219463,-0.14476 -0.388254,-0.39014 -0.642593,-0.47219 z"/>
      <rect style="fill:#333333;fill-opacity:1;stroke:#000000;stroke-width:0.264583;stroke-linecap:round;stroke-linejoin:round;stroke-dasharray:none;stroke-opacity:1" width="1.1225319" height="1.1225319" x="191.5593" y="57.283264" transform="rotate(45)"/>
      <rect style="fill:#333333;fill-opacity:1;stroke:#000000;stroke-width:0.264583;stroke-linecap:round;stroke-linejoin:round;stroke-dasharray:none;stroke-opacity:1" width="1.1225319" height="1.1225319" x="193.54369" y="59.135349" transform="rotate(45)"/>
      <path style="fill:#de9898;fill-opacity:1;fill-rule:evenodd;stroke:#000000;stroke-width:0.264583px;stroke-linecap:butt;stroke-linejoin:miter;stroke-opacity:1" d="m 96.194685,188.66723 c -0.03206,0.56801 -0.03289,0.62097 0.02454,1.01139 0.107092,0.65802 0.03769,1.32991 0.05729,1.99367 -0.11512,0.42441 -0.01357,0.87681 -0.09325,1.30509 0.0073,0.31949 -0.04449,0.69057 0.07335,0.95223 0.141089,0.45003 0.453443,0.82691 0.695935,1.22341 0.474284,0.42043 1.148913,0.56292 1.767228,0.49693 0.379992,-0.10516 0.789549,-0.27533 0.96891,-0.65817 0.331312,-0.41002 0.560202,-0.90219 0.653782,-1.41977 0.21094,-0.31021 0.69524,0.10325 0.91538,0.25394 0.18514,0.61034 0.0733,1.34503 -0.40854,1.79055 -0.23502,0.26566 -0.37309,0.62517 -0.72219,0.76751 -0.35629,0.21356 -0.763546,0.38624 -1.188421,0.44989 -0.496415,0.0403 -0.995139,0.0319 -1.492805,0.0307 -0.418313,-0.15332 -0.905554,-0.14412 -1.253023,-0.45196 -0.282842,-0.20837 -0.546243,-0.43462 -0.85805,-0.60073 -0.256741,-0.25501 -0.591899,-0.41528 -0.80388,-0.71941 -0.27446,-0.41976 -0.416335,-0.91507 -0.564271,-1.38997 -0.07178,-0.42958 -0.15867,-0.85558 -0.122208,-1.29269 -0.05467,-0.40749 0.102853,-0.78017 0.152423,-1.17867 0.132939,-0.56786 0.134513,-1.18048 -0.07247,-1.72918 -0.101173,-0.21315 -0.127056,-0.24812 -0.161749,-0.65898"/>
    </g></g></g></svg>