<svg xmlns="http://www.w3.org/2000/svg" xmlns:xlink="http://www.w3.org/1999/xlink" width="64" height="64" viewBox="0 0 64 64"><defs id="defs355716">
    <rect x="172" y="97" width="745" height="239" id="rect276290"/>
    <color-profile name="Agfa-:-Swop-Standard" xmlns:xlink="http://www.w3.org/1999/xlink" xlink:href="file:///C:/WINDOWS/system32/spool/drivers/color/RSWOP.icm" id="color-profile294613"/>
    <linearGradient xmlns:inkscape="http://www.inkscape.org/namespaces/inkscape" inkscape:collect="always" id="linearGradient140439">
      <stop style="stop-color:#a4a870;stop-opacity:1;" offset="0" id="stop140435"/>
      <stop style="stop-color:#a4a870;stop-opacity:0;" offset="1" id="stop140437"/>
    </linearGradient>
    <linearGradient xmlns:inkscape="http://www.inkscape.org/namespaces/inkscape" inkscape:collect="always" id="linearGradient140390">
      <stop style="stop-color:#359676;stop-opacity:1;" offset="0" id="stop140386"/>
      <stop style="stop-color:#4a6a5e;stop-opacity:0;" offset="1" id="stop140388"/>
    </linearGradient>
    <linearGradient xmlns:inkscape="http://www.inkscape.org/namespaces/inkscape" inkscape:collect="always" id="linearGradient139515">
      <stop style="stop-color:#dbd764;stop-opacity:1;" offset="0" id="stop139511"/>
      <stop style="stop-color:#dbd764;stop-opacity:0;" offset="0.56578946" id="stop139513"/>
    </linearGradient>
    <linearGradient xmlns:inkscape="http://www.inkscape.org/namespaces/inkscape" inkscape:collect="always" id="linearGradient139325">
      <stop style="stop-color:#161c16;stop-opacity:1;" offset="0" id="stop139321"/>
      <stop style="stop-color:#6e836c;stop-opacity:0;" offset="1" id="stop139323"/>
    </linearGradient>
    <linearGradient xmlns:inkscape="http://www.inkscape.org/namespaces/inkscape" inkscape:collect="always" id="linearGradient387614">
      <stop style="stop-color:#a4a870;stop-opacity:1;" offset="0" id="stop387610"/>
      <stop style="stop-color:#a4a870;stop-opacity:0;" offset="1" id="stop387612"/>
    </linearGradient>
    <linearGradient xmlns:inkscape="http://www.inkscape.org/namespaces/inkscape" inkscape:collect="always" id="linearGradient387421">
      <stop style="stop-color:#344533;stop-opacity:1;" offset="0" id="stop387417"/>
      <stop style="stop-color:#1d251d;stop-opacity:0;" offset="1" id="stop387419"/>
    </linearGradient>
    <linearGradient xmlns:inkscape="http://www.inkscape.org/namespaces/inkscape" inkscape:collect="always" xmlns:xlink="http://www.w3.org/1999/xlink" xlink:href="#linearGradient206680" id="linearGradient206682" x1="168.01042" y1="262.08701" x2="168.01042" y2="247.38542" gradientUnits="userSpaceOnUse"/>
    <linearGradient xmlns:inkscape="http://www.inkscape.org/namespaces/inkscape" inkscape:collect="always" id="linearGradient206680">
      <stop style="stop-color:#dbd764;stop-opacity:0;" offset="0.38377193" id="stop206678"/>
      <stop style="stop-color:#dbd764;stop-opacity:1;" offset="1" id="stop206676"/>
    </linearGradient>
    <linearGradient xmlns:inkscape="http://www.inkscape.org/namespaces/inkscape" inkscape:collect="always" xmlns:xlink="http://www.w3.org/1999/xlink" xlink:href="#linearGradient216292" id="linearGradient216294" x1="168.01042" y1="236.00833" x2="168.01042" y2="248.97292" gradientUnits="userSpaceOnUse" gradientTransform="translate(8.4073796,-0.78650088)"/>
    <linearGradient xmlns:inkscape="http://www.inkscape.org/namespaces/inkscape" inkscape:collect="always" id="linearGradient216292">
      <stop style="stop-color:#359676;stop-opacity:1;" offset="0" id="stop216288"/>
      <stop style="stop-color:#4a6a5f;stop-opacity:0;" offset="1" id="stop216290"/>
    </linearGradient>
    <linearGradient xmlns:inkscape="http://www.inkscape.org/namespaces/inkscape" inkscape:collect="always" xmlns:xlink="http://www.w3.org/1999/xlink" xlink:href="#linearGradient387421" id="linearGradient387423" x1="31.75" y1="155.31041" x2="31.921236" y2="171.18663" gradientUnits="userSpaceOnUse"/>
    <linearGradient xmlns:inkscape="http://www.inkscape.org/namespaces/inkscape" inkscape:collect="always" xmlns:xlink="http://www.w3.org/1999/xlink" xlink:href="#linearGradient387614" id="linearGradient387616" x1="45.011326" y1="158.73975" x2="51.59375" y2="162.71875" gradientUnits="userSpaceOnUse" gradientTransform="translate(2.9601329,-0.98671096)"/>
    <linearGradient xmlns:inkscape="http://www.inkscape.org/namespaces/inkscape" inkscape:collect="always" xmlns:xlink="http://www.w3.org/1999/xlink" xlink:href="#linearGradient387614" id="linearGradient387620" gradientUnits="userSpaceOnUse" x1="45.011326" y1="158.73975" x2="51.593746" y2="162.71875" gradientTransform="matrix(-1,0,0,1,108.79346,-0.98671096)"/>
    <linearGradient xmlns:inkscape="http://www.inkscape.org/namespaces/inkscape" inkscape:collect="always" xmlns:xlink="http://www.w3.org/1999/xlink" xlink:href="#linearGradient139325" id="linearGradient139327" x1="70" y1="21" x2="70" y2="37" gradientUnits="userSpaceOnUse"/>
    <linearGradient xmlns:inkscape="http://www.inkscape.org/namespaces/inkscape" inkscape:collect="always" xmlns:xlink="http://www.w3.org/1999/xlink" xlink:href="#linearGradient139515" id="linearGradient139517" x1="70.426315" y1="1.5429174" x2="70.46106" y2="18.249472" gradientUnits="userSpaceOnUse"/>
    <linearGradient xmlns:inkscape="http://www.inkscape.org/namespaces/inkscape" inkscape:collect="always" xmlns:xlink="http://www.w3.org/1999/xlink" xlink:href="#linearGradient140390" id="linearGradient140392" x1="90.084175" y1="1.3586814" x2="90" y2="16" gradientUnits="userSpaceOnUse"/>
    <linearGradient xmlns:inkscape="http://www.inkscape.org/namespaces/inkscape" inkscape:collect="always" xmlns:xlink="http://www.w3.org/1999/xlink" xlink:href="#linearGradient140439" id="linearGradient140441" x1="90.01368" y1="24.010059" x2="94.88681" y2="28.136377" gradientUnits="userSpaceOnUse"/>
    <linearGradient xmlns:inkscape="http://www.inkscape.org/namespaces/inkscape" inkscape:collect="always" xmlns:xlink="http://www.w3.org/1999/xlink" xlink:href="#linearGradient140439" id="linearGradient140449" gradientUnits="userSpaceOnUse" x1="90.01368" y1="24.010059" x2="94.88681" y2="28.136377" gradientTransform="matrix(-1,0,0,1,190,0)"/>
    <radialGradient xmlns:inkscape="http://www.inkscape.org/namespaces/inkscape" inkscape:collect="always" xmlns:xlink="http://www.w3.org/1999/xlink" xlink:href="#linearGradient177339" id="radialGradient177341-3-0" cx="44.135807" cy="121.46028" fx="44.135807" fy="121.46028" r="1.1079427" gradientTransform="matrix(1.5015971,0,0,0.99367432,-157.6034,-4.3351259)" gradientUnits="userSpaceOnUse"/>
    <linearGradient xmlns:inkscape="http://www.inkscape.org/namespaces/inkscape" inkscape:collect="always" id="linearGradient177339">
      <stop style="stop-color:#b98d3e;stop-opacity:1;" offset="0" id="stop177335"/>
      <stop style="stop-color:#c9c943;stop-opacity:0;" offset="1" id="stop177337"/>
    </linearGradient>
    <radialGradient xmlns:inkscape="http://www.inkscape.org/namespaces/inkscape" inkscape:collect="always" xmlns:xlink="http://www.w3.org/1999/xlink" xlink:href="#linearGradient177339" id="radialGradient177345-7-9" gradientUnits="userSpaceOnUse" gradientTransform="matrix(1.5015971,0,0,0.99367432,-195.50719,-68.761115)" cx="44.135807" cy="121.46028" fx="44.135807" fy="121.46028" r="1.1079427"/>
    <rect x="172" y="97" width="745" height="239" id="rect276290-2"/>
    <rect x="172" y="97" width="745" height="239" id="rect276290-2-5"/>
    <rect x="172" y="97" width="745" height="239" id="rect276290-2-5-7"/>
  </defs><g transform="translate(-7.002175627501472 -26.56542586037198) scale(2.5822331698893577)"><g><g transform="translate(-13.844562,-4.8643054)">
      <path style="fill:#4a696d;fill-opacity:1;fill-rule:evenodd;stroke:#000000;stroke-width:0.214312px;stroke-linecap:butt;stroke-linejoin:miter;stroke-opacity:1" d="m 34.923124,24.139984 c 1.93948,-1.01182 1.46594,-1.650203 2.97782,-2.748043 -0.0256,1.25393 -0.2996,2.41332 -0.85702,3.08766 -0.88278,1.06794 -1.20626,0.99659 -2.1208,1.25403"/>
      <path style="fill:#4a696d;fill-opacity:1;fill-rule:evenodd;stroke:#000000;stroke-width:0.214312px;stroke-linecap:butt;stroke-linejoin:miter;stroke-opacity:1" d="m 22.974099,24.139984 c -1.93948,-1.01182 -1.46594,-1.650203 -2.97782,-2.748043 0.0256,1.25393 0.2996,2.41332 0.85702,3.08766 0.88278,1.06794 1.20626,0.99659 2.1208,1.25403"/>
      <g transform="rotate(15.337603,296.78686,130.48488)" style="fill:#ffffff;fill-opacity:1">
        <g style="fill:#ffffff;fill-opacity:1" transform="matrix(0.5499883,-0.00358909,0.00358909,0.5499883,-24.755079,49.507832)">
          <path style="fill:#ffffff;fill-opacity:1;fill-rule:evenodd;stroke:#000000;stroke-width:0.264583px;stroke-linecap:butt;stroke-linejoin:miter;stroke-opacity:1" d="m 59.437706,97.989374 2.629296,-2.64583"/>
          <path style="fill:#ffffff;fill-opacity:1;fill-rule:evenodd;stroke:#000000;stroke-width:0.264583px;stroke-linecap:butt;stroke-linejoin:miter;stroke-opacity:1" d="m 60.760622,94.020624 2.645833,2.64583"/>
          <path style="fill:#ffffff;fill-opacity:1;fill-rule:evenodd;stroke:#000000;stroke-width:0.264583px;stroke-linecap:butt;stroke-linejoin:miter;stroke-opacity:1" d="m 59.437705,95.343544 2.645833,-2.64584"/>
          <path style="fill:#ffffff;fill-opacity:1;fill-rule:evenodd;stroke:#000000;stroke-width:0.264583px;stroke-linecap:butt;stroke-linejoin:miter;stroke-opacity:1" d="m 63.406455,94.020624 -2.645833,-2.64583"/>
          <path style="fill:#ffffff;fill-opacity:1;fill-rule:evenodd;stroke:#000000;stroke-width:0.264583px;stroke-linecap:butt;stroke-linejoin:miter;stroke-opacity:1" d="m 59.437705,92.697704 2.645833,-2.645831"/>
          <path style="fill:#ffffff;fill-opacity:1;fill-rule:evenodd;stroke:#000000;stroke-width:0.264583px;stroke-linecap:butt;stroke-linejoin:miter;stroke-opacity:1" d="m 62.083539,90.051874 1.322916,1.32292 0.529167,1.32291 -0.529167,1.32292 0.529167,1.32292 -0.529166,1.32291"/>
          <path style="fill:#ffffff;fill-opacity:1;fill-rule:evenodd;stroke:#000000;stroke-width:0.264583px;stroke-linecap:butt;stroke-linejoin:miter;stroke-opacity:1" d="m 59.437705,92.697704 -0.529166,1.32292 0.529166,1.37253 -0.529166,1.2733 0.529166,1.32292"/>
          <path style="fill:#ffffff;fill-opacity:1;fill-rule:evenodd;stroke:#000000;stroke-width:0.264583px;stroke-linecap:butt;stroke-linejoin:miter;stroke-opacity:1" d="m 59.437707,103.28104 2.629296,-2.64583"/>
          <path style="fill:#ffffff;fill-opacity:1;fill-rule:evenodd;stroke:#000000;stroke-width:0.264583px;stroke-linecap:butt;stroke-linejoin:miter;stroke-opacity:1" d="m 60.760623,99.312294 2.645833,2.645826"/>
          <path style="fill:#ffffff;fill-opacity:1;fill-rule:evenodd;stroke:#000000;stroke-width:0.264583px;stroke-linecap:butt;stroke-linejoin:miter;stroke-opacity:1" d="m 59.437706,100.63521 2.645833,-2.645836"/>
          <path style="fill:#ffffff;fill-opacity:1;fill-rule:evenodd;stroke:#000000;stroke-width:0.264583px;stroke-linecap:butt;stroke-linejoin:miter;stroke-opacity:1" d="m 63.406456,99.312294 -2.645833,-2.64583"/>
          <path style="fill:#ffffff;fill-opacity:1;fill-rule:evenodd;stroke:#000000;stroke-width:0.264583px;stroke-linecap:butt;stroke-linejoin:miter;stroke-opacity:1" d="m 59.437706,97.989374 2.645833,-2.64583"/>
          <path style="fill:#ffffff;fill-opacity:1;fill-rule:evenodd;stroke:#000000;stroke-width:0.264583px;stroke-linecap:butt;stroke-linejoin:miter;stroke-opacity:1" d="m 62.08354,95.343544 1.322916,1.32292 0.529167,1.32291 -0.529167,1.32292 0.529167,1.322916 -0.529166,1.32291"/>
          <path style="fill:#ffffff;fill-opacity:1;fill-rule:evenodd;stroke:#000000;stroke-width:0.264583px;stroke-linecap:butt;stroke-linejoin:miter;stroke-opacity:1" d="m 59.437706,97.989374 -0.529166,1.32292 0.529166,1.372526 -0.529166,1.2733 0.529166,1.32292"/>
          <path style="fill:#ffffff;fill-opacity:1;fill-rule:evenodd;stroke:#000000;stroke-width:0.264583px;stroke-linecap:butt;stroke-linejoin:miter;stroke-opacity:1" d="m 59.437706,108.5727 2.629296,-2.64583"/>
          <path style="fill:#ffffff;fill-opacity:1;fill-rule:evenodd;stroke:#000000;stroke-width:0.264583px;stroke-linecap:butt;stroke-linejoin:miter;stroke-opacity:1" d="m 60.760622,104.60395 2.645833,2.64583"/>
          <path style="fill:#ffffff;fill-opacity:1;fill-rule:evenodd;stroke:#000000;stroke-width:0.264583px;stroke-linecap:butt;stroke-linejoin:miter;stroke-opacity:1" d="m 59.437705,105.92687 2.645833,-2.64584"/>
          <path style="fill:#ffffff;fill-opacity:1;fill-rule:evenodd;stroke:#000000;stroke-width:0.264583px;stroke-linecap:butt;stroke-linejoin:miter;stroke-opacity:1" d="m 63.406455,104.60395 -2.645833,-2.64583"/>
          <path style="fill:#ffffff;fill-opacity:1;fill-rule:evenodd;stroke:#000000;stroke-width:0.264583px;stroke-linecap:butt;stroke-linejoin:miter;stroke-opacity:1" d="m 59.437705,103.28103 2.645833,-2.64583"/>
          <path style="fill:#ffffff;fill-opacity:1;fill-rule:evenodd;stroke:#000000;stroke-width:0.264583px;stroke-linecap:butt;stroke-linejoin:miter;stroke-opacity:1" d="m 62.083539,100.6352 1.322916,1.32292 0.529167,1.32291 -0.529167,1.32292 0.529167,1.32292 -0.529166,1.32291"/>
          <path style="fill:#ffffff;fill-opacity:1;fill-rule:evenodd;stroke:#000000;stroke-width:0.264583px;stroke-linecap:butt;stroke-linejoin:miter;stroke-opacity:1" d="m 59.437705,103.28103 -0.529166,1.32292 0.529166,1.37253 -0.529166,1.2733 0.529166,1.32292"/>
          <path style="fill:#ffffff;fill-opacity:1;fill-rule:evenodd;stroke:#000000;stroke-width:0.264583px;stroke-linecap:butt;stroke-linejoin:miter;stroke-opacity:1" d="m 59.437707,113.86437 2.474793,2.5523"/>
          <path style="fill:#ffffff;fill-opacity:1;fill-rule:evenodd;stroke:#000000;stroke-width:0.264583px;stroke-linecap:butt;stroke-linejoin:miter;stroke-opacity:1" d="m 61.9125,116.41667 2.116667,-2.64584 0.529166,-1.32291"/>
          <path style="fill:#ffffff;fill-opacity:1;fill-rule:evenodd;stroke:#000000;stroke-width:0.264583px;stroke-linecap:butt;stroke-linejoin:miter;stroke-opacity:1" d="m 59.437706,111.21854 2.645833,-2.64584"/>
          <path style="fill:#ffffff;fill-opacity:1;fill-rule:evenodd;stroke:#000000;stroke-width:0.264583px;stroke-linecap:butt;stroke-linejoin:miter;stroke-opacity:1" d="m 63.406456,109.89562 -2.645833,-2.64583"/>
          <path style="fill:#ffffff;fill-opacity:1;fill-rule:evenodd;stroke:#000000;stroke-width:0.264583px;stroke-linecap:butt;stroke-linejoin:miter;stroke-opacity:1" d="m 59.437706,108.5727 2.645833,-2.64583"/>
          <path style="fill:#ffffff;fill-opacity:1;fill-rule:evenodd;stroke:#000000;stroke-width:0.264583px;stroke-linecap:butt;stroke-linejoin:miter;stroke-opacity:1" d="m 62.08354,105.92687 1.322916,1.32292 0.529167,1.32291 -0.529167,1.32292 0.358127,1.49396 0.79375,1.05834"/>
          <path style="fill:#ffffff;fill-opacity:1;fill-rule:evenodd;stroke:#000000;stroke-width:0.264583px;stroke-linecap:butt;stroke-linejoin:miter;stroke-opacity:1" d="m 59.437706,108.5727 -0.529166,1.32292 0.529166,1.37253 -0.529166,1.2733 0.529166,1.32292"/>
        </g>
        <g style="fill:#ffffff;fill-opacity:1" transform="translate(-212.56737,-187.94513)">
          <path style="fill:#ffffff;fill-opacity:1;stroke:#000000;stroke-width:0.0182188;stroke-linecap:round;stroke-linejoin:miter;stroke-dasharray:none;stroke-opacity:1" d="m 221.97617,287.17964 c -0.0996,0.10459 -0.20978,0.20485 -0.3029,0.31201 0.44022,0.42683 0.86546,0.87226 1.31994,1.28255 0.0874,-0.18337 0.15463,-0.37978 0.23031,-0.56892 -0.098,-0.22684 -0.17809,-0.46543 -0.28649,-0.68535 -0.21986,-0.21428 -0.43545,-0.43891 -0.65793,-0.6468 -0.10098,0.10219 -0.20195,0.20438 -0.30295,0.30652 z"/>
          <path style="fill:#ffffff;fill-opacity:1;stroke:#000000;stroke-width:0.0182188;stroke-linecap:round;stroke-linejoin:miter;stroke-dasharray:none;stroke-opacity:1" d="m 221.55549,287.6055 c -0.21912,0.2303 -0.45565,0.44923 -0.66419,0.68646 -0.0858,0.22118 -0.17437,0.44185 -0.25844,0.66335 0.0792,0.18973 0.144,0.38731 0.23612,0.57073 0.4445,-0.42417 0.87016,-0.87446 1.30589,-1.31007 -0.19914,-0.2053 -0.4112,-0.41445 -0.61933,-0.61049 z"/>
          <path style="fill:#ffffff;fill-opacity:1;stroke:#000000;stroke-width:0.0182188;stroke-linecap:round;stroke-linejoin:miter;stroke-dasharray:none;stroke-opacity:1" d="m 221.98567,288.63482 c -0.0996,0.10458 -0.20978,0.20484 -0.3029,0.312 0.44022,0.42683 0.86545,0.87227 1.31994,1.28256 0.0874,-0.18337 0.15463,-0.37978 0.23031,-0.56893 -0.098,-0.22684 -0.17809,-0.46542 -0.28649,-0.68534 -0.21987,-0.21428 -0.43545,-0.43891 -0.65794,-0.6468 -0.10097,0.10219 -0.20194,0.20438 -0.30294,0.30652 z"/>
          <path style="fill:#ffffff;fill-opacity:1;stroke:#000000;stroke-width:0.0182188;stroke-linecap:round;stroke-linejoin:miter;stroke-dasharray:none;stroke-opacity:1" d="m 221.24793,289.38225 c -0.12571,0.15175 -0.31957,0.25849 -0.3737,0.45759 -0.0766,0.18937 -0.15617,0.37817 -0.23097,0.56791 0.0778,0.1813 0.14436,0.37101 0.22849,0.54776 0.10251,-0.0331 0.16779,-0.14584 0.25152,-0.21165 0.35426,-0.35781 0.71486,-0.71533 1.06083,-1.0776 -0.20665,-0.20055 -0.40904,-0.41155 -0.6183,-0.60563 -0.10596,0.10717 -0.21189,0.21441 -0.31785,0.32161 z"/>
          <path style="fill:#ffffff;fill-opacity:1;stroke:#000000;stroke-width:0.0182188;stroke-linecap:round;stroke-linejoin:miter;stroke-dasharray:none;stroke-opacity:1" d="m 221.99517,290.09 c -0.0996,0.10458 -0.20978,0.20484 -0.3029,0.312 0.44021,0.42683 0.86545,0.87226 1.31993,1.28256 0.0874,-0.18337 0.15464,-0.37977 0.23032,-0.56893 -0.098,-0.22684 -0.17809,-0.46542 -0.2865,-0.68534 -0.21986,-0.21428 -0.43545,-0.43892 -0.65793,-0.64681 -0.10097,0.1022 -0.20195,0.20439 -0.30294,0.30653 z"/>
          <path style="fill:#ffffff;fill-opacity:1;stroke:#000000;stroke-width:0.0182188;stroke-linecap:round;stroke-linejoin:miter;stroke-dasharray:none;stroke-opacity:1" d="m 221.57449,290.51585 c -0.21913,0.23031 -0.45566,0.44924 -0.66419,0.68646 -0.0858,0.22119 -0.17438,0.44185 -0.25845,0.66335 0.0792,0.18973 0.144,0.38732 0.23612,0.57073 0.4445,-0.42416 0.87015,-0.87445 1.30589,-1.31006 -0.19913,-0.20531 -0.4112,-0.41445 -0.61933,-0.6105 z"/>
          <path style="fill:#ffffff;fill-opacity:1;stroke:#000000;stroke-width:0.0182188;stroke-linecap:round;stroke-linejoin:miter;stroke-dasharray:none;stroke-opacity:1" d="m 222.00467,291.54519 c -0.0996,0.10458 -0.20983,0.20474 -0.30291,0.31199 0.44022,0.42683 0.86545,0.87226 1.31994,1.28255 0.0874,-0.18337 0.15463,-0.37977 0.23031,-0.56892 -0.098,-0.22684 -0.17809,-0.46542 -0.28649,-0.68534 -0.21986,-0.21429 -0.43545,-0.43892 -0.65793,-0.64681 -0.10098,0.10219 -0.20195,0.20438 -0.30294,0.30653 z"/>
          <path style="fill:#ffffff;fill-opacity:1;stroke:#000000;stroke-width:0.0182188;stroke-linecap:round;stroke-linejoin:miter;stroke-dasharray:none;stroke-opacity:1" d="m 221.26693,292.2926 c -0.12571,0.15176 -0.31958,0.25849 -0.37371,0.4576 -0.0766,0.18936 -0.15616,0.37816 -0.23097,0.5679 0.0779,0.18132 0.14436,0.37101 0.22849,0.54777 0.10251,-0.0331 0.1678,-0.14584 0.25152,-0.21165 0.35426,-0.35783 0.71486,-0.71535 1.06083,-1.07762 -0.20665,-0.20054 -0.40903,-0.41153 -0.6183,-0.60563 -0.10597,0.10717 -0.2119,0.21442 -0.31785,0.32161 z"/>
          <path style="fill:#ffffff;fill-opacity:1;stroke:#000000;stroke-width:0.0182188;stroke-linecap:round;stroke-linejoin:miter;stroke-dasharray:none;stroke-opacity:1" d="m 222.01416,293.00036 c -0.0996,0.10458 -0.20982,0.20474 -0.3029,0.31199 0.44022,0.42683 0.86544,0.87227 1.31993,1.28256 0.0874,-0.18337 0.15464,-0.37977 0.23032,-0.56893 -0.098,-0.22684 -0.17809,-0.46541 -0.28649,-0.68534 -0.21987,-0.21428 -0.43546,-0.43891 -0.65794,-0.6468 -0.10097,0.10219 -0.20195,0.20438 -0.30294,0.30653 z"/>
          <path style="fill:#ffffff;fill-opacity:1;stroke:#000000;stroke-width:0.0182188;stroke-linecap:round;stroke-linejoin:miter;stroke-dasharray:none;stroke-opacity:1" d="m 221.59348,293.42621 c -0.21913,0.2303 -0.45566,0.44923 -0.66419,0.68646 -0.0858,0.22118 -0.17437,0.44184 -0.25845,0.66334 0.0792,0.18973 0.144,0.38732 0.23613,0.57073 0.4445,-0.42416 0.87014,-0.87445 1.30588,-1.31006 -0.19913,-0.20531 -0.4112,-0.41445 -0.61933,-0.61049 z"/>
          <path style="fill:#ffffff;fill-opacity:1;stroke:#000000;stroke-width:0.0182188;stroke-linecap:round;stroke-linejoin:miter;stroke-dasharray:none;stroke-opacity:1" d="m 222.02366,294.45554 c -0.0996,0.10458 -0.20978,0.20484 -0.30291,0.31199 0.44022,0.42683 0.86545,0.87227 1.31994,1.28256 0.0874,-0.18337 0.15464,-0.37977 0.23031,-0.56893 -0.098,-0.22684 -0.17808,-0.46542 -0.28649,-0.68534 -0.21986,-0.21428 -0.43545,-0.43891 -0.65793,-0.64681 -0.10097,0.1022 -0.20195,0.20439 -0.30294,0.30654 z"/>
          <path style="fill:#ffffff;fill-opacity:1;stroke:#000000;stroke-width:0.0182188;stroke-linecap:round;stroke-linejoin:miter;stroke-dasharray:none;stroke-opacity:1" d="m 221.28592,295.20297 c -0.12571,0.15175 -0.31958,0.25849 -0.37371,0.45758 -0.0766,0.18937 -0.15616,0.37816 -0.23097,0.56791 0.0778,0.18131 0.14437,0.37101 0.22849,0.54776 0.10252,-0.0331 0.1678,-0.14584 0.25152,-0.21164 0.35426,-0.35783 0.71486,-0.71535 1.06083,-1.07762 -0.20665,-0.20055 -0.40903,-0.41154 -0.61831,-0.60563 -0.10595,0.10716 -0.21188,0.21441 -0.31783,0.32162 z"/>
          <path style="fill:#ffffff;fill-opacity:1;stroke:#000000;stroke-width:0.0182188;stroke-linecap:round;stroke-linejoin:miter;stroke-dasharray:none;stroke-opacity:1" d="m 222.03316,295.91072 c -0.0996,0.10458 -0.20978,0.20484 -0.30291,0.31199 0.44022,0.42683 0.86545,0.87226 1.31994,1.28255 0.0874,-0.18337 0.15463,-0.37977 0.23031,-0.56892 -0.098,-0.22684 -0.17809,-0.46542 -0.28649,-0.68534 -0.21986,-0.21429 -0.43545,-0.43892 -0.65794,-0.64681 -0.10097,0.10219 -0.20194,0.20438 -0.30293,0.30654 z"/>
          <path style="fill:#ffffff;fill-opacity:1;stroke:#000000;stroke-width:0.0182188;stroke-linecap:round;stroke-linejoin:miter;stroke-dasharray:none;stroke-opacity:1" d="m 221.61247,296.33656 c -0.21913,0.23031 -0.45565,0.44924 -0.66418,0.68647 -0.0856,0.22079 -0.17404,0.44106 -0.258,0.66216 0.0403,0.0992 0.0742,0.2032 0.11745,0.2999 0.13431,-0.001 0.26923,5e-5 0.40316,-0.003 0.33899,-0.34724 0.6883,-0.6903 1.0208,-1.0402 -0.20692,-0.20034 -0.40972,-0.41119 -0.61927,-0.60499 z"/>
          <path style="fill:#ffffff;fill-opacity:1;stroke:#000000;stroke-width:0.0182188;stroke-linecap:round;stroke-linejoin:miter;stroke-dasharray:none;stroke-opacity:1" d="m 221.89346,297.51705 c -0.14689,0.15523 -0.31489,0.30651 -0.44875,0.46429 0.54186,-0.007 1.08974,-9e-4 1.62785,-0.0153 -0.0341,-0.12051 -0.0272,-0.26396 -0.14777,-0.33657 -0.19394,-0.18869 -0.38361,-0.38775 -0.5802,-0.57002 -0.15049,0.15261 -0.30102,0.30516 -0.45152,0.45775 z"/>
          <path style="fill:#ffffff;fill-opacity:1;stroke:#000000;stroke-width:0.0182188;stroke-linecap:round;stroke-linejoin:miter;stroke-dasharray:none;stroke-opacity:1" d="m 222.10862,298.71955 c -0.41423,0.006 -0.8304,0.005 -1.24343,0.0151 -0.0547,0.13454 -0.1124,0.26838 -0.16531,0.40322 0.0998,0.23094 0.18324,0.47274 0.29362,0.69683 0.4274,0.42772 0.83903,0.87303 1.2821,1.2841 0.37898,-0.44428 0.73175,-0.91582 1.09788,-1.37263 0.0858,-0.22387 0.17689,-0.44716 0.25953,-0.6714 -0.0951,-0.12227 -0.18762,-0.24778 -0.28443,-0.36803 -0.41331,0.004 -0.82661,0.008 -1.23992,0.0128 z"/>
        </g>
        <rect style="fill:#808000;fill-opacity:1;stroke:#000000;stroke-width:0.14575;stroke-linecap:round;stroke-linejoin:miter;stroke-dasharray:none;stroke-opacity:1" width="2.7648959" height="0.58208328" x="7.3735342" y="110.17293" transform="rotate(-0.37389303)"/>
      </g>
      <path style="fill:#4a696d;fill-opacity:1;stroke:#000000;stroke-width:0.608672;stroke-linecap:butt;stroke-linejoin:miter;stroke-miterlimit:4;stroke-dasharray:none;stroke-opacity:1" d="m 29.062745,18.303734 c -4.675557,-0.89646 -7.904738,4.76135 -6.098909,8.756046 0.677459,3.64228 4.794311,7.36267 8.504757,5.18924 3.559977,-2.16473 4.704054,-7.095126 3.521418,-10.885396 -0.994322,-2.31783 -3.518381,-3.35473 -5.927266,-3.05989 z"/>
      <path d="m 28.227141,28.261267 c 0.135432,0.52502 0.200459,0.720363 0.846393,0.740033 0.825018,0.0251 0.69302,-0.05915 0.846377,-0.749503" style="fill:none;stroke:#000000;stroke-width:0.3048;stroke-linecap:butt;stroke-linejoin:miter;stroke-miterlimit:4;stroke-dasharray:none;stroke-opacity:1"/>
      <path d="m 27.937671,30.22407 c 0,0 0.175519,0.008 1.211631,0.008 1.036111,0 1.149539,-0.02407 1.149539,-0.02407" style="fill:none;stroke:#000000;stroke-width:0.3048;stroke-linecap:butt;stroke-linejoin:miter;stroke-miterlimit:4;stroke-dasharray:none;stroke-opacity:1"/>
      <g transform="matrix(0.81,0,0,0.81,-86.984578,-53.468004)">
        <path d="m 141.6289,98.049468 -0.49976,-0.502327 c -0.67061,-0.286579 -1.34123,-0.274634 -2.01184,0" style="fill:none;stroke:#000000;stroke-width:0.502327px;stroke-linecap:butt;stroke-linejoin:miter;stroke-opacity:1"/>
        <path d="m 141.04679,97.567348 c 0.0707,0.11478 0.26352,0.331815 0.26352,0.476539 0,0.416108 -0.48935,0.671626 -0.90549,0.671626 -0.41616,0 -0.99905,-0.372448 -0.99905,-0.788556 0,-0.148647 0.28865,-0.252223 0.36292,-0.368951 0.14405,-0.175476 0.47549,-0.232273 1.2781,0.0093 z" style="fill:#ffffff;stroke:#000000;stroke-width:0.251163;stroke-miterlimit:4;stroke-dashoffset:0;stroke-opacity:1"/>
        <circle r="0.2511633" cy="98.002426" cx="140.37302" style="fill:#000000;fill-opacity:1;fill-rule:nonzero;stroke:#000000;stroke-width:0.251163;stroke-miterlimit:4;stroke-dasharray:none;stroke-dashoffset:0;stroke-opacity:1"/>
      </g>
      <g transform="matrix(0.81,0,0,0.81,-86.810448,-53.468004)">
        <path d="m 144.66971,98.049468 0.55646,-0.502327 c 0.75341,-0.305064 1.38854,-0.255274 1.95518,0" style="fill:none;stroke:#000000;stroke-width:0.502327px;stroke-linecap:butt;stroke-linejoin:miter;stroke-opacity:1"/>
        <g transform="translate(0.52916667)">
          <path d="m 146.07007,97.567292 c 0.0707,0.114779 0.48568,0.249964 0.48568,0.394687 0,0.416137 -0.71152,0.753477 -1.12768,0.753477 -0.41614,0 -0.94057,-0.278875 -0.94057,-0.695012 0,-0.148646 0.23009,-0.345739 0.30447,-0.462494 0.4594,-0.205422 0.90585,-0.329946 1.2781,0.0093 z" style="fill:#ffffff;stroke:#000000;stroke-width:0.251163;stroke-miterlimit:4;stroke-dashoffset:0;stroke-opacity:1"/>
          <circle r="0.2511633" cy="98.002426" cx="145.41222" style="fill:#000000;fill-opacity:1;fill-rule:nonzero;stroke:#000000;stroke-width:0.251163;stroke-miterlimit:4;stroke-dasharray:none;stroke-dashoffset:0;stroke-opacity:1"/>
        </g>
      </g>
      <path style="fill:#ffffff;fill-opacity:1;stroke:#000000;stroke-width:0.264583;stroke-linecap:butt;stroke-linejoin:miter;stroke-dasharray:none;stroke-opacity:1" d="m 21.681539,23.883394 c 4.023351,-0.67056 5.699743,-1.14723 7.376152,-2.82362 v -4.35865 c -6.081807,0.17135 -8.046718,2.48835 -7.376152,7.18227 z"/>
      <path d="m 36.433842,23.883394 c -4.023351,-0.67056 -5.871414,-1.09321 -7.376151,-2.82362 v -4.35865 c 5.94149,0.17135 8.046718,2.48835 7.376151,7.18227 z" style="fill:#ffffff;fill-opacity:1;stroke:#000000;stroke-width:0.264583;stroke-linecap:butt;stroke-linejoin:miter;stroke-dasharray:none;stroke-opacity:1"/>
      <rect style="fill:#ffffff;stroke:#ffffff;stroke-width:0;stroke-linecap:round;stroke-linejoin:round;stroke-dasharray:none" width="0.23386084" height="0.23386084" x="-1.9992179" y="36.591122" transform="rotate(-45)"/>
      <rect style="fill:#ffc4c4;fill-opacity:1;stroke:#ffffff;stroke-width:0;stroke-linecap:round;stroke-linejoin:round;stroke-dasharray:none" width="0.23386084" height="0.23386084" x="-1.4121741" y="38.021523" transform="rotate(-45)"/>
      <rect style="fill:#ffffff;stroke:#ffffff;stroke-width:0;stroke-linecap:round;stroke-linejoin:round;stroke-dasharray:none" width="0.23386084" height="0.23386084" x="-2.1397781" y="39.06332" transform="rotate(-45)"/>
      <rect style="fill:#ced4ff;fill-opacity:1;stroke:#ffffff;stroke-width:0;stroke-linecap:round;stroke-linejoin:round;stroke-dasharray:none" width="0.23386084" height="0.23386084" x="4.020052" y="36.723412" transform="rotate(-45)"/>
      <rect style="fill:#ced4ff;fill-opacity:1;stroke:#ffffff;stroke-width:0;stroke-linecap:round;stroke-linejoin:round;stroke-dasharray:none" width="0.23386084" height="0.23386084" x="2.3994808" y="35.665077" transform="rotate(-45)"/>
      <rect style="fill:#ffd4fe;fill-opacity:1;stroke:#ffffff;stroke-width:0;stroke-linecap:round;stroke-linejoin:round;stroke-dasharray:none" width="0.23386084" height="0.23386084" x="-0.03137961" y="34.490986" transform="rotate(-45)"/>
      <rect style="fill:#ffffff;stroke:#ffffff;stroke-width:0;stroke-linecap:round;stroke-linejoin:round;stroke-dasharray:none" width="0.23386084" height="0.23386084" x="-43.25766" y="-4.6673222" transform="matrix(-0.70710678,-0.70710678,-0.70710678,0.70710678,0,0)"/>
      <rect style="fill:#ffc4c4;fill-opacity:1;stroke:#ffffff;stroke-width:0;stroke-linecap:round;stroke-linejoin:round;stroke-dasharray:none" width="0.23386084" height="0.23386084" x="-42.670616" y="-3.2369215" transform="matrix(-0.70710678,-0.70710678,-0.70710678,0.70710678,0,0)"/>
      <rect style="fill:#ffffff;stroke:#ffffff;stroke-width:0;stroke-linecap:round;stroke-linejoin:round;stroke-dasharray:none" width="0.23386084" height="0.23386084" x="-43.39822" y="-2.1951239" transform="matrix(-0.70710678,-0.70710678,-0.70710678,0.70710678,0,0)"/>
      <rect style="fill:#ced4ff;fill-opacity:1;stroke:#ffffff;stroke-width:0;stroke-linecap:round;stroke-linejoin:round;stroke-dasharray:none" width="0.23386084" height="0.23386084" x="-38.858959" y="-5.5933666" transform="matrix(-0.70710678,-0.70710678,-0.70710678,0.70710678,0,0)"/>
      <rect style="fill:#ffd4fe;fill-opacity:1;stroke:#ffffff;stroke-width:0;stroke-linecap:round;stroke-linejoin:round;stroke-dasharray:none" width="0.23386084" height="0.23386084" x="-41.289822" y="-6.767458" transform="matrix(-0.70710678,-0.70710678,-0.70710678,0.70710678,0,0)"/>
      <rect style="fill:#ffff00;fill-opacity:1;stroke:#000000;stroke-width:0.132292;stroke-linecap:round;stroke-linejoin:round;stroke-dasharray:none;stroke-opacity:1" width="0.63142425" height="3.2272794" x="21.070862" y="24.415071"/>
      <rect style="display:inline;fill:#ffff00;fill-opacity:1;stroke:#000000;stroke-width:0.132292;stroke-linecap:round;stroke-linejoin:round;stroke-dasharray:none;stroke-opacity:1" width="0.63142425" height="3.2272794" x="36.09642" y="24.251368"/>
    </g></g></g></svg>