<svg xmlns="http://www.w3.org/2000/svg" xmlns:xlink="http://www.w3.org/1999/xlink" width="64" height="64" viewBox="0 0 64 64"><defs id="defs355716">
    <rect x="172" y="97" width="745" height="239" id="rect276290"/>
    <color-profile name="Agfa-:-Swop-Standard" xmlns:xlink="http://www.w3.org/1999/xlink" xlink:href="file:///C:/WINDOWS/system32/spool/drivers/color/RSWOP.icm" id="color-profile294613"/>
    <linearGradient xmlns:inkscape="http://www.inkscape.org/namespaces/inkscape" inkscape:collect="always" id="linearGradient140439">
      <stop style="stop-color:#a4a870;stop-opacity:1;" offset="0" id="stop140435"/>
      <stop style="stop-color:#a4a870;stop-opacity:0;" offset="1" id="stop140437"/>
    </linearGradient>
    <linearGradient xmlns:inkscape="http://www.inkscape.org/namespaces/inkscape" inkscape:collect="always" id="linearGradient140390">
      <stop style="stop-color:#359676;stop-opacity:1;" offset="0" id="stop140386"/>
      <stop style="stop-color:#4a6a5e;stop-opacity:0;" offset="1" id="stop140388"/>
    </linearGradient>
    <linearGradient xmlns:inkscape="http://www.inkscape.org/namespaces/inkscape" inkscape:collect="always" id="linearGradient139515">
      <stop style="stop-color:#dbd764;stop-opacity:1;" offset="0" id="stop139511"/>
      <stop style="stop-color:#dbd764;stop-opacity:0;" offset="0.56578946" id="stop139513"/>
    </linearGradient>
    <linearGradient xmlns:inkscape="http://www.inkscape.org/namespaces/inkscape" inkscape:collect="always" id="linearGradient139325">
      <stop style="stop-color:#161c16;stop-opacity:1;" offset="0" id="stop139321"/>
      <stop style="stop-color:#6e836c;stop-opacity:0;" offset="1" id="stop139323"/>
    </linearGradient>
    <linearGradient xmlns:inkscape="http://www.inkscape.org/namespaces/inkscape" inkscape:collect="always" id="linearGradient387614">
      <stop style="stop-color:#a4a870;stop-opacity:1;" offset="0" id="stop387610"/>
      <stop style="stop-color:#a4a870;stop-opacity:0;" offset="1" id="stop387612"/>
    </linearGradient>
    <linearGradient xmlns:inkscape="http://www.inkscape.org/namespaces/inkscape" inkscape:collect="always" id="linearGradient387421">
      <stop style="stop-color:#344533;stop-opacity:1;" offset="0" id="stop387417"/>
      <stop style="stop-color:#1d251d;stop-opacity:0;" offset="1" id="stop387419"/>
    </linearGradient>
    <linearGradient xmlns:inkscape="http://www.inkscape.org/namespaces/inkscape" inkscape:collect="always" xmlns:xlink="http://www.w3.org/1999/xlink" xlink:href="#linearGradient206680" id="linearGradient206682" x1="168.01042" y1="262.08701" x2="168.01042" y2="247.38542" gradientUnits="userSpaceOnUse"/>
    <linearGradient xmlns:inkscape="http://www.inkscape.org/namespaces/inkscape" inkscape:collect="always" id="linearGradient206680">
      <stop style="stop-color:#dbd764;stop-opacity:0;" offset="0.38377193" id="stop206678"/>
      <stop style="stop-color:#dbd764;stop-opacity:1;" offset="1" id="stop206676"/>
    </linearGradient>
    <linearGradient xmlns:inkscape="http://www.inkscape.org/namespaces/inkscape" inkscape:collect="always" xmlns:xlink="http://www.w3.org/1999/xlink" xlink:href="#linearGradient216292" id="linearGradient216294" x1="168.01042" y1="236.00833" x2="168.01042" y2="248.97292" gradientUnits="userSpaceOnUse" gradientTransform="translate(8.4073796,-0.78650088)"/>
    <linearGradient xmlns:inkscape="http://www.inkscape.org/namespaces/inkscape" inkscape:collect="always" id="linearGradient216292">
      <stop style="stop-color:#359676;stop-opacity:1;" offset="0" id="stop216288"/>
      <stop style="stop-color:#4a6a5f;stop-opacity:0;" offset="1" id="stop216290"/>
    </linearGradient>
    <linearGradient xmlns:inkscape="http://www.inkscape.org/namespaces/inkscape" inkscape:collect="always" xmlns:xlink="http://www.w3.org/1999/xlink" xlink:href="#linearGradient387421" id="linearGradient387423" x1="31.75" y1="155.31041" x2="31.921236" y2="171.18663" gradientUnits="userSpaceOnUse"/>
    <linearGradient xmlns:inkscape="http://www.inkscape.org/namespaces/inkscape" inkscape:collect="always" xmlns:xlink="http://www.w3.org/1999/xlink" xlink:href="#linearGradient387614" id="linearGradient387616" x1="45.011326" y1="158.73975" x2="51.59375" y2="162.71875" gradientUnits="userSpaceOnUse" gradientTransform="translate(2.9601329,-0.98671096)"/>
    <linearGradient xmlns:inkscape="http://www.inkscape.org/namespaces/inkscape" inkscape:collect="always" xmlns:xlink="http://www.w3.org/1999/xlink" xlink:href="#linearGradient387614" id="linearGradient387620" gradientUnits="userSpaceOnUse" x1="45.011326" y1="158.73975" x2="51.593746" y2="162.71875" gradientTransform="matrix(-1,0,0,1,108.79346,-0.98671096)"/>
    <linearGradient xmlns:inkscape="http://www.inkscape.org/namespaces/inkscape" inkscape:collect="always" xmlns:xlink="http://www.w3.org/1999/xlink" xlink:href="#linearGradient139325" id="linearGradient139327" x1="70" y1="21" x2="70" y2="37" gradientUnits="userSpaceOnUse"/>
    <linearGradient xmlns:inkscape="http://www.inkscape.org/namespaces/inkscape" inkscape:collect="always" xmlns:xlink="http://www.w3.org/1999/xlink" xlink:href="#linearGradient139515" id="linearGradient139517" x1="70.426315" y1="1.5429174" x2="70.46106" y2="18.249472" gradientUnits="userSpaceOnUse"/>
    <linearGradient xmlns:inkscape="http://www.inkscape.org/namespaces/inkscape" inkscape:collect="always" xmlns:xlink="http://www.w3.org/1999/xlink" xlink:href="#linearGradient140390" id="linearGradient140392" x1="90.084175" y1="1.3586814" x2="90" y2="16" gradientUnits="userSpaceOnUse"/>
    <linearGradient xmlns:inkscape="http://www.inkscape.org/namespaces/inkscape" inkscape:collect="always" xmlns:xlink="http://www.w3.org/1999/xlink" xlink:href="#linearGradient140439" id="linearGradient140441" x1="90.01368" y1="24.010059" x2="94.88681" y2="28.136377" gradientUnits="userSpaceOnUse"/>
    <linearGradient xmlns:inkscape="http://www.inkscape.org/namespaces/inkscape" inkscape:collect="always" xmlns:xlink="http://www.w3.org/1999/xlink" xlink:href="#linearGradient140439" id="linearGradient140449" gradientUnits="userSpaceOnUse" x1="90.01368" y1="24.010059" x2="94.88681" y2="28.136377" gradientTransform="matrix(-1,0,0,1,190,0)"/>
    <radialGradient xmlns:inkscape="http://www.inkscape.org/namespaces/inkscape" inkscape:collect="always" xmlns:xlink="http://www.w3.org/1999/xlink" xlink:href="#linearGradient177339" id="radialGradient177341-3-0" cx="44.135807" cy="121.46028" fx="44.135807" fy="121.46028" r="1.1079427" gradientTransform="matrix(1.5015971,0,0,0.99367432,-157.6034,-4.3351259)" gradientUnits="userSpaceOnUse"/>
    <linearGradient xmlns:inkscape="http://www.inkscape.org/namespaces/inkscape" inkscape:collect="always" id="linearGradient177339">
      <stop style="stop-color:#b98d3e;stop-opacity:1;" offset="0" id="stop177335"/>
      <stop style="stop-color:#c9c943;stop-opacity:0;" offset="1" id="stop177337"/>
    </linearGradient>
    <radialGradient xmlns:inkscape="http://www.inkscape.org/namespaces/inkscape" inkscape:collect="always" xmlns:xlink="http://www.w3.org/1999/xlink" xlink:href="#linearGradient177339" id="radialGradient177345-7-9" gradientUnits="userSpaceOnUse" gradientTransform="matrix(1.5015971,0,0,0.99367432,-195.50719,-68.761115)" cx="44.135807" cy="121.46028" fx="44.135807" fy="121.46028" r="1.1079427"/>
    <rect x="172" y="97" width="745" height="239" id="rect276290-2"/>
    <rect x="172" y="97" width="745" height="239" id="rect276290-2-5"/>
    <rect x="172" y="97" width="745" height="239" id="rect276290-2-5-7"/>
  </defs><g transform="translate(395.8129754468427 -465.9401036151608) scale(2.29271251696881)"><g><g transform="translate(-307.15713,-81.669017)">
      <path style="fill:#cccccc;fill-rule:evenodd;stroke:none;stroke-width:0.214312px;stroke-linecap:butt;stroke-linejoin:miter;stroke-opacity:1" d="m 150.95732,288.58381 c 1.50523,-0.20982 1.05156,1.96786 2.51817,1.55377 0.553,-0.12021 1.11814,-0.12013 1.68678,-0.10716 0.45562,6.2e-4 0.91236,-8.1e-4 1.36717,0 0.46331,0.22738 -0.54619,0.53723 -0.59737,0.87357 0.62393,0.37522 1.48199,0.20542 2.17952,0.46213 0.35191,0.24566 1.11595,0.53503 1.31103,0.64631 -0.75219,0.13906 -1.53225,0.2867 -2.27672,0.45663 -0.31096,0.093 -1.78548,0.26365 -0.83081,0.50763 0.55993,0.2153 1.21934,0.27917 1.66092,0.37501 0.6927,0.11278 1.13637,0.41876 1.57535,0.65391 0.50957,0.0565 0.30574,0.25678 -0.11015,0.2484 0.31343,-0.2033 -0.8054,0.28421 -1.09014,0.32979 -0.27249,0.10296 -1.03502,0.47504 -0.99055,0.38585 0.3701,-0.11877 -0.80761,0.25946 -0.134,0.30904 0.61317,0.27985 1.38564,0.0378 1.92823,0.43017 0.37526,0.16754 1.29633,0.5527 0.34335,0.42233 -0.5343,0.0275 -1.05729,0.35987 -1.50581,0.43473 -1.07844,0.0498 0.36327,0.50498 0.74807,0.42065 0.59184,0.099 1.36347,0.31243 1.56777,0.56842 0.50932,0.27147 0.52846,0.51153 -0.0818,0.56448 -0.70329,0.0874 -1.24462,0.33518 -1.87525,0.5891 -0.14858,0.4866 1.06267,0.72238 1.23229,1.28588 0.30365,0.40117 0.62033,0.63808 -0.0535,0.53578 -0.48101,-0.0243 -1.94707,0.0237 -1.07156,0.69641 0.53469,0.52412 0.97676,1.10921 1.23231,1.82165 0.18046,0.27384 0.47733,1.00163 -0.24152,0.59044 -0.54384,-0.24063 -1.12849,-0.35346 -1.72942,-0.32248 -0.41473,0.0215 -0.86817,-0.0467 -1.25448,0.0251 0.22314,0.34854 1.05888,1.15105 1.02681,1.1775 0.60401,0.63257 0.76015,1.35695 0.96633,2.06563 0.16743,0.69007 -0.60884,-0.19994 -0.93762,-0.16073 -0.60558,-0.34194 -1.23367,-0.37281 -1.89561,-0.42118 -0.47443,0.11499 0.43671,0.87912 0.47627,1.22424 0.29116,0.60181 0.52113,1.22859 0.43483,1.9093 -0.30373,-0.50166 -1.02583,-0.73954 -1.56036,-0.99791 -0.60448,-0.1519 -1.21973,-0.37537 -1.85968,-0.4354 -0.2622,0.0654 -0.33527,-0.10297 -0.60488,-0.0466"/>
      <path style="fill:#cccccc;fill-rule:evenodd;stroke:none;stroke-width:0.214312px;stroke-linecap:butt;stroke-linejoin:miter;stroke-opacity:1" d="m 145.9387,288.74455 c -1.50522,-0.20983 -0.99798,1.80712 -2.46459,1.39303 -0.55301,-0.12021 -1.11814,-0.12013 -1.68678,-0.10716 -0.45563,6.2e-4 -0.91236,-8.1e-4 -1.36718,0 -0.46331,0.22738 0.5462,0.53723 0.59738,0.87357 -0.62394,0.37522 -1.482,0.20542 -2.17953,0.46213 -0.35191,0.24566 -1.11596,0.53503 -1.31103,0.64631 0.75218,0.13906 1.53225,0.2867 2.27673,0.45663 0.31095,0.093 1.78548,0.26365 0.8308,0.50763 -0.55993,0.2153 -1.21934,0.27917 -1.66092,0.37501 -0.6927,0.11278 -1.13636,0.41876 -1.57535,0.65391 -0.50957,0.0565 -0.30574,0.25678 0.11014,0.2484 -0.31343,-0.2033 0.80541,0.28421 1.09016,0.32979 0.27247,0.10296 1.03501,0.47504 0.99054,0.38585 -0.3701,-0.11877 0.80762,0.25946 0.134,0.30904 -0.61317,0.27985 -1.38564,0.0378 -1.92823,0.43017 -0.37526,0.16754 -1.29633,0.5527 -0.34335,0.42233 0.5343,0.0275 1.05729,0.35987 1.50581,0.43473 1.07844,0.0498 -0.36327,0.50498 -0.74807,0.42065 -0.59184,0.099 -1.36346,0.31243 -1.56777,0.56842 -0.50932,0.27147 -0.52845,0.51153 0.0818,0.56448 0.7033,0.0874 1.24463,0.33518 1.87526,0.5891 0.14858,0.4866 -1.06267,0.72238 -1.23229,1.28588 -0.30364,0.40117 -0.62032,0.63808 0.0536,0.53578 0.48101,-0.0243 1.94707,0.0237 1.07155,0.69641 -0.53468,0.52412 -0.97674,1.10921 -1.23229,1.82165 -0.18047,0.27384 -0.47734,1.00163 0.24151,0.59044 0.54383,-0.24063 1.12849,-0.35346 1.72942,-0.32248 0.41473,0.0215 0.86817,-0.0467 1.25448,0.0251 -0.22314,0.34854 -1.05887,1.15105 -1.02681,1.1775 -0.60401,0.63257 -0.76014,1.35695 -0.96633,2.06563 -0.16743,0.69007 0.60884,-0.19994 0.93762,-0.16073 0.60558,-0.34194 1.23367,-0.37281 1.89561,-0.42118 0.47443,0.11499 -0.43671,0.87912 -0.47627,1.22424 -0.29115,0.60181 -0.52113,1.22859 -0.43482,1.9093 0.30372,-0.50166 1.02582,-0.73954 1.56036,-0.99791 0.60448,-0.1519 1.21973,-0.37537 1.85968,-0.4354 0.26221,0.0654 0.33528,-0.10297 0.60489,-0.0466"/>
      <g transform="matrix(-0.81,0,0,0.81,236.64623,125.95489)">
        <path style="fill:none;stroke:#000000;stroke-width:0.502327px;stroke-linecap:butt;stroke-linejoin:miter;stroke-opacity:1" d="m 107.29049,214.3125 -0.49976,-0.50233 h -1.49055 -0.5213"/>
        <path style="fill:#ffffff;stroke:#000000;stroke-width:0.251163;stroke-miterlimit:4;stroke-dashoffset:0;stroke-opacity:1" d="m 106.70838,213.83037 c 0.0707,0.11478 0.11151,0.24996 0.11151,0.39468 0,0.41612 -0.33734,0.75349 -0.75348,0.75349 -0.41617,0 -0.75351,-0.33737 -0.75351,-0.75349 0,-0.14864 0.0431,-0.28728 0.11738,-0.40402 z"/>
        <circle style="fill:#000000;fill-opacity:1;fill-rule:nonzero;stroke:#000000;stroke-width:0.251163;stroke-miterlimit:4;stroke-dasharray:none;stroke-dashoffset:0;stroke-opacity:1" cx="106.03442" cy="214.31506" r="0.2511633"/>
      </g>
      <g style="fill:#e6e6e6;fill-opacity:1">
        <path style="fill:#e6e6e6;fill-opacity:1;fill-rule:evenodd;stroke:#000000;stroke-width:0.214312px;stroke-linecap:butt;stroke-linejoin:miter;stroke-opacity:1" d="m 141.16843,299.54802 -2.14313,-2.35744 c 0,0 -0.27912,0.49005 1.07157,3.429 0.61209,1.33186 2.14313,2.14313 2.14313,2.14313"/>
        <path style="fill:#e6e6e6;fill-opacity:1;fill-rule:evenodd;stroke:#000000;stroke-width:0.214312px;stroke-linecap:butt;stroke-linejoin:miter;stroke-opacity:1" d="m 156.04235,299.54802 2.14313,-2.35744 c 0,0 0.27913,0.49005 -1.07157,3.429 -0.61209,1.33186 -2.14313,2.14313 -2.14313,2.14313"/>
        <path style="fill:#e6e6e6;fill-opacity:1;fill-rule:evenodd;stroke:#000000;stroke-width:0.214312px;stroke-linecap:butt;stroke-linejoin:miter;stroke-opacity:1" d="m 146.52624,308.54914 c -1.28748,0.0309 -2.45538,-1.10291 -3.21469,-2.14312 -0.47104,-0.64532 -0.3415,-1.82035 -0.64293,-2.57175 -0.67965,-1.6942 -1.47018,-3.55665 -1.50019,-5.35782 -0.0245,-1.47251 -0.0105,-3.28726 1.07157,-4.28625 1.5964,-1.47379 4.25669,-2.14312 6.42937,-2.14312 2.17269,0 4.83297,0.66933 6.42938,2.14313 1.08209,0.99899 1.0961,2.81373 1.07155,4.28624 -0.03,1.79938 -1.03631,3.6649 -1.71449,5.35782 -0.30176,0.75326 0.0435,1.92499 -0.42863,2.57175 -0.7593,1.04021 -1.92756,2.09968 -3.21469,2.14312 -3.1164,0.10518 -0.8965,-0.0815 -4.28625,0 z"/>
      </g>
      <g transform="matrix(0.81,0,0,0.81,60.692508,125.9549)">
        <path style="fill:none;stroke:#000000;stroke-width:0.502327px;stroke-linecap:butt;stroke-linejoin:miter;stroke-opacity:1" d="m 107.29049,214.3125 -0.49976,-0.50233 h -1.49055 -0.5213"/>
        <path style="fill:#ffffff;stroke:#000000;stroke-width:0.251163;stroke-miterlimit:4;stroke-dashoffset:0;stroke-opacity:1" d="m 106.70838,213.83037 c 0.0707,0.11478 0.11151,0.24996 0.11151,0.39468 0,0.41612 -0.33734,0.75349 -0.75348,0.75349 -0.41617,0 -0.75351,-0.33737 -0.75351,-0.75349 0,-0.14864 0.0431,-0.28728 0.11738,-0.40402 z"/>
        <circle style="fill:#000000;fill-opacity:1;fill-rule:nonzero;stroke:#000000;stroke-width:0.251163;stroke-miterlimit:4;stroke-dasharray:none;stroke-dashoffset:0;stroke-opacity:1" cx="106.03442" cy="214.31506" r="0.2511633"/>
      </g>
      <g transform="matrix(0.81,0,0,0.81,60.801242,125.9549)">
        <path style="fill:none;stroke:#000000;stroke-width:0.502327px;stroke-linecap:butt;stroke-linejoin:miter;stroke-opacity:1" d="m 109.80213,214.3125 0.55646,-0.50233 h 1.95518"/>
        <path style="fill:#ffffff;stroke:#000000;stroke-width:0.251163;stroke-miterlimit:4;stroke-dashoffset:0;stroke-opacity:1" d="m 111.73165,213.83032 c 0.0707,0.11478 0.11151,0.24995 0.11151,0.39468 0,0.41612 -0.33734,0.75349 -0.75351,0.75349 -0.41613,0 -0.75347,-0.33737 -0.75347,-0.75349 0,-0.14864 0.043,-0.28728 0.11737,-0.40403 z"/>
        <circle style="fill:#000000;fill-opacity:1;fill-rule:nonzero;stroke:#000000;stroke-width:0.251163;stroke-miterlimit:4;stroke-dasharray:none;stroke-dashoffset:0;stroke-opacity:1" cx="111.07362" cy="214.31506" r="0.2511633"/>
      </g>
      <g transform="matrix(0.81,0,0,0.81,60.801242,125.9549)" style="stroke:#7c8499;stroke-opacity:1">
        <path style="fill:none;fill-rule:evenodd;stroke:#7c8499;stroke-width:0.529167;stroke-linecap:butt;stroke-linejoin:miter;stroke-dasharray:none;stroke-opacity:1" d="m 111.12501,210.34375 v 2.64583 l 2.11666,0.52917 1.05834,1.5875 -1.32292,2.38125 -2.64583,0.26458 0.26458,1.85208 0.79375,1.5875 0.79375,1.5875 1.05833,0.52917 -0.26458,0.79375 0.26458,0.52917"/>
        <path style="fill:none;fill-rule:evenodd;stroke:#7c8499;stroke-width:0.529167;stroke-linecap:butt;stroke-linejoin:miter;stroke-dasharray:none;stroke-opacity:1" d="m 112.44792,210.34375 1.05834,0.79375 h 1.5875 l 1.05833,1.05833 -1.05833,1.05833 0.52916,1.05834 v 1.85208 l -1.05833,0.79375 0.26458,0.79375 -1.05833,1.5875 0.52917,0.26458 0.79375,0.26459 0.47956,-0.14883"/>
        <path style="fill:none;fill-rule:evenodd;stroke:#7c8499;stroke-width:0.529167;stroke-linecap:butt;stroke-linejoin:miter;stroke-dasharray:none;stroke-opacity:1" d="m 105.83333,210.34375 v 2.64583 l -2.11666,0.52917 -1.05834,1.5875 1.32292,2.38125 2.64583,0.26458 -0.26458,1.85208 -0.79375,1.5875 -0.79375,1.5875 -1.05833,0.52917 0.26458,0.79375 -0.26458,0.52917"/>
        <path style="fill:none;fill-rule:evenodd;stroke:#7c8499;stroke-width:0.529167;stroke-linecap:butt;stroke-linejoin:miter;stroke-dasharray:none;stroke-opacity:1" d="M 108.47917,210.07916 V 219.075"/>
        <path style="fill:none;fill-rule:evenodd;stroke:#7c8499;stroke-width:0.529167;stroke-linecap:butt;stroke-linejoin:miter;stroke-dasharray:none;stroke-opacity:1" d="m 108.47917,216.69375 2.38125,-1.05834 1.5875,0.52917 0.79375,0.79375 1.32292,0.52917 1.5875,0.26458"/>
        <path style="fill:none;fill-rule:evenodd;stroke:#7c8499;stroke-width:0.529167;stroke-linecap:butt;stroke-linejoin:miter;stroke-dasharray:none;stroke-opacity:1" d="m 104.51042,210.34375 -1.05834,0.79375 h -1.5875 l -1.05833,1.05833 1.05833,1.05833 -0.52916,1.05834 v 1.85208 l 1.05833,0.79375 -0.26458,0.79375 1.05833,1.5875 -0.52917,0.26458 -0.79375,0.26459 -0.79375,-0.26459"/>
        <path style="fill:none;fill-rule:evenodd;stroke:#7c8499;stroke-width:0.529167;stroke-linecap:butt;stroke-linejoin:miter;stroke-dasharray:none;stroke-opacity:1" d="m 108.47917,216.69375 -2.38125,-1.05834 -1.5875,0.52917 -1.05833,0.52917 -1.32292,0.52917 -1.5875,0.26458"/>
        <path style="fill:none;fill-rule:evenodd;stroke:#7c8499;stroke-width:0.529167;stroke-linecap:butt;stroke-linejoin:miter;stroke-dasharray:none;stroke-opacity:1" d="m 108.47917,218.81042 2.64584,-1e-5 0.79375,0.52917 1.32291,0.26458 v 1.05834 l 1.05834,0.79375 0.52916,0.79375 0.52917,0.26458"/>
        <path style="fill:none;fill-rule:evenodd;stroke:#7c8499;stroke-width:0.529167;stroke-linecap:butt;stroke-linejoin:miter;stroke-dasharray:none;stroke-opacity:1" d="m 108.47917,218.81042 -2.64584,-1e-5 -0.79375,0.52917 -1.32291,0.26458 v 1.05834 l -1.05834,0.79375 -0.52916,0.79375 -0.52917,0.26458"/>
        <path style="fill:none;fill-rule:evenodd;stroke:#7c8499;stroke-width:0.529167;stroke-linecap:butt;stroke-linejoin:miter;stroke-dasharray:none;stroke-opacity:1" d="m 112.18334,213.78333 2.11667,-0.79375 1.5875,0.79375 0.79375,-0.26458 0.79375,0.79375"/>
        <path style="fill:none;fill-rule:evenodd;stroke:#7c8499;stroke-width:0.529167;stroke-linecap:butt;stroke-linejoin:miter;stroke-dasharray:none;stroke-opacity:1" d="m 104.775,213.78333 -2.11667,-0.79375 -1.5875,0.79375 -0.79375,-0.26458 -0.793748,0.79375"/>
        <path style="fill:none;fill-rule:evenodd;stroke:#7c8499;stroke-width:0.529167;stroke-linecap:butt;stroke-linejoin:miter;stroke-dasharray:none;stroke-opacity:1" d="m 108.13628,219.5819 -0.71545,1.60976 -0.26458,2.11667 -0.79375,1.05833 -1.05833,1.05834"/>
        <path style="fill:none;fill-rule:evenodd;stroke:#7c8499;stroke-width:0.529167;stroke-linecap:butt;stroke-linejoin:miter;stroke-dasharray:none;stroke-opacity:1" d="m 108.83559,219.61236 0.70192,1.5793 0.26458,2.11667 0.79375,1.05833 1.05833,1.05834"/>
        <path style="fill:none;fill-rule:evenodd;stroke:#7c8499;stroke-width:0.529167;stroke-linecap:butt;stroke-linejoin:miter;stroke-dasharray:none;stroke-opacity:1" d="M 108.47917,223.57291 V 225.425"/>
        <path style="fill:none;fill-rule:evenodd;stroke:#7c8499;stroke-width:0.529167;stroke-linecap:butt;stroke-linejoin:miter;stroke-dasharray:none;stroke-opacity:1" d="m 115.09376,211.1375 1.05833,-1.5875 1.05834,-0.26459"/>
        <path style="fill:none;fill-rule:evenodd;stroke:#7c8499;stroke-width:0.529167;stroke-linecap:butt;stroke-linejoin:miter;stroke-dasharray:none;stroke-opacity:1" d="m 101.86458,211.1375 -1.05833,-1.5875 -1.058335,-0.26459"/>
        <path style="fill:none;fill-rule:evenodd;stroke:#7c8499;stroke-width:0.529167;stroke-linecap:butt;stroke-linejoin:miter;stroke-dasharray:none;stroke-opacity:1" d="m 105.83333,211.66666 2.64584,0.26459 2.64583,-0.26459"/>
      </g>
      <path style="fill:none;fill-rule:evenodd;stroke:#000000;stroke-width:0.214312px;stroke-linecap:butt;stroke-linejoin:miter;stroke-opacity:1" d="m 147.59781,300.61958 v 3.21469 h 1.07156 1.07157 v -3.21469"/>
      <path style="fill:none;fill-opacity:1;fill-rule:evenodd;stroke:#000000;stroke-width:0.214312px;stroke-linecap:butt;stroke-linejoin:miter;stroke-opacity:1" d="m 146.52624,308.54914 c -1.28748,0.0309 -2.45538,-1.10291 -3.21469,-2.14312 -0.47104,-0.64532 -0.3415,-1.82035 -0.64293,-2.57175 -0.67965,-1.6942 -1.47018,-3.55665 -1.50019,-5.35782 -0.0245,-1.47251 -0.0105,-3.28726 1.07157,-4.28625 1.5964,-1.47379 4.25669,-2.14312 6.42937,-2.14312 2.17269,0 4.83297,0.66933 6.42938,2.14313 1.08209,0.99899 1.0961,2.81373 1.07155,4.28624 -0.03,1.79938 -1.03631,3.6649 -1.71449,5.35782 -0.30176,0.75326 0.0435,1.92499 -0.42863,2.57175 -0.7593,1.04021 -1.92756,2.09968 -3.21469,2.14312 -3.1164,0.10518 -0.8965,-0.0815 -4.28625,0 z"/>
      <path style="fill:#ffffc8;fill-opacity:1;fill-rule:evenodd;stroke:#000000;stroke-width:0.214312px;stroke-linecap:butt;stroke-linejoin:miter;stroke-opacity:1" d="m 146.46015,306.18547 -0.20838,1.10816 -0.43568,-0.22732 -0.23678,-0.48304 0.0379,-0.92345"/>
      <path style="fill:#ffffc8;fill-opacity:1;fill-rule:evenodd;stroke:#000000;stroke-width:0.214312px;stroke-linecap:butt;stroke-linejoin:miter;stroke-opacity:1" d="m 150.8786,306.18547 0.20837,1.10816 0.43568,-0.22732 0.23679,-0.48304 -0.0379,-0.88083"/>
      <path style="fill:none;fill-rule:evenodd;stroke:#000000;stroke-width:0.214312px;stroke-linecap:butt;stroke-linejoin:miter;stroke-opacity:1" d="m 145.45468,305.54876 0.85725,0.64294 h 4.71487 l 0.85726,-0.64294"/>
      <path style="fill:#cccccc;fill-opacity:1;fill-rule:evenodd;stroke:none;stroke-width:0.214312px;stroke-linecap:butt;stroke-linejoin:miter;stroke-opacity:1" d="m 155.52731,294.6188 -4.28625,1.7145 -5.11672,-0.0134 -4.31297,-1.70109 2.57175,-4.71488 c 0,0 2.14351,-1.11226 4.28625,-1.07156 2.11566,0.0402 4.28625,1.07156 4.28625,1.07156 z"/>
    </g></g></g></svg>