<svg xmlns="http://www.w3.org/2000/svg" width="64" height="64" viewBox="-34.575343540736604 48.86981637137277 22.00432477678571 22.00432477678571"><g transform="translate(-78.934572,-37.685562)">
        <g transform="matrix(-1,0,0,1,110.7228,0)">
          <path style="fill:#8dc4c4;fill-opacity:1;fill-rule:evenodd;stroke:#000000;stroke-width:0.264583px;stroke-linecap:butt;stroke-linejoin:miter;stroke-opacity:1" d="m 60.821093,96.473697 4.167188,-3.902604 -0.172533,2.973756 -0.527306,2.991543 -1.4499,1.112305 -0.869129,-0.07469 -1.016026,-0.355254"/>
          <path style="fill:none;fill-rule:evenodd;stroke:#000000;stroke-width:0.264583px;stroke-linecap:butt;stroke-linejoin:miter;stroke-opacity:1" d="m 61.747135,96.50677 3.075781,-1.12448"/>
          <path style="fill:none;fill-rule:evenodd;stroke:#000000;stroke-width:0.264583px;stroke-linecap:butt;stroke-linejoin:miter;stroke-opacity:1" d="m 61.714062,97.697395 2.579687,0.826823"/>
        </g>
        <g>
          <path style="fill:#8dc4c4;fill-opacity:1;fill-rule:evenodd;stroke:#000000;stroke-width:0.264583px;stroke-linecap:butt;stroke-linejoin:miter;stroke-opacity:1" d="m 60.821093,96.473697 4.167188,-3.902604 -0.172533,2.973756 -0.527306,2.991543 -1.4499,1.112305 -0.869129,-0.07469 -1.016026,-0.355254"/>
          <path style="fill:none;fill-rule:evenodd;stroke:#000000;stroke-width:0.264583px;stroke-linecap:butt;stroke-linejoin:miter;stroke-opacity:1" d="m 61.747135,96.50677 3.075781,-1.12448"/>
          <path style="fill:none;fill-rule:evenodd;stroke:#000000;stroke-width:0.264583px;stroke-linecap:butt;stroke-linejoin:miter;stroke-opacity:1" d="m 61.714062,97.697395 2.579687,0.826823"/>
        </g>
        <path style="fill:#8dc4c4;fill-opacity:1;stroke:#000000;stroke-width:0.6096;stroke-linecap:butt;stroke-linejoin:miter;stroke-miterlimit:4;stroke-dasharray:none;stroke-opacity:1" d="m 55.089159,90.11346 c -4.760732,0.04219 -7.652123,4.866892 -6.296908,9.047973 1.14576,3.534877 4.893189,7.385667 8.603369,5.205447 3.55972,-2.17149 5.45716,-7.43997 3.52117,-10.919397 -1.594049,-2.864879 -3.659818,-3.353237 -5.827631,-3.334023 z"/>
        <path d="m 53.86488,102.29762 c 0,0 0.17552,0.008 1.21163,0.008 1.03611,0 1.39876,-0.3184 1.39876,-0.3184" style="fill:none;stroke:#000000;stroke-width:0.3048;stroke-linecap:butt;stroke-linejoin:miter;stroke-miterlimit:4;stroke-dasharray:none;stroke-opacity:1"/>
        <g transform="matrix(0.8606399,0.23060777,-0.23060777,0.8606399,-30.912084,-42.993077)">
          <path d="m 132.64864,128.63846 -0.49976,-0.50232 c -0.67061,-0.28658 -1.34123,-0.27464 -2.01184,0" style="fill:none;stroke:#000000;stroke-width:0.502327px;stroke-linecap:butt;stroke-linejoin:miter;stroke-opacity:1"/>
          <path d="m 132.06653,128.15634 c 0.0707,0.11478 0.26352,0.33182 0.26352,0.47654 0,0.41611 -0.48935,0.67163 -0.90549,0.67163 -0.41616,0 -0.99905,-0.37245 -0.99905,-0.78856 0,-0.14864 0.28865,-0.25222 0.36292,-0.36895 0.14405,-0.17547 0.47549,-0.23227 1.2781,0.009 z" style="fill:#ffffff;stroke:#000000;stroke-width:0.251163;stroke-miterlimit:4;stroke-dashoffset:0;stroke-opacity:1"/>
          <circle r="0.2511633" cy="128.59143" cx="131.39276" style="fill:#000000;fill-opacity:1;fill-rule:nonzero;stroke:#000000;stroke-width:0.251163;stroke-miterlimit:4;stroke-dasharray:none;stroke-dashoffset:0;stroke-opacity:1"/>
        </g>
        <g transform="matrix(0.8606399,-0.23060777,0.23060777,0.8606399,-89.577558,18.770213)">
          <path d="m 135.16028,128.63846 0.55646,-0.50232 c 0.75341,-0.30507 1.38854,-0.25528 1.95518,0" style="fill:none;stroke:#000000;stroke-width:0.502327px;stroke-linecap:butt;stroke-linejoin:miter;stroke-opacity:1"/>
          <path d="m 137.08981,128.15629 c 0.0707,0.11478 0.48568,0.24996 0.48568,0.39469 0,0.41613 -0.71152,0.75347 -1.12768,0.75347 -0.41614,0 -0.94057,-0.27887 -0.94057,-0.69501 0,-0.14865 0.23009,-0.34574 0.30447,-0.46249 0.4594,-0.20543 0.90585,-0.32995 1.2781,0.009 z" style="fill:#ffffff;stroke:#000000;stroke-width:0.251163;stroke-miterlimit:4;stroke-dashoffset:0;stroke-opacity:1"/>
          <circle r="0.2511633" cy="128.59143" cx="136.43196" style="fill:#000000;fill-opacity:1;fill-rule:nonzero;stroke:#000000;stroke-width:0.251163;stroke-miterlimit:4;stroke-dasharray:none;stroke-dashoffset:0;stroke-opacity:1"/>
        </g>
        <path style="fill:none;fill-rule:evenodd;stroke:#000000;stroke-width:0.264583px;stroke-linecap:butt;stroke-linejoin:miter;stroke-opacity:1" d="m 54.520702,99.235285 0.03307,1.322915"/>
        <path style="fill:none;fill-rule:evenodd;stroke:#000000;stroke-width:0.264583px;stroke-linecap:butt;stroke-linejoin:miter;stroke-opacity:1" d="m 55.537695,99.227017 v 1.380793"/>
        <ellipse style="fill:#008080;fill-opacity:1;stroke:#000000;stroke-width:0.423333;stroke-linecap:round;stroke-linejoin:round" cx="53.065495" cy="93.017578" rx="0.44648436" ry="0.47955728"/>
        <ellipse style="fill:#008080;fill-opacity:1;stroke:#000000;stroke-width:0.423333;stroke-linecap:round;stroke-linejoin:round" cx="57.331902" cy="93.116798" rx="0.47955728" ry="0.44648436"/>
        <ellipse style="fill:#008080;fill-opacity:1;stroke:#000000;stroke-width:0.423333;stroke-linecap:round;stroke-linejoin:round" cx="53.214321" cy="95.597267" rx="0.52916664" ry="0.54570311"/>
        <ellipse style="fill:#008080;fill-opacity:1;stroke:#000000;stroke-width:0.423333;stroke-linecap:round;stroke-linejoin:round" cx="57.315365" cy="95.51458" rx="0.49609375" ry="0.56223959"/>
      </g></svg>