<svg xmlns="http://www.w3.org/2000/svg" width="64" height="64" viewBox="56.355259486607146 -48.044459751674104 26.05901227678571 26.05901227678571"><g>
        <g transform="translate(0.06297133,-6.714318)">
          <path d="m 62.328522,-29.82502 c 0.714107,6.23344 5.229663,9.05567 7.769663,9.05567 2.54,0 7.055555,-2.82223 7.802456,-9.05567 0.577596,-4.82052 -2.931075,-8.53956 -7.786059,-8.53956 -4.854985,0 -8.338623,3.7161 -7.78606,8.53956 z" style="fill:#efd2c3;fill-opacity:1;fill-rule:nonzero;stroke:#000000;stroke-width:0.564444;stroke-miterlimit:4;stroke-dasharray:none;stroke-dashoffset:0;stroke-opacity:1"/>
          <g transform="matrix(0.28222223,0,0,0.28222223,-2347.8874,144.24735)">
            <path style="fill:none;stroke:#000000;stroke-width:1.7799px;stroke-linecap:butt;stroke-linejoin:miter;stroke-opacity:1" d="m 8563.2882,-618.57175 -1.7708,-1.7799 h -5.2815 -1.8471"/>
            <path style="fill:none;stroke:#000000;stroke-width:1.7799px;stroke-linecap:butt;stroke-linejoin:miter;stroke-opacity:1" d="m 8572.1877,-618.57175 1.9717,-1.7799 h 6.9278"/>
            <path style="fill:#ffffff;stroke:#000000;stroke-width:0.889949;stroke-miterlimit:4;stroke-dashoffset:0;stroke-opacity:1" d="m 8561.2256,-620.28009 c 0.2506,0.4067 0.3951,0.88567 0.3951,1.39846 0,1.47447 -1.1953,2.66985 -2.6698,2.66985 -1.4746,0 -2.6699,-1.19538 -2.6699,-2.66985 0,-0.52667 0.1526,-1.01792 0.4159,-1.43157 z"/>
            <path style="fill:#ffffff;stroke:#000000;stroke-width:0.889949;stroke-miterlimit:4;stroke-dashoffset:0;stroke-opacity:1" d="m 8579.0246,-620.28027 c 0.2505,0.4067 0.3951,0.88567 0.3951,1.39846 0,1.47447 -1.1953,2.66985 -2.6699,2.66985 -1.4745,0 -2.6698,-1.19538 -2.6698,-2.66985 0,-0.52667 0.1525,-1.01792 0.4159,-1.43157 z"/>
            <circle style="fill:#000000;fill-opacity:1;fill-rule:nonzero;stroke:#000000;stroke-width:0.889949;stroke-miterlimit:4;stroke-dasharray:none;stroke-dashoffset:0;stroke-opacity:1" cx="8468.8379" cy="-703.56268" r="0.88994873" transform="translate(89.999959,85.000024)"/>
            <circle style="fill:#000000;fill-opacity:1;fill-rule:nonzero;stroke:#000000;stroke-width:0.889949;stroke-miterlimit:4;stroke-dasharray:none;stroke-dashoffset:0;stroke-opacity:1" cx="8486.6934" cy="-703.56268" r="0.88994873" transform="translate(89.999959,85.000024)"/>
          </g>
          <path d="m 69.251518,-29.23605 v 2.54 h 1.693333 v -2.54" style="fill:none;stroke:#000000;stroke-width:0.502327px;stroke-linecap:butt;stroke-linejoin:miter;stroke-opacity:1"/>
          <path style="fill:#5c3c18;fill-opacity:1;stroke:#000000;stroke-width:0.5;stroke-linecap:butt;stroke-linejoin:miter;stroke-miterlimit:4;stroke-dasharray:none;stroke-dashoffset:0;stroke-opacity:1" d="m 78.305004,-31.13642 c 0.02559,-0.10458 0.01334,-0.24921 0.04858,-0.34262 0.351413,-0.65492 0.632635,-1.43604 0.67231,-2.09599 -0.01738,-0.36952 -0.236648,-0.6905 -0.367936,-1.02733 -0.924564,-1.96331 -2.629242,-3.52666 -4.637443,-4.33565 -1.006656,-0.41378 -1.288215,-0.67962 -2.373621,-0.75466 -0.312058,-0.0216 -0.393441,0.003 -0.705778,0.007 l -0.791401,0.93153 c -0.15583,0.002 -1.273213,-0.92394 -1.429026,-0.91505 -2.234002,0.12745 -3.718824,0.97841 -5.341904,2.53878 -1.043869,1.00141 -2.076333,2.46214 -2.505273,3.84576 0.130884,0.8617 0.613248,1.90601 0.776697,2.76159 0.01244,0.005 0.02872,0.003 0.04754,-0.004 5.835032,-4.40442 11.29881,-3.59714 16.607255,-0.60926 z"/>
          <path style="fill:none;fill-rule:evenodd;stroke:#000000;stroke-width:0.264583px;stroke-linecap:butt;stroke-linejoin:miter;stroke-opacity:1" d="m 68.263978,-24.742476 3.390982,0.02339"/>
          <path style="fill:none;fill-rule:evenodd;stroke:#5c3c18;stroke-width:0.5;stroke-linecap:butt;stroke-linejoin:miter;stroke-dasharray:none;stroke-opacity:1" d="m 66.096223,-31.501953 2.678906,0.01654"/>
          <path style="fill:none;fill-rule:evenodd;stroke:#5c3c18;stroke-width:0.5;stroke-linecap:butt;stroke-linejoin:miter;stroke-dasharray:none;stroke-opacity:1" d="m 71.437499,-31.46888 h 2.645833"/>
          <path style="opacity:0.645702;fill:#5c3c18;fill-opacity:1;stroke:#5c3c18;stroke-width:0.23622;stroke-linecap:round;stroke-linejoin:miter;stroke-dasharray:none;stroke-opacity:1" d="m 237.19189,-109.43335 c 0.60589,3.61197 1.80177,7.115 3.26495,10.464497 3.60958,7.804016 9.83898,14.676367 17.90864,17.939556 2.96277,1.184872 6.23938,1.772632 9.3985,1.095166 6.23866,-1.238363 11.61935,-5.187916 15.77557,-9.868359 4.8392,-5.518745 7.9012,-12.452 9.2644,-19.63037 -2.84891,-0.0641 -5.76387,-0.0124 -8.63452,-0.0129 -4.65296,4.32725 -9.30588,8.65457 -13.95874,12.981933 -3.47054,0 -6.94108,0 -10.41162,0 -4.99666,-4.329613 -9.98427,-8.674583 -14.98657,-12.994633 -2.53525,0.0187 -5.10877,-0.0443 -7.62061,0.0251 z m 25.53833,15.397218 c 2.71014,0.01039 5.42235,0.0045 8.12891,0.163085 -0.0375,0.371812 0.0899,1.154997 -0.54712,0.975831 -4.09525,-0.01452 -8.19044,-0.04487 -12.28564,-0.06885 -0.22155,-0.953239 0.18753,-1.27584 1.125,-1.070067 1.19295,0 2.3859,0 3.57885,1e-6 z" transform="scale(0.26458333)"/>
        </g>
        <g transform="matrix(-0.36817762,0.50484444,-0.50484444,-0.36817762,89.554806,-56.331555)">
          <path style="fill:#808080;fill-rule:evenodd;stroke:#000000;stroke-width:0.264583px;stroke-linecap:butt;stroke-linejoin:miter;stroke-opacity:1" d="M 58.208333,9.2604166 V -1.3229166 l 1.322916,-2.6458334 1.322917,2.6458334 V 9.2604166 Z"/>
          <path style="fill:#800000;fill-rule:evenodd;stroke:#000000;stroke-width:0.264583px;stroke-linecap:butt;stroke-linejoin:miter;stroke-opacity:1" d="m 57.149999,9.2604166 4.762501,-3e-7 v 0.7937507 h -4.762501 z"/>
          <path style="fill:#907d6e;fill-opacity:1;fill-rule:evenodd;stroke:#000000;stroke-width:0.264583px;stroke-linecap:butt;stroke-linejoin:miter;stroke-opacity:1" d="m 59.002084,10.054167 v 3.96875 h 1.058333 v -3.96875"/>
          <path style="fill:none;fill-rule:evenodd;stroke:#000000;stroke-width:0.264583px;stroke-linecap:butt;stroke-linejoin:miter;stroke-opacity:1" d="M 59.531249,-2.6458333 V 9.2604166"/>
        </g>
      </g></svg>