<svg xmlns="http://www.w3.org/2000/svg" width="64" height="64" viewBox="58.545645577566965 -24.40818132672991 24.19349888392857 24.19349888392857"><g transform="translate(7.1437497,-112.44792)">
        <path style="fill:#b9784d;fill-opacity:1;fill-rule:evenodd;stroke:#000000;stroke-width:0.529167;stroke-linecap:butt;stroke-linejoin:miter;stroke-dasharray:none;stroke-opacity:1" d="m 74.080604,97.350031 -10.583328,3.175009 -10.583336,-3.175009 4e-6,5.291669 v 3.05991 l 0.967908,1.17342 1.680648,2.1333 1.405599,-2.1333 3.354177,1.05834 3.175,2.11667 3.175,-2.11667 3.497668,-1.05834 1.267556,2.1333 1.480624,-2.1333 1.162484,-1.12664 -4e-6,-3.10669 z"/>
        <path style="fill:none;fill-rule:evenodd;stroke:#000000;stroke-width:0.396875;stroke-linecap:butt;stroke-linejoin:miter;stroke-dasharray:none;stroke-opacity:1" d="M 56.885417,103.98125 63.5,105.30417 70.114583,103.98125"/>
        <path style="fill:#553400;fill-opacity:1;fill-rule:evenodd;stroke:#000000;stroke-width:0.529167;stroke-linecap:butt;stroke-linejoin:miter;stroke-dasharray:none;stroke-opacity:1" d="m 52.91394,97.350031 10.583336,3.175009 10.583328,-3.175009 C 71.963944,91.000035 69.85,93.397918 63.5,90.222918 c -6.35,3.175 -8.575976,0.802721 -10.58606,7.127113 z"/>
        <path style="fill:#2c1d00;fill-opacity:1;fill-rule:evenodd;stroke:#000000;stroke-width:0.264583px;stroke-linecap:butt;stroke-linejoin:miter;stroke-opacity:1" d="m 58.472916,97.63125 1.322917,-2.645833 1.058333,-2.116667 h -1.852083 c -3.449922,0.671036 -3.278103,1.742241 -4.497916,3.704167 z"/>
        <path style="fill:#2c1d00;fill-opacity:1;fill-rule:evenodd;stroke:#000000;stroke-width:0.264583px;stroke-linecap:butt;stroke-linejoin:miter;stroke-opacity:1" d="M 62.177084,93.927083 63.5,94.191667 l 1.322917,-0.264584 -10e-7,4.233334 -1.322917,1.058333 -1.322916,-1.058333 z"/>
        <path style="fill:#2c1d00;fill-opacity:1;fill-rule:evenodd;stroke:#000000;stroke-width:0.264583px;stroke-linecap:butt;stroke-linejoin:miter;stroke-opacity:1" d="m 59.266667,97.895834 2.38125,1.058334 v -5.027085 h -0.79375 z"/>
        <path style="fill:#2c1d00;fill-opacity:1;fill-rule:evenodd;stroke:#000000;stroke-width:0.264583px;stroke-linecap:butt;stroke-linejoin:miter;stroke-opacity:1" d="m 67.733333,97.895834 -2.38125,1.058334 v -5.027085 h 0.79375 z"/>
        <g transform="matrix(1.1965415,0.21098254,-0.21098254,1.1965415,-87.762822,-45.517177)">
          <path d="m 141.6289,98.049468 -0.49976,-0.502327 c -0.67061,-0.286579 -1.34123,-0.274634 -2.01184,0" style="fill:none;stroke:#000000;stroke-width:0.502327px;stroke-linecap:butt;stroke-linejoin:miter;stroke-opacity:1"/>
          <path d="m 141.04679,97.567348 c 0.0707,0.11478 0.26352,0.331815 0.26352,0.476539 0,0.416108 -0.48935,0.671626 -0.90549,0.671626 -0.41616,0 -0.99905,-0.372448 -0.99905,-0.788556 0,-0.148647 0.28865,-0.252223 0.36292,-0.368951 0.14405,-0.175476 0.47549,-0.232273 1.2781,0.0093 z" style="fill:#ffffff;stroke:#000000;stroke-width:0.251163;stroke-miterlimit:4;stroke-dashoffset:0;stroke-opacity:1"/>
          <circle r="0.2511633" cy="98.002426" cx="140.37302" style="fill:#000000;fill-opacity:1;fill-rule:nonzero;stroke:#000000;stroke-width:0.251163;stroke-miterlimit:4;stroke-dasharray:none;stroke-dashoffset:0;stroke-opacity:1"/>
        </g>
        <g transform="matrix(1.1965415,-0.21098254,0.21098254,1.1965415,-127.82392,14.888661)">
          <path d="m 144.66971,98.049468 0.55646,-0.502327 c 0.75341,-0.305064 1.38854,-0.255274 1.95518,0" style="fill:none;stroke:#000000;stroke-width:0.502327px;stroke-linecap:butt;stroke-linejoin:miter;stroke-opacity:1"/>
          <g transform="translate(0.52916667)">
            <path d="m 146.07007,97.567292 c 0.0707,0.114779 0.48568,0.249964 0.48568,0.394687 0,0.416137 -0.71152,0.753477 -1.12768,0.753477 -0.41614,0 -0.94057,-0.278875 -0.94057,-0.695012 0,-0.148646 0.23009,-0.345739 0.30447,-0.462494 0.4594,-0.205422 0.90585,-0.329946 1.2781,0.0093 z" style="fill:#ffffff;stroke:#000000;stroke-width:0.251163;stroke-miterlimit:4;stroke-dashoffset:0;stroke-opacity:1"/>
            <circle r="0.2511633" cy="98.002426" cx="145.41222" style="fill:#000000;fill-opacity:1;fill-rule:nonzero;stroke:#000000;stroke-width:0.251163;stroke-miterlimit:4;stroke-dasharray:none;stroke-dashoffset:0;stroke-opacity:1"/>
          </g>
        </g>
        <path style="fill:#2c1d00;fill-opacity:1;fill-rule:evenodd;stroke:#000000;stroke-width:0.264583px;stroke-linecap:butt;stroke-linejoin:miter;stroke-opacity:1" d="m 63.499999,91.281249 -1.852083,0.79375 -0.529167,1.322916 2.38125,0.264584 2.38125,-0.264584 -0.529166,-1.322916 z"/>
        <path style="fill:#2c1d00;fill-opacity:1;fill-rule:evenodd;stroke:#000000;stroke-width:0.264583px;stroke-linecap:butt;stroke-linejoin:miter;stroke-opacity:1" d="M 68.527083,97.63125 67.204166,94.985417 66.145833,92.86875 h 1.852083 c 3.449922,0.671036 3.278103,1.742241 4.497916,3.704167 z"/>
        <path style="fill:none;fill-rule:evenodd;stroke:#000000;stroke-width:0.264583px;stroke-linecap:butt;stroke-linejoin:miter;stroke-opacity:1" d="m 56.885416,107.15625 -2.645833,-2.64583 h -1.322917"/>
        <path style="fill:none;fill-rule:evenodd;stroke:#000000;stroke-width:0.264583px;stroke-linecap:butt;stroke-linejoin:miter;stroke-opacity:1" d="m 70.114582,107.15625 2.645834,-2.64583 h 1.322916"/>
        <path style="opacity:1;fill:#553400;fill-opacity:1;stroke:#000000;stroke-width:0.5;stroke-linecap:round;stroke-linejoin:miter;stroke-dasharray:none;stroke-opacity:1" d="m 200.97363,395.625 c 0.1436,1.54386 -0.53436,3.37553 0.93754,4.4578 2.68477,3.31983 5.30685,6.83157 8.03951,10.02902 1.22494,-1.85821 2.60667,-3.75646 3.54786,-5.72559 -2.74899,-3.04429 -5.7355,-5.87337 -8.61817,-8.7876 -1.29808,0.0181 -2.62695,-0.0356 -3.90674,0.0264 z" transform="scale(0.26458333)"/>
        <path style="opacity:1;fill:#553400;fill-opacity:1;stroke:#000000;stroke-width:0.5;stroke-linecap:round;stroke-linejoin:miter;stroke-dasharray:none;stroke-opacity:1" d="m 275.11182,395.60645 c -2.7676,2.87299 -5.82067,5.58169 -8.37744,8.59961 1.08373,1.86537 1.99652,4.01051 3.50585,5.53662 2.61071,-3.8245 5.31388,-7.6268 8.78614,-10.73145 -0.36644,-1.10499 0.91626,-3.86497 -1.02637,-3.4126 -0.96216,0.005 -1.92869,-0.0106 -2.88818,0.008 z" transform="scale(0.26458333)"/>
      </g></svg>