<svg xmlns="http://www.w3.org/2000/svg" width="64" height="64" viewBox="36.6544189453125 96.71371459960938 20.88330078125 20.88330078125"><g transform="translate(-19.049159,-65.750395)">
        <path style="fill:#868181;fill-opacity:1;fill-rule:nonzero;stroke:#000000;stroke-width:0.564444;stroke-miterlimit:4;stroke-dasharray:none;stroke-dashoffset:0;stroke-opacity:1" d="m 58.357479,172.3089 c 0.392358,3.42489 0.944411,5.99644 2.496688,7.60777 0.63538,0.65955 1.84277,1.51481 2.645833,1.85208 0.8058,0.33842 1.686822,0.26145 2.645833,0.26458 0.958985,0.003 1.839113,0.0775 2.645834,-0.26458 0.785965,-0.33327 2.019399,-1.20334 2.645833,-1.85208 1.557948,-1.61342 2.080536,-4.17298 2.492098,-7.60777 0.577604,-4.82053 -3.815013,-8.54653 -7.786059,-8.53957 -4.028153,0.007 -8.338639,3.71611 -7.78606,8.53957 z"/>
        <g transform="rotate(5,63.635988,172.41758)">
          <path d="M 64.891792,172.33573 64.392033,171.8334 H 62.901476 62.380183" style="fill:none;stroke:#000000;stroke-width:0.502327px;stroke-linecap:butt;stroke-linejoin:miter;stroke-opacity:1"/>
          <path d="m 64.30968,171.8536 c 0.07072,0.11478 0.111506,0.24996 0.111506,0.39468 0,0.41612 -0.33734,0.75349 -0.753477,0.75349 -0.416164,0 -0.753505,-0.33737 -0.753505,-0.75349 0,-0.14864 0.04307,-0.28728 0.117377,-0.40402 z" style="fill:#ffffff;stroke:#000000;stroke-width:0.251163;stroke-miterlimit:4;stroke-dashoffset:0;stroke-opacity:1"/>
          <circle r="0.2511633" cy="172.3383" cx="63.635815" style="fill:#800080;fill-opacity:1;fill-rule:nonzero;stroke:#000000;stroke-width:0.251163;stroke-miterlimit:4;stroke-dasharray:none;stroke-dashoffset:0;stroke-opacity:1"/>
        </g>
        <g transform="rotate(-5,68.659247,172.41756)">
          <path d="m 67.403429,172.33573 0.556457,-0.50233 h 1.955179" style="fill:none;stroke:#000000;stroke-width:0.502327px;stroke-linecap:butt;stroke-linejoin:miter;stroke-opacity:1"/>
          <path d="m 69.332954,171.85355 c 0.0707,0.11478 0.111506,0.24995 0.111506,0.39468 0,0.41612 -0.33734,0.75349 -0.753505,0.75349 -0.416137,0 -0.753477,-0.33737 -0.753477,-0.75349 0,-0.14864 0.04304,-0.28728 0.117376,-0.40403 z" style="fill:#ffffff;stroke:#000000;stroke-width:0.251163;stroke-miterlimit:4;stroke-dashoffset:0;stroke-opacity:1"/>
          <circle r="0.2511633" cy="172.3383" cx="68.675026" style="fill:#800080;fill-opacity:1;fill-rule:nonzero;stroke:#000000;stroke-width:0.251163;stroke-miterlimit:4;stroke-dasharray:none;stroke-dashoffset:0;stroke-opacity:1"/>
        </g>
        <path style="fill:none;stroke:#000000;stroke-width:0.502327px;stroke-linecap:butt;stroke-linejoin:miter;stroke-opacity:1" d="m 63.587142,177.6604 1.304741,0.20091 h 2.511637 l 1.263622,-0.20091"/>
        <path style="fill:none;stroke:#000000;stroke-width:0.502327px;stroke-linecap:butt;stroke-linejoin:miter;stroke-opacity:1" d="m 65.280475,172.86259 0.07161,2.29158 -0.35383,0.81286 1.128889,0.28225 1.128889,-0.28225 -0.316448,-0.81286 0.03422,-2.29158"/>
      </g></svg>