<svg xmlns="http://www.w3.org/2000/svg" width="64" height="64" viewBox="81.96498325892857 -46.21275111607143 22.694056919642858 22.694056919642858"><g>
        <g transform="translate(-0.830269,-2.4610303)">
          <path d="m 87.46394,-33.793773 c 0.714107,6.23344 5.229663,9.05567 7.769663,9.05567 2.54,0 7.055557,-2.82223 7.802457,-9.05567 0.5776,-4.82052 -2.93108,-8.53956 -7.78606,-8.53956 -4.854985,0 -8.338623,3.7161 -7.78606,8.53956 z" style="fill:#e4beaa;fill-opacity:1;fill-rule:nonzero;stroke:#000000;stroke-width:0.564444;stroke-miterlimit:4;stroke-dasharray:none;stroke-dashoffset:0;stroke-opacity:1"/>
          <g transform="translate(0,0.52916667)">
            <path style="fill:none;stroke:#000000;stroke-width:0.502327px;stroke-linecap:butt;stroke-linejoin:miter;stroke-opacity:1" d="m 93.998292,-34.296099 -0.499759,-0.502327 h -1.490557 -0.521293"/>
            <path style="fill:#ffffff;stroke:#000000;stroke-width:0.251163;stroke-miterlimit:4;stroke-dashoffset:0;stroke-opacity:1" d="m 93.41618,-34.77823 c 0.07072,0.11478 0.111506,0.249956 0.111506,0.394676 0,0.416128 -0.33734,0.753491 -0.753477,0.753491 -0.416164,0 -0.753505,-0.337363 -0.753505,-0.753491 0,-0.148638 0.04307,-0.287279 0.117377,-0.404021 z"/>
            <circle style="fill:#000000;fill-opacity:1;fill-rule:nonzero;stroke:#000000;stroke-width:0.251163;stroke-miterlimit:4;stroke-dasharray:none;stroke-dashoffset:0;stroke-opacity:1" cx="92.742317" cy="-34.29353" r="0.2511633"/>
          </g>
          <g transform="translate(0,0.52916667)">
            <path style="fill:none;stroke:#000000;stroke-width:0.502327px;stroke-linecap:butt;stroke-linejoin:miter;stroke-opacity:1" d="m 96.509929,-34.296099 0.556457,-0.502327 h 1.955179"/>
            <path style="fill:#ffffff;stroke:#000000;stroke-width:0.251163;stroke-miterlimit:4;stroke-dashoffset:0;stroke-opacity:1" d="m 98.439454,-34.778281 c 0.0707,0.11478 0.111506,0.249956 0.111506,0.394676 0,0.416129 -0.33734,0.753491 -0.753505,0.753491 -0.416137,0 -0.753477,-0.337362 -0.753477,-0.753491 0,-0.148638 0.04304,-0.287279 0.117376,-0.40402 z"/>
            <circle style="fill:#000000;fill-opacity:1;fill-rule:nonzero;stroke:#000000;stroke-width:0.251163;stroke-miterlimit:4;stroke-dasharray:none;stroke-dashoffset:0;stroke-opacity:1" cx="97.781525" cy="-34.29353" r="0.2511633"/>
          </g>
          <path d="m 94.386936,-33.204803 v 2.54 l 0.962282,0.56224 0.731051,-0.56224 v -2.54" style="fill:none;stroke:#000000;stroke-width:0.502327px;stroke-linecap:butt;stroke-linejoin:miter;stroke-opacity:1"/>
          <path style="fill:none;fill-rule:evenodd;stroke:#000000;stroke-width:0.264583px;stroke-linecap:butt;stroke-linejoin:miter;stroke-opacity:1" d="m 93.366323,-28.512792 0.759418,-0.193427 0.827012,0.0057 0.991684,0.0068 0.845941,0.237345"/>
          <path style="fill:#73331e;fill-opacity:1;fill-rule:evenodd;stroke:#000000;stroke-width:0.22788px;stroke-linecap:butt;stroke-linejoin:miter;stroke-opacity:1" d="m 100.71103,-40.70708 c 0.49035,0.0024 1.05299,0.25323 1.3822,0.84124 0.45509,0.60427 0.74131,1.334499 0.94842,2.064169 0.29684,0.732621 0.65154,1.452531 0.91954,2.190956 -0.0847,0.298029 -0.0878,0.703486 -0.34701,0.879988 -0.16549,0.274186 -0.42968,0.472804 -0.73962,0.463237 -0.31201,-0.05692 -0.47568,-0.540156 -0.65024,-0.735079 -0.52245,-1.14477 -0.99169,-2.318639 -1.4983,-3.472762 -0.22464,-0.48364 -0.43859,-1.000286 -0.3987,-1.510968 0.01,-0.357736 -0.0118,-0.792544 0.38373,-0.720789 z"/>
          <path style="fill:#73331e;fill-opacity:1;fill-rule:evenodd;stroke:#000000;stroke-width:0.22788px;stroke-linecap:butt;stroke-linejoin:miter;stroke-opacity:1" d="m 89.819957,-40.70708 c -0.49035,0.0024 -1.05299,0.25323 -1.3822,0.84124 -0.45509,0.60427 -0.74131,1.334499 -0.94842,2.064169 -0.29684,0.732621 -0.65154,1.452531 -0.91954,2.190956 0.0847,0.298029 0.0878,0.703486 0.34701,0.879988 0.16549,0.274186 0.42968,0.472804 0.73962,0.463237 0.31201,-0.05692 0.47568,-0.540156 0.65024,-0.735079 0.52245,-1.14477 0.99169,-2.318639 1.4983,-3.472762 0.22464,-0.48364 0.43859,-1.000286 0.3987,-1.510968 -0.01,-0.357736 0.0118,-0.792544 -0.38373,-0.720789 z"/>
        </g>
        <g transform="matrix(-0.36817762,0.50484444,-0.50484444,-0.36817762,113.36731,-57.654472)">
          <path style="fill:#808080;fill-rule:evenodd;stroke:#000000;stroke-width:0.264583px;stroke-linecap:butt;stroke-linejoin:miter;stroke-opacity:1" d="M 58.208333,9.2604166 V -1.3229166 l 1.322916,-2.6458334 1.322917,2.6458334 V 9.2604166 Z"/>
          <path style="fill:#800000;fill-rule:evenodd;stroke:#000000;stroke-width:0.264583px;stroke-linecap:butt;stroke-linejoin:miter;stroke-opacity:1" d="m 57.149999,9.2604166 4.762501,-3e-7 v 0.7937507 h -4.762501 z"/>
          <path style="fill:#907d6e;fill-opacity:1;fill-rule:evenodd;stroke:#000000;stroke-width:0.264583px;stroke-linecap:butt;stroke-linejoin:miter;stroke-opacity:1" d="m 59.002084,10.054167 v 3.96875 h 1.058333 v -3.96875"/>
          <path style="fill:none;fill-rule:evenodd;stroke:#000000;stroke-width:0.264583px;stroke-linecap:butt;stroke-linejoin:miter;stroke-opacity:1" d="M 59.531249,-2.6458333 V 9.2604166"/>
        </g>
      </g></svg>