<svg xmlns="http://www.w3.org/2000/svg" width="64" height="64" viewBox="32.351981026785715 -50.071297781808035 24.19056919642857 24.19056919642857"><g transform="translate(-19.05,-115.35833)">
        <path style="fill:#a05a2c;fill-rule:evenodd;stroke:#000000;stroke-width:0.529167;stroke-linecap:butt;stroke-linejoin:miter;stroke-dasharray:none;stroke-opacity:1" d="m 74.080604,74.595863 -10.583328,3.175004 -10.583336,-3.175004 4e-6,5.291668 v 3.059915 l 0.967908,1.17342 1.680648,2.133301 1.405599,-2.133301 3.354177,1.058333 3.175,2.116668 3.175,-2.116668 3.497668,-1.058333 1.267556,2.133301 1.480624,-2.133301 1.162484,-1.126648 -4e-6,-3.106687 z"/>
        <g transform="matrix(1.4095389,0.5130302,-0.5130302,1.4095389,14.81764,-64.972237)">
          <path style="fill:none;stroke:#000000;stroke-width:0.502327px;stroke-linecap:butt;stroke-linejoin:miter;stroke-opacity:1" d="M 61.122592,79.906291 60.622833,79.403964 H 59.132276 58.610983"/>
          <path style="fill:#ffffff;stroke:#000000;stroke-width:0.251163;stroke-miterlimit:4;stroke-dashoffset:0;stroke-opacity:1" d="m 60.54048,79.42416 c 0.07072,0.11478 0.111506,0.249956 0.111506,0.394676 0,0.416128 -0.33734,0.753491 -0.753477,0.753491 -0.416164,0 -0.753505,-0.337363 -0.753505,-0.753491 0,-0.148638 0.04307,-0.287279 0.117377,-0.404021 z"/>
          <circle style="fill:#000000;fill-opacity:1;fill-rule:nonzero;stroke:#000000;stroke-width:0.251163;stroke-miterlimit:4;stroke-dasharray:none;stroke-dashoffset:0;stroke-opacity:1" cx="59.866615" cy="79.908859" r="0.2511633"/>
        </g>
        <g transform="matrix(1.4095389,-0.5130302,0.5130302,1.4095389,-63.74715,-0.93913226)">
          <path style="fill:none;stroke:#000000;stroke-width:0.502327px;stroke-linecap:butt;stroke-linejoin:miter;stroke-opacity:1" d="m 63.634229,79.906291 0.556457,-0.502327 h 1.955179"/>
          <path style="fill:#ffffff;stroke:#000000;stroke-width:0.251163;stroke-miterlimit:4;stroke-dashoffset:0;stroke-opacity:1" d="m 65.563754,79.424109 c 0.0707,0.11478 0.111506,0.249956 0.111506,0.394676 0,0.416129 -0.33734,0.753491 -0.753505,0.753491 -0.416137,0 -0.753477,-0.337362 -0.753477,-0.753491 0,-0.148638 0.04304,-0.287279 0.117376,-0.40402 z"/>
          <circle style="fill:#000000;fill-opacity:1;fill-rule:nonzero;stroke:#000000;stroke-width:0.251163;stroke-miterlimit:4;stroke-dasharray:none;stroke-dashoffset:0;stroke-opacity:1" cx="64.905823" cy="79.908859" r="0.2511633"/>
        </g>
        <path style="fill:none;fill-rule:evenodd;stroke:#000000;stroke-width:0.396875;stroke-linecap:butt;stroke-linejoin:miter;stroke-dasharray:none;stroke-opacity:1" d="M 56.885417,81.227083 63.5,82.55 70.114583,81.227083"/>
        <path style="fill:#552200;fill-rule:evenodd;stroke:#000000;stroke-width:0.264583px;stroke-linecap:butt;stroke-linejoin:miter;stroke-opacity:1" d="m 55.562499,75.406249 c -0.336768,0.289084 -0.748889,0.473263 -1.106445,0.715348 -0.227869,0.338624 -0.312877,0.763773 -0.349437,1.164887 -0.01817,0.459405 -0.0043,0.915569 0.124311,1.359403 0.08794,0.425221 0.356342,0.792758 0.65362,1.098095 0.229222,0.153415 0.601689,0.245733 0.835502,0.133606 0.01648,-0.367435 0.02142,-0.74786 -0.02618,-1.117364 -0.124181,-0.430083 -0.195438,-0.870677 -0.165957,-1.320624 -0.06309,-0.39651 0.06217,-0.845468 0.484261,-0.978086 0.327541,-0.111633 0.71667,-0.310719 0.696579,-0.714363 0.02855,-0.514085 -0.639876,-0.44858 -0.98754,-0.438639 -0.05866,0.02155 -0.113667,0.05398 -0.158716,0.09774 z"/>
        <path style="fill:#552200;fill-rule:evenodd;stroke:#000000;stroke-width:0.264583px;stroke-linecap:butt;stroke-linejoin:miter;stroke-opacity:1" d="m 71.304535,75.406249 c 0.336768,0.289084 0.748889,0.473263 1.106445,0.715348 0.227869,0.338624 0.312877,0.763773 0.349437,1.164887 0.01817,0.459405 0.0043,0.915569 -0.124311,1.359403 -0.08794,0.425221 -0.356342,0.792758 -0.65362,1.098095 -0.229222,0.153415 -0.601689,0.245733 -0.835502,0.133606 -0.01648,-0.367435 -0.02142,-0.74786 0.02618,-1.117364 0.124181,-0.430083 0.195438,-0.870677 0.165957,-1.320624 0.06309,-0.39651 -0.06217,-0.845468 -0.484261,-0.978086 -0.327541,-0.111633 -0.71667,-0.310719 -0.696579,-0.714363 -0.02855,-0.514085 0.639876,-0.44858 0.98754,-0.438639 0.05866,0.02155 0.113667,0.05398 0.158716,0.09774 z"/>
        <path style="fill:#552200;fill-opacity:1;fill-rule:evenodd;stroke:#000000;stroke-width:0.529167;stroke-linecap:butt;stroke-linejoin:miter;stroke-dasharray:none;stroke-opacity:1" d="m 52.91394,74.595863 10.583336,3.175004 10.583328,-3.175004 C 71.963944,68.245867 69.85,70.64375 63.5,67.46875 c -6.35,3.175 -8.575976,0.802721 -10.58606,7.127113 z"/>
        <path style="fill:#2c1200;fill-opacity:1;fill-rule:evenodd;stroke:#000000;stroke-width:0.264583px;stroke-linecap:butt;stroke-linejoin:miter;stroke-opacity:1" d="m 55.562499,74.083332 3.96875,1.322917 1.322917,-2.645833 v -2.645834 h -1.852083 l -1.058334,0.529167 -1.322916,0.79375 -1.058334,2.645833"/>
        <path style="fill:#2c1200;fill-opacity:1;fill-rule:evenodd;stroke:#000000;stroke-width:0.264583px;stroke-linecap:butt;stroke-linejoin:miter;stroke-opacity:1" d="m 71.4375,74.083332 -3.96875,1.322917 -1.322917,-2.645833 v -2.645834 h 1.852083 l 1.058334,0.529167 1.322916,0.79375 1.058334,2.645833"/>
        <path style="fill:#2c1200;fill-opacity:1;fill-rule:evenodd;stroke:#000000;stroke-width:0.264583px;stroke-linecap:butt;stroke-linejoin:miter;stroke-opacity:1" d="m 62.177083,70.114582 1.322916,0.264584 1.322917,-0.264584 v 5.291667 l -1.322917,1.058333 -1.322916,-1.058333 z"/>
        <path style="fill:#2c1200;fill-opacity:1;fill-rule:evenodd;stroke:#000000;stroke-width:0.264583px;stroke-linecap:butt;stroke-linejoin:miter;stroke-opacity:1" d="M 60.325,75.670833 61.647917,76.2 v -2.116667 z"/>
        <path style="fill:#2c1200;fill-opacity:1;fill-rule:evenodd;stroke:#000000;stroke-width:0.264583px;stroke-linecap:butt;stroke-linejoin:miter;stroke-opacity:1" d="M 66.675,75.670833 65.352083,76.2 v -2.116667 z"/>
      </g></svg>