<svg xmlns="http://www.w3.org/2000/svg" width="64" height="64" viewBox="3.6237444196428577 -51.458256312779014 25.629464285714285 25.629464285714285"><g transform="matrix(1.1,0,0,1.1,-3.9344738,-5.8008961)">
        <g transform="matrix(1.1007626,0,0,1.1007626,56.38248,13.392733)">
          <path style="fill:#faaf3b;fill-opacity:1;fill-rule:evenodd;stroke:#000000;stroke-width:0.264583px;stroke-linecap:butt;stroke-linejoin:miter;stroke-opacity:1" d="m -26.722918,-43.391666 c 1.578153,-0.908431 0.819242,-2.908544 0.529168,-4.497917 -1.443199,0.8659 -2.116667,1.322916 -3.704167,2.38125 0.619543,1.583137 1.970461,1.703521 3.174999,2.116667 z"/>
          <path style="fill:#ffffff;fill-rule:evenodd;stroke:#000000;stroke-width:0.264583px;stroke-linecap:butt;stroke-linejoin:miter;stroke-opacity:1" d="m -36.5125,-32.014583 0.529167,1.322917 h 3.175 l 0.529167,-1.322917 -2.116667,-1.5875 -2.116667,1.5875"/>
          <path style="fill:#faaf3b;fill-opacity:1;fill-rule:evenodd;stroke:#000000;stroke-width:0.264583px;stroke-linecap:butt;stroke-linejoin:miter;stroke-opacity:1" d="m -42.068749,-43.391666 c -1.578153,-0.908431 -0.819242,-2.908544 -0.529168,-4.497917 1.443199,0.8659 2.116667,1.322916 3.704167,2.38125 -0.619543,1.583137 -1.970461,1.703521 -3.174999,2.116667 z"/>
          <path style="fill:#faaf3b;stroke:#000000;stroke-width:0.264999;stroke-linecap:round" d="m -25.135415,-38.364582 c 0,2.590932 -2.778975,6.614098 -2.778975,6.614098 l -6.481443,-3.968266 -6.44032,4.008319 c 0,0 -2.820096,-4.042573 -2.820096,-6.654151 0,-5.114387 4.146029,-7.937501 9.260416,-7.937501 5.114387,0 9.260418,2.823114 9.260418,7.937501 z"/>
          <g transform="rotate(25,-37.299874,-45.417554)">
            <path style="fill:none;stroke:#000000;stroke-width:0.502327px;stroke-linecap:butt;stroke-linejoin:miter;stroke-opacity:1" d="m -35.533208,-39.941229 -0.499759,-0.502327 h -1.490557 -0.521293"/>
            <path style="fill:#ffffff;stroke:#000000;stroke-width:0.251163;stroke-miterlimit:4;stroke-dashoffset:0;stroke-opacity:1" d="m -36.11532,-40.42336 c 0.07072,0.11478 0.111506,0.249956 0.111506,0.394676 0,0.416128 -0.33734,0.753491 -0.753477,0.753491 -0.416164,0 -0.753505,-0.337363 -0.753505,-0.753491 0,-0.148638 0.04307,-0.287279 0.117377,-0.404021 z"/>
            <circle style="fill:#000000;fill-opacity:1;fill-rule:nonzero;stroke:#000000;stroke-width:0.251163;stroke-miterlimit:4;stroke-dasharray:none;stroke-dashoffset:0;stroke-opacity:1" cx="-36.789185" cy="-39.93866" r="0.2511633"/>
          </g>
          <g transform="rotate(-25,-30.902327,-44.185025)">
            <path style="fill:none;stroke:#000000;stroke-width:0.502327px;stroke-linecap:butt;stroke-linejoin:miter;stroke-opacity:1" d="m -33.021571,-39.941229 0.556457,-0.502327 h 1.955179"/>
            <path style="fill:#ffffff;stroke:#000000;stroke-width:0.251163;stroke-miterlimit:4;stroke-dashoffset:0;stroke-opacity:1" d="m -31.092046,-40.423411 c 0.0707,0.11478 0.111506,0.249956 0.111506,0.394676 0,0.416129 -0.33734,0.753491 -0.753505,0.753491 -0.416137,0 -0.753477,-0.337362 -0.753477,-0.753491 0,-0.148638 0.04304,-0.287279 0.117376,-0.40402 z"/>
            <circle style="fill:#000000;fill-opacity:1;fill-rule:nonzero;stroke:#000000;stroke-width:0.251163;stroke-miterlimit:4;stroke-dasharray:none;stroke-dashoffset:0;stroke-opacity:1" cx="-31.749975" cy="-39.93866" r="0.2511633"/>
          </g>
          <path style="fill:#ffffff;fill-rule:evenodd;stroke:#000000;stroke-width:0.264583px;stroke-linecap:butt;stroke-linejoin:miter;stroke-opacity:1" d="m -32.808333,-36.247917 1.321376,0.79221 1.853624,1.58904 -1.322917,2.116667 -2.645833,-0.529166 -0.79375,-0.79375 -0.79375,0.79375 -2.38125,0.529166 -1.322917,-2.116667 1.852083,-1.852083 1.058334,-0.529167"/>
          <path style="fill:#faaf3b;fill-opacity:1;fill-rule:evenodd;stroke:#000000;stroke-width:0.264583px;stroke-linecap:butt;stroke-linejoin:miter;stroke-opacity:1" d="m -29.104167,-42.333333 -2.645833,1.26737 -0.79375,1.378463 -0.264583,3.439583 -0.79375,1.058334 h -1.5875 l -0.79375,-1.058334 -0.264584,-3.439583 -0.793749,-1.238146 -2.645834,-1.407687"/>
          <path style="fill:none;fill-rule:evenodd;stroke:#000000;stroke-width:0.264583px;stroke-linecap:butt;stroke-linejoin:miter;stroke-opacity:1" d="m -31.75,-35.71875 2.645834,-2.645833 h 3.96875"/>
          <path style="fill:none;fill-rule:evenodd;stroke:#000000;stroke-width:0.264583px;stroke-linecap:butt;stroke-linejoin:miter;stroke-opacity:1" d="m -37.041666,-35.71875 -2.645834,-2.645833 h -3.968749"/>
          <path style="fill:#ffffff;fill-opacity:1;stroke:#000000;stroke-width:0.177055;stroke-linecap:round;stroke-linejoin:miter;stroke-dasharray:none;stroke-opacity:1" d="m -164.46344,-144.33506 c 0.74999,7.13073 4.25041,13.57434 7.73985,19.70438 0.81904,1.35929 1.66302,2.73545 2.59883,3.99889 2.63769,-1.67727 5.3524,-3.28956 7.95322,-4.99049 -0.44858,-0.79734 -1.08752,-1.55076 -1.39695,-2.40099 2.15207,-2.41899 4.57002,-4.62398 6.78139,-6.96473 -3.12879,-3.12352 -6.24613,-6.26405 -9.38229,-9.37676 -4.76008,0.0199 -9.55625,-0.0395 -14.29405,0.0297 z" transform="scale(0.26458333)"/>
          <path style="fill:#ffffff;fill-opacity:1;stroke:#000000;stroke-width:0.177055;stroke-linecap:round;stroke-linejoin:miter;stroke-dasharray:none;stroke-opacity:1" d="m -109.88778,-144.35682 c -3.01183,3.11997 -6.2523,6.03551 -9.10676,9.29873 -0.36456,0.59651 0.77435,0.7642 0.98401,1.18841 2.22847,1.90809 4.52494,3.77948 6.61152,5.82569 -0.37376,0.98395 -1.27056,1.80782 -1.44322,2.8419 2.36181,1.48389 4.74509,3.0707 7.17258,4.37384 4.14656,-6.28512 7.817239,-13.0481 9.659879,-20.39596 0.228129,-1.02907 0.389673,-2.10512 0.422262,-3.14055 -4.766201,0.005 -9.536761,-0.0106 -14.300271,0.008 z" transform="scale(0.26458333)"/>
          <path style="fill:none;fill-rule:evenodd;stroke:#000000;stroke-width:0.529167;stroke-linecap:butt;stroke-linejoin:miter;stroke-dasharray:none;stroke-opacity:1" d="m -34.395833,-46.302083 v 5.291666"/>
          <path style="fill:none;fill-rule:evenodd;stroke:#000000;stroke-width:0.264583px;stroke-linecap:butt;stroke-linejoin:miter;stroke-opacity:1" d="m -37.041666,-44.979166 c 1.711326,-0.333697 3.469269,-0.371441 5.291666,0"/>
          <path style="fill:none;fill-rule:evenodd;stroke:#000000;stroke-width:0.264583px;stroke-linecap:butt;stroke-linejoin:miter;stroke-opacity:1" d="m -36.5125,-43.127083 c 1.450813,-0.368816 2.858439,-0.336432 4.233334,0"/>
          <path style="fill:none;fill-rule:evenodd;stroke:#000000;stroke-width:0.264583px;stroke-linecap:butt;stroke-linejoin:miter;stroke-opacity:1" d="m -40.216666,-33.072916 c -1.417546,-2.700741 -2.264484,-5.3694 -1.322917,-7.9375"/>
          <path style="fill:none;fill-rule:evenodd;stroke:#000000;stroke-width:0.264583px;stroke-linecap:butt;stroke-linejoin:miter;stroke-opacity:1" d="m -39.422916,-34.925 c -0.469747,-0.645842 -0.702687,-1.462404 -0.79375,-2.38125"/>
          <path style="fill:none;fill-rule:evenodd;stroke:#000000;stroke-width:0.264583px;stroke-linecap:butt;stroke-linejoin:miter;stroke-opacity:1" d="m -28.575,-33.072916 c 1.417546,-2.700741 2.264484,-5.3694 1.322917,-7.9375"/>
          <path style="fill:none;fill-rule:evenodd;stroke:#000000;stroke-width:0.264583px;stroke-linecap:butt;stroke-linejoin:miter;stroke-opacity:1" d="m -29.36875,-34.925 c 0.469747,-0.645842 0.702687,-1.462404 0.79375,-2.38125"/>
        </g>
        <path style="fill:none;fill-rule:evenodd;stroke:#000000;stroke-width:0.264583px;stroke-linecap:butt;stroke-linejoin:miter;stroke-opacity:1" d="m 16.66875,-26.9875 h 3.704167"/>
        <path style="fill:#000000;fill-opacity:1;stroke:#000000;stroke-width:0.0412499;stroke-linecap:round;stroke-linejoin:miter;stroke-dasharray:none;stroke-opacity:1" d="m 16.729608,-26.903901 c 0.03697,0.448175 0.421217,0.756424 0.643991,1.118223 0.134747,0.158125 0.215433,0.42689 0.474061,0.340679 0.523254,-0.0021 1.048518,0.0042 1.57053,-0.0031 0.281544,-0.419041 0.646846,-0.791429 0.859198,-1.252632 0.131989,-0.258966 -0.113733,-0.223605 -0.300633,-0.211957 -1.080984,0.0059 -2.172886,-0.01176 -3.247147,0.0088 z"/>
      </g></svg>