<svg xmlns="http://www.w3.org/2000/svg" width="64" height="64" viewBox="126.83491734095982 27.804186139787948 24.162806919642854 24.162806919642854"><g transform="translate(76.308797,-87.689737)">
        <g transform="matrix(-1.0590469,0,0,1.0590469,128.65029,-7.6943466)">
          <path style="fill:#a5e2eb;fill-opacity:1;fill-rule:evenodd;stroke:#000000;stroke-width:0.214312px;stroke-linecap:butt;stroke-linejoin:miter;stroke-opacity:1" d="m 56.820143,126.11924 c -1.939481,-1.01182 -2.292761,-1.22026 -3.804643,-2.3181 0.0073,0.35777 0.102137,0.75899 0.246905,1.16542 0.06026,0.16919 -0.954645,0.56511 -0.879787,0.73333 0.05346,0.12014 1.193768,0.0135 1.252295,0.13072 0.187682,0.37592 0.396363,0.73176 0.593478,1.03438 -0.335453,0.86952 -0.192985,0.78836 -0.453183,1.12183 0.08669,0.10488 1.092122,-0.27086 1.169114,-0.1866 0.181634,0.19884 0.339312,0.34428 0.487339,0.45457 0.428187,0.31901 0.775617,0.34388 1.388482,0.5164"/>
          <path style="fill:#f6b8f6;fill-opacity:1;fill-rule:evenodd;stroke:#000000;stroke-width:0.214312px;stroke-linecap:butt;stroke-linejoin:miter;stroke-opacity:1" d="m 58.128013,127.55394 c -1.939481,-1.01182 -2.757111,-1.58009 -4.268992,-2.67793 0.0039,1.36052 1.891689,3.41299 2.857932,3.43494 1.385201,0.0315 0.496513,1.63753 1.41106,1.89498"/>
        </g>
        <g transform="matrix(1.0590469,0,0,1.0590469,-3.4352053,-7.6943466)">
          <path style="fill:#a5e2eb;fill-opacity:1;fill-rule:evenodd;stroke:#000000;stroke-width:0.214312px;stroke-linecap:butt;stroke-linejoin:miter;stroke-opacity:1" d="m 56.820143,126.11924 c -1.939481,-1.01182 -2.292761,-1.22026 -3.804643,-2.3181 0.0073,0.35777 0.102137,0.75899 0.246905,1.16542 0.06026,0.16919 -0.954645,0.56511 -0.879787,0.73333 0.05346,0.12014 1.193768,0.0135 1.252295,0.13072 0.187682,0.37592 0.396363,0.73176 0.593478,1.03438 -0.335453,0.86952 -0.192985,0.78836 -0.453183,1.12183 0.08669,0.10488 1.092122,-0.27086 1.169114,-0.1866 0.181634,0.19884 0.339312,0.34428 0.487339,0.45457 0.428187,0.31901 0.775617,0.34388 1.388482,0.5164"/>
          <path style="fill:#f6b8f6;fill-opacity:1;fill-rule:evenodd;stroke:#000000;stroke-width:0.214312px;stroke-linecap:butt;stroke-linejoin:miter;stroke-opacity:1" d="m 58.128013,127.55394 c -1.939481,-1.01182 -2.757111,-1.58009 -4.268992,-2.67793 0.0039,1.36052 1.891689,3.41299 2.857932,3.43494 1.385201,0.0315 0.496513,1.63753 1.41106,1.89498"/>
        </g>
        <path style="fill:#a5e2eb;fill-opacity:1;stroke:#000000;stroke-width:0.608672;stroke-linecap:butt;stroke-linejoin:miter;stroke-miterlimit:4;stroke-dasharray:none;stroke-opacity:1" d="m 62.80213,121.08147 c -4.675557,-0.89646 -7.904738,4.76135 -6.098909,8.75605 0.677459,3.64228 4.794311,7.36267 8.504757,5.18924 3.559977,-2.16473 4.704054,-7.09513 3.521418,-10.8854 -0.994322,-2.31783 -3.518381,-3.35473 -5.927266,-3.05989 z"/>
        <path d="m 61.966526,128.92234 c 0.135432,0.52502 0.200459,2.83703 0.846393,2.8567 0.825018,0.0251 0.69302,-2.17582 0.846377,-2.86617" style="fill:none;stroke:#000000;stroke-width:0.3048;stroke-linecap:butt;stroke-linejoin:miter;stroke-miterlimit:4;stroke-dasharray:none;stroke-opacity:1"/>
        <path d="m 61.677056,133.00181 c 0,0 0.175519,0.008 1.211631,0.008 1.036111,0 1.16725,0.0454 1.16725,0.0454" style="fill:none;stroke:#000000;stroke-width:0.3048;stroke-linecap:butt;stroke-linejoin:miter;stroke-miterlimit:4;stroke-dasharray:none;stroke-opacity:1"/>
        <g transform="matrix(0.81,0,0,0.81,-53.245189,49.309732)">
          <path d="m 141.6289,98.049468 -0.49976,-0.502327 c -0.67061,-0.286579 -1.34123,-0.274634 -2.01184,0" style="fill:none;stroke:#000000;stroke-width:0.502327px;stroke-linecap:butt;stroke-linejoin:miter;stroke-opacity:1"/>
          <path d="m 141.04679,97.567348 c 0.0707,0.11478 0.26352,0.331815 0.26352,0.476539 0,0.416108 -0.48935,0.671626 -0.90549,0.671626 -0.41616,0 -0.99905,-0.372448 -0.99905,-0.788556 0,-0.148647 0.28865,-0.252223 0.36292,-0.368951 0.14405,-0.175476 0.47549,-0.232273 1.2781,0.0093 z" style="fill:#ffffff;stroke:#000000;stroke-width:0.251163;stroke-miterlimit:4;stroke-dashoffset:0;stroke-opacity:1"/>
          <circle r="0.2511633" cy="98.002426" cx="140.37302" style="fill:#000000;fill-opacity:1;fill-rule:nonzero;stroke:#000000;stroke-width:0.251163;stroke-miterlimit:4;stroke-dasharray:none;stroke-dashoffset:0;stroke-opacity:1"/>
        </g>
        <g transform="matrix(0.81,0,0,0.81,-53.07106,49.309732)">
          <path d="m 144.66971,98.049468 0.55646,-0.502327 c 0.75341,-0.305064 1.38854,-0.255274 1.95518,0" style="fill:none;stroke:#000000;stroke-width:0.502327px;stroke-linecap:butt;stroke-linejoin:miter;stroke-opacity:1"/>
          <g transform="translate(0.52916667)">
            <path d="m 146.07007,97.567292 c 0.0707,0.114779 0.48568,0.249964 0.48568,0.394687 0,0.416137 -0.71152,0.753477 -1.12768,0.753477 -0.41614,0 -0.94057,-0.278875 -0.94057,-0.695012 0,-0.148646 0.23009,-0.345739 0.30447,-0.462494 0.4594,-0.205422 0.90585,-0.329946 1.2781,0.0093 z" style="fill:#ffffff;stroke:#000000;stroke-width:0.251163;stroke-miterlimit:4;stroke-dashoffset:0;stroke-opacity:1"/>
            <circle r="0.2511633" cy="98.002426" cx="145.41222" style="fill:#000000;fill-opacity:1;fill-rule:nonzero;stroke:#000000;stroke-width:0.251163;stroke-miterlimit:4;stroke-dasharray:none;stroke-dashoffset:0;stroke-opacity:1"/>
          </g>
        </g>
        <path style="fill:#ececec;fill-opacity:1;stroke:#000000;stroke-width:0.67056px;stroke-linecap:butt;stroke-linejoin:miter;stroke-opacity:1" d="m 55.420924,126.66113 c 4.023351,-0.67056 5.699743,-1.14723 7.376152,-2.82362 v -4.35865 c -6.081807,0.17135 -8.046718,2.48835 -7.376152,7.18227 z"/>
        <path d="m 70.173227,126.66113 c -4.023351,-0.67056 -5.871414,-1.09321 -7.376151,-2.82362 v -4.35865 c 5.94149,0.17135 8.046718,2.48835 7.376151,7.18227 z" style="fill:#ececec;fill-opacity:1;stroke:#000000;stroke-width:0.67056px;stroke-linecap:butt;stroke-linejoin:miter;stroke-opacity:1"/>
        <ellipse style="fill:#ffffff;fill-opacity:1;stroke:#333333;stroke-width:0;stroke-linecap:round;stroke-linejoin:round;stroke-opacity:1" cx="101.31789" cy="98.944862" rx="0.84189904" ry="0.35079125" transform="rotate(21.47882)"/>
        <ellipse style="fill:#ffffff;fill-opacity:1;stroke:#333333;stroke-width:0;stroke-linecap:round;stroke-linejoin:round;stroke-opacity:1" cx="60.95406" cy="130.82576" rx="0.25724691" ry="0.16370259"/>
        <ellipse style="fill:#ffffff;fill-opacity:1;stroke:#333333;stroke-width:0;stroke-linecap:round;stroke-linejoin:round;stroke-opacity:1" cx="137.92941" cy="40.879406" rx="0.56126595" ry="0.25724691" transform="rotate(49.208401)"/>
        <ellipse style="fill:#ffffff;fill-opacity:1;stroke:#333333;stroke-width:0;stroke-linecap:round;stroke-linejoin:round;stroke-opacity:1" cx="61.449459" cy="134.29384" rx="0.37417734" ry="0.28063297"/>
        <ellipse style="fill:#ffffff;fill-opacity:1;stroke:#333333;stroke-width:0;stroke-linecap:round;stroke-linejoin:round;stroke-opacity:1" cx="59.774826" cy="132.90311" rx="0.56126595" ry="0.35079125"/>
        <ellipse style="fill:#ffffff;fill-opacity:1;stroke:#333333;stroke-width:0;stroke-linecap:round;stroke-linejoin:round;stroke-opacity:1" cx="-15.433925" cy="144.88477" rx="0.84189904" ry="0.35079125" transform="matrix(-0.93055299,0.36615726,0.36615726,0.93055299,0,0)"/>
        <ellipse style="fill:#ffffff;fill-opacity:1;stroke:#333333;stroke-width:0;stroke-linecap:round;stroke-linejoin:round;stroke-opacity:1" cx="-64.510918" cy="130.82576" rx="0.25724691" ry="0.16370259" transform="scale(-1,1)"/>
        <ellipse style="fill:#ffffff;fill-opacity:1;stroke:#333333;stroke-width:0;stroke-linecap:round;stroke-linejoin:round;stroke-opacity:1" cx="55.961937" cy="135.8678" rx="0.56126595" ry="0.25724691" transform="matrix(-0.6533096,0.75709086,0.75709086,0.6533096,0,0)"/>
        <ellipse style="fill:#ffffff;fill-opacity:1;stroke:#333333;stroke-width:0;stroke-linecap:round;stroke-linejoin:round;stroke-opacity:1" cx="-64.015518" cy="134.29384" rx="0.37417734" ry="0.28063297" transform="scale(-1,1)"/>
        <ellipse style="fill:#ffffff;fill-opacity:1;stroke:#333333;stroke-width:0;stroke-linecap:round;stroke-linejoin:round;stroke-opacity:1" cx="-65.690155" cy="132.90311" rx="0.56126595" ry="0.35079125" transform="scale(-1,1)"/>
        <ellipse style="fill:#ffffff;fill-opacity:1;stroke:#333333;stroke-width:0;stroke-linecap:round;stroke-linejoin:round;stroke-opacity:1" cx="28.021408" cy="137.5079" rx="0.67799479" ry="0.31419271" transform="rotate(-14.023381)"/>
        <ellipse style="fill:#ffffff;fill-opacity:1;stroke:#333333;stroke-width:0;stroke-linecap:round;stroke-linejoin:round;stroke-opacity:1" cx="100.56569" cy="100.76197" rx="0.97565103" ry="0.29765624" transform="rotate(17.789753)"/>
        <ellipse style="fill:#ffffff;fill-opacity:1;stroke:#333333;stroke-width:0;stroke-linecap:round;stroke-linejoin:round;stroke-opacity:1" cx="62.739319" cy="126.75197" rx="0.66145831" ry="0.18190104"/>
      </g></svg>