<svg xmlns="http://www.w3.org/2000/svg" width="64" height="64" viewBox="191.07501220703125 -13.95184326171875 24.6689453125 24.6689453125"><g transform="matrix(1.824661,0,0,1.824661,17.628869,-90.761678)">
        <circle style="fill:#74584f;fill-opacity:1;stroke:#000000;stroke-width:0.264999;stroke-linecap:round;stroke-linejoin:miter;stroke-dasharray:none;stroke-opacity:1" cx="98.557289" cy="47.625" r="1.190625"/>
        <circle style="fill:#74584f;fill-opacity:1;stroke:#000000;stroke-width:0.264999;stroke-linecap:round;stroke-linejoin:miter;stroke-dasharray:none;stroke-opacity:1" cx="105.17188" cy="47.625" r="1.190625"/>
        <path style="fill:#ffba00;fill-opacity:1;fill-rule:evenodd;stroke:#000000;stroke-width:0.264583px;stroke-linecap:butt;stroke-linejoin:miter;stroke-opacity:1" d="m 104.51042,46.302083 h -2.64064 -2.651031 c 10e-7,1.852084 -0.529166,2.116667 -1.5875,2.38125 0,0 -0.0267,1.137002 0.264584,1.5875 0.517977,0.801096 1.468212,1.311055 2.381247,1.5875 1.01292,0.306689 2.16208,0.306688 3.175,0 0.91304,-0.276445 1.86327,-0.786403 2.38125,-1.5875 0.29129,-0.450497 0.26459,-1.5875 0.26459,-1.5875 -1.00528,-0.290564 -1.5875,-0.529166 -1.5875,-2.38125 z"/>
        <path style="fill:#ffba00;fill-opacity:1;stroke:#000000;stroke-width:0.264999;stroke-linecap:round;stroke-linejoin:miter;stroke-dasharray:none;stroke-opacity:1" d="m 11.039344,106.76908 h -3.4393 l 2.74e-5,0.79357 2.7011126,4.5e-4 4.8e-5,3.07424 0.793575,-3e-5 4e-6,-3.4393 -0.05513,3e-5 z" transform="rotate(-59.558962)"/>
        <path style="fill:#ffba00;fill-opacity:1;stroke:#000000;stroke-width:0.264999;stroke-linecap:round;stroke-linejoin:miter;stroke-dasharray:none;stroke-opacity:1" d="m -92.131366,-68.79291 7.9e-5,0.428517 0.05513,-2.9e-5 -4e-6,3.4393 -0.793575,2.7e-5 -4.8e-5,-3.074241 -2.700851,-2e-6 -2.89e-4,-0.794022 z" transform="matrix(-0.50665141,-0.862151,-0.862151,0.50665141,0,0)"/>
        <path style="fill:#ffba00;fill-opacity:1;fill-rule:evenodd;stroke:#000000;stroke-width:0.264583px;stroke-linecap:butt;stroke-linejoin:miter;stroke-opacity:1" d="m 100.54167,49.741666 -0.793755,0.529167 -0.264583,2.116666 0.793748,0.79375 h 0.52917 v -0.529166 l -0.52917,-0.264584 0.52917,-0.264583 v -0.264583 l -0.52917,-0.264584 0.52917,-0.264583 v -0.264583 l -0.52917,-0.264584 0.52917,-0.264583 z"/>
        <path style="fill:#ffba00;fill-opacity:1;fill-rule:evenodd;stroke:#000000;stroke-width:0.264583px;stroke-linecap:butt;stroke-linejoin:miter;stroke-opacity:1" d="m 100.54167,49.741666 -0.793755,0.529167 -0.264583,2.116666 0.793748,0.79375 h 0.52917 v -0.529166 l -0.52917,-0.264584 0.52917,-0.264583 v -0.264583 l -0.52917,-0.264584 0.52917,-0.264583 v -0.264583 l -0.52917,-0.264584 0.52917,-0.264583 z"/>
        <path style="fill:#ffba00;fill-opacity:1;fill-rule:evenodd;stroke:#000000;stroke-width:0.264583px;stroke-linecap:butt;stroke-linejoin:miter;stroke-opacity:1" d="m 103.31979,49.741666 0.79375,0.529167 0.26458,2.116666 -0.79375,0.79375 h -0.52916 v -0.529166 l 0.52916,-0.264584 -0.52916,-0.264583 v -0.264583 l 0.52916,-0.264584 -0.52916,-0.264583 v -0.264583 l 0.52916,-0.264584 -0.52916,-0.264583 z"/>
      </g></svg>