<svg xmlns="http://www.w3.org/2000/svg" width="64" height="64" viewBox="-113.2101571219308 52.13508823939732 34.211146763392854 34.211146763392854"><g transform="matrix(1.1089768,0,0,1.1089768,-75.643398,10.326825)" style="stroke-width:0.225433;stroke-dasharray:none">
        <path style="fill:#6c5353;fill-opacity:1;fill-rule:evenodd;stroke:#000000;stroke-width:0.225433;stroke-linecap:butt;stroke-linejoin:miter;stroke-dasharray:none;stroke-opacity:1" d="m -24.290123,54.662067 c -0.66216,-0.682588 -1.479193,-1.086406 -1.757322,-2.460251 4.274779,-0.572161 10.911496,-0.627134 15.112976,0 -0.384947,0.906153 -0.803312,1.797983 -1.757323,2.460251"/>
        <path style="fill:#6c5353;fill-opacity:1;stroke:#000000;stroke-width:0.225433;stroke-linecap:round;stroke-linejoin:round;stroke-dasharray:none" d="m -30.66518,44.913209 c 0.241561,0.471237 0.478953,0.94737 0.738499,1.407679 0.08792,0.04079 0.185619,0.07795 0.276798,0.101567 -0.13379,-0.433351 -0.293558,-0.859654 -0.426269,-1.292732 0.09736,-0.05627 0.214737,-0.0903 0.325458,-0.112646 0.127696,0.329727 0.230818,0.675579 0.347857,1.011828 0.06172,0.184069 0.123419,0.368141 0.185139,0.552211 0.07148,0.01996 0.158906,0.06813 0.224799,0.06971 -0.03436,-0.455158 -0.104995,-0.909324 -0.131575,-1.364568 0.06007,-0.05975 0.165938,-0.03378 0.242994,-0.05373 0.04483,-0.0058 0.115808,-0.02415 0.100186,0.04973 0.06045,0.504827 0.111105,1.011154 0.171247,1.515805 0.06951,0.02105 0.15244,0.06379 0.214606,0.07101 0.02371,-0.468582 0.0061,-0.939001 0.01169,-1.408347 0.109218,-0.02168 0.235115,-0.0032 0.35076,-0.0093 0.02265,0.202436 0.0053,0.421655 0.01249,0.630552 0.0016,0.310181 0.0032,0.620359 0.0048,0.93054 0.05171,0.01315 0.114638,0.04969 0.162821,0.04833 0.0259,-0.470216 0.0066,-0.942606 0.01275,-1.413716 0.109312,-0.02169 0.235297,-0.0032 0.351032,-0.0093 0.02172,0.197316 0.0032,0.41134 0.0093,0.615088 0,0.31654 0,0.633079 0,0.949619 0.102524,0.03597 0.205039,0.07194 0.30756,0.107903 0,-0.481945 0,-0.963894 0,-1.445844 0.104065,-0.02165 0.224787,-0.0032 0.335228,-0.0093 0.02263,0.20244 0.0052,0.42166 0.01249,0.630555 0.0016,0.316288 0.0032,0.632578 0.0049,0.948867 0.109883,0.03911 0.217602,0.08576 0.330889,0.114399 0,-0.499371 0,-0.998743 0,-1.498117 0.104065,-0.02165 0.224787,-0.0032 0.335226,-0.0093 0.02261,0.202441 0.0052,0.42166 0.01235,0.630556 0.0016,0.33617 0.0033,0.672338 0.0049,1.008511 0.108767,0.0337 0.229076,0.09422 0.333527,0.110334 0.02625,-0.516927 0.0066,-1.035913 0.01289,-1.553695 0.104157,-0.02165 0.224968,-0.0032 0.335499,-0.0093 0.02177,0.197319 0.0032,0.411343 0.0094,0.615091 0.0029,0.359938 -0.0057,0.721703 0.01275,1.08043 0.162114,0.128241 0.288934,0.300003 0.437354,0.444905 1.426942,1.524393 2.855289,3.047665 4.268806,4.584532 -0.130778,0.149892 -0.298708,0.283157 -0.445553,0.425134 -0.06807,0.05125 -0.125557,0.13335 -0.201298,0.167199 -0.585138,-0.605658 -1.147206,-1.233893 -1.723705,-1.847989 -0.925946,-0.994227 -1.846566,-1.995609 -2.777832,-2.983372 -0.07278,-0.04269 -0.132345,-0.04536 -0.170048,0.04366 -0.284026,0.357285 -0.568063,0.714559 -0.852106,1.071829 -0.0979,-0.05125 -0.184853,-0.141127 -0.277403,-0.209174 0.110467,-0.172284 0.262446,-0.332383 0.38863,-0.50019 0.149449,-0.189974 0.304039,-0.376021 0.446313,-0.571474 -0.111809,-0.04433 -0.225843,-0.08274 -0.338929,-0.123658 -0.294234,0.365573 -0.579506,0.738941 -0.88245,1.097182 -0.09078,-0.04357 -0.175615,-0.11861 -0.247583,-0.192462 -0.03652,-0.05214 0.05778,-0.09445 0.07212,-0.139626 0.230557,-0.298096 0.469612,-0.589566 0.699336,-0.88832 -0.102032,-0.04445 -0.20838,-0.07775 -0.31305,-0.116339 -0.296175,0.349854 -0.573606,0.716798 -0.861913,1.072606 -0.103267,-0.04838 -0.187622,-0.137858 -0.276645,-0.209997 0.120284,-0.183664 0.280144,-0.355414 0.415545,-0.534481 0.117627,-0.150859 0.244425,-0.301269 0.353232,-0.45521 -0.09587,-0.04548 -0.200154,-0.0811 -0.30404,-0.09608 -0.278931,0.355049 -0.561661,0.707132 -0.842588,1.060618 -0.09203,-0.05603 -0.194269,-0.131216 -0.264177,-0.220853 0.04188,-0.08863 0.1286,-0.163755 0.185732,-0.247592 0.189598,-0.242108 0.388054,-0.480882 0.569089,-0.727417 -0.04931,-0.03276 -0.118557,-0.05651 -0.171556,-0.06201 -0.304359,0.333512 -0.564648,0.705003 -0.863126,1.043269 -0.09649,-0.04289 -0.178247,-0.127922 -0.258746,-0.198194 0.0032,-0.06088 0.08195,-0.108634 0.109789,-0.164182 0.205162,-0.273141 0.436628,-0.52776 0.625222,-0.812615 -0.0081,-0.03406 -0.08308,-0.03374 -0.113257,-0.05416 -0.09629,-0.06672 -0.163712,-0.0101 -0.2251,0.07103 -0.289616,0.294109 -0.579232,0.588218 -0.868847,0.882327 -0.09154,-0.06068 -0.166369,-0.161938 -0.251466,-0.238241 0.126169,-0.156947 0.292697,-0.29718 0.434338,-0.447716 0.139762,-0.144414 0.288343,-0.281882 0.415015,-0.438375 -0.08099,-0.03654 -0.166813,-0.07171 -0.253984,-0.08864 -0.416751,0.246054 -0.814937,0.522311 -1.227871,0.774544 -0.06764,-0.04469 -0.09894,-0.141741 -0.15054,-0.205951 -0.110029,-0.09348 0.04972,-0.133209 0.113682,-0.185594 0.273478,-0.182041 0.558395,-0.348368 0.819778,-0.547456 -0.105566,-0.035 -0.214719,-0.09438 -0.32092,-0.106336 -0.417783,0.186769 -0.835564,0.373547 -1.253342,0.56033 -0.05599,-0.09025 -0.107784,-0.203069 -0.130778,-0.312474 0.05367,-0.05663 0.151834,-0.07139 0.219601,-0.113642 0.358414,-0.16433 0.720444,-0.323154 1.07838,-0.487009 -0.384525,-0.266935 -0.785859,-0.510066 -1.16562,-0.783429 0.03648,-0.102935 0.120643,-0.190494 0.17541,-0.286415 0.160204,0.07795 0.311414,0.202049 0.468325,0.296917 0.233525,0.152862 0.466812,0.308814 0.702057,0.45748 0.03005,-0.08779 0.100199,-0.185447 0.02331,-0.267753 -0.176106,-0.347486 -0.366721,-0.690181 -0.531703,-1.041878 0.08875,-0.06938 0.201211,-0.106641 0.299489,-0.161786 z"/>
        <path style="fill:#6c5353;fill-opacity:1;stroke:#000000;stroke-width:0.225433;stroke-linecap:round;stroke-linejoin:round;stroke-dasharray:none" d="m -6.2358621,44.913209 c -0.2415614,0.471237 -0.4789531,0.94737 -0.7384993,1.407679 -0.087925,0.04079 -0.1856185,0.07795 -0.2767978,0.101567 0.1337894,-0.433351 0.2935578,-0.859654 0.4262686,-1.292732 -0.097356,-0.05627 -0.2147363,-0.0903 -0.3254573,-0.112646 -0.1276962,0.329727 -0.2308189,0.675579 -0.3478576,1.011828 -0.061716,0.184069 -0.1234188,0.368141 -0.1851389,0.552211 -0.07148,0.01996 -0.1589063,0.06813 -0.2247987,0.06971 0.034365,-0.455158 0.1049943,-0.909324 0.131575,-1.364568 -0.060069,-0.05975 -0.1659386,-0.03378 -0.2429947,-0.05373 -0.044833,-0.0058 -0.1158073,-0.02415 -0.1001857,0.04973 -0.060454,0.504827 -0.1111048,1.011154 -0.1712468,1.515805 -0.069514,0.02105 -0.1524398,0.06379 -0.2146061,0.07101 -0.023711,-0.468582 -0.00611,-0.939001 -0.01169,-1.408347 -0.1092186,-0.02168 -0.2351148,-0.0032 -0.3507601,-0.0093 -0.022649,0.202436 -0.00531,0.421655 -0.012487,0.630552 -0.00159,0.310181 -0.00319,0.620359 -0.00478,0.93054 -0.051713,0.01315 -0.1146383,0.04969 -0.162821,0.04833 -0.025903,-0.470216 -0.00664,-0.942606 -0.012752,-1.413716 -0.1093116,-0.02169 -0.2352968,-0.0032 -0.3510324,-0.0093 -0.021719,0.197316 -0.00319,0.41134 -0.0093,0.615088 0,0.31654 0,0.633079 0,0.949619 -0.1025236,0.03597 -0.2050392,0.07194 -0.3075602,0.107903 0,-0.481945 0,-0.963894 0,-1.445844 -0.1040645,-0.02165 -0.2247867,-0.0032 -0.3352279,-0.0093 -0.02263,0.20244 -0.0052,0.42166 -0.01249,0.630555 -0.0016,0.316288 -0.0032,0.632578 -0.0049,0.948867 -0.109882,0.03911 -0.217601,0.08576 -0.330889,0.114399 0,-0.499371 0,-0.998743 0,-1.498117 -0.104064,-0.02165 -0.224786,-0.0032 -0.335226,-0.0093 -0.02261,0.202441 -0.0052,0.42166 -0.01235,0.630556 -0.0016,0.33617 -0.0033,0.672338 -0.0049,1.008511 -0.108767,0.0337 -0.229077,0.09422 -0.333528,0.110334 -0.02625,-0.516927 -0.0066,-1.035913 -0.01288,-1.553695 -0.104157,-0.02165 -0.224969,-0.0032 -0.3355,-0.0093 -0.02177,0.197319 -0.0032,0.411343 -0.0094,0.615091 -0.0029,0.359938 0.0057,0.721703 -0.01275,1.08043 -0.162115,0.128241 -0.288934,0.300003 -0.437354,0.444905 -1.426942,1.524393 -2.855289,3.047665 -4.268806,4.584532 0.130778,0.149892 0.298708,0.283157 0.445552,0.425134 0.06807,0.05125 0.125558,0.13335 0.201299,0.167199 0.585138,-0.605658 1.147205,-1.233893 1.723705,-1.847989 0.925945,-0.994227 1.846566,-1.995609 2.777831,-2.983372 0.07278,-0.04269 0.132346,-0.04536 0.170049,0.04366 0.284025,0.357285 0.568063,0.714559 0.852105,1.071829 0.097901,-0.05125 0.1848541,-0.141127 0.2774043,-0.209174 -0.1104672,-0.172284 -0.262446,-0.332383 -0.3886313,-0.50019 -0.149448,-0.189974 -0.304038,-0.376021 -0.446312,-0.571474 0.111809,-0.04433 0.225843,-0.08274 0.338928,-0.123658 0.2942346,0.365573 0.5795074,0.738941 0.8824515,1.097182 0.090781,-0.04357 0.1756145,-0.11861 0.2475829,-0.192462 0.036517,-0.05214 -0.057784,-0.09445 -0.072117,-0.139626 -0.2305572,-0.298096 -0.469612,-0.589566 -0.6993364,-0.88832 0.1020321,-0.04445 0.2083801,-0.07775 0.3130504,-0.116339 0.2961747,0.349854 0.5736061,0.716798 0.8619128,1.072606 0.1032675,-0.04838 0.1876217,-0.137858 0.276645,-0.209997 -0.1202839,-0.183664 -0.2801439,-0.355414 -0.4155446,-0.534481 -0.1176272,-0.150859 -0.2444254,-0.301269 -0.3532322,-0.45521 0.095868,-0.04548 0.2001535,-0.0811 0.30404,-0.09608 0.2789311,0.355049 0.5616614,0.707132 0.8425877,1.060618 0.09203,-0.05603 0.1942688,-0.131216 0.2641769,-0.220853 -0.041883,-0.08863 -0.1285995,-0.163755 -0.1857313,-0.247592 -0.1895983,-0.242108 -0.3880541,-0.480882 -0.5690897,-0.727417 0.049309,-0.03276 0.118557,-0.05651 0.1715564,-0.06201 0.3043587,0.333512 0.5646475,0.705003 0.8631256,1.043269 0.096493,-0.04289 0.1782474,-0.127922 0.2587466,-0.198194 -0.00319,-0.06088 -0.081947,-0.108634 -0.1097898,-0.164182 -0.2051614,-0.273141 -0.4366273,-0.52776 -0.6252213,-0.812615 0.0081,-0.03406 0.083076,-0.03374 0.1132569,-0.05416 0.096293,-0.06672 0.1637123,-0.0101 0.2251002,0.07103 0.2896153,0.294109 0.5792318,0.588218 0.868847,0.882327 0.091538,-0.06068 0.166369,-0.161938 0.2514658,-0.238241 -0.1261686,-0.156947 -0.2926971,-0.29718 -0.4343385,-0.447716 -0.1397618,-0.144414 -0.2883426,-0.281882 -0.4150147,-0.438375 0.080991,-0.03654 0.1668127,-0.07171 0.2539844,-0.08864 0.4167508,0.246054 0.8149364,0.522311 1.2278708,0.774544 0.067641,-0.04469 0.098937,-0.141741 0.1505402,-0.205951 0.1100289,-0.09348 -0.049721,-0.133209 -0.1136819,-0.185594 -0.2734782,-0.182041 -0.558395,-0.348368 -0.8197783,-0.547456 0.1055655,-0.035 0.214719,-0.09438 0.3209196,-0.106336 0.417783,0.186769 0.8355646,0.373547 1.2533423,0.56033 0.055991,-0.09025 0.1077839,-0.203069 0.130778,-0.312474 -0.053666,-0.05663 -0.151834,-0.07139 -0.2196008,-0.113642 -0.3584141,-0.16433 -0.7204441,-0.323154 -1.0783801,-0.487009 0.3845246,-0.266935 0.7858584,-0.510066 1.1656195,-0.783429 -0.036477,-0.102935 -0.1206426,-0.190494 -0.17541,-0.286415 -0.160204,0.07795 -0.3114137,0.202049 -0.4683248,0.296917 -0.2335248,0.152862 -0.4668118,0.308814 -0.7020568,0.45748 -0.030048,-0.08779 -0.1001989,-0.185447 -0.023313,-0.267753 0.176106,-0.347486 0.3667205,-0.690181 0.5317027,-1.041878 -0.088748,-0.06938 -0.2012109,-0.106641 -0.299489,-0.161786 z"/>
        <ellipse style="fill:#6c5353;fill-opacity:1;stroke:#000000;stroke-width:0.225433;stroke-linecap:round;stroke-linejoin:round;stroke-dasharray:none" cx="-18.490957" cy="55.544685" rx="6.1727314" ry="3.7164371"/>
        <g transform="matrix(1.32837,0,0,1.32837,9.8019399,-20.199883)" style="stroke-width:0.169706;stroke-dasharray:none">
          <path style="fill:#6c5353;fill-opacity:1;fill-rule:evenodd;stroke:#000000;stroke-width:0.169706;stroke-linecap:butt;stroke-linejoin:miter;stroke-dasharray:none;stroke-opacity:1" d="m -23.01875,58.208332 v 3.175 h 0.79375 v -3.175"/>
          <path style="fill:none;fill-rule:evenodd;stroke:#000000;stroke-width:0.169706;stroke-linecap:butt;stroke-linejoin:miter;stroke-dasharray:none;stroke-opacity:1" d="M -23.01875,59.795833 H -22.225"/>
        </g>
        <g transform="matrix(1.32837,0,0,1.32837,11.207798,-20.199883)" style="stroke-width:0.169706;stroke-dasharray:none">
          <path style="fill:#6c5353;fill-opacity:1;fill-rule:evenodd;stroke:#000000;stroke-width:0.169706;stroke-linecap:butt;stroke-linejoin:miter;stroke-dasharray:none;stroke-opacity:1" d="m -21.43125,58.208332 v 3.175 h 0.79375 v -3.175"/>
          <path style="fill:none;fill-rule:evenodd;stroke:#000000;stroke-width:0.169706;stroke-linecap:butt;stroke-linejoin:miter;stroke-dasharray:none;stroke-opacity:1" d="m -21.43125,59.795833 h 0.79375"/>
        </g>
        <path style="fill:none;fill-rule:evenodd;stroke:#000000;stroke-width:0.225433;stroke-linecap:butt;stroke-linejoin:miter;stroke-dasharray:none;stroke-opacity:1" d="m -19.018154,57.473784 v 1.054394 h -0.702928 v -1.054394"/>
        <path style="fill:none;fill-rule:evenodd;stroke:#000000;stroke-width:0.225433;stroke-linecap:butt;stroke-linejoin:miter;stroke-dasharray:none;stroke-opacity:1" d="m -17.963761,57.473784 v 1.054394 h 0.70293 v -1.054394"/>
        <path style="fill:none;fill-rule:evenodd;stroke:#000000;stroke-width:0.225433;stroke-linecap:butt;stroke-linejoin:miter;stroke-dasharray:none;stroke-opacity:1" d="m -23.938657,58.176714 h 1.405858 l 1.054393,-1.054394 0.70293,-1.757323 2.108786,-0.351464 h 0.351465 l 2.108788,0.351464 0.702929,1.757323 1.054394,1.054394 h 1.405858"/>
        <path style="fill:#4c3a3a;fill-opacity:1;stroke:#000000;stroke-width:0.85203;stroke-linecap:round;stroke-linejoin:round;stroke-dasharray:none" d="m -70.580323,196.40747 c -6.1035,0.15288 -12.424657,1.57037 -17.385462,5.28771 -2.581401,1.97925 -4.864648,4.95645 -4.692723,8.36853 -0.07121,3.03833 1.858574,5.71848 4.094787,7.59547 0.827714,0.62523 1.616114,1.48111 2.653076,1.71997 0.988993,-0.16282 1.552392,-1.18805 2.282424,-1.77549 0.870899,-1.01434 2.173133,-1.74491 2.49009,-3.12424 0.751361,-1.88105 1.502606,-3.76214 2.253853,-5.64324 2.986115,-0.47691 5.95867,-1.09414 8.962892,-1.42724 3.021403,0.35171 6.014438,0.92606 9.018553,1.40356 0.944662,2.26769 1.766144,4.61647 2.785817,6.8348 1.326321,1.18881 2.440516,2.64985 3.92976,3.64103 0.851952,0.32563 1.539285,-0.59541 2.202881,-0.97778 2.612111,-1.96968 4.90839,-4.88653 4.885062,-8.30615 0.06536,-3.70518 -2.523958,-6.84737 -5.433303,-8.84947 -5.245927,-3.55382 -11.798999,-4.81332 -18.047707,-4.74746 z" transform="scale(0.26458333)"/>
        <g transform="matrix(1.32837,0,0,1.32837,9.4454132,-20.185979)" style="stroke-width:0.169706;stroke-dasharray:none">
          <path style="fill:#6c5353;fill-opacity:1;fill-rule:evenodd;stroke:#000000;stroke-width:0.169706;stroke-linecap:butt;stroke-linejoin:miter;stroke-dasharray:none;stroke-opacity:1" d="m -21.785134,58.002101 -2.291949,-2.175018 0.79375,-0.79375 2.291949,2.175018"/>
          <circle style="fill:#ffffff;fill-opacity:1;stroke:#000000;stroke-width:0.169706;stroke-linecap:round;stroke-linejoin:round;stroke-dasharray:none" cx="-23.547916" cy="55.5625" r="0.52916664"/>
        </g>
        <g transform="matrix(-1.32837,0,0,1.32837,-45.845973,-20.450562)" style="stroke-width:0.169706;stroke-dasharray:none">
          <path style="fill:#6c5353;fill-opacity:1;fill-rule:evenodd;stroke:#000000;stroke-width:0.169706;stroke-linecap:butt;stroke-linejoin:miter;stroke-dasharray:none;stroke-opacity:1" d="m -21.785134,58.002101 -2.291949,-2.175018 0.79375,-0.79375 2.291949,2.175018"/>
          <circle style="fill:#ffffff;fill-opacity:1;stroke:#000000;stroke-width:0.169706;stroke-linecap:round;stroke-linejoin:round;stroke-dasharray:none" cx="-23.547916" cy="55.5625" r="0.52916664"/>
        </g>
      </g></svg>