<svg xmlns="http://www.w3.org/2000/svg" width="64" height="64" viewBox="-70.91566249302456 58.543321881975444 24.946498325892854 24.946498325892854"><g>
        <g transform="translate(-218.6624,-83.561323)">
          <path d="m 151.75968,146.78485 c -0.74301,0.68368 -1.16745,2.39447 -1.35466,3.38665 -0.46239,2.45057 0.29697,6.8375 1.69334,8.23385 2.70932,2.70934 4.06399,3.048 5.07999,3.048 1.016,0 2.032,-0.33866 4.74133,-3.048 1.32854,-1.32855 2.49438,-5.78328 2.03199,-8.23385 -0.18721,-0.99218 -0.61163,-2.70297 -1.35466,-3.38665 -0.89471,-0.82327 -2.19275,-1.12475 -3.38666,-1.35466 -1.33024,-0.2562 -2.73379,-0.2562 -4.06399,0 -1.19392,0.22991 -2.49195,0.53139 -3.38668,1.35466 z" style="fill:#c1a58e;fill-opacity:1;stroke:#000000;stroke-width:0.677334;stroke-linecap:butt;stroke-linejoin:miter;stroke-miterlimit:4;stroke-dasharray:none;stroke-opacity:1"/>
          <g transform="rotate(5,342.88322,1204.7394)">
            <path d="M 64.891792,172.33573 64.392033,171.8334 H 62.901476 62.380183" style="fill:none;stroke:#000000;stroke-width:0.502327px;stroke-linecap:butt;stroke-linejoin:miter;stroke-opacity:1"/>
            <path d="m 64.30968,171.8536 c 0.07072,0.11478 0.111506,0.24996 0.111506,0.39468 0,0.41612 -0.33734,0.75349 -0.753477,0.75349 -0.416164,0 -0.753505,-0.33737 -0.753505,-0.75349 0,-0.14864 0.04307,-0.28728 0.117377,-0.40402 z" style="fill:#ffffff;stroke:#000000;stroke-width:0.251163;stroke-miterlimit:4;stroke-dashoffset:0;stroke-opacity:1"/>
            <circle r="0.2511633" cy="172.3383" cx="63.635815" style="fill:#000000;fill-opacity:1;fill-rule:nonzero;stroke:#000000;stroke-width:0.251163;stroke-miterlimit:4;stroke-dasharray:none;stroke-dashoffset:0;stroke-opacity:1"/>
          </g>
          <g transform="rotate(-5,-119.55261,-880.31379)">
            <path d="m 67.403429,172.33573 0.556457,-0.50233 h 1.955179" style="fill:none;stroke:#000000;stroke-width:0.502327px;stroke-linecap:butt;stroke-linejoin:miter;stroke-opacity:1"/>
            <path d="m 69.332954,171.85355 c 0.0707,0.11478 0.111506,0.24995 0.111506,0.39468 0,0.41612 -0.33734,0.75349 -0.753505,0.75349 -0.416137,0 -0.753477,-0.33737 -0.753477,-0.75349 0,-0.14864 0.04304,-0.28728 0.117376,-0.40403 z" style="fill:#ffffff;stroke:#000000;stroke-width:0.251163;stroke-miterlimit:4;stroke-dashoffset:0;stroke-opacity:1"/>
            <circle r="0.2511633" cy="172.3383" cx="68.675026" style="fill:#000000;fill-opacity:1;fill-rule:nonzero;stroke:#000000;stroke-width:0.251163;stroke-miterlimit:4;stroke-dasharray:none;stroke-dashoffset:0;stroke-opacity:1"/>
          </g>
          <path style="fill:none;stroke:#000000;stroke-width:0.502327px;stroke-linecap:butt;stroke-linejoin:miter;stroke-opacity:1" d="m 155.39808,157.45164 h 3.56998"/>
          <path style="fill:none;stroke:#000000;stroke-width:0.502327px;stroke-linecap:butt;stroke-linejoin:miter;stroke-opacity:1" d="m 156.36875,153.45833 v 1.32292 l 0.37713,1.91209 h 0.79375 l 0.41662,-1.91209 -1e-5,-1.32292"/>
          <path style="fill:#000000;fill-rule:evenodd;stroke:#000000;stroke-width:0.264583px;stroke-linecap:butt;stroke-linejoin:miter;stroke-opacity:1" d="m 156.59354,144.42581 c -0.7457,0.0604 -1.52622,-0.0568 -2.23612,0.22585 -0.71039,0.38861 -1.56179,0.28513 -2.2659,0.69068 -1.0602,0.50648 -1.85238,1.54474 -1.98042,2.72211 -0.2405,0.81342 -0.89463,1.51809 -0.78418,2.41763 -0.005,0.93534 -0.10167,0.84664 0.16614,1.7513 0.4715,0.72112 1.75076,0.46347 1.85212,-0.41176 0.38475,-1.00177 -0.014,-1.06927 0.45902,-2.0506 0.31871,-0.79501 0.81984,-1.60334 1.64472,-1.94108 0.56398,-0.39179 1.23095,-0.48298 1.88838,-0.59687 0.84073,-0.15755 1.70233,-0.39874 2.55588,-0.18234 0.69238,0.13511 1.39583,0.24943 2.0796,0.40379 0.73194,0.32693 1.526,0.66891 1.94296,1.40043 0.5191,0.77285 0.8035,0.64008 0.73441,1.57283 8.3e-4,0.6613 0.0797,1.36496 0.44975,1.92521 0.67296,0.70924 1.95066,0.0902 1.74677,-0.89684 0.0629,-0.87382 0.0429,-0.69839 -0.0136,-1.57091 -0.16717,-0.7958 -0.77803,-1.43393 -0.84079,-2.26285 -0.35079,-1.5264 -1.84968,-2.57997 -3.36759,-2.6851 -0.67446,-0.21971 -1.33351,-0.55748 -2.06574,-0.47341 -0.65377,-0.0653 -1.31042,-0.0201 -1.96545,-0.0381 z"/>
        </g>
        <g transform="matrix(0.13499716,0,0,0.13499716,-49.135461,57.546241)">
          <path style="fill:none;stroke:#000000;stroke-width:1.05833;stroke-linecap:butt;stroke-linejoin:miter;stroke-miterlimit:4;stroke-dasharray:none;stroke-opacity:1" d="m -40.822915,168.04793 18.105092,-5.93423"/>
          <path style="fill:#800000;stroke:none;stroke-width:0.211668" d="m -32.624359,161.42564 c -2.126037,1.852 -4.231894,3.77066 -6.327197,5.67213 0.02512,0.17486 0.312759,-0.0504 0.415375,-0.0447 4.797157,-1.62021 9.594653,-3.24158 14.373889,-4.91329 -0.06838,-0.14306 -0.406824,-0.0479 -0.559083,-0.10889 -2.631468,-0.22984 -5.266323,-0.46199 -7.902984,-0.60522 z"/>
          <g transform="matrix(0.19843766,0,0,0.19843766,-102.54647,24.748405)">
            <path d="m 207.42858,667.47204 -9.14286,-18.85714 -8.57144,1.71428 c 5.52166,6.60821 8.12349,20.02935 17.7143,17.14286 z" style="fill:#ffffff;stroke:#000000;stroke-width:1.06667px;stroke-linecap:butt;stroke-linejoin:miter;stroke-opacity:1"/>
            <path d="m 193.04763,665.08109 -9.14286,-18.85714 -8.57144,1.71428 c 5.52166,6.6082 8.12349,20.02934 17.7143,17.14286 z" style="fill:#ffffff;stroke:#000000;stroke-width:1.06667px;stroke-linecap:butt;stroke-linejoin:miter;stroke-opacity:1"/>
            <path d="m 216.66668,661.65252 -9.14286,-18.85714 -8.57144,1.71428 c 5.52166,6.60821 8.12349,20.02935 17.7143,17.14286 z" style="fill:#ffffff;stroke:#000000;stroke-width:1.06667px;stroke-linecap:butt;stroke-linejoin:miter;stroke-opacity:1"/>
            <path d="m 225.61905,658.22395 -9.14286,-18.85714 -8.57143,1.71428 c 5.52165,6.6082 8.12349,20.02934 17.71429,17.14286 z" style="fill:#ffffff;stroke:#000000;stroke-width:1.06667px;stroke-linecap:butt;stroke-linejoin:miter;stroke-opacity:1"/>
            <path d="m 235.52381,652.70014 -9.14286,-18.85714 -8.57144,1.71428 c 5.52166,6.6082 8.12349,20.02934 17.7143,17.14286 z" style="fill:#ffffff;stroke:#000000;stroke-width:1.06667px;stroke-linecap:butt;stroke-linejoin:miter;stroke-opacity:1"/>
            <path d="m 243.90477,646.98586 -9.14286,-18.85715 -8.57144,1.71429 c 5.52166,6.6082 8.12349,20.02934 17.7143,17.14286 z" style="fill:#ffffff;stroke:#000000;stroke-width:1.06667px;stroke-linecap:butt;stroke-linejoin:miter;stroke-opacity:1"/>
            <path d="m 254.38096,640.50966 -9.14286,-18.85714 -8.57143,1.71429 c 5.52165,6.6082 8.12348,20.02934 17.71429,17.14285 z" style="fill:#ffffff;stroke:#000000;stroke-width:1.06667px;stroke-linecap:butt;stroke-linejoin:miter;stroke-opacity:1"/>
            <path d="m 265.42858,637.65252 -9.14286,-18.85714 -8.57144,1.71428 c 5.52166,6.60821 8.12349,20.02935 17.7143,17.14286 z" style="fill:#ffffff;stroke:#000000;stroke-width:1.06667px;stroke-linecap:butt;stroke-linejoin:miter;stroke-opacity:1"/>
            <path d="M 275.71429,632.31919 266.57143,613.46205 258,615.17633 c 5.52165,6.6082 8.12349,20.02934 17.71429,17.14286 z" style="fill:#ffffff;stroke:#000000;stroke-width:1.06667px;stroke-linecap:butt;stroke-linejoin:miter;stroke-opacity:1"/>
            <path style="fill:#ffffff;stroke:#000000;stroke-width:1.06667px;stroke-linecap:butt;stroke-linejoin:miter;stroke-opacity:1" d="m 233.50285,717.61107 13.90001,15.68354 -4.87455,7.25583 c -3.98098,-7.63601 -15.37379,-15.1925 -9.02546,-22.93937 z"/>
            <path style="fill:#ffffff;stroke:#000000;stroke-width:1.06667px;stroke-linecap:butt;stroke-linejoin:miter;stroke-opacity:1" d="m 227.2246,725.88125 13.9,15.68354 -4.87455,7.25584 c -3.98098,-7.63602 -15.37378,-15.19251 -9.02545,-22.93938 z"/>
            <path style="fill:#ffffff;stroke:#000000;stroke-width:1.06667px;stroke-linecap:butt;stroke-linejoin:miter;stroke-opacity:1" d="m 241.07699,708.75718 13.9,15.68355 -4.87454,7.25584 c -3.98098,-7.63603 -15.37379,-15.19252 -9.02546,-22.93939 z"/>
            <path style="fill:#ffffff;stroke:#000000;stroke-width:1.06667px;stroke-linecap:butt;stroke-linejoin:miter;stroke-opacity:1" d="m 249.43159,703.02015 13.90002,15.68354 -4.87455,7.25584 c -3.981,-7.63602 -15.37381,-15.1925 -9.02547,-22.93938 z"/>
            <path style="fill:#ffffff;stroke:#000000;stroke-width:1.06667px;stroke-linecap:butt;stroke-linejoin:miter;stroke-opacity:1" d="m 256.04592,695.59216 13.9,15.68354 -4.87454,7.25584 c -3.98099,-7.63602 -15.3738,-15.19251 -9.02546,-22.93938 z"/>
            <path style="fill:#ffffff;stroke:#000000;stroke-width:1.06667px;stroke-linecap:butt;stroke-linejoin:miter;stroke-opacity:1" d="m 263.46309,686.4118 13.9,15.68354 -4.87454,7.25582 c -3.98098,-7.63601 -15.37379,-15.1925 -9.02546,-22.93936 z"/>
            <path style="fill:#ffffff;stroke:#000000;stroke-width:1.06667px;stroke-linecap:butt;stroke-linejoin:miter;stroke-opacity:1" d="m 271.58028,677.34036 13.9,15.68355 -4.87454,7.25583 c -3.98099,-7.63602 -15.3738,-15.1925 -9.02546,-22.93938 z"/>
            <path style="fill:#ffffff;stroke:#000000;stroke-width:1.06667px;stroke-linecap:butt;stroke-linejoin:miter;stroke-opacity:1" d="m 278.73035,668.64119 13.90001,15.68355 -4.87455,7.25583 c -3.98098,-7.63603 -15.37379,-15.19251 -9.02546,-22.93938 z"/>
            <path style="fill:#ffffff;stroke:#000000;stroke-width:1.06667px;stroke-linecap:butt;stroke-linejoin:miter;stroke-opacity:1" d="m 285.31509,661.05769 13.9,15.68354 -4.87455,7.25582 c -3.98098,-7.63603 -15.37378,-15.19251 -9.02545,-22.93936 z"/>
          </g>
          <path style="fill:#835d38;fill-opacity:1;stroke:#000000;stroke-width:0.635;stroke-linecap:butt;stroke-linejoin:miter;stroke-miterlimit:4;stroke-dasharray:none;stroke-opacity:1" d="M -6.0112826,168.80386 11.904805,135.99553 H 4.194099 c -7.0611156,-7.17773 -11.7438315,-14.38298 -17.908807,-14.99636 -8.401445,-0.83592 -17.744271,1.2328 -27.675163,3.35466 -3.3263,4.18651 -5.110819,5.58569 -19.824644,10.03817 -10.831125,3.27758 -14.559704,15.73005 -6.331317,20.57792 6.549503,-1.36401 13.755116,-3.9414 21.393461,-7.18154 l 3.55298,5.89644 -2.267853,3.77977 -12.322048,15.19465 c 3.380034,2.29754 6.648901,2.81692 9.827401,1.88987 l 14.74106,-13.22916 9.222627,0.75593 z"/>
          <path d="m -41.314292,130.85505 c 1.029123,-2.53828 2.7975,-2.20173 4.724711,-1.24734 -0.867213,2.26664 -2.548975,2.40289 -4.724711,1.24734 z" style="fill:#ffffff;stroke:#000000;stroke-width:0.635;stroke-linecap:butt;stroke-linejoin:miter;stroke-miterlimit:4;stroke-dasharray:none;stroke-opacity:1"/>
          <path d="m -39.217409,128.94028 0.406513,2.63754" style="fill:#00ffff;fill-opacity:1;stroke:#008080;stroke-width:1.48167;stroke-linecap:butt;stroke-linejoin:miter;stroke-miterlimit:4;stroke-dasharray:none;stroke-opacity:1"/>
          <path style="fill:none;stroke:#000000;stroke-width:0.211668px;stroke-linecap:butt;stroke-linejoin:miter;stroke-opacity:1" d="m -42.448205,153.7604 5.669648,-6.72798 8.391087,0.37798 28.49942198,9.8274"/>
          <path style="fill:none;stroke:#000000;stroke-width:0.211668px;stroke-linecap:butt;stroke-linejoin:miter;stroke-opacity:1" d="M 7.9738449,142.87469 0.33874576,141.13601 -15.460676,128.3604 c -11.100477,-1.40239 -20.377037,-0.52485 -29.935735,0"/>
          <path style="fill:none;stroke:#000000;stroke-width:0.211668px;stroke-linecap:butt;stroke-linejoin:miter;stroke-opacity:1" d="m -64.786602,154.0628 0.188976,-18.21849"/>
          <path style="fill:none;stroke:#000000;stroke-width:0.635;stroke-linecap:butt;stroke-linejoin:miter;stroke-miterlimit:4;stroke-dasharray:none;stroke-opacity:1" d="m -41.314292,130.85505 c 1.029123,-2.53828 2.7975,-2.20173 4.724711,-1.24734 -0.867213,2.26664 -2.548975,2.40289 -4.724711,1.24734 z"/>
          <path style="fill:none;stroke:#000000;stroke-width:0.635;stroke-linecap:butt;stroke-linejoin:miter;stroke-miterlimit:4;stroke-dasharray:none;stroke-opacity:1" d="m -39.217409,128.94028 0.406513,2.63754"/>
          <path style="fill:#8ccec6;fill-opacity:1;stroke:#000000;stroke-width:0.53454;stroke-linecap:square;stroke-linejoin:miter;stroke-miterlimit:4;stroke-dasharray:none;stroke-dashoffset:0;stroke-opacity:1" d="m -65.585319,137.11369 c -3.58538,2.48265 -6.276989,6.78459 -5.770683,11.2647 0.214009,2.48991 1.826063,4.69378 3.919841,5.97087 0.962293,-0.12393 2.669173,-0.49401 2.669173,-0.49401 0,0 -0.07832,-11.65075 0.03025,-17.28611 -0.283295,0.10211 -0.569101,0.37897 -0.848586,0.54455 z"/>
          <path style="fill:#46321e;fill-opacity:1;stroke:#000000;stroke-width:0.453573;stroke-linecap:square;stroke-linejoin:miter;stroke-miterlimit:4;stroke-dasharray:none;stroke-dashoffset:0;stroke-opacity:1" d="m -18.84833,121.1987 c -7.507168,0.24257 -14.859932,1.94474 -22.187211,3.45375 -1.038578,1.15745 -2.691892,2.18773 -3.544457,3.46795 8.353241,-0.54105 17.128236,-0.73372 25.494968,-0.29055 1.250188,0.15178 2.567517,0.16589 3.766058,0.52677 5.281309,4.09736 10.4208867,8.42735 15.68602465,12.54881 2.40484385,0.65761 4.84744905,1.2998 7.30439105,1.67256 1.3744505,-1.67962 2.2170532,-3.82027 3.3390843,-5.69919 0.467106,-0.84478 -1.5252138,-0.22214 -2.0865256,-0.44349 -1.6333329,-0.0344 -3.2666658,-0.0689 -4.900027,-0.10338 -4.05906121,-4.08336 -7.6092193,-8.69405 -12.0385561,-12.39291 -2.2804963,-1.96147 -5.3094753,-2.71269 -8.2634953,-2.72144 -0.856403,-0.026 -1.713569,-0.0389 -2.570254,-0.0189 z"/>
          <ellipse style="fill:#000000;fill-opacity:1;stroke:#000000;stroke-width:0.635;stroke-linecap:square;stroke-linejoin:miter;stroke-miterlimit:4;stroke-dasharray:none;stroke-dashoffset:0;stroke-opacity:1" cx="-67.470222" cy="143.10141" rx="0.75595301" ry="1.2851201"/>
          <path style="fill:none;stroke:#800000;stroke-width:1.48167;stroke-linecap:square;stroke-linejoin:miter;stroke-miterlimit:4;stroke-dasharray:none;stroke-dashoffset:0;stroke-opacity:1" d="m -30.609166,134.32082 a 9.9785795,7.1815529 0 0 1 -7.381773,3.649 9.9785795,7.1815529 0 0 1 -8.475478,-2.08137"/>
          <path style="fill:none;stroke:#800000;stroke-width:1.48167;stroke-linecap:square;stroke-linejoin:miter;stroke-miterlimit:4;stroke-dasharray:none;stroke-dashoffset:0;stroke-opacity:1" d="m -33.684529,132.37019 a 6.9713359,5.6510072 0 0 1 -5.187044,2.34358 6.9713359,5.6510072 0 0 1 -5.533374,-1.74721"/>
          <path style="fill:#cead8c;fill-opacity:1;stroke:none;stroke-width:0.211668" d="m -36.674869,147.1503 c -1.880503,2.09432 -3.667619,4.29822 -5.499072,6.44621 -0.840147,1.37307 -1.628168,2.78263 -2.499755,4.1336 -4.005298,4.9456 -8.02609,9.87879 -12.012987,14.83922 0.229644,0.24527 0.604407,0.38339 0.895661,0.57234 1.926674,1.0484 4.1367,1.72398 6.345682,1.45889 0.664351,-0.0692 1.349756,-0.14449 1.970786,-0.37981 4.913602,-4.40955 9.827006,-8.8193 14.740241,-13.22922 3.148217,0.25953 6.296406,0.51962 9.444652,0.77842 5.685959,2.20119 11.367149,4.41588 17.0601641,6.59822 0.3853463,-0.51681 0.6640689,-1.13982 1.0019454,-1.7002 1.7301916,-3.10884 3.4212954,-6.23922 5.13023569,-9.35976 -0.95326199,-0.39 -1.98879179,-0.69443 -2.97346519,-1.05172 -8.444597,-2.91291 -16.889138,-5.82592 -25.333763,-8.73871 -2.756521,-0.12014 -5.515046,-0.25896 -8.270325,-0.36748 z"/>
        </g>
      </g></svg>