<?xml version="1.0" encoding="UTF-8" standalone="no"?>
<svg
   width="64"
   height="64"
   viewBox="3.053684779575894 -24.587306431361604 26.42229352678571 26.42229352678571"
   version="1.1"
   id="svg12"
   inkscape:version="1.4.2 (f4327f4, 2025-05-13)"
   xmlns:inkscape="http://www.inkscape.org/namespaces/inkscape"
   xmlns:sodipodi="http://sodipodi.sourceforge.net/DTD/sodipodi-0.dtd"
   xmlns="http://www.w3.org/2000/svg"
   xmlns:svg="http://www.w3.org/2000/svg">
  <defs
     id="defs12" />
  <sodipodi:namedview
     id="namedview12"
     pagecolor="#ffffff"
     bordercolor="#000000"
     borderopacity="0.25"
     inkscape:showpageshadow="2"
     inkscape:pageopacity="0.0"
     inkscape:pagecheckerboard="0"
     inkscape:deskcolor="#d1d1d1"
     inkscape:zoom="18.234375"
     inkscape:cx="32"
     inkscape:cy="32"
     inkscape:window-width="2560"
     inkscape:window-height="1369"
     inkscape:window-x="-8"
     inkscape:window-y="-8"
     inkscape:window-maximized="1"
     inkscape:current-layer="svg12" />
  <g
     transform="translate(-51.196875)"
     id="g10">
    <g
       transform="translate(29.902863,-176.49117)"
       id="g9">
      <g
         transform="translate(11.576963)"
         id="g7">
        <path
           d="m 18.999267,163.41689 c 0.714107,6.23344 5.229663,9.05567 7.769663,9.05567 2.54,0 7.055555,-2.82223 7.802456,-9.05567 0.577596,-4.82052 -2.931075,-8.53956 -7.786059,-8.53956 -4.854985,0 -8.338623,3.7161 -7.78606,8.53956 z"
           style="fill:#a67969;fill-opacity:1;fill-rule:nonzero;stroke:#000000;stroke-width:0.564444;stroke-miterlimit:4;stroke-dasharray:none;stroke-dashoffset:0;stroke-opacity:1"
           id="path1" />
        <g
           transform="matrix(0.28222223,0,0,0.28222223,-2391.2167,337.48926)"
           id="g6">
          <path
             style="fill:none;stroke:#000000;stroke-width:1.7799px;stroke-linecap:butt;stroke-linejoin:miter;stroke-opacity:1"
             d="m 8563.2882,-618.57175 -1.7708,-1.7799 h -5.2815 -1.8471"
             id="path2" />
          <path
             style="fill:none;stroke:#000000;stroke-width:1.7799px;stroke-linecap:butt;stroke-linejoin:miter;stroke-opacity:1"
             d="m 8572.1877,-618.57175 1.9717,-1.7799 h 6.9278"
             id="path3" />
          <path
             style="fill:#ffffff;stroke:#000000;stroke-width:0.889949;stroke-miterlimit:4;stroke-dashoffset:0;stroke-opacity:1"
             d="m 8561.2256,-620.28009 c 0.2506,0.4067 0.3951,0.88567 0.3951,1.39846 0,1.47447 -1.1953,2.66985 -2.6698,2.66985 -1.4746,0 -2.6699,-1.19538 -2.6699,-2.66985 0,-0.52667 0.1526,-1.01792 0.4159,-1.43157 z"
             id="path4" />
          <path
             style="fill:#ffffff;stroke:#000000;stroke-width:0.889949;stroke-miterlimit:4;stroke-dashoffset:0;stroke-opacity:1"
             d="m 8579.0246,-620.28027 c 0.2505,0.4067 0.3951,0.88567 0.3951,1.39846 0,1.47447 -1.1953,2.66985 -2.6699,2.66985 -1.4745,0 -2.6698,-1.19538 -2.6698,-2.66985 0,-0.52667 0.1525,-1.01792 0.4159,-1.43157 z"
             id="path5" />
          <circle
             style="fill:#000000;fill-opacity:1;fill-rule:nonzero;stroke:#000000;stroke-width:0.889949;stroke-miterlimit:4;stroke-dasharray:none;stroke-dashoffset:0;stroke-opacity:1"
             cx="8468.8379"
             cy="-703.56268"
             r="0.88994873"
             transform="translate(89.999959,85.000024)"
             id="circle5" />
          <circle
             style="fill:#000000;fill-opacity:1;fill-rule:nonzero;stroke:#000000;stroke-width:0.889949;stroke-miterlimit:4;stroke-dasharray:none;stroke-dashoffset:0;stroke-opacity:1"
             cx="8486.6934"
             cy="-703.56268"
             r="0.88994873"
             transform="translate(89.999959,85.000024)"
             id="circle6" />
        </g>
        <path
           d="m 25.767273,164.00586 v 2.54 h 2.2225 v -2.54"
           style="fill:none;stroke:#000000;stroke-width:0.502327px;stroke-linecap:butt;stroke-linejoin:miter;stroke-opacity:1"
           id="path6" />
        <path
           d="m 23.083454,168.80417 1.480482,-1.18235 h 2.257778 2.257778 l 1.412295,1.18235"
           style="fill:none;stroke:#904a25;stroke-width:0.846667;stroke-linecap:butt;stroke-linejoin:miter;stroke-miterlimit:4;stroke-dasharray:none;stroke-opacity:1"
           id="path7" />
      </g>
      <path
         style="fill:#904a25;fill-opacity:1;stroke:none;stroke-width:0.5;stroke-linecap:butt;stroke-linejoin:miter;stroke-miterlimit:4;stroke-dasharray:none;stroke-dashoffset:0;stroke-opacity:1"
         d="m 38.163562,153.55652 c -2.39008,0.0283 -4.800786,0.88568 -6.537069,2.55488 -1.043869,1.00141 -2.076333,2.46214 -2.505273,3.84576 0.130884,0.8617 0.613248,1.90601 0.776697,2.76159 0.01244,0.005 0.02872,0.003 0.04754,-0.004 l 0.481624,2.64945 v 2.64584 l 1.322917,2.64583 2.38125,2.64583 2.645833,0.79375 1.5875,0.26459 1.5875,-0.26459 2.645834,-0.79375 2.38125,-2.64583 1.322916,-2.64583 v -2.64584 l 0.250631,-3.25871 c 0.02559,-0.10458 0.01334,-0.24921 0.04858,-0.34262 0.351413,-0.65492 0.632635,-1.43604 0.67231,-2.09599 -0.01738,-0.36952 -0.236648,-0.6905 -0.367936,-1.02733 -0.924564,-1.96331 -2.629242,-3.52666 -4.637443,-4.33565 -1.296074,-0.53275 -2.705953,-0.76542 -4.104659,-0.74776 z m 4.265889,5.17798 c 0.132937,-0.003 0.240498,0.0755 0.342098,0.1726 1.178644,0.91138 2.064375,1.92055 3.161048,2.85925 l -0.424264,-0.10593 -0.529166,3.70416 -1.322917,2.64584 -2.645833,0.79375 -0.529167,0.26458 H 36.247917 L 35.71875,168.80417 33.072917,168.01042 31.75,165.36458 30.95625,161.925 30.8777,161.9643 c 1.181154,-1.02441 2.126544,-2.16259 3.375504,-3.15949 2.69329,-0.0192 5.38718,-0.0102 8.080127,-0.0548 0.03362,-0.01 0.06544,-0.0149 0.09612,-0.0155 z"
         id="path8" />
      <path
         style="fill:#000000;fill-opacity:1;stroke:#000000;stroke-width:0.3;stroke-linecap:round;stroke-linejoin:round;stroke-dasharray:none;stroke-opacity:1"
         d="m 38.12545,153.57376 c -2.123657,0.0277 -4.265049,0.7173 -5.928847,2.05397 -1.234501,1.02779 -2.24708,2.34012 -2.879413,3.81964 -0.109929,0.26444 -0.237831,0.55505 -0.118517,0.84108 0.206004,0.80119 0.485751,1.58142 0.714166,2.37578 0.226073,0.88774 0.348377,1.80139 0.523803,2.70119 5.3e-4,0.87729 -0.0011,1.75479 7.94e-4,2.63195 0.460973,0.90533 0.901705,1.82443 1.375225,2.72123 0.786598,0.86028 1.547064,3.33403 2.360528,4.16853 1.258432,0.37496 2.505776,0.81891 3.81286,0.99495 0.394192,0.11774 0.791159,-0.0291 1.184251,-0.0752 1.158208,-0.18304 2.264928,-0.58855 3.385905,-0.91881 0.820443,-0.84441 1.58978,-3.32591 2.383639,-4.1956 0.450683,-0.89951 0.903343,-1.79832 1.352761,-2.69829 -0.0048,-1.3696 -0.01746,-2.74131 0.115599,-4.10626 0.05965,-0.68484 0.09018,-1.37729 0.168723,-2.05733 0.313788,-0.71398 0.687043,-1.45359 0.66717,-2.25282 -0.06178,-0.447 -0.33106,-0.83338 -0.511101,-1.23899 -0.849378,-1.65784 -2.292313,-2.98473 -3.962656,-3.79178 -1.437971,-0.70637 -3.04849,-1.00672 -4.644808,-0.97326 z m 4.788273,5.43617 c 1.039677,0.84074 1.968301,1.80787 2.957055,2.70636 0.09398,0.085 -0.105778,0.006 -0.145728,0.003 -0.07343,-0.007 -0.231894,-0.0998 -0.213537,0.0442 -0.194204,1.21497 -0.341389,2.44135 -0.5412,3.65271 -0.449236,0.86655 -0.845815,1.76309 -1.343326,2.60321 -0.438778,0.14434 -0.89321,0.28494 -1.343134,0.39481 -0.517919,-0.38096 -0.993833,-0.81651 -1.492287,-1.2215 -1.593101,0.001 -3.186856,-0.002 -4.779552,0.002 -0.527296,0.40477 -1.021908,0.86306 -1.583238,1.21795 -0.454655,-0.1173 -0.906976,-0.25091 -1.352566,-0.39888 -0.455469,-0.91544 -0.922504,-1.82794 -1.361609,-2.74984 -0.260763,-1.08173 -0.46732,-2.17818 -0.772562,-3.24824 -0.08015,-0.0987 0.115932,-0.17177 0.156837,-0.25289 1.04803,-0.97602 2.023411,-2.03069 3.124163,-2.94866 2.786269,-0.0489 5.573048,-0.0524 8.359632,-0.0679 0.110352,0.0879 0.220702,0.17583 0.331052,0.26374 z m -4.516583,9.024 h 2.104845 c 0.252074,0.22609 0.551341,0.42656 0.768556,0.67806 -0.255159,0.12079 -0.524094,0.22665 -0.773014,0.36632 -1.426959,-0.003 -2.853918,-0.005 -4.280874,-0.008 -0.237178,-0.15117 -0.507087,-0.25233 -0.763199,-0.35166 0.268984,-0.24072 0.558927,-0.45655 0.838838,-0.68458 h 2.104848 z"
         id="path9" />
    </g>
  </g>
</svg>
