<?xml version="1.0" encoding="UTF-8" standalone="no"?>
<svg
   width="64"
   height="64"
   viewBox="-70.91566249302456 58.543321881975444 24.946498325892854 24.946498325892854"
   version="1.1"
   id="svg42"
   inkscape:version="1.4.2 (f4327f4, 2025-05-13)"
   xmlns:inkscape="http://www.inkscape.org/namespaces/inkscape"
   xmlns:sodipodi="http://sodipodi.sourceforge.net/DTD/sodipodi-0.dtd"
   xmlns="http://www.w3.org/2000/svg"
   xmlns:svg="http://www.w3.org/2000/svg">
  <defs
     id="defs42" />
  <sodipodi:namedview
     id="namedview42"
     pagecolor="#ffffff"
     bordercolor="#000000"
     borderopacity="0.25"
     inkscape:showpageshadow="2"
     inkscape:pageopacity="0.0"
     inkscape:pagecheckerboard="0"
     inkscape:deskcolor="#d1d1d1"
     inkscape:zoom="18.234375"
     inkscape:cx="32"
     inkscape:cy="32"
     inkscape:window-width="2560"
     inkscape:window-height="1369"
     inkscape:window-x="-8"
     inkscape:window-y="-8"
     inkscape:window-maximized="1"
     inkscape:current-layer="svg42" />
  <g
     transform="matrix(1.2343993,0,0,1.2343993,-252.44999,-118.47115)"
     id="g8">
    <path
       d="m 151.75968,146.78485 c -0.74301,0.68368 -1.16745,2.39447 -1.35466,3.38665 -0.46239,2.45057 0.29697,6.8375 1.69334,8.23385 2.70932,2.70934 4.06399,3.048 5.07999,3.048 1.016,0 2.032,-0.33866 4.74133,-3.048 1.32854,-1.32855 2.49438,-5.78328 2.03199,-8.23385 -0.18721,-0.99218 -0.61163,-2.70297 -1.35466,-3.38665 -0.89471,-0.82327 -2.19275,-1.12475 -3.38666,-1.35466 -1.33024,-0.2562 -2.73379,-0.2562 -4.06399,0 -1.19392,0.22991 -2.49195,0.53139 -3.38668,1.35466 z"
       style="fill:#c1a58e;fill-opacity:1;stroke:#000000;stroke-width:0.677334;stroke-linecap:butt;stroke-linejoin:miter;stroke-miterlimit:4;stroke-dasharray:none;stroke-opacity:1"
       id="path1" />
    <g
       transform="rotate(5,342.88322,1204.7394)"
       id="g3">
      <path
         d="M 64.891792,172.33573 64.392033,171.8334 H 62.901476 62.380183"
         style="fill:none;stroke:#000000;stroke-width:0.502327px;stroke-linecap:butt;stroke-linejoin:miter;stroke-opacity:1"
         id="path2" />
      <path
         d="m 64.30968,171.8536 c 0.07072,0.11478 0.111506,0.24996 0.111506,0.39468 0,0.41612 -0.33734,0.75349 -0.753477,0.75349 -0.416164,0 -0.753505,-0.33737 -0.753505,-0.75349 0,-0.14864 0.04307,-0.28728 0.117377,-0.40402 z"
         style="fill:#ffffff;stroke:#000000;stroke-width:0.251163;stroke-miterlimit:4;stroke-dashoffset:0;stroke-opacity:1"
         id="path3" />
      <circle
         r="0.2511633"
         cy="172.3383"
         cx="63.635815"
         style="fill:#000000;fill-opacity:1;fill-rule:nonzero;stroke:#000000;stroke-width:0.251163;stroke-miterlimit:4;stroke-dasharray:none;stroke-dashoffset:0;stroke-opacity:1"
         id="circle3" />
    </g>
    <g
       transform="rotate(-5,-119.55261,-880.31379)"
       id="g5">
      <path
         d="m 67.403429,172.33573 0.556457,-0.50233 h 1.955179"
         style="fill:none;stroke:#000000;stroke-width:0.502327px;stroke-linecap:butt;stroke-linejoin:miter;stroke-opacity:1"
         id="path4" />
      <path
         d="m 69.332954,171.85355 c 0.0707,0.11478 0.111506,0.24995 0.111506,0.39468 0,0.41612 -0.33734,0.75349 -0.753505,0.75349 -0.416137,0 -0.753477,-0.33737 -0.753477,-0.75349 0,-0.14864 0.04304,-0.28728 0.117376,-0.40403 z"
         style="fill:#ffffff;stroke:#000000;stroke-width:0.251163;stroke-miterlimit:4;stroke-dashoffset:0;stroke-opacity:1"
         id="path5" />
      <circle
         r="0.2511633"
         cy="172.3383"
         cx="68.675026"
         style="fill:#000000;fill-opacity:1;fill-rule:nonzero;stroke:#000000;stroke-width:0.251163;stroke-miterlimit:4;stroke-dasharray:none;stroke-dashoffset:0;stroke-opacity:1"
         id="circle5" />
    </g>
    <path
       style="fill:none;stroke:#000000;stroke-width:0.502327px;stroke-linecap:butt;stroke-linejoin:miter;stroke-opacity:1"
       d="m 155.39808,157.45164 h 3.56998"
       id="path6" />
    <path
       style="fill:none;stroke:#000000;stroke-width:0.502327px;stroke-linecap:butt;stroke-linejoin:miter;stroke-opacity:1"
       d="m 156.36875,153.45833 v 1.32292 l 0.37713,1.91209 h 0.79375 l 0.41662,-1.91209 -1e-5,-1.32292"
       id="path7" />
    <path
       style="fill:#000000;fill-rule:evenodd;stroke:#000000;stroke-width:0.264583px;stroke-linecap:butt;stroke-linejoin:miter;stroke-opacity:1"
       d="m 156.59354,144.42581 c -0.7457,0.0604 -1.52622,-0.0568 -2.23612,0.22585 -0.71039,0.38861 -1.56179,0.28513 -2.2659,0.69068 -1.0602,0.50648 -1.85238,1.54474 -1.98042,2.72211 -0.2405,0.81342 -0.89463,1.51809 -0.78418,2.41763 -0.005,0.93534 -0.10167,0.84664 0.16614,1.7513 0.4715,0.72112 1.75076,0.46347 1.85212,-0.41176 0.38475,-1.00177 -0.014,-1.06927 0.45902,-2.0506 0.31871,-0.79501 0.81984,-1.60334 1.64472,-1.94108 0.56398,-0.39179 1.23095,-0.48298 1.88838,-0.59687 0.84073,-0.15755 1.70233,-0.39874 2.55588,-0.18234 0.69238,0.13511 1.39583,0.24943 2.0796,0.40379 0.73194,0.32693 1.526,0.66891 1.94296,1.40043 0.5191,0.77285 0.8035,0.64008 0.73441,1.57283 8.3e-4,0.6613 0.0797,1.36496 0.44975,1.92521 0.67296,0.70924 1.95066,0.0902 1.74677,-0.89684 0.0629,-0.87382 0.0429,-0.69839 -0.0136,-1.57091 -0.16717,-0.7958 -0.77803,-1.43393 -0.84079,-2.26285 -0.35079,-1.5264 -1.84968,-2.57997 -3.36759,-2.6851 -0.67446,-0.21971 -1.33351,-0.55748 -2.06574,-0.47341 -0.65377,-0.0653 -1.31042,-0.0201 -1.96545,-0.0381 z"
       id="path8" />
  </g>
</svg>
