<?xml version="1.0" encoding="UTF-8" standalone="no"?>
<svg
   width="64"
   height="64"
   viewBox="81.96498325892857 -46.21275111607143 22.694056919642858 22.694056919642858"
   version="1.1"
   id="svg14"
   sodipodi:docname="BaldBlade.svg"
   inkscape:version="1.4.2 (f4327f4, 2025-05-13)"
   xmlns:inkscape="http://www.inkscape.org/namespaces/inkscape"
   xmlns:sodipodi="http://sodipodi.sourceforge.net/DTD/sodipodi-0.dtd"
   xmlns="http://www.w3.org/2000/svg"
   xmlns:svg="http://www.w3.org/2000/svg">
  <defs
     id="defs14" />
  <sodipodi:namedview
     id="namedview14"
     pagecolor="#ffffff"
     bordercolor="#000000"
     borderopacity="0.25"
     inkscape:showpageshadow="2"
     inkscape:pageopacity="0.0"
     inkscape:pagecheckerboard="0"
     inkscape:deskcolor="#d1d1d1"
     inkscape:zoom="18.234375"
     inkscape:cx="31.972579"
     inkscape:cy="32"
     inkscape:window-width="2560"
     inkscape:window-height="1369"
     inkscape:window-x="-8"
     inkscape:window-y="-8"
     inkscape:window-maximized="1"
     inkscape:current-layer="svg14" />
  <g
     transform="translate(-0.830269,-2.4610303)"
     id="g9">
    <path
       d="m 87.46394,-33.793773 c 0.714107,6.23344 5.229663,9.05567 7.769663,9.05567 2.54,0 7.055557,-2.82223 7.802457,-9.05567 0.5776,-4.82052 -2.93108,-8.53956 -7.78606,-8.53956 -4.854985,0 -8.338623,3.7161 -7.78606,8.53956 z"
       style="fill:#e4beaa;fill-opacity:1;fill-rule:nonzero;stroke:#000000;stroke-width:0.564444;stroke-miterlimit:4;stroke-dasharray:none;stroke-dashoffset:0;stroke-opacity:1"
       id="path1" />
    <g
       transform="translate(0,0.52916667)"
       id="g3">
      <path
         style="fill:none;stroke:#000000;stroke-width:0.502327px;stroke-linecap:butt;stroke-linejoin:miter;stroke-opacity:1"
         d="m 93.998292,-34.296099 -0.499759,-0.502327 h -1.490557 -0.521293"
         id="path2" />
      <path
         style="fill:#ffffff;stroke:#000000;stroke-width:0.251163;stroke-miterlimit:4;stroke-dashoffset:0;stroke-opacity:1"
         d="m 93.41618,-34.77823 c 0.07072,0.11478 0.111506,0.249956 0.111506,0.394676 0,0.416128 -0.33734,0.753491 -0.753477,0.753491 -0.416164,0 -0.753505,-0.337363 -0.753505,-0.753491 0,-0.148638 0.04307,-0.287279 0.117377,-0.404021 z"
         id="path3" />
      <circle
         style="fill:#000000;fill-opacity:1;fill-rule:nonzero;stroke:#000000;stroke-width:0.251163;stroke-miterlimit:4;stroke-dasharray:none;stroke-dashoffset:0;stroke-opacity:1"
         cx="92.742317"
         cy="-34.29353"
         r="0.2511633"
         id="circle3" />
    </g>
    <g
       transform="translate(0,0.52916667)"
       id="g5">
      <path
         style="fill:none;stroke:#000000;stroke-width:0.502327px;stroke-linecap:butt;stroke-linejoin:miter;stroke-opacity:1"
         d="m 96.509929,-34.296099 0.556457,-0.502327 h 1.955179"
         id="path4" />
      <path
         style="fill:#ffffff;stroke:#000000;stroke-width:0.251163;stroke-miterlimit:4;stroke-dashoffset:0;stroke-opacity:1"
         d="m 98.439454,-34.778281 c 0.0707,0.11478 0.111506,0.249956 0.111506,0.394676 0,0.416129 -0.33734,0.753491 -0.753505,0.753491 -0.416137,0 -0.753477,-0.337362 -0.753477,-0.753491 0,-0.148638 0.04304,-0.287279 0.117376,-0.40402 z"
         id="path5" />
      <circle
         style="fill:#000000;fill-opacity:1;fill-rule:nonzero;stroke:#000000;stroke-width:0.251163;stroke-miterlimit:4;stroke-dasharray:none;stroke-dashoffset:0;stroke-opacity:1"
         cx="97.781525"
         cy="-34.29353"
         r="0.2511633"
         id="circle5" />
    </g>
    <path
       d="m 94.386936,-33.204803 v 2.54 l 0.962282,0.56224 0.731051,-0.56224 v -2.54"
       style="fill:none;stroke:#000000;stroke-width:0.502327px;stroke-linecap:butt;stroke-linejoin:miter;stroke-opacity:1"
       id="path6" />
    <path
       style="fill:none;fill-rule:evenodd;stroke:#000000;stroke-width:0.264583px;stroke-linecap:butt;stroke-linejoin:miter;stroke-opacity:1"
       d="m 93.366323,-28.512792 0.759418,-0.193427 0.827012,0.0057 0.991684,0.0068 0.845941,0.237345"
       id="path7" />
    <path
       style="fill:#73331e;fill-opacity:1;fill-rule:evenodd;stroke:#000000;stroke-width:0.22788px;stroke-linecap:butt;stroke-linejoin:miter;stroke-opacity:1"
       d="m 100.71103,-40.70708 c 0.49035,0.0024 1.05299,0.25323 1.3822,0.84124 0.45509,0.60427 0.74131,1.334499 0.94842,2.064169 0.29684,0.732621 0.65154,1.452531 0.91954,2.190956 -0.0847,0.298029 -0.0878,0.703486 -0.34701,0.879988 -0.16549,0.274186 -0.42968,0.472804 -0.73962,0.463237 -0.31201,-0.05692 -0.47568,-0.540156 -0.65024,-0.735079 -0.52245,-1.14477 -0.99169,-2.318639 -1.4983,-3.472762 -0.22464,-0.48364 -0.43859,-1.000286 -0.3987,-1.510968 0.01,-0.357736 -0.0118,-0.792544 0.38373,-0.720789 z"
       id="path8" />
    <path
       style="fill:#73331e;fill-opacity:1;fill-rule:evenodd;stroke:#000000;stroke-width:0.22788px;stroke-linecap:butt;stroke-linejoin:miter;stroke-opacity:1"
       d="m 89.819957,-40.70708 c -0.49035,0.0024 -1.05299,0.25323 -1.3822,0.84124 -0.45509,0.60427 -0.74131,1.334499 -0.94842,2.064169 -0.29684,0.732621 -0.65154,1.452531 -0.91954,2.190956 0.0847,0.298029 0.0878,0.703486 0.34701,0.879988 0.16549,0.274186 0.42968,0.472804 0.73962,0.463237 0.31201,-0.05692 0.47568,-0.540156 0.65024,-0.735079 0.52245,-1.14477 0.99169,-2.318639 1.4983,-3.472762 0.22464,-0.48364 0.43859,-1.000286 0.3987,-1.510968 -0.01,-0.357736 0.0118,-0.792544 -0.38373,-0.720789 z"
       id="path9" />
  </g>
</svg>
