<?xml version="1.0" encoding="UTF-8" standalone="no"?>
<svg
   width="64"
   height="64"
   viewBox="9.618573869977679 61.085706438337056 27.370884486607142 27.370884486607142"
   version="1.1"
   id="svg25"
   inkscape:version="1.4.2 (f4327f4, 2025-05-13)"
   xmlns:inkscape="http://www.inkscape.org/namespaces/inkscape"
   xmlns:sodipodi="http://sodipodi.sourceforge.net/DTD/sodipodi-0.dtd"
   xmlns="http://www.w3.org/2000/svg"
   xmlns:svg="http://www.w3.org/2000/svg">
  <defs
     id="defs25" />
  <sodipodi:namedview
     id="namedview25"
     pagecolor="#ffffff"
     bordercolor="#000000"
     borderopacity="0.25"
     inkscape:showpageshadow="2"
     inkscape:pageopacity="0.0"
     inkscape:pagecheckerboard="0"
     inkscape:deskcolor="#d1d1d1"
     inkscape:zoom="9.1171875"
     inkscape:cx="24.623822"
     inkscape:cy="46.011997"
     inkscape:window-width="2560"
     inkscape:window-height="1369"
     inkscape:window-x="-8"
     inkscape:window-y="-8"
     inkscape:window-maximized="1"
     inkscape:current-layer="svg25" />
  <g
     transform="matrix(1.2409642,0,0,1.2409642,-62.09597,-38.432672)"
     id="g8">
    <g
       transform="translate(41.854004,-72.095689)"
       id="g7">
      <path
         d="m 18.999267,163.41689 c 0.438525,3.82788 2.310594,6.89855 4.278393,8.29006 1.236624,0.87447 2.511055,0.76561 3.49127,0.76561 1.069464,0 2.489158,0.0288 3.83031,-1.01579 1.844113,-1.43638 3.539727,-4.43102 3.972146,-8.03988 0.577603,-4.82052 -2.931075,-8.53956 -7.786059,-8.53956 -4.854985,0 -8.338639,3.7161 -7.78606,8.53956 z"
         style="fill:#a67969;fill-opacity:1;fill-rule:nonzero;stroke:#000000;stroke-width:0.564;stroke-miterlimit:4;stroke-dasharray:none;stroke-dashoffset:0;stroke-opacity:1"
         id="path1" />
      <g
         transform="matrix(0.28222223,0,0,0.28222223,-2391.2167,337.48926)"
         id="g6">
        <path
           style="fill:none;stroke:#000000;stroke-width:1.7799px;stroke-linecap:butt;stroke-linejoin:miter;stroke-opacity:1"
           d="m 8563.2882,-618.57175 -1.7708,-1.7799 h -5.2815 -1.8471"
           id="path2" />
        <path
           style="fill:none;stroke:#000000;stroke-width:1.7799px;stroke-linecap:butt;stroke-linejoin:miter;stroke-opacity:1"
           d="m 8572.1877,-618.57175 1.9717,-1.7799 h 6.9278"
           id="path3" />
        <path
           style="fill:#ffffff;stroke:#000000;stroke-width:0.889949;stroke-miterlimit:4;stroke-dashoffset:0;stroke-opacity:1"
           d="m 8561.2256,-620.28009 c 0.2506,0.4067 0.3951,0.88567 0.3951,1.39846 0,1.47447 -1.1953,2.66985 -2.6698,2.66985 -1.4746,0 -2.6699,-1.19538 -2.6699,-2.66985 0,-0.52667 0.1526,-1.01792 0.4159,-1.43157 z"
           id="path4" />
        <path
           style="fill:#ffffff;stroke:#000000;stroke-width:0.889949;stroke-miterlimit:4;stroke-dashoffset:0;stroke-opacity:1"
           d="m 8579.0246,-620.28027 c 0.2505,0.4067 0.3951,0.88567 0.3951,1.39846 0,1.47447 -1.1953,2.66985 -2.6699,2.66985 -1.4745,0 -2.6698,-1.19538 -2.6698,-2.66985 0,-0.52667 0.1525,-1.01792 0.4159,-1.43157 z"
           id="path5" />
        <circle
           style="fill:#000000;fill-opacity:1;fill-rule:nonzero;stroke:#000000;stroke-width:0.889949;stroke-miterlimit:4;stroke-dasharray:none;stroke-dashoffset:0;stroke-opacity:1"
           cx="8468.8379"
           cy="-703.56268"
           r="0.88994873"
           transform="translate(89.999959,85.000024)"
           id="circle5" />
        <circle
           style="fill:#000000;fill-opacity:1;fill-rule:nonzero;stroke:#000000;stroke-width:0.889949;stroke-miterlimit:4;stroke-dasharray:none;stroke-dashoffset:0;stroke-opacity:1"
           cx="8486.6934"
           cy="-703.56268"
           r="0.88994873"
           transform="translate(89.999959,85.000024)"
           id="circle6" />
      </g>
      <path
         d="m 25.922263,164.00586 0.248047,2.55654 1.296458,-0.008 0.148828,-2.54827"
         style="fill:none;stroke:#000000;stroke-width:0.502327px;stroke-linecap:butt;stroke-linejoin:miter;stroke-opacity:1"
         id="path6" />
      <path
         d="m 24.563936,167.62182 h 2.257778 2.257778"
         style="fill:none;stroke:#000000;stroke-width:0.423333;stroke-linecap:butt;stroke-linejoin:miter;stroke-miterlimit:4;stroke-dasharray:none;stroke-opacity:1"
         id="path7" />
    </g>
    <path
       style="fill:#000000;fill-opacity:1;stroke:none;stroke-width:0.5;stroke-linecap:butt;stroke-linejoin:miter;stroke-miterlimit:4;stroke-dasharray:none;stroke-dashoffset:0;stroke-opacity:1"
       d="m 76.579122,93.268511 0.250631,-3.25871 c 0.02559,-0.10458 0.01334,-0.24921 0.04858,-0.34262 0.351413,-0.65492 0.632635,-1.43604 0.67231,-2.09599 -0.01738,-0.36952 -0.236648,-0.6905 -0.367936,-1.02733 -0.924564,-1.96331 -2.629242,-3.52666 -4.637443,-4.33565 -1.296074,-0.53275 -2.705953,-0.76542 -4.104659,-0.74776 l -2e-6,3.8e-4 c -2.39008,0.0283 -4.800786,0.88568 -6.537069,2.55488 -1.043869,1.00141 -2.076333,2.46214 -2.505273,3.84576 0.130884,0.8617 0.613248,1.90601 0.776697,2.76159 0.01244,0.005 0.02872,0.003 0.04754,-0.004 l 0.481624,2.64945 m 1.322919,3.8e-4 -0.79375,-3.968747 -0.07855,0.0393 c 1.181154,-1.02441 2.126544,-2.16259 3.375504,-3.15949 2.69329,-0.0192 5.38718,-0.0102 8.080127,-0.0548 0.03362,-0.01 0.09612,0.01519 0.09612,-0.0155 v -1e-5 c 0,-0.132971 0.240498,0.0755 0.342098,0.1726 1.46809,1.366223 3.998857,4.96045 3.161048,2.85925 l -0.424264,-0.10593 -0.529166,4.233327"
       id="path8" />
  </g>
</svg>
