<?xml version="1.0" encoding="UTF-8" standalone="no"?>
<svg
   width="64"
   height="64"
   viewBox="-103.6678968157087 81.00533621651786 24.012276785714285 24.012276785714285"
   version="1.1"
   id="svg7"
   inkscape:version="1.4.2 (f4327f4, 2025-05-13)"
   xmlns:inkscape="http://www.inkscape.org/namespaces/inkscape"
   xmlns:sodipodi="http://sodipodi.sourceforge.net/DTD/sodipodi-0.dtd"
   xmlns="http://www.w3.org/2000/svg"
   xmlns:svg="http://www.w3.org/2000/svg">
  <defs
     id="defs7" />
  <sodipodi:namedview
     id="namedview7"
     pagecolor="#ffffff"
     bordercolor="#000000"
     borderopacity="0.25"
     inkscape:showpageshadow="2"
     inkscape:pageopacity="0.0"
     inkscape:pagecheckerboard="0"
     inkscape:deskcolor="#d1d1d1"
     inkscape:zoom="18.234375"
     inkscape:cx="32"
     inkscape:cy="32"
     inkscape:window-width="2560"
     inkscape:window-height="1369"
     inkscape:window-x="-8"
     inkscape:window-y="-8"
     inkscape:window-maximized="1"
     inkscape:current-layer="svg7" />
  <g
     id="g7">
    <path
       d="m -98.265641,94.461151 c 0.714107,6.233439 5.229663,9.055669 7.769663,9.055669 2.54,0 7.055555,-2.82223 7.802456,-9.055669 0.577596,-4.82052 -2.931075,-8.53956 -7.786059,-8.53956 -4.854985,0 -8.338623,3.7161 -7.78606,8.53956 z"
       style="fill:#ac9494;fill-opacity:1;fill-rule:nonzero;stroke:#000000;stroke-width:0.564;stroke-miterlimit:4;stroke-dasharray:none;stroke-dashoffset:0;stroke-opacity:1"
       id="path1" />
    <g
       transform="translate(-143.83909,-3.7417734)"
       id="g3">
      <path
         style="fill:none;stroke:#000000;stroke-width:0.502327px;stroke-linecap:butt;stroke-linejoin:miter;stroke-opacity:1"
         d="M 51.578592,97.700591 51.078833,97.198264 H 49.588276 49.066983"
         id="path2" />
      <path
         style="fill:#ffffff;stroke:#000000;stroke-width:0.251163;stroke-miterlimit:4;stroke-dashoffset:0;stroke-opacity:1"
         d="m 50.99648,97.21846 c 0.07073,0.11478 0.111506,0.249956 0.111506,0.394676 0,0.416128 -0.33734,0.753491 -0.753477,0.753491 -0.416164,0 -0.753505,-0.337363 -0.753505,-0.753491 0,-0.148638 0.04307,-0.287279 0.117377,-0.404021 z"
         id="path3" />
      <circle
         style="fill:#000000;fill-opacity:1;fill-rule:nonzero;stroke:#000000;stroke-width:0.251163;stroke-miterlimit:4;stroke-dasharray:none;stroke-dashoffset:0;stroke-opacity:1"
         cx="50.322617"
         cy="97.703163"
         r="0.2511633"
         id="circle3" />
    </g>
    <g
       transform="translate(-142.78075,-3.7417734)"
       id="g5">
      <path
         style="fill:none;stroke:#000000;stroke-width:0.502327px;stroke-linecap:butt;stroke-linejoin:miter;stroke-opacity:1"
         d="m 54.090229,97.700591 0.556457,-0.502327 h 1.955179"
         id="path4" />
      <path
         style="fill:#ffffff;stroke:#000000;stroke-width:0.251163;stroke-miterlimit:4;stroke-dashoffset:0;stroke-opacity:1"
         d="m 56.019754,97.218409 c 0.0707,0.11478 0.111506,0.249956 0.111506,0.394676 0,0.416129 -0.33734,0.753491 -0.753505,0.753491 -0.416137,0 -0.753477,-0.337362 -0.753477,-0.753491 0,-0.148638 0.04304,-0.287279 0.117376,-0.40402 z"
         id="path5" />
      <circle
         style="fill:#000000;fill-opacity:1;fill-rule:nonzero;stroke:#000000;stroke-width:0.251163;stroke-miterlimit:4;stroke-dasharray:none;stroke-dashoffset:0;stroke-opacity:1"
         cx="55.361824"
         cy="97.703163"
         r="0.2511633"
         id="circle5" />
    </g>
    <path
       d="m -91.342645,94.520951 v 2.539996 h 1.693333 v -2.539996"
       style="fill:none;stroke:#000000;stroke-width:0.502327px;stroke-linecap:butt;stroke-linejoin:miter;stroke-opacity:1"
       id="path6" />
    <path
       style="fill:#e6e6e6;fill-opacity:1;fill-rule:evenodd;stroke:#000000;stroke-width:0.264583px;stroke-linecap:butt;stroke-linejoin:miter;stroke-opacity:1"
       d="m -98.59573,95.532152 1.894274,0.140316 0.397563,-4.41997 1.964431,-1.192691 7.600476,-0.11693 2.15152,1.286235 0.280633,4.326424 2.666013,0.02339 0.257249,-7.787566 -1.80073,-2.08136 -0.982216,-2.712787 -2.15152,1.309622 -2.946646,-1.800728 -2.408766,2.174904 -4.443355,-1.403165 -1.216078,3.016806 -4.607058,1.145918 2.174905,3.578072 z"
       id="path7" />
  </g>
  <path
     style="fill:none;stroke:#000000;stroke-width:0.544028"
     d="m -92.742006,98.98882 c 1.680485,0.476097 3.257516,0.400446 4.773649,0"
     id="path8"
     sodipodi:nodetypes="cc" />
</svg>
