<svg xmlns="http://www.w3.org/2000/svg" width="64" height="64" viewBox="186.070433480399 4.25282941545759 21.62758091517857 21.62758091517857"><g><path d="m 189.27635,15.47303 c 0.7141,6.23344 5.22966,9.05567 7.76966,9.05567 2.54,0 7.05556,-2.82223 7.80246,-9.05567 0.57759,-4.82052 -2.93108,-8.53956 -7.78606,-8.53956 -4.85499,0 -8.33863,3.7161 -7.78606,8.53956 z" style="fill:#74584f;fill-opacity:1;fill-rule:nonzero;stroke:#000000;stroke-width:0.564;stroke-miterlimit:4;stroke-dasharray:none;stroke-dashoffset:0;stroke-opacity:1"/><g transform="rotate(5,194.02571,15.052555)">
        <path style="fill:none;stroke:#000000;stroke-width:0.502327px;stroke-linecap:butt;stroke-linejoin:miter;stroke-opacity:1" d="m 195.28152,14.970701 -0.49976,-0.502327 h -1.49055 -0.5213"/>
        <path style="fill:#ffffff;stroke:#000000;stroke-width:0.251163;stroke-miterlimit:4;stroke-dashoffset:0;stroke-opacity:1" d="m 194.69941,14.48857 c 0.0707,0.11478 0.11151,0.249956 0.11151,0.394676 0,0.416128 -0.33734,0.753491 -0.75348,0.753491 -0.41617,0 -0.75351,-0.337363 -0.75351,-0.753491 0,-0.148638 0.0431,-0.287279 0.11738,-0.404021 z"/>
        <circle style="fill:#000000;fill-opacity:1;fill-rule:nonzero;stroke:#000000;stroke-width:0.251163;stroke-miterlimit:4;stroke-dasharray:none;stroke-dashoffset:0;stroke-opacity:1" cx="194.02556" cy="14.97327" r="0.2511633"/>
      </g><g transform="rotate(-5,200.10732,15.05253)">
        <path style="fill:none;stroke:#000000;stroke-width:0.502327px;stroke-linecap:butt;stroke-linejoin:miter;stroke-opacity:1" d="m 198.8515,14.970701 0.55646,-0.502327 h 1.95518"/>
        <path style="fill:#ffffff;stroke:#000000;stroke-width:0.251163;stroke-miterlimit:4;stroke-dashoffset:0;stroke-opacity:1" d="m 200.78102,14.488519 c 0.0707,0.11478 0.11151,0.249956 0.11151,0.394676 0,0.416129 -0.33734,0.753491 -0.75351,0.753491 -0.41613,0 -0.75347,-0.337362 -0.75347,-0.753491 0,-0.148638 0.043,-0.287279 0.11737,-0.40402 z"/>
        <circle style="fill:#000000;fill-opacity:1;fill-rule:nonzero;stroke:#000000;stroke-width:0.251163;stroke-miterlimit:4;stroke-dasharray:none;stroke-dashoffset:0;stroke-opacity:1" cx="200.12308" cy="14.97327" r="0.2511633"/>
      </g><path d="M 196.19934,16.591167 V 18.602 h 1.69334 v -2.010833" style="fill:none;stroke:#000000;stroke-width:0.502327px;stroke-linecap:butt;stroke-linejoin:miter;stroke-opacity:1"/><path style="fill:#000000;fill-opacity:1;stroke:none;stroke-width:0.5;stroke-linecap:butt;stroke-linejoin:miter;stroke-miterlimit:4;stroke-dasharray:none;stroke-dashoffset:0;stroke-opacity:1" d="m 205.42315,14.380153 c -0.44307,-0.634487 0.38903,-1.254951 0.4475,-1.90701 0.32572,-1.151199 -0.4587,-2.197145 -1.04925,-3.1102637 -1.72376,-2.4007402 -4.67237,-3.7442073 -7.59786,-3.7553419 -3.0634,-0.075492 -6.20445,1.2790528 -8.00211,3.8098863 -0.59668,0.7854073 -1.09893,1.6531613 -1.40007,2.5958803 0.15501,0.948174 0.7767,2.76159 0.7767,2.76159 0,0 1.02446,-0.256969 1.17232,-0.944291 0.55162,-0.477352 1.07381,-0.980549 1.57809,-1.507941 0.51423,-0.509166 1.03812,-1.010651 1.60481,-1.461708 2.75715,-0.01949 5.51458,-0.0099 8.27147,-0.05825 1.26107,0.858894 2.94488,3.367059 2.94488,3.367059 l 0.49972,0.210609 c 0.26733,0.145158 0.42553,0.08184 0.7538,-2.19e-4 z"/></g></svg>