<svg xmlns="http://www.w3.org/2000/svg" width="64" height="64" viewBox="152.84147426060267 33.979871477399556 14.862095424107142 14.862095424107142"><g transform="matrix(0.7,0,0,0.7,65.816291,5.5003496)">
        <g transform="matrix(-1,0,0,1,269.86167,0)">
          <path style="fill:#c7ad55;fill-opacity:1;fill-rule:evenodd;stroke:#000000;stroke-width:0.4;stroke-linecap:butt;stroke-linejoin:miter;stroke-dasharray:none;stroke-opacity:1" d="m 142.34583,48.947917 c 0.33375,-1.067903 0.94598,-2.04766 1.06141,-3.17843 0.18299,-0.738156 0.0652,-1.505433 0.0939,-2.256537 -0.0514,-0.523189 -0.14933,-1.145353 -0.5727,-1.500959 -0.58539,0.0085 -1.00374,0.751986 -1.45272,1.121767 -0.27897,0.397659 -0.59704,0.768362 -0.79337,1.217924 -0.34864,0.545912 -0.53424,1.172485 -0.77429,1.769486 -2.3e-4,0.06792 -0.12672,0.208686 0.0565,0.180916"/>
          <path style="fill:#c7bc97;fill-opacity:1;fill-rule:evenodd;stroke:#000000;stroke-width:0.198437px;stroke-linecap:butt;stroke-linejoin:miter;stroke-opacity:1" d="m 141.94786,48.677273 c 0.25032,-0.800927 0.70949,-1.535745 0.79606,-2.383823 0.13724,-0.553617 0.0489,-1.129074 0.0704,-1.692402 -0.0386,-0.392392 -0.112,-0.859015 -0.42953,-1.12572 -0.43904,0.0064 -0.7528,0.56399 -1.08954,0.841326 -0.20923,0.298244 -0.44778,0.576271 -0.59503,0.913443 -0.26148,0.409434 -0.40068,0.879363 -0.58071,1.327114 -1.8e-4,0.05094 -0.095,0.156515 0.0424,0.135687"/>
        </g>
        <path style="fill:#c7ad55;fill-opacity:1;fill-rule:evenodd;stroke:#000000;stroke-width:0.4;stroke-linecap:butt;stroke-linejoin:miter;stroke-dasharray:none;stroke-opacity:1" d="m 126.99996,51.064579 c -0.24601,0.267688 -0.62631,0.375971 -0.84901,0.666639 0.0996,0.08088 0.41504,0.02903 0.5049,0.213414 -0.002,0.251309 -0.34164,0.133689 -0.45429,0.317555 -0.16597,0.237626 0.21553,0.218245 0.34707,0.256214 0.15,0.197949 -0.0457,0.452365 -0.0948,0.658034 -0.1007,0.164799 -0.0444,0.37532 0.18397,0.295241 0.26084,0.01677 0.0788,0.350257 0.15292,0.516091 -0.017,0.18478 0.17549,0.25309 0.24066,0.06613 0.0435,-0.176425 0.28083,-0.272853 0.31015,-0.029 0.0568,0.221765 0.0983,0.443854 0.16777,0.662326 0.14222,0.205496 0.40524,-0.334704 0.50504,0.0078 0.0398,0.211971 0.0867,0.422092 0.11169,0.636386 0.0775,0.207445 0.15591,-0.197464 0.27435,-0.212078 0.12854,-0.108439 0.37356,-0.298095 0.39713,-0.0067 0.0517,0.118113 0.0363,0.446215 0.19539,0.390353 0.13463,-0.260542 0.31719,-0.545228 0.61689,-0.626882 0.10545,-0.01254 0.24949,0.01573 0.30063,-0.107352"/>
        <path style="fill:#c7ad55;fill-opacity:1;fill-rule:evenodd;stroke:#000000;stroke-width:0.4;stroke-linecap:butt;stroke-linejoin:miter;stroke-dasharray:none;stroke-opacity:1" d="m 142.87504,51.064579 c 0.24601,0.267688 0.62631,0.375971 0.84901,0.666639 -0.0996,0.08088 -0.41504,0.02903 -0.5049,0.213414 0.002,0.251309 0.34164,0.133689 0.45429,0.317555 0.16597,0.237626 -0.21553,0.218245 -0.34707,0.256214 -0.15,0.197949 0.0457,0.452365 0.0948,0.658034 0.1007,0.164799 0.0444,0.37532 -0.18397,0.295241 -0.26084,0.01677 -0.0788,0.350257 -0.15292,0.516091 0.017,0.18478 -0.17549,0.25309 -0.24066,0.06613 -0.0435,-0.176425 -0.28083,-0.272853 -0.31015,-0.029 -0.0568,0.221765 -0.0983,0.443854 -0.16777,0.662326 -0.14222,0.205496 -0.40524,-0.334704 -0.50504,0.0078 -0.0398,0.211971 -0.0867,0.422092 -0.11169,0.636386 -0.0775,0.207445 -0.15591,-0.197464 -0.27435,-0.212078 -0.12854,-0.108439 -0.37356,-0.298095 -0.39713,-0.0067 -0.0517,0.118113 -0.0363,0.446215 -0.19539,0.390353 -0.13463,-0.260542 -0.31719,-0.545228 -0.61689,-0.626882 -0.10545,-0.01254 -0.24949,0.01573 -0.30063,-0.107352"/>
        <g>
          <path style="fill:#c7ad55;fill-opacity:1;fill-rule:evenodd;stroke:#000000;stroke-width:0.4;stroke-linecap:butt;stroke-linejoin:miter;stroke-dasharray:none;stroke-opacity:1" d="m 142.34583,48.947917 c 0.33375,-1.067903 0.94598,-2.04766 1.06141,-3.17843 0.18299,-0.738156 0.0652,-1.505433 0.0939,-2.256537 -0.0514,-0.523189 -0.14933,-1.145353 -0.5727,-1.500959 -0.58539,0.0085 -1.00374,0.751986 -1.45272,1.121767 -0.27897,0.397659 -0.59704,0.768362 -0.79337,1.217924 -0.34864,0.545912 -0.53424,1.172485 -0.77429,1.769486 -2.3e-4,0.06792 -0.12672,0.208686 0.0565,0.180916"/>
          <path style="fill:#c7bc97;fill-opacity:1;fill-rule:evenodd;stroke:#000000;stroke-width:0.198437px;stroke-linecap:butt;stroke-linejoin:miter;stroke-opacity:1" d="m 141.94786,48.677273 c 0.25032,-0.800927 0.70949,-1.535745 0.79606,-2.383823 0.13724,-0.553617 0.0489,-1.129074 0.0704,-1.692402 -0.0386,-0.392392 -0.112,-0.859015 -0.42953,-1.12572 -0.43904,0.0064 -0.7528,0.56399 -1.08954,0.841326 -0.20923,0.298244 -0.44778,0.576271 -0.59503,0.913443 -0.26148,0.409434 -0.40068,0.879363 -0.58071,1.327114 -1.8e-4,0.05094 -0.095,0.156515 0.0424,0.135687"/>
        </g>
        <path style="fill:#c7ad55;fill-opacity:1;fill-rule:evenodd;stroke:#000000;stroke-width:0.4;stroke-linecap:butt;stroke-linejoin:miter;stroke-dasharray:none;stroke-opacity:1" d="m 133.61458,60.589583 c 0,0 -1.10861,-0.525799 -1.32291,-1.322916 -0.36086,-1.342268 -0.0596,-1.884872 -1.32292,-3.704167 -0.64284,-0.925777 -1.86817,-0.629431 -2.64583,-1.322917 -1.0452,-0.932066 -1.55251,-2.820816 -1.32292,-3.96875 0.62363,-3.118145 4.7576,-5.291666 7.9375,-5.291666 3.1799,0 7.31387,2.173521 7.9375,5.291666 0.21669,1.083447 -0.33981,3.016407 -1.32292,3.96875 -0.82357,0.797802 -2.01443,0.33764 -2.64583,1.322917 -1.15811,1.807194 -1.00575,2.439785 -1.32292,3.704167 -0.1946,0.775721 -1.32291,1.322916 -1.32291,1.322916 z"/>
        <g transform="matrix(1.5625,0,0,1.5625,-82.574022,-28.948748)">
          <path d="m 136.24397,51.617259 0.45073,-0.406885 c 0.61026,-0.247102 1.12472,-0.206772 1.58369,0" style="fill:none;stroke:#000000;stroke-width:0.406885px;stroke-linecap:butt;stroke-linejoin:miter;stroke-opacity:1"/>
          <path d="m 137.80688,51.226697 c 0.0573,0.09297 0.3934,0.20247 0.3934,0.319696 0,0.337071 -0.57633,0.610316 -0.91342,0.610316 -0.33707,0 -0.76186,-0.225888 -0.76186,-0.562959 0,-0.120404 0.18637,-0.280049 0.24662,-0.374621 0.37211,-0.166391 0.73374,-0.267256 1.03526,0.0075 z" style="fill:#ffffff;stroke:#000000;stroke-width:0.203442;stroke-miterlimit:4;stroke-dashoffset:0;stroke-opacity:1"/>
          <circle r="0.20344228" cy="51.520691" cx="137.32079" style="fill:#000000;fill-opacity:1;fill-rule:nonzero;stroke:#000000;stroke-width:0.203442;stroke-miterlimit:4;stroke-dasharray:none;stroke-dashoffset:0;stroke-opacity:1"/>
        </g>
        <g transform="matrix(-1.5625,0,0,1.5625,352.44903,-28.948748)">
          <path d="m 136.24397,51.617259 0.45073,-0.406885 c 0.61026,-0.247102 1.12472,-0.206772 1.58369,0" style="fill:none;stroke:#000000;stroke-width:0.406885px;stroke-linecap:butt;stroke-linejoin:miter;stroke-opacity:1"/>
          <path d="m 137.80688,51.226697 c 0.0573,0.09297 0.3934,0.20247 0.3934,0.319696 0,0.337071 -0.57633,0.610316 -0.91342,0.610316 -0.33707,0 -0.76186,-0.225888 -0.76186,-0.562959 0,-0.120404 0.18637,-0.280049 0.24662,-0.374621 0.37211,-0.166391 0.73374,-0.267256 1.03526,0.0075 z" style="fill:#ffffff;stroke:#000000;stroke-width:0.203442;stroke-miterlimit:4;stroke-dashoffset:0;stroke-opacity:1"/>
          <circle r="0.20344228" cy="51.520691" cx="137.32079" style="fill:#000000;fill-opacity:1;fill-rule:nonzero;stroke:#000000;stroke-width:0.203442;stroke-miterlimit:4;stroke-dasharray:none;stroke-dashoffset:0;stroke-opacity:1"/>
        </g>
        <rect style="fill:#000000;fill-opacity:1;stroke:#000000;stroke-width:0.552507;stroke-linecap:round;stroke-linejoin:miter;stroke-dasharray:none;stroke-opacity:1" width="2.5894234" height="0.41561636" x="133.62625" y="58.220001" ry="0.20780818"/>
        <path style="fill:none;fill-rule:evenodd;stroke:#000000;stroke-width:0.4;stroke-linecap:butt;stroke-linejoin:miter;stroke-dasharray:none;stroke-opacity:1" d="m 133.61458,59.531249 h 2.64583"/>
      </g></svg>