<svg xmlns="http://www.w3.org/2000/svg" width="64" height="64" viewBox="9.904340471540179 35.76438685825893 22.524693080357142 22.524693080357142"><g transform="matrix(1.2843264,0,0,1.2843264,-131.74844,-177.74259)">
        <path style="fill:#688000;fill-opacity:1;fill-rule:evenodd;stroke:#000000;stroke-width:0.264583px;stroke-linecap:butt;stroke-linejoin:miter;stroke-opacity:1" d="m 123.825,169.59792 2.49094,1.33256 0.41948,1.04869 -0.26459,1.32291 -0.52916,1.32293 -0.26459,1.32292 -0.26458,1.32291 -0.26458,1.85209 -3.175,2.11666 -2.91042,0.52917 v -10e-6 l -2.91042,-0.52917 -3.175,-2.11666 -0.26458,-1.85209 -0.26458,-1.32291 -0.26459,-1.32292 -0.52916,-1.32292 -0.26459,-1.32291 0.40387,-1.00968 2.24197,-1.37157"/>
        <path style="fill:#41682b;fill-opacity:1;fill-rule:evenodd;stroke:#000000;stroke-width:0.264583px;stroke-linecap:butt;stroke-linejoin:miter;stroke-opacity:1" d="m 121.17917,174.625 c 0.33751,-0.81481 0.52916,-2.64584 0.52916,-2.64584 l 0.66657,-1.33314 1.4501,-0.51894 2.11667,1.5875 0.52916,-0.26458 0.26459,-1.32292 -2.11667,-1.05833 -1.65737,-0.81846 -1.02153,0.28929 -1.55443,0.26459 h -2.61276 l -1.12448,-0.26459 -1.35288,-0.22412 -1.78905,0.48871 -2.11667,1.5875 0.26459,1.05833 0.52916,0.26458 1.85209,-1.5875 1.71979,0.52917 0.66146,1.32292 c 0,0 0.19168,1.83102 0.52916,2.64583 0.23865,0.57616 0.79375,1.32292 0.79375,1.32292 0.31796,0.31796 0.1764,0.88195 0.26459,1.32291 l 1.05833,0.26459 1.05833,-0.26459 c 0,0 0.0524,-0.92643 0.26459,-1.32292 0.29426,-0.54983 0.5551,-0.74675 0.79375,-1.32291 z"/>
        <path style="fill:none;fill-rule:evenodd;stroke:#000000;stroke-width:0.264583px;stroke-linecap:butt;stroke-linejoin:miter;stroke-opacity:1" d="m 113.77083,177.27083 1.5875,1.05834 2.38125,1.05833 1.32292,0.26458 1.32292,-0.26458 2.38125,-1.05833 1.5875,-1.05834"/>
        <path style="fill:none;fill-rule:evenodd;stroke:#000000;stroke-width:0.264583px;stroke-linecap:butt;stroke-linejoin:miter;stroke-opacity:1" d="m 117.475,177.00625 v 1.32292"/>
        <path style="fill:none;fill-rule:evenodd;stroke:#000000;stroke-width:0.264583px;stroke-linecap:butt;stroke-linejoin:miter;stroke-opacity:1" d="m 120.65,177.00625 v 1.32292"/>
        <path style="fill:none;fill-rule:evenodd;stroke:#000000;stroke-width:0.264583px;stroke-linecap:butt;stroke-linejoin:miter;stroke-opacity:1" d="m 117.21042,177.00625 v 1.32292"/>
        <path style="fill:none;fill-rule:evenodd;stroke:#000000;stroke-width:0.264583px;stroke-linecap:butt;stroke-linejoin:miter;stroke-opacity:1" d="m 120.91458,177.00625 v 1.32292"/>
        <g>
          <path style="fill:#ffffff;stroke:#000000;stroke-width:0.148104;stroke-linecap:round;stroke-linejoin:round" d="m 122.72369,172.50833 c -0.59325,0.47942 -0.87168,1.07642 -0.62187,1.33344 0.11121,0.11442 0.16337,0.30081 0.40026,0.25406 0.29521,-0.0582 0.79708,-0.39076 1.12622,-0.65675 0.59326,-0.47941 0.62188,-1.33343 0.62188,-1.33343 0,0 -0.93323,-0.0767 -1.52649,0.40268 z"/>
          <ellipse style="fill:#000000;fill-opacity:1;stroke:#000000;stroke-width:0.0558204;stroke-linecap:round;stroke-linejoin:round;stroke-dasharray:none;stroke-opacity:1" cx="-38.729465" cy="197.19521" rx="0.24224216" ry="0.5233897" transform="matrix(-0.9915514,0.12971437,0.4294079,0.90311066,0,0)"/>
        </g>
        <g transform="matrix(-1,0,0,1,238.05184,0)">
          <path style="fill:#ffffff;stroke:#000000;stroke-width:0.148104;stroke-linecap:round;stroke-linejoin:round" d="m 122.72369,172.50833 c -0.59325,0.47942 -0.87168,1.07642 -0.62187,1.33344 0.11121,0.11442 0.16337,0.30081 0.40026,0.25406 0.29521,-0.0582 0.79708,-0.39076 1.12622,-0.65675 0.59326,-0.47941 0.62188,-1.33343 0.62188,-1.33343 0,0 -0.93323,-0.0767 -1.52649,0.40268 z"/>
          <ellipse style="fill:#000000;fill-opacity:1;stroke:#000000;stroke-width:0.0558204;stroke-linecap:round;stroke-linejoin:round;stroke-dasharray:none;stroke-opacity:1" cx="-38.729465" cy="197.19521" rx="0.24224216" ry="0.5233897" transform="matrix(-0.9915514,0.12971437,0.4294079,0.90311066,0,0)"/>
        </g>
      </g></svg>