<?xml version="1.0" encoding="UTF-8" standalone="no"?>
<!-- Created with Inkscape (http://www.inkscape.org/) -->

<svg
   width="64"
   height="64"
   viewBox="0 0 16.933333 16.933333"
   version="1.1"
   id="svg1"
   inkscape:version="1.4.2 (f4327f4, 2025-05-13)"
   sodipodi:docname="Scarab.svg"
   xmlns:inkscape="http://www.inkscape.org/namespaces/inkscape"
   xmlns:sodipodi="http://sodipodi.sourceforge.net/DTD/sodipodi-0.dtd"
   xmlns="http://www.w3.org/2000/svg"
   xmlns:svg="http://www.w3.org/2000/svg">
  <sodipodi:namedview
     id="namedview1"
     pagecolor="#ffffff"
     bordercolor="#000000"
     borderopacity="0.25"
     inkscape:showpageshadow="2"
     inkscape:pageopacity="0.0"
     inkscape:pagecheckerboard="0"
     inkscape:deskcolor="#d1d1d1"
     inkscape:document-units="mm"
     inkscape:zoom="8.1814464"
     inkscape:cx="4.339086"
     inkscape:cy="55.919207"
     inkscape:window-width="2560"
     inkscape:window-height="1369"
     inkscape:window-x="-8"
     inkscape:window-y="-8"
     inkscape:window-maximized="1"
     inkscape:current-layer="layer1" />
  <defs
     id="defs1" />
  <g
     inkscape:label="Layer 1"
     inkscape:groupmode="layer"
     id="layer1">
    <g
       transform="matrix(1.4285042,0,0,1.4285042,-101.88686,-137.75041)"
       id="g24">
      <path
         style="fill:#000000;fill-opacity:1;stroke:#000000;stroke-width:0.0379472;stroke-linecap:round;stroke-linejoin:miter;stroke-dasharray:none;stroke-opacity:1"
         d="m 77.144516,105.65334 c -0.507696,-0.027 -1.216625,0.11234 -1.486704,-0.4503 -0.268486,-0.45631 -0.534963,-0.94082 -0.576136,-1.47924 0.70418,0.19791 1.627288,-0.0249 1.908475,-0.76892 0.389746,-0.50393 0.736519,0.25532 0.971903,0.51374 0.413939,0.33501 0.987108,0.3601 1.491381,0.27515 0.132402,0.49523 -0.289145,0.92188 -0.427176,1.37471 -0.310327,0.60884 -1.046275,0.55634 -1.622322,0.53502 -0.08647,2.1e-4 -0.172948,1e-4 -0.259421,-1.6e-4 z"
         id="path9" />
      <path
         style="fill:#c3951b;fill-opacity:1;stroke:#000000;stroke-width:0.0379472;stroke-linecap:round;stroke-linejoin:miter;stroke-dasharray:none;stroke-opacity:1"
         d="m 75.374014,103.62934 c -0.697782,0.0455 -0.564912,-0.85856 -0.415523,-1.29213 0.223901,-0.96536 0.112162,-1.96022 0.168565,-2.938338 0.06425,-0.52014 0.537562,-0.848514 0.938522,-1.120593 0.274819,-0.150378 0.757248,-0.327004 0.978077,-0.04402 0.245975,0.562721 0.0515,1.186597 0.101233,1.776011 -0.05264,0.9646 -0.01482,1.96023 -0.325583,2.88652 -0.242647,0.55757 -0.865806,0.81955 -1.445291,0.73255 z"
         id="path10" />
      <path
         style="fill:#c3951b;fill-opacity:1;stroke:#000000;stroke-width:0.0379472;stroke-linecap:round;stroke-linejoin:miter;stroke-dasharray:none;stroke-opacity:1"
         d="m 79.035634,103.63858 c -0.756593,0.0941 -1.421892,-0.60362 -1.435098,-1.33756 -0.194924,-1.27541 -0.137418,-2.57146 -0.188198,-3.853862 0.181171,-0.628646 1.01227,-0.294162 1.369377,-0.0064 0.425977,0.280836 0.794065,0.754753 0.71869,1.292015 -0.01481,1.049947 -0.02355,2.118337 0.268894,3.135737 0.09942,0.45032 -0.267918,0.89661 -0.732591,0.77 l -0.0011,2e-5 z"
         id="path11" />
      <path
         style="fill:#000000;fill-opacity:1;stroke:#000000;stroke-width:0.0379472;stroke-linecap:round;stroke-linejoin:miter;stroke-dasharray:none;stroke-opacity:1"
         d="m 80.526978,105.92579 c -0.532759,-0.15438 -0.87859,-0.77015 -1.315974,-0.97761 0.241857,-0.50021 0.736728,0.12981 1.042831,0.24589 0.154727,0.12639 0.830148,0.75797 0.273143,0.73172 z"
         id="path12" />
      <path
         style="fill:#000000;fill-opacity:1;stroke:#000000;stroke-width:0.0379472;stroke-linecap:round;stroke-linejoin:miter;stroke-dasharray:none;stroke-opacity:1"
         d="m 74.029464,105.92541 c -0.475135,-0.0711 0.159307,-0.65283 0.368284,-0.73735 0.290637,-0.16912 0.703507,-0.69082 1.011077,-0.26444 -0.471006,0.28691 -0.811716,0.77509 -1.316069,0.99949 -0.0211,7.7e-4 -0.0422,0.002 -0.06329,0.002 z"
         id="path13" />
      <path
         style="fill:#000000;fill-opacity:1;stroke:#000000;stroke-width:0.0379472;stroke-linecap:round;stroke-linejoin:miter;stroke-dasharray:none;stroke-opacity:1"
         d="m 74.98116,103.99757 c -0.197994,-0.40648 -0.451012,-0.86157 -0.917333,-0.91539 -0.311573,-0.32784 -0.941011,-0.63882 -0.876323,-1.13194 0.569544,-0.1122 0.702418,0.5364 1.065407,0.80878 0.212874,0.25875 0.608894,0.0635 0.512708,0.46822 0.07823,0.25191 0.361922,0.488 0.215541,0.77033 z"
         id="path14" />
      <path
         style="fill:#000000;fill-opacity:1;stroke:#000000;stroke-width:0.0379472;stroke-linecap:round;stroke-linejoin:miter;stroke-dasharray:none;stroke-opacity:1"
         d="m 79.615753,104.00536 c -0.02202,-0.35906 0.189478,-0.89618 0.376131,-1.08196 0.521968,-0.03 0.644797,-0.67163 1.03175,-0.91935 0.259953,-0.18474 0.583992,0.006 0.304015,0.28191 -0.209216,0.39271 -0.685128,0.71802 -1.01082,0.9105 -0.48133,-0.0445 -0.4257,0.57913 -0.701076,0.8089 z"
         id="path15" />
      <path
         style="fill:#000000;fill-opacity:1;stroke:#000000;stroke-width:0.0379472;stroke-linecap:round;stroke-linejoin:miter;stroke-dasharray:none;stroke-opacity:1"
         d="m 74.964296,101.47662 c -0.582044,-0.11321 -0.0872,-0.99686 -0.675901,-1.13388 -0.33208,-0.420105 -0.650658,-0.890904 -0.648739,-1.448345 0.581143,-0.151151 0.589425,0.831977 0.866159,1.182535 0.193164,0.18908 0.681957,0.0702 0.563909,0.53563 -0.0751,0.26408 0.046,0.66587 -0.105428,0.86406 z"
         id="path16" />
      <path
         style="fill:#000000;fill-opacity:1;stroke:#000000;stroke-width:0.0379472;stroke-linecap:round;stroke-linejoin:miter;stroke-dasharray:none;stroke-opacity:1"
         d="m 79.634007,101.48597 c -0.08896,-0.38126 -0.211418,-1.00134 0.06043,-1.27522 0.619904,0.0755 0.553264,-0.672231 0.782398,-1.05548 0.146473,-0.422015 0.70936,-0.34994 0.449146,0.125196 -0.16658,0.418608 -0.396974,0.853714 -0.718901,1.176254 -0.491279,0.12501 0.03888,0.9851 -0.573076,1.02925 z"
         id="path17" />
      <path
         style="fill:#000000;fill-opacity:1;stroke:#000000;stroke-width:0.0379472;stroke-linecap:round;stroke-linejoin:miter;stroke-dasharray:none;stroke-opacity:1"
         d="m 73.879159,107.24419 c -0.252708,-0.29284 -0.301058,-1.172 0.118071,-1.19059 0.05838,0.37275 -0.202771,0.77438 -0.118071,1.19059 z"
         id="path18" />
      <path
         style="fill:#000000;fill-opacity:1;stroke:#000000;stroke-width:0.0379472;stroke-linecap:round;stroke-linejoin:miter;stroke-dasharray:none;stroke-opacity:1"
         d="m 80.720223,107.21916 c 0.07681,-0.38341 -0.322289,-0.99489 -0.02556,-1.22427 0.293896,0.22778 0.229893,0.9411 0.02556,1.22427 z"
         id="path19" />
      <path
         style="fill:#000000;fill-opacity:1;stroke:#000000;stroke-width:0.0379472;stroke-linecap:round;stroke-linejoin:miter;stroke-dasharray:none;stroke-opacity:1"
         d="m 81.387543,101.86408 c -0.43612,-0.18488 0.120325,-0.78752 -0.152458,-1.13738 -0.06746,-0.17042 -0.05371,-0.51992 0.113856,-0.18099 0.16113,0.39527 0.205927,0.96224 0.0386,1.31837 z"
         id="path20" />
      <path
         style="fill:#000000;fill-opacity:1;stroke:#000000;stroke-width:0.0379472;stroke-linecap:round;stroke-linejoin:miter;stroke-dasharray:none;stroke-opacity:1"
         d="m 73.174565,101.8322 c -0.178995,-0.41004 -0.01771,-1.37181 0.238564,-1.37256 -0.164132,0.42911 -0.03504,1.07922 -0.02771,1.37321 -0.07028,1.2e-4 -0.140581,6.3e-4 -0.210854,-6.5e-4 z"
         id="path21" />
      <path
         style="fill:#000000;fill-opacity:1;stroke:#000000;stroke-width:0.0379472;stroke-linecap:round;stroke-linejoin:miter;stroke-dasharray:none;stroke-opacity:1"
         d="m 74.139195,98.884594 c -0.55976,-0.28481 0.129071,-0.884798 0.356486,-1.182368 0.171064,-0.172763 0.753682,-0.65208 0.771866,-0.40369 -0.452561,0.409931 -0.917061,0.861108 -1.073203,1.472979 l -0.02524,0.0588 z"
         id="path22" />
      <path
         style="fill:#000000;fill-opacity:1;stroke:#000000;stroke-width:0.0379472;stroke-linecap:round;stroke-linejoin:miter;stroke-dasharray:none;stroke-opacity:1"
         d="m 80.462551,98.926804 c -0.143541,-0.664335 -0.62056,-1.181893 -1.116408,-1.614328 -0.111656,-0.301994 0.497183,0.164502 0.60891,0.263755 0.306807,0.319303 0.964197,0.865187 0.642551,1.30662 l -0.06044,0.02401 z"
         id="path23" />
      <path
         style="fill:#c3951b;fill-opacity:1;stroke:#000000;stroke-width:0.0379472;stroke-linecap:round;stroke-linejoin:miter;stroke-dasharray:none;stroke-opacity:1"
         d="m 78.326243,107.288 c 0.269535,-0.45213 -0.255567,-0.81874 -0.664067,-0.65973 -0.203235,-0.0802 -0.348363,-0.80312 -0.498231,-0.29477 -0.07537,0.56716 -1.161901,0.013 -0.915307,0.81057 -0.188339,0.14266 -0.317338,-0.70649 0.06623,-0.76133 0.192243,-0.11726 0.69738,-0.0113 0.279283,-0.26815 -0.331774,-0.1252 -0.461192,-0.60538 0.02547,-0.47493 0.578146,-0.0128 1.157302,-0.0189 1.734638,0.0202 0.04551,0.38825 -0.95173,0.65521 -0.26034,0.66163 0.535737,0.0368 0.565298,0.66657 0.232316,0.96651 z m -0.923811,-1.61425 c 0.72873,-0.003 -0.505168,-0.0103 -0.439818,-0.001 0.146598,0.002 0.29322,0.002 0.439818,0.001 z m -1.01035,-0.0175 c 0.110302,-0.007 -0.10343,-0.0185 0,0 z"
         id="path24" />
    </g>
  </g>
</svg>
