<svg xmlns="http://www.w3.org/2000/svg" width="64" height="64" viewBox="56.036246163504465 10.13741193498884 21.07875279017857 21.07875279017857"><g>
        <g transform="translate(32.517629,-81.78254)">
          <rect style="fill:#868181;fill-opacity:1;stroke:#000000;stroke-width:0.254;stroke-linecap:round;stroke-linejoin:round;stroke-dasharray:none;stroke-opacity:1" width="9.260417" height="3.96875" x="25.135416" y="107.15625"/>
          <path style="fill:#868181;fill-opacity:1;stroke:#000000;stroke-width:0.296642;stroke-linecap:round;stroke-linejoin:round;stroke-dasharray:none;stroke-opacity:1" d="m -11.491633,111.8099 -9.582015,-5.2e-4 -0.06289,0.14508 1.398688,0.60633 8.431672,-2.5e-4 0.244587,-0.56422 z" transform="rotate(-23.436655)"/>
          <path style="fill:#868181;fill-opacity:1;stroke:#000000;stroke-width:0.296642;stroke-linecap:round;stroke-linejoin:round;stroke-dasharray:none;stroke-opacity:1" d="m 25.604123,107.15625 8.791709,3.81062 2e-6,0.15813 h -1.524455 l -7.735963,-3.3538 1e-6,-0.61495 z"/>
        </g>
        <g transform="translate(-89.329632,-132.97098)">
          <path d="m 151.75968,146.78485 c -0.74301,0.68368 -1.16745,2.39447 -1.35466,3.38665 -0.46239,2.45057 0.29697,6.8375 1.69334,8.23385 2.70932,2.70934 4.06399,3.048 5.07999,3.048 1.016,0 2.032,-0.33866 4.74133,-3.048 1.32854,-1.32855 2.49438,-5.78328 2.03199,-8.23385 -0.18721,-0.99218 -0.61163,-2.70297 -1.35466,-3.38665 -0.89471,-0.82327 -2.19275,-1.12475 -3.38666,-1.35466 -1.33024,-0.2562 -2.73379,-0.2562 -4.06399,0 -1.19392,0.22991 -2.49195,0.53139 -3.38668,1.35466 z" style="fill:#907d6e;fill-opacity:1;stroke:#000000;stroke-width:0.677334;stroke-linecap:butt;stroke-linejoin:miter;stroke-miterlimit:4;stroke-dasharray:none;stroke-opacity:1"/>
          <g transform="rotate(5,342.88322,1204.7394)">
            <path d="M 64.891792,172.33573 64.392033,171.8334 H 62.901476 62.380183" style="fill:none;stroke:#000000;stroke-width:0.502327px;stroke-linecap:butt;stroke-linejoin:miter;stroke-opacity:1"/>
            <path d="m 64.30968,171.8536 c 0.07072,0.11478 0.111506,0.24996 0.111506,0.39468 0,0.41612 -0.33734,0.75349 -0.753477,0.75349 -0.416164,0 -0.753505,-0.33737 -0.753505,-0.75349 0,-0.14864 0.04307,-0.28728 0.117377,-0.40402 z" style="fill:#ffffff;stroke:#000000;stroke-width:0.251163;stroke-miterlimit:4;stroke-dashoffset:0;stroke-opacity:1"/>
            <circle r="0.2511633" cy="172.3383" cx="63.635815" style="fill:#000000;fill-opacity:1;fill-rule:nonzero;stroke:#000000;stroke-width:0.251163;stroke-miterlimit:4;stroke-dasharray:none;stroke-dashoffset:0;stroke-opacity:1"/>
          </g>
          <g transform="rotate(-5,-119.55261,-880.31379)">
            <path d="m 67.403429,172.33573 0.556457,-0.50233 h 1.955179" style="fill:none;stroke:#000000;stroke-width:0.502327px;stroke-linecap:butt;stroke-linejoin:miter;stroke-opacity:1"/>
            <path d="m 69.332954,171.85355 c 0.0707,0.11478 0.111506,0.24995 0.111506,0.39468 0,0.41612 -0.33734,0.75349 -0.753505,0.75349 -0.416137,0 -0.753477,-0.33737 -0.753477,-0.75349 0,-0.14864 0.04304,-0.28728 0.117376,-0.40403 z" style="fill:#ffffff;stroke:#000000;stroke-width:0.251163;stroke-miterlimit:4;stroke-dashoffset:0;stroke-opacity:1"/>
            <circle r="0.2511633" cy="172.3383" cx="68.675026" style="fill:#000000;fill-opacity:1;fill-rule:nonzero;stroke:#000000;stroke-width:0.251163;stroke-miterlimit:4;stroke-dasharray:none;stroke-dashoffset:0;stroke-opacity:1"/>
          </g>
          <path style="fill:none;stroke:#000000;stroke-width:0.502327px;stroke-linecap:butt;stroke-linejoin:miter;stroke-opacity:1" d="m 154.62251,157.25073 1.30474,0.20091 h 2.51164 l 1.26362,-0.20091"/>
          <path style="fill:none;stroke:#000000;stroke-width:0.502327px;stroke-linecap:butt;stroke-linejoin:miter;stroke-opacity:1" d="m 156.36875,153.45833 v 1.32292 c -0.37589,1.03924 -0.52917,1.5875 0.79375,1.85208 1.32292,-0.26458 1.17748,-0.86639 0.79375,-1.85208 l -1e-5,-1.32292"/>
          <path style="fill:#000000;fill-rule:evenodd;stroke:#000000;stroke-width:0.264583px;stroke-linecap:butt;stroke-linejoin:miter;stroke-opacity:1" d="m 156.59354,144.42581 c -0.7457,0.0604 -1.52622,-0.0568 -2.23612,0.22585 -0.71039,0.38861 -1.56179,0.28513 -2.2659,0.69068 -1.0602,0.50648 -1.85238,1.54474 -1.98042,2.72211 -0.2405,0.81342 -0.89463,1.51809 -0.78418,2.41763 -0.005,0.93534 -0.10167,1.90497 0.16614,2.80963 0.4715,0.72112 1.75076,0.46347 1.85212,-0.41176 0.38475,-1.00177 -0.014,-2.1276 0.45902,-3.10893 0.31871,-0.79501 0.81984,-1.60334 1.64472,-1.94108 0.56398,-0.39179 1.23095,-0.48298 1.88838,-0.59687 0.84073,-0.15755 1.70233,-0.39874 2.55588,-0.18234 0.69238,0.13511 1.39583,0.24943 2.0796,0.40379 0.73194,0.32693 1.526,0.66891 1.94296,1.40043 0.5191,0.77285 0.8035,1.69841 0.73441,2.63116 8.3e-4,0.6613 0.0797,1.36496 0.44975,1.92521 0.67296,0.70924 1.95066,0.0902 1.74677,-0.89684 0.0629,-0.87382 0.0429,-1.75672 -0.0136,-2.62924 -0.16717,-0.7958 -0.77803,-1.43393 -0.84079,-2.26285 -0.35079,-1.5264 -1.84968,-2.57997 -3.36759,-2.6851 -0.67446,-0.21971 -1.33351,-0.55748 -2.06574,-0.47341 -0.65377,-0.0653 -1.31042,-0.0201 -1.96545,-0.0381 z"/>
        </g>
      </g></svg>