<?xml version="1.0" encoding="UTF-8" standalone="no"?>
<!-- Created with Inkscape (http://www.inkscape.org/) -->

<svg
   width="210mm"
   height="297mm"
   viewBox="0 0 210 297"
   version="1.1"
   id="svg1"
   inkscape:version="1.4.2 (f4327f4, 2025-05-13)"
   sodipodi:docname="alienHeads.svg"
   xmlns:inkscape="http://www.inkscape.org/namespaces/inkscape"
   xmlns:sodipodi="http://sodipodi.sourceforge.net/DTD/sodipodi-0.dtd"
   xmlns="http://www.w3.org/2000/svg"
   xmlns:svg="http://www.w3.org/2000/svg">
  <sodipodi:namedview
     id="namedview1"
     pagecolor="#ffffff"
     bordercolor="#000000"
     borderopacity="0.25"
     inkscape:showpageshadow="2"
     inkscape:pageopacity="0.0"
     inkscape:pagecheckerboard="0"
     inkscape:deskcolor="#d1d1d1"
     inkscape:document-units="mm"
     inkscape:zoom="1.0396254"
     inkscape:cx="397.25847"
     inkscape:cy="561.25984"
     inkscape:window-width="2560"
     inkscape:window-height="1369"
     inkscape:window-x="-8"
     inkscape:window-y="-8"
     inkscape:window-maximized="1"
     inkscape:current-layer="layer1" />
  <defs
     id="defs1" />
  <g
     inkscape:label="Layer 1"
     inkscape:groupmode="layer"
     id="layer1">
    <g
       id="g19056-0-8"
       transform="matrix(0.33171888,0,0,0.33171888,-147.48872,390.1984)"
       style="stroke-width:1.08228;stroke-dasharray:none">
      <path
         style="fill:#006f48;fill-opacity:1;fill-rule:evenodd;stroke:#000000;stroke-width:1.08228;stroke-linecap:butt;stroke-linejoin:miter;stroke-dasharray:none;stroke-opacity:1"
         d="m 795.03666,-868.01949 c 6.30288,0.11215 10.82616,4.91344 14.75003,9.24082 3.01911,2.61319 5.9355,5.59725 8.9246,7.96334 -3.66626,-5.82206 -2.97388,-13.59254 0.79516,-19.18064 3.16612,-4.53916 -2.01187,-8.92836 -0.89563,-13.78451 -0.6254,-5.7802 1.98185,-11.28206 1.93714,-16.96508 -2.85393,-4.69723 -1.98979,-10.35573 -2.7753,-15.56511 -0.53536,-4.98948 0.41905,-9.80637 3.01241,-14.14 -0.0704,-2.07405 1.99202,-5.70198 -0.10936,-6.74263 l -0.67613,0.7442 c -4.84562,3.53398 -7.47947,9.10551 -11.79549,13.16715 -3.83036,3.10111 -6.25955,7.42557 -9.00509,11.43028 -1.93702,3.32767 -4.88384,5.92064 -6.57138,9.41735"
         id="path619-5-5-0"
         sodipodi:nodetypes="ccccccccccccc" />
      <path
         style="fill:#006f48;fill-opacity:1;fill-rule:evenodd;stroke:#000000;stroke-width:1.08228;stroke-linecap:butt;stroke-linejoin:miter;stroke-dasharray:none;stroke-opacity:1"
         d="m 699.19135,-890.90535 -28.04809,-28.56431 c 1.61543,10.49108 1.30522,20.6594 0.99737,30.70054 -1.61069,6.53645 -0.29439,13.34 -1.49409,19.9494 1.00246,4.73786 -3.89611,9.65269 -0.89592,13.20304 5.64892,3.45696 6.85749,11.13525 5.50966,17.17201 2.54534,-4.79486 6.47049,-8.61674 9.9483,-12.71771 3.63412,-3.59857 6.24544,-9.201 11.57373,-10.49037"
         id="path540-3-9-7"
         sodipodi:nodetypes="cccccccc" />
      <path
         style="fill:#008080;fill-rule:evenodd;stroke:#000000;stroke-width:1.08228;stroke-linecap:butt;stroke-linejoin:miter;stroke-dasharray:none;stroke-opacity:1"
         d="m 792.39302,-903.48166 c -2.58002,-14.92334 -5.05255,-30.4616 -13.19212,-43.53027 -9.82103,-12.95649 -27.55485,-18.62063 -43.2541,-15.19259 -13.07763,-0.20618 -26.47133,9.20191 -28.23709,22.63197 -3.9934,13.26799 -11.83721,25.8024 -11.04758,40.13386 -0.31252,12.69878 -0.61106,25.44416 -1.85533,38.06908 1.19198,10.9959 10.32723,18.48761 20.24848,20.69934 22.77427,17.40578 46.90393,14.55865 66.05435,-4.17707 6.05074,-2.70952 12.50087,-8.53065 13.37264,-15.56182 1.14548,-8.02659 0.35879,-16.18604 0.29137,-24.26182 -0.26388,-6.31517 -0.59882,-12.70807 -2.38062,-18.81068 z"
         id="path367-7-2-2"
         sodipodi:nodetypes="scccccccccs" />
      <path
         style="fill:#005d5d;fill-opacity:1;fill-rule:evenodd;stroke:#000000;stroke-width:1.08228;stroke-linecap:butt;stroke-linejoin:miter;stroke-dasharray:none;stroke-opacity:1"
         d="m 720.93741,-845.04759 c -1.48187,1.4288 -2.9685,2.86808 -3.96297,4.6941 -0.96031,1.50046 -1.66589,2.58038 -2.40186,4.0554 -1.17174,2.66266 -2.69122,5.14777 -4.13831,7.65862 -1.31592,2.19052 1.58398,3.41159 2.98829,4.48844 1.8849,0.87695 3.77679,1.70893 5.69477,2.53614 2.569,1.00403 4.7199,2.80025 7.2722,3.84527 2.63977,1.63455 5.71999,2.33152 8.69739,3.04485 0.95723,-0.78743 2.27136,-3.91125 -0.26921,-3.72689 -1.63169,-0.74685 -2.95253,-1.98454 -4.55952,-2.83583 -3.32324,-1.79934 -6.4761,-3.91657 -9.23842,-6.50712 -0.12207,-1.88985 2.19909,-3.06938 3.3348,-4.40826 2.08419,-2.1235 4.44184,-3.96003 6.97648,-5.51067 0.29977,-0.37065 0.48362,-0.83758 0.79117,-1.22553"
         id="path775-3-4-1" />
      <path
         style="fill:none;fill-rule:evenodd;stroke:#000000;stroke-width:1.08228;stroke-linecap:butt;stroke-linejoin:miter;stroke-dasharray:none;stroke-opacity:1"
         d="m 722.06498,-946.31119 c 0.46458,2.13852 0.20095,4.3381 0.20442,6.50364 0.33044,0.58782 0.55577,1.04295 0.64169,1.76147 0.49439,0.68264 0.81796,1.45597 0.8828,2.27434 -0.13545,0.85526 0.19627,1.61065 0.41068,2.40242 0.0654,0.85358 0.59455,1.68046 0.8182,2.28149 -0.0881,0.96328 0.19686,2.31913 -0.18547,3.05906 l -0.0955,-0.0312"
         id="path369-1-1-2" />
      <path
         style="fill:none;fill-rule:evenodd;stroke:#000000;stroke-width:1.08228;stroke-linecap:butt;stroke-linejoin:miter;stroke-dasharray:none;stroke-opacity:1"
         d="m 742.7497,-950.20479 c -1.01991,0.91264 -2.46396,1.68263 -2.67613,3.17004 -0.12688,0.77996 -0.25784,1.75802 0.4731,2.29502 0.761,0.74083 1.75709,1.32018 2.20303,2.32213 0.0976,0.92922 -0.0678,1.86513 0.0494,2.79645 0.0686,0.51374 -0.0593,2.11064 -0.31884,2.01472 -0.48739,0.91067 -0.17377,1.99506 -0.21725,2.97602"
         id="path371-5-8-5" />
      <path
         style="fill:#006868;fill-opacity:1;fill-rule:evenodd;stroke:#000000;stroke-width:1.08228;stroke-linecap:butt;stroke-linejoin:miter;stroke-dasharray:none;stroke-opacity:1"
         d="m 776.17381,-846.94041 c 1.48188,1.4288 2.96851,2.86808 3.96298,4.6941 0.96031,1.50046 1.66589,2.58038 2.40185,4.0554 1.17175,2.66266 2.69123,5.14777 4.13832,7.65862 1.31592,2.19052 -1.58398,3.41159 -2.98829,4.48844 -1.8849,0.87695 -3.77679,1.70893 -5.69477,2.53614 -2.56901,1.00403 -4.7199,2.80025 -7.2722,3.84527 -2.63977,1.63455 -5.71999,2.33152 -8.69739,3.04485 -0.95723,-0.78743 -2.27136,-3.91125 0.26921,-3.72689 1.63169,-0.74685 2.95253,-1.98454 4.55952,-2.83583 3.32324,-1.79934 6.4761,-3.91657 9.23841,-6.50712 0.12208,-1.88985 -2.19908,-3.06938 -3.33479,-4.40826 -2.08419,-2.1235 -4.44184,-3.96003 -6.97648,-5.51067 -0.29977,-0.37065 -0.48362,-0.83758 -0.79117,-1.22553"
         id="path777-0-3-9" />
      <path
         style="fill:#006868;fill-opacity:1;fill-rule:evenodd;stroke:#000000;stroke-width:1.08228;stroke-linecap:butt;stroke-linejoin:miter;stroke-dasharray:none;stroke-opacity:1"
         d="m 723.25072,-849.2147 c -0.41244,3.76843 -0.25505,7.58445 -0.50049,11.358 -0.0325,4.40147 0.004,8.78773 0.28957,13.16437 -0.5329,4.38621 0.73377,8.67161 2.72471,12.54428 0.28916,3.417 2.37481,6.49124 5.56646,7.81204 2.98367,1.65926 5.75636,3.84448 9.01326,4.9146 3.94032,0.51172 5.24872,-4.40477 5.09653,-7.48497 -3.29409,-1.12131 -5.16029,-4.58038 -6.59395,-7.50379 -0.42785,-3.46507 2.08896,-6.41008 -0.59539,-9.4402 -1.78777,-3.61424 6.95776,-4.82674 2.59749,-8.362 -0.46611,-3.76823 -1.44533,-8.66635 2.19216,-11.23108 0.3473,-0.3395 0.67195,-0.71201 0.89437,-1.14761"
         id="path469-8-3-2" />
      <path
         style="fill:#005d5d;fill-opacity:1;fill-rule:evenodd;stroke:#000000;stroke-width:1.08228;stroke-linecap:butt;stroke-linejoin:miter;stroke-dasharray:none;stroke-opacity:1"
         d="m 772.70366,-849.2147 c 0.41243,3.76843 0.25505,7.58445 0.50049,11.358 0.0325,4.40147 -0.003,8.78773 -0.28957,13.16437 0.53289,4.38621 -0.73378,8.67161 -2.72471,12.54428 -0.28916,3.417 -2.37481,6.49124 -5.56646,7.81204 -2.98367,1.65926 -5.75636,3.84448 -9.01326,4.9146 -3.94032,0.51172 -5.24872,-4.40477 -5.09653,-7.48497 3.29408,-1.12131 5.16028,-4.58038 6.59395,-7.50379 0.42785,-3.46507 -2.08896,-6.41008 0.59539,-9.4402 1.78777,-3.61424 -6.95776,-4.82674 -2.59749,-8.362 0.4661,-3.76823 1.44533,-8.66635 -2.19216,-11.23108 -0.3473,-0.3395 -0.67195,-0.71201 -0.89437,-1.14761"
         id="path471-8-4-9" />
      <path
         style="fill:none;fill-rule:evenodd;stroke:#000000;stroke-width:1.08228;stroke-linecap:butt;stroke-linejoin:miter;stroke-dasharray:none;stroke-opacity:1"
         d="m 696.61024,-881.44127 c -1.84494,0.0799 -3.61137,-0.5231 -5.38897,-0.88842 -1.67232,0.0207 -3.35711,0.0616 -5.02694,0.018 -1.23673,-0.47512 -2.4444,-1.00458 -3.5879,-1.66756 -0.93489,-0.50105 -2.16485,-0.62936 -3.33607,-0.57215 -2.10086,0.0308 -4.20299,0.0104 -6.30421,-0.006 -0.35219,0.47027 -1.1099,-0.0567 -1.47874,0.3633"
         id="path607-4-3-6" />
      <path
         style="fill:none;fill-rule:evenodd;stroke:#000000;stroke-width:1.08228;stroke-linecap:butt;stroke-linejoin:miter;stroke-dasharray:none;stroke-opacity:1"
         d="m 695.23365,-867.50327 c -1.41834,-0.41246 -2.84127,-0.69364 -4.30287,-0.89975 -1.42267,0.0403 -3.02469,-0.16152 -4.23823,0.73513 -0.67232,0.14441 -1.71707,0.91123 -2.00052,1.0565 0.4301,-0.19712 -1.27247,0.61582 -1.58442,1.00934 -1.35417,0.79478 -2.48533,1.2443 -3.73586,2.15293 -1.41137,0.62173 -2.7687,1.7115 -4.21446,2.07788 -1.03807,0.88785 -2.27296,1.63382 -3.51443,2.29962 -0.88567,0.44553 -1.67973,1.19573 -2.56449,1.37654"
         id="path609-7-6-2" />
      <path
         style="fill:none;fill-rule:evenodd;stroke:#000000;stroke-width:1.08228;stroke-linecap:butt;stroke-linejoin:miter;stroke-dasharray:none;stroke-opacity:1"
         d="m 794.52044,-894.51891 c 3.26349,-1.38691 6.57019,-2.79849 10.05489,-3.48749 1.28826,-0.56359 2.52754,-1.13206 3.85511,-1.60534 0.87983,-0.0904 2.11349,-0.0676 2.26894,-0.37922 1.54539,-0.0667 2.91181,-0.90561 4.45303,-0.99989 1.20939,-0.23316 2.49613,-0.56331 3.56146,-0.98031 0.37597,-0.0822 1.09103,0.38423 1.27354,-0.11901"
         id="path615-1-8-6" />
      <path
         style="fill:none;fill-rule:evenodd;stroke:#000000;stroke-width:1.08228;stroke-linecap:butt;stroke-linejoin:miter;stroke-dasharray:none;stroke-opacity:1"
         d="m 794.86459,-884.02239 c 3.21637,0.72702 6.47066,1.27055 9.70149,1.9152 1.18973,0.94022 2.88465,0.77835 3.9595,1.95794 1.16016,0.67449 2.20049,1.36557 3.52828,2.00817 1.3219,0.61755 2.46035,1.51376 3.68249,2.29843 1.15381,0.55265 2.60584,1.02093 3.55871,1.65699 l 0.19758,-0.0236 0.15063,-0.005"
         id="path617-0-6-1" />
      <g
         id="g733-8-7-1"
         style="fill:#ffffff;stroke-width:1.08228;stroke-dasharray:none"
         transform="translate(723.28173,-713.66897)">
        <ellipse
           style="fill:#ff7f2a;stroke:#000000;stroke-width:1.08228;stroke-linecap:round;stroke-linejoin:round;stroke-dasharray:none"
           id="ellipse675-5-0-8"
           cx="-3.2694092"
           cy="-188.07706"
           rx="5.5063729"
           ry="5.8505216" />
        <circle
           style="fill:#000000;stroke:#000000;stroke-width:1.08228;stroke-linecap:round;stroke-linejoin:round;stroke-dasharray:none"
           id="path729-6-9-3"
           cx="-3.5275202"
           cy="-187.90498"
           r="1.3335747" />
      </g>
      <g
         id="g733-9-2-8-9"
         transform="translate(773.18324,-711.43201)"
         style="stroke-width:1.08228;stroke-dasharray:none">
        <ellipse
           style="fill:#ff7f2a;fill-opacity:1;stroke:#000000;stroke-width:1.08228;stroke-linecap:round;stroke-linejoin:round;stroke-dasharray:none"
           id="ellipse675-7-8-2-5"
           cx="-3.2694092"
           cy="-188.07706"
           rx="5.5063729"
           ry="5.8505216" />
        <circle
           style="fill:#000000;stroke:#000000;stroke-width:1.08228;stroke-linecap:round;stroke-linejoin:round;stroke-dasharray:none"
           id="path729-1-6-7-6"
           cx="-3.5275202"
           cy="-187.90498"
           r="1.3335747" />
      </g>
      <path
         style="fill:#000000;fill-rule:evenodd;stroke:#000000;stroke-width:1.08228;stroke-linecap:butt;stroke-linejoin:miter;stroke-dasharray:none;stroke-opacity:1"
         d="m 740.83332,-878.41665 c -0.97692,0.64487 -0.8825,2.00893 -0.88343,3.03528 -0.0753,1.51061 0.61259,2.91172 0.59775,4.41793 0.1351,1.0505 -0.25162,2.5609 0.96913,3.0957 1.05145,0.42409 1.40644,-0.92286 1.80727,-1.59752 0.71035,-1.19583 0.62427,-2.66235 0.58078,-3.99958 -0.16841,-1.17923 -0.719,-2.25781 -1.14211,-3.36067 -0.35924,-0.76403 -1.0284,-1.55568 -1.92939,-1.59114 z"
         id="path767-3-1-8" />
      <path
         style="fill:#000000;fill-rule:evenodd;stroke:#000000;stroke-width:1.08228;stroke-linecap:butt;stroke-linejoin:miter;stroke-dasharray:none;stroke-opacity:1"
         d="m 752.54452,-878.35582 c -1.34426,-0.26059 -2.10072,1.25959 -1.89634,2.40367 -0.0413,1.91942 0.33065,3.81436 0.4505,5.72447 0.0637,1.25159 0.31677,2.64324 1.40386,3.42874 1.14275,0.75071 2.08505,-0.71304 2.56309,-1.58449 0.6114,-0.88064 0.58951,-2.00743 0.193,-2.96837 -0.53974,-1.81554 -0.35734,-3.93482 -1.69254,-5.43637 -0.33918,-0.5224 -0.51112,-1.17158 -1.02157,-1.56765 z"
         id="path769-5-9-1" />
      <path
         style="fill:none;fill-rule:evenodd;stroke:#000000;stroke-width:1.08228;stroke-linecap:butt;stroke-linejoin:miter;stroke-dasharray:none;stroke-opacity:1"
         d="m 771.76363,-946.61436 c -0.33701,0.78211 -0.96175,1.42475 -1.11173,2.28993 -0.43947,0.84675 -0.59347,2.01682 0.46429,2.45954 1.35488,1.09398 2.65473,2.37964 3.39097,3.97528 0.20541,1.25087 -1.02632,2.0499 -1.61189,2.99326 -0.41897,0.55652 -0.60327,1.22883 -0.83051,1.87543"
         id="path771-8-0-1" />
      <path
         style="fill:none;fill-rule:evenodd;stroke:#000000;stroke-width:1.08228;stroke-linecap:butt;stroke-linejoin:miter;stroke-dasharray:none;stroke-opacity:1"
         d="m 762.47162,-949.66868 c -1.32488,0.46208 -2.87006,0.70181 -3.64922,2.0217 -0.83909,0.91363 -0.23322,2.04689 0.41108,2.84833 0.7536,1.22228 1.81841,2.35433 2.08287,3.8016 0.083,1.61179 -1.8271,2.86543 -1.13193,4.50443 0.10352,0.24609 0.23284,0.47983 0.35135,0.71869"
         id="path773-4-2-2" />
      <path
         style="fill:#000000;fill-rule:evenodd;stroke:#000000;stroke-width:1.08228;stroke-linecap:butt;stroke-linejoin:miter;stroke-dasharray:none;stroke-opacity:1"
         d="m 748.10339,-843.00929 c -1.7435,0.13964 -4.14203,0.70707 -4.50167,2.72643 0.65497,2.29804 3.75832,0.9548 5.47917,1.53258 2.11741,0.74595 4.2014,-2.55168 1.41231,-3.05868 -0.978,-0.42247 -1.98729,-1.31565 -3.11986,-0.95657"
         id="path3307-6-4-4" />
    </g>
    <g
       id="g42057-8-1"
       transform="matrix(0.35901408,0,0,0.35901408,119.77835,539.78078)">
      <path
         style="fill:#4b4bbe;fill-opacity:1;fill-rule:evenodd;stroke:#000000;stroke-width:1;stroke-linecap:butt;stroke-linejoin:miter;stroke-dasharray:none;stroke-opacity:1"
         d="m 111.39907,-854.06296 c 0,0 0.17979,-9.17219 -3.35176,-12.28978 -5.69444,-5.02696 -17.213815,0.96721 -23.462302,-3.35176 -11.560678,-7.99075 -18.470742,-24.47766 -22.345049,-37.98658 -3.490743,-12.17152 -5.937562,-24.76072 -2.234502,-36.86934 6.409068,-20.95696 57.639073,-23.87444 58.097133,-23.4623 0.45805,-0.41214 51.68806,2.50534 58.09713,23.4623 3.70306,12.10862 1.25624,24.69782 -2.2345,36.86934 -3.87431,13.50892 -10.78437,29.99583 -22.34505,37.98658 -6.24849,4.31897 -17.76786,-1.6752 -23.4623,3.35176 -3.53156,3.11759 -3.35176,12.28978 -3.35176,12.28978"
         id="path7043-4-6-4"
         sodipodi:nodetypes="csssscssssc" />
      <ellipse
         style="fill:#ff961c;fill-opacity:1;stroke:#000000;stroke-width:1;stroke-linecap:round;stroke-linejoin:round;stroke-dasharray:none"
         id="path7825-0-3-3"
         cx="118.10259"
         cy="-851.82843"
         rx="11.172525"
         ry="4.4690099" />
      <path
         style="fill:#ffffff;fill-rule:evenodd;stroke:#000000;stroke-width:1;stroke-linecap:butt;stroke-linejoin:miter;stroke-dasharray:none;stroke-opacity:1"
         d="m 134.86137,-927.80163 c 0,0 4.71508,-4.80004 7.82076,-5.58626 2.91071,-0.73687 8.93803,1.11726 8.93803,1.11726 0,0 -4.21759,7.04028 -7.82077,7.82076 -3.10981,0.67361 -8.93802,-3.35176 -8.93802,-3.35176 z"
         id="path7827-1-9-3"
         sodipodi:nodetypes="cscsc" />
      <path
         style="fill:#333333;fill-rule:evenodd;stroke:#000000;stroke-width:1;stroke-linecap:butt;stroke-linejoin:miter;stroke-dasharray:none;stroke-opacity:1"
         d="m 140.44763,-928.91888 c 0,1.34278 0.90362,3.52999 2.2345,3.35176 1.16727,-0.15631 1.11726,-2.17407 1.11726,-3.35176 0,-1.17769 0.05,-3.19544 -1.11726,-3.35175 -1.33088,-0.17824 -2.2345,2.00898 -2.2345,3.35175 z"
         id="path7829-6-8-5"
         sodipodi:nodetypes="sssss" />
      <path
         style="fill:#ffffff;fill-rule:evenodd;stroke:#000000;stroke-width:1;stroke-linecap:butt;stroke-linejoin:miter;stroke-dasharray:none;stroke-opacity:1"
         d="m 99.109294,-927.80163 c 0,0 -4.715078,-4.80004 -7.820763,-5.58626 -2.910706,-0.73687 -8.938026,1.11726 -8.938026,1.11726 0,0 4.217586,7.04028 7.820771,7.82076 3.109815,0.67361 8.938018,-3.35176 8.938018,-3.35176 z"
         id="path7833-4-0-7"
         sodipodi:nodetypes="cscsc" />
      <path
         style="fill:#333333;fill-rule:evenodd;stroke:#000000;stroke-width:1;stroke-linecap:butt;stroke-linejoin:miter;stroke-dasharray:none;stroke-opacity:1"
         d="m 93.523034,-928.91888 c 0,1.34278 -0.903613,3.52999 -2.234503,3.35176 -1.167269,-0.15631 -1.117255,-2.17407 -1.117255,-3.35176 0,-1.17769 -0.05,-3.19544 1.117255,-3.35175 1.33089,-0.17824 2.234503,2.00898 2.234503,3.35175 z"
         id="path7835-7-9-8"
         sodipodi:nodetypes="sssss" />
      <path
         style="fill:#ff961c;fill-opacity:1;fill-rule:evenodd;stroke:#000000;stroke-width:1;stroke-linecap:butt;stroke-linejoin:miter;stroke-dasharray:none;stroke-opacity:1"
         d="m 72.295224,-956.85019 c -2.583659,-0.42176 -5.132456,-1.1739 -7.751789,-1.30725 -1.47952,-0.0997 -1.851564,2.03718 -0.612644,2.65265 1.337325,0.57316 2.497466,1.66575 2.506274,3.22593 0.550216,1.28087 -0.617297,1.9926 -1.002043,2.9749 l 0.05405,0.13437 0.102518,0.14021"
         id="path7837-6-9-3" />
      <path
         style="fill:#ff961c;fill-opacity:1;fill-rule:evenodd;stroke:#000000;stroke-width:1;stroke-linecap:butt;stroke-linejoin:miter;stroke-dasharray:none;stroke-opacity:1"
         d="m 101.3438,-916.6291 c 0.81721,1.18965 0.87987,2.75132 0.94381,4.15456 -0.0906,1.51013 -0.33699,3.14121 -1.40303,4.29704 -0.78458,0.76937 -1.547962,1.99817 -0.86646,3.07814 0.77104,1.34977 2.69255,1.14108 3.85722,0.47669 1.27246,-0.58122 1.71152,-1.97505 1.94834,-3.24498 0.13429,-1.25268 0.73702,-2.32148 1.47017,-3.3204 0.64506,-1.30527 1.07113,-2.88969 0.69047,-4.31949 -0.14108,-0.35119 -0.28448,-0.83443 0.063,-1.12156"
         id="path7841-6-6-5" />
      <path
         style="fill:#ff961c;fill-opacity:1;fill-rule:evenodd;stroke:#000000;stroke-width:1;stroke-linecap:butt;stroke-linejoin:miter;stroke-dasharray:none;stroke-opacity:1"
         d="m 131.50961,-917.74636 c 0.37701,2.0142 0.0404,4.21726 1.15629,6.03981 0.56778,1.11292 0.94347,1.82607 1.33301,2.75344 0.86548,1.43602 1.99574,2.98334 3.73203,3.35286 0.84113,-0.0421 2.32913,0.26683 2.4783,-0.90162 0.12723,-1.46771 -1.38166,-2.33533 -1.67022,-3.69176 -0.96788,-1.31932 -1.27637,-2.98299 -1.36877,-4.58298 -0.002,-0.83089 0.0293,-1.67556 0.37847,-2.44981 0.30419,-0.0117 0.32116,-0.53057 0.66442,-0.51992"
         id="path7843-4-1-3" />
      <path
         style="fill:#ff961c;fill-opacity:1;fill-rule:evenodd;stroke:#000000;stroke-width:1;stroke-linecap:butt;stroke-linejoin:miter;stroke-dasharray:none;stroke-opacity:1"
         d="m 165.02719,-954.61569 c 0.5881,-0.53545 1.34249,-0.98267 1.58779,-1.78819 0.35287,-0.58057 0.48626,-1.22733 0.5914,-1.89165 0.081,-0.63505 0.36098,-1.16629 0.93783,-1.49064 0.57286,-0.53607 1.28928,-0.81057 2.07148,-0.81786 0.83422,-0.0472 1.24397,0.93726 1.20161,1.63875 -0.006,0.77432 0.0115,1.54856 0.0128,2.32287 -0.0784,0.37592 -0.14437,-0.14052 -0.18177,0.27502 8.5e-4,0.51127 -0.1579,0.98157 -0.15283,1.48521 -0.0985,0.51115 -0.28546,1.0039 -0.16736,1.53165 -0.23779,0.48369 -0.098,1.06234 -0.12676,1.60617 0.18578,0.36749 0.59935,1.43228 0.8165,0.68824 0.037,-0.0696 0.0736,-0.13939 0.11281,-0.20783"
         id="path7847-3-8-8" />
      <path
         style="fill:#ff961c;fill-opacity:1;fill-rule:evenodd;stroke:#000000;stroke-width:1;stroke-linecap:butt;stroke-linejoin:miter;stroke-dasharray:none;stroke-opacity:1"
         d="m 76.764237,-908.80834 c 1.157168,0.3041 0.227856,1.74543 0.430917,2.55962 0.119155,1.02564 -0.379721,1.96724 -0.339943,2.98285 -0.08782,0.96197 0.06858,1.89175 0.571979,2.72031 0.314827,0.73276 1.192926,1.48459 1.977645,0.89657 0.917767,-0.52383 1.263073,-1.57806 1.072495,-2.58928 0.02238,-1.26309 -0.05658,-2.54258 0.03353,-3.79684 0.183214,-0.36726 -0.0059,-2.47137 0.722206,-1.65603"
         id="path7851-0-0-7" />
      <path
         style="fill:#ff961c;fill-opacity:1;fill-rule:evenodd;stroke:#000000;stroke-width:1;stroke-linecap:butt;stroke-linejoin:miter;stroke-dasharray:none;stroke-opacity:1"
         d="m 159.44092,-909.92559 c 0.28199,3.2047 0.27444,6.45499 0.95262,9.61034 0.32853,0.95435 1.51534,0.80587 2.0003,0.0694 1.01985,-0.95051 0.96319,-2.43965 1.39839,-3.66912 0.10704,-1.0902 -0.14695,-2.21392 0.21408,-3.26559 -0.0351,-0.9071 0.0779,-1.79881 0.25081,-2.66681 -0.0586,-0.12213 -0.24858,-0.10641 -0.34723,-0.0786"
         id="path7853-5-2-7" />
      <path
         style="fill:#ff961c;fill-opacity:1;fill-rule:evenodd;stroke:#000000;stroke-width:1;stroke-linecap:butt;stroke-linejoin:miter;stroke-dasharray:none;stroke-opacity:1"
         d="m 99.109285,-959.0847 c -1.099748,-1.73712 -2.437512,-3.33849 -3.301567,-5.21473 -0.198128,-0.65248 0.487239,-1.27194 1.126816,-1.13025 0.747196,-0.0666 1.472231,0.22315 1.994848,0.76377 0.491799,0.38435 0.762617,0.94796 1.108858,1.44753 0.54499,0.70702 1.05481,1.44092 1.61334,2.1377 0.17131,0.31223 1.04105,0.53792 0.80941,0.87902"
         id="path7855-7-1-7" />
      <path
         style="fill:#ff961c;fill-opacity:1;fill-rule:evenodd;stroke:#000000;stroke-width:1;stroke-linecap:butt;stroke-linejoin:miter;stroke-dasharray:none;stroke-opacity:1"
         d="m 132.62686,-961.31921 c 1.42542,-0.90191 2.97052,-1.61769 4.35819,-2.57226 1.23284,-1.05871 2.2651,-2.43328 3.78874,-3.09424 0.89952,-0.29761 1.7119,0.59761 1.67839,1.46441 0.24852,0.7934 -0.361,1.29232 -0.8164,1.82266 -0.72585,0.57446 -1.5172,1.12418 -2.38243,1.44098 -0.68124,0.42949 -1.51809,0.6198 -2.09609,1.20439 -0.22917,0.24602 -0.7601,0.78906 -0.0614,0.85132"
         id="path7857-4-9-7" />
      <path
         style="fill:#ff961c;fill-opacity:1;fill-rule:evenodd;stroke:#000000;stroke-width:1;stroke-linecap:butt;stroke-linejoin:miter;stroke-dasharray:none;stroke-opacity:1"
         d="m 166.14445,-936.73965 c 1.38034,0.0178 2.76863,-0.10307 4.14331,0.0481 0.46122,0.13791 0.97852,0.0879 1.38019,0.36623 0.40774,0.23439 0.69143,0.62418 0.71509,1.12071 0.19449,0.6489 -0.63485,0.48126 -0.98845,0.57976 -0.5145,0.0943 -0.96279,0.35755 -1.45722,0.49076 -0.49058,0.14053 -0.76307,0.59316 -1.29596,0.59508 -0.31619,0.33611 -0.79772,0.14458 -1.19199,0.40695 -0.27751,0.0353 -0.81979,0.26654 -0.88101,0.21276 -0.0223,-0.22828 -0.31841,-0.2882 -0.42392,-0.46844"
         id="path7859-1-8-8" />
      <path
         style="fill:#ff961c;fill-opacity:1;fill-rule:evenodd;stroke:#000000;stroke-width:1;stroke-linecap:butt;stroke-linejoin:miter;stroke-dasharray:none;stroke-opacity:1"
         d="m 70.060722,-936.73965 c -1.380338,0.0178 -2.768622,-0.10307 -4.143309,0.0481 -0.461219,0.13791 -0.978515,0.0879 -1.380185,0.36623 -0.407743,0.23439 -0.691431,0.62418 -0.715095,1.12071 -0.194489,0.6489 0.634855,0.48126 0.988455,0.57976 0.5145,0.0943 0.962789,0.35755 1.457215,0.49076 0.490583,0.14053 0.763073,0.59316 1.29596,0.59508 0.316194,0.33611 0.797724,0.14458 1.191996,0.40695 0.277507,0.0353 0.819784,0.26654 0.881005,0.21276 0.0223,-0.22828 0.318416,-0.2882 0.423924,-0.46844"
         id="path7861-1-8-7" />
      <path
         style="fill:none;fill-rule:evenodd;stroke:#000000;stroke-width:1;stroke-linecap:butt;stroke-linejoin:miter;stroke-dasharray:none;stroke-opacity:1"
         d="m 97.992038,-943.44316 6.703512,4.46901"
         id="path7863-8-4-3" />
      <path
         style="fill:none;fill-rule:evenodd;stroke:#000000;stroke-width:1;stroke-linecap:butt;stroke-linejoin:miter;stroke-dasharray:none;stroke-opacity:1"
         d="m 128.15786,-937.8569 10.05527,-4.46901"
         id="path7865-0-8-9" />
    </g>
    <g
       id="g12360-1-3"
       transform="matrix(0.33719738,0,0,0.33719738,49.322978,158.3662)"
       style="stroke-width:1.0647;stroke-dasharray:none">
      <path
         style="fill:#5f805f;fill-opacity:1;fill-rule:evenodd;stroke:#000000;stroke-width:1.0647;stroke-linecap:butt;stroke-linejoin:miter;stroke-dasharray:none;stroke-opacity:1"
         d="m 168.01042,50.270832 c 4.04129,0.443621 8.47663,0.462598 11.90625,2.645833 6.10116,3.883892 6.01188,16.729204 13.22916,17.197916 1.24464,0.08083 2.35928,-1.431939 2.64584,-2.645833 0.96116,-4.071518 -3.85268,-7.724431 -3.96875,-11.90625 -0.1395,-5.025921 1.92412,-9.958735 3.96875,-14.552083 2.98457,-6.704981 9.72832,-11.512189 11.90625,-18.520833 4.18953,-13.4820527 4.56006,-28.5914713 1.32291,-42.333333 -1.49289,-6.33741 -4.2607,-13.027256 -9.26041,-17.197916 -13.17153,-10.987429 -31.79529,-15.875 -48.94792,-15.874999 -17.15263,0 -35.77639,4.887572 -48.94792,15.875 -4.999711,4.17066 -7.767519,10.860505 -9.260414,17.197916 -3.237151,13.7418617 -2.866615,28.8512804 1.322916,42.333333 2.177927,7.008643 8.921678,11.815852 11.906248,18.520833 2.04463,4.593348 4.10825,9.526162 3.96875,14.552083 -0.11607,4.181819 -4.92991,7.834732 -3.96875,11.90625 0.28656,1.213894 1.4012,2.726664 2.64584,2.645833 7.21728,-0.468712 7.128,-13.314024 13.22916,-17.197916 3.42962,-2.183235 7.86496,-2.202212 11.90625,-2.645833 5.69841,-0.625527 11.46528,0 17.19792,-1e-6 5.73264,0 11.49951,-0.625527 17.19792,0 z"
         id="path10571-0-9"
         sodipodi:nodetypes="sssssssssssssssssssss" />
      <path
         style="fill:#e0e19a;fill-opacity:1;fill-rule:evenodd;stroke:#000000;stroke-width:1.0647;stroke-linecap:butt;stroke-linejoin:miter;stroke-dasharray:none;stroke-opacity:1"
         d="M 148.16666,0 C 139.17621,-6.9951618 127.99742,-2.3470229 115.09375,-2.6458333 95.232956,-3.1057499 72.77641,-4.4254988 59.53125,6.6145833 53.285314,11.820685 55.5625,30.427083 55.5625,30.427083 c 0,0 3.11368,-14.242645 9.260416,-15.874999 3.812044,-1.012344 11.90625,3.968749 11.90625,3.968749 0,0 1.274564,-4.77359 3.968751,-6.614583 1.890339,-1.291708 5.00267,0.215864 6.614583,0 2.167593,-0.29028 6.557114,-1.032721 9.260417,0 2.855551,1.090883 3.968753,5.291667 3.968753,5.291667 0,0 2.18,-7.2822809 5.29166,-7.9375003 8.90315,-1.8747282 17.3997,1.5602723 25.13541,5.2916673 3.37019,1.625644 5.47996,6.927463 9.26042,6.614582 3.72902,-0.308624 6.50559,-4.480551 7.9375,-7.937499 1.35002,-3.2592418 0,-7.0555558 0,-10.5833337 0,-0.8819444 0.69607,-2.10424675 0,-2.6458333 z"
         id="path9831-2-5"
         sodipodi:nodetypes="ssscscssscssssss" />
      <path
         style="fill:#e0e19a;fill-opacity:1;fill-rule:evenodd;stroke:#000000;stroke-width:1.0647;stroke-linecap:butt;stroke-linejoin:miter;stroke-dasharray:none;stroke-opacity:1"
         d="m 153.45833,0 c 8.99045,-6.9951618 20.16924,-2.3470229 33.07291,-2.6458333 19.8608,-0.4599166 42.31734,-1.7796655 55.5625,9.2604166 6.24594,5.2061017 3.96875,23.8124997 3.96875,23.8124997 0,0 -3.11368,-14.242645 -9.26041,-15.874999 -3.81205,-1.012344 -11.90625,3.968749 -11.90625,3.968749 0,0 -1.27457,-4.77359 -3.96875,-6.614583 -1.89034,-1.291708 -5.00267,0.215864 -6.61459,0 -2.16759,-0.29028 -6.55711,-1.032721 -9.26041,0 -2.85555,1.090883 -3.96876,5.291667 -3.96876,5.291667 0,0 -2.18,-7.2822809 -5.29166,-7.9375003 -8.90315,-1.8747282 -17.3997,1.5602723 -25.13541,5.2916673 -3.37019,1.625644 -5.47996,6.927463 -9.26042,6.614582 -3.72902,-0.308624 -6.50559,-4.480551 -7.9375,-7.937499 -1.35002,-3.2592418 0,-7.0555558 0,-10.5833337 0,-0.8819444 -0.69607,-2.10424675 0,-2.6458333 z"
         id="path9833-6-8"
         sodipodi:nodetypes="ssscscssscssssss" />
      <path
         style="fill:#8e5027;fill-opacity:1;fill-rule:evenodd;stroke:#000000;stroke-width:1.0647;stroke-linecap:butt;stroke-linejoin:miter;stroke-dasharray:none;stroke-opacity:1"
         d="m 138.90625,-29.104166 c 0,0 -3.65661,-6.103481 -5.29167,-9.260417 -3.35701,-6.481629 -3.10359,-15.922698 -9.26041,-19.84375 -1.11584,-0.710638 -3.03331,-0.935443 -3.96875,0 -0.31181,0.311815 -0.0539,0.885249 0,1.322917 1.11075,9.022762 7.60655,17.42174 6.61458,26.458333 -0.21519,1.960312 -2.64583,6.614583 -2.64583,6.614583 5.53659,22.454518 24.36482,2.668383 14.55208,-5.291666 z"
         id="path10567-6-4"
         sodipodi:nodetypes="cssssscc" />
      <path
         style="fill:#8e5027;fill-opacity:1;fill-rule:evenodd;stroke:#000000;stroke-width:1.0647;stroke-linecap:butt;stroke-linejoin:miter;stroke-dasharray:none;stroke-opacity:1"
         d="m 161.49063,-29.104166 c 0,0 3.65661,-6.103481 5.29167,-9.260417 3.35701,-6.481629 3.10359,-15.922698 9.26041,-19.84375 1.11584,-0.710638 3.03331,-0.935443 3.96875,0 0.31181,0.311815 0.0539,0.885249 0,1.322917 -1.11075,9.022762 -7.60655,17.42174 -6.61458,26.458333 0.21519,1.960312 2.55104,6.614583 2.55104,6.614583 -10.78557,11.950193 -15.97465,11.036728 -14.45729,-5.291666 z"
         id="path11982-1-3"
         sodipodi:nodetypes="cssssscc" />
      <path
         style="fill:#a05a2c;fill-rule:evenodd;stroke:#000000;stroke-width:1.0647;stroke-linecap:butt;stroke-linejoin:miter;stroke-dasharray:none;stroke-opacity:1"
         d="M 124.35417,-7.9374999 C 109.26392,-15.433565 96.117134,-29.295554 89.958332,-44.979166 c -0.967099,-2.462753 -1.870887,-6.066613 0,-7.9375 1.247258,-1.247258 3.821481,-0.974606 5.291667,0 C 106.42445,-45.50897 112.1049,-25.48014 127,-23.8125 c 6.67498,0.747325 9.35852,-1.125324 13.22917,-6.614583 8.14773,-11.554904 0.13269,-31.867004 7.93749,-43.656249 0.54432,-0.822196 1.65979,-1.322918 2.64584,-1.322918 0.98605,0 2.10152,0.500722 2.64584,1.322918 7.8048,11.789245 2.64583,31.749999 6.61458,42.333332 2.35839,6.289027 7.93054,9.064096 14.55207,7.9375 14.15362,-2.408116 18.36962,-23.899418 31.75,-29.104166 1.6439,-0.639451 4.04441,-1.247259 5.29167,0 1.87089,1.870887 0.9671,5.474747 0,7.9375 -6.1588,15.683612 -19.30559,29.545601 -34.39584,37.0416661 -7.93799,3.9431868 -17.59489,2.6458331 -26.45832,2.6458333 -8.86343,2e-7 -18.52034,1.297355 -26.45833,-2.6458333 z"
         id="path10563-7-4"
         sodipodi:nodetypes="sssssssssssssssss" />
      <path
         style="fill:#800000;fill-rule:evenodd;stroke:#000000;stroke-width:1.0647;stroke-linecap:butt;stroke-linejoin:miter;stroke-dasharray:none;stroke-opacity:1"
         d="m 142.875,37.041666 c -3.1793,-0.445276 -6.66742,-0.753068 -9.26042,-2.645833 -3.85263,-2.812235 -9.16177,-7.296198 -7.9375,-11.90625 0.25309,-0.953013 1.68617,-1.096371 2.64584,-1.322917 0.85835,-0.202629 1.76611,-0.06252 2.64583,0 3.1103,0.221042 6.14641,1.483557 9.26041,1.322917 3.63152,-0.187337 6.94699,-2.645833 10.58334,-2.645833 3.63635,0 6.95182,2.458496 10.58334,2.645833 3.114,0.16064 6.15011,-1.101875 9.26041,-1.322917 0.87972,-0.06252 1.78748,-0.202629 2.64583,0 0.95967,0.226546 2.39275,0.369904 2.64584,1.322917 1.22427,4.610052 -4.08487,9.094015 -7.9375,11.90625 -2.593,1.892765 -6.08112,2.200557 -9.26042,2.645833 -2.62026,0.36698 -5.29167,0 -7.9375,0 -2.64583,0 -5.31724,0.36698 -7.9375,0 z"
         id="path10573-1-7"
         sodipodi:nodetypes="sssssssssssssss" />
      <ellipse
         style="fill:#ff961c;fill-opacity:1;stroke:#000000;stroke-width:1.0647;stroke-linecap:round;stroke-linejoin:round;stroke-dasharray:none"
         id="ellipse11441-7-4"
         cx="130.3073"
         cy="24.473959"
         rx="3.3072915"
         ry="1.984375" />
      <ellipse
         style="fill:#ff961c;fill-opacity:1;stroke:#000000;stroke-width:1.0647;stroke-linecap:round;stroke-linejoin:round;stroke-dasharray:none"
         id="ellipse11443-0-1"
         cx="137.58333"
         cy="25.796875"
         rx="2.6458333"
         ry="3.3072915" />
      <circle
         style="fill:#ff961c;fill-opacity:1;stroke:#000000;stroke-width:1.0647;stroke-linecap:round;stroke-linejoin:round;stroke-dasharray:none"
         id="circle11445-1-3"
         cx="132.95312"
         cy="29.765625"
         r="1.984375" />
      <ellipse
         style="fill:#ff961c;fill-opacity:1;stroke:#000000;stroke-width:1.0647;stroke-linecap:round;stroke-linejoin:round;stroke-dasharray:none"
         id="ellipse11447-0-7"
         cx="141.68225"
         cy="-0.10491941"
         rx="2.6458333"
         ry="1.984375"
         transform="rotate(13.461733)" />
      <ellipse
         style="fill:#ff961c;fill-opacity:1;stroke:#000000;stroke-width:1.0647;stroke-linecap:round;stroke-linejoin:round;stroke-dasharray:none"
         id="ellipse11449-4-6"
         cx="137.95381"
         cy="56.144386"
         rx="3.1027071"
         ry="1.9772156"
         transform="rotate(-12.990799)" />
      <ellipse
         style="fill:#ff961c;fill-opacity:1;stroke:#000000;stroke-width:1.0647;stroke-linecap:round;stroke-linejoin:round;stroke-dasharray:none"
         id="ellipse11451-4-6"
         cx="125.577"
         cy="82.431992"
         rx="3.1331263"
         ry="2.0684717"
         transform="rotate(-21.989483)" />
      <ellipse
         style="fill:#ff961c;fill-opacity:1;stroke:#000000;stroke-width:1.0647;stroke-linecap:round;stroke-linejoin:round;stroke-dasharray:none"
         id="ellipse11453-4-0"
         cx="145.11148"
         cy="34.644245"
         rx="3.7110815"
         ry="1.8251221" />
      <ellipse
         style="fill:#ff961c;fill-opacity:1;stroke:#000000;stroke-width:1.0647;stroke-linecap:round;stroke-linejoin:round;stroke-dasharray:none"
         id="ellipse11455-1-9"
         cx="145.00426"
         cy="4.0826578"
         rx="1.5209351"
         ry="3.1027071"
         transform="rotate(9.7085568)" />
      <g
         id="g11481-2-7"
         transform="translate(24.209375)"
         style="stroke-width:1.0647;stroke-dasharray:none">
        <ellipse
           style="fill:#ff961c;fill-opacity:1;stroke:#000000;stroke-width:1.0647;stroke-linecap:round;stroke-linejoin:round;stroke-dasharray:none"
           id="ellipse11457-9-1"
           cx="-147.00623"
           cy="24.473959"
           rx="3.3072915"
           ry="1.984375"
           transform="scale(-1,1)" />
        <ellipse
           style="fill:#ff961c;fill-opacity:1;stroke:#000000;stroke-width:1.0647;stroke-linecap:round;stroke-linejoin:round;stroke-dasharray:none"
           id="ellipse11459-7-4"
           cx="-139.73019"
           cy="25.796875"
           rx="2.6458333"
           ry="3.3072915"
           transform="scale(-1,1)" />
        <circle
           style="fill:#ff961c;fill-opacity:1;stroke:#000000;stroke-width:1.0647;stroke-linecap:round;stroke-linejoin:round;stroke-dasharray:none"
           id="circle11461-2-3"
           cx="-144.3604"
           cy="29.765625"
           r="1.984375"
           transform="scale(-1,1)" />
        <ellipse
           style="fill:#ff961c;fill-opacity:1;stroke:#000000;stroke-width:1.0647;stroke-linecap:round;stroke-linejoin:round;stroke-dasharray:none"
           id="ellipse11463-2-0"
           cx="-128.01225"
           cy="64.45253"
           rx="2.6458333"
           ry="1.984375"
           transform="matrix(-0.97252562,0.23279588,0.23279588,0.97252562,0,0)" />
        <ellipse
           style="fill:#ff961c;fill-opacity:1;stroke:#000000;stroke-width:1.0647;stroke-linecap:round;stroke-linejoin:round;stroke-dasharray:none"
           id="ellipse11465-6-8"
           cx="-132.26219"
           cy="-6.1941905"
           rx="3.1027071"
           ry="1.9772156"
           transform="matrix(-0.97440618,-0.22479458,-0.22479458,0.97440618,0,0)" />
        <ellipse
           style="fill:#ff961c;fill-opacity:1;stroke:#000000;stroke-width:1.0647;stroke-linecap:round;stroke-linejoin:round;stroke-dasharray:none"
           id="ellipse11467-45-1"
           cx="-131.56268"
           cy="-21.404285"
           rx="3.1331263"
           ry="2.0684717"
           transform="matrix(-0.9272526,-0.3744364,-0.3744364,0.9272526,0,0)" />
        <ellipse
           style="fill:#ff961c;fill-opacity:1;stroke:#000000;stroke-width:1.0647;stroke-linecap:round;stroke-linejoin:round;stroke-dasharray:none"
           id="ellipse11469-8-1"
           cx="-132.20204"
           cy="34.644245"
           rx="3.7110815"
           ry="1.8251221"
           transform="scale(-1,1)" />
        <ellipse
           style="fill:#ff961c;fill-opacity:1;stroke:#000000;stroke-width:1.0647;stroke-linecap:round;stroke-linejoin:round;stroke-dasharray:none"
           id="ellipse11471-85-6"
           cx="-128.33766"
           cy="50.847862"
           rx="1.5209351"
           ry="3.1027071"
           transform="matrix(-0.9856783,0.16863659,0.16863659,0.9856783,0,0)" />
      </g>
      <ellipse
         style="fill:#ff961c;fill-opacity:1;stroke:#000000;stroke-width:1.0647;stroke-linecap:round;stroke-linejoin:round;stroke-dasharray:none"
         id="path11483-0-6"
         cx="150.76289"
         cy="33.420181"
         rx="1.1740885"
         ry="1.7694011" />
      <g
         id="g11767-1-6"
         style="stroke-width:1.0647;stroke-dasharray:none">
        <ellipse
           style="fill:#ffffff;fill-opacity:1;stroke:#000000;stroke-width:1.0647;stroke-linecap:round;stroke-linejoin:round;stroke-dasharray:none"
           id="path11761-1-6"
           cx="106.59377"
           cy="-11.22532"
           rx="7.7174077"
           ry="4.911078" />
        <ellipse
           style="fill:#000000;fill-opacity:1;stroke:#000000;stroke-width:1.0647;stroke-linecap:round;stroke-linejoin:round;stroke-dasharray:none"
           id="path11763-9-8"
           cx="106.61715"
           cy="-11.014846"
           rx="2.1749058"
           ry="2.0813613" />
      </g>
      <g
         id="g11773-7-5"
         transform="translate(88.9)"
         style="stroke-width:1.0647;stroke-dasharray:none">
        <ellipse
           style="fill:#ffffff;fill-opacity:1;stroke:#000000;stroke-width:1.0647;stroke-linecap:round;stroke-linejoin:round;stroke-dasharray:none"
           id="ellipse11769-6-4"
           cx="106.59377"
           cy="-11.22532"
           rx="7.7174077"
           ry="4.911078" />
        <ellipse
           style="fill:#000000;fill-opacity:1;stroke:#000000;stroke-width:1.0647;stroke-linecap:round;stroke-linejoin:round;stroke-dasharray:none"
           id="ellipse11771-5-9"
           cx="106.61715"
           cy="-11.014846"
           rx="2.1749058"
           ry="2.0813613" />
      </g>
    </g>
    <g
       id="g19149-4-4"
       transform="matrix(0.31241188,0,0,0.31241188,-306.5578,330.63426)"
       style="stroke-width:1.14917;stroke-dasharray:none">
      <g
         id="g12392-5-6"
         transform="translate(890.32292,-390.26042)"
         style="stroke-width:1.14917;stroke-dasharray:none">
        <path
           style="fill:#ffd5d5;fill-rule:evenodd;stroke:#000000;stroke-width:1.14917;stroke-linecap:butt;stroke-linejoin:miter;stroke-dasharray:none;stroke-opacity:1"
           d="m 239.44791,-120.38542 c 0,0 -1.38354,7.11679 -3.96875,9.26042 -3.12962,2.59504 -10.28925,0.14383 -13.49375,2.64583 -3.88603,3.03412 -0.7113,10.517127 -4.49791,13.229171 -0.28681,0.205416 -0.77153,0.205416 -1.05834,0 -3.78661,-2.712044 -0.61188,-10.195051 -4.49791,-13.229171 -3.2045,-2.502 -10.36413,-0.0508 -13.49375,-2.64583 -2.58521,-2.14363 -3.96875,-9.26042 -3.96875,-9.26042 l 17.19792,-26.45833 H 222.25 Z"
           id="path12362-1-7"
           sodipodi:nodetypes="cssssssc" />
        <path
           style="fill:#ffe680;fill-opacity:1;fill-rule:evenodd;stroke:#000000;stroke-width:1.14917;stroke-linecap:butt;stroke-linejoin:miter;stroke-dasharray:none;stroke-opacity:1"
           d="m 256.64583,-133.61458 c 0,0 0.63037,6.82988 -1.32292,9.26041 -2.36017,2.93682 -6.87612,3.2965 -10.58333,3.96875 -3.03727,0.55076 -6.34069,1.00178 -9.26042,0 -4.75571,-1.63172 -9.0648,-5.11246 -11.90625,-9.26041 -2.60185,-3.79818 -3.96875,-13.22917 -3.96875,-13.22917 l 1.32292,-11.90625 29.10417,-1.32291 11.90625,17.19791 z"
           id="path12364-0-2"
           sodipodi:nodetypes="cssssccccc" />
        <path
           style="fill:#ffe680;fill-opacity:1;fill-rule:evenodd;stroke:#000000;stroke-width:1.14917;stroke-linecap:butt;stroke-linejoin:miter;stroke-dasharray:none;stroke-opacity:1"
           d="m 177.27083,-133.61458 c 0,0 -0.63037,6.82988 1.32292,9.26041 2.36017,2.93682 6.87612,3.2965 10.58333,3.96875 3.03727,0.55076 6.34069,1.00178 9.26042,0 4.75571,-1.63172 9.0648,-5.11246 11.90625,-9.26041 2.60185,-3.79818 3.96875,-13.22917 3.96875,-13.22917 l -1.32292,-11.90625 -29.10417,-1.32291 -11.90625,17.19791 z"
           id="path12366-9-3"
           sodipodi:nodetypes="cssssccccc" />
        <path
           style="fill:#ffb380;fill-rule:evenodd;stroke:#000000;stroke-width:1.14917;stroke-linecap:butt;stroke-linejoin:miter;stroke-dasharray:none;stroke-opacity:1"
           d="m 164.04167,-185.20833 c 0,0 0.0404,23.21484 -2.64584,34.39583 -2.67832,11.14806 -13.62382,20.29152 -13.22917,31.75 0.20365,5.91276 2.15897,14.60582 7.9375,15.875 5.51573,1.21146 9.77955,-6.1122 13.22917,-10.58333 5.30597,-6.87719 5.34638,-16.8826 10.58333,-23.8125 4.15296,-5.49549 9.39821,-10.88425 15.875,-13.22917 3.31707,-1.20095 13.22917,0 13.22917,0 l -1.32291,-34.39583 z"
           id="path12368-8-6"
           sodipodi:nodetypes="cssssssc" />
        <g
           id="g12374-0-5"
           transform="matrix(0.81247435,0,0,0.81247435,194.46109,-12.424768)"
           style="stroke-width:1.41441;stroke-dasharray:none">
          <ellipse
             style="fill:#ffffff;fill-opacity:1;stroke:#000000;stroke-width:1.41441;stroke-linecap:round;stroke-linejoin:round;stroke-dasharray:none"
             id="ellipse12370-4-7"
             cx="-3.2694092"
             cy="-188.07706"
             rx="5.5063729"
             ry="5.8505216" />
          <circle
             style="fill:#000000;stroke:#000000;stroke-width:1.41441;stroke-linecap:round;stroke-linejoin:round;stroke-dasharray:none"
             id="circle12372-6-1"
             cx="-3.5275202"
             cy="-187.90498"
             r="1.3335747" />
        </g>
        <path
           style="fill:#ffb380;fill-rule:evenodd;stroke:#000000;stroke-width:1.14917;stroke-linecap:butt;stroke-linejoin:miter;stroke-dasharray:none;stroke-opacity:1"
           d="m 269.875,-185.20833 c 0,0 -0.0404,23.21484 2.64584,34.39583 2.67832,11.14806 13.62382,20.29152 13.22917,31.75 -0.20365,5.91276 -2.15897,14.60582 -7.9375,15.875 -5.51573,1.21146 -9.77955,-6.1122 -13.22917,-10.58333 -5.30597,-6.87719 -5.34638,-16.8826 -10.58333,-23.8125 -4.15296,-5.49549 -9.39821,-10.88425 -15.875,-13.22917 -3.31707,-1.20095 -13.22917,0 -13.22917,0 l 1.32291,-34.39583 z"
           id="path12376-3-6"
           sodipodi:nodetypes="cssssssc" />
        <g
           id="g12382-9-0"
           transform="matrix(0.81247435,0,0,0.81247435,246.52211,-12.696604)"
           style="stroke-width:1.41441;stroke-dasharray:none">
          <ellipse
             style="fill:#ffffff;fill-opacity:1;stroke:#000000;stroke-width:1.41441;stroke-linecap:round;stroke-linejoin:round;stroke-dasharray:none"
             id="ellipse12378-7-8"
             cx="-3.2694092"
             cy="-188.07706"
             rx="5.5063729"
             ry="5.8505216" />
          <circle
             style="fill:#000000;stroke:#000000;stroke-width:1.41441;stroke-linecap:round;stroke-linejoin:round;stroke-dasharray:none"
             id="circle12380-0-1"
             cx="-3.5275202"
             cy="-187.90498"
             r="1.3335747" />
        </g>
        <path
           style="fill:#ffd5d5;fill-opacity:1;fill-rule:evenodd;stroke:#000000;stroke-width:1.14917;stroke-linecap:butt;stroke-linejoin:miter;stroke-dasharray:none;stroke-opacity:1"
           d="m 231.51041,-181.23958 c 0,0 -0.87483,38.36458 -14.55208,38.36458 -13.67725,0 -14.55208,-38.36458 -14.55208,-38.36458 l 5.29167,-29.10417 h 19.84375 z"
           id="path12384-3-7"
           sodipodi:nodetypes="csc" />
        <path
           style="fill:#333333;fill-rule:evenodd;stroke:#000000;stroke-width:1.14917;stroke-linecap:butt;stroke-linejoin:miter;stroke-dasharray:none;stroke-opacity:1"
           d="m 186.53125,-227.54167 c 0,0 14.17331,-4.19548 15.50603,-6.56353 2.73044,-4.85159 7.09188,-13.13839 8.30647,-18.57188 1.25059,-5.59457 -0.33548,-11.4751 0,-17.19792 0.44173,-7.53529 -2.18622,-16.6907 2.64583,-22.48958 0.9599,-1.15196 2.80001,-1.32292 4.29948,-1.32292 1.49947,0 3.33958,0.17096 4.29948,1.32292 4.83205,5.79888 2.2041,14.95429 2.64583,22.48958 0.33548,5.72282 -1.25059,11.60335 0,17.19792 1.20966,5.41145 5.54069,13.65309 8.27315,18.51266 1.35027,2.4014 17.52373,6.62275 17.52373,6.62275 l -25.66458,19.84375 c -0.0352,0.0836 -0.0708,0.16631 -0.10667,0.24815 -3.42891,7.81545 -9.99685,7.6071 -14.71,-0.24815 l -23.01875,-19.84375"
           id="path12386-9-1"
           sodipodi:nodetypes="csssssssssccscc" />
        <path
           style="fill:#ffe680;fill-rule:evenodd;stroke:#000000;stroke-width:1.14917;stroke-linecap:butt;stroke-linejoin:miter;stroke-dasharray:none;stroke-opacity:1"
           d="m 186.53125,-227.54167 c 13.14594,0.33587 23.13395,13.78651 23.8125,23.81251 0.23821,3.51972 1.20094,7.26626 0,10.58333 -2.34492,6.47678 -6.1339,12.11637 -11.90625,15.875 -2.69027,1.75175 -6.05272,2.516 -9.26042,2.64583 -6.74006,0.2728 -13.89635,-0.7858 -19.84375,-3.96875 -2.74919,-1.47132 -5.5663,-3.67793 -6.61458,-6.61458 -1.48988,-4.17377 1.32291,-13.22917 1.32291,-13.22917 3.18772,-13.30834 9.03725,-24.38845 22.48959,-29.10417 z"
           id="path12388-2-2"
           sodipodi:nodetypes="csssssscc" />
        <path
           style="fill:#ffe680;fill-rule:evenodd;stroke:#000000;stroke-width:1.14917;stroke-linecap:butt;stroke-linejoin:miter;stroke-dasharray:none;stroke-opacity:1"
           d="m 247.38541,-227.54167 c -13.14594,0.33587 -23.13395,13.78651 -23.8125,23.81251 -0.23821,3.51972 -1.20094,7.26626 0,10.58333 2.34492,6.47678 6.1339,12.11637 11.90625,15.875 2.69027,1.75175 6.05272,2.516 9.26042,2.64583 6.74006,0.2728 13.89635,-0.7858 19.84375,-3.96875 2.74919,-1.47132 5.5663,-3.67793 6.61458,-6.61458 1.48988,-4.17377 -1.32291,-13.22917 -1.32291,-13.22917 -3.18772,-13.30834 -9.03725,-24.38845 -22.48959,-29.10417 z"
           id="path12390-2-5"
           sodipodi:nodetypes="csssssscc" />
      </g>
      <path
         style="fill:none;fill-rule:evenodd;stroke:#000000;stroke-width:1.14917;stroke-linecap:butt;stroke-linejoin:miter;stroke-dasharray:none;stroke-opacity:1"
         d="m 1103.3125,-527.84374 h 7.9375"
         id="path19058-4-4" />
      <path
         style="fill:#000000;fill-opacity:1;stroke:none;stroke-width:4.34332;stroke-linecap:round;stroke-linejoin:round;stroke-dasharray:none"
         d="m 4176.3154,-2015.5801 c -1.6718,2.3915 -1.1083,5.9713 -2.0591,8.7285 -0.5679,3.56 -1.645,7.2461 -1.9458,10.7393 8.4473,0.5417 17.0643,0.614 25.4659,-0.017 -1.3511,-6.389 -2.1624,-12.9681 -3.8116,-19.2568 -1.8285,-0.3458 -4.0251,0.8975 -6.0068,0.8281 -3.8855,0.346 -7.9097,0.072 -11.6426,-1.0225 z"
         id="path19060-6-3"
         transform="scale(0.26458333)" />
    </g>
    <g
       id="g19440-5-7"
       transform="matrix(0.35901408,0,0,0.35901408,248.08704,368.06273)"
       style="stroke-width:1;stroke-dasharray:none">
      <path
         id="path13100-0-2-8"
         style="fill:#691a1a;fill-opacity:1;fill-rule:evenodd;stroke:#000000;stroke-width:1;stroke-linecap:butt;stroke-linejoin:miter;stroke-dasharray:none;stroke-opacity:1"
         d="m -155.25752,-650.752 c 1.85495,-0.0613 3.52805,1.68702 2.26549,4.02766 -2.20283,5.69532 -6.79191,10.0598 -11.7693,13.40383 -3.09386,1.55202 -4.7321,4.65314 -6.71691,7.32048 -2.11927,2.04773 -3.11843,4.82178 -3.56412,7.67912 l -0.52658,-1.29605 c 0.28185,2.27358 0.44729,4.5246 0.50901,6.67763 0.52766,18.40796 -12.64071,40.74272 -26.45833,52.91667 -8.05045,7.09282 -21.16667,5.29166 -21.16667,5.29166 0,0 -13.11622,1.80116 -21.16667,-5.29166 -13.81762,-12.17395 -26.98599,-34.50871 -26.45833,-52.91667 0.0539,-1.87953 0.18362,-3.83365 0.40256,-5.81205 -0.4775,-2.70408 -1.4791,-5.30393 -3.49178,-7.24865 -1.98481,-2.66734 -3.62253,-5.76846 -6.71638,-7.32048 -4.9774,-3.34403 -9.56647,-7.70852 -11.76931,-13.40383 -1.83645,-3.40456 2.53766,-5.55605 4.64881,-2.70784 2.39769,2.63792 5.91729,3.9851 8.51989,6.4456 2.62876,1.59909 5.09416,3.73599 8.12147,4.4881 2.9028,0.53 6.11596,0.33152 8.46047,-1.59939 0.60697,-0.72749 1.25545,-1.41392 1.94717,-2.05414 0.0269,-0.0388 0.0544,-0.077 0.0806,-0.11627 l -0.0274,0.0677 c 0.1354,-0.12446 0.26847,-0.25123 0.40721,-0.37207 9.52203,-8.29368 24.54293,-5.82084 37.04167,-5.82084 12.49873,0 27.51964,-2.47284 37.04167,5.82084 0.42259,0.36808 0.82657,0.7563 1.21853,1.15703 l -0.34624,-0.85266 c 0.45909,0.68668 1.01811,1.30489 1.649,1.83761 2.36878,2.24104 5.77755,2.49131 8.83977,1.93219 3.02732,-0.75211 5.49271,-2.88901 8.12147,-4.4881 2.60261,-2.4605 6.12169,-3.80768 8.51938,-6.4456 0.65973,-0.89006 1.54067,-1.29197 2.38383,-1.31983 z"
         sodipodi:nodetypes="scccccsscsscccccccccccsssccccccs" />
      <path
         style="fill:#000000;fill-rule:evenodd;stroke:#000000;stroke-width:1;stroke-linecap:butt;stroke-linejoin:miter;stroke-dasharray:none;stroke-opacity:1"
         d="m -226.16245,-601.03307 c 2.01882,-1.7102 5.91868,-1.7102 7.9375,0 2.04667,1.73379 2.14151,5.38313 1.32292,7.9375 -0.57095,1.78164 -2.24028,3.25279 -3.96875,3.96875 -0.81481,0.33751 -1.83103,0.33751 -2.64584,0 -1.72847,-0.71596 -3.3978,-2.18711 -3.96875,-3.96875 -0.81859,-2.55437 -0.72375,-6.20371 1.32292,-7.9375 z"
         id="path13104-4-4-2"
         sodipodi:nodetypes="sssssss" />
      <path
         style="fill:#551515;fill-opacity:1;fill-rule:evenodd;stroke:#000000;stroke-width:1;stroke-linecap:butt;stroke-linejoin:miter;stroke-dasharray:none;stroke-opacity:1"
         d="m -249.44385,-635.53331 c 1.64807,-2.29025 0.91957,-5.39775 0.56615,-7.9818 -0.51206,-3.55618 -2.04661,-6.7877 -3.65822,-9.95158 -1.14413,-2.45589 -2.39054,-4.89579 -2.78883,-7.59916 -1.12027,-2.99029 1.58337,-5.74319 4.59494,-4.98606 2.97296,-0.0158 4.42012,2.92087 5.69163,5.14256 1.30356,2.44225 2.56835,4.89666 3.45812,7.52438 1.03901,2.20841 2.16538,4.37746 3.31707,6.5416 1.662,2.36888 2.2964,5.70722 4.97053,7.21883 l 0.31242,0.34945"
         id="path13118-6-1-2" />
      <path
         style="fill:#551515;fill-opacity:1;fill-rule:evenodd;stroke:#000000;stroke-width:1;stroke-linecap:butt;stroke-linejoin:miter;stroke-dasharray:none;stroke-opacity:1"
         d="m -194.94356,-635.53331 c -1.64807,-2.29025 -0.91957,-5.39775 -0.56615,-7.9818 0.51206,-3.55618 2.04661,-6.7877 3.65822,-9.95158 1.14413,-2.45589 2.39054,-4.89579 2.78883,-7.59916 1.12027,-2.99029 -1.58337,-5.74319 -4.59494,-4.98606 -2.97296,-0.0158 -4.42012,2.92087 -5.69163,5.14256 -1.30356,2.44225 -2.56835,4.89666 -3.45812,7.52438 -1.03901,2.20841 -2.16538,4.37746 -3.31707,6.5416 -1.662,2.36888 -2.2964,5.70722 -4.97053,7.21883 l -0.31242,0.34945"
         id="path13120-5-6-9" />
      <g
         id="g13134-06-8-4"
         transform="matrix(1.2287223,0.70856778,-0.70856778,1.2287223,664.68573,228.44783)"
         inkscape:transform-center-x="1.064663"
         inkscape:transform-center-y="-1.3268305"
         style="stroke-width:0.705025;stroke-dasharray:none">
        <path
           style="fill:#ffffff;fill-rule:evenodd;stroke:#000000;stroke-width:0.705025;stroke-linecap:butt;stroke-linejoin:miter;stroke-dasharray:none;stroke-opacity:1"
           d="m -853.28125,-193.14583 c 0,0 3.77405,-2.67726 5.34864,-2.64246 1.52608,0.0337 5.23469,2.64246 5.23469,2.64246 0,0 -3.77471,2.70675 -5.375,2.68957 -1.60583,-0.0172 -5.20833,-2.68957 -5.20833,-2.68957 z"
           id="path13123-4-3-8"
           sodipodi:nodetypes="cscsc" />
        <ellipse
           style="fill:#000000;fill-opacity:1;stroke:#808000;stroke-width:0.705025;stroke-linecap:round;stroke-linejoin:round;stroke-dasharray:none"
           id="path13125-4-3-3"
           cx="-847.98956"
           cy="-193.14583"
           rx="1.8520629"
           ry="1.7249494" />
      </g>
      <g
         id="g13140-2-2-5"
         transform="matrix(-1.2287223,0.70856778,0.70856778,1.2287223,-1104.6784,228.44783)"
         inkscape:transform-center-x="-1.0647036"
         inkscape:transform-center-y="-1.3268305"
         style="stroke-width:0.705025;stroke-dasharray:none">
        <path
           style="fill:#ffffff;fill-rule:evenodd;stroke:#000000;stroke-width:0.705025;stroke-linecap:butt;stroke-linejoin:miter;stroke-dasharray:none;stroke-opacity:1"
           d="m -853.28125,-193.14583 c 0,0 3.77405,-2.67726 5.34864,-2.64246 1.52608,0.0337 5.23469,2.64246 5.23469,2.64246 0,0 -3.77471,2.70675 -5.375,2.68957 -1.60583,-0.0172 -5.20833,-2.68957 -5.20833,-2.68957 z"
           id="path13136-71-8-6"
           sodipodi:nodetypes="cscsc" />
        <ellipse
           style="fill:#000000;fill-opacity:1;stroke:#808000;stroke-width:0.705025;stroke-linecap:round;stroke-linejoin:round;stroke-dasharray:none"
           id="ellipse13138-83-8-8"
           cx="-847.98956"
           cy="-193.14583"
           rx="1.8520629"
           ry="1.7249494" />
      </g>
      <path
         style="fill:#441414;fill-opacity:1;fill-rule:evenodd;stroke:#000000;stroke-width:1;stroke-linecap:butt;stroke-linejoin:miter;stroke-dasharray:none;stroke-opacity:1"
         d="m -223.90893,-576.85156 3.00253,51.08114 c 0,0 1.37763,5.40509 3.57674,5.56413 2.19912,0.15902 4.34008,-4.99163 4.34008,-4.99163 l -1.32292,-51.59375"
         id="path13198-65-2-1"
         sodipodi:nodetypes="ccscc" />
      <path
         style="fill:#441414;fill-opacity:1;fill-rule:evenodd;stroke:#000000;stroke-width:1;stroke-linecap:butt;stroke-linejoin:miter;stroke-dasharray:none;stroke-opacity:1"
         d="m -223.57292,-574.14583 0.0334,49.30539 c 0,0 -1.7973,5.28042 -4.00212,5.26649 -2.20481,-0.0139 -3.93523,-5.31665 -3.93523,-5.31665 l -2.46106,-50.27013"
         id="path13200-2-8-0"
         sodipodi:nodetypes="ccscc" />
      <path
         style="fill:#571616;fill-opacity:1;fill-rule:evenodd;stroke:#000000;stroke-width:1;stroke-linecap:butt;stroke-linejoin:miter;stroke-dasharray:none;stroke-opacity:1"
         d="m -223.57292,-579.4375 c -3.06663,17.32084 -6.59419,34.73224 -1.32291,50.41483 0,0 -1.75544,5.29448 -3.9603,5.298 -2.20486,0.004 -3.9772,-5.28532 -3.9772,-5.28532 -4.77845,-16.32404 -2.03113,-33.41213 0,-50.42751"
         id="path13196-3-3-0"
         sodipodi:nodetypes="ccscc" />
      <path
         style="fill:#551515;fill-opacity:1;stroke:none;stroke-width:1;stroke-linecap:round;stroke-linejoin:round;stroke-dasharray:none"
         d="m -289.78842,-650.59748 c -1.18607,0.004 -2.42257,0.98057 -2.34952,2.23677 -0.0458,1.0216 0.56419,1.91472 0.92768,2.82967 2.21977,4.76274 6.09454,8.53621 10.3509,11.51342 1.08376,0.75536 2.29502,1.34325 3.20923,2.32053 2.06494,1.94707 3.36937,4.52585 5.26376,6.62014 0.66368,0.81754 1.16548,1.74883 1.61088,2.69622 0.18744,0.12005 0.42895,-0.11077 0.57762,-0.22286 0.4659,-0.60962 0.59674,-1.40673 0.89021,-2.1044 1.49596,-4.36758 2.40612,-8.91372 3.10849,-13.4687 -0.14735,-0.0992 -0.50549,0.0591 -0.74412,0.0367 -1.64017,0.0212 -3.33703,0.0385 -4.87955,-0.59894 -2.41948,-0.93237 -4.50162,-2.52366 -6.6417,-3.95182 -1.09726,-0.78412 -2.10685,-1.68623 -3.25517,-2.401 -2.01679,-1.36233 -4.14925,-2.61508 -5.80599,-4.42837 -0.538,-0.58593 -1.24531,-1.06289 -2.06764,-1.07441 -0.065,-0.004 -0.12999,-0.004 -0.19508,-0.003 z"
         id="path18594-9-2-7" />
      <path
         style="fill:#551515;fill-opacity:1;stroke:none;stroke-width:1;stroke-linecap:round;stroke-linejoin:round;stroke-dasharray:none"
         d="m -155.09023,-650.59748 c 1.18608,0.004 2.42258,0.98057 2.34953,2.23677 0.0458,1.0216 -0.5642,1.91472 -0.92768,2.82967 -2.21978,4.76274 -6.09455,8.53621 -10.3509,11.51342 -1.08376,0.75536 -2.29502,1.34325 -3.20924,2.32053 -2.06494,1.94707 -3.36936,4.52585 -5.26375,6.62014 -0.66368,0.81754 -1.16549,1.74883 -1.61089,2.69622 -0.18743,0.12005 -0.42894,-0.11077 -0.57761,-0.22286 -0.46591,-0.60962 -0.59674,-1.40673 -0.89022,-2.1044 -1.49595,-4.36758 -2.40612,-8.91372 -3.10848,-13.4687 0.14734,-0.0992 0.50548,0.0591 0.74411,0.0367 1.64018,0.0212 3.33703,0.0385 4.87955,-0.59894 2.41949,-0.93237 4.50163,-2.52366 6.64171,-3.95182 1.09725,-0.78412 2.10685,-1.68623 3.25517,-2.401 2.01678,-1.36233 4.14924,-2.61508 5.80599,-4.42837 0.538,-0.58593 1.24531,-1.06289 2.06764,-1.07441 0.065,-0.004 0.12999,-0.004 0.19507,-0.003 z"
         id="path18665-6-9-6" />
      <path
         style="fill:#571616;fill-opacity:1;fill-rule:evenodd;stroke:#000000;stroke-width:1;stroke-linecap:butt;stroke-linejoin:miter;stroke-dasharray:none;stroke-opacity:1"
         d="m -222.28724,-579.36838 c 3.72749,17.73181 5.20416,34.60553 0.0372,50.20171 0,0 3.09037,5.41696 5.29167,5.29167 2.2013,-0.12527 4.22083,-5.29167 4.22083,-5.29167 3.57319,-18.77706 1.18247,-34.63539 -0.25208,-50.27083"
         id="path13194-4-8-9"
         sodipodi:nodetypes="ccscc" />
    </g>
    <g
       id="g20329-2-4"
       transform="matrix(0.35901408,0,0,0.35901408,242.02936,280.46042)"
       style="stroke-width:1;stroke-dasharray:none">
      <path
         style="fill:#4d5d4d;fill-opacity:1;fill-rule:evenodd;stroke:#000000;stroke-width:1;stroke-linecap:butt;stroke-linejoin:miter;stroke-dasharray:none;stroke-opacity:1"
         d="m -603.25,-488.15625 c -13.54597,-9.25388 -24.87015,-23.83818 -29.10416,-39.6875 -2.0612,-7.71577 -2.63796,-17.8239 2.64583,-23.8125 15.00166,-17.00274 43.47111,-15.875 66.14583,-15.875 22.67472,0 51.14417,-1.12774 66.14583,15.875 5.28379,5.9886 4.70703,16.09673 2.64583,23.8125 -4.23401,15.84932 -15.55819,30.43362 -29.10416,39.6875 -11.30527,7.72315 -25.99604,10.58333 -39.6875,10.58333 -13.69146,0 -28.38223,-2.86018 -39.6875,-10.58333 z"
         id="path19477-3-5"
         sodipodi:nodetypes="sssssssss" />
      <ellipse
         style="fill:#000000;fill-opacity:1;stroke:none;stroke-width:1;stroke-linecap:round;stroke-linejoin:round;stroke-dasharray:none"
         id="path19483-5-5"
         cx="-571.5"
         cy="-526.52081"
         rx="2.6458333"
         ry="6.614583" />
      <ellipse
         style="fill:#000000;fill-opacity:1;stroke:none;stroke-width:1;stroke-linecap:round;stroke-linejoin:round;stroke-dasharray:none"
         id="ellipse19485-1-4"
         cx="555.625"
         cy="-526.52081"
         rx="2.6458333"
         ry="6.614583"
         transform="scale(-1,1)" />
      <g
         id="g19495-9-5"
         transform="translate(-84.666667,-329.40625)"
         style="stroke-width:1;stroke-dasharray:none">
        <ellipse
           style="fill:#ffffff;fill-opacity:1;stroke:#000000;stroke-width:1;stroke-linecap:round;stroke-linejoin:round;stroke-dasharray:none"
           id="path19487-9-7"
           cx="-516.7417"
           cy="230.21295"
           rx="5.953135"
           ry="6.614583"
           transform="rotate(45.972419)" />
        <path
           style="fill:#000000;fill-rule:evenodd;stroke:#000000;stroke-width:1;stroke-linecap:butt;stroke-linejoin:miter;stroke-dasharray:none;stroke-opacity:1"
           d="m -524.21251,-216.92398 c -2.06434,4.1465 -1.52684,7.79102 0,11.24462 1.52685,-3.45362 2.06435,-7.09812 0,-11.24462 z"
           id="path19491-8-0"
           sodipodi:nodetypes="ccc" />
      </g>
      <g
         id="g19501-3-2"
         transform="matrix(-1,0,0,1,-1042.0483,-329.14167)"
         style="stroke-width:1;stroke-dasharray:none">
        <ellipse
           style="fill:#ffffff;fill-opacity:1;stroke:#000000;stroke-width:1;stroke-linecap:round;stroke-linejoin:round;stroke-dasharray:none"
           id="ellipse19497-7-8"
           cx="-516.7417"
           cy="230.21295"
           rx="5.953135"
           ry="6.614583"
           transform="rotate(45.972419)" />
        <path
           style="fill:#000000;fill-rule:evenodd;stroke:#000000;stroke-width:1;stroke-linecap:butt;stroke-linejoin:miter;stroke-dasharray:none;stroke-opacity:1"
           d="m -524.21251,-216.92398 c -2.06434,4.1465 -1.52684,7.79102 0,11.24462 1.52685,-3.45362 2.06435,-7.09812 0,-11.24462 z"
           id="path19499-3-3"
           sodipodi:nodetypes="ccc" />
      </g>
      <path
         style="fill:#e3dbdb;fill-rule:evenodd;stroke:#000000;stroke-width:1;stroke-linecap:butt;stroke-linejoin:miter;stroke-dasharray:none;stroke-opacity:1"
         d="m -560.91667,-549.01042 c 0,0 1.01253,-2.84723 10e-6,-5.29166 -0.47731,-1.15232 -1.39858,-2.64583 -2.64584,-2.64583 -1.24726,0 -2.16853,1.49352 -2.64583,2.64583 -1.01252,2.44443 -10e-6,5.29166 -10e-6,5.29166"
         id="path19503-6-3"
         sodipodi:nodetypes="csssc" />
      <path
         style="fill:#e3dbdb;fill-rule:evenodd;stroke:#000000;stroke-width:1;stroke-linecap:butt;stroke-linejoin:miter;stroke-dasharray:none;stroke-opacity:1"
         d="m -560.91666,-567.53125 c 0,0 1.01252,-5.49307 0,-7.9375 -0.47731,-1.15232 -1.39858,-2.64583 -2.64584,-2.64583 -1.24726,0 -2.16853,1.49352 -2.64583,2.64583 -1.01252,2.44443 0,7.9375 0,7.9375"
         id="path19507-7-6"
         sodipodi:nodetypes="csssc" />
      <path
         style="fill:#e3dbdb;fill-rule:evenodd;stroke:#000000;stroke-width:1;stroke-linecap:butt;stroke-linejoin:miter;stroke-dasharray:none;stroke-opacity:1"
         d="m -609.3314,-554.04052 c 0,0 -0.90106,-2.88445 -3.17902,-4.23031 -1.07385,-0.63445 -2.70758,-1.27494 -3.70467,-0.52563 -0.9971,0.7493 -0.83634,2.49673 -0.52564,3.70466 0.65908,2.56243 3.17902,4.23031 3.17902,4.23031"
         id="path19503-2-39-1"
         sodipodi:nodetypes="csssc" />
      <path
         style="fill:#e3dbdb;fill-rule:evenodd;stroke:#000000;stroke-width:1;stroke-linecap:butt;stroke-linejoin:miter;stroke-dasharray:none;stroke-opacity:1"
         d="m -613.83334,-562.23958 c 0,0 -2.49059,-4.9996 -4.76855,-6.34546 -1.07384,-0.63445 -2.70758,-1.27494 -3.70467,-0.52563 -0.9971,0.74931 -0.83633,2.49673 -0.52564,3.70466 0.65909,2.56243 4.76855,6.34546 4.76855,6.34546"
         id="path19507-3-2-6"
         sodipodi:nodetypes="csssc" />
      <path
         style="fill:#e3dbdb;fill-rule:evenodd;stroke:#000000;stroke-width:1;stroke-linecap:butt;stroke-linejoin:miter;stroke-dasharray:none;stroke-opacity:1"
         d="m -517.7936,-554.04052 c 0,0 0.90106,-2.88445 3.17902,-4.23031 1.07385,-0.63445 2.70758,-1.27494 3.70467,-0.52563 0.9971,0.7493 0.83634,2.49673 0.52564,3.70466 -0.65908,2.56243 -3.17902,4.23031 -3.17902,4.23031"
         id="path19542-6-7"
         sodipodi:nodetypes="csssc" />
      <path
         style="fill:#e3dbdb;fill-rule:evenodd;stroke:#000000;stroke-width:1;stroke-linecap:butt;stroke-linejoin:miter;stroke-dasharray:none;stroke-opacity:1"
         d="m -513.29167,-562.23958 c 0,0 2.49059,-4.9996 4.76855,-6.34546 1.07384,-0.63445 2.70758,-1.27494 3.70467,-0.52563 0.9971,0.74931 0.83633,2.49673 0.52564,3.70466 -0.65909,2.56243 -4.76855,6.34546 -4.76855,6.34546"
         id="path19544-7-7"
         sodipodi:nodetypes="csssc" />
      <path
         style="fill:none;fill-rule:evenodd;stroke:#000000;stroke-width:1;stroke-linecap:butt;stroke-linejoin:miter;stroke-dasharray:none;stroke-opacity:1"
         d="m -593.98958,-505.35416 c 20.46377,5.37127 40.74317,5.21155 60.85417,0"
         id="path19546-4-3"
         sodipodi:nodetypes="cc" />
      <path
         style="fill:#e3dbdb;fill-rule:evenodd;stroke:#000000;stroke-width:1;stroke-linecap:butt;stroke-linejoin:miter;stroke-dasharray:none;stroke-opacity:1"
         d="m -560.91667,-560.91667 c 0,0 1.01252,-4.17015 0,-6.61458 -0.47731,-1.15232 -1.39858,-2.64583 -2.64584,-2.64583 -1.24726,0 -2.16853,1.49352 -2.64583,2.64583 -1.01252,2.44443 0,6.61458 0,6.61458"
         id="path19505-8-7"
         sodipodi:nodetypes="csssc" />
    </g>
    <g
       id="g26804-2-3"
       transform="matrix(0.35901408,0,0,0.35901408,140.67597,543.20039)"
       style="stroke-width:1;stroke-dasharray:none">
      <path
         style="fill:#a6a647;fill-opacity:1;fill-rule:evenodd;stroke:#000000;stroke-width:1;stroke-linecap:butt;stroke-linejoin:miter;stroke-dasharray:none;stroke-opacity:1"
         d="m -147.82508,-902.55835 c -1.08214,0.0629 -9.02145,-8.78647 -10.59181,-10.43846 -6.57946,-6.92145 -15.14873,-26.83477 -6.47382,-42.47821 2.86918,-5.17397 15.89556,-32.98403 52.91667,-31.75003 39.6875,1.323 44.63079,23.88809 46.30208,42.33337 1.19143,13.14918 -9.2301,35.9406 -11.11249,35.45416"
         id="path22797-8-4-1"
         sodipodi:nodetypes="cssssc" />
      <path
         style="fill:#a6a647;fill-opacity:1;fill-rule:evenodd;stroke:#000000;stroke-width:1;stroke-linecap:butt;stroke-linejoin:miter;stroke-dasharray:none;stroke-opacity:1"
         d="m -156.85966,-911.29098 c 0,0 -1.43643,14.42538 -4.0623,20.63888 -3.333,7.88677 -12.42292,12.87349 -14.55208,21.16667 -1.10204,4.2925 1.32292,13.22916 1.32292,13.22916 0,0 1.04368,0.97614 1.32291,0 0.75624,-2.64362 0.3987,-8.42606 3.96875,-13.22916 3.67748,-4.94764 10.4946,-8.90086 13.22917,-11.90625 5.66983,-6.23135 6.4823,-9.92188 6.4823,-9.92188 l 10.09702,-13.74162"
         id="path23525-8-5-1"
         sodipodi:nodetypes="csscssscc" />
      <path
         style="fill:#a6a647;fill-opacity:1;fill-rule:evenodd;stroke:#000000;stroke-width:1;stroke-linecap:butt;stroke-linejoin:miter;stroke-dasharray:none;stroke-opacity:1"
         d="m -92.19644,-911.95106 -8.67645,7.05215 -0.51781,7.63223 c -0.60862,8.9708 -0.46849,17.84209 -1.21201,26.55572 -1.01492,11.89441 -1.91863,23.31603 -1.30154,33.96772 -2.60158,-5.81774 -5.78426,-9.80264 -5.15938,-17.92553 0.95411,-12.4026 0.45186,-30.69413 -2.83057,-40.62019 -0.64397,-1.94737 -1.28795,-3.42267 -1.93192,-5.02044 -2.55934,8.67798 -2.06413,18.93343 0.36332,28.84011 4.76084,19.42958 -1.77706,38.17474 -14.38624,48.28594 2.51407,-18.46361 19.49567,-15.03079 1.32292,-68.79167 l -3.17501,-9.39271 -2.91041,-8.13593"
         id="path23537-2-8-7"
         sodipodi:nodetypes="ccscccscscscc" />
      <path
         style="fill:#a6a647;fill-opacity:1;fill-rule:evenodd;stroke:#000000;stroke-width:1;stroke-linecap:butt;stroke-linejoin:miter;stroke-dasharray:none;stroke-opacity:1"
         d="m -134.46362,-911.81876 c -28.43004,5.61124 -8.63047,40.97373 2.37418,70.91093 0.55647,1.51382 5.19149,12.1419 5.69561,13.82188 -0.30116,-1.50458 2.93747,-9.71412 1.52471,-18.46882 -4.14297,-25.67344 -14.88919,-54.38626 4.95758,-60.97233"
         id="path23527-6-5-2"
         sodipodi:nodetypes="cscsc" />
      <path
         style="fill:#a6a647;fill-opacity:1;fill-rule:evenodd;stroke:#000000;stroke-width:1;stroke-linecap:butt;stroke-linejoin:miter;stroke-dasharray:none;stroke-opacity:1"
         d="m -71.36118,-918.78414 c 0,0 2.90948,20.63061 10.8577,22.50167 16.78381,3.95102 15.08527,24.38796 12.02944,25.47412 -0.69955,-3.88165 -7.10853,-12.80751 -10.58333,-13.22917 -9.36929,-3.46209 -12.76131,-10.41663 -15.08125,-12.5677 l -16.13959,-14.55209"
         id="path23533-8-5-0"
         sodipodi:nodetypes="cscccc" />
      <path
         style="fill:#a6a647;fill-opacity:1;fill-rule:evenodd;stroke:#000000;stroke-width:1;stroke-linecap:butt;stroke-linejoin:miter;stroke-dasharray:none;stroke-opacity:1"
         d="m -92.13029,-914.4646 c 35.76747,1.45158 10.69061,34.50225 -3.38112,67.58305 -3.94596,9.27645 -2.9657,23.13343 -3.20038,23.66513 -0.11719,0.13053 -11.08789,-19.1179 3.93567,-44.9461 10.72541,-18.43891 5.29166,-34.39583 -7.9375,-35.71874"
         id="path23531-3-2-3"
         sodipodi:nodetypes="cscsc" />
      <g
         id="g25029-6-0-9"
         transform="translate(245.21346,-860.22502)"
         style="stroke-width:1;stroke-dasharray:none">
        <circle
           style="fill:#ff961c;fill-opacity:1;stroke:#000000;stroke-width:1;stroke-linecap:round;stroke-linejoin:round;stroke-dasharray:none"
           id="path24993-3-6-2"
           cx="-381"
           cy="-75.40625"
           r="5.2916665" />
        <circle
           style="fill:#000000;fill-opacity:1;stroke:#000000;stroke-width:1;stroke-linecap:round;stroke-linejoin:round;stroke-dasharray:none"
           id="path24995-0-1-4"
           cx="-381"
           cy="-75.40625"
           r="1.3229166" />
      </g>
      <g
         id="g25029-4-2-3-8"
         transform="translate(283.57804,-860.22502)"
         inkscape:transform-center-x="1.4552083"
         inkscape:transform-center-y="1.4552083"
         style="stroke-width:1;stroke-dasharray:none">
        <circle
           style="fill:#ff961c;fill-opacity:1;stroke:#000000;stroke-width:1;stroke-linecap:round;stroke-linejoin:round;stroke-dasharray:none"
           id="path24993-7-6-5-3"
           cx="-381"
           cy="-75.40625"
           r="5.2916665" />
        <circle
           style="fill:#000000;fill-opacity:1;stroke:#000000;stroke-width:1;stroke-linecap:round;stroke-linejoin:round;stroke-dasharray:none"
           id="path24995-8-1-1-7"
           cx="-381"
           cy="-75.40625"
           r="1.3229166" />
      </g>
      <ellipse
         style="fill:#000000;fill-opacity:1;stroke:#000000;stroke-width:1;stroke-linecap:round;stroke-linejoin:round;stroke-dasharray:none"
         id="path25063-1-4-8"
         cx="512.70831"
         cy="-809.12476"
         rx="3.96875"
         ry="2.6458333"
         transform="rotate(-41.810266)" />
      <ellipse
         style="fill:#000000;fill-opacity:1;stroke:#000000;stroke-width:1;stroke-linecap:round;stroke-linejoin:round;stroke-dasharray:none"
         id="path25065-4-8-1"
         cx="464.92203"
         cy="-857.22815"
         rx="6.614583"
         ry="3.96875"
         transform="rotate(-36.87001)" />
      <ellipse
         style="fill:#000000;fill-opacity:1;stroke:#000000;stroke-width:1.00305;stroke-linecap:round;stroke-linejoin:round;stroke-dasharray:none"
         id="path25067-9-7-4"
         cx="431.21747"
         cy="-913.74847"
         rx="4.4371805"
         ry="2.0821819"
         transform="matrix(0.89145623,-0.45310681,0.54840332,0.83621397,0,0)" />
      <ellipse
         style="fill:#000000;fill-opacity:1;stroke:#000000;stroke-width:1;stroke-linecap:round;stroke-linejoin:round;stroke-dasharray:none"
         id="path25069-7-0-0"
         cx="967.81482"
         cy="157.52583"
         rx="3.5546846"
         ry="4.0224066"
         transform="rotate(-106.20709)" />
      <ellipse
         style="fill:#000000;fill-opacity:1;stroke:#000000;stroke-width:1;stroke-linecap:round;stroke-linejoin:round;stroke-dasharray:none"
         id="path25071-6-0-6"
         cx="238.14427"
         cy="-957.80884"
         rx="5.425571"
         ry="1.9644309"
         transform="rotate(-21.854275)" />
      <ellipse
         style="fill:#000000;fill-opacity:1;stroke:#000000;stroke-width:1;stroke-linecap:round;stroke-linejoin:round;stroke-dasharray:none"
         id="path25073-8-8-8"
         cx="-418.00854"
         cy="-884.14825"
         rx="4.0224066"
         ry="4.2094951"
         transform="rotate(19.486707)" />
      <ellipse
         style="fill:#000000;fill-opacity:1;stroke:#000000;stroke-width:1;stroke-linecap:round;stroke-linejoin:round;stroke-dasharray:none"
         id="path25075-2-2-3"
         cx="-292.47531"
         cy="-914.93719"
         rx="2.9934187"
         ry="4.9578495"
         transform="rotate(12.964301)" />
      <path
         id="path25077-6-0-4"
         style="fill:#000000;fill-opacity:1;stroke:#000000;stroke-width:1;stroke-linecap:round;stroke-linejoin:round;stroke-dasharray:none"
         d="m -83.94991,-980.51435 a 4.9578495,4.3030396 0 0 0 -3.48041,4.1073 4.9578495,4.3030396 0 0 0 4.95784,4.30307 4.9578495,4.3030396 0 0 0 4.90254,-3.66337 c -1.82297,-1.7356 -3.93076,-3.3325 -6.37997,-4.747 z" />
      <path
         id="path25083-2-7-8"
         style="fill:#000000;fill-opacity:1;stroke:#000000;stroke-width:1;stroke-linecap:round;stroke-linejoin:round;stroke-dasharray:none"
         d="m -67.52146,-957.11677 a 4.8643055,3.2740517 57.633621 0 0 -0.34262,0.17415 4.8643055,3.2740517 57.633621 0 0 -0.16174,5.86165 4.8643055,3.2740517 57.633621 0 0 1.90583,1.98076 c -0.32787,-2.65249 -0.76554,-5.34675 -1.40147,-8.01656 z" />
      <path
         style="fill:#a6a647;fill-opacity:1;fill-rule:evenodd;stroke:#000000;stroke-width:1;stroke-linecap:butt;stroke-linejoin:miter;stroke-dasharray:none;stroke-opacity:1"
         d="m -147.82508,-902.55835 c -1.08214,0.0629 -9.02145,-8.78647 -10.59181,-10.43846 -6.57946,-6.92145 -15.14873,-26.83477 -6.47382,-42.47821 2.86918,-5.17397 15.89556,-32.98403 52.91667,-31.75003 39.6875,1.323 44.63079,23.88809 46.30208,42.33337 1.19143,13.14918 -9.2301,35.9406 -11.11249,35.45416"
         id="path26416-5-1-4"
         sodipodi:nodetypes="cssssc" />
      <path
         style="fill:#a6a647;fill-opacity:1;fill-rule:evenodd;stroke:#000000;stroke-width:1;stroke-linecap:butt;stroke-linejoin:miter;stroke-dasharray:none;stroke-opacity:1"
         d="m -156.85966,-911.29098 c 0,0 -1.43643,14.42538 -4.0623,20.63888 -3.333,7.88677 -12.42292,12.87349 -14.55208,21.16667 -1.10204,4.2925 1.32292,13.22916 1.32292,13.22916 0,0 1.04368,0.97614 1.32291,0 0.75624,-2.64362 0.3987,-8.42606 3.96875,-13.22916 3.67748,-4.94764 10.4946,-8.90086 13.22917,-11.90625 5.66983,-6.23135 6.4823,-9.92188 6.4823,-9.92188 l 10.09702,-13.74162"
         id="path26418-8-6-4"
         sodipodi:nodetypes="csscssscc" />
      <path
         style="fill:#a6a647;fill-opacity:1;fill-rule:evenodd;stroke:#000000;stroke-width:1;stroke-linecap:butt;stroke-linejoin:miter;stroke-dasharray:none;stroke-opacity:1"
         d="m -92.19644,-911.95106 -8.67645,7.05215 -0.51781,7.63223 c -0.60862,8.9708 -0.46849,17.84209 -1.21201,26.55572 -1.01492,11.89441 -1.91863,23.31603 -1.30154,33.96772 -2.60158,-5.81774 -5.78426,-9.80264 -5.15938,-17.92553 0.95411,-12.4026 0.45186,-30.69413 -2.83057,-40.62019 -0.64397,-1.94737 -1.28795,-3.42267 -1.93192,-5.02044 -2.55934,8.67798 -2.06413,18.93343 0.36332,28.84011 4.76084,19.42958 -1.77706,38.17474 -14.38624,48.28594 2.51407,-18.46361 19.49567,-15.03079 1.32292,-68.79167 l -3.17501,-9.39271 -2.91041,-8.13593"
         id="path26420-0-9-1"
         sodipodi:nodetypes="ccscccscscscc" />
      <path
         style="fill:#a6a647;fill-opacity:1;fill-rule:evenodd;stroke:#000000;stroke-width:1;stroke-linecap:butt;stroke-linejoin:miter;stroke-dasharray:none;stroke-opacity:1"
         d="m -134.46362,-911.81876 c -28.43004,5.61124 -8.63047,40.97373 2.37418,70.91093 0.55647,1.51382 5.19149,12.1419 5.69561,13.82188 -0.30116,-1.50458 2.93747,-9.71412 1.52471,-18.46882 -4.14297,-25.67344 -14.88919,-54.38626 4.95758,-60.97233"
         id="path26422-1-6-4"
         sodipodi:nodetypes="cscsc" />
      <path
         style="fill:#a6a647;fill-opacity:1;fill-rule:evenodd;stroke:#000000;stroke-width:1;stroke-linecap:butt;stroke-linejoin:miter;stroke-dasharray:none;stroke-opacity:1"
         d="m -71.36118,-918.78414 c 0,0 2.90948,20.63061 10.8577,22.50167 16.78381,3.95102 15.08527,24.38796 12.02944,25.47412 -0.69955,-3.88165 -7.10853,-12.80751 -10.58333,-13.22917 -9.36929,-3.46209 -12.76131,-10.41663 -15.08125,-12.5677 l -16.13959,-14.55209"
         id="path26424-6-7-0"
         sodipodi:nodetypes="cscccc" />
      <path
         style="fill:#a6a647;fill-opacity:1;fill-rule:evenodd;stroke:#000000;stroke-width:1;stroke-linecap:butt;stroke-linejoin:miter;stroke-dasharray:none;stroke-opacity:1"
         d="m -92.13029,-914.4646 c 35.76747,1.45158 10.69061,34.50225 -3.38112,67.58305 -3.94596,9.27645 -2.9657,23.13343 -3.20038,23.66513 -0.11719,0.13053 -11.08789,-19.1179 3.93567,-44.9461 10.72541,-18.43891 5.29166,-34.39583 -7.9375,-35.71874"
         id="path26426-3-4-2"
         sodipodi:nodetypes="cscsc" />
      <g
         id="g26432-3-6-9"
         transform="translate(245.21346,-860.22502)"
         style="stroke-width:1;stroke-dasharray:none">
        <circle
           style="fill:#ff961c;fill-opacity:1;stroke:#000000;stroke-width:1;stroke-linecap:round;stroke-linejoin:round;stroke-dasharray:none"
           id="circle26428-0-7-9"
           cx="-381"
           cy="-75.40625"
           r="5.2916665" />
        <circle
           style="fill:#000000;fill-opacity:1;stroke:#000000;stroke-width:1;stroke-linecap:round;stroke-linejoin:round;stroke-dasharray:none"
           id="circle26430-8-8-3"
           cx="-381"
           cy="-75.40625"
           r="1.3229166" />
      </g>
      <g
         id="g26438-2-0-7"
         transform="translate(283.57804,-860.22502)"
         inkscape:transform-center-x="1.4552083"
         inkscape:transform-center-y="1.4552083"
         style="stroke-width:1;stroke-dasharray:none">
        <circle
           style="fill:#ff961c;fill-opacity:1;stroke:#000000;stroke-width:1;stroke-linecap:round;stroke-linejoin:round;stroke-dasharray:none"
           id="circle26434-1-6-6"
           cx="-381"
           cy="-75.40625"
           r="5.2916665" />
        <circle
           style="fill:#000000;fill-opacity:1;stroke:#000000;stroke-width:1;stroke-linecap:round;stroke-linejoin:round;stroke-dasharray:none"
           id="circle26436-7-7-2"
           cx="-381"
           cy="-75.40625"
           r="1.3229166" />
      </g>
      <ellipse
         style="fill:#000000;fill-opacity:1;stroke:#000000;stroke-width:1;stroke-linecap:round;stroke-linejoin:round;stroke-dasharray:none"
         id="ellipse26440-9-2-6"
         cx="512.70831"
         cy="-809.12476"
         rx="3.96875"
         ry="2.6458333"
         transform="rotate(-41.810266)" />
      <ellipse
         style="fill:#000000;fill-opacity:1;stroke:#000000;stroke-width:1;stroke-linecap:round;stroke-linejoin:round;stroke-dasharray:none"
         id="ellipse26442-5-9-6"
         cx="464.92203"
         cy="-857.22815"
         rx="6.614583"
         ry="3.96875"
         transform="rotate(-36.87001)" />
      <ellipse
         style="fill:#000000;fill-opacity:1;stroke:#000000;stroke-width:1.00305;stroke-linecap:round;stroke-linejoin:round;stroke-dasharray:none"
         id="ellipse26444-5-6-1"
         cx="431.21747"
         cy="-913.74847"
         rx="4.4371805"
         ry="2.0821819"
         transform="matrix(0.89145623,-0.45310681,0.54840332,0.83621397,0,0)" />
      <ellipse
         style="fill:#000000;fill-opacity:1;stroke:#000000;stroke-width:1;stroke-linecap:round;stroke-linejoin:round;stroke-dasharray:none"
         id="ellipse26446-8-1-4"
         cx="967.81482"
         cy="157.52583"
         rx="3.5546846"
         ry="4.0224066"
         transform="rotate(-106.20709)" />
      <ellipse
         style="fill:#000000;fill-opacity:1;stroke:#000000;stroke-width:1;stroke-linecap:round;stroke-linejoin:round;stroke-dasharray:none"
         id="ellipse26448-2-9-0"
         cx="238.14427"
         cy="-957.80884"
         rx="5.425571"
         ry="1.9644309"
         transform="rotate(-21.854275)" />
      <ellipse
         style="fill:#000000;fill-opacity:1;stroke:#000000;stroke-width:1;stroke-linecap:round;stroke-linejoin:round;stroke-dasharray:none"
         id="ellipse26450-8-1-3"
         cx="-418.00854"
         cy="-884.14825"
         rx="4.0224066"
         ry="4.2094951"
         transform="rotate(19.486707)" />
      <ellipse
         style="fill:#000000;fill-opacity:1;stroke:#000000;stroke-width:1;stroke-linecap:round;stroke-linejoin:round;stroke-dasharray:none"
         id="ellipse26452-5-1-9"
         cx="-292.47531"
         cy="-914.93719"
         rx="2.9934187"
         ry="4.9578495"
         transform="rotate(12.964301)" />
      <path
         id="path26454-2-3-2"
         style="fill:#000000;fill-opacity:1;stroke:#000000;stroke-width:1;stroke-linecap:round;stroke-linejoin:round;stroke-dasharray:none"
         d="m -83.94991,-980.51435 a 4.9578495,4.3030396 0 0 0 -3.48041,4.1073 4.9578495,4.3030396 0 0 0 4.95784,4.30307 4.9578495,4.3030396 0 0 0 4.90254,-3.66337 c -1.82297,-1.7356 -3.93076,-3.3325 -6.37997,-4.747 z" />
      <path
         id="path26456-9-8-7"
         style="fill:#000000;fill-opacity:1;stroke:#000000;stroke-width:1;stroke-linecap:round;stroke-linejoin:round;stroke-dasharray:none"
         d="m -67.52146,-957.11677 a 4.8643055,3.2740517 57.633621 0 0 -0.34262,0.17415 4.8643055,3.2740517 57.633621 0 0 -0.16174,5.86165 4.8643055,3.2740517 57.633621 0 0 1.90583,1.98076 c -0.32787,-2.65249 -0.76554,-5.34675 -1.40147,-8.01656 z" />
    </g>
    <g
       id="g27190-2-6-1"
       transform="matrix(0.35901408,0,0,0.35901408,237.66939,436.58033)"
       style="stroke-width:1;stroke-dasharray:none">
      <path
         style="fill:#65b8b8;fill-opacity:1;fill-rule:evenodd;stroke:#000000;stroke-width:1;stroke-linecap:butt;stroke-linejoin:miter;stroke-dasharray:none;stroke-opacity:1"
         d="m -560.66529,-562.01944 c -16.44484,-12.82883 -32.22016,-40.21929 -30.1625,-64.29375 1.29509,-15.15244 28.17982,-31.75808 46.82343,-33.37407 18.64361,1.48416 45.52834,18.08979 46.82343,33.24223 2.05766,24.07446 -13.71766,51.46493 -30.1625,64.29375 -4.39213,3.42636 -11.08493,1.36832 -16.66093,1.43423 -5.576,0.0659 -12.2688,2.12396 -16.66093,-1.30239 z"
         id="path26820-4-4-4"
         sodipodi:nodetypes="sscsscs" />
      <path
         style="fill:#aa4400;fill-rule:evenodd;stroke:#000000;stroke-width:1;stroke-linecap:butt;stroke-linejoin:miter;stroke-dasharray:none;stroke-opacity:1"
         d="m -512.25984,-646.52401 c 16.15176,-4.8252 21.86931,-13.67315 22.48958,-23.8125 15.35064,21.44876 1.58966,28.98812 -13.22916,33.07291"
         id="path26822-6-3-9"
         sodipodi:nodetypes="ccc" />
      <path
         style="fill:#aa4400;fill-opacity:1;fill-rule:evenodd;stroke:#000000;stroke-width:1;stroke-linecap:butt;stroke-linejoin:miter;stroke-dasharray:none;stroke-opacity:1"
         d="m -497.70776,-628.00318 c 9.42052,5.09057 16.0718,-0.45848 21.16667,-6.61458 0.31302,13.7779 -6.7649,21.76682 -21.16667,17.19791"
         id="path26824-6-7-0"
         sodipodi:nodetypes="ccc" />
      <g
         id="g13140-29-6-9-1-2"
         transform="matrix(-0.8474954,1.1373559,1.1373559,0.8474954,-1023.6737,508.30432)"
         inkscape:transform-center-x="-0.44808555"
         inkscape:transform-center-y="-1.6491187"
         style="stroke-width:0.705025;stroke-dasharray:none">
        <path
           style="fill:#ffffff;fill-rule:evenodd;stroke:#000000;stroke-width:0.705025;stroke-linecap:butt;stroke-linejoin:miter;stroke-dasharray:none;stroke-opacity:1"
           d="m -853.28125,-193.14583 c 0,0 3.77405,-2.67726 5.34864,-2.64246 1.52608,0.0337 5.23469,2.64246 5.23469,2.64246 0,0 -3.77471,2.70675 -5.375,2.68957 -1.60583,-0.0172 -5.20833,-2.68957 -5.20833,-2.68957 z"
           id="path13136-0-9-5-8-4"
           sodipodi:nodetypes="cscsc" />
        <ellipse
           style="fill:#000000;fill-opacity:1;stroke:#808000;stroke-width:0.705025;stroke-linecap:round;stroke-linejoin:round;stroke-dasharray:none"
           id="ellipse13138-1-4-6-1-3"
           cx="-847.98956"
           cy="-193.14583"
           rx="1.8520629"
           ry="1.7249494" />
      </g>
      <g
         id="g26982-9-0-6"
         transform="matrix(0.8474954,1.1373559,-1.1373559,0.8474954,-64.33499,508.30432)"
         inkscape:transform-center-x="0.44808555"
         inkscape:transform-center-y="-1.6491187"
         style="stroke-width:0.705025;stroke-dasharray:none">
        <path
           style="fill:#ffffff;fill-rule:evenodd;stroke:#000000;stroke-width:0.705025;stroke-linecap:butt;stroke-linejoin:miter;stroke-dasharray:none;stroke-opacity:1"
           d="m -853.28125,-193.14583 c 0,0 3.77405,-2.67726 5.34864,-2.64246 1.52608,0.0337 5.23469,2.64246 5.23469,2.64246 0,0 -3.77471,2.70675 -5.375,2.68957 -1.60583,-0.0172 -5.20833,-2.68957 -5.20833,-2.68957 z"
           id="path26978-8-2-1"
           sodipodi:nodetypes="cscsc" />
        <ellipse
           style="fill:#000000;fill-opacity:1;stroke:#808000;stroke-width:0.705025;stroke-linecap:round;stroke-linejoin:round;stroke-dasharray:none"
           id="ellipse26980-2-9-7"
           cx="-847.98956"
           cy="-193.14583"
           rx="1.8520629"
           ry="1.7249494" />
      </g>
      <path
         style="fill:none;fill-rule:evenodd;stroke:#000000;stroke-width:1;stroke-linecap:butt;stroke-linejoin:miter;stroke-dasharray:none;stroke-opacity:1"
         d="m -540.04109,-601.54485 v 10.58334"
         id="path26984-7-9-2"
         sodipodi:nodetypes="cc" />
      <path
         style="fill:none;fill-rule:evenodd;stroke:#000000;stroke-width:1;stroke-linecap:butt;stroke-linejoin:miter;stroke-dasharray:none;stroke-opacity:1"
         d="m -547.97859,-601.54485 v 10.58334"
         id="path26986-3-6-8"
         sodipodi:nodetypes="cc" />
      <path
         style="fill:none;fill-rule:evenodd;stroke:#000000;stroke-width:1;stroke-linecap:butt;stroke-linejoin:miter;stroke-dasharray:none;stroke-opacity:1"
         d="m -554.59318,-583.02401 c 0,0 6.63916,5.29166 10.58334,5.29166 3.94417,0 10.58333,-5.29166 10.58333,-5.29166"
         id="path26988-8-4-6"
         sodipodi:nodetypes="csc" />
      <path
         style="fill:#aa4400;fill-opacity:1;fill-rule:evenodd;stroke:#000000;stroke-width:1;stroke-linecap:butt;stroke-linejoin:miter;stroke-dasharray:none;stroke-opacity:1"
         d="m -575.75984,-646.52401 c -16.15176,-4.8252 -21.86931,-13.67315 -22.48958,-23.8125 -15.35064,21.44876 -1.58966,28.98812 13.22916,33.07291"
         id="path26814-2-7-4"
         sodipodi:nodetypes="ccc" />
      <path
         style="fill:#aa4400;fill-opacity:1;fill-rule:evenodd;stroke:#000000;stroke-width:1;stroke-linecap:butt;stroke-linejoin:miter;stroke-dasharray:none;stroke-opacity:1"
         d="m -590.31192,-628.00318 c -9.42052,5.09057 -16.0718,-0.45848 -21.16667,-6.61458 -0.31302,13.7779 6.7649,21.76682 21.16667,17.19791"
         id="path26816-6-3-1"
         sodipodi:nodetypes="ccc" />
      <path
         style="fill:#aa4400;fill-opacity:1;fill-rule:evenodd;stroke:#000000;stroke-width:1;stroke-linecap:butt;stroke-linejoin:miter;stroke-dasharray:none;stroke-opacity:1"
         d="m -586.34318,-598.89901 c -12.29755,12.64628 -15.33884,3.74055 -21.16666,1.32291 0.63415,18.43156 14.98758,21.35354 27.78125,13.22917"
         id="path26818-6-9-3"
         sodipodi:nodetypes="ccc" />
      <path
         style="fill:#aa4400;fill-opacity:1;fill-rule:evenodd;stroke:#000000;stroke-width:1;stroke-linecap:butt;stroke-linejoin:miter;stroke-dasharray:none;stroke-opacity:1"
         d="m -501.6765,-598.89901 c 12.29755,12.64628 15.33884,3.74055 21.16666,1.32291 -0.63415,18.43156 -14.98758,21.35354 -27.78125,13.22917"
         id="path26826-1-3-2"
         sodipodi:nodetypes="ccc" />
      <path
         style="fill:#aa4400;fill-opacity:1;fill-rule:evenodd;stroke:#000000;stroke-width:1;stroke-linecap:butt;stroke-linejoin:miter;stroke-dasharray:none;stroke-opacity:1"
         d="m -548.10781,-657.1357 c 0.79241,-4.8539 0.31757,-10.76884 3.96875,-13.22917 4.21804,3.71954 2.98352,8.73895 3.96875,13.22917"
         id="path26992-2-1-8"
         sodipodi:nodetypes="ccc" />
      <path
         style="fill:#aa4400;fill-opacity:1;fill-rule:evenodd;stroke:#000000;stroke-width:1;stroke-linecap:butt;stroke-linejoin:miter;stroke-dasharray:none;stroke-opacity:1"
         d="m -547.20551,-639.16566 c 0.61222,-3.75018 0.24536,-8.32012 3.0663,-10.22099 3.2589,2.87375 2.30509,6.7518 3.06629,10.22099"
         id="path27170-1-8-0"
         sodipodi:nodetypes="ccc" />
    </g>
    <g
       id="g29722-5-6"
       transform="matrix(0.41620707,0,0,0.41620707,447.65458,53.70024)">
      <path
         style="fill:#6f917c;fill-rule:evenodd;stroke:#000000;stroke-width:1;stroke-linecap:butt;stroke-linejoin:miter;stroke-dasharray:none;stroke-opacity:1"
         d="m -687.91666,134.9375 c -22.84391,0.78534 -36.31535,-28.81529 -34.39583,-55.562501 1.45591,-20.287124 15.97861,-35.018893 34.39583,-52.916666 1.13814,-0.599178 4.42608,-0.745608 5.29166,0 18.41722,17.897773 32.93992,32.629542 34.39583,52.916666 1.91952,26.747211 -11.55192,56.347841 -34.39583,55.562501 -0.88143,-0.0303 -2.64583,0 -2.64583,0 0,0 -1.7644,-0.0303 -2.64583,0 z"
         id="path27308-5-7"
         sodipodi:nodetypes="ssccsscs" />
      <g
         id="g28119-7-6">
        <path
           style="fill:#4d705a;fill-opacity:1;fill-rule:evenodd;stroke:#000000;stroke-width:1;stroke-linecap:butt;stroke-linejoin:miter;stroke-dasharray:none;stroke-opacity:1"
           d="m -709.08332,67.468749 -19.84375,3.96875 v 10.583333 l 23.8125,-3.96875 c 2.15911,-4.450414 2.98732,-8.54818 -3.96875,-10.583333 z"
           id="path28094-3-2"
           sodipodi:nodetypes="ccccc" />
        <circle
           style="fill:#ffffff;fill-opacity:1;stroke:#000000;stroke-width:1;stroke-linecap:round;stroke-linejoin:round;stroke-dasharray:none"
           id="path28090-2-1"
           cx="-728.92706"
           cy="76.729164"
           r="5.2916665" />
        <circle
           style="fill:#000000;fill-opacity:1;stroke:#000000;stroke-width:1;stroke-linecap:round;stroke-linejoin:round;stroke-dasharray:none"
           id="path28092-8-7"
           cx="-728.92706"
           cy="76.729164"
           r="1.3229166" />
      </g>
      <path
         style="fill:#6f917c;fill-opacity:1;fill-rule:evenodd;stroke:#000000;stroke-width:1;stroke-linecap:butt;stroke-linejoin:miter;stroke-dasharray:none;stroke-opacity:1"
         d="m -697.17707,107.15625 c 2.32806,1.77619 -0.27742,24.41047 -3.96875,31.75 -0.81693,1.62431 -0.11018,4.17273 1.32291,5.29166 0.34758,0.27138 0.94373,0.2251 1.32292,0 4.75126,-2.8205 5.80924,-9.45304 7.9375,-14.55208 1.77332,-4.24866 3.30021,-8.67408 3.96875,-13.22916 0.51228,-3.49039 0,-10.58334 0,-10.58334"
         id="path28098-7-7"
         sodipodi:nodetypes="csssssc" />
      <path
         style="fill:#1a1a1a;fill-rule:evenodd;stroke:#000000;stroke-width:0.264583px;stroke-linecap:butt;stroke-linejoin:miter;stroke-opacity:1"
         d="m -690.56249,46.302084 c 0,0 -1.09955,2.592279 -1.32292,3.96875 -0.49445,3.046947 -1.18127,6.40858 0,9.260416 0.23865,0.576159 0.69929,1.322918 1.32292,1.322917 0.62363,-10e-7 1.08426,-0.74676 1.32291,-1.322917 1.18127,-2.851838 0.49445,-6.213469 0,-9.260416 -0.22337,-1.37647 -1.32291,-3.96875 -1.32291,-3.96875 z"
         id="path28100-2-3"
         sodipodi:nodetypes="csssssc" />
      <path
         style="fill:#1a1a1a;fill-rule:evenodd;stroke:#000000;stroke-width:0.264583px;stroke-linecap:butt;stroke-linejoin:miter;stroke-opacity:1"
         d="m -698.69195,46.589475 c 0,0 -2.24838,1.695203 -3.13006,2.775577 -1.95168,2.391508 -4.2273,4.959358 -4.63021,8.019756 -0.0814,0.618294 -0.0558,1.495326 0.48423,1.80714 0.54008,0.311814 1.31237,-0.104584 1.80713,-0.484224 2.44893,-1.879129 3.53494,-5.133799 4.63021,-8.019756 0.49479,-1.303743 0.8387,-4.098493 0.8387,-4.098493 z"
         id="path28102-7-7"
         sodipodi:nodetypes="csssssc" />
      <path
         style="fill:#1a1a1a;fill-rule:evenodd;stroke:#000000;stroke-width:0.264583px;stroke-linecap:butt;stroke-linejoin:miter;stroke-opacity:1"
         d="m -679.97917,46.302084 c 0,0 1.09955,2.592279 1.32292,3.96875 0.49445,3.046947 1.18127,6.40858 0,9.260416 -0.23865,0.576159 -0.69929,1.322918 -1.32292,1.322917 -0.62363,-10e-7 -1.08426,-0.74676 -1.32291,-1.322917 -1.18127,-2.851838 -0.49445,-6.213469 0,-9.260416 0.22337,-1.37647 1.32291,-3.96875 1.32291,-3.96875 z"
         id="path28110-9-8"
         sodipodi:nodetypes="csssssc" />
      <path
         style="fill:#1a1a1a;fill-rule:evenodd;stroke:#000000;stroke-width:0.264583px;stroke-linecap:butt;stroke-linejoin:miter;stroke-opacity:1"
         d="m -671.84971,46.589475 c 0,0 2.24838,1.695203 3.13006,2.775577 1.95168,2.391508 4.2273,4.959358 4.63021,8.019756 0.0814,0.618294 0.0558,1.495326 -0.48423,1.80714 -0.54008,0.311814 -1.31237,-0.104584 -1.80713,-0.484224 -2.44893,-1.879129 -3.53494,-5.133799 -4.63021,-8.019756 -0.49479,-1.303743 -0.8387,-4.098493 -0.8387,-4.098493 z"
         id="path28112-7-2"
         sodipodi:nodetypes="csssssc" />
      <path
         style="fill:#6f917c;fill-opacity:1;fill-rule:evenodd;stroke:#000000;stroke-width:1;stroke-linecap:butt;stroke-linejoin:miter;stroke-dasharray:none;stroke-opacity:1"
         d="m -673.36459,107.15625 c -0.56364,10.22206 5.96922,30.80911 10e-6,37.04167 -0.30502,0.31847 -2.00271,0.4981 -2.24896,0.13229 -4.81782,-7.15678 -2.93911,-16.30206 -4.7625,-26.19374 -0.63952,-3.46934 -3.57188,-12.30314 -3.57188,-12.30314"
         id="path28114-1-7"
         sodipodi:nodetypes="csssc" />
      <g
         id="g28129-6-6"
         transform="matrix(-1,0,0,1,-1370.8063,0)">
        <path
           style="fill:#4d705a;fill-opacity:1;fill-rule:evenodd;stroke:#000000;stroke-width:1;stroke-linecap:butt;stroke-linejoin:miter;stroke-dasharray:none;stroke-opacity:1"
           d="m -709.08332,67.468749 -19.84375,3.96875 v 10.583333 l 23.8125,-3.96875 c 2.15911,-4.450414 2.98732,-8.54818 -3.96875,-10.583333 z"
           id="path28123-1-4"
           sodipodi:nodetypes="ccccc" />
        <circle
           style="fill:#ffffff;fill-opacity:1;stroke:#000000;stroke-width:1;stroke-linecap:round;stroke-linejoin:round;stroke-dasharray:none"
           id="circle28125-2-9"
           cx="-728.92706"
           cy="76.729164"
           r="5.2916665" />
        <circle
           style="fill:#000000;fill-opacity:1;stroke:#000000;stroke-width:1;stroke-linecap:round;stroke-linejoin:round;stroke-dasharray:none"
           id="circle28127-3-9"
           cx="-728.92706"
           cy="76.729164"
           r="1.3229166" />
      </g>
    </g>
  </g>
</svg>
