<?xml version="1.0" encoding="UTF-8" standalone="no"?>
<svg
   width="64"
   height="64"
   viewBox="-34.575343540736604 48.86981637137277 22.00432477678571 22.00432477678571"
   version="1.1"
   id="svg17"
   sodipodi:docname="Keleni F.svg"
   inkscape:version="1.4.2 (f4327f4, 2025-05-13)"
   xmlns:inkscape="http://www.inkscape.org/namespaces/inkscape"
   xmlns:sodipodi="http://sodipodi.sourceforge.net/DTD/sodipodi-0.dtd"
   xmlns="http://www.w3.org/2000/svg"
   xmlns:svg="http://www.w3.org/2000/svg">
  <defs
     id="defs17" />
  <sodipodi:namedview
     id="namedview17"
     pagecolor="#ffffff"
     bordercolor="#000000"
     borderopacity="0.25"
     inkscape:showpageshadow="2"
     inkscape:pageopacity="0.0"
     inkscape:pagecheckerboard="0"
     inkscape:deskcolor="#d1d1d1"
     inkscape:zoom="4.5585938"
     inkscape:cx="12.942588"
     inkscape:cy="46.066838"
     inkscape:window-width="1278"
     inkscape:window-height="664"
     inkscape:window-x="-7"
     inkscape:window-y="696"
     inkscape:window-maximized="0"
     inkscape:current-layer="svg17" />
  <g
     id="g64763"
     transform="matrix(0.91307598,0,0,0.91307598,-33.376473,-32.487954)"
     style="display:inline">
    <g
       id="g64631"
       transform="rotate(15.337603,12.761498,100.03501)">
      <g
         id="g178601-4-5-5-3-3-0-8"
         style="fill:none;fill-opacity:1"
         transform="matrix(0.5499883,-0.00358909,0.00358909,0.5499883,-24.755079,49.507832)">
        <path
           style="fill:none;fill-opacity:1;fill-rule:evenodd;stroke:#000000;stroke-width:0.264583px;stroke-linecap:butt;stroke-linejoin:miter;stroke-opacity:1"
           d="m 59.437706,97.989374 2.629296,-2.64583"
           id="path178545-8-0-2-9-1-8-6"
           sodipodi:nodetypes="cc" />
        <path
           style="fill:none;fill-opacity:1;fill-rule:evenodd;stroke:#000000;stroke-width:0.264583px;stroke-linecap:butt;stroke-linejoin:miter;stroke-opacity:1"
           d="m 60.760622,94.020624 2.645833,2.64583"
           id="path178547-6-1-5-8-7-3-8" />
        <path
           style="fill:none;fill-opacity:1;fill-rule:evenodd;stroke:#000000;stroke-width:0.264583px;stroke-linecap:butt;stroke-linejoin:miter;stroke-opacity:1"
           d="m 59.437705,95.343544 2.645833,-2.64584"
           id="path178549-0-8-9-2-4-5-9" />
        <path
           style="fill:none;fill-opacity:1;fill-rule:evenodd;stroke:#000000;stroke-width:0.264583px;stroke-linecap:butt;stroke-linejoin:miter;stroke-opacity:1"
           d="m 63.406455,94.020624 -2.645833,-2.64583"
           id="path178551-4-2-3-4-8-6-9" />
        <path
           style="fill:none;fill-opacity:1;fill-rule:evenodd;stroke:#000000;stroke-width:0.264583px;stroke-linecap:butt;stroke-linejoin:miter;stroke-opacity:1"
           d="m 59.437705,92.697704 2.645833,-2.645831"
           id="path178553-4-7-9-3-0-8-2" />
        <path
           style="fill:none;fill-opacity:1;fill-rule:evenodd;stroke:#000000;stroke-width:0.264583px;stroke-linecap:butt;stroke-linejoin:miter;stroke-opacity:1"
           d="m 62.083539,90.051874 1.322916,1.32292 0.529167,1.32291 -0.529167,1.32292 0.529167,1.32292 -0.529166,1.32291"
           id="path178555-1-0-6-2-8-9-5"
           sodipodi:nodetypes="cccccc" />
        <path
           style="fill:none;fill-opacity:1;fill-rule:evenodd;stroke:#000000;stroke-width:0.264583px;stroke-linecap:butt;stroke-linejoin:miter;stroke-opacity:1"
           d="m 59.437705,92.697704 -0.529166,1.32292 0.529166,1.37253 -0.529166,1.2733 0.529166,1.32292"
           id="path178557-3-6-9-9-7-8-5"
           sodipodi:nodetypes="ccccc" />
        <path
           style="fill:none;fill-opacity:1;fill-rule:evenodd;stroke:#000000;stroke-width:0.264583px;stroke-linecap:butt;stroke-linejoin:miter;stroke-opacity:1"
           d="m 59.437707,103.28104 2.629296,-2.64583"
           id="path178559-2-7-7-0-6-1-9"
           sodipodi:nodetypes="cc" />
        <path
           style="fill:none;fill-opacity:1;fill-rule:evenodd;stroke:#000000;stroke-width:0.264583px;stroke-linecap:butt;stroke-linejoin:miter;stroke-opacity:1"
           d="m 60.760623,99.312294 2.645833,2.645826"
           id="path178561-5-1-3-6-7-3-9" />
        <path
           style="fill:none;fill-opacity:1;fill-rule:evenodd;stroke:#000000;stroke-width:0.264583px;stroke-linecap:butt;stroke-linejoin:miter;stroke-opacity:1"
           d="m 59.437706,100.63521 2.645833,-2.645836"
           id="path178563-7-7-3-5-2-7-6" />
        <path
           style="fill:none;fill-opacity:1;fill-rule:evenodd;stroke:#000000;stroke-width:0.264583px;stroke-linecap:butt;stroke-linejoin:miter;stroke-opacity:1"
           d="m 63.406456,99.312294 -2.645833,-2.64583"
           id="path178565-0-3-2-4-9-5-7" />
        <path
           style="fill:none;fill-opacity:1;fill-rule:evenodd;stroke:#000000;stroke-width:0.264583px;stroke-linecap:butt;stroke-linejoin:miter;stroke-opacity:1"
           d="m 59.437706,97.989374 2.645833,-2.64583"
           id="path178567-4-4-6-8-0-8-0" />
        <path
           style="fill:none;fill-opacity:1;fill-rule:evenodd;stroke:#000000;stroke-width:0.264583px;stroke-linecap:butt;stroke-linejoin:miter;stroke-opacity:1"
           d="m 62.08354,95.343544 1.322916,1.32292 0.529167,1.32291 -0.529167,1.32292 0.529167,1.322916 -0.529166,1.32291"
           id="path178569-8-5-6-2-2-3-4"
           sodipodi:nodetypes="cccccc" />
        <path
           style="fill:none;fill-opacity:1;fill-rule:evenodd;stroke:#000000;stroke-width:0.264583px;stroke-linecap:butt;stroke-linejoin:miter;stroke-opacity:1"
           d="m 59.437706,97.989374 -0.529166,1.32292 0.529166,1.372526 -0.529166,1.2733 0.529166,1.32292"
           id="path178571-8-5-4-0-6-3-0"
           sodipodi:nodetypes="ccccc" />
        <path
           style="fill:none;fill-opacity:1;fill-rule:evenodd;stroke:#000000;stroke-width:0.264583px;stroke-linecap:butt;stroke-linejoin:miter;stroke-opacity:1"
           d="m 59.437706,108.5727 2.629296,-2.64583"
           id="path178573-0-9-4-9-7-8-5"
           sodipodi:nodetypes="cc" />
        <path
           style="fill:none;fill-opacity:1;fill-rule:evenodd;stroke:#000000;stroke-width:0.264583px;stroke-linecap:butt;stroke-linejoin:miter;stroke-opacity:1"
           d="m 60.760622,104.60395 2.645833,2.64583"
           id="path178575-3-6-6-7-0-8-9" />
        <path
           style="fill:none;fill-opacity:1;fill-rule:evenodd;stroke:#000000;stroke-width:0.264583px;stroke-linecap:butt;stroke-linejoin:miter;stroke-opacity:1"
           d="m 59.437705,105.92687 2.645833,-2.64584"
           id="path178577-0-6-2-8-9-9-8" />
        <path
           style="fill:none;fill-opacity:1;fill-rule:evenodd;stroke:#000000;stroke-width:0.264583px;stroke-linecap:butt;stroke-linejoin:miter;stroke-opacity:1"
           d="m 63.406455,104.60395 -2.645833,-2.64583"
           id="path178579-5-9-4-6-4-2-5" />
        <path
           style="fill:none;fill-opacity:1;fill-rule:evenodd;stroke:#000000;stroke-width:0.264583px;stroke-linecap:butt;stroke-linejoin:miter;stroke-opacity:1"
           d="m 59.437705,103.28103 2.645833,-2.64583"
           id="path178581-2-1-1-8-2-6-75" />
        <path
           style="fill:none;fill-opacity:1;fill-rule:evenodd;stroke:#000000;stroke-width:0.264583px;stroke-linecap:butt;stroke-linejoin:miter;stroke-opacity:1"
           d="m 62.083539,100.6352 1.322916,1.32292 0.529167,1.32291 -0.529167,1.32292 0.529167,1.32292 -0.529166,1.32291"
           id="path178583-5-1-2-0-9-1-0"
           sodipodi:nodetypes="cccccc" />
        <path
           style="fill:none;fill-opacity:1;fill-rule:evenodd;stroke:#000000;stroke-width:0.264583px;stroke-linecap:butt;stroke-linejoin:miter;stroke-opacity:1"
           d="m 59.437705,103.28103 -0.529166,1.32292 0.529166,1.37253 -0.529166,1.2733 0.529166,1.32292"
           id="path178585-9-4-4-1-8-0-7"
           sodipodi:nodetypes="ccccc" />
        <path
           style="fill:none;fill-opacity:1;fill-rule:evenodd;stroke:#000000;stroke-width:0.264583px;stroke-linecap:butt;stroke-linejoin:miter;stroke-opacity:1"
           d="m 59.437707,113.86437 2.474793,2.5523"
           id="path178587-6-3-4-6-4-4-6"
           sodipodi:nodetypes="cc" />
        <path
           style="fill:none;fill-opacity:1;fill-rule:evenodd;stroke:#000000;stroke-width:0.264583px;stroke-linecap:butt;stroke-linejoin:miter;stroke-opacity:1"
           d="m 61.9125,116.41667 2.116667,-2.64584 0.529166,-1.32291"
           id="path178589-2-6-5-7-0-8-10"
           sodipodi:nodetypes="ccc" />
        <path
           style="fill:none;fill-opacity:1;fill-rule:evenodd;stroke:#000000;stroke-width:0.264583px;stroke-linecap:butt;stroke-linejoin:miter;stroke-opacity:1"
           d="m 59.437706,111.21854 2.645833,-2.64584"
           id="path178591-9-3-3-0-2-8-4" />
        <path
           style="fill:none;fill-opacity:1;fill-rule:evenodd;stroke:#000000;stroke-width:0.264583px;stroke-linecap:butt;stroke-linejoin:miter;stroke-opacity:1"
           d="m 63.406456,109.89562 -2.645833,-2.64583"
           id="path178593-4-2-7-0-2-8-8" />
        <path
           style="fill:none;fill-opacity:1;fill-rule:evenodd;stroke:#000000;stroke-width:0.264583px;stroke-linecap:butt;stroke-linejoin:miter;stroke-opacity:1"
           d="m 59.437706,108.5727 2.645833,-2.64583"
           id="path178595-6-9-5-5-5-9-52" />
        <path
           style="fill:none;fill-opacity:1;fill-rule:evenodd;stroke:#000000;stroke-width:0.264583px;stroke-linecap:butt;stroke-linejoin:miter;stroke-opacity:1"
           d="m 62.08354,105.92687 1.322916,1.32292 0.529167,1.32291 -0.529167,1.32292 0.358127,1.49396 0.79375,1.05834"
           id="path178597-0-7-9-5-6-0-5"
           sodipodi:nodetypes="cccccc" />
        <path
           style="fill:none;fill-opacity:1;fill-rule:evenodd;stroke:#000000;stroke-width:0.264583px;stroke-linecap:butt;stroke-linejoin:miter;stroke-opacity:1"
           d="m 59.437706,108.5727 -0.529166,1.32292 0.529166,1.37253 -0.529166,1.2733 0.529166,1.32292"
           id="path178599-9-1-5-1-5-8-8"
           sodipodi:nodetypes="ccccc" />
      </g>
      <g
         id="g260047-6"
         style="fill:#ececec;fill-opacity:1"
         transform="translate(-212.56737,-187.94513)">
        <path
           style="fill:#ececec;fill-opacity:1;stroke:#000000;stroke-width:0.0182188;stroke-linecap:round;stroke-linejoin:miter;stroke-dasharray:none;stroke-opacity:1"
           d="m 221.97617,287.17964 c -0.0996,0.10459 -0.20978,0.20485 -0.3029,0.31201 0.44022,0.42683 0.86546,0.87226 1.31994,1.28255 0.0874,-0.18337 0.15463,-0.37978 0.23031,-0.56892 -0.098,-0.22684 -0.17809,-0.46543 -0.28649,-0.68535 -0.21986,-0.21428 -0.43545,-0.43891 -0.65793,-0.6468 -0.10098,0.10219 -0.20195,0.20438 -0.30295,0.30652 z"
           id="path178607-2-8-3-7-5-1-9" />
        <path
           style="fill:#ececec;fill-opacity:1;stroke:#000000;stroke-width:0.0182188;stroke-linecap:round;stroke-linejoin:miter;stroke-dasharray:none;stroke-opacity:1"
           d="m 221.55549,287.6055 c -0.21912,0.2303 -0.45565,0.44923 -0.66419,0.68646 -0.0858,0.22118 -0.17437,0.44185 -0.25844,0.66335 0.0792,0.18973 0.144,0.38731 0.23612,0.57073 0.4445,-0.42417 0.87016,-0.87446 1.30589,-1.31007 -0.19914,-0.2053 -0.4112,-0.41445 -0.61933,-0.61049 z"
           id="path178609-0-6-6-0-7-2-2" />
        <path
           style="fill:#ececec;fill-opacity:1;stroke:#000000;stroke-width:0.0182188;stroke-linecap:round;stroke-linejoin:miter;stroke-dasharray:none;stroke-opacity:1"
           d="m 221.98567,288.63482 c -0.0996,0.10458 -0.20978,0.20484 -0.3029,0.312 0.44022,0.42683 0.86545,0.87227 1.31994,1.28256 0.0874,-0.18337 0.15463,-0.37978 0.23031,-0.56893 -0.098,-0.22684 -0.17809,-0.46542 -0.28649,-0.68534 -0.21987,-0.21428 -0.43545,-0.43891 -0.65794,-0.6468 -0.10097,0.10219 -0.20194,0.20438 -0.30294,0.30652 z"
           id="path178611-8-7-4-2-3-2-9" />
        <path
           style="fill:#ececec;fill-opacity:1;stroke:#000000;stroke-width:0.0182188;stroke-linecap:round;stroke-linejoin:miter;stroke-dasharray:none;stroke-opacity:1"
           d="m 221.24793,289.38225 c -0.12571,0.15175 -0.31957,0.25849 -0.3737,0.45759 -0.0766,0.18937 -0.15617,0.37817 -0.23097,0.56791 0.0778,0.1813 0.14436,0.37101 0.22849,0.54776 0.10251,-0.0331 0.16779,-0.14584 0.25152,-0.21165 0.35426,-0.35781 0.71486,-0.71533 1.06083,-1.0776 -0.20665,-0.20055 -0.40904,-0.41155 -0.6183,-0.60563 -0.10596,0.10717 -0.21189,0.21441 -0.31785,0.32161 z"
           id="path178613-5-0-1-1-7-1-2" />
        <path
           style="fill:#ececec;fill-opacity:1;stroke:#000000;stroke-width:0.0182188;stroke-linecap:round;stroke-linejoin:miter;stroke-dasharray:none;stroke-opacity:1"
           d="m 221.99517,290.09 c -0.0996,0.10458 -0.20978,0.20484 -0.3029,0.312 0.44021,0.42683 0.86545,0.87226 1.31993,1.28256 0.0874,-0.18337 0.15464,-0.37977 0.23032,-0.56893 -0.098,-0.22684 -0.17809,-0.46542 -0.2865,-0.68534 -0.21986,-0.21428 -0.43545,-0.43892 -0.65793,-0.64681 -0.10097,0.1022 -0.20195,0.20439 -0.30294,0.30653 z"
           id="path178615-1-6-6-6-0-5-8" />
        <path
           style="fill:#ececec;fill-opacity:1;stroke:#000000;stroke-width:0.0182188;stroke-linecap:round;stroke-linejoin:miter;stroke-dasharray:none;stroke-opacity:1"
           d="m 221.57449,290.51585 c -0.21913,0.23031 -0.45566,0.44924 -0.66419,0.68646 -0.0858,0.22119 -0.17438,0.44185 -0.25845,0.66335 0.0792,0.18973 0.144,0.38732 0.23612,0.57073 0.4445,-0.42416 0.87015,-0.87445 1.30589,-1.31006 -0.19913,-0.20531 -0.4112,-0.41445 -0.61933,-0.6105 z"
           id="path178617-9-6-4-9-6-1-8" />
        <path
           style="fill:#ececec;fill-opacity:1;stroke:#000000;stroke-width:0.0182188;stroke-linecap:round;stroke-linejoin:miter;stroke-dasharray:none;stroke-opacity:1"
           d="m 222.00467,291.54519 c -0.0996,0.10458 -0.20983,0.20474 -0.30291,0.31199 0.44022,0.42683 0.86545,0.87226 1.31994,1.28255 0.0874,-0.18337 0.15463,-0.37977 0.23031,-0.56892 -0.098,-0.22684 -0.17809,-0.46542 -0.28649,-0.68534 -0.21986,-0.21429 -0.43545,-0.43892 -0.65793,-0.64681 -0.10098,0.10219 -0.20195,0.20438 -0.30294,0.30653 z"
           id="path178619-4-4-3-5-5-4-4" />
        <path
           style="fill:#ececec;fill-opacity:1;stroke:#000000;stroke-width:0.0182188;stroke-linecap:round;stroke-linejoin:miter;stroke-dasharray:none;stroke-opacity:1"
           d="m 221.26693,292.2926 c -0.12571,0.15176 -0.31958,0.25849 -0.37371,0.4576 -0.0766,0.18936 -0.15616,0.37816 -0.23097,0.5679 0.0779,0.18132 0.14436,0.37101 0.22849,0.54777 0.10251,-0.0331 0.1678,-0.14584 0.25152,-0.21165 0.35426,-0.35783 0.71486,-0.71535 1.06083,-1.07762 -0.20665,-0.20054 -0.40903,-0.41153 -0.6183,-0.60563 -0.10597,0.10717 -0.2119,0.21442 -0.31785,0.32161 z"
           id="path178621-6-3-8-3-5-4-3" />
        <path
           style="fill:#ececec;fill-opacity:1;stroke:#000000;stroke-width:0.0182188;stroke-linecap:round;stroke-linejoin:miter;stroke-dasharray:none;stroke-opacity:1"
           d="m 222.01416,293.00036 c -0.0996,0.10458 -0.20982,0.20474 -0.3029,0.31199 0.44022,0.42683 0.86544,0.87227 1.31993,1.28256 0.0874,-0.18337 0.15464,-0.37977 0.23032,-0.56893 -0.098,-0.22684 -0.17809,-0.46541 -0.28649,-0.68534 -0.21987,-0.21428 -0.43546,-0.43891 -0.65794,-0.6468 -0.10097,0.10219 -0.20195,0.20438 -0.30294,0.30653 z"
           id="path178623-8-8-3-2-8-7-4" />
        <path
           style="fill:#ececec;fill-opacity:1;stroke:#000000;stroke-width:0.0182188;stroke-linecap:round;stroke-linejoin:miter;stroke-dasharray:none;stroke-opacity:1"
           d="m 221.59348,293.42621 c -0.21913,0.2303 -0.45566,0.44923 -0.66419,0.68646 -0.0858,0.22118 -0.17437,0.44184 -0.25845,0.66334 0.0792,0.18973 0.144,0.38732 0.23613,0.57073 0.4445,-0.42416 0.87014,-0.87445 1.30588,-1.31006 -0.19913,-0.20531 -0.4112,-0.41445 -0.61933,-0.61049 z"
           id="path178625-9-0-4-2-7-9-1" />
        <path
           style="fill:#ececec;fill-opacity:1;stroke:#000000;stroke-width:0.0182188;stroke-linecap:round;stroke-linejoin:miter;stroke-dasharray:none;stroke-opacity:1"
           d="m 222.02366,294.45554 c -0.0996,0.10458 -0.20978,0.20484 -0.30291,0.31199 0.44022,0.42683 0.86545,0.87227 1.31994,1.28256 0.0874,-0.18337 0.15464,-0.37977 0.23031,-0.56893 -0.098,-0.22684 -0.17808,-0.46542 -0.28649,-0.68534 -0.21986,-0.21428 -0.43545,-0.43891 -0.65793,-0.64681 -0.10097,0.1022 -0.20195,0.20439 -0.30294,0.30654 z"
           id="path178627-2-2-4-7-9-5-1" />
        <path
           style="fill:#ececec;fill-opacity:1;stroke:#000000;stroke-width:0.0182188;stroke-linecap:round;stroke-linejoin:miter;stroke-dasharray:none;stroke-opacity:1"
           d="m 221.28592,295.20297 c -0.12571,0.15175 -0.31958,0.25849 -0.37371,0.45758 -0.0766,0.18937 -0.15616,0.37816 -0.23097,0.56791 0.0778,0.18131 0.14437,0.37101 0.22849,0.54776 0.10252,-0.0331 0.1678,-0.14584 0.25152,-0.21164 0.35426,-0.35783 0.71486,-0.71535 1.06083,-1.07762 -0.20665,-0.20055 -0.40903,-0.41154 -0.61831,-0.60563 -0.10595,0.10716 -0.21188,0.21441 -0.31783,0.32162 z"
           id="path178629-8-8-1-4-8-0-0" />
        <path
           style="fill:#ececec;fill-opacity:1;stroke:#000000;stroke-width:0.0182188;stroke-linecap:round;stroke-linejoin:miter;stroke-dasharray:none;stroke-opacity:1"
           d="m 222.03316,295.91072 c -0.0996,0.10458 -0.20978,0.20484 -0.30291,0.31199 0.44022,0.42683 0.86545,0.87226 1.31994,1.28255 0.0874,-0.18337 0.15463,-0.37977 0.23031,-0.56892 -0.098,-0.22684 -0.17809,-0.46542 -0.28649,-0.68534 -0.21986,-0.21429 -0.43545,-0.43892 -0.65794,-0.64681 -0.10097,0.10219 -0.20194,0.20438 -0.30293,0.30654 z"
           id="path178631-9-2-9-1-3-7-18" />
        <path
           style="fill:#ececec;fill-opacity:1;stroke:#000000;stroke-width:0.0182188;stroke-linecap:round;stroke-linejoin:miter;stroke-dasharray:none;stroke-opacity:1"
           d="m 221.61247,296.33656 c -0.21913,0.23031 -0.45565,0.44924 -0.66418,0.68647 -0.0856,0.22079 -0.17404,0.44106 -0.258,0.66216 0.0403,0.0992 0.0742,0.2032 0.11745,0.2999 0.13431,-0.001 0.26923,5e-5 0.40316,-0.003 0.33899,-0.34724 0.6883,-0.6903 1.0208,-1.0402 -0.20692,-0.20034 -0.40972,-0.41119 -0.61927,-0.60499 z"
           id="path178633-7-3-3-6-9-6-3" />
        <path
           style="fill:#ececec;fill-opacity:1;stroke:#000000;stroke-width:0.0182188;stroke-linecap:round;stroke-linejoin:miter;stroke-dasharray:none;stroke-opacity:1"
           d="m 221.89346,297.51705 c -0.14689,0.15523 -0.31489,0.30651 -0.44875,0.46429 0.54186,-0.007 1.08974,-9e-4 1.62785,-0.0153 -0.0341,-0.12051 -0.0272,-0.26396 -0.14777,-0.33657 -0.19394,-0.18869 -0.38361,-0.38775 -0.5802,-0.57002 -0.15049,0.15261 -0.30102,0.30516 -0.45152,0.45775 z"
           id="path178635-5-0-1-2-4-2-9" />
        <path
           style="fill:#ececec;fill-opacity:1;stroke:#000000;stroke-width:0.0182188;stroke-linecap:round;stroke-linejoin:miter;stroke-dasharray:none;stroke-opacity:1"
           d="m 222.10862,298.71955 c -0.41423,0.006 -0.8304,0.005 -1.24343,0.0151 -0.0547,0.13454 -0.1124,0.26838 -0.16531,0.40322 0.0998,0.23094 0.18324,0.47274 0.29362,0.69683 0.4274,0.42772 0.83903,0.87303 1.2821,1.2841 0.37898,-0.44428 0.73175,-0.91582 1.09788,-1.37263 0.0858,-0.22387 0.17689,-0.44716 0.25953,-0.6714 -0.0951,-0.12227 -0.18762,-0.24778 -0.28443,-0.36803 -0.41331,0.004 -0.82661,0.008 -1.23992,0.0128 z"
           id="path178637-3-1-4-4-0-3-55" />
      </g>
      <rect
         style="fill:#666666;fill-opacity:1;stroke:#000000;stroke-width:0.14575;stroke-linecap:round;stroke-linejoin:miter;stroke-dasharray:none;stroke-opacity:1"
         id="rect178603-2-8-7-2-8-8-1"
         width="2.7648959"
         height="0.58208328"
         x="7.3735342"
         y="110.17293"
         transform="rotate(-0.37389303)" />
    </g>
    <g
       id="g84336-9-7-4"
       transform="matrix(-1.0590469,0,0,1.0590469,76.740893,-36.430163)">
      <path
         style="fill:#a5e2eb;fill-opacity:1;fill-rule:evenodd;stroke:#000000;stroke-width:0.214312px;stroke-linecap:butt;stroke-linejoin:miter;stroke-opacity:1"
         d="m 56.820143,126.11924 c -1.939481,-1.01182 -2.292761,-1.22026 -3.804643,-2.3181 0.0073,0.35777 0.102137,0.75899 0.246905,1.16542 0.06026,0.16919 -0.954645,0.56511 -0.879787,0.73333 0.05346,0.12014 1.193768,0.0135 1.252295,0.13072 0.187682,0.37592 0.396363,0.73176 0.593478,1.03438 -0.335453,0.86952 -0.192985,0.78836 -0.453183,1.12183 0.08669,0.10488 1.092122,-0.27086 1.169114,-0.1866 0.181634,0.19884 0.339312,0.34428 0.487339,0.45457 0.428187,0.31901 0.775617,0.34388 1.388482,0.5164"
         id="path84332-9-6-8"
         sodipodi:nodetypes="cccccccccc" />
      <path
         style="fill:#f6b8f6;fill-opacity:1;fill-rule:evenodd;stroke:#000000;stroke-width:0.214312px;stroke-linecap:butt;stroke-linejoin:miter;stroke-opacity:1"
         d="m 58.128013,127.55394 c -1.939481,-1.01182 -2.757111,-1.58009 -4.268992,-2.67793 0.0039,1.36052 1.891689,3.41299 2.857932,3.43494 1.385201,0.0315 0.496513,1.63753 1.41106,1.89498"
         id="path84334-4-3-9"
         sodipodi:nodetypes="ccsc" />
    </g>
    <g
       id="g84330-3-9-6"
       transform="matrix(1.0590469,0,0,1.0590469,-55.344602,-36.430163)">
      <path
         style="fill:#a5e2eb;fill-opacity:1;fill-rule:evenodd;stroke:#000000;stroke-width:0.214312px;stroke-linecap:butt;stroke-linejoin:miter;stroke-opacity:1"
         d="m 56.820143,126.11924 c -1.939481,-1.01182 -2.292761,-1.22026 -3.804643,-2.3181 0.0073,0.35777 0.102137,0.75899 0.246905,1.16542 0.06026,0.16919 -0.954645,0.56511 -0.879787,0.73333 0.05346,0.12014 1.193768,0.0135 1.252295,0.13072 0.187682,0.37592 0.396363,0.73176 0.593478,1.03438 -0.335453,0.86952 -0.192985,0.78836 -0.453183,1.12183 0.08669,0.10488 1.092122,-0.27086 1.169114,-0.1866 0.181634,0.19884 0.339312,0.34428 0.487339,0.45457 0.428187,0.31901 0.775617,0.34388 1.388482,0.5164"
         id="path62374-6-9-1-0"
         sodipodi:nodetypes="cccccccccc" />
      <path
         style="fill:#f6b8f6;fill-opacity:1;fill-rule:evenodd;stroke:#000000;stroke-width:0.214312px;stroke-linecap:butt;stroke-linejoin:miter;stroke-opacity:1"
         d="m 58.128013,127.55394 c -1.939481,-1.01182 -2.757111,-1.58009 -4.268992,-2.67793 0.0039,1.36052 1.891689,3.41299 2.857932,3.43494 1.385201,0.0315 0.496513,1.63753 1.41106,1.89498"
         id="path84326-0-4-9"
         sodipodi:nodetypes="ccsc" />
    </g>
    <path
       id="path61862-2-5-0-6"
       style="fill:#a5ebd6;fill-opacity:1;stroke:#000000;stroke-width:0.608672;stroke-linecap:butt;stroke-linejoin:miter;stroke-miterlimit:4;stroke-dasharray:none;stroke-opacity:1"
       d="m 10.892733,92.345654 c -4.675557,-0.89646 -7.904738,4.76135 -6.098909,8.756046 0.677459,3.64228 4.794311,7.36267 8.504757,5.18924 3.559977,-2.16473 4.704054,-7.095126 3.521418,-10.885396 -0.994322,-2.31783 -3.518381,-3.35473 -5.927266,-3.05989 z"
       sodipodi:nodetypes="sssscsssscssssss" />
    <path
       sodipodi:nodetypes="csc"
       inkscape:connector-curvature="0"
       id="path3201-1-4-1-0"
       d="m 10.057129,100.18652 c 0.135432,0.52502 0.200459,2.83703 0.846393,2.8567 0.825018,0.0251 0.69302,-2.17582 0.846377,-2.86617"
       style="fill:none;stroke:#000000;stroke-width:0.3048;stroke-linecap:butt;stroke-linejoin:miter;stroke-miterlimit:4;stroke-dasharray:none;stroke-opacity:1" />
    <path
       sodipodi:nodetypes="csc"
       inkscape:connector-curvature="0"
       id="path3203-5-0-1-1"
       d="m 9.767659,104.26599 c 0,0 0.175519,0.008 1.211631,0.008 1.036111,0 1.16725,0.0454 1.16725,0.0454"
       style="fill:none;stroke:#000000;stroke-width:0.3048;stroke-linecap:butt;stroke-linejoin:miter;stroke-miterlimit:4;stroke-dasharray:none;stroke-opacity:1" />
    <g
       id="g66722-2-9-9-4"
       transform="matrix(0.81,0,0,0.81,-105.15459,20.573916)">
      <path
         sodipodi:nodetypes="ccc"
         inkscape:connector-curvature="0"
         id="path8153-7-4-8-9-7-0"
         d="m 141.6289,98.049468 -0.49976,-0.502327 c -0.67061,-0.286579 -1.34123,-0.274634 -2.01184,0"
         style="fill:none;stroke:#000000;stroke-width:0.502327px;stroke-linecap:butt;stroke-linejoin:miter;stroke-opacity:1" />
      <path
         sodipodi:nodetypes="csssccc"
         inkscape:connector-curvature="0"
         id="path8157-2-40-8-1-7-4"
         d="m 141.04679,97.567348 c 0.0707,0.11478 0.26352,0.331815 0.26352,0.476539 0,0.416108 -0.48935,0.671626 -0.90549,0.671626 -0.41616,0 -0.99905,-0.372448 -0.99905,-0.788556 0,-0.148647 0.28865,-0.252223 0.36292,-0.368951 0.14405,-0.175476 0.47549,-0.232273 1.2781,0.0093 z"
         style="fill:#ffffff;stroke:#000000;stroke-width:0.251163;stroke-miterlimit:4;stroke-dashoffset:0;stroke-opacity:1" />
      <circle
         r="0.2511633"
         cy="98.002426"
         cx="140.37302"
         id="path8184-9-9-0-9-0-1"
         style="fill:#000000;fill-opacity:1;fill-rule:nonzero;stroke:#000000;stroke-width:0.251163;stroke-miterlimit:4;stroke-dasharray:none;stroke-dashoffset:0;stroke-opacity:1" />
    </g>
    <g
       id="g66728-9-0-8-5"
       transform="matrix(0.81,0,0,0.81,-104.98046,20.573916)">
      <path
         sodipodi:nodetypes="ccc"
         inkscape:connector-curvature="0"
         id="path8155-4-7-2-3-1-9"
         d="m 144.66971,98.049468 0.55646,-0.502327 c 0.75341,-0.305064 1.38854,-0.255274 1.95518,0"
         style="fill:none;stroke:#000000;stroke-width:0.502327px;stroke-linecap:butt;stroke-linejoin:miter;stroke-opacity:1" />
      <g
         id="g66717-6-1-7-8"
         transform="translate(0.52916667)">
        <path
           sodipodi:nodetypes="csssccc"
           inkscape:connector-curvature="0"
           id="path8157-4-2-5-7-8-1-6"
           d="m 146.07007,97.567292 c 0.0707,0.114779 0.48568,0.249964 0.48568,0.394687 0,0.416137 -0.71152,0.753477 -1.12768,0.753477 -0.41614,0 -0.94057,-0.278875 -0.94057,-0.695012 0,-0.148646 0.23009,-0.345739 0.30447,-0.462494 0.4594,-0.205422 0.90585,-0.329946 1.2781,0.0093 z"
           style="fill:#ffffff;stroke:#000000;stroke-width:0.251163;stroke-miterlimit:4;stroke-dashoffset:0;stroke-opacity:1" />
        <circle
           r="0.2511633"
           cy="98.002426"
           cx="145.41222"
           id="path8184-1-7-2-3-1-2-7"
           style="fill:#000000;fill-opacity:1;fill-rule:nonzero;stroke:#000000;stroke-width:0.251163;stroke-miterlimit:4;stroke-dasharray:none;stroke-dashoffset:0;stroke-opacity:1" />
      </g>
    </g>
    <path
       style="fill:#ececec;fill-opacity:1;stroke:#000000;stroke-width:0.264583;stroke-linecap:butt;stroke-linejoin:miter;stroke-dasharray:none;stroke-opacity:1"
       d="m 3.511527,97.925314 c 4.023351,-0.67056 5.699743,-1.14723 7.376152,-2.82362 v -4.35865 c -6.081807,0.17135 -8.046718,2.48835 -7.376152,7.18227 z"
       id="path62001-0-2-0-3"
       inkscape:connector-curvature="0"
       sodipodi:nodetypes="cccc" />
    <path
       sodipodi:nodetypes="cccc"
       inkscape:connector-curvature="0"
       id="path62003-7-8-4-7"
       d="m 18.26383,97.925314 c -4.023351,-0.67056 -5.871414,-1.09321 -7.376151,-2.82362 v -4.35865 c 5.94149,0.17135 8.046718,2.48835 7.376151,7.18227 z"
       style="fill:#ececec;fill-opacity:1;stroke:#000000;stroke-width:0.264583;stroke-linecap:butt;stroke-linejoin:miter;stroke-dasharray:none;stroke-opacity:1" />
    <g
       id="g64679">
      <ellipse
         style="fill:#ffffff;fill-opacity:1;stroke:#333333;stroke-width:0;stroke-linecap:round;stroke-linejoin:round;stroke-opacity:1"
         id="path79031-1-3-3"
         cx="42.491615"
         cy="91.211662"
         rx="0.84189904"
         ry="0.35079125"
         transform="rotate(21.47882)" />
      <ellipse
         style="fill:#ffffff;fill-opacity:1;stroke:#333333;stroke-width:0;stroke-linecap:round;stroke-linejoin:round;stroke-opacity:1"
         id="path79087-6-7-8"
         cx="9.0446625"
         cy="102.08994"
         rx="0.25724691"
         ry="0.16370259" />
      <ellipse
         style="fill:#ffffff;fill-opacity:1;stroke:#333333;stroke-width:0;stroke-linecap:round;stroke-linejoin:round;stroke-opacity:1"
         id="path79089-3-8-3"
         cx="82.26088"
         cy="61.406151"
         rx="0.56126595"
         ry="0.25724691"
         transform="rotate(49.208401)" />
      <ellipse
         style="fill:#ffffff;fill-opacity:1;stroke:#333333;stroke-width:0;stroke-linecap:round;stroke-linejoin:round;stroke-opacity:1"
         id="path79091-6-8-4"
         cx="9.540062"
         cy="105.55802"
         rx="0.37417734"
         ry="0.28063297" />
      <ellipse
         style="fill:#ffffff;fill-opacity:1;stroke:#333333;stroke-width:0;stroke-linecap:round;stroke-linejoin:round;stroke-opacity:1"
         id="path79093-9-0-3"
         cx="7.8654289"
         cy="104.16729"
         rx="0.56126595"
         ry="0.35079125" />
      <ellipse
         style="fill:#ffffff;fill-opacity:1;stroke:#333333;stroke-width:0;stroke-linecap:round;stroke-linejoin:round;stroke-opacity:1"
         id="ellipse79095-3-1-2"
         cx="22.348692"
         cy="99.137566"
         rx="0.84189904"
         ry="0.35079125"
         transform="matrix(-0.93055299,0.36615726,0.36615726,0.93055299,0,0)" />
      <ellipse
         style="fill:#ffffff;fill-opacity:1;stroke:#333333;stroke-width:0;stroke-linecap:round;stroke-linejoin:round;stroke-opacity:1"
         id="ellipse79097-7-2-8"
         cx="-12.601521"
         cy="102.08994"
         rx="0.25724691"
         ry="0.16370259"
         transform="scale(-1,1)" />
      <ellipse
         style="fill:#ffffff;fill-opacity:1;stroke:#333333;stroke-width:0;stroke-linecap:round;stroke-linejoin:round;stroke-opacity:1"
         id="ellipse79099-0-3-1"
         cx="68.119225"
         cy="77.794281"
         rx="0.56126595"
         ry="0.25724691"
         transform="matrix(-0.6533096,0.75709086,0.75709086,0.6533096,0,0)" />
      <ellipse
         style="fill:#ffffff;fill-opacity:1;stroke:#333333;stroke-width:0;stroke-linecap:round;stroke-linejoin:round;stroke-opacity:1"
         id="ellipse79101-1-2-4"
         cx="-12.106121"
         cy="105.55802"
         rx="0.37417734"
         ry="0.28063297"
         transform="scale(-1,1)" />
      <ellipse
         style="fill:#ffffff;fill-opacity:1;stroke:#333333;stroke-width:0;stroke-linecap:round;stroke-linejoin:round;stroke-opacity:1"
         id="ellipse79103-6-2-3"
         cx="-13.780758"
         cy="104.16729"
         rx="0.56126595"
         ry="0.35079125"
         transform="scale(-1,1)" />
      <ellipse
         style="fill:#ffffff;fill-opacity:1;stroke:#333333;stroke-width:0;stroke-linecap:round;stroke-linejoin:round;stroke-opacity:1"
         id="path79105-5-7-9"
         cx="-15.377729"
         cy="97.049934"
         rx="0.67799479"
         ry="0.31419271"
         transform="rotate(-14.023381)" />
      <ellipse
         style="fill:#ffffff;fill-opacity:1;stroke:#333333;stroke-width:0;stroke-linecap:round;stroke-linejoin:round;stroke-opacity:1"
         id="path79107-6-9-3"
         cx="42.358879"
         cy="89.259804"
         rx="0.97565103"
         ry="0.29765624"
         transform="rotate(17.789753)" />
      <ellipse
         style="fill:#ffffff;fill-opacity:1;stroke:#333333;stroke-width:0;stroke-linecap:round;stroke-linejoin:round;stroke-opacity:1"
         id="path79109-1-2-0"
         cx="10.829922"
         cy="98.016151"
         rx="0.66145831"
         ry="0.18190104" />
    </g>
  </g>
</svg>
