<svg xmlns="http://www.w3.org/2000/svg" width="64" height="64" viewBox="68.8627972367411 15.12228172224745 24.19047282881526 24.19047282881526"><defs>
    <inkscape:path-effect xmlns:inkscape="http://www.inkscape.org/namespaces/inkscape" effect="skeletal" is_visible="true" pattern="M -3.4166906,58.569047 1.8423711,56.546332 1.957973,58.222305" copytype="repeated_stretched" prop_scale="1" scale_y_rel="false" spacing="-0.2" normal_offset="0" tang_offset="0" prop_units="false" vertical_pattern="false" fuse_tolerance="0" lpeversion="0" hide_knot="false"/>
  </defs><g transform="translate(13.488945,-75.969979)">
      <path style="fill:#b3b3b3;stroke:#000000;stroke-width:0.264583;stroke-linecap:round;stroke-linejoin:round" d="m 58.208333,104.51041 c 0,-6.614577 3.949461,-10.780833 9.260417,-11.906243 5.291667,1.322916 9.289983,5.365726 9.260417,11.906243 z"/>
      <path style="fill:#b3b3b3;stroke:#000000;stroke-width:0.273869;stroke-linecap:round;stroke-linejoin:round" d="m 76.729167,103.45208 c 0.01316,0.21647 0.04888,1.50525 10e-7,1.71979 -1.354619,5.94535 -4.146031,8.59896 -9.260418,8.59896 -5.114387,0 -7.9375,-2.64583 -9.260416,-8.59896 -0.04743,-0.21343 -0.013,-1.24008 -10e-7,-1.4552 l 1.405446,0.8041 6.529685,-0.002 1.325287,-1.33185 1.341608,1.33126 6.595891,-0.008 z"/>
      <rect style="fill:#000000;fill-opacity:1;stroke:#000000;stroke-width:0.264583;stroke-linecap:round;stroke-linejoin:round;stroke-dasharray:none;stroke-opacity:1" width="0.52916461" height="2.6458313" x="60.854168" y="106.3625" ry="0.26458332"/>
      <rect style="fill:#000000;fill-opacity:1;stroke:#000000;stroke-width:0.264583;stroke-linecap:round;stroke-linejoin:round;stroke-dasharray:none;stroke-opacity:1" width="0.52916336" height="4.1424837" x="62.354168" y="106.3625" ry="0.26458332"/>
      <rect style="fill:#000000;fill-opacity:1;stroke:#000000;stroke-width:0.264583;stroke-linecap:round;stroke-linejoin:round;stroke-dasharray:none;stroke-opacity:1" width="0.52916336" height="5.1602097" x="63.854168" y="106.3625" ry="0.26458332"/>
      <rect style="fill:#000000;fill-opacity:1;stroke:#000000;stroke-width:0.264583;stroke-linecap:round;stroke-linejoin:round;stroke-dasharray:none;stroke-opacity:1" width="0.52916718" height="5.8486714" x="65.354172" y="106.3625" ry="0.26458332"/>
      <rect style="fill:#000000;fill-opacity:1;stroke:#000000;stroke-width:0.264583;stroke-linecap:round;stroke-linejoin:round;stroke-dasharray:none;stroke-opacity:1" width="0.52916718" height="6.1026616" x="67.204163" y="106.3625" ry="0.26458332"/>
      <rect style="fill:#000000;fill-opacity:1;stroke:#000000;stroke-width:0.264583;stroke-linecap:round;stroke-linejoin:round;stroke-dasharray:none;stroke-opacity:1" width="0.52916461" height="2.6458313" x="-74.055077" y="106.3625" ry="0.26458332" transform="scale(-1,1)"/>
      <rect style="fill:#000000;fill-opacity:1;stroke:#000000;stroke-width:0.264583;stroke-linecap:round;stroke-linejoin:round;stroke-dasharray:none;stroke-opacity:1" width="0.52916336" height="4.1424837" x="-72.555077" y="106.3625" ry="0.26458332" transform="scale(-1,1)"/>
      <rect style="fill:#000000;fill-opacity:1;stroke:#000000;stroke-width:0.264583;stroke-linecap:round;stroke-linejoin:round;stroke-dasharray:none;stroke-opacity:1" width="0.52916336" height="5.1602097" x="-71.055077" y="106.3625" ry="0.26458332" transform="scale(-1,1)"/>
      <rect style="fill:#000000;fill-opacity:1;stroke:#000000;stroke-width:0.264583;stroke-linecap:round;stroke-linejoin:round;stroke-dasharray:none;stroke-opacity:1" width="0.52916718" height="5.8486714" x="-69.555077" y="106.3625" ry="0.26458332" transform="scale(-1,1)"/>
      <path style="fill:none;fill-rule:evenodd;stroke:#000000;stroke-width:0.264583px;stroke-linecap:butt;stroke-linejoin:miter;stroke-opacity:1" d="m 58.208333,102.65833 c 0,0 6.148927,0.52861 9.230969,0.52917 3.101641,5.6e-4 9.289864,-0.52917 9.289864,-0.52917"/>
      <path style="fill:#000000;fill-opacity:1;stroke:#000000;stroke-width:0.159994;stroke-linecap:round;stroke-linejoin:round;stroke-dasharray:none;stroke-opacity:1" d="m 220.98863,388.69885 c -0.31919,0.88781 -0.21536,2.05171 -0.33187,3.01958 1.65412,0.88566 3.2428,2.01013 4.93514,2.75658 8.06043,5.6e-4 16.12504,0.022 24.18288,0.01 1.24318,-1.28829 2.62321,-2.54704 3.78174,-3.85361 -5.96645,-0.36147 -11.94947,-0.4519 -17.91071,-0.92314 -4.88822,-0.29721 -9.76653,-0.76427 -14.65718,-1.00898 z" transform="scale(0.26458333)"/>
      <path style="fill:#000000;fill-opacity:1;stroke:#000000;stroke-width:0.159994;stroke-linecap:round;stroke-linejoin:round;stroke-dasharray:none;stroke-opacity:1" d="m 288.54401,388.7626 c -9.5664,0.51601 -19.11178,1.45775 -28.69564,1.65577 -1.11335,0.0675 -2.3065,0.0271 -3.36258,0.2551 1.27478,1.27075 2.53775,2.55911 3.81986,3.81893 8.1427,-0.004 16.28815,0.008 24.42912,-0.006 1.52616,-1.23385 3.07829,-2.44807 4.58828,-3.69424 -0.14368,-0.62652 0.0524,-1.49469 -0.33562,-2.02087 -0.14727,-0.0155 -0.29566,-0.009 -0.44342,-0.009 z" transform="scale(0.26458333)"/>
    </g></svg>
