<svg xmlns="http://www.w3.org/2000/svg" width="64" height="64" viewBox="44.67899862316915 66.81719455948796 26.949156921804875 26.949156921804875"><defs>
    <inkscape:path-effect xmlns:inkscape="http://www.inkscape.org/namespaces/inkscape" effect="skeletal" is_visible="true" pattern="M -3.4166906,58.569047 1.8423711,56.546332 1.957973,58.222305" copytype="repeated_stretched" prop_scale="1" scale_y_rel="false" spacing="-0.2" normal_offset="0" tang_offset="0" prop_units="false" vertical_pattern="false" fuse_tolerance="0" lpeversion="0" hide_knot="false"/>
  </defs><g transform="translate(-22.012543)">
      <g transform="matrix(0.28222223,0,0,0.28222223,-2574.0291,446.39128)">
        <path d="m 9377.4699,-1299.7248 c 1.3124,11.4563 5.9379,23.3379 11.5303,29.087 1.3145,1.3514 2.6828,2.3358 4.0721,3.0525 1.3273,0.6847 2.6738,1.1251 4.0105,1.4075 1.9174,1.54 5.5325,2.4911 7.9755,2.4911 2.4374,0 5.9419,-0.9511 8.0303,-2.5485 1.3484,-0.3014 2.7075,-0.7658 4.0457,-1.4798 1.3191,-0.7039 2.6178,-1.6504 3.8659,-2.9228 5.6377,-5.7474 10.2649,-17.5569 11.6465,-29.087 2.0466,-17.0806 -10.3857,-30.2583 -27.5884,-30.2583 -17.2027,0 -29.5464,13.1673 -27.5884,30.2583 z" style="fill:#efd2c3;fill-opacity:1;fill-rule:nonzero;stroke:#000000;stroke-width:2;stroke-miterlimit:4;stroke-dasharray:none;stroke-dashoffset:0;stroke-opacity:1"/>
        <g transform="translate(837.33489,-682.93297)">
          <path style="fill:none;stroke:#000000;stroke-width:1.7799px;stroke-linecap:butt;stroke-linejoin:miter;stroke-opacity:1" d="m 8563.2882,-618.57175 -1.7708,-1.7799 h -5.2815 -1.8471"/>
          <path style="fill:none;stroke:#000000;stroke-width:1.7799px;stroke-linecap:butt;stroke-linejoin:miter;stroke-opacity:1" d="m 8572.1877,-618.57175 1.9717,-1.7799 h 6.9278"/>
          <path style="fill:#ffffff;stroke:#000000;stroke-width:0.889949;stroke-miterlimit:4;stroke-dashoffset:0;stroke-opacity:1" d="m 8561.2256,-620.28009 c 0.2506,0.4067 0.3951,0.88567 0.3951,1.39846 0,1.47447 -1.1953,2.66985 -2.6698,2.66985 -1.4746,0 -2.6699,-1.19538 -2.6699,-2.66985 0,-0.52667 0.1526,-1.01792 0.4159,-1.43157 z"/>
          <path style="fill:#ffffff;stroke:#000000;stroke-width:0.889949;stroke-miterlimit:4;stroke-dashoffset:0;stroke-opacity:1" d="m 8579.0246,-620.28027 c 0.2505,0.4067 0.3951,0.88567 0.3951,1.39846 0,1.47447 -1.1953,2.66985 -2.6699,2.66985 -1.4745,0 -2.6698,-1.19538 -2.6698,-2.66985 0,-0.52667 0.1525,-1.01792 0.4159,-1.43157 z"/>
          <circle style="fill:#000000;fill-opacity:1;fill-rule:nonzero;stroke:#000000;stroke-width:0.889949;stroke-miterlimit:4;stroke-dasharray:none;stroke-dashoffset:0;stroke-opacity:1" cx="8468.8379" cy="-703.56268" r="0.88994873" transform="translate(89.999959,85.000024)"/>
          <circle style="fill:#000000;fill-opacity:1;fill-rule:nonzero;stroke:#000000;stroke-width:0.889949;stroke-miterlimit:4;stroke-dasharray:none;stroke-dashoffset:0;stroke-opacity:1" cx="8486.6934" cy="-703.56268" r="0.88994873" transform="translate(89.999959,85.000024)"/>
        </g>
        <path d="m 9397.0636,-1281.9259 h 3.5597 8.8995 3.5598" style="fill:none;stroke:#000000;stroke-width:1.7799px;stroke-linecap:butt;stroke-linejoin:miter;stroke-opacity:1"/>
        <path d="m 9402.4032,-1298.1674 -1.403,10.5296 4,1 4,-1 -1.2573,-10.5296" style="fill:none;stroke:#000000;stroke-width:1.7799px;stroke-linecap:butt;stroke-linejoin:miter;stroke-opacity:1"/>
        <path d="m 9404.4765,-1332.9839 c -7.6989,0.091 -15.4631,2.8527 -21.056,8.2295 -3.3625,3.2257 -5.946,7.3004 -7.3277,11.7573 0.4216,2.7757 0.7331,5.5746 1.2596,8.3306 0.3034,0.1291 0.5441,-0.3635 0.8124,-0.4745 4.5939,-3.6178 9.1457,-7.2903 13.7164,-10.9386 8.6756,-0.062 17.3528,-0.033 26.0273,-0.1757 0.5776,-0.1704 1.0094,0.1217 1.4122,0.5064 4.4119,3.4115 8.8238,6.8229 13.2357,10.2344 0.3819,-0.2177 0.2115,-1.02 0.3778,-1.4609 0.2797,-2.1096 0.7595,-4.1997 0.8873,-6.3255 -0.056,-1.1903 -0.7621,-2.2241 -1.185,-3.3091 -2.9782,-6.3242 -8.4688,-11.3594 -14.9376,-13.9653 -4.1749,-1.7161 -8.7169,-2.4655 -13.2224,-2.4086 z" style="fill:#241c1c;fill-opacity:1;stroke:#241c1c;stroke-width:2;stroke-linecap:butt;stroke-linejoin:miter;stroke-miterlimit:4;stroke-dasharray:none;stroke-dashoffset:0;stroke-opacity:1"/>
        <path style="fill:none;stroke:#241c1c;stroke-width:3;stroke-linecap:butt;stroke-linejoin:miter;stroke-miterlimit:4;stroke-dasharray:none;stroke-opacity:1" d="m 9394,-1283.6378 3,-2 8,1 8.0002,-1 3,2" transform="translate(-4.9229925e-6)"/>
      </g>
      <path d="m 71.135008,68.501515 0.752602,6.020732 h 16.557019 l 0.752602,-6.020732 -3.01038,3.01038 -3.010352,-3.01038 -3.010379,3.01038 -3.01038,-3.01038 -3.010352,3.01038 z" style="fill:#ffff00;stroke:#000000;stroke-width:0.752594;stroke-linecap:butt;stroke-linejoin:miter;stroke-miterlimit:4;stroke-dasharray:none;stroke-opacity:1"/>
      <path style="fill:#241c1c;fill-opacity:1;stroke:none;stroke-width:0.23151;stroke-linecap:round;stroke-linejoin:round;stroke-dasharray:none" d="m 73.87643,77.167093 c -0.353455,0.0028 -0.706741,0.01778 -1.059885,0.03254 -0.19146,0.02088 -0.400699,0.0065 -0.591171,0.03203 -0.06203,5.7e-5 -0.124037,0 -0.186041,0 -0.06116,0.211102 -0.01072,0.469307 -0.0206,0.698669 0,0.07854 0.0062,0.157085 0.0082,0.235656 -0.01185,0.141619 -0.02117,0.283577 -0.0175,0.426325 0.14114,1.774952 0.05644,3.574881 0.428385,5.325759 0.198882,1.031099 0.605621,2.004596 1.061974,2.945046 0.283831,0.766487 0.674963,1.499418 1.212314,2.120279 1.132643,1.286961 2.673181,2.128633 4.227661,2.801394 0.369429,0.12954 0.765274,0.394321 1.169444,0.260435 0.03711,-0.01552 0.07355,-0.03322 0.110575,-0.04908 0.03706,0.01581 0.07343,0.03347 0.110575,0.04908 0.40417,0.133886 0.800015,-0.130895 1.169444,-0.260435 1.55448,-0.672761 3.095018,-1.514433 4.227661,-2.801394 0.537351,-0.620861 0.929019,-1.353792 1.21285,-2.120279 0.456353,-0.94045 0.862556,-1.913947 1.061438,-2.945046 0.37194,-1.750878 0.287753,-3.550807 0.428893,-5.325759 0.0034,-0.143087 -0.0062,-0.285411 -0.01806,-0.427369 0.0028,-0.0782 0.0068,-0.156436 0.0082,-0.234612 -0.0099,-0.229362 0.0405,-0.487567 -0.0206,-0.698669 -0.062,-2.26e-4 -0.124009,0 -0.186041,0 -0.190472,-0.02568 -0.399712,-0.01101 -0.591171,-0.03203 -0.353145,-0.01468 -0.706431,-0.03006 -1.059886,-0.03254 -0.145683,0.01637 -0.03697,0.260801 -0.07493,0.363276 -0.01665,0.641153 -0.01947,1.283349 -0.0254,1.925461 -0.18525,2.229358 -0.732282,4.43374 -1.773033,6.419766 -1.490048,0.762621 -2.97101,1.543896 -4.470005,2.288737 -1.498967,-0.744812 -2.979476,-1.526145 -4.469497,-2.288737 -1.040017,-1.984643 -1.587415,-4.18736 -1.773004,-6.415109 -0.0059,-0.643664 -0.0093,-1.287413 -0.02596,-1.930118 -0.03796,-0.102475 0.07075,-0.346907 -0.07493,-0.363276 z"/>
    </g></svg>
