<svg xmlns="http://www.w3.org/2000/svg" width="64" height="64" viewBox="21.740397942874445 40.070806721832184 23.676904308410116 23.676904308410116"><defs>
    <inkscape:path-effect xmlns:inkscape="http://www.inkscape.org/namespaces/inkscape" effect="skeletal" is_visible="true" pattern="M -3.4166906,58.569047 1.8423711,56.546332 1.957973,58.222305" copytype="repeated_stretched" prop_scale="1" scale_y_rel="false" spacing="-0.2" normal_offset="0" tang_offset="0" prop_units="false" vertical_pattern="false" fuse_tolerance="0" lpeversion="0" hide_knot="false"/>
  </defs><g transform="matrix(3.4540327,0,0,3.4540327,-312.50218,-525.87093)">
      <path style="fill:#ffff85;fill-opacity:1;fill-rule:evenodd;stroke:#000000;stroke-width:0.132292;stroke-linecap:butt;stroke-linejoin:miter;stroke-dasharray:none;stroke-opacity:1" d="m 102.04348,169.78497 0.16668,-0.36247 -0.32278,0.19843 -0.0265,-0.22489 -0.21166,0.12699 -0.13757,-0.3069 -0.3757,0.11905"/>
      <path style="fill:#76600e;fill-opacity:1;fill-rule:evenodd;stroke:#000000;stroke-width:0.14475833;stroke-linecap:butt;stroke-linejoin:miter;stroke-opacity:1;stroke-dasharray:none" d="m 97.466648,165.20156 c 0,0 1.865015,0.11742 2.674582,0.16392 0.47902,0.0275 0.99796,0.24252 1.30209,0.61363 0.22023,0.26873 0.36619,0.68564 0.40364,1.04394 0.0185,0.17699 0.36738,0.48355 0.36738,0.48355 0,0 0.5928,0.34951 0.86033,0.55285 0.17185,0.13062 0.10296,0.2787 0.11974,0.4939 0.0222,0.28485 -0.41907,0.56873 -0.41907,0.56873 l -1.24223,-0.47893 -0.29933,-0.015 -0.31261,0.45075 0.14966,0.25443 0.92793,0.44899 c 0,0 -0.0967,0.14021 -0.20263,0.27723 -0.10592,0.13701 -0.53366,0.2584 -0.67886,0.18378 -0.1452,-0.0746 -0.56688,-0.11443 -0.71993,-0.40114 -0.15305,-0.28671 -0.22453,-0.49389 -0.22453,-0.49389 -1.2121,0.23376 -1.473222,-0.85593 -1.353342,-1.23311 -0.72705,-0.24069 -1.111611,-0.0818 -1.622248,-0.07 z"/>
      <circle style="fill:#ffffff;fill-opacity:1;stroke:#000000;stroke-width:0.132292;stroke-linecap:round;stroke-linejoin:round;stroke-dasharray:none;stroke-opacity:1" cx="100.93855" cy="166.95209" r="0.13229166"/>
      <path style="fill:none;fill-rule:evenodd;stroke:#000000;stroke-width:0.132292;stroke-linecap:butt;stroke-linejoin:miter;stroke-dasharray:none;stroke-opacity:1" d="m 101.35352,166.95193 -0.5837,-0.52383"/>
      <ellipse style="fill:#333333;fill-opacity:1;stroke:#000000;stroke-width:0.132292;stroke-linecap:round;stroke-linejoin:round;stroke-dasharray:none;stroke-opacity:1" cx="131.25656" cy="-147.44324" rx="0.23946489" ry="0.11224917" transform="rotate(106.91581)"/>
      <path style="fill:#ffff85;fill-opacity:1;fill-rule:evenodd;stroke:#000000;stroke-width:0.132292;stroke-linecap:butt;stroke-linejoin:miter;stroke-dasharray:none;stroke-opacity:1" d="m 102.7446,169.08649 -0.33601,0.23812 0.0265,-0.28839 -0.30426,0.14022 -0.0847,-0.29632 -0.28574,0.17991 -0.10319,-0.3122"/>
      <path style="fill:none;fill-rule:evenodd;stroke:#000000;stroke-width:0.0661458;stroke-linecap:butt;stroke-linejoin:miter;stroke-dasharray:none;stroke-opacity:1" d="m 102.18416,167.45331 c -0.29505,0.18674 -0.58262,0.40341 -0.83813,0.74833"/>
      <path style="fill:none;fill-rule:evenodd;stroke:#000000;stroke-width:0.0661458;stroke-linecap:butt;stroke-linejoin:miter;stroke-dasharray:none;stroke-opacity:1" d="m 102.46853,167.73767 c -9e-5,0.19216 -0.0452,0.42932 -0.10477,0.68098"/>
      <path style="fill:none;fill-rule:evenodd;stroke:#000000;stroke-width:0.0661458;stroke-linecap:butt;stroke-linejoin:miter;stroke-dasharray:none;stroke-opacity:1" d="m 102.25151,167.59549 c -0.19256,0.20074 -0.27327,0.41546 -0.30681,0.63608"/>
      <path style="fill:#666666;fill-rule:evenodd;stroke:#000000;stroke-width:0.132292;stroke-linecap:butt;stroke-linejoin:miter;stroke-dasharray:none;stroke-opacity:1" d="m 97.966397,165.25281 c 0.03175,-0.0529 0.380986,-0.84663 0.380986,-0.84663 l 0.126992,0.81488"/>
      <path style="fill:#666666;fill-rule:evenodd;stroke:#000000;stroke-width:0.132292;stroke-linecap:butt;stroke-linejoin:miter;stroke-dasharray:none;stroke-opacity:1" d="m 98.844784,165.26339 0.285739,-0.94188 0.391571,0.94188"/>
      <path style="fill:#666666;fill-rule:evenodd;stroke:#000000;stroke-width:0.132292;stroke-linecap:butt;stroke-linejoin:miter;stroke-dasharray:none;stroke-opacity:1" d="m 99.723168,165.34806 0.423322,-0.91013 0.22224,0.92071"/>
      <path style="fill:#666666;fill-rule:evenodd;stroke:#000000;stroke-width:0.132292;stroke-linecap:butt;stroke-linejoin:miter;stroke-dasharray:none;stroke-opacity:1" d="m 100.60155,165.37981 0.52915,-0.67731 -0.11641,0.96305"/>
      <path style="fill:#a99b65;fill-opacity:1;fill-rule:evenodd;stroke:#000000;stroke-width:0.14475833;stroke-linecap:butt;stroke-linejoin:miter;stroke-opacity:1;stroke-dasharray:none" d="m 100.26096,165.85937 c 0,0 -0.18085,-0.90318 -0.493898,-1.18236 -0.32161,-0.28681 -1.287125,-0.38913 -1.287125,-0.38913 0,0 0.316345,0.79824 0.658529,1.09256 0.170672,0.1468 0.300377,0.60387 0.300377,0.60387 z"/>
      <path style="fill:none;fill-rule:evenodd;stroke:#000000;stroke-width:0.079375;stroke-linecap:butt;stroke-linejoin:miter;stroke-dasharray:none;stroke-opacity:1" d="m 98.156891,167.89855 c 0.08259,0.018 0.123621,-0.0806 0.17555,-0.12812 0.03479,-0.0522 0.05773,-0.11134 0.09743,-0.16067 0.0366,-0.0794 0.04068,-0.17084 0.0449,-0.25738 -5.21e-4,-0.0825 -7.3e-5,-0.16505 -3.87e-4,-0.24758 -0.02271,-0.0229 -0.0044,-0.0641 -0.015,-0.0431 -0.03537,-0.0921 -0.06892,-0.187 -0.142534,-0.25848 -0.04016,-0.0601 -0.06799,-0.12721 -0.107085,-0.18531"/>
      <path style="fill:none;fill-rule:evenodd;stroke:#000000;stroke-width:0.0661458;stroke-linecap:butt;stroke-linejoin:miter;stroke-dasharray:none;stroke-opacity:1" d="m 97.69124,167.90913 c 0.04481,-0.18325 0.06721,-0.37356 0.134034,-0.55046 0.0491,-0.0579 0.07817,-0.12678 0.08859,-0.20099 -0.0056,-0.10214 0.0096,-0.20628 -0.0044,-0.30724 -0.02538,-0.0938 -0.02198,-0.19145 -0.03767,-0.28664 -0.01028,-0.0512 -0.02037,-0.10476 -0.05357,-0.1468"/>
    </g></svg>
