<svg xmlns="http://www.w3.org/2000/svg" width="64" height="64" viewBox="65.31012261361623 96.31072070912326 28.399987818922764 28.399987818922764"><defs>
    <inkscape:path-effect xmlns:inkscape="http://www.inkscape.org/namespaces/inkscape" effect="skeletal" is_visible="true" pattern="M -3.4166906,58.569047 1.8423711,56.546332 1.957973,58.222305" copytype="repeated_stretched" prop_scale="1" scale_y_rel="false" spacing="-0.2" normal_offset="0" tang_offset="0" prop_units="false" vertical_pattern="false" fuse_tolerance="0" lpeversion="0" hide_knot="false"/>
  </defs><g transform="translate(14.687042,91.723031)" style="fill:#999999">
      <path style="fill:#999999;fill-opacity:1;fill-rule:evenodd;stroke:#000000;stroke-width:0.289979px;stroke-linecap:butt;stroke-linejoin:miter;stroke-opacity:1" d="m 58.460338,23.807379 -1.590683,-5.814894 v -1.850193 c 0.318136,-3.964701 1.590683,-7.6650881 7.635282,-9.2509682 V 6.362697 h 0.636273 v 0.5286268 c 6.044599,1.5858801 7.635282,5.0219532 7.635282,8.9866542 v 2.114507 l -1.590683,5.814894 c -4.317923,4.355023 -8.555315,4.101439 -12.725471,0 z"/>
      <path style="fill:#999999;fill-rule:evenodd;stroke:#000000;stroke-width:0.289979px;stroke-linecap:butt;stroke-linejoin:miter;stroke-opacity:1" d="M 64.823072,7.6842637 V 15.349351"/>
      <path style="fill:#1a1a1a;fill-rule:evenodd;stroke:#000000;stroke-width:0.289979px;stroke-linecap:butt;stroke-linejoin:miter;stroke-opacity:1" d="m 71.822082,17.199545 c -4.135777,-2.528334 -9.862239,-2.643133 -13.998018,0 v 0.528627 c 4.772053,-2.114507 9.207385,-2.099097 13.998018,0 z"/>
      <path style="fill:#999999;fill-opacity:1;fill-rule:evenodd;stroke:#000000;stroke-width:0.289979px;stroke-linecap:butt;stroke-linejoin:miter;stroke-opacity:1" d="m 73.09463,26.450513 -1.908822,-2.643134 c -4.126507,4.021044 -8.356521,4.432826 -12.72547,0 l -1.908821,2.643134 c 5.020238,5.208817 10.327053,7.396727 16.543113,0 z"/>
      <ellipse style="fill:#999999;stroke:#000000;stroke-width:0.273996;stroke-linecap:round;stroke-linejoin:round;stroke-dasharray:none" cx="66.896088" cy="18.968449" rx="0.31133378" ry="0.27863309"/>
      <ellipse style="fill:#999999;stroke:#000000;stroke-width:0.273996;stroke-linecap:round;stroke-linejoin:round;stroke-dasharray:none" cx="68.092239" cy="18.883871" rx="0.31133378" ry="0.27863309"/>
      <ellipse style="fill:#999999;stroke:#000000;stroke-width:0.273996;stroke-linecap:round;stroke-linejoin:round;stroke-dasharray:none" cx="69.39019" cy="18.714718" rx="0.31133378" ry="0.27863309"/>
      <ellipse style="fill:#999999;stroke:#000000;stroke-width:0.273996;stroke-linecap:round;stroke-linejoin:round;stroke-dasharray:none" cx="70.662697" cy="18.503275" rx="0.31133378" ry="0.27863309"/>
      <ellipse style="fill:#999999;stroke:#000000;stroke-width:0.273996;stroke-linecap:round;stroke-linejoin:round;stroke-dasharray:none" cx="-62.773182" cy="18.968449" rx="0.31133378" ry="0.27863309" transform="scale(-1,1)"/>
      <ellipse style="fill:#999999;stroke:#000000;stroke-width:0.273996;stroke-linecap:round;stroke-linejoin:round;stroke-dasharray:none" cx="-64.04496" cy="18.975136" rx="0.31133378" ry="0.27863309" transform="scale(-1,1)"/>
      <ellipse style="fill:#999999;stroke:#000000;stroke-width:0.273996;stroke-linecap:round;stroke-linejoin:round;stroke-dasharray:none" cx="-61.577034" cy="18.883871" rx="0.31133378" ry="0.27863309" transform="scale(-1,1)"/>
      <ellipse style="fill:#999999;stroke:#000000;stroke-width:0.273996;stroke-linecap:round;stroke-linejoin:round;stroke-dasharray:none" cx="-60.279083" cy="18.714718" rx="0.31133378" ry="0.27863309" transform="scale(-1,1)"/>
      <ellipse style="fill:#999999;stroke:#000000;stroke-width:0.273996;stroke-linecap:round;stroke-linejoin:round;stroke-dasharray:none" cx="-59.00658" cy="18.503275" rx="0.31133378" ry="0.27863309" transform="scale(-1,1)"/>
      <ellipse style="fill:#999999;stroke:#000000;stroke-width:0.273996;stroke-linecap:round;stroke-linejoin:round;stroke-dasharray:none" cx="-65.648308" cy="18.953993" rx="0.31133378" ry="0.27863309" transform="scale(-1,1)"/>
    </g></svg>
