<svg xmlns="http://www.w3.org/2000/svg" width="64" height="64" viewBox="25.514147582978964 153.1717326567299 24.73701792463976 24.73701792463976"><defs>
    <inkscape:path-effect xmlns:inkscape="http://www.inkscape.org/namespaces/inkscape" effect="skeletal" is_visible="true" pattern="M -3.4166906,58.569047 1.8423711,56.546332 1.957973,58.222305" copytype="repeated_stretched" prop_scale="1" scale_y_rel="false" spacing="-0.2" normal_offset="0" tang_offset="0" prop_units="false" vertical_pattern="false" fuse_tolerance="0" lpeversion="0" hide_knot="false"/>
  </defs><g transform="translate(-66.728535,56.533654)">
      <path d="m 98.919702,102.51155 c -0.752574,0.7526 -1.881463,0 -2.257778,3.38667 v 3.76298 l 0.752602,4.51556 c 0.403296,1.34433 1.505176,3.01035 2.257778,3.76295 1.118646,1.13301 2.634066,1.50518 4.139266,1.88149 0.0969,-0.0248 1.40174,0.0265 1.50518,0 1.50517,-0.37631 3.08545,-0.82767 4.13927,-1.88149 0.75257,-0.7526 1.87299,-2.48037 2.25778,-3.76295 l 0.75257,-4.51556 v -3.76298 c -0.37629,-3.38667 -1.50518,-2.63407 -2.25778,-3.38667 l -1.88146,-0.37628 h -7.52594 z" style="fill:#d8b29e;fill-opacity:1;stroke:#000000;stroke-width:0.752594;stroke-linecap:butt;stroke-linejoin:miter;stroke-miterlimit:4;stroke-dasharray:none;stroke-opacity:1"/>
      <path d="m 95.580082,98.184154 0.752602,6.020736 H 112.8897 l 0.7526,-6.020736 -3.01038,3.010376 -3.01035,-3.010376 -3.01038,3.010376 -3.01038,-3.010376 -3.010348,3.010376 z" style="fill:#ffff00;stroke:#000000;stroke-width:0.752594;stroke-linecap:butt;stroke-linejoin:miter;stroke-miterlimit:4;stroke-dasharray:none;stroke-opacity:1"/>
      <path d="m 100.04859,108.53231 h 2.25778 l 0.79965,0.94073" style="fill:none;stroke:#000000;stroke-width:0.376295;stroke-linecap:butt;stroke-linejoin:miter;stroke-miterlimit:4;stroke-dasharray:none;stroke-opacity:1"/>
      <path d="m 106.11637,109.47304 0.70555,-0.94073 h 2.25778" style="fill:none;stroke:#000000;stroke-width:0.376295;stroke-linecap:butt;stroke-linejoin:miter;stroke-miterlimit:4;stroke-dasharray:none;stroke-opacity:1"/>
      <path d="m 103.85859,110.22565 -0.42333,3.57479 1.17593,0.18816 1.08185,-0.18816 -0.32924,-3.57479" style="fill:none;stroke:#000000;stroke-width:0.376295;stroke-linecap:butt;stroke-linejoin:miter;stroke-miterlimit:4;stroke-dasharray:none;stroke-opacity:1"/>
      <path d="m 100.80119,115.68193 3.76296,0.37629 3.76298,-0.37629" style="fill:none;stroke:#000000;stroke-width:0.376295;stroke-linecap:butt;stroke-linejoin:miter;stroke-miterlimit:4;stroke-dasharray:none;stroke-opacity:1"/>
      <g transform="matrix(0.66145835,0,0,0.66145835,14.712434,67.570323)">
        <path style="fill:#ffffff;stroke:#000000;stroke-width:0.426667;stroke-linecap:butt;stroke-linejoin:miter;stroke-miterlimit:4;stroke-dasharray:none;stroke-opacity:1" d="m 129.08326,63.349027 c 0,0 1.07063,-0.853333 1.70667,-0.853333 0.63604,0 1.70667,0.853333 1.70667,0.853333 0,0 -1.07063,0.853334 -1.70667,0.853334 -0.63604,0 -1.70667,-0.853334 -1.70667,-0.853334 z"/>
        <path d="m 131.47261,63.349026 c 0,0.377025 -0.30564,0.682667 -0.68267,0.682667 -0.37702,0 -0.68267,-0.305642 -0.68267,-0.682667 0,-0.377027 0.30565,-0.682667 0.68267,-0.682667 0.37703,0 0.68267,0.30564 0.68267,0.682667 z" style="fill:#000080;fill-opacity:1;stroke:#000000;stroke-width:0.341333;stroke-linecap:round;stroke-linejoin:miter;stroke-miterlimit:4;stroke-dashoffset:0;stroke-opacity:1"/>
      </g>
      <g transform="matrix(0.66145835,0,0,0.66145835,21.485768,67.570323)">
        <path style="fill:#ffffff;stroke:#000000;stroke-width:0.426667;stroke-linecap:butt;stroke-linejoin:miter;stroke-miterlimit:4;stroke-dasharray:none;stroke-opacity:1" d="m 129.08326,63.349027 c 0,0 1.07063,-0.853333 1.70667,-0.853333 0.63604,0 1.70667,0.853333 1.70667,0.853333 0,0 -1.07063,0.853334 -1.70667,0.853334 -0.63604,0 -1.70667,-0.853334 -1.70667,-0.853334 z"/>
        <path d="m 131.47261,63.349026 c 0,0.377025 -0.30564,0.682667 -0.68267,0.682667 -0.37702,0 -0.68267,-0.305642 -0.68267,-0.682667 0,-0.377027 0.30565,-0.682667 0.68267,-0.682667 0.37703,0 0.68267,0.30564 0.68267,0.682667 z" style="fill:#000080;fill-opacity:1;stroke:#000000;stroke-width:0.341333;stroke-linecap:round;stroke-linejoin:miter;stroke-miterlimit:4;stroke-dashoffset:0;stroke-opacity:1"/>
      </g>
    </g></svg>
