<svg xmlns="http://www.w3.org/2000/svg" width="64" height="64" viewBox="43.559777656120815 40.5687532413662 30.930306704760223 30.930306704760223"><defs>
    <inkscape:path-effect xmlns:inkscape="http://www.inkscape.org/namespaces/inkscape" effect="skeletal" is_visible="true" pattern="M -3.4166906,58.569047 1.8423711,56.546332 1.957973,58.222305" copytype="repeated_stretched" prop_scale="1" scale_y_rel="false" spacing="-0.2" normal_offset="0" tang_offset="0" prop_units="false" vertical_pattern="false" fuse_tolerance="0" lpeversion="0" hide_knot="false"/>
  </defs><g transform="translate(10.576331,-53.724874)">
      <path style="fill:#00ff00;fill-opacity:0;stroke-width:0.791931;stroke-linecap:round;stroke-linejoin:round" d="m 194.93991,390.40571 c -4.89879,0.057 -9.83597,0.53262 -14.55814,1.8826 -2.42897,0.99961 -4.77845,2.233 -6.95415,3.70577 -1.28804,1.10382 -2.49402,2.33653 -3.46868,3.72897 2.92323,1.29021 6.18853,1.88144 9.39027,2.06136 2.4593,0.1093 4.92125,0.13043 7.38215,0.18208 -0.1406,2.62343 -0.0461,5.51597 -1.60464,7.77392 -2.06858,2.49987 -5.41854,3.1718 -8.36261,4.10022 -2.10879,0.65601 -4.1118,1.65703 -6.32722,1.92941 -1.20403,0.21785 -2.44935,0.27559 -3.64876,0.41652 0.0257,3.34856 -0.0509,6.70557 0.0377,10.04896 0.95172,5.63491 1.85679,11.28139 2.83751,16.90911 1.53905,4.56701 3.00015,9.2518 5.61777,13.33982 1.91492,2.88864 5.34681,4.19173 8.59457,4.90229 2.69952,0.55983 5.42362,1.02794 8.12768,1.54409 2.09549,0.0814 4.21719,0.34152 6.3037,0.0431 4.12317,-0.95637 8.40617,-1.38858 12.35773,-2.9764 1.96198,-0.82719 3.76645,-2.16395 4.79725,-4.06409 2.4182,-4.08408 3.92502,-8.62653 5.36106,-13.12485 0.93048,-5.6762 1.91159,-11.34817 2.81088,-17.02695 -0.0164,-3.20389 0.0327,-6.43359 -0.0245,-9.62139 -2.85272,-0.16569 -5.72908,-0.58737 -8.34754,-1.77941 -3.12474,-1.17839 -6.70398,-1.56439 -9.25702,-3.90884 -1.75373,-1.44322 -2.03471,-3.89983 -2.21383,-6.01814 -0.0519,-0.83992 -0.0668,-1.68158 -0.10142,-2.52229 5.5297,-0.0171 11.29957,0.11862 16.48715,-2.09009 0.34835,-0.2203 -0.18785,-0.65411 -0.28924,-0.87811 -1.48048,-1.90847 -3.35082,-3.5019 -5.51502,-4.58454 -2.26864,-1.28125 -4.6566,-2.42745 -7.25797,-2.82103 -4.00471,-0.79928 -8.09193,-1.17085 -12.17461,-1.1521 z m 12.86336,29.95528 c 1.50258,0.28475 3.08534,0.45903 4.53636,0.84518 -0.011,0.39929 0.0198,0.95331 -0.22052,1.26457 -2.62025,-0.21828 -5.21604,-0.83234 -7.81811,-1.18414 -0.70697,0.67431 -1.00145,1.69816 -1.52434,2.51351 -0.37635,0.63063 -0.68557,1.38399 -1.13119,1.9347 -0.41581,-0.17763 -0.85348,-0.38237 -1.19895,-0.66112 0.93704,-1.83468 1.88085,-3.66915 2.90567,-5.45602 1.48369,0.24777 2.96738,0.49555 4.45108,0.74332 z m -19.12236,1.94845 c 0.54724,0.90726 1.10271,1.80899 1.63446,2.72558 -0.38193,0.23858 -0.81132,0.62338 -1.23208,0.68233 -1.01224,-1.38129 -1.77147,-2.95692 -2.77442,-4.33816 -1.13151,-0.0895 -2.2666,0.29758 -3.39176,0.4188 -1.5568,0.2308 -3.141,0.58294 -4.69216,0.67938 -0.11943,-0.44349 -0.0903,-0.90619 -0.12595,-1.36069 2.98279,-0.49832 5.96557,-0.99674 8.94833,-1.49525 0.54453,0.896 1.08906,1.79201 1.63358,2.68801 z m -6.13459,0.45253 c 1.84586,0.12023 3.38869,1.34602 4.86074,2.3579 0.21874,0.13298 0.45827,0.36315 0.077,0.50091 -1.58398,1.15229 -3.32127,2.60256 -5.4029,2.43226 -1.64425,-0.39032 -3.07092,-1.42649 -4.3978,-2.43843 -0.47725,-0.25418 0.29392,-0.56401 0.45209,-0.76763 1.31787,-0.91102 2.74846,-2.0345 4.41086,-2.08501 z m 25.66882,0 c 1.77598,0.0734 3.2552,1.28142 4.65039,2.26863 0.19799,0.16264 0.66257,0.42616 0.18605,0.60853 -1.46674,1.07052 -3.03333,2.35828 -4.92262,2.44054 -1.84667,-0.15298 -3.38141,-1.41204 -4.8457,-2.44069 -0.18592,-0.10488 -0.35171,-0.28739 -0.0612,-0.4115 1.42685,-1.03042 2.9272,-2.16966 4.70739,-2.45026 0.0975,-0.0101 0.18636,-0.0133 0.28571,-0.0152 z m -17.30405,6.2084 c 1.03589,-0.32793 0.74071,0.67522 0.7663,1.3576 0.0122,3.63816 -0.0242,7.29198 0.0181,10.92043 1.1749,0.38619 2.34753,0.78659 3.52392,1.16381 1.17108,-0.40171 2.37303,-0.76149 3.52524,-1.189 0,-4.08428 0,-8.16856 0,-12.25284 0.53687,0.12424 1.70183,-0.37959 1.4177,0.56566 0,4.26621 0,8.53241 0,12.79862 -1.69106,0.5168 -3.3677,1.20968 -5.07552,1.60308 -1.6339,-0.51549 -3.25686,-1.08123 -4.88372,-1.62518 -0.0195,-4.44739 -0.0388,-8.89479 -0.0581,-13.34218 0.25536,0 0.51072,0 0.76608,0 z m 18.50741,18.4641 c 0.92501,0.47449 0.0522,0.94182 -0.39239,1.4109 -0.44759,0.57393 -1.01757,0.92918 -1.74979,0.99455 -1.76127,0.39855 -3.50475,0.94387 -5.27709,1.25113 -4.6929,-0.0225 -9.39192,0.0151 -14.081,-0.0446 -1.90611,-0.41907 -3.84264,-0.73005 -5.7323,-1.20811 -0.73759,-0.4818 -1.18964,-1.29011 -1.79643,-1.9142 0.37752,-0.30244 0.73714,-0.70846 1.14061,-0.94307 0.52573,0.46877 0.88096,1.16661 1.44423,1.5477 1.83739,0.32069 3.65679,0.82312 5.50527,1.03189 4.63827,-0.0212 9.2859,0.0341 13.91835,-0.0346 1.73099,-0.43847 3.46564,-0.86785 5.19429,-1.31229 0.46311,-0.33633 0.92736,-1.14726 1.38964,-1.21595 0.14554,0.14554 0.29108,0.29107 0.43661,0.43661 z" transform="scale(0.26458333)"/>
      <path style="fill:#008080;fill-opacity:0;stroke-width:0.791931;stroke-linecap:round;stroke-linejoin:round" d="m 194.71917,387.5491 c -4.95677,0.092 -9.94886,0.56398 -14.74177,1.87553 -2.92555,1.01778 -5.65735,2.55189 -8.22675,4.26588 -2.38289,1.97004 -4.52375,4.38887 -5.53239,7.3623 -1.20274,3.28677 -1.86668,6.76293 -2.16588,10.24406 -0.17921,5.01559 -0.0554,10.037 -0.0921,15.05487 1.0048,5.75832 1.81486,11.55357 2.98245,17.28182 0.7794,3.11299 1.94168,6.1217 3.17033,9.08167 1.48889,3.32705 3.18571,6.89127 6.41913,8.858 4.07914,2.58771 9.02547,2.95262 13.64151,3.90865 2.44732,0.63167 4.99657,0.40923 7.49669,0.49912 4.06687,-0.87162 8.21502,-1.43161 12.19685,-2.65908 3.27098,-0.99925 6.41143,-2.94131 8.10219,-6.00297 2.52632,-4.26631 4.07086,-9.01997 5.59546,-13.70935 0.95798,-5.81304 1.96668,-11.62183 2.89325,-17.43751 -0.0481,-5.03683 0.11567,-10.07953 -0.11273,-15.11253 -0.41153,-3.8342 -1.1012,-7.70414 -2.67255,-11.24945 -1.70621,-3.7674 -5.06457,-6.53579 -8.71309,-8.33005 -2.13588,-1.13398 -4.33522,-2.22731 -6.74776,-2.61601 -4.437,-0.87742 -8.96883,-1.3327 -13.4928,-1.31495 z m 0.34691,2.81197 c 4.96284,0.0166 9.96341,0.49011 14.76012,1.79634 2.45897,0.91993 4.78543,2.20406 6.97978,3.64349 1.42004,1.11231 2.70801,2.43995 3.70398,3.94447 -0.33705,0.29769 -0.9824,0.37792 -1.42037,0.58176 -4.88453,1.82525 -10.20498,1.5148 -15.30697,1.7273 -0.0158,2.63506 0.0486,5.52711 1.64043,7.75536 2.2166,2.49506 5.67021,3.1285 8.69546,4.12214 1.85161,0.5988 3.61867,1.48172 5.5708,1.74022 1.32235,0.24233 2.66465,0.34437 4.00473,0.43 -0.0251,3.33697 0.0497,6.68221 -0.0372,10.01405 -0.99158,5.66394 -1.7879,11.36547 -2.94226,16.99889 -0.79722,3.19919 -2.04971,6.27082 -3.34427,9.29746 -1.18772,2.49119 -2.38465,5.25274 -4.8634,6.72059 -3.00549,1.80914 -6.56516,2.32086 -9.94503,3.0386 -1.86424,0.28136 -3.68492,0.8782 -5.56767,1.00325 -1.86827,-0.0845 -3.7642,-0.005 -5.61272,-0.28909 -3.84894,-0.85215 -7.86479,-1.17493 -11.53113,-2.69015 -2.07872,-0.84808 -3.9113,-2.3181 -5.01122,-4.29663 -2.40426,-4.08113 -3.91784,-8.60974 -5.31205,-13.10974 -0.92673,-5.63264 -1.90327,-11.26116 -2.79906,-16.89636 0,-3.26362 0,-6.52725 0,-9.79087 2.82567,-0.1298 5.67053,-0.56448 8.26748,-1.73353 3.2009,-1.20205 6.85011,-1.62811 9.47143,-4.02101 1.75542,-1.56823 1.95946,-4.10707 2.12133,-6.30946 0.0155,-0.66679 0.0933,-1.36052 0.058,-2.00979 -5.47607,-0.14939 -11.17355,0.0931 -16.32998,-2.06398 -0.2267,-0.0727 -0.60334,-0.17575 -0.29528,-0.44704 1.51028,-2.06038 3.41006,-3.88029 5.71036,-5.03571 2.31201,-1.359 4.76894,-2.5431 7.44292,-2.95794 3.91159,-0.78249 7.90342,-1.15089 11.89177,-1.16262 z m -26.282,12.02459 c 2.46321,0.92599 5.00929,1.65339 7.62855,1.97284 2.3891,0.36244 4.81612,0.36335 7.21906,0.44449 0.33754,0.16285 -0.0499,0.71367 -0.01,0.99166 -0.21718,1.06317 -0.46289,2.26274 -1.47677,2.86473 -2.75154,1.91547 -6.23135,2.13419 -9.21929,3.53795 -1.96941,0.78455 -4.10924,0.92026 -6.19768,1.1282 0.001,-3.07115 0.69342,-6.09902 1.36578,-9.08047 0.21107,-0.59003 0.25977,-1.40388 0.69028,-1.8594 z m 52.85478,0.0256 c 0.40896,0.42066 0.41807,1.14119 0.63085,1.68506 0.69469,2.92605 1.34734,5.9039 1.42433,8.91983 0.0689,0.55381 -0.78795,0.15445 -1.15829,0.21632 -2.09968,-0.20534 -4.20228,-0.56157 -6.12561,-1.46084 -2.57218,-1.02865 -5.43542,-1.37727 -7.80959,-2.85873 -0.89682,-0.52241 -1.51586,-1.40706 -1.68092,-2.43504 -0.0325,-0.52623 -0.40209,-1.1433 -0.16925,-1.63888 0.98328,-0.19392 2.03644,-0.0169 3.04318,-0.13532 3.60919,-0.13357 7.23589,-0.62026 10.62632,-1.91633 0.40687,-0.11418 0.80174,-0.31071 1.21898,-0.37607 z" transform="scale(0.26458333)"/>
      <g>
        <path d="m 42.770011,105.15629 c 0,0 0.429197,-4.46722 0.904977,-6.577489 0.195327,-0.86641 -2.06114,-2.025587 -2.06114,-2.025587 0,0 3.91649,0.139935 3.911949,0.999962 -0.0101,1.914586 -0.426385,6.559104 -0.426385,6.559104" style="fill:#ffffff;stroke:#000000;stroke-width:0.451432;stroke-linecap:butt;stroke-linejoin:miter;stroke-miterlimit:4;stroke-dasharray:none;stroke-opacity:1"/>
        <path style="fill:none;fill-opacity:1;stroke:#000000;stroke-width:0.46;stroke-linecap:butt;stroke-linejoin:miter;stroke-miterlimit:4;stroke-dasharray:none;stroke-opacity:1" d="m 42.913761,105.13689 c -0.165809,0.23654 -0.761147,0.33689 -0.842783,0.54599 -0.584356,0.4981 -0.99597,1.09035 -0.979324,1.91399 -0.677854,1.12185 -1.441683,2.19986 -1.942109,3.41973 -0.103453,1.99982 -4.544157,1.3454 -2.524089,3.26017 0.932111,0.9981 2.457838,2.36473 3.03064,2.6897 0,0 -0.12359,-0.78634 0.162787,-1.39603 1.602418,-1.105 3.153889,-2.17263 4.156744,-3.86017 0.267379,-0.73142 1.71105,-1.44545 1.71105,-1.44545 0,0 0.569795,0.35535 0.225701,1.30788 -0.732857,1.98403 -2.010598,3.94573 -3.965773,4.89649 -2.431722,0.41923 1.060702,2.00341 1.925997,1.91377 -0.0728,-0.34159 0.208991,-0.59137 0.09806,-1.09841 1.311929,-1.55555 3.597607,-2.16462 4.407906,-4.20795 0.09518,-0.21882 0.398015,-0.36798 0.54233,-0.55538 2.067605,-1.1402 -0.394621,-1.84979 0.597907,-1.81752 2.109801,-4.30878 7.663333,-5.16259 11.104141,-2.35404 L 60.43087,99.725082"/>
        <path style="fill:none;stroke:#000000;stroke-width:0.459683;stroke-linecap:butt;stroke-linejoin:miter;stroke-miterlimit:4;stroke-dasharray:none;stroke-opacity:1" d="m 38.027877,114.33554 c -0.767498,-0.62193 1.131357,-1.77355 0.957718,-0.58043"/>
        <g transform="matrix(0.45603551,-0.39912551,0.39912551,0.45603551,-42.154249,130.35613)">
          <path d="m 129.09663,64.202361 c 0,0 1.07062,-0.853334 1.70667,-0.853334 0.63603,0 1.70666,0.853334 1.70666,0.853334 0,0 -1.07063,0.853333 -1.70666,0.853333 -0.63605,0 -1.70667,-0.853333 -1.70667,-0.853333 z" style="fill:#ffffff;stroke:#000000;stroke-width:0.426667;stroke-linecap:butt;stroke-linejoin:miter;stroke-miterlimit:4;stroke-dasharray:none;stroke-opacity:1"/>
          <path style="fill:#000000;fill-opacity:1;stroke:#0000ff;stroke-width:0.341333;stroke-linecap:round;stroke-linejoin:miter;stroke-miterlimit:4;stroke-dashoffset:0;stroke-opacity:1" d="m 131.48596,64.202359 c 0,0.377027 -0.30564,0.682667 -0.68266,0.682667 -0.37703,0 -0.68267,-0.30564 -0.68267,-0.682667 0,-0.377026 0.30564,-0.682666 0.68267,-0.682666 0.37702,0 0.68266,0.30564 0.68266,0.682666 z"/>
        </g>
        <path style="fill:none;stroke:#000000;stroke-width:0.459683;stroke-linecap:butt;stroke-linejoin:bevel;stroke-miterlimit:4;stroke-dasharray:none;stroke-opacity:1" d="m 39.817517,115.71848 1.190247,0.49251 -0.697732,-0.92346"/>
        <path style="fill:none;stroke:#000000;stroke-width:0.229842;stroke-linecap:butt;stroke-linejoin:miter;stroke-miterlimit:4;stroke-dasharray:none;stroke-opacity:1" d="m 41.1309,114.77448 0.513039,0.041 -0.06165,-0.43096"/>
        <path style="fill:none;stroke:#000000;stroke-width:0.229842;stroke-linecap:butt;stroke-linejoin:miter;stroke-miterlimit:4;stroke-dasharray:none;stroke-opacity:1" d="m 42.259582,113.97415 0.369394,0.0205 0.04105,-0.45147"/>
        <path style="fill:none;stroke:#000000;stroke-width:0.229842;stroke-linecap:butt;stroke-linejoin:miter;stroke-miterlimit:4;stroke-dasharray:none;stroke-opacity:1" d="m 43.059927,113.15329 h 0.451466 l -0.08205,-0.59513"/>
        <path style="fill:none;stroke:#000000;stroke-width:0.229842;stroke-linecap:butt;stroke-linejoin:miter;stroke-miterlimit:4;stroke-dasharray:none;stroke-opacity:1" d="m 43.552441,112.04512 0.69774,0.0205 -0.143661,-0.73877"/>
        <path style="fill:none;stroke:#000000;stroke-width:0.568889;stroke-linecap:butt;stroke-linejoin:miter;stroke-miterlimit:4;stroke-dasharray:none;stroke-opacity:1" d="m 276.58286,206.8162 c 0.75227,-2.02681 1.82426,-4.03667 3.24327,-5.89694 0.36801,0.42343 0.73323,0.84899 1.09563,1.27667 m 0.0127,0.41918 c 1.25287,-1.75593 2.82639,-3.38042 4.74785,-4.74084 0.22481,0.51336 0.44585,1.02833 0.66311,1.54486 m -0.11179,0.40254 c 0.11463,-0.0868 0.23072,-0.1726 0.34827,-0.25718 1.6216,-1.17341 3.54943,-2.10617 5.67873,-2.67343 0.034,0.55954 0.0634,1.11911 0.0885,1.67865 m -0.243,0.33966 c 2.03553,-0.62948 4.29944,-0.88623 6.66262,-0.61638 -0.17282,0.53334 -0.35036,1.06509 -0.53261,1.59518" class="UnoptimicedTransforms" transform="matrix(0.80803692,0,0,0.80803692,-180.6183,-61.662298)"/>
        <path style="fill:#ffffff;stroke:#000000;stroke-width:0.451432;stroke-linecap:butt;stroke-linejoin:miter;stroke-miterlimit:4;stroke-dasharray:none;stroke-opacity:1" d="m 43.642408,104.89725 c 0,0 1.618579,-4.29269 2.530457,-6.254348 0.374396,-0.805378 -1.585433,-2.416127 -1.585433,-2.416127 0,0 3.798032,0.966161 3.611464,1.805728 -0.415339,1.869014 -1.805736,6.320037 -1.805736,6.320037"/>
      </g>
      <path style="fill:#3b533b;fill-opacity:1;stroke-width:1.58386;stroke-linecap:round;stroke-linejoin:round" d="m 166.28345,395.57094 c -0.25084,0.47147 -0.49448,1.53709 -1.23209,1.01908 -1.11731,-0.97356 -1.38909,0.0984 -1.68331,1.17029 -0.17813,0.53903 -0.44273,1.36649 -1.16049,1.07071 -2.22028,0.52301 -3.88454,2.42944 -5.07242,4.2858 -0.89827,1.92508 -0.84322,4.19557 -2.20035,5.9333 -2.1848,3.72781 -4.69005,7.35085 -6.18475,11.42422 -0.5702,3.00114 -3.67443,4.56331 -6.27707,5.54279 -1.61452,0.81705 -3.70708,1.09758 -4.91736,2.53606 -0.35477,1.15722 1.16237,1.87648 1.66802,2.72526 2.95324,3.12125 6.12514,6.1118 9.44951,8.78382 0.54899,-1.51641 0.29373,-3.61913 1.96475,-4.46609 5.70669,-4.10384 11.60809,-8.40489 15.20672,-14.60301 1.58113,-2.4363 4.2031,-4.00838 6.79417,-5.17231 1.06751,0.004 1.55112,1.40754 1.97188,2.20831 0.83189,2.93111 -1.00565,5.77165 -2.09164,8.38775 -2.98297,6.11055 -7.57395,11.82601 -13.88354,14.68078 -0.69906,0.39173 -1.83635,0.34526 -2.32807,0.99875 0.90495,1.42485 2.69666,2.05545 4.12576,2.86233 1.32805,0.54357 2.74713,1.32916 4.18908,1.30371 0.96499,-0.85197 0.42627,-2.26654 0.7115,-3.32373 4.37225,-5.27668 11.28704,-7.8425 15.29638,-13.47564 1.19924,-2.25336 2.65577,-4.45219 4.9204,-5.76404 0.86813,-0.60219 2.29718,-1.88995 1.15961,-2.93704 -0.44178,-0.89177 -1.99687,-1.79953 -1.09332,-2.90346 0.3855,-0.40139 1.04554,-0.3788 1.24093,-1.04073 4.24188,-7.45848 11.93863,-12.94507 20.48977,-14.06707 7.05386,-1.0508 14.3913,0.6386 20.38307,4.47286 0.80342,0.52516 0.15768,-1.18814 0.34627,-1.54 -0.10652,-9.64669 -0.59749,-19.29251 -0.48902,-28.93919 -0.15021,-1.15444 0.93557,-2.24436 0.60279,-3.33698 -2.86627,-0.42507 -5.85403,-0.0234 -8.75633,0.0545 -3.28729,0.0221 -6.41419,1.19367 -9.6216,1.66105 -0.69992,-0.38507 -0.35921,-1.62179 -0.58511,-2.30818 -0.1489,-1.03578 -0.0139,-2.23747 -0.38934,-3.18187 -3.37499,0.77426 -6.55256,2.34728 -9.66962,3.83908 -2.49221,1.34287 -4.83814,2.93325 -7.19515,4.49653 -1.28797,-1.39163 -1.52846,-3.46343 -2.51809,-4.97741 -2.30967,1.08243 -4.0469,3.148 -5.94302,4.82008 -1.05561,1.24917 -2.63098,2.19331 -3.34687,3.64733 -1.30092,4.41562 -2.60157,8.83131 -3.90204,13.24706 -0.57057,-0.23329 -2.09418,-0.0645 -1.5052,-1.13531 z m 0.213,7.87821 c -0.44116,2.04851 -1.02691,4.72819 -3.44658,5.22268 -1.14988,0.22494 -2.45468,0.68586 -3.58446,0.37387 0.0669,-1.54835 0.63227,-3.16569 1.47427,-4.47759 1.44981,-1.50856 3.74718,-1.5546 5.69731,-1.73854 -0.0469,0.20653 -0.0937,0.41305 -0.14054,0.61958 z m -20.25788,23.66159 c 1.56024,-0.1687 2.50023,1.80689 1.88437,3.01659 -0.52113,-0.0967 -1.5732,0.0349 -1.70583,-0.57229 0.36533,-0.81597 -0.87681,-0.61837 -1.20822,-0.26516 -0.91407,0.44445 -1.2517,1.43963 -1.13222,2.37138 -0.18736,0.50168 -0.85007,1.67007 -1.32799,0.77381 -1.94488,-2.28292 1.09871,-5.43647 3.48989,-5.32433 z" transform="scale(0.26458333)"/>
      <g transform="matrix(0.80803692,0,0,0.80803692,-183.29302,-21.751961)" style="fill:#800000">
        <path d="m 287.11678,161.6651 8.6918,0.14367 c -1.28877,-1.6531 -1.37441,-3.46829 -1.29301,-5.27974 -2.01407,-0.8556 -2.56709,-2.28737 -2.80148,-3.84307 -1.9268,-0.42947 -2.99526,-1.63925 -3.77123,-3.05289 l -4.20223,8.00938" style="fill:#3b533b;fill-opacity:1;stroke:#000000;stroke-width:0.568889;stroke-linecap:butt;stroke-linejoin:miter;stroke-miterlimit:4;stroke-dasharray:none;stroke-opacity:1"/>
        <path d="m 285.24912,159.22278 6.60864,-6.60865" style="fill:#800000;stroke:#000000;stroke-width:0.568889;stroke-linecap:butt;stroke-linejoin:miter;stroke-miterlimit:4;stroke-dasharray:none;stroke-opacity:1"/>
        <path d="m 286.54212,160.44394 7.97346,-3.87898" style="fill:#800000;stroke:#000000;stroke-width:0.568889;stroke-linecap:butt;stroke-linejoin:miter;stroke-miterlimit:4;stroke-dasharray:none;stroke-opacity:1"/>
      </g>
      <path style="fill:#b3b3b3;fill-opacity:1;stroke-width:1.58386;stroke-linecap:round;stroke-linejoin:round" d="m 172.68695,365.99991 c -0.32287,0.33177 0.58918,0.96214 0.70797,1.32224 1.08705,1.47855 2.54789,3.31195 2.10091,5.25715 -2.8762,7.18801 -5.95204,14.30136 -8.65846,21.55989 -0.12178,0.2753 -0.84437,1.647 0.11869,1.19841 2.57327,-0.59488 5.15114,-1.21063 7.7063,-1.85609 2.2183,-7.63055 4.73992,-15.19685 6.45212,-22.95937 0.0756,-1.27747 -1.61533,-1.62538 -2.46368,-2.22118 -1.92078,-0.87745 -3.876,-1.91574 -5.96385,-2.30105 z" transform="scale(0.26458333)"/>
      <path style="fill:#b3b3b3;fill-opacity:1;stroke-width:1.58386;stroke-linecap:round;stroke-linejoin:round" d="m 161.31178,366.21248 c 1.86842,1.50383 4.26959,3.11702 4.62785,5.67653 -0.95968,7.15622 -2.21797,14.29149 -2.92909,21.48158 1.66023,-2.81689 3.03536,-5.98098 4.9238,-8.73403 1.67402,-2.29141 2.84375,-4.9776 2.86073,-7.8541 0.0592,-2.74182 0.52882,-5.55032 0.12285,-8.26578 -1.92189,-1.4118 -4.48138,-1.59801 -6.76191,-2.0501 -0.93362,-0.10361 -1.96227,-0.27994 -2.84423,-0.2541 z" transform="scale(0.26458333)"/>
    </g></svg>
