<svg xmlns="http://www.w3.org/2000/svg" width="64" height="64" viewBox="91.65850153832241 66.29431201367973 26.538922233049853 26.538922233049853"><defs>
    <inkscape:path-effect xmlns:inkscape="http://www.inkscape.org/namespaces/inkscape" effect="skeletal" is_visible="true" pattern="M -3.4166906,58.569047 1.8423711,56.546332 1.957973,58.222305" copytype="repeated_stretched" prop_scale="1" scale_y_rel="false" spacing="-0.2" normal_offset="0" tang_offset="0" prop_units="false" vertical_pattern="false" fuse_tolerance="0" lpeversion="0" hide_knot="false"/>
  </defs><g transform="translate(-47.657034,-24.838241)">
      <g transform="matrix(0.28222223,0,0,0.28222223,-2501.3317,329.24441)">
        <path style="fill:#efd2c3;fill-opacity:1;fill-rule:nonzero;stroke:#000000;stroke-width:2;stroke-miterlimit:4;stroke-dasharray:none;stroke-dashoffset:0;stroke-opacity:1" d="m 9377.4699,-799.7248 c 2.5303,22.087 17.4721,38.087 27.5303,38.087 9.942,0 25,-16 27.6465,-38.087 2.0466,-17.0806 -10.3857,-30.2583 -27.5884,-30.2583 -17.2027,0 -29.5463,13.1673 -27.5884,30.2583 z"/>
        <g transform="translate(837.33489,-180.93297)">
          <path d="m 8563.2882,-618.57175 -1.7708,-1.7799 h -5.2815 -1.8471" style="fill:none;stroke:#000000;stroke-width:1.7799px;stroke-linecap:butt;stroke-linejoin:miter;stroke-opacity:1"/>
          <path d="m 8572.1877,-618.57175 1.9717,-1.7799 h 6.9278" style="fill:none;stroke:#000000;stroke-width:1.7799px;stroke-linecap:butt;stroke-linejoin:miter;stroke-opacity:1"/>
          <path d="m 8561.2256,-620.28009 c 0.2506,0.4067 0.3951,0.88567 0.3951,1.39846 0,1.47447 -1.1953,2.66985 -2.6698,2.66985 -1.4746,0 -2.6699,-1.19538 -2.6699,-2.66985 0,-0.52667 0.1526,-1.01792 0.4159,-1.43157 z" style="fill:#ffffff;stroke:#000000;stroke-width:0.889949;stroke-miterlimit:4;stroke-dashoffset:0;stroke-opacity:1"/>
          <path d="m 8579.0246,-620.28027 c 0.2505,0.4067 0.3951,0.88567 0.3951,1.39846 0,1.47447 -1.1953,2.66985 -2.6699,2.66985 -1.4745,0 -2.6698,-1.19538 -2.6698,-2.66985 0,-0.52667 0.1525,-1.01792 0.4159,-1.43157 z" style="fill:#ffffff;stroke:#000000;stroke-width:0.889949;stroke-miterlimit:4;stroke-dashoffset:0;stroke-opacity:1"/>
          <circle transform="translate(89.999959,85.000024)" r="0.88994873" cy="-703.56268" cx="8468.8379" style="fill:#000000;fill-opacity:1;fill-rule:nonzero;stroke:#000000;stroke-width:0.889949;stroke-miterlimit:4;stroke-dasharray:none;stroke-dashoffset:0;stroke-opacity:1"/>
          <circle transform="translate(89.999959,85.000024)" r="0.88994873" cy="-703.56268" cx="8486.6934" style="fill:#000000;fill-opacity:1;fill-rule:nonzero;stroke:#000000;stroke-width:0.889949;stroke-miterlimit:4;stroke-dasharray:none;stroke-dashoffset:0;stroke-opacity:1"/>
        </g>
        <path style="fill:none;stroke:#000000;stroke-width:1.7799px;stroke-linecap:butt;stroke-linejoin:miter;stroke-opacity:1" d="m 9397.0636,-779.9259 h 3.5597 8.8995 3.5598"/>
        <path style="fill:none;stroke:#000000;stroke-width:1.7799px;stroke-linecap:butt;stroke-linejoin:miter;stroke-opacity:1" d="m 9403.0002,-796.6378 v 11 h 4 v -11"/>
        <path style="fill:#6c5353;fill-opacity:1;stroke:#6c5353;stroke-width:2;stroke-linecap:butt;stroke-linejoin:miter;stroke-miterlimit:4;stroke-dasharray:none;stroke-dashoffset:0;stroke-opacity:1" d="m 9404.4765,-832.9839 c -7.6989,0.091 -15.4631,2.8527 -21.056,8.2295 -3.3625,3.2257 -5.946,7.3004 -7.3277,11.7573 0.4216,2.7757 0.7331,5.5746 1.2596,8.3306 0.3034,0.1291 0.5441,-0.3635 0.8124,-0.4745 4.5939,-3.6178 9.1457,-7.2903 13.7164,-10.9386 8.6756,-0.062 17.3528,-0.033 26.0273,-0.1757 0.5776,-0.1704 1.0094,0.1217 1.4122,0.5064 4.4119,3.4115 8.8238,6.8229 13.2357,10.2344 0.3819,-0.2177 0.2115,-1.02 0.3778,-1.4609 0.2797,-2.1096 0.7595,-4.1997 0.8873,-6.3255 -0.056,-1.1903 -0.7621,-2.2241 -1.185,-3.3091 -2.9782,-6.3242 -8.4688,-11.3594 -14.9376,-13.9653 -4.1749,-1.7161 -8.7169,-2.4655 -13.2224,-2.4086 z"/>
      </g>
      <path style="fill:#666666;stroke:#000000;stroke-width:0.264583;stroke-linecap:round;stroke-linejoin:round" d="m 152.585,92.791235 c -5.17848,3e-6 -9.37669,4.198201 -9.37669,9.376685 0,2.41702 0.81063,9.94024 2.31252,11.60291 0.88999,0.98526 1.42679,2.8722 2.68817,2.03193 0.80462,-0.53599 2.11838,-0.26508 3.06263,-2.43202 -2.324,-0.74806 -3.9426,-4.94159 -3.94443,-7.38302 -6e-5,-3.10719 2.51883,-5.62607 5.62601,-5.62601 3.10719,-6e-5 5.62608,2.51882 5.62601,5.62601 -0.003,2.62945 -1.78375,6.93836 -4.34912,7.51531 1.27005,2.17016 2.30801,1.75645 3.23931,2.29973 1.20333,0.70197 1.80539,-1.14951 2.60351,-2.03193 1.50428,-1.66319 1.88877,-9.18373 1.88877,-11.60291 0,-5.178488 -4.19819,-9.376687 -9.37669,-9.376685 z"/>
    </g></svg>
