<svg xmlns="http://www.w3.org/2000/svg" width="64" height="64" viewBox="126.22049318597922 149.9079502753662 25.346902315142934 25.346902315142934"><defs>
    <inkscape:path-effect xmlns:inkscape="http://www.inkscape.org/namespaces/inkscape" effect="skeletal" is_visible="true" pattern="M -3.4166906,58.569047 1.8423711,56.546332 1.957973,58.222305" copytype="repeated_stretched" prop_scale="1" scale_y_rel="false" spacing="-0.2" normal_offset="0" tang_offset="0" prop_units="false" vertical_pattern="false" fuse_tolerance="0" lpeversion="0" hide_knot="false"/>
  </defs><g transform="matrix(0.28222223,0,0,0.28222223,-2105.1247,431.9551)">
      <ellipse ry="16.062201" rx="31.544556" cy="-977.70422" cx="7951.4053" style="opacity:1;fill:#000000;fill-opacity:1;stroke:#000000;stroke-width:5.26215;stroke-linecap:round;stroke-miterlimit:4;stroke-dasharray:none;stroke-dashoffset:0;stroke-opacity:1"/>
      <rect y="-958.66718" x="7914.5156" height="30.332773" width="73.462189" style="opacity:1;fill:#000000;fill-opacity:1;stroke:#000000;stroke-width:0;stroke-linecap:round;stroke-miterlimit:4;stroke-dasharray:none;stroke-dashoffset:0;stroke-opacity:1"/>
      <path d="m 7979.5462,-958.13547 c -0.4244,26.71341 -10.3857,34.03815 -27.5884,34.03815 -17.2027,0 -26.7171,-6.87789 -27.5884,-34.03815 -0.5516,-17.19389 10.3857,-30.25826 27.5884,-30.25826 17.2027,0 27.8617,13.0577 27.5884,30.25826 z" style="fill:#4b3329;fill-opacity:1;fill-rule:nonzero;stroke:#000000;stroke-width:3.55979;stroke-miterlimit:4;stroke-dashoffset:0;stroke-opacity:1"/>
      <path d="m 7947.508,-959.91537 -1.7708,-1.7799 h -5.2815 -1.8471" style="fill:none;stroke:#000000;stroke-width:1.7799px;stroke-linecap:butt;stroke-linejoin:miter;stroke-opacity:1"/>
      <path d="m 7956.4075,-959.91537 1.9717,-1.7799 h 6.9278" style="fill:none;stroke:#000000;stroke-width:1.7799px;stroke-linecap:butt;stroke-linejoin:miter;stroke-opacity:1"/>
      <path d="m 7945.4454,-961.62371 c 0.2506,0.4067 0.3951,0.88567 0.3951,1.39846 0,1.47447 -1.1953,2.66985 -2.6698,2.66985 -1.4746,0 -2.6699,-1.19538 -2.6699,-2.66985 0,-0.52667 0.1526,-1.01792 0.4159,-1.43157 z" style="fill:#ffffff;stroke:#000000;stroke-width:0.889949;stroke-miterlimit:4;stroke-dashoffset:0;stroke-opacity:1"/>
      <path d="m 7963.2444,-961.62389 c 0.2505,0.4067 0.3951,0.88567 0.3951,1.39846 0,1.47447 -1.1953,2.66985 -2.6699,2.66985 -1.4745,0 -2.6698,-1.19538 -2.6698,-2.66985 0,-0.52667 0.1525,-1.01792 0.4159,-1.43157 z" style="fill:#ffffff;stroke:#000000;stroke-width:0.889949;stroke-miterlimit:4;stroke-dashoffset:0;stroke-opacity:1"/>
      <circle r="0.88994873" cy="-959.90631" cx="7943.0581" style="fill:#000000;fill-opacity:1;fill-rule:nonzero;stroke:#000000;stroke-width:0.889949;stroke-miterlimit:4;stroke-dasharray:none;stroke-dashoffset:0;stroke-opacity:1"/>
      <circle r="0.88994873" cy="-959.90631" cx="7960.9136" style="fill:#000000;fill-opacity:1;fill-rule:nonzero;stroke:#000000;stroke-width:0.889949;stroke-miterlimit:4;stroke-dasharray:none;stroke-dashoffset:0;stroke-opacity:1"/>
      <path d="m 7943.9483,-940.3365 h 3.5597 8.8995 3.5598" style="fill:none;stroke:#000000;stroke-width:1.7799px;stroke-linecap:butt;stroke-linejoin:miter;stroke-opacity:1"/>
      <path d="m 7949.2879,-956.57806 v 10.67938 h 5.3397 v -10.67938" style="fill:none;stroke:#000000;stroke-width:1.7799px;stroke-linecap:butt;stroke-linejoin:miter;stroke-opacity:1"/>
      <path d="m 7926.1493,-970.59475 h 53.3969" style="fill:none;stroke:#000000;stroke-width:1.7799px;stroke-linecap:butt;stroke-linejoin:miter;stroke-opacity:1"/>
      <path d="m 7924.6079,-972.80985 c 3.65,-7.165 11.0821,-14.93762 19.9033,-17.10107 5.4781,-1.34362 11.7753,-1.31763 17.3273,0.0729 8.7418,2.18709 16.1146,9.94396 19.6977,17.02348 0.3712,0.73377 0.6752,1.37789 0.6752,1.43128 0,0.0531 -13.1353,0.0965 -29.1894,0.0965 h -29.1896 l 0.7755,-1.52208 z" style="fill:#000000;fill-opacity:1;fill-rule:nonzero;stroke:#000000;stroke-width:0.0464701;stroke-miterlimit:4;stroke-dasharray:none;stroke-dashoffset:0;stroke-opacity:1"/>
      <rect transform="rotate(-59.858732)" y="6365.7178" x="4805.2837" height="5.3714285" width="15.956303" style="opacity:1;fill:#000000;fill-opacity:1;stroke:#000000;stroke-width:5;stroke-linecap:round;stroke-miterlimit:4;stroke-dasharray:none;stroke-dashoffset:0;stroke-opacity:1"/>
      <rect style="opacity:1;fill:#000000;fill-opacity:1;stroke:#000000;stroke-width:5;stroke-linecap:round;stroke-miterlimit:4;stroke-dasharray:none;stroke-dashoffset:0;stroke-opacity:1" width="15.956303" height="5.3714285" x="-3179.8774" y="-7386.5723" transform="matrix(-0.50213374,-0.86478998,-0.86478998,0.50213374,0,0)"/>
      <rect y="-972.81506" x="7919.1016" height="8.1389322" width="65.406914" style="opacity:1;fill:#7e2d24;fill-opacity:1;stroke:#000000;stroke-width:0;stroke-linecap:round;stroke-miterlimit:4;stroke-dasharray:none;stroke-dashoffset:0;stroke-opacity:1"/>
      <path d="m 7963.1928,-930.83505 c 0,2.40325 -4.5829,15.65399 -10.7939,15.65399 -6.211,0 -11.6981,-13.25074 -11.6981,-15.65399 0,-2.40325 5.035,-4.35147 11.246,-4.35147 6.211,0 11.246,1.94822 11.246,4.35147 z" style="opacity:1;fill:#000000;fill-opacity:1;stroke:#000000;stroke-width:0;stroke-linecap:round;stroke-miterlimit:4;stroke-dasharray:none;stroke-dashoffset:0;stroke-opacity:1"/>
    </g></svg>
