<svg xmlns="http://www.w3.org/2000/svg" width="64" height="64" viewBox="96.94490104258949 99.89690713681935 20.304222404323177 20.304222404323177"><defs>
    <inkscape:path-effect xmlns:inkscape="http://www.inkscape.org/namespaces/inkscape" effect="skeletal" is_visible="true" pattern="M -3.4166906,58.569047 1.8423711,56.546332 1.957973,58.222305" copytype="repeated_stretched" prop_scale="1" scale_y_rel="false" spacing="-0.2" normal_offset="0" tang_offset="0" prop_units="false" vertical_pattern="false" fuse_tolerance="0" lpeversion="0" hide_knot="false"/>
  </defs><g transform="translate(-66.037628,4.0638541)">
      <path d="m 165.91521,111.32424 c 2.68888,0.69941 5.05073,1.54656 7.62598,1.88882 2.40818,-0.32134 4.32961,-1.35488 6.80782,-2.02427 -0.30058,-2.20939 0.22684,-7.52858 -0.64643,-8.40372 -3.33722,-3.102802 -10.42671,-3.37308 -12.92881,0 -1.23741,1.66817 -0.65596,5.38013 -0.85856,8.53917 z" style="fill:#ffffff;fill-opacity:1;stroke:#000000;stroke-width:0.32322px;stroke-linecap:butt;stroke-linejoin:miter;stroke-opacity:1"/>
      <path d="m 168.06666,99.229648 c -0.64645,0.646446 -1.29289,1.939322 -1.61611,3.555422 v 3.2322 l 0.64643,3.87864 c 0.34643,1.15472 1.61611,2.90898 2.26255,3.55542 0.96084,0.97319 1.93932,1.08694 3.2322,1.41016 0.0832,-0.0213 1.20403,0.0229 1.29289,0 1.29287,-0.32322 2.32701,-0.50497 3.23219,-1.41016 0.64645,-0.64644 1.93203,-2.45375 2.26254,-3.55542 l 0.64644,-3.87864 v -3.2322 c -0.32321,-1.6161 -0.96966,-2.908976 -1.6161,-3.555422 0,0 -1.23591,-1.12682 -1.93932,-1.292875 -2.09717,-0.495072 -4.36725,-0.495072 -6.46441,0 -0.7034,0.166055 -1.9393,1.292875 -1.9393,1.292875 z" style="fill:#d8b29e;fill-opacity:1;stroke:#000000;stroke-width:0.646441;stroke-linecap:butt;stroke-linejoin:miter;stroke-miterlimit:4;stroke-dasharray:none;stroke-opacity:1"/>
      <path d="m 172.26851,106.66371 v 2.58575 l 0.96966,0.32323 0.96966,-0.32323 v -2.58575" style="fill:none;stroke:#000000;stroke-width:0.32322;stroke-linecap:butt;stroke-linejoin:miter;stroke-miterlimit:4;stroke-dasharray:none;stroke-opacity:1"/>
      <path d="m 169.87912,110.60868 c 0,0 0.29428,0.47336 0.52901,0.60622 0.36793,0.20825 0.90118,0.49918 1.21394,0.62033 0.48483,0.1878 1.0774,0.3346 1.6161,0.3346 0.5387,0 1.0634,-0.21134 1.61611,-0.3346 0.53449,-0.1192 0.92719,-0.17356 0.92719,-0.17356" style="fill:none;stroke:#000000;stroke-width:0.32322;stroke-linecap:butt;stroke-linejoin:miter;stroke-miterlimit:4;stroke-dasharray:none;stroke-opacity:1"/>
      <path style="fill:#43381f;fill-opacity:1;stroke:#000000;stroke-width:0.264583;stroke-linecap:round;stroke-linejoin:round" d="m 165.78331,100.24435 c 1.06235,-1.827278 4.0273,-3.142275 7.51877,-3.142274 3.44946,10e-7 6.385,1.283549 7.47959,3.076554 2.54573,2.19058 -19.2468,1.8344 -14.99836,0.0657 z"/>
      <path d="m 172.89308,102.04662 c -1.07605,0.28247 -2.78594,0.95972 -3.73477,1.61186 -0.65938,0.34311 -0.74573,0.43138 -1.41488,0.74268 -0.60074,0.39113 -0.65431,1.17214 -0.67708,1.82006 -0.11129,1.51423 -0.0632,3.03541 -0.0295,4.55098 0.002,0.54854 0.30099,1.19702 0.15858,1.67571 -0.54361,0.25575 -0.90854,-0.40133 -1.20783,-0.74943 -0.8235,-1.11237 -0.82645,-2.558 -0.89144,-3.88028 -0.0869,-1.72833 -0.0195,-3.78084 0.70792,-5.35636 0.23368,-0.52501 0.67394,-1.12347 0.96966,-1.61609" style="fill:#c4b070;fill-opacity:1;stroke:#000000;stroke-width:0.646441;stroke-linecap:butt;stroke-linejoin:miter;stroke-miterlimit:4;stroke-dasharray:none;stroke-opacity:1"/>
      <path style="fill:#c4b070;fill-opacity:1;stroke:#000000;stroke-width:0.646441;stroke-linecap:butt;stroke-linejoin:miter;stroke-miterlimit:4;stroke-dasharray:none;stroke-opacity:1" d="m 173.58326,102.04662 c 1.07604,0.28247 2.78594,0.95972 3.73477,1.61186 0.65937,0.34311 0.74572,0.43138 1.41487,0.74268 0.60075,0.39113 0.65433,1.17214 0.67708,1.82006 0.11129,1.51423 0.0632,3.03541 0.0295,4.55098 -0.002,0.54854 -0.30099,1.19702 -0.15859,1.67571 0.5436,0.25575 0.90854,-0.40133 1.20783,-0.74943 0.8235,-1.11237 0.82646,-2.558 0.89142,-3.88028 0.087,-1.72833 0.16515,-3.76655 -0.56231,-5.34207 -0.23367,-0.52501 -0.56098,-1.29345 -0.85669,-1.78607"/>
      <path d="m 164.83445,101.69814 c 0,0 5.55117,1.09749 8.40372,1.08693 2.74682,-0.0102 8.0805,-1.08693 8.0805,-1.08693 v -1.61611 c 0,0 -5.33368,1.07677 -8.0805,1.08694 -2.85255,0.0106 -8.40372,-1.08694 -8.40372,-1.08694 z" style="fill:#c63e1c;fill-opacity:1;stroke:#000000;stroke-width:0.32322px;stroke-linecap:butt;stroke-linejoin:miter;stroke-opacity:1"/>
      <g transform="matrix(0.28222223,0,0,0.28222223,-2244.768,280.35413)">
        <path d="m 8563.2882,-618.57175 -1.7708,-1.7799 h -5.2815 -1.8471" style="fill:none;stroke:#000000;stroke-width:1.7799px;stroke-linecap:butt;stroke-linejoin:miter;stroke-opacity:1"/>
        <path d="m 8572.1877,-618.57175 1.9717,-1.7799 h 6.9278" style="fill:none;stroke:#000000;stroke-width:1.7799px;stroke-linecap:butt;stroke-linejoin:miter;stroke-opacity:1"/>
        <path d="m 8561.2256,-620.28009 c 0.2506,0.4067 0.3951,0.88567 0.3951,1.39846 0,1.47447 -1.1953,2.66985 -2.6698,2.66985 -1.4746,0 -2.6699,-1.19538 -2.6699,-2.66985 0,-0.52667 0.1526,-1.01792 0.4159,-1.43157 z" style="fill:#ffffff;stroke:#000000;stroke-width:0.889949;stroke-miterlimit:4;stroke-dashoffset:0;stroke-opacity:1"/>
        <path d="m 8579.0246,-620.28027 c 0.2505,0.4067 0.3951,0.88567 0.3951,1.39846 0,1.47447 -1.1953,2.66985 -2.6699,2.66985 -1.4745,0 -2.6698,-1.19538 -2.6698,-2.66985 0,-0.52667 0.1525,-1.01792 0.4159,-1.43157 z" style="fill:#ffffff;stroke:#000000;stroke-width:0.889949;stroke-miterlimit:4;stroke-dashoffset:0;stroke-opacity:1"/>
        <circle transform="translate(89.999959,85.000024)" r="0.88994873" cy="-703.56268" cx="8468.8379" style="fill:#000000;fill-opacity:1;fill-rule:nonzero;stroke:#000000;stroke-width:0.889949;stroke-miterlimit:4;stroke-dasharray:none;stroke-dashoffset:0;stroke-opacity:1"/>
        <circle transform="translate(89.999959,85.000024)" r="0.88994873" cy="-703.56268" cx="8486.6934" style="fill:#000000;fill-opacity:1;fill-rule:nonzero;stroke:#000000;stroke-width:0.889949;stroke-miterlimit:4;stroke-dasharray:none;stroke-dashoffset:0;stroke-opacity:1"/>
      </g>
    </g></svg>
