<svg xmlns="http://www.w3.org/2000/svg" width="64" height="64" viewBox="181.4858353450567 29.503452718271994 23.859724283162066 23.859724283162066"><defs>
    <inkscape:path-effect xmlns:inkscape="http://www.inkscape.org/namespaces/inkscape" effect="skeletal" is_visible="true" pattern="M -3.4166906,58.569047 1.8423711,56.546332 1.957973,58.222305" copytype="repeated_stretched" prop_scale="1" scale_y_rel="false" spacing="-0.2" normal_offset="0" tang_offset="0" prop_units="false" vertical_pattern="false" fuse_tolerance="0" lpeversion="0" hide_knot="false"/>
  </defs><g transform="translate(88.553876,-37.226217)">
      <path style="fill:#efd2c3;fill-opacity:1;fill-rule:nonzero;stroke:#000000;stroke-width:0.564444;stroke-miterlimit:4;stroke-dasharray:none;stroke-dashoffset:0;stroke-opacity:1" d="m 96.843067,79.491852 c 0.370388,3.233222 1.675807,5.457585 3.254103,7.080109 1.46454,1.505571 3.16569,2.526199 4.53196,2.526199 1.34112,0 3.04238,-1.041061 4.49916,-2.526199 1.59105,-1.622073 2.89698,-3.826059 3.2869,-7.080109 0.57759,-4.820525 -2.93108,-8.539565 -7.78606,-8.539565 -4.854988,0 -8.338654,3.716104 -7.786063,8.539565 z"/>
      <g transform="matrix(0.28222223,0,0,0.28222223,-2313.3729,253.56422)">
        <path d="m 8563.2882,-618.57175 -1.7708,-1.7799 h -5.2815 -1.8471" style="fill:none;stroke:#000000;stroke-width:1.7799px;stroke-linecap:butt;stroke-linejoin:miter;stroke-opacity:1"/>
        <path d="m 8572.1877,-618.57175 1.9717,-1.7799 h 6.9278" style="fill:none;stroke:#000000;stroke-width:1.7799px;stroke-linecap:butt;stroke-linejoin:miter;stroke-opacity:1"/>
        <path d="m 8561.2256,-620.28009 c 0.2506,0.4067 0.3951,0.88567 0.3951,1.39846 0,1.47447 -1.1953,2.66985 -2.6698,2.66985 -1.4746,0 -2.6699,-1.19538 -2.6699,-2.66985 0,-0.52667 0.1526,-1.01792 0.4159,-1.43157 z" style="fill:#ffffff;stroke:#000000;stroke-width:0.889949;stroke-miterlimit:4;stroke-dashoffset:0;stroke-opacity:1"/>
        <path d="m 8579.0246,-620.28027 c 0.2505,0.4067 0.3951,0.88567 0.3951,1.39846 0,1.47447 -1.1953,2.66985 -2.6699,2.66985 -1.4745,0 -2.6698,-1.19538 -2.6698,-2.66985 0,-0.52667 0.1525,-1.01792 0.4159,-1.43157 z" style="fill:#ffffff;stroke:#000000;stroke-width:0.889949;stroke-miterlimit:4;stroke-dashoffset:0;stroke-opacity:1"/>
        <circle transform="translate(89.999959,85.000024)" r="0.88994873" cy="-703.56268" cx="8468.8379" style="fill:#000000;fill-opacity:1;fill-rule:nonzero;stroke:#000000;stroke-width:0.889949;stroke-miterlimit:4;stroke-dasharray:none;stroke-dashoffset:0;stroke-opacity:1"/>
        <circle transform="translate(89.999959,85.000024)" r="0.88994873" cy="-703.56268" cx="8486.6934" style="fill:#000000;fill-opacity:1;fill-rule:nonzero;stroke:#000000;stroke-width:0.889949;stroke-miterlimit:4;stroke-dasharray:none;stroke-dashoffset:0;stroke-opacity:1"/>
      </g>
      <path style="fill:none;stroke:#000000;stroke-width:0.502327px;stroke-linecap:butt;stroke-linejoin:miter;stroke-opacity:1" d="m 102.37284,84.515097 h 1.00463 2.51164 1.00465"/>
      <path style="fill:none;stroke:#000000;stroke-width:0.502327px;stroke-linecap:butt;stroke-linejoin:miter;stroke-opacity:1" d="m 103.8798,79.931384 -0.39596,2.971688 1.12889,0.282222 1.12889,-0.282222 -0.35484,-2.971688"/>
      <path style="fill:none;stroke:#6c5353;stroke-width:0.846667;stroke-linecap:butt;stroke-linejoin:miter;stroke-miterlimit:4;stroke-dasharray:none;stroke-opacity:1" d="m 101.22601,82.903072 1.12889,0.846666 h 2.25777 2.25784 l 1.12889,-0.846666"/>
      <path style="fill:#6c5353;fill-opacity:1;stroke:#6c5353;stroke-width:0.564444;stroke-linecap:butt;stroke-linejoin:miter;stroke-miterlimit:4;stroke-dasharray:none;stroke-dashoffset:0;stroke-opacity:1" d="m 104.46493,70.105394 c -2.1728,0.02568 -4.36403,0.805096 -5.942471,2.322548 -0.948973,0.910364 -1.678094,2.060335 -2.06804,3.318171 0.118985,0.783365 0.206897,1.573276 0.355487,2.351081 0.08563,0.03643 0.153557,-0.102588 0.229277,-0.133914 1.296501,-1.021024 2.58112,-2.057485 3.871077,-3.087117 2.44844,-0.0175 4.89734,-0.0093 7.34548,-0.04959 0.16301,-0.04809 0.28487,0.03435 0.39855,0.142917 1.24514,0.962801 2.49028,1.925574 3.73541,2.888376 0.10778,-0.06144 0.0597,-0.287867 0.10663,-0.412299 0.0789,-0.595376 0.21434,-1.185249 0.25041,-1.785197 -0.0158,-0.335929 -0.21508,-0.62769 -0.33443,-0.933901 -0.84052,-1.78483 -2.39009,-3.205875 -4.21572,-3.941318 -1.17825,-0.484322 -2.46011,-0.695819 -3.73166,-0.679761 z"/>
      <path d="m 95.830695,68.220902 0.752602,6.020731 h 16.557023 l 0.7526,-6.020731 -3.01038,3.01038 -3.01035,-3.01038 -3.01038,3.01038 -3.01038,-3.01038 -3.010355,3.01038 z" style="fill:#ffff00;stroke:#000000;stroke-width:0.752594;stroke-linecap:butt;stroke-linejoin:miter;stroke-miterlimit:4;stroke-dasharray:none;stroke-opacity:1"/>
    </g></svg>
