<svg xmlns="http://www.w3.org/2000/svg" width="64" height="64" viewBox="183.6889331221947 79.9021112021616 24.238442741554454 24.238442741554454"><defs>
    <inkscape:path-effect xmlns:inkscape="http://www.inkscape.org/namespaces/inkscape" effect="skeletal" is_visible="true" pattern="M -3.4166906,58.569047 1.8423711,56.546332 1.957973,58.222305" copytype="repeated_stretched" prop_scale="1" scale_y_rel="false" spacing="-0.2" normal_offset="0" tang_offset="0" prop_units="false" vertical_pattern="false" fuse_tolerance="0" lpeversion="0" hide_knot="false"/>
  </defs><g transform="translate(25.581658,13.061411)">
      <path d="m 162.5737,79.957961 c 0.71411,6.233414 4.94741,9.60628 7.78606,9.60628 2.80586,0 7.03916,-3.372866 7.78606,-9.60628 0.5776,-4.820525 -2.93107,-8.539565 -7.78606,-8.539565 -4.85498,0 -8.33862,3.716104 -7.78606,8.539565 z" style="fill:#efd2c3;fill-opacity:1;fill-rule:nonzero;stroke:#000000;stroke-width:0.564444;stroke-miterlimit:4;stroke-dasharray:none;stroke-dashoffset:0;stroke-opacity:1"/>
      <g transform="matrix(0.28222223,0,0,0.28222223,-2247.6423,254.03032)">
        <path style="fill:none;stroke:#000000;stroke-width:1.7799px;stroke-linecap:butt;stroke-linejoin:miter;stroke-opacity:1" d="m 8563.2882,-618.57175 -1.7708,-1.7799 h -5.2815 -1.8471"/>
        <path style="fill:none;stroke:#000000;stroke-width:1.7799px;stroke-linecap:butt;stroke-linejoin:miter;stroke-opacity:1" d="m 8572.1877,-618.57175 1.9717,-1.7799 h 6.9278"/>
        <path style="fill:#ffffff;stroke:#000000;stroke-width:0.889949;stroke-miterlimit:4;stroke-dashoffset:0;stroke-opacity:1" d="m 8561.2256,-620.28009 c 0.2506,0.4067 0.3951,0.88567 0.3951,1.39846 0,1.47447 -1.1953,2.66985 -2.6698,2.66985 -1.4746,0 -2.6699,-1.19538 -2.6699,-2.66985 0,-0.52667 0.1526,-1.01792 0.4159,-1.43157 z"/>
        <path style="fill:#ffffff;stroke:#000000;stroke-width:0.889949;stroke-miterlimit:4;stroke-dashoffset:0;stroke-opacity:1" d="m 8579.0246,-620.28027 c 0.2505,0.4067 0.3951,0.88567 0.3951,1.39846 0,1.47447 -1.1953,2.66985 -2.6699,2.66985 -1.4745,0 -2.6698,-1.19538 -2.6698,-2.66985 0,-0.52667 0.1525,-1.01792 0.4159,-1.43157 z"/>
        <circle style="fill:#000000;fill-opacity:1;fill-rule:nonzero;stroke:#000000;stroke-width:0.889949;stroke-miterlimit:4;stroke-dasharray:none;stroke-dashoffset:0;stroke-opacity:1" cx="8468.8379" cy="-703.56268" r="0.88994873" transform="translate(89.999959,85.000024)"/>
        <circle style="fill:#000000;fill-opacity:1;fill-rule:nonzero;stroke:#000000;stroke-width:0.889949;stroke-miterlimit:4;stroke-dasharray:none;stroke-dashoffset:0;stroke-opacity:1" cx="8486.6934" cy="-703.56268" r="0.88994873" transform="translate(89.999959,85.000024)"/>
      </g>
      <path d="m 168.10348,84.981206 h 1.00463 2.51163 1.00466" style="fill:none;stroke:#000000;stroke-width:0.502327px;stroke-linecap:butt;stroke-linejoin:miter;stroke-opacity:1"/>
      <path d="m 169.61043,80.397465 -0.39595,2.971687 h 2.25777 l -0.35483,-2.971687" style="fill:none;stroke:#000000;stroke-width:0.502327px;stroke-linecap:butt;stroke-linejoin:miter;stroke-opacity:1"/>
      <path d="m 170.19557,70.571503 c -2.17281,0.02568 -4.36404,0.805067 -5.94248,2.32252 -0.94897,0.910364 -1.67809,2.060363 -2.06804,3.318171 0.11899,0.783365 0.2069,1.573276 0.35549,2.351081 0.0856,0.03646 0.15356,-0.102588 0.22928,-0.133915 1.2965,-1.021023 2.58112,-2.057456 3.87107,-3.087116 2.44845,-0.0175 4.89735,-0.0093 7.34548,-0.04959 0.16302,-0.04809 0.28488,0.03435 0.39856,0.142917 1.24513,0.962801 2.49027,1.925574 3.73541,2.888375 0.10778,-0.06141 0.0597,-0.287866 0.10662,-0.412298 0.0789,-0.595376 0.21435,-1.185221 0.25042,-1.785169 -0.0158,-0.335929 -0.21508,-0.62769 -0.33444,-0.933901 -0.84051,-1.784826 -2.39008,-3.205871 -4.21572,-3.941343 -1.17825,-0.484321 -2.4601,-0.695818 -3.73165,-0.679732 z" style="fill:#6c5353;fill-opacity:1;stroke:#6c5353;stroke-width:0.564444;stroke-linecap:butt;stroke-linejoin:miter;stroke-miterlimit:4;stroke-dasharray:none;stroke-dashoffset:0;stroke-opacity:1"/>
      <path style="fill:none;stroke:#6c5353;stroke-width:0.282222px;stroke-linecap:butt;stroke-linejoin:miter;stroke-opacity:1" d="m 167.52109,84.498041 2.82222,-0.564444 2.82228,0.564444"/>
      <path d="m 161.19539,68.355607 0.7526,6.020732 h 16.55702 l 0.7526,-6.020732 -3.01038,3.01038 -3.01035,-3.01038 -3.01038,3.01038 -3.01038,-3.01038 -3.01035,3.01038 z" style="fill:#ffff00;stroke:#000000;stroke-width:0.752594;stroke-linecap:butt;stroke-linejoin:miter;stroke-miterlimit:4;stroke-dasharray:none;stroke-opacity:1"/>
    </g></svg>
