<svg xmlns="http://www.w3.org/2000/svg" width="64" height="64" viewBox="120.20639255090214 100.66271796745808 20.934786941885186 20.934786941885186"><defs>
    <inkscape:path-effect xmlns:inkscape="http://www.inkscape.org/namespaces/inkscape" effect="skeletal" is_visible="true" pattern="M -3.4166906,58.569047 1.8423711,56.546332 1.957973,58.222305" copytype="repeated_stretched" prop_scale="1" scale_y_rel="false" spacing="-0.2" normal_offset="0" tang_offset="0" prop_units="false" vertical_pattern="false" fuse_tolerance="0" lpeversion="0" hide_knot="false"/>
  </defs><g transform="translate(98.379133,31.833523)">
      <path style="fill:#f4dacd;fill-opacity:1;stroke:#000000;stroke-width:0.645255;stroke-linecap:butt;stroke-linejoin:miter;stroke-miterlimit:4;stroke-dasharray:none;stroke-opacity:1" d="m 27.172375,72.96945 c -0.707836,0.651312 -1.112144,2.281079 -1.290501,3.226287 -0.440482,2.334481 -0.561661,7.705664 0.927546,9.19487 2.581023,2.581001 3.48454,3.064942 5.524979,3.064942 2.040487,0 2.863332,-0.483941 5.444333,-3.064942 1.47263,-1.47263 1.448724,-6.860389 1.008217,-9.19487 -0.178333,-0.945208 -0.582665,-2.574975 -1.2905,-3.226287 -0.852341,-0.784274 -2.088882,-1.071468 -3.226262,-1.290499 -1.267224,-0.244053 -2.604303,-0.244053 -3.871525,0 -1.137381,0.219031 -2.373922,0.506225 -3.226287,1.290499 z"/>
      <path style="fill:none;stroke:#000000;stroke-width:0.322626;stroke-linecap:butt;stroke-linejoin:miter;stroke-miterlimit:4;stroke-dasharray:none;stroke-opacity:1" d="m 31.648825,81.402987 v 1.290501 c 0,0.322643 0.322619,0.48682 0.645262,0.48682 0.322619,0 0.645262,-0.164177 0.645262,-0.48682 v -1.290501"/>
      <path style="fill:none;stroke:#000000;stroke-width:0.322626;stroke-linecap:butt;stroke-linejoin:miter;stroke-miterlimit:4;stroke-dasharray:none;stroke-opacity:1" d="m 29.713063,84.745346 c 0,0 1.484318,0.322619 2.581024,0.322619 1.09673,0 2.581,-0.322619 2.581,-0.322619"/>
      <path d="m 24.551039,77.002296 7.743048,-1.613142 0.04034,-5.000704 c -5.807287,-0.645262 -8.428648,2.09706 -7.783385,6.613846 z" style="fill:#d0d058;fill-opacity:1;stroke:#000000;stroke-width:0.645255px;stroke-linecap:butt;stroke-linejoin:miter;stroke-opacity:1"/>
      <path style="fill:#d0d058;fill-opacity:1;stroke:#000000;stroke-width:0.645255px;stroke-linecap:butt;stroke-linejoin:miter;stroke-opacity:1" d="m 40.037136,77.002296 -7.743049,-1.613142 v -5.162026 c 5.807287,-0.645263 8.388287,2.258382 7.743049,6.775168 z"/>
      <path d="m 24.913994,72.646831 -0.32262,1.290499 c 2.581001,0.322645 5.162026,0.322645 7.743025,0.322645 3.226287,0 5.16205,0 7.743074,-0.322645 L 39.75483,72.646831 C 37.173829,72.96945 35.560686,72.96945 33.624924,72.96945 L 32.334399,71.678951 31.0439,72.96945 c -1.935762,0 -3.548882,0 -6.129906,-0.322619 z" style="fill:#cccccc;stroke:#000000;stroke-width:0.322626;stroke-linecap:butt;stroke-linejoin:miter;stroke-miterlimit:4;stroke-dasharray:none;stroke-opacity:1"/>
      <path d="m 24.551039,77.002296 1.2905,2.581025" style="fill:none;stroke:#000000;stroke-width:0.322626px;stroke-linecap:butt;stroke-linejoin:miter;stroke-opacity:1"/>
      <path d="m 40.037136,77.002296 -1.2905,2.581025" style="fill:none;stroke:#000000;stroke-width:0.322626px;stroke-linecap:butt;stroke-linejoin:miter;stroke-opacity:1"/>
      <g transform="matrix(0.28222223,0,0,0.28222223,-2385.6865,254.22795)">
        <path style="fill:none;stroke:#000000;stroke-width:1.7799px;stroke-linecap:butt;stroke-linejoin:miter;stroke-opacity:1" d="m 8563.2882,-618.57175 -1.7708,-1.7799 h -5.2815 -1.8471"/>
        <path style="fill:none;stroke:#000000;stroke-width:1.7799px;stroke-linecap:butt;stroke-linejoin:miter;stroke-opacity:1" d="m 8572.1877,-618.57175 1.9717,-1.7799 h 6.9278"/>
        <path style="fill:#ffffff;stroke:#000000;stroke-width:0.889949;stroke-miterlimit:4;stroke-dashoffset:0;stroke-opacity:1" d="m 8561.2256,-620.28009 c 0.2506,0.4067 0.3951,0.88567 0.3951,1.39846 0,1.47447 -1.1953,2.66985 -2.6698,2.66985 -1.4746,0 -2.6699,-1.19538 -2.6699,-2.66985 0,-0.52667 0.1526,-1.01792 0.4159,-1.43157 z"/>
        <path style="fill:#ffffff;stroke:#000000;stroke-width:0.889949;stroke-miterlimit:4;stroke-dashoffset:0;stroke-opacity:1" d="m 8579.0246,-620.28027 c 0.2505,0.4067 0.3951,0.88567 0.3951,1.39846 0,1.47447 -1.1953,2.66985 -2.6699,2.66985 -1.4745,0 -2.6698,-1.19538 -2.6698,-2.66985 0,-0.52667 0.1525,-1.01792 0.4159,-1.43157 z"/>
        <circle style="fill:#000000;fill-opacity:1;fill-rule:nonzero;stroke:#000000;stroke-width:0.889949;stroke-miterlimit:4;stroke-dasharray:none;stroke-dashoffset:0;stroke-opacity:1" cx="8468.8379" cy="-703.56268" r="0.88994873" transform="translate(89.999959,85.000024)"/>
        <circle style="fill:#000000;fill-opacity:1;fill-rule:nonzero;stroke:#000000;stroke-width:0.889949;stroke-miterlimit:4;stroke-dasharray:none;stroke-dashoffset:0;stroke-opacity:1" cx="8486.6934" cy="-703.56268" r="0.88994873" transform="translate(89.999959,85.000024)"/>
      </g>
      <path style="fill:#000000;fill-opacity:0;stroke:none;stroke-width:0.0701772;stroke-linecap:round;stroke-linejoin:round;stroke-dasharray:none" d="m 25.404836,77.136033 c -0.179459,0.03562 -0.358623,0.07302 -0.537378,0.112062 -0.0424,0.03516 0.02201,0.08692 0.03058,0.127828 0.131254,0.267862 0.265751,0.534113 0.39882,0.801089 0.06772,0.03576 0.04034,-0.08865 0.05286,-0.128146 0.02359,-0.296944 0.05077,-0.593297 0.08151,-0.889536 -0.0023,-0.01497 -0.01157,-0.02271 -0.02638,-0.02329 z"/>
      <path style="fill:#000000;fill-opacity:0;stroke:none;stroke-width:0.0350887;stroke-linecap:round;stroke-linejoin:round;stroke-dasharray:none" d="m 39.254671,77.150913 c -0.03681,0.0109 -0.01452,0.05529 -0.01679,0.08235 0.02633,0.273374 0.0509,0.546793 0.06703,0.820621 0.01,0.03027 0.04759,0.01383 0.05184,-0.01134 0.129234,-0.254681 0.258899,-0.509249 0.381623,-0.76713 0.0077,-0.03757 -0.04246,-0.03305 -0.06567,-0.04047 -0.139443,-0.02738 -0.278047,-0.06043 -0.418079,-0.08401 z"/>
      <path style="fill:#000000;fill-opacity:0;stroke:none;stroke-width:0.0350887;stroke-linecap:round;stroke-linejoin:round;stroke-dasharray:none" d="m 35.174281,76.305114 c -0.02382,0.02398 -0.0093,0.06331 -0.01452,0.09366 -0.0055,0.786456 -0.0023,1.572957 -0.0027,2.359414 -0.0026,0.02429 -0.0029,0.06638 0.03271,0.0603 0.415176,0 0.830352,0 1.245505,0 0,0.130233 0,0.260488 0,0.390721 -0.09584,0.0023 -0.192525,-0.0023 -0.287869,0.0023 -0.03441,0.01293 -0.007,0.05576 -0.01202,0.08275 0.0026,0.09525 0.0064,0.196267 -0.02486,0.285033 -0.06754,0.23211 -0.258515,0.427515 -0.493188,0.494073 -0.141304,0.04225 -0.290182,0.0382 -0.430919,-0.0023 -0.03882,0.0026 -0.02319,0.05011 -0.02729,0.07537 -0.0031,0.263051 -0.0023,0.526126 -0.0023,0.789178 0.0095,0.03874 0.05934,0.01702 0.08783,0.02269 1.147392,0 2.294786,0 3.442155,0 0.03811,-0.0098 0.01883,-0.05946 0.02592,-0.08799 0.02019,-0.376339 0.0321,-0.753087 0.03314,-1.129971 -0.0023,-0.05806 0.006,-0.117778 -0.0023,-0.174854 -0.02343,-0.02641 -0.06456,-0.03459 -0.09507,-0.05356 -0.04151,-0.009 0.0064,-0.04826 0.0109,-0.07286 0.02822,-0.06037 0.06318,-0.118324 0.0872,-0.180185 -0.01226,-0.646197 -0.04289,-1.292349 -0.108138,-1.935505 -0.01134,-0.09918 -0.01723,-0.199444 -0.03565,-0.297578 -0.02086,-0.02874 -0.06432,-0.02019 -0.09485,-0.03217 -1.10597,-0.23211 -2.212077,-0.463676 -3.318865,-0.691907 -0.0052,0 -0.01043,0.0023 -0.01543,0.0027 z"/>
      <path style="fill:#000080;fill-opacity:0;stroke-width:0.27999;stroke-linecap:round;stroke-linejoin:round" d="m 130.43532,299.67314 c -0.27292,0.0146 -0.56034,-0.0158 -0.82419,0.0268 -0.35002,0.80147 -0.27639,1.81569 0.29874,2.4971 0.54327,0.68 1.46542,1.04339 2.32429,0.85309 1.135,-0.21999 2.0362,-1.37092 1.8909,-2.53589 -0.031,-0.26763 -0.0551,-0.58254 -0.23721,-0.79133 -0.56193,-0.0296 -1.13255,-0.0413 -1.69111,-0.0292 0.12094,0.12658 0.34857,0.19229 0.47584,0.34975 0.29704,0.2696 0.46582,0.66459 0.41598,1.0659 0.0482,0.56755 -0.39649,1.09068 -0.90846,1.28277 -0.56926,0.18307 -1.25735,0.0145 -1.60721,-0.49194 -0.44497,-0.58192 -0.33735,-1.49205 0.2539,-1.94297 0.11378,-0.1333 0.34462,-0.16546 0.4274,-0.2857 -0.2694,-0.0159 -0.54682,0.004 -0.81887,0.002 z" transform="scale(0.26458333)"/>
      <path style="fill:#0000ff;fill-opacity:0;stroke-width:0.139995;stroke-linecap:round;stroke-linejoin:round" d="m 148.37252,291.65707 c -0.0631,0.0538 0,0.16376 -0.0116,0.23802 0.10198,1.00701 0.17536,2.01651 0.25313,3.02545 0.0291,0.0875 0.1054,-0.017 0.11952,-0.0614 0.45112,-0.86661 0.88655,-1.74176 1.31175,-2.6214 0.0156,-0.0694 0.10349,-0.15666 0.0559,-0.22526 -0.57241,-0.13283 -1.15041,-0.25114 -1.72873,-0.35541 z" transform="scale(0.26458333)"/>
      <path style="fill:#808000;fill-opacity:0;stroke-width:0.791931;stroke-linecap:round;stroke-linejoin:round" d="m 126.43278,266.40396 c -1.02448,0.0515 -2.10086,-0.081 -3.08773,0.20417 0.005,1.52883 -0.0104,3.06178 0.008,4.58808 1.308,1.30214 2.60409,2.62213 3.91944,3.91325 6.57384,0.0245 13.17441,-0.012 19.70415,-0.84253 0.1463,-0.21503 -0.31843,-0.51526 -0.41582,-0.7278 -2.95998,-3.71332 -7.49944,-5.80436 -12.09332,-6.63112 -2.64014,-0.57585 -5.34981,-0.48073 -8.03445,-0.50405 z" transform="scale(0.26458333)"/>
      <path style="fill:#808000;fill-opacity:0;stroke-width:0.791931;stroke-linecap:round;stroke-linejoin:round" d="m 149.4843,280.34672 c -4.35469,0.44596 -8.72514,0.74524 -13.10399,0.81226 -4.34094,0.11179 -8.71216,0.0713 -13.03526,0.17942 0.0317,0.85923 -0.0589,1.75703 0.0493,2.59875 8.8936,1.8409 17.77345,3.76296 26.68017,5.53158 0.40271,-0.12235 0.17001,-0.77656 0.28239,-1.07631 0.15534,-2.6758 0.0692,-5.40809 -0.57892,-8.01366 -0.0731,-0.0663 -0.20967,-0.0127 -0.29366,-0.032 z" transform="scale(0.26458333)"/>
    </g></svg>
