<svg xmlns="http://www.w3.org/2000/svg" width="64" height="64" viewBox="42.896419374649334 95.62537708277966 29.1894508179778 29.1894508179778"><defs>
    <inkscape:path-effect xmlns:inkscape="http://www.inkscape.org/namespaces/inkscape" effect="skeletal" is_visible="true" pattern="M -3.4166906,58.569047 1.8423711,56.546332 1.957973,58.222305" copytype="repeated_stretched" prop_scale="1" scale_y_rel="false" spacing="-0.2" normal_offset="0" tang_offset="0" prop_units="false" vertical_pattern="false" fuse_tolerance="0" lpeversion="0" hide_knot="false"/>
  </defs><g transform="matrix(0.14366986,0,0,0.14366986,-1232.1194,296.30173)">
      <path d="m 8942.074,-1354.2231 c -4.6804,4.3067 -7.354,15.0833 -8.5333,21.3333 -2.9127,15.4366 1.8707,53.0708 10.6667,61.8667 17.0666,17.0667 25.6,19.2 32,19.2 6.4,0 12.8,-2.1333 29.8667,-19.2 8.3687,-8.3688 15.7126,-46.4301 12.7999,-61.8667 -1.1793,-6.25 -3.8528,-17.0266 -8.5333,-21.3333 -5.636,-5.1859 -13.8126,-7.085 -21.3333,-8.5333 -8.3794,-1.6138 -17.2207,-1.6138 -25.6,0 -7.5207,1.4483 -15.6973,3.3474 -21.3334,8.5333 z" style="fill:#efd2c3;fill-opacity:1;stroke:#000000;stroke-width:4.26667;stroke-linecap:butt;stroke-linejoin:miter;stroke-miterlimit:4;stroke-dasharray:none;stroke-opacity:1"/>
      <path d="m 8950.6074,-1320.0898 c 0,0 4.1513,-2.1333 6.4,-2.1333 2.2487,0 6.4,2.1333 6.4,2.1333" style="fill:none;stroke:#000000;stroke-width:1.06667;stroke-linecap:butt;stroke-linejoin:miter;stroke-miterlimit:4;stroke-dasharray:none;stroke-opacity:1"/>
      <path d="m 8989.0074,-1320.0898 c 0,0 4.1513,-2.1333 6.4,-2.1333 2.2487,0 6.4,2.1333 6.4,2.1333" style="fill:none;stroke:#000000;stroke-width:1.06667;stroke-linecap:butt;stroke-linejoin:miter;stroke-miterlimit:4;stroke-dasharray:none;stroke-opacity:1"/>
      <path d="m 8971.9407,-1300.8898 v 6.2858 c 0,2.2476 2.1334,4.3809 4.2667,4.3809 2.1333,0 4.2666,-2.1333 4.2666,-4.2667 v -6.4" style="fill:none;stroke:#000000;stroke-width:2.13333;stroke-linecap:butt;stroke-linejoin:miter;stroke-miterlimit:4;stroke-dasharray:none;stroke-opacity:1"/>
      <path d="m 8957.0074,-1275.2898 c 0,0 11.9481,2.1334 19.2,2.1334 7.2519,0 19.2,-2.1334 19.2,-2.1334" style="fill:none;stroke:#000000;stroke-width:2.13333;stroke-linecap:butt;stroke-linejoin:miter;stroke-miterlimit:4;stroke-dasharray:none;stroke-opacity:1"/>
      <g transform="matrix(3.75,0,0,3.75,8464.855,-1552.3398)">
        <path d="m 133.12,64.127639 c 0,0 -1.07062,0.853334 -1.70667,0.853334 -0.63604,0 -1.70666,-0.853334 -1.70666,-0.853334" style="fill:none;stroke:#000000;stroke-width:0.426667;stroke-linecap:butt;stroke-linejoin:miter;stroke-miterlimit:4;stroke-dasharray:none;stroke-opacity:1"/>
      </g>
      <g transform="matrix(3.75,0,0,3.75,8501.6169,-1552.3398)">
        <path style="fill:none;stroke:#000000;stroke-width:0.426667;stroke-linecap:butt;stroke-linejoin:miter;stroke-miterlimit:4;stroke-dasharray:none;stroke-opacity:1" d="m 133.55683,64.127639 c 0,0 -1.07063,0.853334 -1.70666,0.853334 -0.63605,0 -1.70667,-0.853334 -1.70667,-0.853334"/>
      </g>
      <path style="fill:#cd5a15;fill-opacity:1;stroke:#000000;stroke-width:4.26667px;stroke-linecap:butt;stroke-linejoin:miter;stroke-opacity:1" d="m 8929.2741,-1322.2231 c 25.6,-4.2667 36.2666,-10.6667 46.9333,-21.3333 v -27.7334 c -38.4,-4.2666 -51.2,19.2 -46.9333,49.0667 z"/>
      <path d="m 9023.1407,-1322.2231 c -25.6,-4.2667 -37.3589,-10.323 -46.9333,-21.3333 v -27.7334 c 38.4,-4.2666 51.2,19.2 46.9333,49.0667 z" style="fill:#cd5a15;fill-opacity:1;stroke:#000000;stroke-width:4.26667px;stroke-linecap:butt;stroke-linejoin:miter;stroke-opacity:1"/>
      <path d="m 8933.5407,-1253.9564 42.6667,27.7333 42.6666,-27.7333" style="fill:none;stroke:#000000;stroke-width:4.26667;stroke-linecap:butt;stroke-linejoin:miter;stroke-miterlimit:4;stroke-dasharray:none;stroke-opacity:1"/>
      <path transform="matrix(2.1231126,0.20857532,-0.20857532,2.1231126,8464.9499,-1476.6425)" d="m 243,98.362182 0.95832,-2.736578 -2.5205,-1.433295 2.19822,-1.890787 -1.46617,-2.501518 2.84911,-0.538361 -0.019,-2.899461 2.73658,0.958318 1.43329,-2.520495 1.89079,2.198217 2.50152,-1.466166 0.53836,2.849105 2.89946,-0.01898 -0.95832,2.736578 2.5205,1.433295 -2.19822,1.890787 1.46617,2.501518 -2.84911,0.538361 0.019,2.899458 -2.73658,-0.958315 -1.43329,2.520495 -1.89079,-2.198216 -2.50152,1.466166 -0.53836,-2.849106 z" style="fill:#ffff00;fill-opacity:1;stroke:#000000;stroke-width:1;stroke-linecap:round;stroke-linejoin:miter;stroke-miterlimit:4;stroke-dasharray:none;stroke-dashoffset:0;stroke-opacity:1"/>
      <path d="m 8984.7407,-1226.2231 c 0,4.2667 -4.2667,8.5333 -8.5333,8.5333 -4.2667,0 -8.5333,-4.2666 -8.5333,-8.5333 0,-4.2667 4.2666,-8.5333 8.5333,-8.5333 4.2666,0 8.5333,4.2666 8.5333,8.5333 z" style="fill:#0000ff;stroke:#000000;stroke-width:2.13333;stroke-linecap:round;stroke-linejoin:miter;stroke-miterlimit:4;stroke-dashoffset:0;stroke-opacity:1"/>
      <path d="m 8939.9407,-1247.5564 c 0,-4.6452 -6.4,-8.5334 -6.4,-14.9334 -1.1005,-6.1216 -2.1333,-11.6205 -2.1333,-17.0666 0,-42.6667 3.3303,-66.3728 44.8,-74.6667 41.471,8.2942 44.8,32 44.8,74.6667 0,5.2011 -2.1334,10.6666 -2.1334,17.0666 0,6.4 -6.3999,10.0708 -6.3999,14.9334 h 17.0666 l 6.4,-93.8667 c 0,-23.4667 -6.4,-32 -59.7333,-42.6667 -53.3334,10.6667 -59.7333,19.2 -59.7333,42.6667 l 6.3999,93.8667 z" style="fill:#800080;stroke:#000000;stroke-width:2.13333px;stroke-linecap:butt;stroke-linejoin:miter;stroke-opacity:1"/>
    </g></svg>
