<svg xmlns="http://www.w3.org/2000/svg" width="64" height="64" viewBox="119.15426411528469 40.239033050861536 24.669745157098987 24.669745157098987"><defs>
    <inkscape:path-effect xmlns:inkscape="http://www.inkscape.org/namespaces/inkscape" effect="skeletal" is_visible="true" pattern="M -3.4166906,58.569047 1.8423711,56.546332 1.957973,58.222305" copytype="repeated_stretched" prop_scale="1" scale_y_rel="false" spacing="-0.2" normal_offset="0" tang_offset="0" prop_units="false" vertical_pattern="false" fuse_tolerance="0" lpeversion="0" hide_knot="false"/>
  </defs><g transform="translate(49.468301,7.0896596)">
      <path style="fill:#efd2c3;fill-opacity:1;fill-rule:evenodd;stroke:#000000;stroke-width:0.291703px;stroke-linecap:butt;stroke-linejoin:miter;stroke-opacity:1" d="m 72.394628,43.469024 -0.583405,-0.87511 -0.583406,3.208735 0.583406,0.583406"/>
      <path style="fill:#efd2c3;fill-opacity:1;fill-rule:evenodd;stroke:#000000;stroke-width:0.291703px;stroke-linecap:butt;stroke-linejoin:miter;stroke-opacity:1" d="m 91.647038,43.469024 0.583405,-0.87511 0.583406,3.208735 -0.583406,0.583406"/>
      <path style="fill:#efd2c3;fill-opacity:1;fill-rule:evenodd;stroke:#000000;stroke-width:0.291703px;stroke-linecap:butt;stroke-linejoin:miter;stroke-opacity:1" d="m 79.103801,54.845445 c -1.375102,-1.375102 -4.458961,0.20829 -5.834063,-1.166812 -3.093979,-3.093978 -1.267964,-8.938839 0,-13.12664 0.507968,-1.677704 1.371529,-3.548418 2.917032,-4.375548 3.429163,-1.835232 8.238962,-1.835232 11.668124,0 1.545504,0.82713 2.409064,2.697845 2.917032,4.375548 1.267964,4.187801 3.093978,10.032662 0,13.12664 -1.375102,1.375102 -4.45896,-0.20829 -5.834062,1.166812 -0.343776,0.343777 0.343776,-0.05207 0,0.291704 -1.375102,1.375102 -4.458961,1.375102 -5.834063,0 -0.343776,-0.343776 0.343776,0.05207 0,-0.291704 z"/>
      <g transform="matrix(0.99920434,0.46593663,-0.46593663,0.99920434,19.90069,-36.924486)">
        <path d="m 80.494432,44.589579 -0.60746,-0.610582 h -1.811781 -0.633635" style="fill:none;stroke:#000000;stroke-width:0.610582px;stroke-linecap:butt;stroke-linejoin:miter;stroke-opacity:1"/>
        <path d="m 79.786872,44.003545 c 0.08597,0.139516 0.135536,0.303823 0.135536,0.479732 0,0.505807 -0.410039,0.915873 -0.915856,0.915873 -0.505851,0 -0.91589,-0.410066 -0.91589,-0.915873 0,-0.18067 0.05235,-0.34919 0.142671,-0.49109 z" style="fill:#ffffff;stroke:#000000;stroke-width:0.305291;stroke-miterlimit:4;stroke-dashoffset:0;stroke-opacity:1"/>
        <circle r="0.30529058" cy="44.592693" cx="78.967728" style="fill:#000000;fill-opacity:1;fill-rule:nonzero;stroke:#000000;stroke-width:0.305291;stroke-miterlimit:4;stroke-dasharray:none;stroke-dashoffset:0;stroke-opacity:1"/>
      </g>
      <g transform="matrix(0.99920434,-0.46593663,0.46593663,0.99920434,-19.766847,39.51077)">
        <path d="m 83.547342,44.589579 0.676378,-0.610582 h 2.376532" style="fill:none;stroke:#000000;stroke-width:0.610582px;stroke-linecap:butt;stroke-linejoin:miter;stroke-opacity:1"/>
        <path d="m 85.892692,44.003484 c 0.08593,0.139515 0.135536,0.303822 0.135536,0.479731 0,0.505807 -0.410039,0.915873 -0.91589,0.915873 -0.505817,0 -0.915856,-0.410066 -0.915856,-0.915873 0,-0.18067 0.05231,-0.34919 0.142672,-0.49109 z" style="fill:#ffffff;stroke:#000000;stroke-width:0.305291;stroke-miterlimit:4;stroke-dashoffset:0;stroke-opacity:1"/>
        <circle r="0.30529058" cy="44.592693" cx="85.092918" style="fill:#000000;fill-opacity:1;fill-rule:nonzero;stroke:#000000;stroke-width:0.305291;stroke-miterlimit:4;stroke-dasharray:none;stroke-dashoffset:0;stroke-opacity:1"/>
      </g>
      <path style="fill:#ffffcf;fill-opacity:1;fill-rule:evenodd;stroke:#000000;stroke-width:0.291703px;stroke-linecap:butt;stroke-linejoin:miter;stroke-opacity:1" d="m 79.103801,51.345008 -1.166812,-2.041921 v 2.625327"/>
      <path style="fill:none;fill-rule:evenodd;stroke:#000000;stroke-width:0.291703px;stroke-linecap:butt;stroke-linejoin:miter;stroke-opacity:1" d="m 80.854019,44.927539 -0.875108,3.792141 2.041922,1.166813 2.041921,-1.166813 -0.875108,-3.792141"/>
      <path style="fill:#ffffcf;fill-opacity:1;fill-rule:evenodd;stroke:#000000;stroke-width:0.291703px;stroke-linecap:butt;stroke-linejoin:miter;stroke-opacity:1" d="m 84.937864,51.345008 1.166812,-2.041921 v 2.625327"/>
      <path style="fill:none;fill-rule:evenodd;stroke:#000000;stroke-width:0.291703px;stroke-linecap:butt;stroke-linejoin:miter;stroke-opacity:1" d="m 77.645286,51.928415 1.478708,-0.583407 h 5.810519 l 1.461867,0.583407"/>
      <path style="fill:none;fill-rule:evenodd;stroke:#000000;stroke-width:0.291703px;stroke-linecap:butt;stroke-linejoin:miter;stroke-opacity:1" d="m 79.103801,37.634962 h 5.834063"/>
      <path style="fill:none;fill-rule:evenodd;stroke:#000000;stroke-width:0.291703px;stroke-linecap:butt;stroke-linejoin:miter;stroke-opacity:1" d="m 77.936989,38.510071 h 8.167687"/>
      <path style="fill:none;fill-rule:evenodd;stroke:#000000;stroke-width:0.291703px;stroke-linecap:butt;stroke-linejoin:miter;stroke-opacity:1" d="m 77.936989,39.968587 h 8.167687"/>
    </g></svg>
