<svg xmlns="http://www.w3.org/2000/svg" width="64" height="64" viewBox="70.80705692715716 40.96154338170698 25.08744075566975 25.08744075566975"><defs>
    <inkscape:path-effect xmlns:inkscape="http://www.inkscape.org/namespaces/inkscape" effect="skeletal" is_visible="true" pattern="M -3.4166906,58.569047 1.8423711,56.546332 1.957973,58.222305" copytype="repeated_stretched" prop_scale="1" scale_y_rel="false" spacing="-0.2" normal_offset="0" tang_offset="0" prop_units="false" vertical_pattern="false" fuse_tolerance="0" lpeversion="0" hide_knot="false"/>
  </defs><g transform="translate(33.68247,0.85311888)">
      <path style="fill:#808080;fill-opacity:1;fill-rule:evenodd;stroke:#000000;stroke-width:0.385091px;stroke-linecap:butt;stroke-linejoin:miter;stroke-opacity:1" d="m 41.764862,44.317078 c -2.632625,5.195054 -1.738537,17.385371 -1.738537,17.385371 l 8.08692,1.925457 0.385091,-11.552744 c 0,0 -3.050932,-0.08008 -3.850913,-1.155274 -0.383122,-0.514927 -0.623862,-1.774696 0,-1.925458 1.899422,-0.459009 7.218547,-0.568926 10.012377,0 0.628911,0.128066 0.383121,1.410531 0,1.925458 -0.799981,1.075199 -3.850914,1.155274 -3.850914,1.155274 l 0.38509,11.552744 8.086921,-1.925457 c 0,0 0.99279,-12.262493 -1.741647,-17.416489 -0.448462,-0.845282 -1.329279,-1.45243 -2.205005,-1.838083 -1.7488,-0.77014 -3.769768,-0.767349 -5.680634,-0.770183 -1.953635,-0.0029 -4.036001,-0.04795 -5.810082,0.770183 -0.846188,0.390223 -1.657454,1.038004 -2.078667,1.869201 z"/>
      <path style="fill:#000000;fill-opacity:1;stroke:#000000;stroke-width:0.0435665;stroke-linecap:round;stroke-linejoin:round;stroke-dasharray:none;stroke-opacity:1" d="m 49.276459,48.828945 c -1.514761,0.0077 -3.044333,0.05148 -4.531348,0.361555 -0.302609,0.03397 -0.237906,0.40376 -0.250252,0.618611 0.0027,0.645093 0.400888,1.279154 1.025067,1.488894 1.011513,0.415313 2.115215,0.537291 3.199614,0.576855 -0.128671,3.141033 -0.231625,6.28358 -0.309479,9.426207 -0.09,0.347237 0.38637,0.128248 0.576578,0.188814 0.640943,-0.0069 1.293265,0.01372 1.92714,-0.01018 -0.08729,-3.206318 -0.223773,-6.411541 -0.304965,-9.618002 1.117581,-0.01698 2.263444,-0.163344 3.291118,-0.624179 0.421001,-0.171012 0.739595,-0.535558 0.839281,-0.98055 0.07193,-0.319823 0.18638,-0.718396 -0.01694,-1.010881 -0.383012,-0.159732 -0.8243,-0.153436 -1.232281,-0.224235 -1.397773,-0.183573 -2.805953,-0.201333 -4.213539,-0.192881 z"/>
    </g></svg>
