<svg xmlns="http://www.w3.org/2000/svg" width="64" height="64" viewBox="51.387531398572236 154.93092706303156 22.86574607252539 22.86574607252539"><defs>
    <inkscape:path-effect xmlns:inkscape="http://www.inkscape.org/namespaces/inkscape" effect="skeletal" is_visible="true" pattern="M -3.4166906,58.569047 1.8423711,56.546332 1.957973,58.222305" copytype="repeated_stretched" prop_scale="1" scale_y_rel="false" spacing="-0.2" normal_offset="0" tang_offset="0" prop_units="false" vertical_pattern="false" fuse_tolerance="0" lpeversion="0" hide_knot="false"/>
  </defs><g transform="matrix(0.17638889,0,0,0.17638889,-1417.0016,347.4963)">
      <path style="fill:#efd2c3;fill-opacity:1;stroke:#000000;stroke-width:4.26667;stroke-linecap:butt;stroke-linejoin:miter;stroke-miterlimit:4;stroke-dasharray:none;stroke-opacity:1" d="m 8355.4074,-1074.7564 c -4.2667,4.2666 -8.5334,6.4 -10.6667,25.6 v 21.3333 l 4.2667,25.6 c 2.2864,7.62147 6.4,19.2 10.6667,23.46667 6.3417,6.4233 17.0666,6.4 25.5999,8.53333 0.5495,-0.14037 7.9469,0.15083 8.5334,0 8.5333,-2.13333 19.6257,-2.55899 25.6,-8.53333 4.2666,-4.26667 8.4853,-16.19537 10.6667,-23.46667 l 4.2666,-25.6 v -21.3333 c -2.1333,-19.2 -6.4,-21.3334 -10.6667,-25.6 0,0 -8.1573,-5.304 -12.7999,-6.4 -13.8418,-3.2676 -28.8249,-3.2676 -42.6667,0 -4.6427,1.096 -12.8,6.4 -12.8,6.4 z"/>
      <path style="fill:none;stroke:#000000;stroke-width:2.13333;stroke-linecap:butt;stroke-linejoin:miter;stroke-miterlimit:4;stroke-dasharray:none;stroke-opacity:1" d="m 8363.9407,-1034.2231 12.8,-2.1333 4.5334,7.4666"/>
      <path style="fill:none;stroke:#000000;stroke-width:2.13333;stroke-linecap:butt;stroke-linejoin:miter;stroke-miterlimit:4;stroke-dasharray:none;stroke-opacity:1" d="m 8398.3407,-1028.8898 4,-7.4666 12.8,2.1333"/>
      <path style="fill:none;stroke:#000000;stroke-width:2.13333;stroke-linecap:butt;stroke-linejoin:miter;stroke-miterlimit:4;stroke-dasharray:none;stroke-opacity:1" d="m 8383.1407,-1023.5564 v 19.2 l 6.4,2.1333 6.4,-2.1333 v -19.2"/>
      <path style="fill:none;stroke:#000000;stroke-width:2.13333;stroke-linecap:butt;stroke-linejoin:miter;stroke-miterlimit:4;stroke-dasharray:none;stroke-opacity:1" d="m 8368.2074,-995.8231 2.1721,2.56777 8.4946,1.6989 h 10.6666 10.6667 l 8.5333,-2.13333 2.1334,-2.13334"/>
      <g transform="matrix(3.75,0,0,3.75,7880.1451,-1266.4486)">
        <path d="m 129.08326,63.349027 c 0,0 1.07063,-0.853333 1.70667,-0.853333 0.63604,0 1.70667,0.853333 1.70667,0.853333 0,0 -1.07063,0.853334 -1.70667,0.853334 -0.63604,0 -1.70667,-0.853334 -1.70667,-0.853334 z" style="fill:none;stroke:#000000;stroke-width:0.426667;stroke-linecap:butt;stroke-linejoin:miter;stroke-miterlimit:4;stroke-dasharray:none;stroke-opacity:1"/>
        <path style="fill:#ffffff;fill-opacity:1;stroke:#000000;stroke-width:0.341333;stroke-linecap:round;stroke-linejoin:miter;stroke-miterlimit:4;stroke-dashoffset:0;stroke-opacity:1" d="m 131.47261,63.349026 c 0,0.377025 -0.30564,0.682667 -0.68267,0.682667 -0.37702,0 -0.68267,-0.305642 -0.68267,-0.682667 0,-0.377027 0.30565,-0.682667 0.68267,-0.682667 0.37703,0 0.68267,0.30564 0.68267,0.682667 z"/>
      </g>
      <g transform="matrix(3.75,0,0,3.75,7918.5451,-1266.4486)">
        <path d="m 129.08326,63.349027 c 0,0 1.07063,-0.853333 1.70667,-0.853333 0.63604,0 1.70667,0.853333 1.70667,0.853333 0,0 -1.07063,0.853334 -1.70667,0.853334 -0.63604,0 -1.70667,-0.853334 -1.70667,-0.853334 z" style="fill:none;stroke:#000000;stroke-width:0.426667;stroke-linecap:butt;stroke-linejoin:miter;stroke-miterlimit:4;stroke-dasharray:none;stroke-opacity:1"/>
        <path style="fill:#ffffff;fill-opacity:1;stroke:#000000;stroke-width:0.341333;stroke-linecap:round;stroke-linejoin:miter;stroke-miterlimit:4;stroke-dashoffset:0;stroke-opacity:1" d="m 131.47261,63.349026 c 0,0.377025 -0.30564,0.682667 -0.68267,0.682667 -0.37702,0 -0.68267,-0.305642 -0.68267,-0.682667 0,-0.377027 0.30565,-0.682667 0.68267,-0.682667 0.37703,0 0.68267,0.30564 0.68267,0.682667 z"/>
      </g>
      <path d="m 8349.0074,-1066.2231 c 8.5333,4.2667 17.0666,4.2667 25.6,4.2667 0,0 -0.06,6.4601 -2.1333,8.5333 -4.2667,4.2667 -10.6667,4.2667 -14.9334,6.4 -4.2666,2.1333 -12.8,2.1333 -12.8,2.1333" style="fill:#f9f9f9;stroke:#000000;stroke-width:4.26667;stroke-linecap:butt;stroke-linejoin:miter;stroke-miterlimit:4;stroke-dasharray:none;stroke-opacity:1"/>
      <path style="fill:#f9f9f9;stroke:#000000;stroke-width:4.26667;stroke-linecap:butt;stroke-linejoin:miter;stroke-miterlimit:4;stroke-dasharray:none;stroke-opacity:1" d="m 8430.0741,-1066.2231 c -8.5334,4.2667 -17.0667,4.2667 -25.6001,4.2667 0,0 0.06,6.4601 2.1334,8.5333 4.2667,4.2667 10.6667,4.2667 14.9333,6.4 4.2667,2.1333 12.8,2.1333 12.8,2.1333"/>
    </g></svg>
