<svg xmlns="http://www.w3.org/2000/svg" width="64" height="64" viewBox="92.19403117986654 34.040329978000244 30.950686938932197 30.950686938932197"><defs>
    <inkscape:path-effect xmlns:inkscape="http://www.inkscape.org/namespaces/inkscape" effect="skeletal" is_visible="true" pattern="M -3.4166906,58.569047 1.8423711,56.546332 1.957973,58.222305" copytype="repeated_stretched" prop_scale="1" scale_y_rel="false" spacing="-0.2" normal_offset="0" tang_offset="0" prop_units="false" vertical_pattern="false" fuse_tolerance="0" lpeversion="0" hide_knot="false"/>
  </defs><g transform="matrix(0.9025,0,0,0.9025,-28.438904,-15.364341)">
      <path style="fill:#666666;fill-opacity:1;fill-rule:evenodd;stroke:#666666;stroke-width:0.264583px;stroke-linecap:butt;stroke-linejoin:miter;stroke-opacity:1" d="m 158.48541,75.406249 1.05834,0.529167 -1.32292,2.116666"/>
      <path style="fill:#666666;fill-opacity:1;fill-rule:evenodd;stroke:#666666;stroke-width:0.264583px;stroke-linecap:butt;stroke-linejoin:miter;stroke-opacity:1" d="m 142.875,75.406249 -1.05834,0.529167 1.32292,2.116666"/>
      <path d="m 143.04284,77.286726 c 0.7141,6.233414 4.94741,9.60628 7.78606,9.60628 2.80585,0 7.03916,-3.372866 7.78606,-9.60628 0.57759,-4.820525 -2.93108,-8.539565 -7.78606,-8.539565 -4.85499,0 -8.33863,3.716104 -7.78606,8.539565 z" style="fill:#bbaca4;fill-opacity:1;fill-rule:nonzero;stroke:#000000;stroke-width:0.564444;stroke-miterlimit:4;stroke-dasharray:none;stroke-dashoffset:0;stroke-opacity:1"/>
      <g transform="matrix(0.28222223,0,0,0.28222223,-2267.1732,251.35908)">
        <path style="fill:none;stroke:#000000;stroke-width:1.7799px;stroke-linecap:butt;stroke-linejoin:miter;stroke-opacity:1" d="m 8563.2882,-618.57175 -1.7708,-1.7799 h -5.2815 -1.8471"/>
        <path style="fill:none;stroke:#000000;stroke-width:1.7799px;stroke-linecap:butt;stroke-linejoin:miter;stroke-opacity:1" d="m 8572.1877,-618.57175 1.9717,-1.7799 h 6.9278"/>
        <path style="fill:#ffffff;stroke:#000000;stroke-width:0.889949;stroke-miterlimit:4;stroke-dashoffset:0;stroke-opacity:1" d="m 8561.2256,-620.28009 c 0.2506,0.4067 0.3951,0.88567 0.3951,1.39846 0,1.47447 -1.1953,2.66985 -2.6698,2.66985 -1.4746,0 -2.6699,-1.19538 -2.6699,-2.66985 0,-0.52667 0.1526,-1.01792 0.4159,-1.43157 z"/>
        <path style="fill:#ffffff;stroke:#000000;stroke-width:0.889949;stroke-miterlimit:4;stroke-dashoffset:0;stroke-opacity:1" d="m 8579.0246,-620.28027 c 0.2505,0.4067 0.3951,0.88567 0.3951,1.39846 0,1.47447 -1.1953,2.66985 -2.6699,2.66985 -1.4745,0 -2.6698,-1.19538 -2.6698,-2.66985 0,-0.52667 0.1525,-1.01792 0.4159,-1.43157 z"/>
        <circle style="fill:#000000;fill-opacity:1;fill-rule:nonzero;stroke:#000000;stroke-width:0.889949;stroke-miterlimit:4;stroke-dasharray:none;stroke-dashoffset:0;stroke-opacity:1" cx="8468.8379" cy="-703.56268" r="0.88994873" transform="translate(89.999959,85.000024)"/>
        <circle style="fill:#000000;fill-opacity:1;fill-rule:nonzero;stroke:#000000;stroke-width:0.889949;stroke-miterlimit:4;stroke-dasharray:none;stroke-dashoffset:0;stroke-opacity:1" cx="8486.6934" cy="-703.56268" r="0.88994873" transform="translate(89.999959,85.000024)"/>
      </g>
      <path d="m 148.57261,82.309971 h 1.00463 2.51164 1.00465" style="fill:none;stroke:#000000;stroke-width:0.502327px;stroke-linecap:butt;stroke-linejoin:miter;stroke-opacity:1"/>
      <path d="m 150.07957,77.72623 -0.3254,2.177937 1.05833,1.322916 1.05833,-1.322916 -0.28428,-2.177937" style="fill:none;stroke:#000000;stroke-width:0.502327px;stroke-linecap:butt;stroke-linejoin:miter;stroke-opacity:1"/>
      <path d="m 150.6647,67.900268 c -2.1728,0.02568 -4.36403,0.805067 -5.94247,2.32252 -0.94897,0.910364 -2.73643,2.060363 -3.12637,3.318171 0.11898,0.783365 0.2069,1.573276 0.35549,2.351081 0.0856,0.03646 0.15355,-0.102588 0.22927,-0.133915 1.2965,-1.021023 3.63945,-2.057456 4.92941,-3.087116 2.44844,-0.0175 4.89734,-0.0093 7.34548,-0.04959 0.16301,-0.04809 0.28487,0.03435 0.39855,0.142917 1.24514,0.962801 3.54861,1.925574 4.79374,2.888375 0.10778,-0.06141 0.0597,-0.287866 0.10663,-0.412298 0.0789,-0.595376 0.21434,-1.185221 0.25041,-1.785169 -0.0158,-0.335929 -0.21508,-0.62769 -0.33443,-0.933901 -0.84052,-1.784826 -3.44842,-3.205871 -5.27406,-3.941343 -1.17824,-0.484321 -2.4601,-0.695818 -3.73165,-0.679732 z" style="fill:#666666;fill-opacity:1;stroke:#666666;stroke-width:0.564444;stroke-linecap:butt;stroke-linejoin:miter;stroke-miterlimit:4;stroke-dasharray:none;stroke-dashoffset:0;stroke-opacity:1"/>
      <ellipse style="fill:#333333;fill-opacity:1;stroke:#000000;stroke-width:0.264583;stroke-linecap:round;stroke-linejoin:round;stroke-dasharray:none;stroke-opacity:1" cx="150.8125" cy="70.908333" rx="13.229167" ry="2.6458333"/>
      <path style="fill:#333333;fill-opacity:1;fill-rule:evenodd;stroke:#000000;stroke-width:0.264583px;stroke-linecap:butt;stroke-linejoin:miter;stroke-opacity:1" d="m 144.19791,70.114582 1.58751,-3.704165 3.175,-4.7625 1.05598,-3.170292 0.002,-1.592208 2.11667,2.116666 1.05833,1.852084 0.79375,3.439583 2.11667,2.910417 1.32291,2.910415"/>
      <circle style="fill:#666666;fill-opacity:1;stroke:#666666;stroke-width:0.264583;stroke-linecap:round;stroke-linejoin:round;stroke-dasharray:none;stroke-opacity:1" cx="151.07709" cy="78.845833" r="0.26458332"/>
      <ellipse style="fill:#666666;fill-opacity:1;stroke:#666666;stroke-width:0.264583;stroke-linecap:round;stroke-linejoin:round;stroke-dasharray:none;stroke-opacity:1" cx="145.65312" cy="79.110413" rx="0.39687499" ry="0.26458332"/>
      <ellipse style="fill:#666666;fill-opacity:1;stroke:#666666;stroke-width:0.264583;stroke-linecap:round;stroke-linejoin:round;stroke-dasharray:none;stroke-opacity:1" cx="156.23645" cy="79.63958" rx="0.13229166" ry="0.26458332"/>
      <circle style="fill:#666666;fill-opacity:1;stroke:#666666;stroke-width:0.264583;stroke-linecap:round;stroke-linejoin:round;stroke-dasharray:none;stroke-opacity:1" cx="145.78542" cy="82.020836" r="0.26458332"/>
    </g></svg>
