<svg xmlns="http://www.w3.org/2000/svg" width="64" height="64" viewBox="182.87212383541524 54.80895076168646 24.264622829553502 24.264622829553502"><defs>
    <inkscape:path-effect xmlns:inkscape="http://www.inkscape.org/namespaces/inkscape" effect="skeletal" is_visible="true" pattern="M -3.4166906,58.569047 1.8423711,56.546332 1.957973,58.222305" copytype="repeated_stretched" prop_scale="1" scale_y_rel="false" spacing="-0.2" normal_offset="0" tang_offset="0" prop_units="false" vertical_pattern="false" fuse_tolerance="0" lpeversion="0" hide_knot="false"/>
  </defs><g transform="translate(68.066134,-11.801853)">
      <g transform="matrix(0.28222223,0,0,0.28222223,-2527.1978,304.31003)">
        <path style="fill:#efd2c3;fill-opacity:1;fill-rule:nonzero;stroke:#000000;stroke-width:2;stroke-miterlimit:4;stroke-dasharray:none;stroke-dashoffset:0;stroke-opacity:1" d="m 9377.4699,-799.7248 c 2.5303,22.087 17.4721,38.087 27.5303,38.087 9.942,0 25,-16 27.6465,-38.087 2.0466,-17.0806 -10.3857,-30.2583 -27.5884,-30.2583 -17.2027,0 -29.5463,13.1673 -27.5884,30.2583 z"/>
        <g transform="translate(837.33489,-180.93297)">
          <path d="m 8563.2882,-618.57175 -1.7708,-1.7799 h -5.2815 -1.8471" style="fill:none;stroke:#000000;stroke-width:1.7799px;stroke-linecap:butt;stroke-linejoin:miter;stroke-opacity:1"/>
          <path d="m 8572.1877,-618.57175 1.9717,-1.7799 h 6.9278" style="fill:none;stroke:#000000;stroke-width:1.7799px;stroke-linecap:butt;stroke-linejoin:miter;stroke-opacity:1"/>
          <path d="m 8561.2256,-620.28009 c 0.2506,0.4067 0.3951,0.88567 0.3951,1.39846 0,1.47447 -1.1953,2.66985 -2.6698,2.66985 -1.4746,0 -2.6699,-1.19538 -2.6699,-2.66985 0,-0.52667 0.1526,-1.01792 0.4159,-1.43157 z" style="fill:#ffffff;stroke:#000000;stroke-width:0.889949;stroke-miterlimit:4;stroke-dashoffset:0;stroke-opacity:1"/>
          <path d="m 8579.0246,-620.28027 c 0.2505,0.4067 0.3951,0.88567 0.3951,1.39846 0,1.47447 -1.1953,2.66985 -2.6699,2.66985 -1.4745,0 -2.6698,-1.19538 -2.6698,-2.66985 0,-0.52667 0.1525,-1.01792 0.4159,-1.43157 z" style="fill:#ffffff;stroke:#000000;stroke-width:0.889949;stroke-miterlimit:4;stroke-dashoffset:0;stroke-opacity:1"/>
          <circle transform="translate(89.999959,85.000024)" r="0.88994873" cy="-703.56268" cx="8468.8379" style="fill:#000000;fill-opacity:1;fill-rule:nonzero;stroke:#000000;stroke-width:0.889949;stroke-miterlimit:4;stroke-dasharray:none;stroke-dashoffset:0;stroke-opacity:1"/>
          <circle transform="translate(89.999959,85.000024)" r="0.88994873" cy="-703.56268" cx="8486.6934" style="fill:#000000;fill-opacity:1;fill-rule:nonzero;stroke:#000000;stroke-width:0.889949;stroke-miterlimit:4;stroke-dasharray:none;stroke-dashoffset:0;stroke-opacity:1"/>
        </g>
        <path style="fill:none;stroke:#000000;stroke-width:1.7799px;stroke-linecap:butt;stroke-linejoin:miter;stroke-opacity:1" d="m 9397.0636,-779.9259 h 3.5597 8.8995 3.5598"/>
        <path style="fill:none;stroke:#000000;stroke-width:1.7799px;stroke-linecap:butt;stroke-linejoin:miter;stroke-opacity:1" d="m 9403.0002,-796.6378 v 11 h 4 v -11"/>
        <path style="fill:#6c5353;fill-opacity:1;stroke:#6c5353;stroke-width:2;stroke-linecap:butt;stroke-linejoin:miter;stroke-miterlimit:4;stroke-dasharray:none;stroke-dashoffset:0;stroke-opacity:1" d="m 9404.4765,-832.9839 c -7.6989,0.091 -15.4631,2.8527 -21.056,8.2295 -3.3625,3.2257 -5.946,7.3004 -7.3277,11.7573 0.4216,2.7757 0.7331,5.5746 1.2596,8.3306 0.3034,0.1291 0.5441,-0.3635 0.8124,-0.4745 4.5939,-3.6178 9.1457,-7.2903 13.7164,-10.9386 8.6756,-0.062 17.3528,-0.033 26.0273,-0.1757 0.5776,-0.1704 1.0094,0.1217 1.4122,0.5064 4.4119,3.4115 8.8238,6.8229 13.2357,10.2344 0.3819,-0.2177 0.2115,-1.02 0.3778,-1.4609 0.2797,-2.1096 0.7595,-4.1997 0.8873,-6.3255 -0.056,-1.1903 -0.7621,-2.2241 -1.185,-3.3091 -2.9782,-6.3242 -8.4688,-11.3594 -14.9376,-13.9653 -4.1749,-1.7161 -8.7169,-2.4655 -13.2224,-2.4086 z"/>
      </g>
      <path d="m 117.90719,68.127345 0.7526,6.020732 h 16.55702 l 0.7526,-6.020732 -3.01038,3.01038 -3.01035,-3.01038 -3.01038,3.01038 -3.01038,-3.01038 -3.01035,3.01038 z" style="fill:#ffff00;stroke:#000000;stroke-width:0.752594;stroke-linecap:butt;stroke-linejoin:miter;stroke-miterlimit:4;stroke-dasharray:none;stroke-opacity:1"/>
    </g></svg>
